<svg xmlns="http://www.w3.org/2000/svg" width="332.868" height="107.531" viewBox="0 0 332.868 107.531">
  <g id="Group_78017" data-name="Group 78017" transform="translate(-18.88 -4516.897)">
    <path id="Path_2681" data-name="Path 2681" d="M8.3,36.775a37.877,37.877,0,0,1,7.871-1.523c1.488-.164,2.974-.276,4.466-.371,2.137-.134,4.267-.235,6.407-.3,4.072-.121,8.147-.167,12.22-.186,8.164-.036,16.319-.1,24.475-.607,8.458-.524,16.916-1.009,25.373-1.547,8.019-.51,16.037-1.02,24.058-1.409s16.062-.739,24.086-1.381c8.212-.656,16.432-1.009,24.656-1.295a116.334,116.334,0,0,0,11.7-.837c2.027-.277,4.048-.588,6.071-.916,1.98-.32,3.971-.532,5.959-.77a26.26,26.26,0,0,1,5.477.023,3.859,3.859,0,0,0,2.986-2.475l1.095-2.777a27.833,27.833,0,0,0,.976-7.576,27.836,27.836,0,0,0-.976-7.577l-1.095-2.777A3.859,3.859,0,0,0,191.121,0c-1.009.1-2.017.234-3.026.322-.92.08-1.842.075-2.763.082-1.969.018-3.935.106-5.9.209-4.086.216-8.165.558-12.252.712-7.918.3-15.843.331-23.752.918-4.241.313-8.477.679-12.717.984-3.853.279-7.709.463-11.566.645q-12.31.577-24.609,1.408c-8.1.542-16.2,1.044-24.293,1.593q-6.714.453-13.43.837c-4.011.228-8.033.26-12.048.313-8.219.11-16.439.185-24.646.8-2.021.151-4.04.356-6.053.659a43.2,43.2,0,0,0-4.879,1.024,30.079,30.079,0,0,0-3.654,1.37,7.663,7.663,0,0,0-2,1.271,9.772,9.772,0,0,0-2.515,4.657A28.852,28.852,0,0,0,.288,29.585a19.163,19.163,0,0,0,1.836,6.378q.7.924,1.406,1.845a2.309,2.309,0,0,0,3.237,0A7.985,7.985,0,0,1,8.3,36.775Z" transform="matrix(0.999, 0.035, -0.035, 0.999, 96.823, 4516.897)" fill="#5353e2"/>
    <path id="Path_2679" data-name="Path 2679" d="M14.019,57.2A68.59,68.59,0,0,1,27.3,54.83c2.511-.255,5.018-.428,7.534-.575,3.605-.208,7.2-.364,10.809-.463,6.871-.187,13.745-.256,20.618-.282,13.774-.052,27.533-.148,41.294-.931,14.27-.812,28.54-1.563,42.807-2.395,13.529-.791,27.056-1.58,40.59-2.182,13.554-.605,27.1-1.141,40.637-2.137,13.854-1.018,27.723-1.562,41.6-2,6.582-.207,13.185-.476,19.735-1.3,3.42-.43,6.83-.915,10.243-1.425,3.341-.5,6.7-.827,10.053-1.2a47.941,47.941,0,0,1,9.24.04,6.416,6.416,0,0,0,5.037-3.855q.924-2.164,1.845-4.327A40.243,40.243,0,0,0,330.979,20a40.275,40.275,0,0,0-1.653-11.809q-.924-2.163-1.849-4.329A6.43,6.43,0,0,0,322.437,0c-1.7.156-3.4.364-5.105.5-1.552.124-3.108.115-4.661.127-3.322.027-6.639.163-9.953.322-6.894.334-13.775.865-20.671,1.1-13.359.462-26.73.506-40.074,1.417-7.155.486-14.3,1.053-21.456,1.526-6.5.433-13.007.716-19.513,1q-20.769.891-41.518,2.179c-13.661.839-27.326,1.617-40.985,2.467q-11.327.7-22.659,1.3c-6.768.353-13.553.4-20.327.481-13.866.167-27.735.278-41.582,1.235-3.41.234-6.816.552-10.212,1.023a78.154,78.154,0,0,0-8.23,1.593A53.406,53.406,0,0,0,9.327,18.4a13.1,13.1,0,0,0-3.38,1.979,14.908,14.908,0,0,0-4.24,7.256A41.639,41.639,0,0,0,.489,45.988a28.179,28.179,0,0,0,3.1,9.94q1.185,1.441,2.374,2.876a4.13,4.13,0,0,0,5.461,0A13.581,13.581,0,0,1,14.019,57.2Z" transform="matrix(0.999, 0.035, -0.035, 0.999, 20.968, 4553.076)" fill="#5353e2"/>
    <path id="Path_2680" data-name="Path 2680" d="M20.344,67.381c1.244-.225,2.5-.574,3.746-.677,1.165-.1,2.33-.2,3.493-.3,6.377-.537,12.752-1.238,19.134-1.425,6.675-.2,13.351-.555,20.027-.555,6.814,0,13.626-.029,20.439.092q19.921.364,39.838.618c13.189.159,26.378.254,39.566.177,6.546-.044,13.091-.388,19.633-.654,6.425-.262,12.842-.729,19.262-1.28,1.411-.123,2.819-.369,4.229-.556,1.392-.19,2.787-.34,4.178-.588,3.569-.643,7.133-1.326,10.7-2.091,6.205-1.339,12.389-3.133,18.6-4.239,6.511-1.16,13.04-1.8,19.559-2.74a51.947,51.947,0,0,0,8.82-1.9,71.937,71.937,0,0,0,9.94-4.031c3.186-1.584,6.37-3.215,9.56-4.772a40.194,40.194,0,0,1,4.615-1.962,37.467,37.467,0,0,0,5.211-2.119c.83-.434.98-3.124.971-4.856a20.1,20.1,0,0,0-.207-2.868c-.127-.78-.389-2.026-.814-1.991-3.122.233-6.243.474-9.362.809q-4.721.506-9.454.626a138.681,138.681,0,0,1-18.378-1.036c1.041-.337,2.082-.668,3.122-1,3.738-1.209,7.464-2.734,11.223-3.545,2-.432,4.008-.79,6-1.348a17.715,17.715,0,0,0,3.013-1.085,26.21,26.21,0,0,0,3.182-1.943q.509-.13.765-1.222a16.234,16.234,0,0,0,.488-3.761c1.067-.789,1.263-4.613,1.251-6.916a28.6,28.6,0,0,0-.3-4.151c-.192-1.182-.555-2.857-1.177-2.877-3.251-.11-6.5-.66-9.75-.778-.381-.013-.764-.021-1.145-.023a64.771,64.771,0,0,0-8.378.611c-6.219.774-12.438,1.709-18.649,2.766-2.887.486-5.77,1.066-8.661,1.472-3.535.5-7.062.871-10.6,1.184-5.92.522-11.852.7-17.778.93-6.8.265-13.582.658-20.369,1.391-6.285.68-12.564,1.6-18.844,2.474q-9.458,1.309-18.918,2.623c-6.462.906-12.931,1.569-19.4,2.232-3.273.339-6.553.427-9.828.632-3.1.2-6.205.233-9.308.325-6.107.18-12.215.278-18.323.394-12.322.229-24.637.643-36.957,1.064q-10.151.353-20.3.762c-3.452.137-6.9.449-10.353.669-2.95.189-5.9.655-8.844,1-3.138.372-6.275.784-9.412,1.2-1.865.251-3.732.51-5.6.762-.81.113-1.623.22-2.435.333-.739.1-1.478.229-2.215.362a7.764,7.764,0,0,0-1.562.486,8.011,8.011,0,0,0-1.7,1.3,7.342,7.342,0,0,0-.676,2.446,27.634,27.634,0,0,0-.25,4.03,27.752,27.752,0,0,0,.291,4.039l.311,1.48q.288,1.174.834,1.325a10.817,10.817,0,0,0,1.94,1.16q.54-.141.817-1.307c.07-.235.132-.489.186-.756.345-.022.691-.017,1.037-.015.331,0,.661,0,.994-.018q1.12-.054,2.237-.115,2.881-.148,5.762-.295c2.082-.111,4.162-.187,6.243-.262-.215.044-.43.086-.644.127-4.912.9-9.821,1.807-14.728,2.843q-1.191.318-1.8,2.88a34.3,34.3,0,0,0-1.078,7.324c-.864-.027-1.728-.053-2.592-.074-.605-.017-.712,2.544-.707,3.53s.138,3.513.743,3.533c.827.024,1.656.064,2.483.1A59.907,59.907,0,0,0,3.894,63.9q.341,1.624.681,3.246.637,2.57,1.831,2.9C11.049,69.071,15.7,68.22,20.344,67.381Z" transform="matrix(0.999, 0.035, -0.035, 0.999, 22.277, 4530.547)" fill="#5353e2"/>
  </g>
</svg>
