<svg xmlns="http://www.w3.org/2000/svg" width="702.259" height="107.951" viewBox="0 0 702.259 107.951">
  <g id="Group_78019" data-name="Group 78019" transform="translate(-154.8 -3138.249)">
    <path id="Path_2397" data-name="Path 2397" d="M468.591,459.751a186.368,186.368,0,0,1,24.2-2.822c4.576-.3,9.144-.511,13.732-.686,6.571-.249,13.121-.436,19.7-.555,12.522-.225,25.049-.31,37.575-.344,25.1-.067,50.177-.188,75.255-1.124,26.007-.971,52.014-1.87,78.016-2.865,24.656-.945,49.31-1.889,73.974-2.611,24.7-.725,49.385-1.368,74.06-2.558,25.249-1.215,50.524-1.868,75.811-2.4,12-.249,24.029-.571,35.967-1.55q9.349-.769,18.668-1.7c6.089-.593,12.21-.985,18.323-1.426a133.77,133.77,0,0,1,16.839.043q6.044-.514,9.182-4.585,1.685-2.573,3.367-5.145a34.306,34.306,0,0,0,0-28.071q-1.682-2.571-3.367-5.145-3.137-4.073-9.182-4.585c-3.1.186-6.2.434-9.3.6-2.828.148-5.664.138-8.494.153-6.053.034-12.1.2-18.139.388-12.564.4-25.1,1.034-37.672,1.32-24.347.555-48.714.613-73.033,1.7-13.039.58-26.064,1.257-39.1,1.823-11.846.518-23.7.857-35.561,1.194q-37.851,1.068-75.666,2.608c-24.9,1-49.8,1.934-74.7,2.95q-20.644.839-41.3,1.551c-12.334.423-24.7.481-37.045.58-25.27.2-50.545.342-75.781,1.486-6.215.28-12.423.659-18.611,1.22-5.025.453-10.051,1.09-15,1.9-3.828.624-7.522,1.606-11.236,2.539a28.814,28.814,0,0,0-6.161,2.354,18.124,18.124,0,0,0-7.733,8.627c-3.381,6.727-3.832,14.778-2.237,21.817a26.052,26.052,0,0,0,5.645,11.815q2.159,1.712,4.324,3.418a10.71,10.71,0,0,0,9.952,0A29.224,29.224,0,0,1,468.591,459.751Z" transform="translate(-284.447 2746.623)" fill="#5353e2"/>
    <path id="Path_2673" data-name="Path 2673" d="M455.29,448.936a53.1,53.1,0,0,1,11.594-2.374c2.192-.256,4.381-.43,6.578-.578,3.148-.21,6.286-.367,9.437-.467,6-.189,12-.261,18-.289,12.025-.057,24.037-.158,36.052-.945,12.459-.817,24.918-1.573,37.374-2.41,11.812-.8,23.622-1.589,35.438-2.2,11.834-.61,23.658-1.151,35.479-2.152,12.1-1.023,24.2-1.572,36.318-2.018a162.144,162.144,0,0,0,17.23-1.3c2.986-.432,5.963-.917,8.943-1.428,2.917-.5,5.85-.829,8.778-1.2a36.567,36.567,0,0,1,8.067.037q2.9-.432,4.4-3.857.807-2.165,1.613-4.328a49.182,49.182,0,0,0,0-23.615q-.806-2.163-1.613-4.328-1.5-3.427-4.4-3.857c-1.487.157-2.97.365-4.457.5-1.355.124-2.713.116-4.069.128-2.9.028-5.8.165-8.69.326-6.019.337-12.026.87-18.047,1.11-11.663.467-23.337.515-34.987,1.431-6.246.488-12.486,1.058-18.732,1.534-5.675.435-11.356.721-17.036,1q-18.133.9-36.248,2.194c-11.927.844-23.858,1.627-35.783,2.482q-9.89.706-19.783,1.305c-5.909.356-11.833.4-17.747.488-12.106.172-24.214.288-36.3,1.25-2.978.235-5.951.555-8.916,1.027a60.619,60.619,0,0,0-7.186,1.6,42.811,42.811,0,0,0-5.383,2.136,11.22,11.22,0,0,0-2.951,1.98,15.508,15.508,0,0,0-3.7,7.257,47.488,47.488,0,0,0-1.072,18.354,31.182,31.182,0,0,0,2.7,9.939q1.034,1.44,2.072,2.875a3.27,3.27,0,0,0,4.768,0A11.743,11.743,0,0,1,455.29,448.936Z" transform="translate(125.03 2794.623)" fill="#5353e2"/>
    <path id="Path_2398" data-name="Path 2398" d="M498.224,528.838c2.885-.2,5.792-.509,8.685-.6q4.05-.135,8.095-.275c14.779-.5,29.553-1.135,44.34-1.329,15.464-.206,30.933-.548,46.4-.582,15.784-.035,31.563-.095,47.345-.026q46.143.212,92.276.328,45.826.1,91.652-.051c15.163-.072,30.329-.4,45.488-.666,14.886-.259,29.757-.7,44.635-1.2,3.27-.113,6.535-.333,9.8-.5,3.227-.171,6.461-.308,9.685-.529q12.413-.86,24.808-1.861c14.39-1.188,28.736-2.769,43.147-3.757,15.1-1.036,30.228-1.625,45.34-2.467,6.822-.379,13.68-.853,20.454-1.69,7.743-.95,15.418-2.1,23.074-3.533,7.4-1.385,14.795-2.809,22.2-4.171,3.552-.657,7.125-1.251,10.712-1.718,4.062-.529,8.087-1.073,12.1-1.857,1.929-.379,2.308-2.7,2.308-4.2a6.781,6.781,0,0,0-.445-2.476c-.285-.673-.878-1.748-1.863-1.715-7.234.217-14.466.442-21.7.747q-10.943.461-21.907.59c-14.181.173-28.391-.268-42.559-.8q3.623-.444,7.245-.883c8.672-1.063,17.321-2.4,26.039-3.119,4.639-.384,9.293-.7,13.919-1.2,2.346-.247,4.675-.532,6.993-.952,2.491-.453,4.947-1.073,7.395-1.695a2.269,2.269,0,0,0,1.786-1.059,6.262,6.262,0,0,0,1.176-3.251c2.481-.687,2.98-3.99,2.98-5.979a9.646,9.646,0,0,0-.644-3.583c-.43-1.02-1.252-2.465-2.693-2.478-7.53-.079-15.047-.536-22.576-.622-.883-.009-1.769-.014-2.651-.014-6.479,0-12.945.257-19.416.571q-21.623,1.051-43.233,2.485c-6.693.435-13.38.95-20.08,1.315-8.194.446-16.37.788-24.571,1.077-13.72.481-27.464.668-41.192.895-15.744.264-31.469.638-47.2,1.306-14.568.62-29.124,1.445-43.681,2.233q-21.924,1.179-43.854,2.363c-14.981.816-29.974,1.422-44.969,2.028-7.586.31-15.184.4-22.775.6-7.186.185-14.377.234-21.565.328-14.148.187-28.3.3-42.45.435-28.546.261-57.078.682-85.622,1.11q-23.52.357-47.035.763c-8,.136-16,.423-23.991.631-6.835.178-13.667.6-20.5.913q-10.909.506-21.818,1.089-6.485.34-12.98.687-2.817.152-5.644.3c-1.713.09-3.428.206-5.135.324-1.222.083-2.42.243-3.624.428a28.231,28.231,0,0,0-3.944,1.135,4.282,4.282,0,0,0-1.6,2.115,10.008,10.008,0,0,0,0,6.968l.7,1.276a2.456,2.456,0,0,0,1.916,1.14,45.193,45.193,0,0,0,4.481.992,2.442,2.442,0,0,0,1.908-1.133,4.609,4.609,0,0,0,.44-.654c.8-.021,1.6-.019,2.4-.019.766,0,1.532,0,2.3-.021q2.6-.052,5.183-.111,6.676-.142,13.352-.284c4.825-.106,9.644-.183,14.466-.259-.5.039-1,.076-1.494.113-11.39.8-22.772,1.611-34.151,2.531a5.411,5.411,0,0,0-4.206,2.5,13.724,13.724,0,0,0-2.583,6.33q-3-.028-6-.051c-1.4-.012-1.68,2.2-1.68,3.052s.277,3.033,1.68,3.047c1.916.016,3.835.046,5.751.069a20.633,20.633,0,0,0,1.3,5.641q.771,1.4,1.54,2.8a5.412,5.412,0,0,0,4.206,2.5C476.673,530.345,487.447,529.587,498.224,528.838Z" transform="translate(-296.633 2704.218)" fill="#5353e2"/>
  </g>
</svg>
