<svg xmlns="http://www.w3.org/2000/svg" width="377.403" height="12.912" viewBox="0 0 377.403 12.912">
  <path id="Path_2674" data-name="Path 2674" d="M425.447,645.989c-8.246-.342-16.5-.586-24.753-.88-2.722-.1-5.453-.1-8.176-.152l-17.728-.321c-3.291-.06-6.584-.134-9.876-.179q-1.43-.02-2.861-.018c-2.142,0-4.287.023-6.429.025q-14.625.012-29.248.024c-2.32,0-4.641.041-6.959.064q-8.62.078-17.237.159c-6.483.061-12.967.085-19.447.2l-31.464.553c-6.072.106-12.149.166-18.218.338q-15.689.442-31.376.88c-5.716.159-11.434.292-17.145.518q-16.222.639-32.445,1.283c-5.779.229-11.564.4-17.33.748q-16.15.974-32.3,1.951-3.49.21-6.982.422c-4.648.28-9.282.717-13.917,1.087l-.873.085a3.727,3.727,0,0,0-1.447.6,1.888,1.888,0,0,0,0,3.289,3.889,3.889,0,0,0,2.32.681c5.594-.446,11.179-.921,16.789-1.258q7.795-.471,15.59-.938l17.014-1.023c2.283-.137,4.573-.319,6.862-.409q13.263-.522,26.529-1.035l16.536-.647c2.278-.089,4.555-.2,6.832-.265q13.147-.372,26.29-.714,7.966-.218,15.934-.432c1.784-.048,3.569-.11,5.356-.14q14.194-.234,28.386-.46l15.852-.258c1.883-.03,3.762-.075,5.642-.088l29.274-.213c6.089-.045,12.173-.086,18.261-.075l31.088.053c2.043,0,4.087.063,6.132.105l17.158.357q6.435.137,12.872.268c3.042.064,6.085.225,9.125.341q13.43.514,26.855,1.093c2.273.1,4.544.223,6.817.341,2.435.125,4.876.247,7.3.442.379.044.754.095,1.132.152a5.06,5.06,0,0,0,2.736-.253,2.868,2.868,0,0,0,1.632-1.506c.515-1.324-.616-2.731-2.479-3.1a41.455,41.455,0,0,0-5.006-.568q-1.726-.125-3.452-.247c-2.214-.158-4.444-.238-6.662-.357C433.788,646.29,429.614,646.161,425.447,645.989Z" transform="translate(-78.272 -644.439)" fill="#fd9dea"/>
</svg>
