<svg xmlns="http://www.w3.org/2000/svg" width="210.049" height="45.646" viewBox="0 0 210.049 45.646">
  <g id="Group_78019" data-name="Group 78019" transform="translate(-142.475 -3742.918)">
    <g id="Group_77995" data-name="Group 77995" transform="translate(7.449 -272.338)">
      <g id="Group_77994" data-name="Group 77994" transform="translate(135.027 4009.957)">
        <g id="Group_77732" data-name="Group 77732" transform="translate(0 5.299)">
          <g id="Group_77731" data-name="Group 77731" transform="translate(0 0)">
            <path id="Path_2391" data-name="Path 2391" d="M224.633,116.7a.631.631,0,0,1,.055-.918c5.719-5.149,7.616-15.1,2.241-21.568-1.177-1.415-3.609-2.086-4.434,2.468-.969,5.337-.919,10.827-1.112,16.986,0,.041-.006.124-.013.219a1.064,1.064,0,0,1-.442.794,9.911,9.911,0,0,1-4.539,1.454c-.1,0,.267-.289.31-.337,3.39-3.786,3.575-13,1.539-18.1-2.019-5.052-4.935-4.806-6.751-.148-1.059,2.715-1.348,11.006-1.153,17.439.007.235-.206.331-.44.346-1.413.087-3.51-.752-3.273-5.11.036-.672.508-2.246-.759-3.051a1.8,1.8,0,0,0-2.581,1.885c.062.394.609,5.553-1.911,5.251-.721-.083-1.595-.607-1.255-2.674.316-1.915,1.679-6.135-1.623-6.3-2.369-.121-3.025,3.388-1.122,3.9.824.125-.742,3.352-.506,5.314a4.045,4.045,0,0,0,3.347,3.437c1.992.363,3.174-.723,4.147-1.748a.52.52,0,0,1,.806.045c.9,1.373,2.976,2,5.024,2.325a.336.336,0,0,1,.279.336c-.176,4.479-.823,6.393-.671,10.62a10.7,10.7,0,0,0,.378,2.512c.992,3.512,3.673,4.777,5.406,2.837a6.362,6.362,0,0,0,1.427-2.744c1.078-4.326-1.7-10.04-2.847-12.157a5.394,5.394,0,0,1-.3-.556c-.073-.2-.007-.326.153-.321a20.563,20.563,0,0,0,6.65-.948c.095-.039.143-.059.233-.1a.292.292,0,0,1,.389.253c0,.1,0,.145,0,.246a67.675,67.675,0,0,0,.56,11.76c.121.656.288,1.268.439,1.838,1.251,4.738,5.239,3.8,6.347-.159a14.9,14.9,0,0,0,.351-1.6c.655-4,.037-9.668-4.346-13.728m-10.775,12.053c-.7-.009-1.229-1.066-.889-5.253a.286.286,0,0,1,.345-.237.163.163,0,0,1,.1.1q.128.343.239.675c.9,2.693.933,4.722.2,4.712m.1-14.856a.26.26,0,0,1-.437-.2c.479-6.752.429-12.979.917-14.008,1.422-3,2.827,11.833-.481,14.207m11.729-13.638c1.4,1.06,1.909,6.031-.535,9.918a.254.254,0,0,1-.467-.146,75.331,75.331,0,0,1,.552-9.6.289.289,0,0,1,.45-.176m-1.148,26.856c-.02-.219-.028-.42-.04-.6l-.063-3.773c.006-.246.012-.533.017-.872a.251.251,0,0,1,.478-.1c3.082,5.28-.167,7.8-.391,5.345" transform="translate(-170.392 -90.178)" fill="#fff"/>
            <path id="Path_2392" data-name="Path 2392" d="M338.694,177.083c0-.042-.642-2.294-1.8-2.523-.5-.1-4.249,3.686-4.964,4.591-.309.4-.286.728.215.706,1.274-.071,6.632-1.812,6.594-2.564,0-.031-.049-.2-.048-.21" transform="translate(-276.38 -153.867)" fill="#fff"/>
            <path id="Path_2393" data-name="Path 2393" d="M379.866,107.778c-.22.248-3.432.563-5.674.79a.51.51,0,0,0-.46.449c-.256,2.332-1.993,6.59-3.589,7.215,0,0-7.313,2.7-9.446,3.343a3.483,3.483,0,0,1-.611.114c-.137.006-.266-.017-.275-.126-.043-.532-.882-2.443-1.653-2.744-.322-.126-.218-.36-.131-.509.8-1.384,6.453-8.089,6.453-8.089.778-.9,3.728-1.063,5.943-1.146a10.226,10.226,0,0,1,2.03.1.51.51,0,0,0,.567-.342,24.158,24.158,0,0,1,2.823-5.717.28.28,0,0,1,.1-.056c.541-.02,1.048,2.514,1.122,3.8.03.52.166,1.495.679,1.84.192.133.6.092.823.136a2.766,2.766,0,0,1,1.1.4c.37.273.277.448.193.55" transform="translate(-296.884 -96.362)" fill="#fff"/>
            <path id="Path_2394" data-name="Path 2394" d="M82.813,79.556c-7.691.795-6.136,8.808-1.808,8.291,6.936-.829,15.876,4.094,14.79,13.33-.957,8.136-9.94,11.1-12.327,8.626-1.875-1.581-.641-7.65.644-12.932a18.953,18.953,0,0,0,.555-3.468c.2-3.989-5.169-3.734-5.269-.6-.208,6.52-.54,17.2-.7,18.468a2.4,2.4,0,0,0,2.037,2.742c8.744,1.216,19.461-2.807,21.04-12.335,2.055-12.4-8.856-23.166-18.96-22.122" transform="translate(-77.402 -79.486)" fill="#fff"/>
            <path id="Path_2395" data-name="Path 2395" d="M341.634,204.672h-.223v.584h-.143v-.584h-.223v-.134h.588Z" transform="translate(-283.667 -177.322)" fill="#fff"/>
            <path id="Path_2396" data-name="Path 2396" d="M344.991,205.256h-.143v-.542l-.177.473h-.151l-.177-.469v.538H344.2v-.718h.21l.187.485.186-.485h.21Z" transform="translate(-286.134 -177.322)" fill="#fff"/>
          </g>
        </g>
        <text id="_" data-name="+" transform="translate(87.801 30.147)" fill="#fff" font-size="16" font-family="FilsonProRegular, Filson Pro"><tspan x="0" y="0">+</tspan></text>
        <g id="Group_77822" data-name="Group 77822" transform="translate(106.977 9.419)">
          <g id="Group_28" data-name="Group 28" transform="translate(0 0)">
            <path id="Path_20" data-name="Path 20" d="M571.618,126.652a2.921,2.921,0,0,1-1.221-1.708,4.986,4.986,0,0,1-3.8,2.032,3.641,3.641,0,0,1-3.227-1.763c-.737-1.159-.879-2.851-.485-5.074a9.545,9.545,0,0,1,2.332-4.915,5.371,5.371,0,0,1,3.983-1.914,3.489,3.489,0,0,1,2.341.78c0-.059,0-.089.03-.119a.688.688,0,0,1,.774-.649l1.009,0c.415,0,.622.21.531.655l-1.212,6.611c-.419,2.246-.5,3.784.14,4.28a1.066,1.066,0,0,1,.394,1.038h0A1.071,1.071,0,0,1,571.618,126.652Zm-1.083-6.869.122-.92c.306-2.4-.253-3.59-1.8-3.6-1.69-.006-3.151,1.827-3.667,4.881-.576,3.231-.019,4.865,1.731,4.872C568.586,125.026,570.108,123.045,570.535,119.784Z" transform="translate(-542.859 -104.279)" fill="#fff"/>
            <path id="Path_21" data-name="Path 21" d="M585.161,125.361a1.048,1.048,0,0,1-1.171.846,5.607,5.607,0,0,1-4.708-4.167c-.618-1.337-.5-2.078.335-2.164,2.73-.346,4.426-1.585,4.789-3.453.212-1.1-.289-1.87-1.268-1.873a3.851,3.851,0,0,0-2.884,1.71,10.313,10.313,0,0,0-1.946,4.679c0,.03-.03.03-.03.059l-.819,4.594a.694.694,0,0,1-.745.65l-1.008,0c-.415,0-.593-.21-.5-.655l3.426-19.15c.091-.445.3-.651.715-.649l1.038,0c.445,0,.622.21.532.655l-.273,1.453-.575,3.053c-.242,1.3-.425,2.46-.607,3.468a5.909,5.909,0,0,1,4.012-1.824c2.372.009,3.672,1.468,3.218,3.839-.364,2.016-2.269,3.877-5.12,4.668a4.7,4.7,0,0,0,2.856,3.07,1.052,1.052,0,0,1,.734,1.191Z" transform="translate(-544.135 -103.512)" fill="#fff"/>
            <path id="Path_22" data-name="Path 22" d="M598.327,124.285a.9.9,0,0,1-.129,1.368,8.352,8.352,0,0,1-4.9,1.426c-4.035-.015-5.954-2.218-5.135-6.843a9.2,9.2,0,0,1,2.422-4.915,5.767,5.767,0,0,1,4.131-1.912,3.442,3.442,0,0,1,3.05,1.316,3.3,3.3,0,0,1,.314,3.057,5.933,5.933,0,0,1-2.444,3.076,7.553,7.553,0,0,1-4.1,1.23c-.5,0-.711-.21-.649-.893.062-.741.36-1.1.805-1.095a4.039,4.039,0,0,0,4.1-2.565c.51-1.451.039-2.165-1.415-2.17-1.78-.007-3.389,1.944-3.9,4.879-.576,3.112.634,4.868,3.156,4.878a6.363,6.363,0,0,0,3.531-.975.9.9,0,0,1,1.135.109Z" transform="translate(-545.441 -104.289)" fill="#fff"/>
            <path id="Path_23" data-name="Path 23" d="M604.038,125.621a1.024,1.024,0,0,1-1.324.791c-1.949-.665-2.47-3.155-1.825-6.717l.879-4.95-.772,0c-.416,0-.622-.21-.531-.655l.121-.652a.7.7,0,0,1,.774-.649l.771,0,.7-3.913a.658.658,0,0,1,.745-.62l1.038,0c.415,0,.562.21.5.625l-.7,3.913,1.454.005c.415,0,.622.21.532.655l-.121.652a.705.705,0,0,1-.774.65l-1.424-.006-.909,4.951a12.737,12.737,0,0,0-.28,3.5,1.571,1.571,0,0,0,.667,1.268.962.962,0,0,1,.506,1Z" transform="translate(-546.713 -103.764)" fill="#fff"/>
            <path id="Path_24" data-name="Path 24" d="M635.841,125.743a1.023,1.023,0,0,1-1.324.791c-1.95-.665-2.471-3.154-1.826-6.716L634.633,109a.658.658,0,0,1,.744-.621l1.039,0c.415,0,.562.21.5.625l-1.94,10.82a12.734,12.734,0,0,0-.28,3.5,1.574,1.574,0,0,0,.667,1.269.96.96,0,0,1,.506,1Z" transform="translate(-549.976 -103.776)" fill="#fff"/>
            <path id="Path_25" data-name="Path 25" d="M610.5,125.508a1.1,1.1,0,0,1-1.538.8c-1.455-.7-1.85-2.75-1.248-6.143l1.183-6.61c.091-.444.3-.652.744-.65l1.038,0c.415,0,.593.209.5.654L610,120.176c-.392,2.254-.511,3.771.1,4.272a1.11,1.11,0,0,1,.4,1.061Zm1.138-15.233a1.5,1.5,0,0,1-2.017-.008,1.427,1.427,0,0,1,.334-1.9,1.526,1.526,0,0,1,2.017.008A1.46,1.46,0,0,1,611.639,110.275Z" transform="translate(-547.427 -103.737)" fill="#fff"/>
            <path id="Path_26" data-name="Path 26" d="M620.623,124.932a6.064,6.064,0,0,1-4.28,2.208c-2.847-.011-3.789-2.21-2.94-6.834l1.121-6.2c.091-.445.3-.651.744-.649l1.039,0c.415,0,.592.21.5.655-.242,1.512-.637,3.557-1.092,6.2-.637,3.646-.315,4.863.961,4.868a3.4,3.4,0,0,0,2.735-1.739,11.266,11.266,0,0,0,1.768-4.532,8.205,8.205,0,0,0-.4-4.837c-.353-.772,1.518-1.181,2.079-.5q1.285,1.474.6,5.342A11.209,11.209,0,0,1,620.623,124.932Z" transform="translate(-548.004 -104.271)" fill="#fff"/>
            <path id="Path_27" data-name="Path 27" d="M629.026,125.579a1.1,1.1,0,0,1-1.538.8c-1.454-.7-1.85-2.75-1.247-6.142l1.183-6.611c.09-.444.3-.652.744-.65l1.038,0c.416,0,.593.21.5.655l-1.183,6.61c-.392,2.254-.51,3.771.1,4.272a1.107,1.107,0,0,1,.4,1.061Zm1.139-15.233a1.5,1.5,0,0,1-2.018-.008,1.427,1.427,0,0,1,.334-1.9,1.527,1.527,0,0,1,2.017.008A1.458,1.458,0,0,1,630.164,110.346Z" transform="translate(-549.317 -103.744)" fill="#fff"/>
            <path id="Path_28" data-name="Path 28" d="M637.591,113.8c-.342-.054-2.864-.274-4.412-.406a1.19,1.19,0,0,0-1.289,1.111h0A1.191,1.191,0,0,0,633,115.768l2.6-.091s3.469-.4,2.708,3.411l-.3,1.32c-.816,4.537.048,6.823,3.131,6.835a4.5,4.5,0,0,0,3.152-1.322l-.275,1.511c0,.118-.09.357-.09.444a2.4,2.4,0,0,1-.535.03c-3.409-.013-5.43.868-6.119,2.675a2.676,2.676,0,0,0,.344,2.76,3.342,3.342,0,0,0,2.757,1.166c2.639.01,4.516-1.911,5.478-5.2a10.085,10.085,0,0,0,7.095-8.9l.029-.3c.093-.445-.085-.652-.5-.653l-.683,0c-.444,0-.653.2-.744.648a1.357,1.357,0,0,0-.061.3c-.7,3.824-2.247,6.162-4.683,7.014l2.393-13.163c.093-.445-.117-.652-.53-.653l-1.008,0a.707.707,0,0,0-.776.648l-1.031,5.782v.057a8.871,8.871,0,0,1-1.527,3.7,3.021,3.021,0,0,1-2.348,1.5c-1.444-.006-1.651-.9-1.366-3.429.034-.311.082-.647.14-1.009l.075-.376c.141-.717.3-1.24.395-1.964C641.28,114.255,637.591,113.8,637.591,113.8Zm3.139,18.754c-1.1,0-1.57-.776-1.121-1.723.359-.741,1.4-1.094,3.179-1.058a4.161,4.161,0,0,0,.651-.026C642.809,131.611,641.888,132.556,640.73,132.552Z" transform="translate(-549.921 -104.287)" fill="#fff"/>
            <path id="Path_29" data-name="Path 29" d="M552.286,103.264c.9-.071,5.543.142,7.908,2.944a6.848,6.848,0,0,1,1.234,5.814c-.8,3.448-4.611,5.532-4.611,5.532s2.767,2.313,2.284,5.12A7.32,7.32,0,0,1,556,127.531a10.956,10.956,0,0,1-6.332,2.031h0a7.016,7.016,0,0,1-5.057-1.873c-2.861-2.891-3.562-6.518-2.084-10.783a32.855,32.855,0,0,1,2.451-4.7,1.24,1.24,0,0,1,.954-.493c.045,0,.09,0,.135.007l.113.013a1.219,1.219,0,0,1,.946.61,1.164,1.164,0,0,1-.082,1.247,14.716,14.716,0,0,0-2.933,6.753,6.164,6.164,0,0,0,1.492,4.825,6,6,0,0,0,4.557,1.993,8.827,8.827,0,0,0,3.921-1.008,4.668,4.668,0,0,0,2.758-3.424,4.166,4.166,0,0,0-1-3.217,2.811,2.811,0,0,0-1.146-.749l-.07-.031-.075.044a12,12,0,0,1-3.854,1.287c-.119.012-.233.017-.348.017a2.522,2.522,0,0,1-2.227-1.14,2.941,2.941,0,0,1,.04-3.041,2.728,2.728,0,0,1,2.358-1.373c.032,0,.063,0,.094,0a8.1,8.1,0,0,1,4.128,1.462l.082.045.081-.021a5.142,5.142,0,0,0,2.614-8.649,6.017,6.017,0,0,0-4.59-1.688c-.243,0-.5.008-.752.025-4.891.339-7.875,3.111-8.629,8.019a10.37,10.37,0,0,0-.1,1.621,1.323,1.323,0,0,1-1.207,1.407,1.072,1.072,0,0,1-.543-.112,2.417,2.417,0,0,1-1.067-1.711S539.66,104.252,552.286,103.264Zm.088,14.034a3,3,0,0,0-1.852-.687.69.69,0,0,0-.718.393.7.7,0,0,0,.01.686.786.786,0,0,0,.71.294A2.916,2.916,0,0,0,552.374,117.3Z" transform="translate(-540.608 -103.253)" fill="#fff"/>
          </g>
        </g>
      </g>
    </g>
  </g>
</svg>
