<svg xmlns="http://www.w3.org/2000/svg" width="281.458" height="22.385" viewBox="0 0 281.458 22.385">
  <path id="Trazado_2683" data-name="Trazado 2683" d="M337.124,222c-1.01.078-2.024.14-3.032.243l-4.181.428a48.474,48.474,0,0,0-6.854,1.2,31.686,31.686,0,0,0-6.932,2.672c-.437.229-.87.479-1.322.682l-1.459.655c-.69.278-1.383.54-2.094.761a17.466,17.466,0,0,1-2.518.569c-.742.076-1.48.116-2.226.12a16.5,16.5,0,0,1-2.111-.142,23.935,23.935,0,0,1-2.834-.629,27.569,27.569,0,0,1-2.88-1.054,42,42,0,0,1-4.688-2.435c-.713-.428-1.421-.866-2.117-1.32-.84-.55-1.669-1.1-2.538-1.607a14.3,14.3,0,0,0-2.059-1.039,10.577,10.577,0,0,0-1.422-.428,8.587,8.587,0,0,0-1.486-.165,5.689,5.689,0,0,0-.887.086,9.188,9.188,0,0,0-1.261.286,10.97,10.97,0,0,0-1.865.864q-1.828.96-3.653,1.924c-1.54.816-3.094,1.613-4.688,2.314-.973.389-1.958.735-2.963,1.034a29.926,29.926,0,0,1-4.031.858,35.475,35.475,0,0,1-3.94.277,32.442,32.442,0,0,1-4.459-.331c-1.873-.267-3.719-.643-5.557-1.087a35.333,35.333,0,0,1-4.981-1.577q-2.415-1.058-4.723-2.334a37.046,37.046,0,0,0-5.424-2.523,16.557,16.557,0,0,0-2.292-.6,12.09,12.09,0,0,0-8.056,1.2,37.07,37.07,0,0,0-5.615,3.789c-1.084.81-2.136,1.668-3.2,2.5-.889.682-1.774,1.366-2.71,1.986A20.949,20.949,0,0,1,211,230.863c-.5.2-.993.381-1.5.543a12.874,12.874,0,0,1-2.045.444c-.273.028-.546.043-.82.046a5.483,5.483,0,0,1-.588-.022,10.971,10.971,0,0,1-1.621-.474,34.132,34.132,0,0,1-5.382-3.341c-.811-.644-1.6-1.313-2.353-2.019q-.8-.737-1.589-1.477a51.849,51.849,0,0,0-4.122-3.868,12.566,12.566,0,0,0-1.98-1.231,7.712,7.712,0,0,0-1.234-.454l-.416-.086-.872-.118c-.141-.007-.282-.017-.423-.026q-.079,0-.158,0a4.625,4.625,0,0,0-.779.067,9.031,9.031,0,0,0-1.481.328,23.735,23.735,0,0,0-2.8,1.082c-.748.326-1.484.68-2.225,1.025-.521.244-1.051.475-1.555.751l-2.381,1.307c-.4.219-.806.425-1.192.667q-1.075.68-2.152,1.359c-.541.341-1.092.669-1.624,1.025l-4,2.677a57.565,57.565,0,0,1-8.97,5.2c-.7.285-1.412.552-2.134.79a17.575,17.575,0,0,1-2.739.631c-.393.045-.783.079-1.181.1a11.022,11.022,0,0,1-1.737-.066,13.176,13.176,0,0,1-2.423-.639,16.089,16.089,0,0,1-2.434-1.446,36.882,36.882,0,0,1-3.375-3.229c-.534-.562-1.073-1.117-1.611-1.674-.645-.669-1.345-1.283-2.052-1.884a9.717,9.717,0,0,0-1.882-1.258,10.8,10.8,0,0,0-1.218-.495,5.516,5.516,0,0,0-1.278-.2,7.551,7.551,0,0,0-.828.093,5.285,5.285,0,0,0-1.141.4,4.115,4.115,0,0,0-1.019.676c-.3.291-.592.592-.877.9-.542.59-1.023,1.25-1.525,1.875-.4.493-.789.989-1.186,1.485-.46.576-.942,1.135-1.411,1.7a21.8,21.8,0,0,1-3.114,3.055,16.834,16.834,0,0,1-2.781,1.642,14.775,14.775,0,0,1-2.75.73,18.2,18.2,0,0,1-3.99-.038,27.831,27.831,0,0,1-6.109-1.788,48.684,48.684,0,0,1-5.2-2.717c-.87-.517-1.709-1.084-2.545-1.652s-1.684-1.143-2.516-1.728-1.671-1.19-2.543-1.734a25.609,25.609,0,0,0-2.767-1.5A12.909,12.909,0,0,0,84.765,225a9.049,9.049,0,0,0-1.356.148,14.182,14.182,0,0,0-1.4.305,9.4,9.4,0,0,0-1.208.458c-.429.184-.856.375-1.283.567a35.48,35.48,0,0,0-5.347,2.992A25.643,25.643,0,0,0,70,233.023a22.854,22.854,0,0,0-1.646,1.92,3.792,3.792,0,0,0-.566,1.027l-.152.442c-.061.316-.121.629-.181.945a1.215,1.215,0,0,0,.3,1.139,1.175,1.175,0,0,0,1.139.3c.281-.079.561-.16.842-.241a6.669,6.669,0,0,0,1.137-.483,1.174,1.174,0,0,0,.419-1.6,1.111,1.111,0,0,0-.7-.527,24,24,0,0,1,3.388-3.222,31.236,31.236,0,0,1,6.352-3.663c.508-.212,1.019-.42,1.533-.619a9.607,9.607,0,0,1,1.983-.5,11.077,11.077,0,0,1,1.783-.022c.4.065.784.148,1.18.25a13.534,13.534,0,0,1,1.681.588,25.114,25.114,0,0,1,3.077,1.721c1.159.73,2.228,1.6,3.34,2.4s2.2,1.574,3.32,2.328,2.272,1.427,3.44,2.079a35.081,35.081,0,0,0,7.183,3.036,18.873,18.873,0,0,0,7.948.675,13.834,13.834,0,0,0,3.6-.988,16.3,16.3,0,0,0,3.145-1.818,20.659,20.659,0,0,0,2.941-2.649c.478-.518.92-1.058,1.362-1.6.644-.79,1.273-1.59,1.9-2.4a31.583,31.583,0,0,1,2.417-2.918,2.251,2.251,0,0,1,.2-.113c.1-.034.193-.062.291-.086.032,0,.063,0,.1,0a4.113,4.113,0,0,1,.52.148,8.878,8.878,0,0,1,1.224.689,32.926,32.926,0,0,1,3.091,2.92,54.143,54.143,0,0,0,3.873,3.788,17.257,17.257,0,0,0,1.9,1.367,14.045,14.045,0,0,0,2.457,1.2,11.259,11.259,0,0,0,2.428.587,13.709,13.709,0,0,0,2.936.123,19.81,19.81,0,0,0,2.438-.342,18.515,18.515,0,0,0,2.851-.817,35.081,35.081,0,0,0,5.048-2.32c2.378-1.307,4.617-2.841,6.864-4.356,1.073-.725,2.136-1.474,3.229-2.169l3.754-2.385c.144-.09.3-.166.45-.249q.642-.354,1.283-.708l1.955-1.081c.128-.072.267-.128.4-.19.458-.218.917-.433,1.374-.65.769-.362,1.536-.72,2.315-1.059a17.3,17.3,0,0,1,2.406-.76,4.4,4.4,0,0,1,.5-.013c.139,0,.278.012.417.024a7.781,7.781,0,0,1,1,.278,12.262,12.262,0,0,1,1.62,1c1.571,1.315,2.955,2.847,4.454,4.244.939.877,1.877,1.734,2.875,2.545.9.732,1.844,1.413,2.808,2.059a35.967,35.967,0,0,0,3.207,1.842,9.04,9.04,0,0,0,3.2,1.011,9.165,9.165,0,0,0,1.482.048,13.917,13.917,0,0,0,1.9-.267,15.152,15.152,0,0,0,3.079-.979,22.581,22.581,0,0,0,3.237-1.692,43.087,43.087,0,0,0,4.085-3.044l2.353-1.882,1.868-1.428a23.506,23.506,0,0,1,4.28-2.648,12.457,12.457,0,0,1,2.318-.622c.384-.039.765-.063,1.154-.069a7.077,7.077,0,0,1,1.022.069,17.818,17.818,0,0,1,3.543.989c.993.437,1.974.906,2.934,1.414.6.316,1.182.66,1.773.988s1.174.61,1.769.9c1.142.563,2.3,1.086,3.48,1.562a32.672,32.672,0,0,0,3.815,1.2,56.821,56.821,0,0,0,8.2,1.521,29.974,29.974,0,0,0,4.213.178,36.564,36.564,0,0,0,4.149-.41,28.794,28.794,0,0,0,7.182-2.024c1.471-.624,2.89-1.341,4.316-2.063,1.7-.862,3.386-1.79,5.123-2.593a9.143,9.143,0,0,1,1.057-.286,4.23,4.23,0,0,1,.632,0,9.112,9.112,0,0,1,1.466.408,38.13,38.13,0,0,1,4.394,2.749,45.085,45.085,0,0,0,4.654,2.757,39.5,39.5,0,0,0,4.964,2.107,21.374,21.374,0,0,0,5.946,1.09,19.027,19.027,0,0,0,5.3-.546,22.611,22.611,0,0,0,4.28-1.571c.595-.275,1.188-.542,1.764-.853q.56-.3,1.119-.6c.559-.3,1.149-.559,1.735-.808a37.743,37.743,0,0,1,8.818-2.174c1.628-.207,3.267-.321,4.9-.475,1.416-.133,2.84-.2,4.259-.293,2.877-.189,5.769-.371,8.654-.362a2.026,2.026,0,1,0,0-4.052c-2.191.037-4.379.205-6.563.365Q338.71,221.876,337.124,222Zm-53.345,2.049.169-.022h0Z" transform="translate(-67.428 -218.776)" fill="#4b4bd0"/>
</svg>
