<svg xmlns="http://www.w3.org/2000/svg" width="856.77" height="74.29" viewBox="0 0 856.77 74.29">
  <path id="Trazado_2680" data-name="Trazado 2680" d="M479.286,448.373c11.171-1.319,22.88-1.9,34.338-2.35,6.493-.253,12.975-.426,19.483-.572,9.323-.208,18.617-.363,27.949-.462q26.65-.281,53.313-.287c35.616-.056,71.193-.157,106.776-.936q55.35-1.213,110.693-2.386c34.984-.788,69.963-1.574,104.958-2.175,35.049-.6,70.071-1.14,105.081-2.131,35.825-1.013,71.686-1.556,107.565-2,17.02-.208,34.094-.476,51.033-1.291q13.265-.641,26.487-1.414c8.64-.494,17.325-.821,26-1.188,8-.337,15.886-.216,23.892.036q8.576-.428,13.029-3.819,2.391-2.143,4.777-4.286a18.173,18.173,0,0,0,0-23.383q-2.387-2.142-4.777-4.286-4.451-3.393-13.029-3.82c-4.4.155-8.8.362-13.2.5-4.012.123-8.036.115-12.052.127-8.589.028-17.166.163-25.737.323-17.826.333-35.619.861-53.451,1.1-34.544.462-69.118.51-103.624,1.417-18.5.483-36.981,1.047-55.481,1.519-16.808.431-33.634.714-50.457.995q-53.706.89-107.359,2.172-52.99,1.254-105.982,2.458-29.291.7-58.592,1.292c-17.5.352-35.046.4-52.561.484-35.855.17-71.716.285-107.523,1.237-8.819.233-17.626.549-26.406,1.016-7.129.378-14.261.908-21.283,1.58-5.431.52-10.673,1.338-15.942,2.115a60.952,60.952,0,0,0-8.741,1.961q-7.922,2.82-10.971,7.186a17.5,17.5,0,0,0-3.174,18.173q1.693,5.311,8.01,9.842,3.063,1.426,6.135,2.847a24.912,24.912,0,0,0,14.121,0A60.988,60.988,0,0,1,479.286,448.373Z" transform="matrix(1, 0.017, -0.017, 1, -435.12, -399.299)" fill="#fd9dea"/>
</svg>
