<?xml version="1.0" encoding="utf-8"?>
<!-- Generator: Adobe Illustrator 24.0.1, SVG Export Plug-In . SVG Version: 6.00 Build 0)  -->
<svg version="1.1" id="Layer_1" xmlns="http://www.w3.org/2000/svg" xmlns:xlink="http://www.w3.org/1999/xlink" x="0px" y="0px"
	 viewBox="0 0 358.7 78.2" style="enable-background:new 0 0 358.7 78.2;" xml:space="preserve">
<style type="text/css">
	.st0{fill:#FD9DEA;}
</style>
<path id="Trazado_2684" class="st0" d="M313.3,28.2c-3.8,1-7.8,1.7-11.7,1.9c-2.2,0.2-4.4,0.4-6.7,0.5c-3.2,0.2-6.4,0.3-9.6,0.4
	c-6.1,0.2-12.2,0.2-18.2,0.2c-12.2,0-24.3,0.1-36.5,0.8c-12.6,0.7-25.2,1.3-37.9,2c-12,0.7-23.9,1.3-35.9,1.8
	c-12,0.5-24,0.9-35.9,1.8c-12.3,0.8-24.5,1.3-36.8,1.7c-5.8,0.2-11.7,0.4-17.5,1.1c-3,0.4-6,0.8-9.1,1.2c-3,0.4-5.9,0.7-8.9,1
	c-2.7,0.2-5.5,0.2-8.2,0c-1.9,0.2-3.6,1.4-4.5,3.2c-0.5,1.2-1.1,2.4-1.6,3.6c-1.9,6.3-1.9,13.1,0,19.4c0.5,1.2,1.1,2.4,1.6,3.6
	c0.8,1.8,2.5,2.9,4.5,3.2c1.5-0.1,3-0.3,4.5-0.4c1.4-0.1,2.7-0.1,4.1-0.1c2.9,0,5.9-0.1,8.8-0.3c6.1-0.3,12.2-0.7,18.3-0.9
	c11.8-0.4,23.6-0.4,35.4-1.2c6.3-0.4,12.6-0.9,19-1.3c5.7-0.4,11.5-0.6,17.3-0.8c12.2-0.5,24.5-1.1,36.7-1.8
	c12.1-0.7,24.2-1.3,36.2-2c6.7-0.4,13.4-0.7,20-1.1c6-0.3,12-0.3,18-0.4c12.3-0.1,24.5-0.2,36.8-1c3-0.2,6-0.5,9-0.8
	c2.4-0.3,4.9-0.8,7.3-1.3c1.8-0.5,3.7-1.1,5.5-1.8c1.1-0.4,2.1-0.9,3-1.6c1.8-1.6,3.1-3.6,3.8-6c1.6-4.9,1.9-10,1.1-15.1
	c-0.4-2.9-1.3-5.6-2.7-8.2c-0.7-0.8-1.4-1.6-2.1-2.4c-1.4-1.1-3.4-1.1-4.8,0C314.9,27.4,314.1,27.8,313.3,28.2z"/>
<path id="Trazado_2680" class="st0" d="M17.2,38.2c4.7-0.8,9.5-1.3,14.2-1.5c2.7-0.1,5.4-0.2,8.1-0.3c3.9-0.1,7.7-0.1,11.6-0.1
	c7.3,0,14.7,0.1,22,0.2c14.7,0.2,29.4,0.4,44.1,0.1c15.3-0.3,30.5-0.6,45.8-1c14.5-0.3,28.9-0.7,43.4-0.9c14.5-0.2,29-0.4,43.5-0.8
	c14.8-0.5,29.6-0.7,44.5-0.7c7,0,14.1-0.1,21.1-0.6c3.7-0.3,7.3-0.5,11-0.9c3.6-0.3,7.2-0.5,10.8-0.7c3.3-0.2,6.6-0.1,9.9,0.2
	c2.1-0.1,4.1-1.1,5.4-2.7l2-3.1c2.4-5.5,2.5-11.8,0.3-17.4l-1.9-3.2c-1.2-1.7-3.2-2.8-5.3-2.9c-1.8,0.1-3.6,0.2-5.5,0.3
	c-1.7,0.1-3.3,0-5,0c-3.6,0-7.1,0-10.6,0.1c-7.4,0.1-14.7,0.4-22.1,0.4c-14.3,0.1-28.6-0.1-42.8,0.3c-7.7,0.2-15.3,0.5-22.9,0.7
	c-7,0.2-13.9,0.3-20.9,0.4c-14.8,0.2-29.6,0.5-44.4,0.9c-14.6,0.4-29.2,0.7-43.8,1.1c-8.1,0.2-16.2,0.4-24.2,0.5
	c-7.2,0.1-14.5,0.1-21.7,0C68.7,6.3,53.9,6.1,39.1,6.6c-3.6,0.1-7.3,0.3-10.9,0.6c-3,0.2-5.9,0.6-8.8,1c-2.3,0.3-4.4,0.9-6.6,1.5
	c-1.3,0.3-2.5,0.8-3.6,1.4c-2.1,1.2-3.7,3-4.6,5.3c-2,4.2-2.5,8.9-1.5,13.5c0.4,2.7,1.5,5.2,3.2,7.4c0.8,0.7,1.7,1.4,2.5,2.2
	c1.8,1,4,1.1,5.8,0.1C15.3,38.9,16.2,38.5,17.2,38.2z"/>
</svg>
