<svg xmlns="http://www.w3.org/2000/svg" width="325.732" height="25.906" viewBox="0 0 325.732 25.906">
  <path id="Trazado_2683" data-name="Trazado 2683" d="M379.548,222.505c-1.169.09-2.342.162-3.509.281l-4.839.5a56.1,56.1,0,0,0-7.932,1.392,36.67,36.67,0,0,0-8.022,3.092c-.505.266-1.007.554-1.53.789l-1.688.758c-.8.322-1.6.625-2.424.881a20.214,20.214,0,0,1-2.914.659c-.859.088-1.712.134-2.576.139a19.1,19.1,0,0,1-2.443-.164,27.7,27.7,0,0,1-3.28-.728,31.912,31.912,0,0,1-3.333-1.22,48.612,48.612,0,0,1-5.426-2.818c-.826-.5-1.644-1-2.45-1.527-.972-.637-1.932-1.276-2.937-1.86a16.544,16.544,0,0,0-2.383-1.2,12.242,12.242,0,0,0-1.645-.5,9.939,9.939,0,0,0-1.72-.191,6.582,6.582,0,0,0-1.027.1,10.632,10.632,0,0,0-1.459.331,12.7,12.7,0,0,0-2.158,1q-2.115,1.111-4.227,2.226c-1.782.944-3.58,1.867-5.426,2.678-1.127.451-2.266.85-3.429,1.2a34.635,34.635,0,0,1-4.666.993,41.053,41.053,0,0,1-4.56.32,37.546,37.546,0,0,1-5.16-.384c-2.168-.309-4.3-.744-6.431-1.258a40.888,40.888,0,0,1-5.764-1.826q-2.8-1.224-5.466-2.7a42.873,42.873,0,0,0-6.277-2.92,19.159,19.159,0,0,0-2.652-.691,13.991,13.991,0,0,0-9.323,1.394,42.9,42.9,0,0,0-6.5,4.386c-1.254.938-2.472,1.93-3.7,2.9-1.029.789-2.053,1.581-3.136,2.3a24.246,24.246,0,0,1-3.554,1.938c-.574.231-1.15.441-1.742.628a14.9,14.9,0,0,1-2.366.514c-.315.033-.632.05-.949.054a6.35,6.35,0,0,1-.681-.026,12.7,12.7,0,0,1-1.876-.548,39.5,39.5,0,0,1-6.228-3.867c-.939-.745-1.846-1.52-2.723-2.337q-.921-.853-1.839-1.71a60,60,0,0,0-4.77-4.477,14.541,14.541,0,0,0-2.292-1.425,8.924,8.924,0,0,0-1.429-.525l-.481-.1-1.01-.136c-.163-.009-.326-.02-.49-.03q-.091,0-.183,0a5.351,5.351,0,0,0-.9.078,10.452,10.452,0,0,0-1.714.38,27.469,27.469,0,0,0-3.237,1.252c-.866.378-1.717.787-2.575,1.186-.6.283-1.217.549-1.8.87q-1.379.758-2.756,1.513c-.462.253-.933.492-1.38.772q-1.244.787-2.491,1.572c-.626.395-1.264.775-1.879,1.186l-4.625,3.1A66.622,66.622,0,0,1,170.79,236.7c-.815.33-1.634.639-2.47.915a20.341,20.341,0,0,1-3.17.731c-.454.052-.906.091-1.366.119a12.755,12.755,0,0,1-2.011-.077,15.247,15.247,0,0,1-2.8-.739,18.619,18.619,0,0,1-2.817-1.673,42.688,42.688,0,0,1-3.906-3.736c-.617-.65-1.242-1.292-1.865-1.938-.747-.775-1.556-1.485-2.375-2.18a11.246,11.246,0,0,0-2.178-1.455,12.5,12.5,0,0,0-1.409-.572,6.384,6.384,0,0,0-1.478-.231,8.741,8.741,0,0,0-.958.107,6.117,6.117,0,0,0-1.32.464,4.762,4.762,0,0,0-1.179.782c-.352.337-.686.686-1.014,1.046-.627.683-1.184,1.447-1.765,2.17-.459.57-.913,1.145-1.373,1.718-.532.666-1.09,1.314-1.633,1.972a25.226,25.226,0,0,1-3.6,3.535,19.482,19.482,0,0,1-3.219,1.9,17.1,17.1,0,0,1-3.182.845,21.062,21.062,0,0,1-4.618-.044,32.208,32.208,0,0,1-7.07-2.069,56.344,56.344,0,0,1-6.024-3.145c-1.007-.6-1.978-1.254-2.945-1.912s-1.949-1.323-2.912-2-1.934-1.377-2.944-2.007a29.64,29.64,0,0,0-3.2-1.735,14.94,14.94,0,0,0-6.489-1.517,10.473,10.473,0,0,0-1.57.172,16.408,16.408,0,0,0-1.616.353,10.881,10.881,0,0,0-1.4.53c-.5.213-.99.434-1.485.656a41.06,41.06,0,0,0-6.188,3.462,29.678,29.678,0,0,0-4.828,4.118,26.451,26.451,0,0,0-1.9,2.223,4.389,4.389,0,0,0-.655,1.189l-.175.512c-.071.365-.14.728-.209,1.094a1.406,1.406,0,0,0,.348,1.318,1.36,1.36,0,0,0,1.318.348c.325-.091.649-.185.974-.279a7.717,7.717,0,0,0,1.315-.559,1.359,1.359,0,0,0,.485-1.849,1.286,1.286,0,0,0-.8-.61,27.773,27.773,0,0,1,3.921-3.729,36.149,36.149,0,0,1,7.351-4.239c.588-.245,1.179-.486,1.774-.716a11.119,11.119,0,0,1,2.294-.58,12.82,12.82,0,0,1,2.063-.026c.459.076.907.172,1.365.29a15.664,15.664,0,0,1,1.945.681,29.064,29.064,0,0,1,3.561,1.991c1.341.845,2.578,1.851,3.865,2.775,1.27.912,2.545,1.822,3.842,2.694s2.629,1.651,3.981,2.406a40.6,40.6,0,0,0,8.313,3.514,21.841,21.841,0,0,0,9.2.781,16.01,16.01,0,0,0,4.163-1.144,18.868,18.868,0,0,0,3.64-2.1,23.909,23.909,0,0,0,3.4-3.065c.553-.6,1.064-1.224,1.576-1.856.745-.915,1.474-1.84,2.2-2.772a36.55,36.55,0,0,1,2.8-3.377,2.607,2.607,0,0,1,.235-.13c.111-.039.223-.072.337-.1.037,0,.073,0,.111,0a4.756,4.756,0,0,1,.6.172,10.273,10.273,0,0,1,1.416.8,38.1,38.1,0,0,1,3.577,3.38,62.659,62.659,0,0,0,4.482,4.384,19.97,19.97,0,0,0,2.195,1.582,16.254,16.254,0,0,0,2.844,1.388,13.03,13.03,0,0,0,2.81.68,15.865,15.865,0,0,0,3.4.142,22.929,22.929,0,0,0,2.822-.4,21.429,21.429,0,0,0,3.3-.945,40.6,40.6,0,0,0,5.842-2.685c2.752-1.513,5.343-3.288,7.944-5.041,1.242-.839,2.472-1.706,3.736-2.51l4.344-2.76c.167-.1.35-.192.521-.289q.744-.409,1.485-.82l2.263-1.251c.149-.083.309-.149.464-.22.53-.252,1.061-.5,1.591-.753.89-.419,1.778-.833,2.679-1.225a20.02,20.02,0,0,1,2.784-.879,5.093,5.093,0,0,1,.578-.015c.161,0,.322.013.482.028a9,9,0,0,1,1.163.322,14.191,14.191,0,0,1,1.874,1.159c1.818,1.522,3.42,3.294,5.155,4.912,1.086,1.014,2.173,2.007,3.327,2.945,1.044.848,2.134,1.636,3.249,2.383a41.622,41.622,0,0,0,3.712,2.131,10.462,10.462,0,0,0,3.7,1.17,10.606,10.606,0,0,0,1.715.056,16.108,16.108,0,0,0,2.2-.309,17.535,17.535,0,0,0,3.563-1.133,26.132,26.132,0,0,0,3.746-1.958,49.858,49.858,0,0,0,4.728-3.523l2.723-2.178,2.162-1.653a27.2,27.2,0,0,1,4.953-3.064,14.417,14.417,0,0,1,2.683-.72c.445-.045.885-.073,1.336-.08a8.19,8.19,0,0,1,1.183.08,20.621,20.621,0,0,1,4.1,1.145c1.15.505,2.285,1.049,3.4,1.637.692.365,1.368.764,2.052,1.144.669.371,1.359.706,2.047,1.044,1.321.652,2.66,1.257,4.027,1.807a37.81,37.81,0,0,0,4.415,1.392,65.757,65.757,0,0,0,9.493,1.76,34.689,34.689,0,0,0,4.876.206,42.312,42.312,0,0,0,4.8-.475,33.323,33.323,0,0,0,8.312-2.342c1.7-.722,3.344-1.552,4.994-2.387,1.973-1,3.919-2.072,5.928-3a10.583,10.583,0,0,1,1.223-.331,4.9,4.9,0,0,1,.732,0,10.545,10.545,0,0,1,1.7.473,44.127,44.127,0,0,1,5.086,3.181,52.176,52.176,0,0,0,5.387,3.191,45.712,45.712,0,0,0,5.745,2.438,24.736,24.736,0,0,0,6.881,1.262,22.021,22.021,0,0,0,6.136-.632,26.169,26.169,0,0,0,4.953-1.818c.688-.318,1.375-.627,2.041-.988q.648-.347,1.295-.7c.647-.348,1.33-.647,2.008-.935A43.68,43.68,0,0,1,370.2,227.8c1.884-.24,3.781-.371,5.672-.549,1.639-.153,3.287-.23,4.929-.339,3.33-.219,6.676-.43,10.016-.419a2.345,2.345,0,1,0,0-4.69c-2.536.043-5.068.237-7.6.423Q381.383,222.364,379.548,222.505Zm-61.737,2.371.2-.026h0Z" transform="translate(-67.428 -218.776)" fill="#4b4bd0"/>
</svg>
