<svg xmlns="http://www.w3.org/2000/svg" width="244.366" height="28.893" viewBox="0 0 244.366 28.893">
  <path id="Path_2672" data-name="Path 2672" d="M309.03,291.342a8.24,8.24,0,0,1-.8-.45,11.139,11.139,0,0,1-1.2-1.254c-.5-.681-.948-1.387-1.383-2.114-.563-.944-1.092-1.9-1.72-2.8-.244-.35-.48-.7-.756-1.033a4.9,4.9,0,0,0-1.183-1.013,3.643,3.643,0,0,0-1.722-.41,4.879,4.879,0,0,0-.867.144,2.177,2.177,0,0,0-.955.556,5.653,5.653,0,0,0-1.327,2.267c-.19.467-.367.938-.55,1.407-.287.74-.592,1.475-.9,2.208s-.662,1.446-1.015,2.16a11.169,11.169,0,0,1-1.023,1.645,7.282,7.282,0,0,1-.668.7l-.075.044c-.138.043-.275.078-.415.109h-.1l-.1-.027a6.8,6.8,0,0,1-.594-.361c-.164-.155-.315-.313-.461-.481a9.627,9.627,0,0,1-.6-1c-.369-.975-.652-1.99-.966-2.982a22.739,22.739,0,0,0-1.559-4.035,3.984,3.984,0,0,0-1.6-1.781,2.565,2.565,0,0,0-1.849-.2c-.254.106-.507.212-.759.324-.212.159-.424.323-.635.487a3.689,3.689,0,0,0-.792,1.438c-.085.242-.131.493-.231.729l-.307.733c-.424.885-.846,1.765-1.308,2.63-.264.5-.53.994-.8,1.489-.322.6-.678,1.193-1.031,1.778a17.169,17.169,0,0,1-1.112,1.6,11.166,11.166,0,0,1-1.391,1.5c-.192.122-.386.232-.587.336-.166.055-.33.1-.5.14h-.024c-.072-.039-.143-.082-.213-.127l-.023-.023a12.3,12.3,0,0,1-.894-1.745c-.653-1.586-1.248-3.195-1.884-4.788-.3-.759-.655-1.492-1-2.229a7.751,7.751,0,0,0-1.2-1.93,5.586,5.586,0,0,0-.863-.776,2.942,2.942,0,0,0-1.034-.553,2.762,2.762,0,0,0-1.3-.06,3.138,3.138,0,0,0-1.29.681,7.515,7.515,0,0,0-1.687,2.705c-.281.581-.577,1.153-.873,1.725-.274.527-.575,1.039-.868,1.556a27.94,27.94,0,0,1-1.967,3.051c-.27.343-.546.679-.835,1.007a8.021,8.021,0,0,1-.969.9,9.78,9.78,0,0,1-1.262.79c-.155.05-.308.093-.466.128-.192,0-.38,0-.57-.014-.109-.024-.216-.053-.323-.087l-.021-.012a5.541,5.541,0,0,1-.388-.412c-.161-.225-.319-.452-.471-.686a10.908,10.908,0,0,1-.714-1.427c-.149-.325-.29-.648-.43-.977-.364-.853-.724-1.708-1.091-2.559-.234-.558-.468-1.114-.713-1.666a19.112,19.112,0,0,0-1.2-2.189,8.043,8.043,0,0,0-1.291-1.587,7.4,7.4,0,0,0-.91-.684,4.758,4.758,0,0,0-1.041-.461l-.783-.106a2.674,2.674,0,0,0-1.2.315,7.091,7.091,0,0,0-.877.621l-.186.206a4.984,4.984,0,0,0-.448.614c-.315.48-.615.973-.9,1.47-.533.935-1.058,1.879-1.635,2.789l-1.1,1.745q-.588.927-1.194,1.84c-.4.6-.832,1.164-1.267,1.732-.293.371-.593.731-.91,1.083a7.81,7.81,0,0,1-.913.842,10.514,10.514,0,0,1-1.463.891,6.663,6.663,0,0,1-.73.205,7.126,7.126,0,0,1-1.007-.005,6.069,6.069,0,0,1-.636-.179,6.952,6.952,0,0,1-.589-.37,10.119,10.119,0,0,1-.866-.847c-.383-.553-.7-1.137-1.036-1.724-.4-.72-.747-1.472-1.1-2.217s-.716-1.478-1.071-2.22a13.026,13.026,0,0,0-1.522-2.42,10.534,10.534,0,0,0-.793-.905,7.908,7.908,0,0,0-.942-.743,4.617,4.617,0,0,0-1.068-.563,2.36,2.36,0,0,0-.7-.217,3.944,3.944,0,0,0-.755-.07c-.109.014-.217.027-.327.043a3.089,3.089,0,0,0-1.771.719,9.3,9.3,0,0,0-1.468,2.256c-.617,1.125-1.306,2.211-1.971,3.306-.4.656-.827,1.3-1.239,1.947-.623.977-1.262,1.944-1.952,2.873a15.8,15.8,0,0,1-2.127,2.267,7.034,7.034,0,0,1-.678.392,5.045,5.045,0,0,1-.569.153c-.052,0-.1,0-.155,0s-.106-.026-.158-.041l-.026-.017c-.162-.157-.315-.318-.463-.49a36.521,36.521,0,0,1-2.52-4.48c-.559-1.1-1.091-2.21-1.711-3.275-.375-.643-.733-1.288-1.166-1.895a7.929,7.929,0,0,0-1.834-1.782l-.29-.145a1.307,1.307,0,0,0-.631-.191l-.4-.055a1.507,1.507,0,0,0-.761.206,3.036,3.036,0,0,0-1.416,1.727c-.243.687-.484,1.376-.738,2.06-.575,1.545-1.171,3.079-1.8,4.6-.259.591-.54,1.171-.814,1.754a12.043,12.043,0,0,1-1.06,1.874,10.594,10.594,0,0,1-.879.932c-.063.043-.129.083-.2.12l-.009,0h-.18a4.409,4.409,0,0,1-.524-.14c-.036-.02-.073-.042-.109-.065a10.9,10.9,0,0,1-.976-1.067,32.085,32.085,0,0,1-2.065-3.491q-.5-.925-.983-1.855c-.36-.687-.767-1.35-1.172-2.012a8.016,8.016,0,0,0-2.4-2.59,2.93,2.93,0,0,0-.624-.231,1.96,1.96,0,0,0-1.092.079l-.356.151c-.2.14-.39.284-.58.435a2.814,2.814,0,0,0-.568.96c-.506,1.272-.946,2.567-1.4,3.858-.531,1.509-1.084,3.023-1.68,4.507-.151.357-.3.715-.454,1.072.039-.092.077-.185.117-.278-.212.5-.433.983-.681,1.462a7.245,7.245,0,0,1-.645.986,6.79,6.79,0,0,1-.613.63c-.061.037-.123.074-.187.107a2.644,2.644,0,0,1-.264.073l-.112,0-.032-.008c-.052-.029-.1-.06-.155-.093l-.04-.039a29.186,29.186,0,0,1-1.788-3.692c-.421-1.087-.842-2.174-1.234-3.273q-.375-1.046-.749-2.094c-.208-.58-.4-1.166-.646-1.731a6.255,6.255,0,0,0-.507-.947,4.01,4.01,0,0,0-.96-.917,1.51,1.51,0,0,0-.976-.4,1.429,1.429,0,0,0-1.191.684,6.32,6.32,0,0,0-.456.69c-.1.237-.2.478-.29.722-.119.309-.181.645-.284.959q-.217.668-.437,1.335c-.385,1.175-.821,2.342-1.28,3.489a16.11,16.11,0,0,1-1.692,3.112,7.706,7.706,0,0,1-.815.848,2.963,2.963,0,0,1-.276.158c-.056.018-.111.036-.168.051l0,0c-.045-.041-.087-.083-.128-.128a47.18,47.18,0,0,1-2.2-4.369c-.437-.914-.871-1.829-1.35-2.724a11.712,11.712,0,0,0-.649-1.022,10.017,10.017,0,0,0-.637-.865,3.949,3.949,0,0,0-1.659-1.212,2.607,2.607,0,0,0-2.077,0l-.3.152a3.816,3.816,0,0,0-.581.5c-.075.1-.15.193-.224.291a1.8,1.8,0,0,0-.38.592,9.359,9.359,0,0,0-.453,1.336c-.084.262-.164.526-.252.785-.489,1.444-1,2.883-1.566,4.3a12.86,12.86,0,0,1-1.09,2.039,3.111,3.111,0,0,1-.241.238,4.151,4.151,0,0,1-.43.261l-.04.01h-.049a2.893,2.893,0,0,1-.353-.1c-.062-.031-.123-.066-.181-.1a6.136,6.136,0,0,1-.455-.5c-.345-.468-.675-.939-.977-1.438-.214-.353-.428-.7-.647-1.054l-1.228-1.942a19.873,19.873,0,0,0-2.593-3.363,4.451,4.451,0,0,0-1.756-1.062,3.413,3.413,0,0,0-1.008-.123,2.178,2.178,0,0,0-1.061.272,6.308,6.308,0,0,0-.586.429,8.684,8.684,0,0,0-.664.9l-.147.321a3.793,3.793,0,0,0-.27.734c-.053.171-.1.343-.155.513-.193.623-.388,1.243-.58,1.866-.46,1.491-.945,2.978-1.525,4.427a15.6,15.6,0,0,1-.855,1.733c-.043-.088-.086-.178-.128-.267-.606-1.517-1.153-3.061-1.721-4.594q-.878-2.372-1.879-4.7c-.173-.4-.36-.8-.553-1.193-.216-.44-.482-.854-.726-1.278a2.9,2.9,0,0,0-1.576-1.463,2.051,2.051,0,0,0-1.042-.017c-.206.074-.411.158-.613.247a1.388,1.388,0,0,0-.5.5,2.9,2.9,0,0,0-.387.851c-.148.475-.25.966-.361,1.452-.15.65-.328,1.3-.512,1.94a38.546,38.546,0,0,1-1.231,3.792,12.344,12.344,0,0,1-1.144,2.189,8.051,8.051,0,0,1-.794.852c-.064.042-.129.08-.2.116-.058.018-.118.034-.177.047a2.342,2.342,0,0,1-.277,0l-.143-.034-.061-.036c-.205-.2-.4-.39-.584-.6-.469-.669-.908-1.363-1.35-2.05-.275-.425-.547-.85-.822-1.276a14.3,14.3,0,0,0-1.2-1.718,4.051,4.051,0,0,0-1.632-1.394,1.771,1.771,0,0,0-.545-.112,3.347,3.347,0,0,0-.583.1,2.455,2.455,0,0,0-1.026.694,4.628,4.628,0,0,0-.823,1.827c-.174.449-.346.9-.529,1.343a14.516,14.516,0,0,1-1.367,2.559,8.546,8.546,0,0,1-.808.869,5.724,5.724,0,0,1-.607.365,4.67,4.67,0,0,1-.625.179,3.218,3.218,0,0,1-.479-.005,2.913,2.913,0,0,1-.4-.1,2.484,2.484,0,0,1-.256-.151,4.082,4.082,0,0,1-.341-.324,13.041,13.041,0,0,1-.716-1.3l-.513-.994q-.3-.581-.6-1.16a10.155,10.155,0,0,0-.683-1.188,6.415,6.415,0,0,0-1.038-1.055,1.255,1.255,0,0,0-1.512-.2,3.46,3.46,0,0,0-1.076.936,7.652,7.652,0,0,0-.577,1.32c-.144.332-.289.665-.434,1a16.729,16.729,0,0,1-1.569,2.869,9.77,9.77,0,0,1-1.171,1.192,8.466,8.466,0,0,1-1.145.65,3.126,3.126,0,0,1-.441.12,3.262,3.262,0,0,1-.433,0,4.648,4.648,0,0,1-.656-.179l-.151-.091a6.363,6.363,0,0,1-.643-.668,14.62,14.62,0,0,1-.843-1.538q-.345-.682-.687-1.364c-.368-.729-.74-1.453-1.111-2.18a19.167,19.167,0,0,0-1.128-1.985c-.243-.364-.543-.7-.82-1.04a4.374,4.374,0,0,0-.943-.82q-.269-.118-.544-.222a3.871,3.871,0,0,0-.581-.059,5.739,5.739,0,0,0-.608.1q-.287.107-.567.231a2.889,2.889,0,0,0-.479.335,4.634,4.634,0,0,0-.386.47c-.2.386-.356.787-.522,1.188.043-.1.084-.2.127-.3-.2.463-.38.93-.564,1.4l-.537,1.236a15.369,15.369,0,0,1-1.687,2.969,11.321,11.321,0,0,1-1.046,1.046,3.171,3.171,0,0,1-.321.191c-.14.048-.276.088-.418.122-.123-.174-.24-.353-.355-.538a5.317,5.317,0,0,1-.354-.74q-.217-.521-.436-1.041c-.13-.31-.278-.618-.385-.938q-.434-1.292-.865-2.584c-.077-.229-.132-.469-.2-.7q-.239-.855-.478-1.711-.492-1.763-.971-3.529a1.387,1.387,0,1,0-2.673.738c.532,1.96,1.08,3.916,1.627,5.872.193.691.456,1.369.684,2.049.249.741.551,1.452.854,2.175.208.491.418.977.637,1.462a5.44,5.44,0,0,0,.553.916,3.209,3.209,0,0,0,.908.962l.239.136a1.443,1.443,0,0,0,.6.187,3.561,3.561,0,0,0,1.339-.069,4.407,4.407,0,0,0,1.251-.529c.205-.144.4-.294.6-.45a6.5,6.5,0,0,0,.6-.563,12.952,12.952,0,0,0,2.658-4.434c.412-1.04.8-2.085,1.183-3.134l.02-.041a8.954,8.954,0,0,1,.631.708,16.936,16.936,0,0,1,1.407,2.483q.45.911.9,1.822c.259.522.5,1.049.755,1.576.189.4.377.8.584,1.185a6.138,6.138,0,0,0,.622.856,4.848,4.848,0,0,0,.731.741,4.152,4.152,0,0,0,1.541.761,4.713,4.713,0,0,0,2.2.016,3.989,3.989,0,0,0,.708-.257,9.6,9.6,0,0,0,1.12-.574,7.9,7.9,0,0,0,1.8-1.606,13.351,13.351,0,0,0,2.178-3.84q.2-.476.392-.951c.037-.091.072-.182.107-.274.258.456.479.934.712,1.4q.3.6.592,1.2a7.785,7.785,0,0,0,1.1,1.952,5.072,5.072,0,0,0,1.358,1.067,4.435,4.435,0,0,0,1.841.4,4.042,4.042,0,0,0,1.39-.233,4.916,4.916,0,0,0,1.515-.82,7.883,7.883,0,0,0,2.073-2.6,19.583,19.583,0,0,0,1.157-2.694c.11-.312.219-.625.328-.938.063-.178.117-.359.17-.54q.167.185.329.375c.519.727.97,1.5,1.434,2.263l.931,1.541c.222.364.434.732.667,1.091a6.557,6.557,0,0,0,.626.77l.243.247c.172.141.348.281.527.417a4.148,4.148,0,0,0,.881.357,3.836,3.836,0,0,0,.979.081,3.622,3.622,0,0,0,.944-.169,3.178,3.178,0,0,0,.92-.493,6.508,6.508,0,0,0,1.5-1.562,11.318,11.318,0,0,0,1.128-2.077,28.5,28.5,0,0,0,1.283-3.556c.179-.61.362-1.217.524-1.832.092-.346.179-.693.267-1.04.218.422.417.853.605,1.29.656,1.6,1.244,3.224,1.8,4.859q.406,1.2.805,2.4.252.76.5,1.52c.16.484.371.952.57,1.42a3.526,3.526,0,0,0,.856,1.183,2.571,2.571,0,0,0,.971.588,2.429,2.429,0,0,0,.689.132,4.909,4.909,0,0,0,.7-.114,4.234,4.234,0,0,0,.665-.309c.2-.147.4-.3.592-.452a6.38,6.38,0,0,0,.938-1.12,10.038,10.038,0,0,0,.7-1.34c.249-.507.461-1.03.675-1.552.238-.585.445-1.18.643-1.779.287-.872.562-1.74.819-2.62.1-.351.2-.7.3-1.054.122-.428.224-.869.359-1.295A11.494,11.494,0,0,1,139.1,296.5c.974,1.347,1.846,2.778,2.7,4.2.222.368.435.739.663,1.1.193.306.424.595.637.887s.437.568.671.838a4.673,4.673,0,0,0,.812.657,4.591,4.591,0,0,0,1,.442,4.728,4.728,0,0,0,1.107.193,2.982,2.982,0,0,0,1.061-.146l.384-.162a2.755,2.755,0,0,0,.615-.318,6.307,6.307,0,0,0,.861-.687,5.48,5.48,0,0,0,.723-.908,7.656,7.656,0,0,0,.557-1.023c.176-.352.343-.7.5-1.065.413-.963.755-1.955,1.1-2.944.411-1.171.761-2.357,1.088-3.553a3.536,3.536,0,0,1,.308.321,14.7,14.7,0,0,1,1.118,1.749c.247.456.477.925.7,1.393.305.644.615,1.286.915,1.931.375.806.747,1.614,1.133,2.415a6.158,6.158,0,0,0,1.3,1.888,2.944,2.944,0,0,0,.956.594,1.556,1.556,0,0,0,.708.171,2.233,2.233,0,0,0,.742-.042,4.283,4.283,0,0,0,2.008-.925,9.886,9.886,0,0,0,1.752-2.031,13.956,13.956,0,0,0,1.121-2.162c.425-.916.761-1.87,1.1-2.819.228-.64.421-1.3.63-1.941.078-.24.145-.484.212-.729.581,1.6,1.114,3.22,1.689,4.824.311.868.643,1.725.978,2.583q.4,1.028.879,2.027a5.581,5.581,0,0,0,.573,1.05,1.98,1.98,0,0,0,.465.512,3.9,3.9,0,0,0,.85.566,3.43,3.43,0,0,0,1.426.318c.265-.027.531-.06.794-.1a2.81,2.81,0,0,0,.747-.257,2.21,2.21,0,0,0,.64-.334c.206-.154.407-.315.6-.48a7.815,7.815,0,0,0,1.217-1.467,14.182,14.182,0,0,0,1.417-2.875c.458-1.066.855-2.153,1.242-3.245.3-.838.6-1.671.88-2.517.257-.776.511-1.554.769-2.33.063.072.125.144.186.218a37.887,37.887,0,0,1,2.268,4.007,28.045,28.045,0,0,0,2.771,4.7c.212.262.423.52.646.771.078.077.157.155.237.232.185.154.375.3.567.449a7.37,7.37,0,0,0,.979.46c.122.036.244.069.367.106q.4.071.8.119l.372.009q.384-.046.765-.109c.1-.04.2-.078.3-.117a2.957,2.957,0,0,0,.675-.333c.095-.071.188-.143.283-.212a5.429,5.429,0,0,0,.594-.5,8.384,8.384,0,0,0,.981-1.129,11.557,11.557,0,0,0,1.221-2.088c.359-.748.709-1.5,1.024-2.266.408-1,.79-2,1.166-3.011s.717-2.04,1.047-3.069c.067.07.131.143.2.217a26.572,26.572,0,0,1,1.463,2.453c.367.673.7,1.368,1.036,2.056.379.775.757,1.551,1.142,2.323a15.072,15.072,0,0,0,2.55,4.062q.289.233.594.44c.222.1.445.192.667.285a5.427,5.427,0,0,0,1.352.2c.264-.03.527-.065.79-.1a3.729,3.729,0,0,0,.707-.2,5.912,5.912,0,0,0,1.7-.945,15.407,15.407,0,0,0,2.305-2.327,30.4,30.4,0,0,0,1.984-2.747c.6-.9,1.169-1.818,1.749-2.73.424-.669.822-1.354,1.234-2.033.557-.924,1.045-1.887,1.6-2.811h0c.04.011.08.022.119.035a7.006,7.006,0,0,1,.672.42,8.037,8.037,0,0,1,.662.68,13.787,13.787,0,0,1,1.287,2.166c.475.988.925,1.993,1.372,3,.383.86.817,1.693,1.259,2.525a8.937,8.937,0,0,0,1.949,2.434,9.74,9.74,0,0,0,.979.74,5.54,5.54,0,0,0,1.461.635,5.031,5.031,0,0,0,.8.146,6.692,6.692,0,0,0,.9.093,7.356,7.356,0,0,0,1.692-.166,5.227,5.227,0,0,0,1.222-.434,10.354,10.354,0,0,0,1.484-.827,11.565,11.565,0,0,0,2.414-2.17c.62-.729,1.187-1.512,1.757-2.278.607-.815,1.143-1.692,1.68-2.554q.648-1.041,1.3-2.083c.384-.614.727-1.258,1.081-1.891.316-.566.639-1.126.979-1.677.108.1.211.21.313.323a16.5,16.5,0,0,1,1.566,2.84c.791,1.906,1.536,3.831,2.365,5.722a8.674,8.674,0,0,0,.563,1.049,9.327,9.327,0,0,0,.917,1.264,4.539,4.539,0,0,0,.881.8,5.457,5.457,0,0,0,1.362.619l.341.076c.293.04.584.08.876.119a4.026,4.026,0,0,0,.695.005q.427-.053.853-.113a7.794,7.794,0,0,0,2.566-1.223,11.775,11.775,0,0,0,2.18-1.94,24.418,24.418,0,0,0,1.779-2.348,34.719,34.719,0,0,0,1.74-3.005c.329-.61.632-1.233.936-1.855.249-.509.467-1.034.707-1.548a17.855,17.855,0,0,1,.884,1.834c.436,1.091.829,2.2,1.229,3.306.442,1.223.87,2.453,1.411,3.636.133.293.27.583.417.869a3.924,3.924,0,0,0,.927,1.118,5.663,5.663,0,0,0,.988.68c.264.115.531.226.8.331a5.3,5.3,0,0,0,.856.14,5.2,5.2,0,0,0,1.3-.115,9.624,9.624,0,0,0,1.623-.6,4.1,4.1,0,0,0,.626-.372q.356-.272.708-.545a10.688,10.688,0,0,0,1.025-1.037,26.982,26.982,0,0,0,1.73-2.237c.55-.784,1-1.638,1.48-2.465.427-.742.806-1.515,1.208-2.271.234-.44.442-.9.652-1.353.329,1.029.627,2.069.926,3.1a9.244,9.244,0,0,0,2.445,4.226,8.322,8.322,0,0,0,1.115.832,6.844,6.844,0,0,0,1.28.582,4.429,4.429,0,0,0,1.286.2,5.812,5.812,0,0,0,1.252-.136,4.382,4.382,0,0,0,1.175-.407,4.764,4.764,0,0,0,1.04-.667,10.041,10.041,0,0,0,1.625-1.811,11.729,11.729,0,0,0,1.2-2c.4-.817.765-1.649,1.119-2.489.364-.864.7-1.74,1.026-2.619l.048.078c.367.6.691,1.224,1.041,1.83s.71,1.231,1.1,1.826c.38.579.808,1.125,1.242,1.664a7.877,7.877,0,0,0,3.058,2.345,12.045,12.045,0,0,0,1.935.638,12.648,12.648,0,0,0,2.351.281,2.254,2.254,0,0,0,1.594-3.848,2.384,2.384,0,0,0-1.594-.661c-.122-.009-.244-.019-.367-.031A12.693,12.693,0,0,1,309.03,291.342ZM83.643,296.249l-.217.092a1.648,1.648,0,0,1,.222-.1Zm62.472,5.163.113.048h0C146.19,301.446,146.152,301.429,146.114,301.412Zm7.185-7.548-.052-.022.053.021Zm.181.326a1.7,1.7,0,0,1,.08-.192h0Zm.231-.439h0c.036-.051.077-.1.119-.15C153.788,293.653,153.75,293.7,153.711,293.752Zm21.225,8.836h0c-.019-.015-.038-.031-.057-.047Zm.039.033q-.122.021-.246.03l.243-.033-.016-.012h.005l.015.012.034,0h.007l-.037.006.054.041Zm.126.024.034-.015h0Zm.046-.018h0l.148-.062Q175.222,302.6,175.148,302.627Zm33.945-3.568.171.025,0,0C209.21,299.079,209.151,299.07,209.093,299.059Zm.2.029,0,0,.022,0h0Zm.028,0h0Zm46.474-2.979-.04-.02.048.021Zm.009,0,.01,0,.192.08A1.941,1.941,0,0,1,255.8,296.115Zm19.13-.377.05.021h0Zm.139.056-.025-.021.029.023Zm.04.033-.033-.026.007,0,.031.024Zm.035.028h.005l.1.078C275.215,295.907,275.18,295.881,275.145,295.855Z" transform="matrix(1, 0.017, -0.017, 1, -64.523, -283.444)" fill="#ff9dea"/>
</svg>
