<?xml version="1.0" encoding="utf-8"?>
<!-- Generator: Adobe Illustrator 24.0.1, SVG Export Plug-In . SVG Version: 6.00 Build 0)  -->
<svg version="1.1" id="Layer_1" xmlns="http://www.w3.org/2000/svg" xmlns:xlink="http://www.w3.org/1999/xlink" x="0px" y="0px"
	 viewBox="0 0 244.4 28.9" style="enable-background:new 0 0 244.4 28.9;" xml:space="preserve">
<style type="text/css">
	.st0{fill:#FF9DEA;}
</style>
<path id="Path_2672" class="st0" d="M239.6,16.5c-0.3-0.1-0.5-0.3-0.8-0.5c-0.4-0.4-0.8-0.8-1.1-1.3c-0.5-0.7-0.9-1.4-1.3-2.2
	c-0.5-1-1-1.9-1.6-2.9c-0.2-0.4-0.4-0.7-0.7-1.1c-0.3-0.4-0.7-0.8-1.1-1.1c-0.5-0.3-1.1-0.5-1.7-0.5c-0.3,0-0.6,0-0.9,0.1
	c-0.4,0.1-0.7,0.3-1,0.5c-0.6,0.6-1.1,1.4-1.4,2.2c-0.2,0.5-0.4,0.9-0.6,1.4c-0.3,0.7-0.7,1.4-1,2.2c-0.3,0.7-0.7,1.4-1.1,2.1
	c-0.3,0.6-0.7,1.1-1.1,1.6c-0.2,0.2-0.5,0.5-0.7,0.7l-0.1,0c-0.1,0-0.3,0.1-0.4,0.1l-0.1,0l-0.1,0c-0.2-0.1-0.4-0.2-0.6-0.4
	c-0.2-0.2-0.3-0.3-0.4-0.5c-0.2-0.3-0.4-0.7-0.6-1c-0.3-1-0.6-2-0.8-3c-0.3-1.4-0.8-2.8-1.4-4.1c-0.3-0.8-0.8-1.4-1.5-1.9
	c-0.6-0.3-1.2-0.4-1.8-0.3c-0.3,0.1-0.5,0.2-0.8,0.3c-0.2,0.1-0.4,0.3-0.7,0.5c-0.4,0.4-0.7,0.9-0.9,1.4c-0.1,0.2-0.2,0.5-0.3,0.7
	l-0.3,0.7c-0.5,0.9-0.9,1.7-1.4,2.6c-0.3,0.5-0.6,1-0.9,1.5c-0.3,0.6-0.7,1.2-1.1,1.7c-0.4,0.5-0.8,1.1-1.2,1.5
	c-0.4,0.5-0.9,1-1.5,1.4c-0.2,0.1-0.4,0.2-0.6,0.3c-0.2,0-0.3,0.1-0.5,0.1l0,0c-0.1,0-0.1-0.1-0.2-0.1l0,0c-0.3-0.6-0.6-1.2-0.8-1.8
	c-0.6-1.6-1.1-3.2-1.7-4.9c-0.3-0.8-0.6-1.5-0.9-2.3c-0.3-0.7-0.6-1.4-1.1-2c-0.2-0.3-0.5-0.6-0.8-0.8c-0.3-0.3-0.6-0.5-1-0.6
	c-0.4-0.1-0.9-0.2-1.3-0.1c-0.5,0.1-0.9,0.3-1.3,0.6c-0.8,0.7-1.4,1.6-1.8,2.6c-0.3,0.6-0.6,1.1-1,1.7c-0.3,0.5-0.6,1-0.9,1.5
	c-0.6,1-1.3,2-2.1,3c-0.3,0.3-0.6,0.7-0.9,1c-0.3,0.3-0.6,0.6-1,0.9c-0.4,0.3-0.8,0.5-1.3,0.7c-0.2,0-0.3,0.1-0.5,0.1
	c-0.2,0-0.4,0-0.6,0c-0.1,0-0.2-0.1-0.3-0.1l0,0c-0.1-0.1-0.3-0.3-0.4-0.4c-0.2-0.2-0.3-0.5-0.4-0.7c-0.3-0.5-0.5-1-0.6-1.5
	c-0.1-0.3-0.3-0.7-0.4-1c-0.3-0.9-0.6-1.7-1-2.6c-0.2-0.6-0.4-1.1-0.6-1.7c-0.3-0.8-0.7-1.5-1.1-2.2c-0.3-0.6-0.7-1.2-1.2-1.6
	c-0.3-0.3-0.6-0.5-0.9-0.7c-0.3-0.2-0.7-0.4-1-0.5l-0.8-0.1c-0.4,0-0.8,0.1-1.2,0.3c-0.3,0.2-0.6,0.4-0.9,0.6l-0.2,0.2
	c-0.2,0.2-0.3,0.4-0.5,0.6c-0.3,0.5-0.7,0.9-1,1.4c-0.6,0.9-1.1,1.8-1.8,2.7l-1.2,1.7c-0.4,0.6-0.8,1.2-1.3,1.8
	c-0.4,0.6-0.9,1.1-1.3,1.7c-0.3,0.4-0.6,0.7-1,1c-0.3,0.3-0.6,0.6-1,0.8c-0.5,0.3-1,0.6-1.5,0.8c-0.2,0.1-0.5,0.1-0.7,0.2
	c-0.3,0-0.7,0-1-0.1c-0.2-0.1-0.4-0.1-0.6-0.2c-0.2-0.1-0.4-0.3-0.6-0.4c-0.3-0.3-0.6-0.6-0.8-0.9c-0.4-0.6-0.6-1.2-1-1.8
	c-0.4-0.7-0.7-1.5-1-2.3s-0.6-1.5-1-2.3c-0.4-0.9-0.8-1.7-1.4-2.5c-0.2-0.3-0.5-0.6-0.8-0.9c-0.3-0.3-0.6-0.5-0.9-0.8
	c-0.3-0.2-0.7-0.5-1-0.6c-0.2-0.1-0.4-0.2-0.7-0.2c-0.2-0.1-0.5-0.1-0.8-0.1c-0.1,0-0.2,0-0.3,0c-0.7,0-1.3,0.2-1.8,0.6
	c-0.6,0.6-1.2,1.4-1.6,2.2c-0.7,1.1-1.4,2.1-2.1,3.2c-0.4,0.6-0.9,1.3-1.3,1.9c-0.7,0.9-1.4,1.9-2.1,2.8c-0.7,0.8-1.4,1.5-2.2,2.2
	c-0.2,0.1-0.5,0.3-0.7,0.4c-0.2,0.1-0.4,0.1-0.6,0.1c-0.1,0-0.1,0-0.2,0c-0.1,0-0.1,0-0.2,0l0,0c-0.2-0.2-0.3-0.3-0.4-0.5
	c-0.9-1.5-1.7-3-2.3-4.6c-0.5-1.1-1-2.3-1.6-3.4c-0.3-0.7-0.7-1.3-1.1-1.9c-0.5-0.7-1.1-1.3-1.8-1.9l-0.3-0.2
	c-0.2-0.1-0.4-0.2-0.6-0.2l-0.4-0.1c-0.3,0-0.5,0-0.8,0.2c-0.7,0.3-1.2,0.9-1.5,1.7c-0.3,0.7-0.5,1.4-0.8,2c-0.6,1.5-1.3,3-2,4.5
	c-0.3,0.6-0.6,1.1-0.9,1.7c-0.3,0.6-0.7,1.3-1.1,1.8c-0.3,0.3-0.6,0.6-0.9,0.9c-0.1,0-0.1,0.1-0.2,0.1l0,0l-0.2,0
	c-0.2,0-0.3-0.1-0.5-0.2c0,0-0.1,0-0.1-0.1c-0.3-0.3-0.6-0.7-0.9-1.1c-0.7-1.2-1.3-2.3-1.9-3.6c-0.3-0.6-0.6-1.3-0.9-1.9
	c-0.3-0.7-0.7-1.4-1.1-2.1c-0.5-1.1-1.3-2-2.3-2.7c-0.2-0.1-0.4-0.2-0.6-0.3c-0.4-0.1-0.7-0.1-1.1,0l-0.4,0.1
	c-0.2,0.1-0.4,0.3-0.6,0.4c-0.3,0.3-0.5,0.6-0.6,0.9c-0.6,1.2-1.1,2.5-1.6,3.8c-0.6,1.5-1.2,3-1.9,4.4c-0.2,0.3-0.3,0.7-0.5,1.1
	c0-0.1,0.1-0.2,0.1-0.3c-0.2,0.5-0.5,1-0.7,1.4c-0.2,0.3-0.4,0.7-0.7,1c-0.2,0.2-0.4,0.4-0.6,0.6c-0.1,0-0.1,0.1-0.2,0.1
	c-0.1,0-0.2,0-0.3,0.1l-0.1,0l0,0c-0.1,0-0.1-0.1-0.2-0.1l0,0c-0.6-1.2-1.2-2.5-1.6-3.8c-0.4-1.1-0.7-2.2-1.1-3.3
	c-0.2-0.7-0.4-1.4-0.7-2.1c-0.2-0.6-0.3-1.2-0.6-1.8c-0.1-0.3-0.3-0.7-0.5-1c-0.3-0.4-0.6-0.7-0.9-1c-0.3-0.3-0.6-0.4-1-0.4
	c-0.5,0-0.9,0.2-1.2,0.6c-0.2,0.2-0.3,0.4-0.5,0.7c-0.1,0.2-0.2,0.5-0.3,0.7c-0.1,0.3-0.2,0.6-0.3,0.9c-0.2,0.4-0.3,0.9-0.5,1.3
	c-0.4,1.2-0.9,2.3-1.4,3.4c-0.5,1.1-1.1,2.1-1.8,3c-0.3,0.3-0.5,0.6-0.9,0.8c-0.1,0.1-0.2,0.1-0.3,0.1c-0.1,0-0.1,0-0.2,0l0,0
	c0,0-0.1-0.1-0.1-0.1c-0.7-1.5-1.4-2.9-2-4.5c-0.4-0.9-0.8-1.9-1.2-2.8c-0.2-0.4-0.4-0.7-0.6-1.1c-0.2-0.3-0.4-0.6-0.6-0.9
	c-0.4-0.6-1-1-1.6-1.3c-0.6-0.3-1.4-0.4-2.1-0.1l-0.3,0.1c-0.2,0.1-0.4,0.3-0.6,0.5C82,9.8,81.9,9.9,81.9,10
	c-0.2,0.2-0.3,0.4-0.4,0.6c-0.2,0.4-0.4,0.9-0.5,1.3c-0.1,0.3-0.2,0.5-0.3,0.8c-0.6,1.4-1.1,2.8-1.8,4.2c-0.3,0.7-0.7,1.4-1.2,2
	c-0.1,0.1-0.2,0.2-0.3,0.2c-0.1,0.1-0.3,0.2-0.4,0.2l0,0l0,0c-0.1,0-0.2-0.1-0.3-0.1c-0.1,0-0.1-0.1-0.2-0.1
	c-0.2-0.2-0.3-0.3-0.4-0.5c-0.3-0.5-0.6-1-0.9-1.5c-0.2-0.4-0.4-0.7-0.6-1.1l-1.1-2c-0.7-1.2-1.5-2.4-2.4-3.5
	c-0.5-0.5-1.1-0.9-1.7-1.1c-0.3-0.1-0.7-0.2-1-0.2c-0.4,0-0.7,0.1-1.1,0.2c-0.2,0.1-0.4,0.3-0.6,0.4c-0.3,0.3-0.5,0.6-0.7,0.9
	l-0.2,0.3c-0.1,0.2-0.2,0.5-0.3,0.7c-0.1,0.2-0.1,0.3-0.2,0.5c-0.2,0.6-0.4,1.2-0.7,1.8c-0.5,1.5-1.1,2.9-1.7,4.4
	c-0.3,0.6-0.6,1.1-0.9,1.7c0-0.1-0.1-0.2-0.1-0.3c-0.5-1.5-1-3.1-1.5-4.7c-0.5-1.6-1.1-3.2-1.7-4.8c-0.2-0.4-0.3-0.8-0.5-1.2
	c-0.2-0.4-0.4-0.9-0.7-1.3c-0.3-0.7-0.8-1.2-1.5-1.5c-0.3-0.1-0.7-0.1-1-0.1c-0.2,0.1-0.4,0.1-0.6,0.2C54,6.7,53.8,6.8,53.7,7
	c-0.2,0.3-0.3,0.5-0.4,0.8c-0.2,0.5-0.3,1-0.4,1.4c-0.2,0.6-0.4,1.3-0.6,1.9c-0.4,1.3-0.9,2.5-1.4,3.7c-0.3,0.8-0.8,1.5-1.2,2.1
	c-0.3,0.3-0.5,0.6-0.8,0.8c-0.1,0-0.1,0.1-0.2,0.1c-0.1,0-0.1,0-0.2,0c-0.1,0-0.2,0-0.3,0l-0.1,0l-0.1,0c-0.2-0.2-0.4-0.4-0.6-0.6
	c-0.4-0.7-0.8-1.4-1.3-2.1c-0.3-0.4-0.5-0.9-0.8-1.3c-0.3-0.6-0.7-1.2-1.1-1.8c-0.4-0.6-0.9-1.1-1.6-1.5c-0.2-0.1-0.4-0.1-0.5-0.1
	c-0.2,0-0.4,0-0.6,0.1c-0.4,0.1-0.8,0.3-1.1,0.6c-0.4,0.5-0.7,1.1-0.9,1.8c-0.2,0.4-0.4,0.9-0.6,1.3c-0.4,0.9-0.9,1.7-1.5,2.5
	c-0.3,0.3-0.5,0.6-0.8,0.8c-0.2,0.1-0.4,0.2-0.6,0.3c-0.2,0.1-0.4,0.1-0.6,0.2c-0.2,0-0.3,0-0.5,0c-0.1,0-0.3-0.1-0.4-0.1
	c-0.1,0-0.2-0.1-0.2-0.2c-0.1-0.1-0.2-0.2-0.3-0.3c-0.2-0.4-0.5-0.9-0.7-1.3l-0.5-1c-0.2-0.4-0.4-0.8-0.5-1.2
	c-0.2-0.4-0.4-0.8-0.6-1.2c-0.3-0.4-0.6-0.8-1-1.1c-0.4-0.4-1-0.5-1.5-0.3c-0.4,0.2-0.8,0.5-1.1,0.9c-0.3,0.4-0.5,0.8-0.6,1.3
	c-0.2,0.3-0.3,0.7-0.5,1c-0.5,1-1,1.9-1.7,2.8c-0.4,0.4-0.8,0.8-1.2,1.1c-0.4,0.2-0.8,0.4-1.2,0.6c-0.1,0-0.3,0.1-0.4,0.1
	c-0.1,0-0.3,0-0.4,0c-0.2-0.1-0.4-0.1-0.6-0.2l-0.1-0.1c-0.2-0.2-0.4-0.5-0.6-0.7c-0.3-0.5-0.5-1-0.8-1.6c-0.2-0.5-0.4-0.9-0.6-1.4
	c-0.3-0.7-0.7-1.5-1-2.2c-0.3-0.7-0.7-1.4-1-2c-0.2-0.4-0.5-0.7-0.8-1.1C16,9.5,15.7,9.2,15.4,9c-0.2-0.1-0.4-0.2-0.5-0.2
	c-0.2,0-0.4-0.1-0.6-0.1c-0.2,0-0.4,0-0.6,0.1c-0.2,0.1-0.4,0.1-0.6,0.2c-0.2,0.1-0.3,0.2-0.5,0.3c-0.1,0.1-0.3,0.3-0.4,0.5
	c-0.2,0.4-0.4,0.8-0.6,1.2c0-0.1,0.1-0.2,0.1-0.3c-0.2,0.5-0.4,0.9-0.6,1.4l-0.6,1.2c-0.5,1-1.1,2-1.8,2.9c-0.3,0.4-0.7,0.7-1.1,1
	c-0.1,0.1-0.2,0.1-0.3,0.2c-0.1,0-0.3,0.1-0.4,0.1c-0.1-0.2-0.2-0.4-0.3-0.6c-0.1-0.2-0.2-0.5-0.3-0.8c-0.1-0.4-0.3-0.7-0.4-1.1
	c-0.1-0.3-0.2-0.6-0.3-1c-0.2-0.9-0.5-1.7-0.7-2.6c-0.1-0.2-0.1-0.5-0.2-0.7c-0.1-0.6-0.3-1.2-0.4-1.7C3.9,7.7,3.6,6.5,3.4,5.3
	C3.2,4.6,2.5,4.1,1.7,4.3C1,4.4,0.5,5.1,0.6,5.9c0,0,0,0,0,0.1c0.4,2,0.9,4,1.4,5.9c0.2,0.7,0.4,1.4,0.6,2.1
	c0.2,0.8,0.5,1.5,0.8,2.2c0.2,0.5,0.4,1,0.6,1.5c0.1,0.3,0.3,0.6,0.5,0.9c0.2,0.4,0.5,0.7,0.9,1l0.2,0.1C5.7,19.9,5.9,20,6.1,20
	c0.4,0.1,0.9,0.1,1.3,0c0.4-0.1,0.9-0.2,1.3-0.5c0.2-0.1,0.4-0.3,0.6-0.4c0.2-0.2,0.4-0.3,0.6-0.5c1.2-1.2,2.2-2.7,2.9-4.3
	c0.5-1,0.9-2,1.3-3.1l0,0c0.2,0.2,0.4,0.5,0.6,0.7c0.5,0.8,0.9,1.7,1.3,2.5c0.3,0.6,0.5,1.2,0.8,1.9c0.2,0.5,0.5,1.1,0.7,1.6
	c0.2,0.4,0.3,0.8,0.5,1.2c0.2,0.3,0.4,0.6,0.6,0.9c0.2,0.3,0.4,0.5,0.7,0.8c0.4,0.4,1,0.7,1.5,0.8c0.7,0.2,1.5,0.3,2.2,0.1
	c0.2-0.1,0.5-0.1,0.7-0.2c0.4-0.1,0.8-0.3,1.1-0.5c0.7-0.4,1.3-0.9,1.9-1.5c1-1.1,1.8-2.4,2.4-3.7c0.1-0.3,0.3-0.6,0.4-0.9
	c0-0.1,0.1-0.2,0.1-0.3c0.2,0.5,0.4,1,0.6,1.4c0.2,0.4,0.4,0.8,0.5,1.2c0.2,0.7,0.6,1.4,1,2c0.4,0.4,0.8,0.8,1.3,1.1
	c0.6,0.3,1.2,0.5,1.8,0.5c0.5,0,0.9,0,1.4-0.2c0.6-0.2,1.1-0.4,1.6-0.7c0.9-0.7,1.6-1.5,2.2-2.5c0.5-0.8,0.9-1.7,1.3-2.6
	c0.1-0.3,0.2-0.6,0.4-0.9c0.1-0.2,0.1-0.4,0.2-0.5c0.1,0.1,0.2,0.3,0.3,0.4c0.5,0.8,0.9,1.5,1.3,2.3l0.9,1.6
	c0.2,0.4,0.4,0.8,0.6,1.1c0.2,0.3,0.4,0.5,0.6,0.8l0.2,0.3c0.2,0.1,0.3,0.3,0.5,0.4c0.3,0.2,0.6,0.3,0.9,0.4c0.3,0.1,0.6,0.1,1,0.1
	c0.3,0,0.6,0,1-0.1c0.3-0.1,0.7-0.2,0.9-0.5c0.6-0.4,1.1-0.9,1.6-1.5c0.5-0.6,0.9-1.3,1.2-2c0.6-1.1,1-2.3,1.4-3.5
	c0.2-0.6,0.4-1.2,0.6-1.8c0.1-0.3,0.2-0.7,0.3-1c0.2,0.4,0.4,0.9,0.5,1.3c0.6,1.6,1.1,3.3,1.6,4.9c0.2,0.8,0.5,1.6,0.7,2.4
	c0.1,0.5,0.3,1,0.4,1.5c0.1,0.5,0.3,1,0.5,1.4c0.2,0.5,0.5,0.9,0.8,1.2c0.3,0.3,0.6,0.5,0.9,0.6c0.2,0.1,0.4,0.1,0.7,0.2
	c0.2,0,0.5,0,0.7-0.1c0.2-0.1,0.5-0.2,0.7-0.3c0.2-0.1,0.4-0.3,0.6-0.4c0.4-0.3,0.7-0.7,1-1.1c0.3-0.4,0.5-0.9,0.8-1.3
	c0.3-0.5,0.5-1,0.7-1.5c0.3-0.6,0.5-1.2,0.7-1.7c0.3-0.9,0.6-1.7,0.9-2.6c0.1-0.3,0.2-0.7,0.3-1c0.1-0.4,0.3-0.9,0.4-1.3
	c0.4,0.4,0.7,0.8,1.1,1.3c0.9,1.4,1.7,2.9,2.5,4.3c0.2,0.4,0.4,0.8,0.6,1.1c0.2,0.3,0.4,0.6,0.6,0.9c0.2,0.3,0.4,0.6,0.6,0.9
	c0.2,0.3,0.5,0.5,0.8,0.7c0.3,0.2,0.6,0.4,1,0.5c0.4,0.1,0.7,0.2,1.1,0.2c0.4,0,0.7,0,1.1-0.1l0.4-0.1c0.2-0.1,0.4-0.2,0.6-0.3
	c0.3-0.2,0.6-0.4,0.9-0.6c0.3-0.3,0.5-0.6,0.8-0.9c0.2-0.3,0.4-0.6,0.6-1c0.2-0.3,0.4-0.7,0.5-1c0.5-0.9,0.8-1.9,1.2-2.9
	c0.5-1.2,0.9-2.3,1.3-3.5c0.1,0.1,0.2,0.2,0.3,0.3c0.4,0.6,0.7,1.2,1,1.8c0.2,0.5,0.4,0.9,0.6,1.4c0.3,0.7,0.6,1.3,0.8,2
	c0.3,0.8,0.7,1.6,1,2.5c0.3,0.7,0.7,1.4,1.2,1.9c0.3,0.3,0.6,0.5,0.9,0.6c0.2,0.1,0.5,0.2,0.7,0.2c0.2,0,0.5,0,0.7,0
	c0.7-0.1,1.5-0.4,2-0.8c0.7-0.6,1.3-1.2,1.8-1.9c0.5-0.7,0.9-1.4,1.2-2.1c0.5-0.9,0.8-1.8,1.2-2.8c0.3-0.6,0.5-1.3,0.7-1.9
	c0.1-0.2,0.2-0.5,0.2-0.7c0.5,1.6,1,3.3,1.5,4.9c0.3,0.9,0.6,1.8,0.9,2.6c0.2,0.7,0.5,1.4,0.8,2.1c0.1,0.4,0.3,0.7,0.5,1.1
	c0.1,0.2,0.3,0.4,0.4,0.5c0.2,0.2,0.5,0.4,0.8,0.6c0.4,0.2,0.9,0.4,1.4,0.4c0.3,0,0.5,0,0.8-0.1c0.3,0,0.5-0.1,0.8-0.2
	c0.2-0.1,0.5-0.2,0.7-0.3c0.2-0.1,0.4-0.3,0.6-0.5c0.5-0.4,0.9-0.9,1.3-1.4c0.6-0.9,1.1-1.8,1.5-2.8c0.5-1,1-2.1,1.4-3.2
	c0.3-0.8,0.7-1.6,1-2.5c0.3-0.8,0.6-1.5,0.9-2.3c0.1,0.1,0.1,0.1,0.2,0.2c0.8,1.3,1.5,2.7,2.1,4.1c0.7,1.7,1.5,3.3,2.6,4.8
	c0.2,0.3,0.4,0.5,0.6,0.8c0.1,0.1,0.1,0.2,0.2,0.2c0.2,0.2,0.4,0.3,0.5,0.5c0.3,0.2,0.6,0.4,1,0.5c0.1,0,0.2,0.1,0.4,0.1
	c0.3,0.1,0.5,0.1,0.8,0.2l0.4,0c0.3,0,0.5,0,0.8-0.1c0.1,0,0.2-0.1,0.3-0.1c0.2-0.1,0.5-0.2,0.7-0.3c0.1-0.1,0.2-0.1,0.3-0.2
	c0.2-0.1,0.4-0.3,0.6-0.5c0.4-0.3,0.7-0.7,1-1.1c0.5-0.6,0.9-1.3,1.3-2c0.4-0.7,0.8-1.5,1.1-2.2c0.5-1,0.9-2,1.3-3s0.8-2,1.2-3
	c0.1,0.1,0.1,0.1,0.2,0.2c0.5,0.8,0.9,1.7,1.3,2.5c0.3,0.7,0.6,1.4,0.9,2.1c0.3,0.8,0.7,1.6,1,2.4c0.6,1.5,1.4,2.9,2.4,4.2
	c0.2,0.2,0.4,0.3,0.6,0.5c0.2,0.1,0.4,0.2,0.7,0.3c0.4,0.1,0.9,0.2,1.3,0.3c0.3,0,0.5,0,0.8-0.1c0.2,0,0.5-0.1,0.7-0.2
	c0.6-0.2,1.2-0.5,1.7-0.9c0.9-0.7,1.7-1.4,2.4-2.2c0.8-0.8,1.5-1.7,2.1-2.7c0.6-0.9,1.3-1.8,1.9-2.6c0.5-0.6,0.9-1.3,1.3-2
	c0.6-0.9,1.1-1.8,1.7-2.7l0,0c0,0,0.1,0,0.1,0c0.2,0.1,0.4,0.3,0.7,0.5c0.2,0.2,0.4,0.5,0.6,0.7c0.5,0.7,0.9,1.4,1.2,2.2
	c0.4,1,0.8,2,1.2,3.1c0.3,0.9,0.7,1.7,1.1,2.6c0.5,0.9,1.1,1.8,1.8,2.5c0.3,0.3,0.6,0.5,0.9,0.8c0.4,0.3,0.9,0.5,1.4,0.7
	c0.3,0.1,0.5,0.1,0.8,0.2c0.3,0.1,0.6,0.1,0.9,0.1c0.6,0,1.1,0,1.7-0.1c0.4-0.1,0.8-0.2,1.2-0.4c0.5-0.2,1-0.5,1.5-0.8
	c0.9-0.6,1.8-1.3,2.5-2.1c0.7-0.7,1.3-1.5,1.9-2.2c0.6-0.8,1.2-1.6,1.8-2.5c0.5-0.7,0.9-1.3,1.4-2c0.4-0.6,0.8-1.2,1.2-1.8
	c0.3-0.6,0.7-1.1,1.1-1.6c0.1,0.1,0.2,0.2,0.3,0.3c0.6,0.9,1.1,1.9,1.4,2.9c0.7,1.9,1.4,3.9,2.1,5.8c0.1,0.4,0.3,0.7,0.5,1.1
	c0.2,0.5,0.5,0.9,0.9,1.3c0.2,0.3,0.5,0.6,0.8,0.8c0.4,0.3,0.9,0.5,1.3,0.7l0.3,0.1c0.3,0.1,0.6,0.1,0.9,0.2c0.2,0,0.5,0,0.7,0
	c0.3,0,0.6,0,0.9-0.1c0.9-0.2,1.8-0.6,2.6-1.1c0.8-0.5,1.6-1.1,2.3-1.8c0.7-0.7,1.3-1.5,1.9-2.3c0.7-0.9,1.3-1.9,1.9-2.9
	c0.4-0.6,0.7-1.2,1-1.8c0.3-0.5,0.5-1,0.8-1.5c0.3,0.6,0.6,1.2,0.8,1.9c0.4,1.1,0.7,2.2,1.1,3.4c0.4,1.2,0.8,2.5,1.2,3.7
	c0.1,0.3,0.2,0.6,0.4,0.9c0.2,0.4,0.5,0.8,0.9,1.2c0.3,0.3,0.6,0.5,1,0.7c0.3,0.1,0.5,0.3,0.8,0.4c0.3,0.1,0.6,0.1,0.8,0.2
	c0.4,0,0.9,0,1.3-0.1c0.6-0.1,1.1-0.3,1.6-0.5c0.2-0.1,0.4-0.2,0.6-0.3c0.2-0.2,0.5-0.3,0.7-0.5c0.4-0.3,0.7-0.6,1.1-1
	c0.6-0.7,1.3-1.4,1.8-2.2c0.6-0.8,1.1-1.6,1.6-2.4c0.5-0.7,0.9-1.5,1.3-2.2c0.3-0.4,0.5-0.9,0.7-1.3c0.3,1,0.5,2.1,0.8,3.1
	c0.3,1.6,1.1,3.1,2.2,4.3c0.3,0.3,0.7,0.6,1.1,0.9c0.4,0.3,0.8,0.5,1.3,0.6c0.4,0.1,0.8,0.2,1.3,0.3c0.4,0,0.8,0,1.3-0.1
	c0.4-0.1,0.8-0.2,1.2-0.4c0.4-0.2,0.7-0.4,1.1-0.6c0.6-0.5,1.2-1.1,1.7-1.7c0.5-0.6,0.9-1.3,1.3-1.9c0.4-0.8,0.8-1.6,1.2-2.4
	c0.4-0.8,0.8-1.7,1.1-2.6l0,0.1c0.3,0.6,0.6,1.3,1,1.9c0.3,0.6,0.7,1.3,1,1.9c0.4,0.6,0.8,1.2,1.2,1.7c0.8,1.1,1.8,1.9,2.9,2.5
	c0.6,0.3,1.2,0.5,1.9,0.7c0.8,0.2,1.5,0.3,2.3,0.4c1.2,0.1,2.3-0.9,2.4-2.1c0-0.6-0.2-1.2-0.6-1.6c-0.4-0.4-1-0.7-1.6-0.7
	c-0.1,0-0.2,0-0.4,0C241,17.1,240.3,16.8,239.6,16.5z M14.1,11.1l-0.2,0.1C14,11.1,14.1,11.1,14.1,11.1L14.1,11.1z M76.3,19.1
	l0.1,0.1l0,0C76.4,19.2,76.4,19.1,76.3,19.1L76.3,19.1z M83.8,11.9L83.8,11.9L83.8,11.9L83.8,11.9z M84,12.2c0-0.1,0.1-0.1,0.1-0.2
	l0,0L84,12.2z M84.3,11.8L84.3,11.8c0,0,0.1-0.1,0.1-0.1C84.3,11.7,84.3,11.8,84.3,11.8L84.3,11.8z M105.1,21.6L105.1,21.6
	C105,21.6,105,21.6,105.1,21.6L105.1,21.6z M105.1,21.7c-0.1,0-0.2,0-0.2,0L105.1,21.7L105.1,21.7L105.1,21.7L105.1,21.7L105.1,21.7
	L105.1,21.7L105.1,21.7L105.1,21.7L105.1,21.7z M105.2,21.7L105.2,21.7L105.2,21.7L105.2,21.7z M105.3,21.7L105.3,21.7l0.2-0.1
	C105.4,21.6,105.3,21.7,105.3,21.7L105.3,21.7z M139.4,19.7l0.2,0l0,0C139.5,19.7,139.4,19.7,139.4,19.7L139.4,19.7z M139.6,19.7
	L139.6,19.7L139.6,19.7L139.6,19.7L139.6,19.7z M139.6,19.7L139.6,19.7z M186.1,18.9L186.1,18.9L186.1,18.9L186.1,18.9z M186.2,18.9
	L186.2,18.9l0.2,0.1C186.3,18.9,186.2,18.9,186.2,18.9L186.2,18.9z M205.3,19.4L205.3,19.4L205.3,19.4L205.3,19.4z M205.4,19.4
	L205.4,19.4L205.4,19.4L205.4,19.4z M205.5,19.5L205.5,19.5L205.5,19.5L205.5,19.5L205.5,19.5z M205.5,19.5L205.5,19.5l0.1,0.1
	C205.6,19.5,205.5,19.5,205.5,19.5L205.5,19.5z"/>
</svg>
