<svg xmlns="http://www.w3.org/2000/svg" width="434.388" height="83.438" viewBox="0 0 434.388 83.438">
  <g id="Group_78019" data-name="Group 78019" transform="translate(-450.814 -2252.526)">
    <g id="Group_77984" data-name="Group 77984" transform="matrix(-0.985, 0.174, -0.174, -0.985, 485.66, 2288.998)">
      <path id="Path_1898" data-name="Path 1898" d="M9.817,9.386q1.567,2.376,3.157,4.736.767,1.136,1.54,2.273a3.3,3.3,0,0,1,.546,3.019,1.356,1.356,0,0,1-1.291,1,3.245,3.245,0,0,1-2.72-1.363q-.84-1.082-1.677-2.169-1.814-2.355-3.606-4.727C3.471,9.113,1.889,5.432.145,2.048-.512.774,1.216-.766,2.25.432q1.9,2.2,3.816,4.382A42.141,42.141,0,0,1,9.817,9.386" transform="translate(0 16.615)" fill="#fd9dea"/>
      <path id="Path_1899" data-name="Path 1899" d="M17.391,11.306c-1.429.881-3.588-.152-5.034-.668a38.9,38.9,0,0,1-4.8-2.07C4.678,7.084,2.21,4.283.221,1.78-.413.987.417-.538,1.419.193a34.9,34.9,0,0,0,4.043,2.55c1.327.714,2.751,1.233,4.057,1.976a33.323,33.323,0,0,0,4.051,1.975c1.435.574,3.676.783,4.473,2.21a1.8,1.8,0,0,1-.652,2.4" transform="translate(6.613 12.253)" fill="#fd9dea"/>
      <path id="Path_1900" data-name="Path 1900" d="M2.882.765c.387.006.776.013,1.164.02C4.953.8,5.859.817,6.766.831c1.681.03,3.369.02,5.048.088a38.941,38.941,0,0,1,5.05.792l2.668.469a8.013,8.013,0,0,1,2.5.63,1.015,1.015,0,0,1-.234,1.844,10.918,10.918,0,0,1-3.363.1q-1.746-.042-3.494-.082a24.61,24.61,0,0,1-3.566-.2c-1.206-.209-2.409-.439-3.615-.659L4.332,3.188a21.157,21.157,0,0,1-3.268-.635A1.4,1.4,0,0,1,.047.9,1.162,1.162,0,0,1,1.524.066.869.869,0,0,1,2.1.751h0l.778.014" transform="translate(12.005 0)" fill="#fd9dea"/>
    </g>
    <path id="Path_2671" data-name="Path 2671" d="M334.769,221.838c-1,.074-2.006.133-3.005.231l-4.144.407a49.938,49.938,0,0,0-6.794,1.143,32.242,32.242,0,0,0-6.871,2.539c-.433.218-.863.455-1.31.648l-1.446.622c-.684.264-1.371.513-2.076.723a17.951,17.951,0,0,1-2.5.541c-.735.072-1.467.11-2.206.114a17.054,17.054,0,0,1-2.093-.135,24.61,24.61,0,0,1-2.809-.6,28.1,28.1,0,0,1-2.855-1,42.318,42.318,0,0,1-4.647-2.314c-.707-.407-1.408-.823-2.1-1.254-.832-.523-1.654-1.048-2.516-1.527a14.417,14.417,0,0,0-2.041-.987,10.827,10.827,0,0,0-1.409-.407,8.865,8.865,0,0,0-1.473-.157,5.875,5.875,0,0,0-.879.082,9.439,9.439,0,0,0-1.25.272,11.1,11.1,0,0,0-1.848.821q-1.812.912-3.621,1.828c-1.526.775-3.067,1.533-4.647,2.2-.965.37-1.941.7-2.937.983a30.775,30.775,0,0,1-4,.815,36.651,36.651,0,0,1-3.905.263,33.518,33.518,0,0,1-4.42-.315c-1.857-.254-3.686-.611-5.509-1.033a36.12,36.12,0,0,1-4.937-1.5q-2.394-1-4.682-2.218a37.478,37.478,0,0,0-5.376-2.4,16.986,16.986,0,0,0-2.272-.567,13.217,13.217,0,0,0-2.693-.229,12.735,12.735,0,0,0-5.292,1.374,36.878,36.878,0,0,0-5.566,3.6c-1.074.77-2.118,1.585-3.17,2.38-.881.648-1.759,1.3-2.686,1.887a21.063,21.063,0,0,1-3.044,1.591c-.491.19-.985.362-1.492.516a13.236,13.236,0,0,1-2.027.422c-.27.027-.541.041-.813.044a5.674,5.674,0,0,1-.583-.021,11.233,11.233,0,0,1-1.606-.45,34.1,34.1,0,0,1-5.335-3.175c-.8-.612-1.581-1.248-2.332-1.919q-.789-.7-1.575-1.4A50.592,50.592,0,0,0,189.9,220.6a12.555,12.555,0,0,0-1.963-1.17,7.859,7.859,0,0,0-1.224-.431l-.412-.082-.865-.112c-.14-.007-.28-.016-.419-.025q-.078,0-.156,0a4.776,4.776,0,0,0-.772.064,9.286,9.286,0,0,0-1.468.312,24.153,24.153,0,0,0-2.773,1.028c-.742.31-1.471.646-2.205.974-.516.232-1.042.451-1.542.714l-2.361,1.242c-.4.208-.8.4-1.182.634q-1.066.646-2.133,1.291c-.536.324-1.083.636-1.61.974l-3.962,2.544a57.71,57.71,0,0,1-8.892,4.941c-.7.271-1.4.525-2.115.751a18.06,18.06,0,0,1-2.715.6c-.389.043-.776.075-1.17.1a11.393,11.393,0,0,1-1.722-.063,13.513,13.513,0,0,1-2.4-.607,16.108,16.108,0,0,1-2.413-1.374,35.945,35.945,0,0,1-3.345-3.068c-.529-.534-1.064-1.061-1.6-1.591-.639-.636-1.333-1.219-2.034-1.79a9.672,9.672,0,0,0-1.865-1.195,10.975,10.975,0,0,0-1.207-.47,5.686,5.686,0,0,0-1.266-.19,7.8,7.8,0,0,0-.821.088,5.391,5.391,0,0,0-1.131.381,4.1,4.1,0,0,0-1.01.642c-.3.277-.587.563-.869.859-.537.561-1.014,1.188-1.512,1.782-.393.468-.782.94-1.176,1.411-.456.547-.934,1.079-1.4,1.619a21.21,21.21,0,0,1-3.087,2.9,16.861,16.861,0,0,1-2.757,1.56,15.155,15.155,0,0,1-2.726.694,18.814,18.814,0,0,1-3.956-.036,28.494,28.494,0,0,1-6.055-1.7,49.032,49.032,0,0,1-5.159-2.582c-.863-.491-1.694-1.03-2.522-1.57s-1.669-1.086-2.494-1.642-1.656-1.131-2.521-1.648a25.754,25.754,0,0,0-2.742-1.425,13.252,13.252,0,0,0-5.558-1.246,9.342,9.342,0,0,0-1.345.141c-.469.077-.923.168-1.384.29a9.571,9.571,0,0,0-1.2.435c-.426.175-.848.356-1.272.539a35.625,35.625,0,0,0-5.3,2.843,25.17,25.17,0,0,0-4.135,3.381,22,22,0,0,0-1.631,1.825,3.563,3.563,0,0,0-.561.976l-.15.42c-.061.3-.12.6-.179.9a1.122,1.122,0,0,0,.3,1.082,1.2,1.2,0,0,0,1.129.286c.279-.075.556-.152.835-.229a6.765,6.765,0,0,0,1.127-.459,1.089,1.089,0,0,0-.274-2.019,23.394,23.394,0,0,1,3.359-3.062,31.318,31.318,0,0,1,6.3-3.481c.5-.2,1.01-.4,1.52-.588a9.861,9.861,0,0,1,1.965-.476,11.454,11.454,0,0,1,1.767-.021c.393.062.777.141,1.169.238a13.806,13.806,0,0,1,1.666.559,25.217,25.217,0,0,1,3.05,1.635c1.148.694,2.208,1.52,3.311,2.279s2.18,1.5,3.291,2.212,2.252,1.356,3.41,1.976a35.6,35.6,0,0,0,7.12,2.885,19.48,19.48,0,0,0,7.879.641,14.178,14.178,0,0,0,3.565-.939,16.346,16.346,0,0,0,3.118-1.728,20.211,20.211,0,0,0,2.916-2.517c.474-.492.912-1,1.35-1.524.638-.751,1.262-1.511,1.883-2.276a30.329,30.329,0,0,1,2.4-2.773,2.266,2.266,0,0,1,.2-.107c.095-.032.191-.059.289-.082h.095a4.215,4.215,0,0,1,.515.141,8.914,8.914,0,0,1,1.213.655,32.112,32.112,0,0,1,3.064,2.775c1.241,1.24,2.471,2.482,3.839,3.6a17.1,17.1,0,0,0,1.88,1.3,14.182,14.182,0,0,0,2.436,1.14,11.561,11.561,0,0,0,2.407.558,14.168,14.168,0,0,0,2.91.117,20.438,20.438,0,0,0,2.417-.325,18.969,18.969,0,0,0,2.826-.776,35.5,35.5,0,0,0,5-2.205c2.357-1.242,4.576-2.7,6.8-4.139,1.064-.689,2.118-1.4,3.2-2.061l3.721-2.266c.143-.086.3-.158.446-.237q.637-.336,1.272-.673l1.938-1.027c.127-.068.265-.122.4-.181.454-.207.909-.411,1.362-.618.763-.344,1.523-.684,2.295-1.006a17.691,17.691,0,0,1,2.385-.722,4.546,4.546,0,0,1,.5-.012c.138,0,.275.011.413.023a7.974,7.974,0,0,1,1,.264,12.255,12.255,0,0,1,1.605.952c1.557,1.25,2.929,2.705,4.416,4.033.93.833,1.861,1.648,2.85,2.418.894.7,1.828,1.343,2.783,1.957a36.075,36.075,0,0,0,3.179,1.75,9.239,9.239,0,0,0,3.171.961,9.477,9.477,0,0,0,1.469.046,14.359,14.359,0,0,0,1.885-.254,15.489,15.489,0,0,0,3.052-.93,22.742,22.742,0,0,0,3.209-1.608,42.629,42.629,0,0,0,4.049-2.893l2.332-1.788,1.852-1.357a23.49,23.49,0,0,1,4.242-2.516,12.776,12.776,0,0,1,2.3-.591c.381-.037.758-.06,1.144-.066a7.311,7.311,0,0,1,1.013.066,18.261,18.261,0,0,1,3.512.94c.985.415,1.957.861,2.908,1.344.592.3,1.171.627,1.758.939s1.164.58,1.754.857c1.132.535,2.278,1.032,3.45,1.484a33.4,33.4,0,0,0,3.781,1.143,58.509,58.509,0,0,0,8.131,1.445,30.985,30.985,0,0,0,4.177.169,37.759,37.759,0,0,0,4.113-.39,29.5,29.5,0,0,0,7.119-1.923c1.458-.593,2.864-1.274,4.278-1.96,1.69-.819,3.357-1.7,5.078-2.464a9.375,9.375,0,0,1,1.047-.272,4.374,4.374,0,0,1,.627,0,9.34,9.34,0,0,1,1.453.388,38.088,38.088,0,0,1,4.356,2.612,45.153,45.153,0,0,0,4.614,2.62,40.086,40.086,0,0,0,4.92,2,22,22,0,0,0,5.894,1.036,19.642,19.642,0,0,0,5.255-.519,23.041,23.041,0,0,0,4.242-1.493c.589-.261,1.178-.515,1.748-.811q.555-.285,1.109-.572c.554-.286,1.139-.531,1.72-.768a38.745,38.745,0,0,1,8.741-2.066c1.614-.2,3.239-.305,4.858-.451,1.4-.126,2.815-.189,4.222-.278,2.852-.18,5.718-.353,8.579-.344a1.927,1.927,0,1,0,0-3.851c-2.172.035-4.34.195-6.506.347Q336.341,221.722,334.769,221.838Zm-52.88,1.947.168-.021h0Z" transform="translate(528.572 2095.916)" fill="#e47455"/>
    <g id="Group_77986" data-name="Group 77986" transform="matrix(1, 0.017, -0.017, 1, -1537.827, 1917.563)">
      <path id="Path_2206" data-name="Path 2206" d="M478.411,516.512c1.664-.159,3.339-.4,5.007-.478q2.335-.107,4.667-.218c8.521-.394,17.039-.9,25.565-1.052,8.916-.163,17.835-.434,26.752-.461,9.1-.028,18.2-.075,27.3-.02q26.6.167,53.2.26,26.422.082,52.844-.04c8.742-.057,17.487-.318,26.227-.527,8.583-.205,17.157-.551,25.736-.954,1.885-.09,3.768-.264,5.651-.4,1.86-.136,3.725-.243,5.584-.419,4.771-.454,9.536-.935,14.3-1.473,8.3-.941,16.569-2.193,24.877-2.974,8.7-.82,17.428-1.287,26.142-1.953,3.934-.3,7.888-.675,11.793-1.338,4.465-.752,8.889-1.662,13.3-2.8,4.266-1.1,8.53-2.224,12.8-3.3,2.048-.52,4.108-.99,6.177-1.36,2.341-.419,4.663-.849,6.975-1.47,1.112-.3,1.331-2.14,1.331-3.324a7.188,7.188,0,0,0-.257-1.96c-.164-.533-.506-1.384-1.074-1.358-4.171.172-8.341.35-12.509.591q-6.309.365-12.631.467c-8.177.137-16.369-.212-24.538-.633q2.089-.352,4.177-.7c5-.842,9.987-1.9,15.013-2.469,2.675-.3,5.358-.556,8.026-.946a40.716,40.716,0,0,0,4.031-.754c1.436-.359,2.852-.849,4.264-1.342a1.316,1.316,0,0,0,1.03-.838,6.21,6.21,0,0,0,.678-2.573c1.431-.544,1.718-3.159,1.718-4.733a10.2,10.2,0,0,0-.372-2.837c-.248-.807-.722-1.951-1.552-1.962-4.342-.062-8.675-.425-13.017-.492-.509-.007-1.02-.011-1.529-.011-3.735,0-7.463.2-11.195.452q-12.467.832-24.927,1.968c-3.859.344-7.714.752-11.577,1.042-4.724.353-9.438.624-14.167.853-7.911.381-15.835.529-23.75.708-9.077.209-18.144.505-27.215,1.034-8.4.491-16.791,1.144-25.185,1.768q-12.641.934-25.285,1.871c-8.637.646-17.282,1.126-25.928,1.605-4.374.245-8.754.318-13.131.472-4.143.146-8.289.185-12.434.26-8.157.148-16.316.24-24.475.344-16.459.207-32.91.54-49.367.879q-13.561.283-27.119.6c-4.611.108-9.224.335-13.832.5-3.941.141-7.88.472-11.82.723q-6.289.4-12.579.862-3.739.269-7.484.544c-1.083.081-2.168.157-3.254.238-.987.071-1.976.163-2.961.256a18.4,18.4,0,0,0-2.089.339,13.078,13.078,0,0,0-2.274.9,3.5,3.5,0,0,0-.92,1.675,10.723,10.723,0,0,0,0,5.517l.4,1.01a1.424,1.424,0,0,0,1.1.9,20.15,20.15,0,0,0,2.584.785,1.415,1.415,0,0,0,1.1-.9,3.936,3.936,0,0,0,.254-.518c.461-.016.923-.015,1.385-.015.441,0,.883,0,1.328-.016q1.5-.041,2.988-.088,3.849-.113,7.7-.225c2.782-.084,5.56-.144,8.341-.2q-.431.047-.861.09c-6.567.637-13.129,1.276-19.691,2a3.136,3.136,0,0,0-2.425,1.977,13.355,13.355,0,0,0-1.489,5.011q-1.73-.022-3.461-.04c-.808-.009-.968,1.743-.968,2.416s.16,2.4.968,2.412c1.1.013,2.211.037,3.316.055a21.582,21.582,0,0,0,.747,4.466q.444,1.109.887,2.216a3.135,3.135,0,0,0,2.425,1.977C465.986,517.705,472.2,517.105,478.411,516.512Z" transform="translate(1568.567 -157.663)" fill="#fff"/>
      <path id="Path_2207" data-name="Path 2207" d="M26.978,46.849c1.664-.159,3.339-.4,5.007-.478q2.335-.107,4.667-.218c8.521-.394,17.04-.9,25.565-1.052,8.916-.163,17.835-.434,26.752-.461,9.1-.027,18.2-.075,27.3-.02q26.6.167,53.2.26,26.422.082,52.844-.04c8.743-.057,17.487-.319,26.227-.527,8.583-.205,17.157-.551,25.735-.954,1.885-.09,3.768-.264,5.651-.4,1.86-.136,3.725-.243,5.584-.419,4.771-.454,9.536-.935,14.3-1.473,8.3-.941,16.569-2.193,24.877-2.974,8.7-.82,17.428-1.287,26.142-1.953,3.933-.3,7.887-.675,11.793-1.338,4.464-.752,8.889-1.662,13.3-2.8,4.267-1.1,8.53-2.224,12.8-3.3,2.048-.52,4.108-.99,6.177-1.36,2.341-.419,4.663-.849,6.975-1.47,1.112-.3,1.331-2.14,1.331-3.324a7.183,7.183,0,0,0-.257-1.96c-.164-.533-.506-1.384-1.074-1.358-4.171.172-8.341.35-12.509.591q-6.31.365-12.631.467c-8.177.137-16.369-.212-24.538-.633q2.088-.351,4.177-.7c5-.842,9.987-1.9,15.013-2.469,2.675-.3,5.358-.556,8.025-.946a40.712,40.712,0,0,0,4.032-.754c1.436-.359,2.852-.849,4.263-1.342a1.315,1.315,0,0,0,1.03-.838,6.212,6.212,0,0,0,.678-2.573c1.43-.544,1.718-3.159,1.718-4.733a10.2,10.2,0,0,0-.371-2.837c-.248-.807-.722-1.951-1.552-1.962C384.879.441,380.545.079,376.2.011Q375.44,0,374.675,0c-3.735,0-7.463.2-11.194.452q-12.467.832-24.927,1.968c-3.859.344-7.714.752-11.577,1.042-4.724.353-9.438.624-14.167.853-7.911.381-15.835.529-23.75.708-9.077.209-18.144.505-27.214,1.034-8.4.491-16.792,1.144-25.185,1.768q-12.641.934-25.285,1.871c-8.637.646-17.282,1.126-25.928,1.605-4.374.245-8.754.318-13.131.472-4.143.146-8.289.185-12.434.26-8.157.148-16.316.24-24.475.344-16.459.207-32.91.54-49.367.879q-13.561.283-27.119.6c-4.611.108-9.224.335-13.832.5-3.941.141-7.88.472-11.819.723q-6.29.4-12.579.862-3.739.269-7.484.544c-1.083.081-2.168.157-3.254.238-.987.071-1.976.163-2.961.256A18.391,18.391,0,0,0,4.9,17.32a13.078,13.078,0,0,0-2.274.9,3.5,3.5,0,0,0-.92,1.675,10.723,10.723,0,0,0,0,5.517l.4,1.01a1.424,1.424,0,0,0,1.1.9,20.14,20.14,0,0,0,2.584.785,1.415,1.415,0,0,0,1.1-.9,3.947,3.947,0,0,0,.254-.518c.461-.016.923-.015,1.385-.015.442,0,.883,0,1.328-.016q1.5-.041,2.989-.088,3.849-.113,7.7-.225c2.782-.084,5.56-.145,8.341-.2q-.431.047-.861.09c-6.567.637-13.13,1.276-19.691,2a3.135,3.135,0,0,0-2.425,1.977,13.353,13.353,0,0,0-1.489,5.011Q2.7,35.2.968,35.186C.16,35.177,0,36.929,0,37.6s.16,2.4.968,2.412c1.1.013,2.211.037,3.316.055a21.593,21.593,0,0,0,.747,4.466q.444,1.109.888,2.216a3.135,3.135,0,0,0,2.425,1.977C14.553,48.042,20.765,47.442,26.978,46.849Z" transform="translate(2428.926 365.43) rotate(180)" fill="#fff"/>
    </g>
  </g>
</svg>
