<svg xmlns="http://www.w3.org/2000/svg" width="25.943" height="32.033" viewBox="0 0 25.943 32.033">
  <g id="Grupo_78066" data-name="Grupo 78066" transform="translate(-2703.72 -347.773) rotate(-17)">
    <path id="Trazado_2738" data-name="Trazado 2738" d="M2491.2,1134.374a.448.448,0,0,1-.312-.127c-.551-.538-5.361-5.323-4.47-7.738.287-.779,1.063-1.215,2.307-1.3a3.243,3.243,0,0,1,3.118,1.26c1.676,2.408-.145,7.4-.224,7.61a.446.446,0,0,1-.321.281A.462.462,0,0,1,2491.2,1134.374Zm-2.1-8.281c-.1,0-.208,0-.317.011-.858.057-1.372.3-1.526.714-.477,1.293,1.87,4.332,3.746,6.276.419-1.387,1.194-4.549.106-6.11A2.252,2.252,0,0,0,2489.1,1126.093Z" transform="translate(-1.675)" fill="#4d4d4f"/>
    <path id="Trazado_2739" data-name="Trazado 2739" d="M2493.111,1135.507l.537,2.981-2.7.373-.3-3.353Z" transform="translate(-2.902 -2.91)" fill="#8ac3c1"/>
    <ellipse id="Elipse_94" data-name="Elipse 94" cx="10.373" cy="10.437" rx="10.373" ry="10.437" transform="translate(2480.373 1134.611)" fill="#8ac3c1"/>
    <path id="Trazado_2740" data-name="Trazado 2740" d="M2487.3,1146.885a26.023,26.023,0,0,1-5.389-.517.447.447,0,1,1,.2-.871c.087.019,8.692,1.923,16.352-2.049a.447.447,0,0,1,.411.794A25.258,25.258,0,0,1,2487.3,1146.885Z" transform="translate(-0.336 -5.137)" fill="#fff"/>
    <path id="Trazado_2741" data-name="Trazado 2741" d="M2490.263,1160.269a50.9,50.9,0,0,1-8.334-.718.447.447,0,1,1,.161-.879c.128.024,12.743,2.279,18.525-1.514a.447.447,0,0,1,.491.748C2498.274,1159.763,2494.037,1160.269,2490.263,1160.269Z" transform="translate(-0.336 -9.001)" fill="#fff"/>
    <circle id="Elipse_95" data-name="Elipse 95" cx="1.192" cy="1.192" r="1.192" transform="translate(2482.036 1144.744)" fill="#fff"/>
    <circle id="Elipse_96" data-name="Elipse 96" cx="1.192" cy="1.192" r="1.192" transform="translate(2487.616 1144.669)" fill="#fff"/>
    <circle id="Elipse_97" data-name="Elipse 97" cx="1.192" cy="1.192" r="1.192" transform="translate(2492.892 1144.148)" fill="#fff"/>
    <circle id="Elipse_98" data-name="Elipse 98" cx="1.192" cy="1.192" r="1.192" transform="translate(2497.139 1142.955)" fill="#fff"/>
  </g>
</svg>
