<svg xmlns="http://www.w3.org/2000/svg" width="38.49" height="47.955" viewBox="0 0 38.49 47.955">
  <g id="Grupo_78065" data-name="Grupo 78065" transform="translate(-1754.617 -2070.535) rotate(25)">
    <path id="Trazado_2738" data-name="Trazado 2738" d="M2493.121,1137.983a.624.624,0,0,1-.435-.177c-.768-.749-7.47-7.416-6.228-10.782.4-1.085,1.481-1.693,3.214-1.807a4.519,4.519,0,0,1,4.345,1.756c2.335,3.356-.2,10.309-.312,10.6a.622.622,0,0,1-.447.391A.633.633,0,0,1,2493.121,1137.983Zm-2.926-11.538c-.142,0-.289.005-.442.015-1.2.08-1.912.414-2.126.995-.665,1.8,2.606,6.036,5.219,8.744.584-1.933,1.663-6.338.148-8.514A3.139,3.139,0,0,0,2490.2,1126.445Z" fill="#4d4d4f"/>
    <path id="Trazado_2739" data-name="Trazado 2739" d="M2494.078,1135.507l.748,4.153-3.759.519-.415-4.672Z" fill="#c0dd52"/>
    <ellipse id="Elipse_94" data-name="Elipse 94" cx="14.453" cy="14.543" rx="14.453" ry="14.543" transform="translate(2480.373 1138.313)" fill="#c0dd52"/>
    <path id="Trazado_2740" data-name="Trazado 2740" d="M2489.556,1148.257a36.255,36.255,0,0,1-7.509-.72.623.623,0,0,1,.278-1.214c.121.027,12.111,2.679,22.784-2.855a.623.623,0,0,1,.573,1.106A35.193,35.193,0,0,1,2489.556,1148.257Z" fill="#fff"/>
    <path id="Trazado_2741" data-name="Trazado 2741" d="M2493.685,1161.521a70.913,70.913,0,0,1-11.612-1,.623.623,0,1,1,.225-1.225c.178.033,17.755,3.176,25.812-2.109a.623.623,0,0,1,.684,1.042C2504.847,1160.817,2498.943,1161.521,2493.685,1161.521Z" fill="#fff"/>
    <circle id="Elipse_95" data-name="Elipse 95" cx="1.661" cy="1.661" r="1.661" transform="translate(2482.69 1152.431)" fill="#fff"/>
    <circle id="Elipse_96" data-name="Elipse 96" cx="1.661" cy="1.661" r="1.661" transform="translate(2490.465 1152.327)" fill="#fff"/>
    <circle id="Elipse_97" data-name="Elipse 97" cx="1.661" cy="1.661" r="1.661" transform="translate(2497.816 1151.6)" fill="#fff"/>
    <circle id="Elipse_98" data-name="Elipse 98" cx="1.661" cy="1.661" r="1.661" transform="translate(2503.734 1149.939)" fill="#fff"/>
  </g>
</svg>
