<svg xmlns="http://www.w3.org/2000/svg" width="402.734" height="57.637" viewBox="0 0 402.734 57.637">
  <g id="Grupo_77977" data-name="Grupo 77977" transform="translate(481.505 321.694) rotate(180)">
    <path id="Trazado_2669" data-name="Trazado 2669" d="M474.354,495.259c1.414-.087,2.837-.22,4.254-.261l3.965-.119c7.24-.215,14.477-.491,21.72-.575,7.575-.089,15.152-.237,22.729-.252,7.732-.015,15.462-.041,23.192-.011q22.6.092,45.2.142,22.448.045,44.9-.022c7.428-.031,14.857-.174,22.282-.288,7.292-.112,14.576-.3,21.865-.521,1.6-.049,3.2-.144,4.8-.217,1.581-.074,3.165-.133,4.744-.229q6.08-.372,12.152-.8c7.049-.514,14.077-1.2,21.136-1.625,7.4-.448,14.807-.7,22.21-1.067,3.342-.164,6.7-.369,10.019-.731,3.793-.411,7.553-.908,11.3-1.528,3.625-.6,7.247-1.215,10.876-1.8,1.74-.284,3.49-.541,5.248-.743,1.989-.229,3.961-.464,5.926-.8.945-.164,1.131-1.169,1.131-1.816a2.632,2.632,0,0,0-.218-1.071c-.14-.291-.43-.756-.912-.742-3.544.094-7.086.191-10.628.323q-5.361.2-10.731.255c-6.947.075-13.907-.116-20.848-.346l3.549-.382c4.248-.46,8.485-1.038,12.755-1.349,2.272-.166,4.552-.3,6.818-.517,1.149-.107,2.29-.23,3.425-.412,1.22-.2,2.423-.464,3.622-.733a1.144,1.144,0,0,0,.875-.458,2.523,2.523,0,0,0,.576-1.406c1.215-.3,1.46-1.726,1.46-2.586a3.741,3.741,0,0,0-.315-1.55,1.6,1.6,0,0,0-1.319-1.072c-3.688-.034-7.37-.232-11.059-.269-.433,0-.866-.006-1.3-.006-3.174,0-6.341.111-9.511.247q-10.592.455-21.178,1.075c-3.278.188-6.554.411-9.836.569-4.014.193-8.019.341-12.036.466-6.721.208-13.453.289-20.178.387-7.712.114-15.415.276-23.121.565-7.136.268-14.266.625-21.4.966q-10.74.51-21.482,1.022c-7.338.353-14.683.615-22.028.877-3.716.134-7.438.174-11.156.258-3.52.08-7.043.1-10.564.142-6.931.081-13.862.131-20.794.188q-20.975.17-41.942.48-11.521.154-23.04.33c-3.918.059-7.837.183-11.752.273-3.348.077-6.695.258-10.042.4q-5.344.219-10.687.471-3.177.147-6.358.3l-2.765.13c-.839.039-1.679.089-2.515.14-.6.036-1.185.1-1.775.185a15.262,15.262,0,0,0-1.932.491,1.894,1.894,0,0,0-.782.915,3.857,3.857,0,0,0,0,3.014l.344.552a1.237,1.237,0,0,0,.939.493c.728.165,1.447.329,2.2.429a1.23,1.23,0,0,0,.935-.49,2,2,0,0,0,.216-.283c.391-.009.784-.008,1.177-.008.375,0,.75,0,1.128-.009q1.271-.023,2.539-.048l6.54-.123c2.363-.046,4.724-.079,7.086-.112l-.732.049c-5.579.348-11.155.7-16.729,1.1a2.726,2.726,0,0,0-2.06,1.08,5.58,5.58,0,0,0-1.265,2.738q-1.47-.012-2.94-.022c-.687-.005-.823.952-.823,1.32s.136,1.312.823,1.318c.939.007,1.879.02,2.817.03a8.057,8.057,0,0,0,.635,2.44q.378.606.754,1.211a2.726,2.726,0,0,0,2.06,1.08C463.8,495.911,469.075,495.583,474.354,495.259Z" transform="translate(-333.286 -205.606)" fill="#ffd64f"/>
    <path id="Trazado_2670" data-name="Trazado 2670" d="M460.105,434a133.194,133.194,0,0,1,16.158-1.755c3.056-.189,6.105-.318,9.168-.427,4.387-.155,8.76-.271,13.152-.345,8.36-.14,16.724-.193,25.087-.214,16.759-.042,33.5-.117,50.245-.7,17.364-.6,34.727-1.163,52.088-1.782,16.462-.588,32.922-1.175,49.389-1.624,16.492-.451,32.972-.851,49.447-1.591,16.858-.756,33.732-1.162,50.615-1.492,8.009-.155,16.043-.355,24.014-.964q6.242-.479,12.464-1.056c4.066-.369,8.152-.613,12.233-.887a95.847,95.847,0,0,1,11.243.027,8.414,8.414,0,0,0,6.131-2.852q1.125-1.6,2.248-3.2a20.01,20.01,0,0,0,0-17.46q-1.123-1.6-2.248-3.2a8.414,8.414,0,0,0-6.131-2.852c-2.072.116-4.14.27-6.212.371-1.888.092-3.782.086-5.671.1-4.042.021-8.078.122-12.111.241-8.388.249-16.761.643-25.152.821-16.255.345-32.524.381-48.761,1.058-8.706.361-17.4.782-26.107,1.134-7.909.322-15.827.533-23.743.743q-25.272.665-50.519,1.622c-16.623.624-33.25,1.2-49.871,1.835q-13.783.522-27.571.965c-8.235.263-16.491.3-24.733.361-16.872.127-33.746.213-50.6.924-4.15.174-8.294.41-12.426.759-3.355.282-6.711.678-10.015,1.18-2.555.388-5.022,1-7.5,1.579a20.128,20.128,0,0,0-4.113,1.464,11.581,11.581,0,0,0-5.163,5.366,19.313,19.313,0,0,0-1.493,13.57,15.757,15.757,0,0,0,3.769,7.349q1.441,1.065,2.887,2.126a7.617,7.617,0,0,0,6.645,0A20.354,20.354,0,0,1,460.105,434Z" transform="translate(-364.286 -114.258)" fill="#ffd64f"/>
  </g>
</svg>
