<svg xmlns="http://www.w3.org/2000/svg" width="494.461" height="57.637" viewBox="0 0 494.461 57.637">
  <g id="Grupo_77976" data-name="Grupo 77976" transform="translate(-78.771 -264.057)">
    <path id="Trazado_2669" data-name="Trazado 2669" d="M481.882,495.259c1.878-.087,3.769-.22,5.652-.261l5.267-.119c9.617-.215,19.231-.491,28.854-.575,10.063-.089,20.129-.237,30.193-.252,10.271-.015,20.54-.041,30.81-.011q30.027.092,60.048.142,29.821.045,59.642-.022c9.867-.031,19.737-.174,29.6-.288q14.531-.168,29.046-.521c2.128-.049,4.252-.144,6.379-.217,2.1-.074,4.2-.133,6.3-.229q8.078-.372,16.143-.8c9.364-.514,18.7-1.2,28.077-1.625,9.824-.448,19.67-.7,29.5-1.067,4.439-.164,8.9-.369,13.31-.731,5.039-.411,10.033-.908,15.016-1.528,4.815-.6,9.627-1.215,14.448-1.8,2.312-.284,4.636-.541,6.971-.743,2.643-.229,5.263-.464,7.872-.8a1.672,1.672,0,0,0,1.5-1.816,2.086,2.086,0,0,0-.29-1.071,1.429,1.429,0,0,0-1.212-.742c-4.708.094-9.414.191-14.118.323q-7.121.2-14.255.255c-9.228.075-18.475-.116-27.695-.346l4.714-.382c5.643-.46,11.272-1.038,16.945-1.349,3.019-.166,6.047-.3,9.058-.517,1.527-.107,3.042-.23,4.55-.412,1.621-.2,3.219-.464,4.812-.733a1.708,1.708,0,0,0,1.162-.458,2.239,2.239,0,0,0,.765-1.406,2.42,2.42,0,0,0,1.939-2.586,2.966,2.966,0,0,0-.419-1.55,2.078,2.078,0,0,0-1.752-1.072c-4.9-.034-9.791-.232-14.691-.269-.575,0-1.151-.006-1.725-.006-4.216,0-8.423.111-12.635.247q-14.071.455-28.134,1.075c-4.355.188-8.707.411-13.067.569-5.332.193-10.652.341-15.989.466-8.929.208-17.872.289-26.806.387-10.245.114-20.478.276-30.715.565-9.48.268-18.952.625-28.425.966q-14.267.51-28.538,1.022c-9.748.353-19.5.615-29.263.877-4.936.134-9.881.174-14.82.258-4.676.08-9.356.1-14.034.142q-13.81.121-27.624.188-27.864.17-55.717.48-15.305.154-30.608.33c-5.2.059-10.411.183-15.612.273-4.448.077-8.894.258-13.34.4q-7.1.219-14.2.471-4.22.147-8.447.3l-3.673.13c-1.114.039-2.23.089-3.342.14-.795.036-1.575.1-2.358.185a25.866,25.866,0,0,0-2.567.491,2.159,2.159,0,0,0-1.038.915,2.992,2.992,0,0,0,0,3.014l.457.552a1.845,1.845,0,0,0,1.247.493c.967.165,1.922.329,2.916.429a1.837,1.837,0,0,0,1.242-.49,2.179,2.179,0,0,0,.286-.283c.52-.009,1.042-.008,1.563-.008.5,0,1,0,1.5-.009q1.689-.023,3.373-.048l8.688-.123q4.709-.069,9.414-.112l-.972.049c-7.412.348-14.819.7-22.224,1.1a4.071,4.071,0,0,0-2.737,1.08,5.1,5.1,0,0,0-1.681,2.738q-1.952-.012-3.906-.022c-.912-.005-1.093.952-1.093,1.32s.18,1.312,1.093,1.318c1.247.007,2.5.02,3.742.03a6.533,6.533,0,0,0,.843,2.44q.5.606,1,1.211a4.071,4.071,0,0,0,2.737,1.08C467.858,495.911,474.869,495.583,481.882,495.259Z" transform="translate(-333.286 -205.606)" fill="#ffd64f"/>
    <path id="Trazado_2670" data-name="Trazado 2670" d="M462.823,434a178.2,178.2,0,0,1,18.734-1.755c3.543-.189,7.079-.318,10.629-.427,5.087-.155,10.157-.271,15.249-.345,9.693-.14,19.391-.193,29.087-.214,19.431-.042,38.841-.117,58.255-.7,20.132-.6,40.263-1.163,60.392-1.782,19.086-.588,38.17-1.175,57.263-1.624,19.122-.451,38.229-.851,57.33-1.591,19.545-.756,39.11-1.162,58.685-1.492,9.286-.155,18.6-.355,27.842-.964q7.237-.479,14.451-1.056c4.714-.369,9.452-.613,14.183-.887a128.815,128.815,0,0,1,13.035.027q4.679-.32,7.108-2.852,1.3-1.6,2.606-3.2a17.557,17.557,0,0,0,0-17.46q-1.3-1.6-2.606-3.2-2.429-2.533-7.108-2.852c-2.4.116-4.8.27-7.2.371-2.189.092-4.385.086-6.575.1-4.686.021-9.365.122-14.042.241-9.725.249-19.433.643-29.162.821-18.846.345-37.709.381-56.535,1.058-10.094.361-20.176.782-30.269,1.134-9.17.322-18.35.533-27.528.743q-29.3.665-58.572,1.622-28.91.936-57.822,1.835-15.981.522-31.966.965c-9.548.263-19.12.3-28.676.361-19.562.127-39.126.213-58.662.924-4.811.174-9.616.41-14.407.759-3.889.282-7.781.678-11.612,1.18-2.963.388-5.823,1-8.7,1.579a25.876,25.876,0,0,0-4.769,1.464,12.529,12.529,0,0,0-5.986,5.366,16.938,16.938,0,0,0-1.731,13.57,15.1,15.1,0,0,0,4.37,7.349q1.671,1.065,3.347,2.126a10.108,10.108,0,0,0,7.7,0A26.051,26.051,0,0,1,462.823,434Z" transform="translate(-364.286 -114.258)" fill="#ffd64f"/>
  </g>
</svg>
