<svg xmlns="http://www.w3.org/2000/svg" width="63.055" height="69.001" viewBox="0 0 63.055 69.001">
  <g id="Grupo_78104" data-name="Grupo 78104" transform="translate(-2514.427 -1054.681)">
    <path id="Trazado_2725" data-name="Trazado 2725" d="M2561.095,1108.8c-.118-2.474-12.608-11.405-16.989-10.6s4.05,9.011-.995,6.854c-3.343-1.429-7.292-6.856-12.3-6.411-6.2.55,4.425,8.577-4.291,6.2-3.649-1-14.389,1.364-11.654,5.269s15.943,2.066,13.834,4.294c-3.719,3.928,3.5,10.5,13.826,2.041,5.978-4.9-4.747,6.2,2.577,5.621S2561.363,1114.383,2561.095,1108.8Z" fill="#94a04e"/>
    <path id="Trazado_2726" data-name="Trazado 2726" d="M2563.587,1101.187c2.455-.324,10.316-13.514,9.15-17.812s-8.644,4.786-6.914-.421c1.146-3.451,6.225-7.838,5.366-12.79-1.065-6.132-8.18,5.124-6.534-3.76.689-3.719-2.557-14.225-6.221-11.175s-.732,16.06-3.128,14.143c-4.224-3.379-10.169,4.361-.883,13.949,5.376,5.55-6.571-4.215-5.387,3.036S2558.046,1101.919,2563.587,1101.187Z" fill="#94a04e"/>
    <circle id="Elipse_80" data-name="Elipse 80" cx="7.411" cy="7.411" r="7.411" transform="translate(2550.476 1096.385)" fill="#e52441"/>
    <circle id="Elipse_81" data-name="Elipse 81" cx="7.411" cy="7.411" r="7.411" transform="translate(2554.485 1108.859)" fill="#e52441"/>
    <circle id="Elipse_82" data-name="Elipse 82" cx="7.411" cy="7.411" r="7.411" transform="translate(2562.66 1098.35)" fill="#e52441"/>
    <path id="Trazado_2727" data-name="Trazado 2727" d="M2554.576,1101.756a.66.66,0,0,1-.077,0,.623.623,0,0,1-.541-.695,3.58,3.58,0,0,1,1.729-2.545c1.339-.728,3.19-.529,5.5.592a.623.623,0,1,1-.543,1.122c-1.906-.923-3.416-1.138-4.365-.62a2.345,2.345,0,0,0-1.089,1.6A.623.623,0,0,1,2554.576,1101.756Z" fill="#fff"/>
    <path id="Trazado_2728" data-name="Trazado 2728" d="M2556.6,1115.763a.561.561,0,0,1-.081-.006.621.621,0,0,1-.538-.692,3.588,3.588,0,0,1,1.73-2.545c1.337-.728,3.188-.528,5.5.593a.623.623,0,1,1-.542,1.121c-1.9-.918-3.4-1.134-4.354-.626a2.352,2.352,0,0,0-1.1,1.614A.626.626,0,0,1,2556.6,1115.763Z" fill="#fff"/>
    <path id="Trazado_2729" data-name="Trazado 2729" d="M2566.2,1104.888a.752.752,0,0,1-.081,0,.622.622,0,0,1-.538-.692,3.581,3.581,0,0,1,1.729-2.546c1.339-.728,3.189-.529,5.5.593a.623.623,0,1,1-.543,1.121c-1.9-.918-3.4-1.135-4.353-.626a2.354,2.354,0,0,0-1.1,1.614A.625.625,0,0,1,2566.2,1104.888Z" fill="#fff"/>
    <path id="Trazado_2730" data-name="Trazado 2730" d="M2543.5,1112.2c-3.52,0-7.559-.279-9.79-1.385a.623.623,0,0,1,.553-1.117c4.109,2.037,15.667.98,15.783.968a.623.623,0,0,1,.116,1.241C2549.919,1111.933,2546.96,1112.2,2543.5,1112.2Z" fill="#fff"/>
    <path id="Trazado_2731" data-name="Trazado 2731" d="M2562.787,1095.794a.622.622,0,0,1-.6-.466c-.139-.532-3.372-13.117-1.981-19.291a.623.623,0,1,1,1.215.274c-1.324,5.879,1.939,18.576,1.972,18.7a.622.622,0,0,1-.447.759A.607.607,0,0,1,2562.787,1095.794Z" fill="#fff"/>
  </g>
</svg>
