<svg xmlns="http://www.w3.org/2000/svg" width="48.856" height="59.751" viewBox="0 0 48.856 59.751">
  <g id="Grupo_78071" data-name="Grupo 78071" transform="translate(-2999.76 -1128.853)">
    <g id="Grupo_78070" data-name="Grupo 78070" transform="translate(2999.76 1128.853)">
      <path id="Trazado_2832" data-name="Trazado 2832" d="M3043.019,1148.3s-17.368-17.139-24.363-13.872c-8.747,4.087-15.244,25.617-18.573,32.507-3.806,7.877,27.044,24.089,33.864,21.078s-3.6-19.844-3.6-19.844Z" transform="translate(-2999.76 -1128.631)" fill="#e52441"/>
      <path id="Trazado_2833" data-name="Trazado 2833" d="M3046.424,1144.923s-22.09-20.281-29.886-15.275-4.548,10.008,0,13.9,22.04,14.494,25.963,11.141S3050.458,1148.4,3046.424,1144.923Z" transform="translate(-2999.242 -1128.853)" fill="#fff"/>
    </g>
    <path id="Trazado_2834" data-name="Trazado 2834" d="M3006.529,1176.914a.636.636,0,0,1-.2-.033.65.65,0,0,1-.413-.821c3.008-9.1-3.683-15.962-3.751-16.031a.649.649,0,1,1,.92-.916c.074.074,7.321,7.509,4.065,17.354A.651.651,0,0,1,3006.529,1176.914Z" transform="translate(0.095 1.29)" fill="#fff"/>
    <path id="Trazado_2835" data-name="Trazado 2835" d="M3021.691,1185.153c-.021,0-.043,0-.065,0a.651.651,0,0,1-.583-.71c.5-5.122,2.168-8.635,4.954-10.445a9.124,9.124,0,0,1,7.335-.946.65.65,0,0,1-.409,1.234h0a7.937,7.937,0,0,0-6.231.811c-2.429,1.586-3.894,4.773-4.355,9.474A.65.65,0,0,1,3021.691,1185.153Z" transform="translate(0.913 1.88)" fill="#fff"/>
    <path id="Trazado_2836" data-name="Trazado 2836" d="M3036.729,1157.795a.658.658,0,0,1-.134-.014c-.158-.032-15.978-3.408-27.756-12.644a.65.65,0,1,1,.8-1.023c11.533,9.044,27.065,12.363,27.22,12.4a.649.649,0,0,1-.132,1.285Z" transform="translate(0.379 0.649)" fill="#fff"/>
    <path id="Trazado_2837" data-name="Trazado 2837" d="M3032.057,1165.043a.654.654,0,0,1-.148-.017c-.83-.194-20.385-4.846-26.663-12.7a.65.65,0,1,1,1.015-.811c6,7.5,25.745,12.2,25.943,12.244a.649.649,0,0,1-.147,1.282Z" transform="translate(0.229 0.962)" fill="#fff"/>
    <path id="Trazado_2838" data-name="Trazado 2838" d="M3030.75,1162.681a.649.649,0,0,1-.65-.65V1159.4l-3.532,1.961a.65.65,0,0,1-.952-.44l-.6-2.972-3.607,1.9a.65.65,0,0,1-.945-.472l-.64-3.991-3.895,1.354a.65.65,0,0,1-.863-.613v-3.3l-4.383.726a.65.65,0,0,1-.749-.742l.516-3.3-3.389.262a.643.643,0,0,1-.7-.6.65.65,0,0,1,.6-.7l4.208-.324a.643.643,0,0,1,.527.206.651.651,0,0,1,.165.541l-.5,3.224,4.254-.7a.657.657,0,0,1,.525.146.648.648,0,0,1,.23.5v3.149l3.764-1.309a.65.65,0,0,1,.854.511l.62,3.863,3.575-1.88a.643.643,0,0,1,.581-.011.65.65,0,0,1,.359.458l.6,2.953,3.72-2.065a.651.651,0,0,1,.966.568v2.7l3.184-1.544a.65.65,0,0,1,.567,1.169l-4.117,2A.668.668,0,0,1,3030.75,1162.681Z" transform="translate(0.283 0.828)" fill="#fff"/>
  </g>
</svg>
