<svg xmlns="http://www.w3.org/2000/svg" width="481.255" height="30.295" viewBox="0 0 481.255 30.295">
  <path id="Trazado_2695" data-name="Trazado 2695" d="M528.572,223.137c-1.727.105-3.46.189-5.184.329l-7.149.58a102.92,102.92,0,0,0-11.719,1.628,63.475,63.475,0,0,0-11.852,3.616c-.747.31-1.488.648-2.26.923l-2.494.886c-1.18.376-2.364.731-3.581,1.03a36.69,36.69,0,0,1-4.306.77c-1.269.1-2.53.157-3.806.162a35.56,35.56,0,0,1-3.609-.192c-1.641-.209-3.248-.487-4.846-.852-1.677-.385-3.313-.9-4.925-1.427a80.141,80.141,0,0,1-8.016-3.3q-1.83-.869-3.62-1.786c-1.436-.745-2.854-1.493-4.34-2.175a27.426,27.426,0,0,0-3.521-1.406,21.787,21.787,0,0,0-2.431-.58,18.41,18.41,0,0,0-2.541-.224,12.215,12.215,0,0,0-1.517.117,19.292,19.292,0,0,0-2.156.387,21.378,21.378,0,0,0-3.188,1.169q-3.125,1.3-6.245,2.6c-2.632,1.1-5.29,2.183-8.016,3.132-1.664.527-3.349.994-5.067,1.4a63.06,63.06,0,0,1-6.893,1.161c-2.24.218-4.477.355-6.737.375a69.832,69.832,0,0,1-7.624-.449c-3.2-.362-6.359-.87-9.5-1.471a72.417,72.417,0,0,1-8.516-2.135q-4.129-1.431-8.075-3.159a72.147,72.147,0,0,0-9.274-3.415,34.483,34.483,0,0,0-3.919-.808,27.5,27.5,0,0,0-4.646-.326,27,27,0,0,0-4.655.561,25.448,25.448,0,0,0-4.473,1.4,66.425,66.425,0,0,0-9.6,5.128c-1.853,1.1-3.653,2.257-5.468,3.39-1.52.923-3.034,1.849-4.633,2.687a39.561,39.561,0,0,1-5.25,2.266c-.847.271-1.7.516-2.573.735a27.093,27.093,0,0,1-3.5.6c-.466.038-.934.058-1.4.063-.337,0-.671-.006-1.006-.03a22.642,22.642,0,0,1-2.771-.641,62.5,62.5,0,0,1-9.2-4.522c-1.387-.872-2.728-1.777-4.023-2.733q-1.36-1-2.717-2a83.93,83.93,0,0,0-7.048-5.235,23,23,0,0,0-3.386-1.666,15.557,15.557,0,0,0-2.111-.614c-.239-.038-.475-.077-.711-.117-.5-.054-.991-.105-1.492-.159-.241-.01-.482-.023-.723-.036q-.135,0-.27,0a9.945,9.945,0,0,0-1.332.091,18.989,18.989,0,0,0-2.532.444,47.558,47.558,0,0,0-4.783,1.464c-1.279.441-2.537.92-3.8,1.387-.891.33-1.8.642-2.659,1.017q-2.038.887-4.072,1.769c-.682.3-1.378.575-2.039.9q-1.838.921-3.68,1.839c-.925.461-1.868.906-2.776,1.387l-6.834,3.623a107.19,107.19,0,0,1-15.338,7.037c-1.2.386-2.415.748-3.649,1.07a36.881,36.881,0,0,1-4.684.855c-.671.061-1.339.107-2.019.14a23.771,23.771,0,0,1-2.971-.09,27.41,27.41,0,0,1-4.144-.864,29.783,29.783,0,0,1-4.162-1.957,59.319,59.319,0,0,1-5.77-4.369c-.912-.76-1.835-1.511-2.755-2.266-1.1-.906-2.3-1.736-3.509-2.549a17.452,17.452,0,0,0-3.217-1.7,21.5,21.5,0,0,0-2.082-.669,11.743,11.743,0,0,0-2.184-.271q-.713.032-1.416.125a10.709,10.709,0,0,0-1.951.543,7.4,7.4,0,0,0-1.742.914c-.52.395-1.013.8-1.5,1.223-.927.8-1.749,1.692-2.607,2.538-.678.667-1.35,1.339-2.028,2.01-.786.779-1.61,1.537-2.413,2.306a34.754,34.754,0,0,1-5.324,4.134,31.212,31.212,0,0,1-4.756,2.222,30.724,30.724,0,0,1-4.7.988,39.268,39.268,0,0,1-6.823-.051,57.415,57.415,0,0,1-10.445-2.42,92.777,92.777,0,0,1-8.9-3.677c-1.488-.7-2.922-1.467-4.351-2.236s-2.879-1.547-4.3-2.339-2.857-1.611-4.349-2.347a48.436,48.436,0,0,0-4.73-2.029,26.961,26.961,0,0,0-9.587-1.775,19.412,19.412,0,0,0-2.319.2c-.81.11-1.592.239-2.388.413a18.887,18.887,0,0,0-2.066.62c-.734.249-1.463.507-2.193.768a66.6,66.6,0,0,0-9.142,4.049,42.835,42.835,0,0,0-7.133,4.815,34.316,34.316,0,0,0-2.814,2.6,4.944,4.944,0,0,0-.968,1.39l-.259.6c-.1.427-.207.852-.309,1.279a1.419,1.419,0,0,0,.515,1.541,2.388,2.388,0,0,0,1.947.407c.48-.107.959-.216,1.439-.326a13.175,13.175,0,0,0,1.943-.654,1.421,1.421,0,0,0,.716-2.162,1.916,1.916,0,0,0-1.189-.714,38.663,38.663,0,0,1,5.794-4.361A58.208,58.208,0,0,1,89.506,232.7c.869-.286,1.742-.568,2.622-.837a20.042,20.042,0,0,1,3.39-.678,23.916,23.916,0,0,1,3.048-.03c.678.088,1.34.2,2.017.339a27.451,27.451,0,0,1,2.874.8,47.16,47.16,0,0,1,5.261,2.329c1.981.988,3.809,2.165,5.711,3.246,1.877,1.067,3.761,2.131,5.677,3.15,1.9,1.013,3.885,1.931,5.882,2.814a69.368,69.368,0,0,0,12.282,4.109,40.436,40.436,0,0,0,13.59.913,28.671,28.671,0,0,0,6.15-1.337,30.37,30.37,0,0,0,5.378-2.461,33.906,33.906,0,0,0,5.029-3.585c.817-.7,1.573-1.431,2.328-2.17,1.1-1.07,2.177-2.152,3.248-3.241a46.853,46.853,0,0,1,4.133-3.949c.113-.056.229-.107.347-.152.164-.046.329-.084.5-.117.054,0,.108,0,.164,0a8.507,8.507,0,0,1,.889.2,16.646,16.646,0,0,1,2.093.933,53.18,53.18,0,0,1,5.285,3.952c2.141,1.766,4.263,3.535,6.622,5.127a30.356,30.356,0,0,0,3.242,1.85,27.108,27.108,0,0,0,4.2,1.624,23.547,23.547,0,0,0,4.151.795,29.55,29.55,0,0,0,5.02.167c1.4-.066,2.8-.261,4.169-.463a38.293,38.293,0,0,0,4.874-1.105,68.459,68.459,0,0,0,8.631-3.14c4.066-1.769,7.894-3.845,11.737-5.895,1.835-.981,3.653-2,5.52-2.935l6.418-3.227c.246-.122.516-.225.77-.338q1.1-.479,2.193-.958,1.671-.731,3.343-1.463c.22-.1.457-.174.686-.258.783-.295,1.567-.585,2.35-.88,1.315-.49,2.627-.974,3.959-1.433a35.468,35.468,0,0,1,4.113-1.028c.284-.019.569-.024.855-.017.238,0,.475.016.713.033a16.13,16.13,0,0,1,1.718.376,22.481,22.481,0,0,1,2.769,1.356c2.686,1.78,5.053,3.852,7.617,5.744,1.6,1.186,3.21,2.347,4.916,3.444,1.542.991,3.152,1.913,4.8,2.787,1.753.929,3.622,1.712,5.484,2.492a18.489,18.489,0,0,0,5.47,1.369,19.785,19.785,0,0,0,2.533.065,29.731,29.731,0,0,0,3.251-.362,31.029,31.029,0,0,0,5.265-1.324,43.013,43.013,0,0,0,5.535-2.29,75.074,75.074,0,0,0,6.985-4.12l4.023-2.546,3.194-1.933a43.081,43.081,0,0,1,7.318-3.583,25.889,25.889,0,0,1,3.964-.842c.657-.053,1.308-.085,1.974-.094a15.239,15.239,0,0,1,1.747.094,36.911,36.911,0,0,1,6.058,1.339c1.7.591,3.376,1.226,5.017,1.914,1.022.427,2.021.893,3.032,1.337.988.434,2.008.826,3.025,1.221,1.952.762,3.93,1.47,5.95,2.113a67,67,0,0,0,6.523,1.628,120.413,120.413,0,0,0,14.026,2.058,64.659,64.659,0,0,0,7.2.241c2.377-.05,4.745-.292,7.095-.555a59.57,59.57,0,0,0,12.28-2.739c2.515-.845,4.941-1.814,7.379-2.791,2.915-1.166,5.79-2.423,8.759-3.509.6-.161,1.184-.282,1.807-.387a9.14,9.14,0,0,1,1.081,0,18.885,18.885,0,0,1,2.507.553,69.719,69.719,0,0,1,7.514,3.72,83.551,83.551,0,0,0,7.958,3.731,78.1,78.1,0,0,0,8.487,2.851A45.248,45.248,0,0,0,475.4,238.2a40.786,40.786,0,0,0,9.065-.739,45.594,45.594,0,0,0,7.318-2.126c1.017-.372,2.031-.733,3.016-1.155q.958-.406,1.913-.815c.955-.407,1.965-.756,2.967-1.094a78.83,78.83,0,0,1,15.078-2.942c2.784-.281,5.587-.434,8.38-.642,2.422-.179,4.856-.269,7.282-.4,4.919-.256,9.864-.5,14.8-.49,1.891,0,3.466-1.25,3.466-2.742s-1.574-2.769-3.466-2.743c-3.746.05-7.487.278-11.222.494Q531.283,222.972,528.572,223.137Zm-91.213,2.773.29-.03h0Z" transform="translate(-67.428 -218.776)" fill="#e52441"/>
</svg>
