<svg xmlns="http://www.w3.org/2000/svg" width="533.612" height="63.431" viewBox="0 0 533.612 63.431">
  <path id="Trazado_2696" data-name="Trazado 2696" d="M487.078,521.716c2.2-.177,4.412-.447,6.616-.531q3.085-.119,6.166-.242c11.259-.437,22.513-1,33.778-1.169,11.78-.181,23.564-.482,35.346-.512,12.024-.031,24.045-.083,36.067-.023q35.152.186,70.3.289,34.91.091,69.82-.045c11.551-.063,23.1-.354,34.652-.586,11.34-.228,22.669-.612,34-1.06,2.491-.1,4.978-.293,7.467-.441,2.458-.151,4.922-.271,7.378-.466q9.456-.757,18.9-1.637c10.962-1.045,21.891-2.436,32.869-3.3,11.5-.911,23.027-1.43,34.54-2.17,5.2-.333,10.421-.75,15.582-1.487,5.9-.836,11.745-1.847,17.578-3.107,5.637-1.218,11.27-2.471,16.913-3.669,2.706-.578,5.427-1.1,8.161-1.511,3.094-.466,6.161-.944,9.216-1.633,1.469-.334,1.758-2.377,1.758-3.693a6.793,6.793,0,0,0-.339-2.178c-.217-.592-.669-1.537-1.419-1.509-5.511.191-11.02.388-16.527.657q-8.336.406-16.688.519c-10.8.153-21.628-.236-32.421-.7q2.76-.391,5.519-.777c6.607-.935,13.2-2.111,19.836-2.743,3.534-.338,7.08-.618,10.6-1.051,1.788-.218,3.561-.468,5.327-.838,1.9-.4,3.768-.944,5.633-1.491a1.708,1.708,0,0,0,1.361-.931,6.061,6.061,0,0,0,.9-2.859c1.89-.6,2.27-3.51,2.27-5.259a9.659,9.659,0,0,0-.49-3.152c-.328-.9-.954-2.168-2.051-2.18-5.736-.069-11.462-.472-17.2-.547-.673-.008-1.347-.012-2.02-.012-4.935,0-9.861.226-14.791.5q-16.472.924-32.935,2.186c-5.1.382-10.193.836-15.3,1.157-6.242.392-12.47.693-18.718.948-10.452.423-20.922.588-31.38.787-11.993.232-23.973.561-35.957,1.149-11.1.545-22.186,1.271-33.276,1.964q-16.7,1.037-33.407,2.078c-11.412.718-22.834,1.251-34.257,1.784-5.779.272-11.567.354-17.349.525-5.474.163-10.952.205-16.428.289-10.778.165-21.558.266-32.338.382-21.746.23-43.482.6-65.226.976q-17.917.314-35.831.671c-6.093.12-12.187.372-18.276.555-5.207.157-10.412.525-15.616.8q-8.31.445-16.62.958-4.94.3-9.888.6c-1.431.089-2.865.175-4.3.264-1.3.079-2.611.181-3.912.285-.931.073-1.844.213-2.76.376a19.347,19.347,0,0,0-3,1,3.764,3.764,0,0,0-1.215,1.861,10.087,10.087,0,0,0,0,6.129l.535,1.123a1.849,1.849,0,0,0,1.46,1,30.522,30.522,0,0,0,3.414.872,1.838,1.838,0,0,0,1.454-1,4.15,4.15,0,0,0,.335-.575c.609-.018,1.219-.016,1.83-.016.584,0,1.167,0,1.754-.018q1.977-.046,3.949-.1,5.086-.125,10.171-.25c3.675-.094,7.347-.161,11.02-.228q-.57.052-1.138.1c-8.677.708-17.347,1.417-26.016,2.227a4.073,4.073,0,0,0-3.2,2.2,13.156,13.156,0,0,0-1.968,5.568q-2.286-.024-4.573-.045c-1.068-.01-1.279,1.936-1.279,2.684s.211,2.668,1.279,2.68c1.46.014,2.921.041,4.381.061a20.539,20.539,0,0,0,.987,4.962q.587,1.232,1.173,2.463a4.074,4.074,0,0,0,3.2,2.2C470.661,523.042,478.868,522.375,487.078,521.716Z" transform="matrix(1, 0.017, -0.017, 1, -442.223, -477.47)" fill="#b6d5d4"/>
</svg>
