<svg xmlns="http://www.w3.org/2000/svg" width="309.447" height="82.487" viewBox="0 0 309.447 82.487">
  <g id="Grupo_78103" data-name="Grupo 78103" transform="translate(347.838 7534.822) rotate(180)">
    <path id="Trazado_2207" data-name="Trazado 2207" d="M20.616,41.653c1.271-.142,2.552-.358,3.826-.425,1.19-.063,2.379-.13,3.566-.194,6.512-.35,13.021-.8,19.536-.936,6.813-.145,13.629-.386,20.443-.41,6.955-.024,13.907-.067,20.86-.018q20.33.149,40.656.231,20.191.073,40.382-.036c6.681-.05,13.363-.283,20.042-.469,6.559-.182,13.111-.49,19.666-.848,1.441-.08,2.879-.234,4.319-.353,1.422-.12,2.847-.216,4.267-.373,3.646-.4,7.287-.832,10.93-1.31,6.34-.836,12.661-1.95,19.01-2.644,6.652-.729,13.318-1.144,19.977-1.736a85.541,85.541,0,0,0,9.012-1.19c3.412-.669,6.793-1.478,10.166-2.487,3.26-.975,6.518-1.977,9.782-2.936,1.565-.462,3.139-.88,4.72-1.209,1.789-.373,3.563-.755,5.33-1.307.85-.267,1.017-1.9,1.017-2.955a7.373,7.373,0,0,0-.2-1.743c-.126-.473-.387-1.23-.821-1.207-3.187.153-6.374.311-9.559.526q-4.822.325-9.652.415c-6.248.122-12.509-.189-18.751-.563,1.064-.208,2.128-.413,3.192-.622,3.821-.749,7.632-1.689,11.473-2.2,2.044-.27,4.094-.495,6.133-.841a27.226,27.226,0,0,0,3.081-.67,34,34,0,0,0,3.258-1.193,1.05,1.05,0,0,0,.787-.745,6.242,6.242,0,0,0,.518-2.288c1.093-.483,1.313-2.809,1.313-4.208a10.472,10.472,0,0,0-.284-2.522c-.189-.718-.552-1.735-1.186-1.745C294.111.392,290.8.07,287.481.01Q286.9,0,286.313,0c-2.854,0-5.7.181-8.554.4q-9.527.74-19.048,1.749c-2.949.306-5.9.669-8.847.926-3.61.314-7.212.555-10.826.758-6.045.338-12.1.47-18.149.63-6.936.186-13.865.449-20.8.919-6.419.436-12.832,1.017-19.246,1.572q-9.66.83-19.322,1.663c-6.6.574-13.206,1-19.813,1.427-3.342.218-6.69.283-10.034.42-3.166.13-6.334.164-9.5.231-6.234.132-12.468.213-18.7.306-12.577.184-25.148.48-37.724.781q-10.363.251-20.723.537c-3.524.1-7.049.3-10.57.444-3.011.125-6.022.42-9.032.643-3.2.238-6.408.5-9.613.766q-2.857.239-5.719.483c-.827.072-1.657.14-2.487.212-.755.064-1.51.145-2.263.228a12.247,12.247,0,0,0-1.6.3,9.216,9.216,0,0,0-1.738.8,3.278,3.278,0,0,0-.7,1.489,11.044,11.044,0,0,0,0,4.9l.309.9a1.137,1.137,0,0,0,.844.8,13.83,13.83,0,0,0,1.974.7,1.13,1.13,0,0,0,.841-.8,3.775,3.775,0,0,0,.194-.461c.352-.015.705-.013,1.058-.013.337,0,.675,0,1.015-.015q1.144-.037,2.284-.078,2.941-.1,5.883-.2c2.126-.075,4.249-.128,6.374-.182-.22.028-.439.054-.658.08-5.018.566-10.033,1.134-15.047,1.782a2.5,2.5,0,0,0-1.853,1.758A13.34,13.34,0,0,0,3.385,31.32Q2.063,31.3.74,31.284C.122,31.276,0,32.833,0,33.432s.122,2.135.74,2.145c.844.011,1.69.033,2.534.049A22.083,22.083,0,0,0,3.844,39.6q.34.986.678,1.971a2.5,2.5,0,0,0,1.853,1.758C11.121,42.714,15.868,42.18,20.616,41.653Z" transform="matrix(-0.999, -0.035, 0.035, -0.999, 346.326, 7506.386)" fill="#b6d5d4"/>
    <g id="Grupo_78102" data-name="Grupo 78102" transform="matrix(0.999, 0.035, -0.035, 0.999, -1922.018, 7097.24)">
      <path id="Trazado_2206" data-name="Trazado 2206" d="M465.006,511.316c.837-.142,1.68-.358,2.519-.425.783-.063,1.566-.13,2.348-.194,4.287-.35,8.572-.8,12.862-.936,4.486-.145,8.973-.386,13.459-.41,4.579-.024,9.156-.067,13.733-.018q13.385.149,26.766.231c8.862.049,17.724.059,26.585-.036,4.4-.05,8.8-.283,13.195-.469,4.318-.182,8.632-.49,12.948-.848.948-.08,1.9-.234,2.843-.353s1.874-.216,2.809-.373c2.4-.4,4.8-.832,7.2-1.31,4.174-.837,8.336-1.95,12.516-2.644,4.379-.729,8.768-1.144,13.152-1.736a38.356,38.356,0,0,0,5.933-1.19,51.946,51.946,0,0,0,6.693-2.487c2.146-.975,4.291-1.977,6.44-2.936a28.926,28.926,0,0,1,3.107-1.209,27.052,27.052,0,0,0,3.509-1.307c.559-.267.67-1.9.67-2.955a11.068,11.068,0,0,0-.129-1.743c-.083-.474-.255-1.23-.54-1.208-2.1.153-4.2.311-6.293.526q-3.174.325-6.354.415a102.739,102.739,0,0,1-12.345-.563c.7-.208,1.4-.413,2.1-.622,2.516-.749,5.024-1.689,7.553-2.2,1.345-.27,2.7-.495,4.038-.841a12.88,12.88,0,0,0,2.028-.67,18.3,18.3,0,0,0,2.145-1.193q.342-.081.518-.745a9.037,9.037,0,0,0,.341-2.288c.72-.483.864-2.809.864-4.208a15.7,15.7,0,0,0-.187-2.522c-.125-.718-.363-1.735-.781-1.745-2.184-.055-4.365-.378-6.549-.438-.256-.006-.513-.01-.769-.01a48.135,48.135,0,0,0-5.632.4q-6.272.74-12.541,1.749c-1.941.306-3.881.669-5.824.926-2.377.314-4.748.555-7.127.758-3.98.338-7.967.47-11.949.63-4.567.186-9.128.449-13.691.919-4.226.436-8.448,1.017-12.671,1.572q-6.36.83-12.721,1.663c-4.345.574-8.694,1-13.044,1.427-2.2.218-4.4.283-6.606.42-2.084.13-4.17.164-6.255.231-4.1.132-8.209.213-12.313.306-8.28.184-16.557.48-24.836.781q-6.823.251-13.643.537c-2.32.1-4.641.3-6.959.444-1.983.125-3.965.42-5.946.643-2.109.238-4.219.5-6.329.766-1.254.159-2.509.324-3.765.483-.545.072-1.091.14-1.637.212-.5.064-.994.145-1.49.228a5.676,5.676,0,0,0-1.051.3,5.436,5.436,0,0,0-1.144.8,4.184,4.184,0,0,0-.463,1.489,16.662,16.662,0,0,0,0,4.9l.2.9c.126.475.312.742.556.8a7.359,7.359,0,0,0,1.3.7q.363-.088.554-.8c.048-.143.09-.3.128-.461.232-.015.464-.013.7-.013s.444,0,.668-.015q.753-.037,1.5-.078,1.937-.1,3.873-.2c1.4-.075,2.8-.128,4.2-.182l-.433.08c-3.3.566-6.605,1.134-9.906,1.782q-.8.2-1.22,1.757a19.118,19.118,0,0,0-.749,4.456c-.58-.013-1.161-.026-1.741-.036-.407-.008-.487,1.549-.487,2.148s.081,2.135.487,2.145c.556.011,1.112.033,1.668.049a32.932,32.932,0,0,0,.376,3.971q.223.986.446,1.971.42,1.56,1.22,1.758C458.754,512.377,461.88,511.843,465.006,511.316Z" transform="translate(1568.567 -157.663)" fill="#b6d5d4"/>
      <path id="Trazado_2207-2" data-name="Trazado 2207" d="M13.573,41.653c.837-.142,1.68-.358,2.519-.425.783-.063,1.566-.13,2.348-.194,4.287-.35,8.572-.8,12.862-.936,4.486-.145,8.973-.386,13.459-.41,4.579-.024,9.156-.067,13.733-.018q13.385.149,26.766.231c8.862.049,17.724.059,26.586-.036,4.4-.05,8.8-.283,13.195-.469,4.318-.182,8.632-.49,12.947-.848.949-.08,1.9-.234,2.843-.353s1.874-.216,2.809-.373c2.4-.4,4.8-.832,7.2-1.31,4.174-.836,8.336-1.95,12.516-2.644,4.379-.729,8.768-1.144,13.152-1.736a38.358,38.358,0,0,0,5.933-1.19,51.947,51.947,0,0,0,6.693-2.487c2.147-.975,4.291-1.977,6.44-2.936a28.939,28.939,0,0,1,3.107-1.209,27.062,27.062,0,0,0,3.509-1.307c.559-.267.669-1.9.669-2.955a11.059,11.059,0,0,0-.129-1.743c-.083-.473-.255-1.23-.54-1.207-2.1.153-4.2.311-6.293.526q-3.174.325-6.354.415a102.74,102.74,0,0,1-12.345-.563c.7-.208,1.4-.413,2.1-.622,2.515-.749,5.024-1.689,7.553-2.2,1.346-.27,2.7-.495,4.038-.841a12.872,12.872,0,0,0,2.028-.67,18.289,18.289,0,0,0,2.145-1.193q.342-.081.518-.745a9.038,9.038,0,0,0,.341-2.288c.72-.483.864-2.809.864-4.208a15.7,15.7,0,0,0-.187-2.522c-.125-.718-.363-1.735-.781-1.745C193.63.392,191.45.07,189.266.01Q188.881,0,188.5,0a48.127,48.127,0,0,0-5.632.4q-6.272.74-12.541,1.749c-1.941.306-3.881.669-5.825.926-2.377.314-4.748.555-7.127.758-3.98.338-7.966.47-11.949.63-4.567.186-9.128.449-13.691.919-4.226.436-8.448,1.017-12.671,1.572q-6.36.83-12.721,1.663c-4.345.574-8.694,1-13.044,1.427-2.2.218-4.4.283-6.606.42-2.084.13-4.17.164-6.256.231-4.1.132-8.209.213-12.313.306-8.28.184-16.557.48-24.836.781q-6.822.251-13.643.537c-2.32.1-4.641.3-6.959.444-1.983.125-3.964.42-5.946.643-2.11.238-4.219.5-6.329.766-1.254.159-2.51.324-3.765.483-.545.072-1.091.14-1.637.212-.5.064-.994.145-1.49.228a5.676,5.676,0,0,0-1.051.3,5.439,5.439,0,0,0-1.144.8,4.181,4.181,0,0,0-.463,1.489,15.252,15.252,0,0,0-.182,2.451,15.251,15.251,0,0,0,.182,2.454l.2.9q.189.713.556.8a7.352,7.352,0,0,0,1.3.7c.242-.059.427-.324.554-.8.048-.143.09-.3.128-.461.232-.015.464-.013.7-.013s.444,0,.668-.015q.753-.037,1.5-.078,1.936-.1,3.873-.2c1.4-.075,2.8-.128,4.2-.182-.145.028-.289.054-.433.08-3.3.566-6.605,1.134-9.906,1.782q-.8.2-1.22,1.758a19.119,19.119,0,0,0-.749,4.456c-.58-.013-1.161-.026-1.741-.036C.08,31.276,0,32.833,0,33.432s.08,2.135.487,2.145c.556.011,1.112.033,1.668.049A32.928,32.928,0,0,0,2.531,39.6q.224.986.447,1.971.42,1.56,1.22,1.758C7.321,42.714,10.447,42.18,13.573,41.653Z" transform="translate(2228.566 360.026) rotate(180)" fill="#b6d5d4"/>
    </g>
  </g>
</svg>
