<svg xmlns="http://www.w3.org/2000/svg" width="546.652" height="69.291" viewBox="0 0 546.652 69.291">
  <path id="Trazado_2257" data-name="Trazado 2257" d="M36.6,58.281c2.251-.194,4.519-.493,6.776-.583q3.16-.128,6.316-.261c11.532-.471,23.06-1.08,34.6-1.253,12.067-.183,24.137-.5,36.206-.516,12.317-.015,24.63-.054,36.945.033q36.008.265,72.007.437,35.76.159,71.52.063c11.833-.052,23.667-.358,35.5-.6,11.616-.237,23.219-.648,34.829-1.13,2.552-.107,5.1-.319,7.648-.482,2.518-.164,5.041-.294,7.557-.509,6.457-.554,12.905-1.142,19.356-1.8,11.227-1.151,22.42-2.69,33.664-3.643,11.78-1,23.585-1.562,35.377-2.371,5.323-.365,10.674-.822,15.958-1.638,6.041-.925,12.028-2.046,18-3.447,5.772-1.353,11.541-2.746,17.319-4.076,2.771-.642,5.558-1.222,8.357-1.677,3.168-.516,6.309-1.045,9.437-1.812,1.5-.371,1.8-2.656,1.795-4.128a8.243,8.243,0,0,0-.351-2.437c-.223-.662-.687-1.721-1.456-1.69-5.645.205-11.288.417-16.929.708q-8.539.44-17.094.553c-11.066.153,8.253-.779-2.8-1.319,1.884-.288.916-.968,2.8-1.256,6.765-1.036-.527.656,3.622-1.111,3.619-.372-3.613-1.73,0-2.209,1.831-.241,3.647-.517,5.455-.929,1.943-.443,3.859-1.049,5.768-1.658a1.751,1.751,0,0,0,1.393-1.04,7.217,7.217,0,0,0,.913-3.2c1.935-.673,2.319-3.922,2.317-5.879a11.723,11.723,0,0,0-.507-3.527c-.337-1-.98-2.426-2.1-2.442C520.9,1.371,515.036.911,509.16.818,508.471.808,507.78.8,507.091.8c-5.055-.008-10.1.237-15.15.538Q475.07,2.346,458.208,3.731c-5.222.419-10.439.918-15.667,1.269-6.393.429-12.772.756-19.172,1.03-10.706.456-21.43.624-32.143.83-12.285.24-24.556.589-36.83,1.227-11.367.592-22.724,1.386-34.083,2.144Q303.207,11.363,286.1,12.5c-11.689.785-23.387,1.362-35.088,1.94-5.919.3-11.848.377-17.771.559-5.607.173-11.219.212-16.828.3-11.04.167-22.082.263-33.124.375-22.275.222-44.539.6-66.812.986q-18.353.323-36.7.693c-6.241.124-12.483.4-18.72.591-5.333.167-10.664.57-16,.873q-8.512.485-17.024,1.044-5.06.326-10.128.66c-1.465.1-2.934.191-4.4.289-1.336.087-2.674.2-4.007.312a26.9,26.9,0,0,0-2.827.416,18.625,18.625,0,0,0-3.076,1.112,4.244,4.244,0,0,0-1.242,2.079,12.277,12.277,0,0,0,.01,6.856l.55,1.256a1.91,1.91,0,0,0,1.5,1.124,29.18,29.18,0,0,0,3.5.981A1.883,1.883,0,0,0,9.39,33.833a4.743,4.743,0,0,0,.343-.643c.623-.02,1.249-.016,1.874-.015.6,0,1.2,0,1.8-.018q2.025-.048,4.045-.1c3.473-.088-7.24,2.889-3.767,2.8,3.765-.1.028-.842,3.79-.911-.389.038.4.772.01.808-8.887.777,2.741-1.533-6.138-.642a4.173,4.173,0,0,0-3.279,2.452,15.57,15.57,0,0,0-2.006,6.225q-2.341-.031-4.684-.057c-1.094-.013-1.308,2.163-1.306,3s.221,2.985,1.315,3c1.5.018,2.993.05,4.488.075a24.881,24.881,0,0,0,1.019,5.552q.6,1.379,1.205,2.756a4.207,4.207,0,0,0,3.286,2.462C19.782,59.737,28.189,59,36.6,58.281Z" transform="matrix(-1, -0.017, 0.017, -1, 545.662, 70.092)" fill="#ffd64f"/>
</svg>
