<svg xmlns="http://www.w3.org/2000/svg" width="39.107" height="41.455" viewBox="0 0 39.107 41.455">
  <g id="Grupo_77706" data-name="Grupo 77706" transform="translate(57.778 597.422) rotate(-98)">
    <path id="Trazado_1898" data-name="Trazado 1898" d="M568.629,33.992q1.65-2.5,3.326-4.99.808-1.2,1.623-2.394a3.479,3.479,0,0,0,.575-3.181,1.428,1.428,0,0,0-1.36-1.057,3.419,3.419,0,0,0-2.865,1.436q-.885,1.14-1.766,2.285-1.911,2.481-3.8,4.98c-2.419,3.209-4.086,7.087-5.923,10.652-.692,1.342,1.128,2.964,2.217,1.7q2-2.32,4.02-4.616a44.413,44.413,0,0,0,3.952-4.816" transform="translate(0 0)" fill="#e52441"/>
    <path id="Trazado_1899" data-name="Trazado 1899" d="M580.825,31.1c-1.505-.929-3.78.16-5.3.7a41,41,0,0,0-5.059,2.181c-3.03,1.563-5.631,4.514-7.726,7.151-.668.836.207,2.442,1.262,1.672a36.778,36.778,0,0,1,4.26-2.687c1.4-.752,2.9-1.3,4.274-2.082a35.111,35.111,0,0,1,4.268-2.08c1.512-.6,3.873-.824,4.712-2.328a1.892,1.892,0,0,0-.687-2.531" transform="translate(2.75 5.462)" fill="#e52441"/>
    <path id="Trazado_1900" data-name="Trazado 1900" d="M568.978,47.187c.408-.007.818-.013,1.226-.021.955-.015,1.91-.033,2.865-.048,1.771-.031,3.549-.021,5.319-.093a41.023,41.023,0,0,0,5.32-.834l2.811-.494a8.443,8.443,0,0,0,2.629-.664,1.069,1.069,0,0,0-.246-1.943,11.5,11.5,0,0,0-3.543-.1q-1.839.045-3.681.086a25.928,25.928,0,0,0-3.757.211c-1.271.22-2.538.463-3.808.694l-3.607.656a22.287,22.287,0,0,0-3.443.669,1.47,1.47,0,0,0-1.071,1.737,1.225,1.225,0,0,0,1.557.884.915.915,0,0,0,.61-.722h0l.819-.015" transform="translate(4.993 13.392)" fill="#e52441"/>
  </g>
</svg>
