<svg xmlns="http://www.w3.org/2000/svg" width="55.633" height="45.908" viewBox="0 0 55.633 45.908">
  <path id="Trazado_2359" data-name="Trazado 2359" d="M20.478,6.027c6.462-4.683,15.74-3.17,24.864,4.039-2.03.49-4.134-1.631-5.884.225.04.353,0,.7.1.741,2.911,1.349,5.808,2.741,8.777,3.953a1.453,1.453,0,0,0,2.113-1.328,20.064,20.064,0,0,0-1.016-7.94L47.515,8.238C44.7,6.369,42.074,4.3,39.164,2.76c-6.871-3.625-13.836-3.86-20.6.377a3.087,3.087,0,0,1-2.992.177A13.838,13.838,0,0,0,2.634,5.157C1.194,6.175-.326,7.364.061,10.079a11.271,11.271,0,0,1,7.16-4.834,11.443,11.443,0,0,1,8.1.686c-.463,2.58-1.207,4.992-1.243,7.415a23.228,23.228,0,0,0,1.075,7.268,4.647,4.647,0,0,0,5.054,3.24c2.117-.229,3.713-1.788,4.171-4.335A15.487,15.487,0,0,0,22.088,8.363C21.591,7.557,21.015,6.8,20.478,6.027ZM18.488,7.983a13.09,13.09,0,0,1,3.3,10.326c-.114,1.219-.454,2.445-1.963,2.517-1.295.062-1.874-.972-2.17-2.028A15.747,15.747,0,0,1,18.488,7.983Z" transform="translate(0 25.225) rotate(-30)" fill="#e52441"/>
</svg>
