<svg xmlns="http://www.w3.org/2000/svg" width="196" height="15.588" viewBox="0 0 196 15.588">
  <path id="Trazado_16249" data-name="Trazado 16249" d="M255.238,221.02c-.7.054-1.409.1-2.111.169l-2.911.3a33.755,33.755,0,0,0-4.773.838,22.064,22.064,0,0,0-4.827,1.861c-.3.16-.606.333-.92.475l-1.016.456c-.481.193-.963.376-1.458.53a12.164,12.164,0,0,1-1.754.4c-.517.053-1.03.081-1.55.084a11.493,11.493,0,0,1-1.47-.1,16.67,16.67,0,0,1-1.973-.438,19.2,19.2,0,0,1-2.006-.734,29.254,29.254,0,0,1-3.265-1.7c-.5-.3-.989-.6-1.474-.919-.585-.383-1.162-.768-1.768-1.119a9.953,9.953,0,0,0-1.434-.723,7.363,7.363,0,0,0-.99-.3,5.978,5.978,0,0,0-1.035-.115,3.96,3.96,0,0,0-.618.06,6.4,6.4,0,0,0-.878.2,7.637,7.637,0,0,0-1.3.6q-1.273.668-2.544,1.34c-1.072.568-2.154,1.123-3.265,1.611-.678.271-1.364.511-2.064.72a20.84,20.84,0,0,1-2.807.6,24.7,24.7,0,0,1-2.744.193,22.587,22.587,0,0,1-3.1-.231c-1.3-.186-2.59-.448-3.87-.757a24.6,24.6,0,0,1-3.468-1.1q-1.682-.736-3.289-1.625a25.8,25.8,0,0,0-3.777-1.757,11.529,11.529,0,0,0-1.6-.416,8.419,8.419,0,0,0-5.61.839,25.813,25.813,0,0,0-3.91,2.639c-.755.564-1.488,1.161-2.227,1.744-.619.475-1.236.951-1.887,1.383a14.591,14.591,0,0,1-2.138,1.166c-.345.139-.692.265-1.048.378a8.963,8.963,0,0,1-1.424.309c-.19.02-.38.03-.571.032a3.822,3.822,0,0,1-.41-.015,7.637,7.637,0,0,1-1.129-.33,23.765,23.765,0,0,1-3.748-2.327c-.565-.448-1.111-.915-1.639-1.406q-.554-.513-1.107-1.029a36.107,36.107,0,0,0-2.87-2.694,8.751,8.751,0,0,0-1.379-.857,5.371,5.371,0,0,0-.86-.316l-.289-.06-.607-.082-.295-.018-.11,0a3.22,3.22,0,0,0-.542.047,6.291,6.291,0,0,0-1.031.229,16.525,16.525,0,0,0-1.948.753c-.521.227-1.033.473-1.549.714-.363.17-.732.33-1.083.523l-1.658.91c-.278.152-.561.3-.83.465l-1.5.946c-.377.237-.761.466-1.131.714l-2.783,1.864a40.087,40.087,0,0,1-6.246,3.621c-.49.2-.983.385-1.486.55a12.24,12.24,0,0,1-1.908.44c-.273.032-.545.055-.822.072a7.674,7.674,0,0,1-1.21-.046,9.174,9.174,0,0,1-1.688-.445,11.2,11.2,0,0,1-1.695-1.007,25.685,25.685,0,0,1-2.35-2.248c-.372-.391-.747-.777-1.122-1.166-.449-.466-.937-.893-1.429-1.312a6.766,6.766,0,0,0-1.31-.876,7.519,7.519,0,0,0-.848-.344,3.841,3.841,0,0,0-.89-.139,5.258,5.258,0,0,0-.577.064,3.68,3.68,0,0,0-.794.279,2.866,2.866,0,0,0-.709.47c-.212.2-.413.413-.61.629-.377.411-.712.871-1.062,1.306-.276.343-.55.689-.826,1.034-.32.4-.656.791-.983,1.186a15.179,15.179,0,0,1-2.168,2.127,11.723,11.723,0,0,1-1.937,1.143,10.29,10.29,0,0,1-1.915.509,12.673,12.673,0,0,1-2.779-.026,19.379,19.379,0,0,1-4.254-1.245,33.9,33.9,0,0,1-3.624-1.892c-.606-.36-1.19-.755-1.772-1.15s-1.172-.8-1.752-1.2-1.164-.829-1.771-1.208a17.835,17.835,0,0,0-1.927-1.044,8.989,8.989,0,0,0-3.9-.913,6.3,6.3,0,0,0-.945.1,9.879,9.879,0,0,0-.972.213,6.548,6.548,0,0,0-.841.319c-.3.128-.6.261-.893.395a24.707,24.707,0,0,0-3.723,2.083,17.858,17.858,0,0,0-2.9,2.478,15.915,15.915,0,0,0-1.146,1.337,2.641,2.641,0,0,0-.394.715l-.106.308c-.043.22-.084.438-.126.658a.846.846,0,0,0,.21.793.818.818,0,0,0,.793.21c.2-.055.391-.111.586-.168a4.642,4.642,0,0,0,.791-.336.818.818,0,0,0,.292-1.112.774.774,0,0,0-.484-.367A16.71,16.71,0,0,1,72,228.491a21.751,21.751,0,0,1,4.423-2.551c.354-.147.709-.292,1.068-.431a6.692,6.692,0,0,1,1.381-.349,7.717,7.717,0,0,1,1.241-.015c.276.045.546.1.821.174a9.421,9.421,0,0,1,1.17.41,17.488,17.488,0,0,1,2.143,1.2c.807.509,1.551,1.114,2.326,1.67s1.532,1.1,2.312,1.621,1.582.994,2.4,1.448a24.429,24.429,0,0,0,5,2.114,13.142,13.142,0,0,0,5.535.47,9.633,9.633,0,0,0,2.5-.688,11.354,11.354,0,0,0,2.19-1.266,14.387,14.387,0,0,0,2.048-1.844c.333-.361.64-.736.948-1.117.448-.55.887-1.107,1.323-1.668a21.991,21.991,0,0,1,1.683-2.032,1.571,1.571,0,0,1,.141-.078c.067-.023.134-.043.2-.06h.067a2.861,2.861,0,0,1,.362.1,6.183,6.183,0,0,1,.852.48,22.929,22.929,0,0,1,2.152,2.034,37.7,37.7,0,0,0,2.7,2.638,12.012,12.012,0,0,0,1.321.952,9.779,9.779,0,0,0,1.711.835,7.84,7.84,0,0,0,1.691.409,9.545,9.545,0,0,0,2.045.086,13.8,13.8,0,0,0,1.7-.238,12.894,12.894,0,0,0,1.985-.569,24.429,24.429,0,0,0,3.515-1.616c1.656-.91,3.215-1.979,4.78-3.033.747-.5,1.488-1.027,2.248-1.51l2.614-1.661c.1-.063.21-.116.314-.174q.447-.246.893-.493l1.362-.753c.089-.05.186-.089.279-.133l.957-.453c.536-.252,1.07-.5,1.612-.737a12.049,12.049,0,0,1,1.675-.529,3.065,3.065,0,0,1,.348-.009c.1,0,.193.008.29.017a5.415,5.415,0,0,1,.7.193,8.539,8.539,0,0,1,1.128.7c1.094.916,2.058,1.982,3.1,2.955.654.61,1.307,1.208,2,1.772.628.51,1.284.984,1.955,1.434a25.046,25.046,0,0,0,2.234,1.282,6.3,6.3,0,0,0,2.228.7,6.384,6.384,0,0,0,1.032.034,9.693,9.693,0,0,0,1.324-.186,10.552,10.552,0,0,0,2.144-.682,15.726,15.726,0,0,0,2.254-1.178,30,30,0,0,0,2.845-2.12l1.639-1.31,1.3-.994a16.368,16.368,0,0,1,2.98-1.844,8.676,8.676,0,0,1,1.614-.433c.267-.027.533-.044.8-.048a4.925,4.925,0,0,1,.712.048,12.409,12.409,0,0,1,2.467.689c.692.3,1.375.631,2.043.985.416.22.823.459,1.235.688s.818.425,1.232.628c.8.392,1.6.756,2.423,1.087a22.747,22.747,0,0,0,2.656.838,39.568,39.568,0,0,0,5.712,1.059,20.874,20.874,0,0,0,2.934.124,25.463,25.463,0,0,0,2.889-.286,20.051,20.051,0,0,0,5-1.409c1.024-.435,2.012-.934,3.005-1.436,1.187-.6,2.358-1.247,3.567-1.806a6.369,6.369,0,0,1,.736-.2,2.945,2.945,0,0,1,.44,0,6.347,6.347,0,0,1,1.021.284,26.553,26.553,0,0,1,3.06,1.914,31.4,31.4,0,0,0,3.241,1.92,27.507,27.507,0,0,0,3.457,1.467,14.884,14.884,0,0,0,4.14.759,13.25,13.25,0,0,0,3.692-.38,15.745,15.745,0,0,0,2.98-1.094c.414-.191.827-.377,1.228-.594l.779-.419c.389-.21.8-.389,1.208-.563a26.283,26.283,0,0,1,6.141-1.514c1.134-.144,2.275-.224,3.413-.33.986-.092,1.978-.139,2.966-.2,2-.132,4.017-.259,6.027-.252a1.411,1.411,0,1,0,0-2.822c-1.526.026-3.049.143-4.571.254Q256.342,220.935,255.238,221.02Zm-37.148,1.427.118-.015h0Z" transform="translate(-67.428 -218.776)" fill="#e52441"/>
</svg>
