<svg xmlns="http://www.w3.org/2000/svg" width="326.632" height="47.446" viewBox="0 0 326.632 47.446">
  <path id="Trazado_2725" data-name="Trazado 2725" d="M473.242,509.816c1.345-.136,2.7-.345,4.048-.409q1.888-.092,3.773-.187c6.889-.337,13.775-.77,20.667-.9,7.207-.14,14.417-.372,21.626-.4,7.357-.024,14.712-.064,22.067-.017q21.507.144,43.009.223,21.359.071,42.718-.034c7.068-.049,14.136-.273,21.2-.452,6.938-.176,13.87-.472,20.8-.817,1.524-.077,3.046-.226,4.569-.34,1.5-.116,3.011-.209,4.514-.359,3.857-.389,7.709-.8,11.562-1.263,6.707-.806,13.394-1.879,20.11-2.549,7.037-.7,14.089-1.1,21.133-1.674,3.18-.257,6.376-.579,9.533-1.147,3.609-.645,7.186-1.424,10.755-2.4,3.449-.94,6.9-1.906,10.348-2.83,1.656-.445,3.321-.849,4.993-1.166,1.893-.359,3.769-.728,5.638-1.26.9-.257,1.076-1.834,1.076-2.849a6.508,6.508,0,0,0-.208-1.68c-.133-.456-.409-1.186-.868-1.164-3.372.148-6.743.3-10.112.507q-5.1.313-10.211.4c-6.61.118-13.233-.182-19.836-.543q1.688-.3,3.377-.6c4.042-.722,8.073-1.628,12.137-2.116,2.162-.26,4.331-.477,6.488-.811a31.219,31.219,0,0,0,3.259-.646c1.161-.307,2.306-.728,3.447-1.15a1.078,1.078,0,0,0,.833-.718,5.575,5.575,0,0,0,.548-2.206c1.156-.466,1.389-2.708,1.389-4.057a9.249,9.249,0,0,0-.3-2.432c-.2-.692-.584-1.672-1.255-1.682-3.509-.053-7.013-.364-10.522-.422-.412-.006-.824-.009-1.236-.009-3.019,0-6.033.174-9.049.387q-10.078.713-20.151,1.686c-3.119.295-6.236.645-9.359.893-3.819.3-7.63.535-11.452.731-6.4.326-12.8.453-19.2.607-7.338.179-14.668.433-22,.886-6.79.42-13.574.98-20.359,1.515q-10.219.8-20.44,1.6c-6.982.554-13.97.965-20.96,1.376-3.535.21-7.077.273-10.615.4-3.349.125-6.7.158-10.052.223-6.594.127-13.19.206-19.785.295-13.3.177-26.6.463-39.907.753q-10.962.242-21.922.518c-3.728.093-7.457.287-11.182.428-3.186.121-6.37.4-9.555.62-3.39.229-6.779.481-10.169.739q-3.022.231-6.05.466c-.875.069-1.753.135-2.631.2-.8.061-1.6.14-2.393.22a14.1,14.1,0,0,0-1.689.29,10.225,10.225,0,0,0-1.838.77,3.05,3.05,0,0,0-.744,1.435,9.727,9.727,0,0,0,0,4.728l.327.866a1.167,1.167,0,0,0,.893.773,15.622,15.622,0,0,0,2.089.673,1.16,1.16,0,0,0,.89-.769,3.487,3.487,0,0,0,.205-.444c.372-.014.746-.013,1.12-.013.357,0,.714,0,1.073-.014q1.21-.035,2.416-.075,3.112-.1,6.223-.193c2.249-.072,4.5-.124,6.743-.176-.232.027-.465.052-.7.077-5.309.546-10.614,1.093-15.918,1.718a2.569,2.569,0,0,0-1.96,1.694,11.954,11.954,0,0,0-1.2,4.3q-1.4-.019-2.8-.035c-.654-.008-.783,1.493-.783,2.071s.129,2.058.783,2.068c.893.011,1.787.031,2.68.047a19.533,19.533,0,0,0,.6,3.828q.359.95.718,1.9a2.569,2.569,0,0,0,1.96,1.694C463.2,510.839,468.219,510.324,473.242,509.816Z" transform="matrix(-1, -0.017, 0.017, -1, 769.071, 524.917)" fill="#fff"/>
</svg>
