<svg xmlns="http://www.w3.org/2000/svg" width="224.325" height="53.349" viewBox="0 0 224.325 53.349">
  <path id="Trazado_2728" data-name="Trazado 2728" d="M466.316,509.816c.918-.136,1.842-.345,2.762-.409.859-.061,1.718-.125,2.575-.187,4.7-.337,9.4-.77,14.1-.9,4.919-.14,9.839-.372,14.758-.4,5.021-.024,10.04-.064,15.059-.017q14.677.144,29.351.223c9.718.047,19.435.056,29.153-.034,4.823-.049,9.647-.273,14.469-.452,4.735-.176,9.465-.472,14.2-.817,1.04-.077,2.078-.226,3.118-.34s2.055-.209,3.081-.359c2.632-.389,5.261-.8,7.891-1.263,4.577-.806,9.14-1.879,13.724-2.549,4.8-.7,9.615-1.1,14.422-1.674a47.192,47.192,0,0,0,6.506-1.147,62.112,62.112,0,0,0,7.34-2.4c2.354-.94,4.706-1.906,7.062-2.83a34.513,34.513,0,0,1,3.408-1.166,32.36,32.36,0,0,0,3.848-1.26c.613-.257.734-1.834.734-2.849a9.4,9.4,0,0,0-.142-1.68c-.091-.456-.279-1.186-.592-1.164-2.3.148-4.6.3-6.9.507q-3.481.313-6.968.4a128.023,128.023,0,0,1-13.537-.543c.768-.2,1.536-.4,2.3-.6,2.758-.722,5.51-1.628,8.283-2.116,1.475-.26,2.956-.477,4.427-.811a15.507,15.507,0,0,0,2.224-.646,21,21,0,0,0,2.352-1.15q.375-.078.568-.718a7.742,7.742,0,0,0,.374-2.206c.789-.466.948-2.708.948-4.057a13.354,13.354,0,0,0-.2-2.432c-.137-.692-.4-1.672-.856-1.682-2.4-.053-4.786-.364-7.181-.422-.281-.006-.562-.009-.843-.009a59.938,59.938,0,0,0-6.176.387q-6.878.713-13.752,1.686c-2.129.295-4.256.645-6.387.893-2.606.3-5.207.535-7.816.731-4.364.326-8.736.453-13.1.607-5.008.179-10.01.433-15.013.886-4.634.42-9.264.98-13.894,1.515q-6.974.8-13.949,1.6c-4.765.554-9.534.965-14.3,1.376-2.413.21-4.83.273-7.244.4-2.286.125-4.573.158-6.86.223-4.5.127-9,.206-13.5.295-9.08.177-18.155.463-27.234.753q-7.481.242-14.961.518c-2.544.093-5.089.287-7.631.428-2.174.121-4.347.4-6.521.62-2.313.229-4.626.481-6.94.739-1.375.154-2.752.312-4.129.466-.6.069-1.2.135-1.8.2-.545.061-1.09.14-1.633.22a6.9,6.9,0,0,0-1.153.29,6.041,6.041,0,0,0-1.255.77,3.692,3.692,0,0,0-.508,1.435,14.135,14.135,0,0,0,0,4.728l.223.866c.138.458.342.715.609.773a8.491,8.491,0,0,0,1.425.673c.266-.056.469-.312.607-.769a4.391,4.391,0,0,0,.14-.444c.254-.014.509-.013.764-.013s.487,0,.732-.014q.826-.035,1.649-.075,2.123-.1,4.247-.193c1.535-.072,3.068-.124,4.6-.176l-.475.077c-3.623.546-7.243,1.093-10.863,1.718q-.879.191-1.338,1.694a16.414,16.414,0,0,0-.822,4.3q-.954-.019-1.909-.035c-.446-.008-.534,1.493-.534,2.071s.088,2.058.534,2.068c.609.011,1.22.031,1.829.047a28.03,28.03,0,0,0,.412,3.828q.245.95.49,1.9.46,1.5,1.338,1.694C459.461,510.839,462.888,510.324,466.316,509.816Z" transform="translate(-424.048 -492.646) rotate(3)" fill="#fff"/>
</svg>
