<svg xmlns="http://www.w3.org/2000/svg" width="481.812" height="94.502" viewBox="0 0 481.812 94.502">
  <g id="g44" transform="translate(0 0.001)">
    <path id="path30" d="M152.895,45.461c-.4,6.064-.474,12.8-.436,17.055-6.585-1.974-13.548-5.688-18.141-11.8-1.08-1.717,2.95-2.735,4.921-3.282a62.138,62.138,0,0,1,13.656-1.973m181.063,4.807c-.767,5.141-7.1,9.495-10.27,10.383a8.822,8.822,0,0,1-2.739.334A52.2,52.2,0,0,1,332.76,45.136c.855-.847,1.418,3.388,1.2,5.132M77.935,44.15a56.51,56.51,0,0,0-3.5,7.214c-.2.367-.432.762.111.762a8.444,8.444,0,0,0,4.92-.646c-.332-2.522-.437-5.146-1.53-7.33M124.38,38.9c.431.879-.774,1.429-1.314,1.754a5.39,5.39,0,0,1-3.606.54,2.836,2.836,0,0,1,1.09-2.077c.984-.757,2.834-1.524,3.83-.217m90.255-1.2c-1.216-.108-1.627,1.731-1.859,2.629a123.991,123.991,0,0,0-1.2,20.974c.07,2.646-.329,6.231,2.954,6.884,1.311.331,3.737,0,3.925-.872.659-8.3-.211-17.6-.868-26.122a4.708,4.708,0,0,0-2.95-3.493m89.166-.326c-4.349-.611-13.552,1.2-20,2.183-.874.113-.653.876-.432,1.532.544,2.627,3.381,2.182,5.241,3.174a33.059,33.059,0,0,1-2.294,5.241c-.985.326-2.628.109-2.736,1.638-.09.926.654,1.547.585,2.772-1.019,2.591-2.793,5.331-2.114,8.7.82,2.974,2.255,6.187,4.369,6.663,6.776,1.318,12.35-2.5,17.483-6.322.892-.92-.817-3.653-1.42-3.731-4.59-.54-8.847,1.422-13.441,1.313a18.275,18.275,0,0,1,2.092-5.91c3.746-.559,9.315.238,11.571-1.514.651-.768.38-3.151-.222-3.5-2.841-.989-6.568-.619-9.426-.452.471-1.461.945-3.1,1.455-4.579a39.317,39.317,0,0,0,6.987-.116c2.337-.182,5.137.22,6.776-1.637.481-.939-1.363-3.453-2.4-4.257s-1.488-1.115-2.074-1.2m-54.964.432c-9.25-1.564-19.671-1.084-26.337,5.363-1.163,1.254-1.09,3.6-.984,5.238a4.263,4.263,0,0,0,2.627,2.516c7.319,1.637,16.717-.334,22.947,4.592.763.984.066,2.02-.88,2.515-5.789,2.405-11.923,4.113-18.7,2.688-.912-.244-2.285-1.2-1.847-2.141,2.736-4.155,7.327-.107,10.715.441,1.692.357,5.462-.116,7.318-2.084.587-1.109-1.458-1.791-2.841-2.183-4.81-1.312-11.581-2.849-16.061.219a5.051,5.051,0,0,0-1.426,5.569c3.717,6.016,10.846,8.045,17.488,7,4.521-.707,9.944-2.3,11.034-7.427.519-3.257.332-6.778-2.4-9.077-6.336-4.262-15.41-1.963-22.4-4.8-.223-.326-.078-.439.329-.662,7.431-2.293,16.171-1.417,23.821-3.273,1.106-.326,2.127-2.1,1.637-2.953-1.09-1.09-2.51-1.264-4.04-1.531m68.072.441c-5.676,6.779-11.693,15.738-6.994,24.59-3.056,8.084-5.683,16.389-6.223,25.457.108,2.3,1.961,4.263,3.931,5.466.656.327,2.233,1.2,2.4.431a142.3,142.3,0,0,1,6.776-25.35c2.881.372,4.656.305,8.521-1.421,6.556-3.167,12.786-10.049,13.111-17.589.1-4.043-1.415-7.867-4.915-10.161a3.447,3.447,0,0,0-3.389.11c-6.776,3.937-14.952,13.035-16.825,17.032-.314-7.744,6.23-12.664,6.77-19.768.014-1.774-2.371.145-3.166,1.2m-214.06-3.934a4.417,4.417,0,0,0-2.183,4.047c.435,4.81,5.6,6.888,9.284,8.409a57.558,57.558,0,0,0-1.857,6.346c-1.286,6.813-2.728,16.383,1.969,22.177a4.452,4.452,0,0,0,4.477,1.755c.6-.183,1.083-.453,1.09-1.093-.651-8.971-.868-19.129,1.64-27.545a18.765,18.765,0,0,0,5.253-.211,7.317,7.317,0,0,0,5.462-4.376c-.108-3.061-.553-6.778-3.714-8.2-4.594-1.527-8.418,1.969-11.151,5.244-3.5-.763-6.991-1.635-9.619-4.365-.438-.659,0-1.643-.652-2.19m-6.993-.546c-3.388,1.965-4.534,5.593-5.463,8.851-1.883,6.588-4.261,14.1-1.643,21.2a6.409,6.409,0,0,0,5.137,3.714c5.029-.334,10.383-3.607,11.916-8.746.214-1.093.392-3.232-.659-3.273-3.167.219-6.008,2.071-9.071,3.062-.738.122-1.966.8-2.187-.221-.22-5.682,1.564-10.915,2.954-16.169.612-2.334,1.526-4.923.547-7.432-.2-.573-.657-1.426-1.53-.988m174.618-1.2c-1.189-.155-1.051,1.482-.768,2.411,1.419,6,3.6,11.793,4.153,18.138.108,1.309.547,3.055-.329,4.151-4.7-5.788-7.428-12.682-13.111-17.707-.9-.733-2,.013-2.516.992-2.621,5.35-3.632,11.249-4.04,17.48-.22,3.331-.875,7.756,2.622,9.5.984.328,2.353.18,2.728-.759,1.538-5.032,1.328-10.877,1.538-16.511,0-.511.343-1.54.651-1.093,2.348,4.537,4.731,8.582,7.32,12.794,1.313,2.122,2.475,4.174,4.919,4.038a7.855,7.855,0,0,0,5.462-4.154c2.729-7.865.985-17.043-2.954-23.6-1.418-2.183-3.049-5.024-5.675-5.683M33.241,29.406c-.464-.619-.942-.685-1.415-.22C28.213,33.443,28,39.456,27.014,44.911c-.107,3.175-.437,6.891.222,9.842,4.7-5.35,6.91-11.489,7.318-18.794a10.731,10.731,0,0,0-1.313-6.553M230.26,18.146c.718,1.913-1.745,4.91-4.1,6.312-3.606,1.963-7.58,3.484-12.17,2.931a12.831,12.831,0,0,1,3.54-4.775c3.193-3.114,7.534-7,11.635-5.673.508.165.782.366,1.093,1.206m-13.768-1.961a33.19,33.19,0,0,0-7.754,8.3c-1.1-1.961.651-3.931,1.965-5.571,1.482-1.461,3.606-2.837,5.789-2.725m3.931-6.343c-6.661,1.194-13.987,5.235-16.17,12.133a7.367,7.367,0,0,0,2.071,7.1c-.208,1.687-.428,4.047,1.422,5.242,2.085,1.093,2.532-1.36,3.61-2.289,6.121,2.4,12.017-.441,16.615-4.053,3.6-3.052,7.974-6.772,6.223-11.789a5.822,5.822,0,0,0-5.136-3.175c-2.072-2.735-5.351-3.607-8.634-3.166M186.44,18.8C168.7,7.649,145.792-.208,123.5,6.233c-2.834.989-4.145,3.935-4.584,6.563,1.42,1.743,3.609,1.42,5.9,1.42.544-.333,1.534-.333,1.637-1.1-.76-1.636-2.95-1.09-4.153-1.963.659-.659,1.643-.437,2.409-.88,21.635-3.167,42.942,3.527,59.886,15.739,8.955,6.466,17.48,16.058,14.526,27.652-3.862,11.186-19.011,12.9-30.812,12.781a20.5,20.5,0,0,1-7.21-1.312c.078-6.978-.053-15.648-.182-20.1,4.864-.289,14.273,1.2,20.5,3.928,1.2.8-2.294,3.168-3.6,4.374-.728.858,1.933,1.681,3.714,1.53a8.531,8.531,0,0,0,6.114-5.142c.767-2.4-.377-4.273-1.853-5.9-6.667-5.679-15.831-5.656-24.792-5.87a72.042,72.042,0,0,0-.765-10.7c-.6-2.819-1.981-4.087-4.056-4.524-1.64,1.86-1.9,4.273-2.184,6.78-.352,3.055-.667,6.375-.984,9.183,0,0-4.876.948-7.76,1.637s-14.191,4.3-13.22,10.048c1.284,5.106,9.394,11.26,14.973,14.862a51.4,51.4,0,0,0,5.674,3.17c.235,2.65.66,5.248,2.407,7.325.564.508,2.536.306,4.047,0,1.857-.775,1.913-2.771,2.072-4.26,1.958.334,4.28.881,7.661,1.309,13.55,1.685,30.151-2.186,37.576-15.736,6.236-13-4.587-25.614-12.7-32.633A87.809,87.809,0,0,0,186.44,18.8M60.781,15.3c5.257,10.616,6,25.566,1.634,36.821a8.511,8.511,0,0,0,3.389.331c2.953-6.229,6.121-12.452,11.041-17.922,0-.767.217-1.748,1.09-1.969s2.172-.362,2.624.553c4.477,10.6,5.68,22.617,5.574,34.63-.016.579-.22,1.2-.77,1.094-2.183-.322-4.04-2.618-4.8-4.588a29.694,29.694,0,0,1-.452-5.027c-.958.5-8.728,0-8.728,0-1.637,3.17-2.511,6.663-3.6,10.052-.37.958-1.969.877-3.059.656-2.624-.878-2.513-3.817-2.838-6.113.434-2.517,1.635-4.6,2.288-6.888a10.126,10.126,0,0,0-2.074-3.495,43.951,43.951,0,0,1-8.526,12.019c-6.222,5.244-13.41,9.833-21.965,7.652a16.41,16.41,0,0,1-9.721-8.193,15.2,15.2,0,0,1-3.826,1.2c-5.285,1.11-10.921-.113-14.421-4.7C-2.813,52.348.575,38.9,4.176,29.512c3.719-8.851,10.383-17.93,19.56-22.074.911-.371,2.693-.3,2.294.767-1.2,3.273-4.807,5.237-6.777,8.19C11.062,27.329,6.692,40.332,8,54.753c.439,2.946,2.076,6.232,5.024,7.318a7.48,7.48,0,0,0,7.106-1.2c-2.081-9.4-4.043-22.513,3.714-30.053,3.06-3.053,6.55-5.246,10.708-5.574a6.154,6.154,0,0,1,4.373,1.637c4.153,5.682,3.82,14.754.659,20.765-2.411,4.807-6.669,9.177-11.041,13,.325,1.864,2.295,3.826,4.043,4.592,5.351,1.961,10.378-.987,14.2-4.592,7.318-7.974,9.957-17.933,10.6-28.518C57.28,20.328,53.891,9.078,44.827,1.1c-.438-.178-.095-1.206.547-1.1,6.77,1.857,12.367,9.16,15.407,15.3" transform="translate(0 0)" fill="#e52441"/>
    <path id="path32" d="M723.528,48.561c-3.257.544-4.311,1.473-5.244,4.053-4.579,12.347-9.891,26.551-13.807,39.353h-.994c-2.322-6.911-7.762-20.841-10.614-28.071L682.647,91.967h-.994c-3.386-10.161-10.291-29-12.8-35.63-2.13-5.51-3.059-7.439-6.839-7.775V47.307h16.256v1.254c-2.98.138-4.319.544-4.319,2.265a9.158,9.158,0,0,0,.734,2.921L684.239,78.7l7.106-18.718-2.193-5.441c-2.194-5.508-3.184-5.909-6.7-5.982V47.307h17.717v1.254c-2.058,0-5.112.138-5.112,2.532,0,1.127.8,2.589,1.794,5.169l8.758,22.63L713.9,56.4a15.573,15.573,0,0,0,1.054-4.783c0-2.582-2.315-2.852-4.576-3.056V47.307h13.145v1.254Z" transform="translate(-327.533 -23.406)" fill="#e52441"/>
    <path id="path34" d="M788.762,91.171c0-8.238-3.379-15.462-9.5-15.462-4.177,0-7.82,3.444-7.82,10.349,0,4.907,1.521,17.112,9.488,17.112,3.38,0,7.827-2.514,7.827-12m5.975-1.929c0,6.572-4.643,15.787-14.727,15.787-8.562,0-14.54-6.835-14.54-15.787,0-8.165,5.441-15.389,14.334-15.389,8.695,0,14.933,5.765,14.933,15.389" transform="translate(-378.719 -36.54)" fill="#e52441"/>
    <path id="path36" d="M827.44,82.205c0-3.915-1.261-3.987-2.322-3.987a9.783,9.783,0,0,0-2.263.273V77.427c3.26-1.066,6.579-2.257,9.83-3.582l.331.129v5.91h.135c3.118-4.714,5.37-6.039,7.894-6.039a3.321,3.321,0,0,1,3.592,3.582c0,1.654-.939,2.915-2.531,2.915-2.322,0-2.99-2.316-4.576-2.316s-4.515,3.317-4.515,5.441V98.392c0,4.582,2.258,4.846,5.64,4.981v1H822.732v-1c3.646-.663,4.707-.862,4.707-4.576V82.205Z" transform="translate(-407.05 -36.536)" fill="#e52441"/>
    <path id="path38" d="M863.146,88.877c3.917-.258,5.116-1.132,5.116-4.779V52.448c0-2.985-.4-4.053-2.987-4.053a22.332,22.332,0,0,0-2.257.138V47.467c3.511-.863,7.035-1.791,10.553-2.921l.27.128V84.3c0,3.845,1.122,4.372,4.969,4.576v1H863.146Z" transform="translate(-426.982 -22.04)" fill="#e52441"/>
    <path id="path40" d="M913.444,67.841c-.466-4.512-3.716-6.629-6.842-6.629-3.7,0-8.22,3.25-8.22,12.266,0,9.9,4.778,13.61,9.152,13.61,2.79,0,5.376-1.591,5.909-3.987V67.841Zm10.02,19.247c-3.19,1.128-6.235,2.183-9.756,3.443l-.264-.193V86.294H913.3c-1.189,1.788-3.646,4.237-8.55,4.237-2.6,0-12.084-1.318-12.084-14.858,0-8.7,6.307-16.318,13.741-16.318a9.848,9.848,0,0,1,7.035,2.841V51.852c0-1.995,0-3.389-2.926-3.389a12.87,12.87,0,0,0-1.595.072V47.47c3.325-.863,6.579-1.791,9.762-2.918l.331.125V82.32c0,2.711,0,4.036,4.447,3.7Z" transform="translate(-441.651 -22.043)" fill="#e52441"/>
  </g>
</svg>
