<svg xmlns="http://www.w3.org/2000/svg" width="98.62" height="69.791" viewBox="0 0 98.62 69.791">
  <path id="Trazado_2487" data-name="Trazado 2487" d="M127.218,353.313c7.271.881,14.067,1.685,20.852,2.567.485.063.9.7,1.975,1.6-3.242.392-5.718.885-8.205.954-6.571.183-13.147.185-19.721.249a12.787,12.787,0,0,1-2.4-.082c-2.646-.483-3.45-2.2-2.052-4.5a15.966,15.966,0,0,1,2.371-3.02q5.123-5.079,10.372-10.028a15.863,15.863,0,0,1,2.683-1.589c.167,5.084-4.9,6.481-6.005,10.53.907-.176,1.672-.273,2.407-.475,26.968-7.409,53.881-6.608,80.733.593a80.8,80.8,0,0,1,8.167,2.835c1.418.549,2.624,1.557,1.849,3.3-.737,1.661-2.136,1.666-3.652.991-17.9-7.972-36.9-8.9-56.054-8.646a135.972,135.972,0,0,0-29.549,3.513C129.816,352.392,128.683,352.842,127.218,353.313Z" transform="translate(84.466 -351.237) rotate(31)" fill="#e52441"/>
</svg>
