<svg xmlns="http://www.w3.org/2000/svg" width="591.473" height="70.776" viewBox="0 0 591.473 70.776">
  <g id="Grupo_77951" data-name="Grupo 77951" transform="translate(1.157 2.161) rotate(1)">
    <path id="Trazado_2206" data-name="Trazado 2206" d="M38.723,51.579c2.406-.186,4.83-.464,7.242-.557q3.376-.133,6.748-.269c12.321-.487,24.639-1.1,36.965-1.32,12.89-.236,25.786-.59,38.678-.677,13.157-.088,26.31-.2,39.464-.195q38.461.016,76.913-.051,38.2-.077,76.4-.379c12.639-.118,25.282-.461,37.918-.746,12.409-.28,24.807-.715,37.211-1.212,2.726-.111,5.449-.314,8.173-.473,2.69-.161,5.387-.291,8.075-.5q10.351-.794,20.687-1.711c12-1.087,23.967-2.517,35.983-3.429,12.589-.957,25.2-1.526,37.8-2.314,5.689-.355,11.407-.793,17.057-1.546,6.459-.856,12.862-1.884,19.251-3.161,6.175-1.233,12.345-2.5,18.527-3.713,2.965-.585,5.945-1.115,8.938-1.535,3.388-.476,6.746-.964,10.093-1.661,1.61-.337,1.938-2.362,1.945-3.665a6.117,6.117,0,0,0-.359-2.155c-.234-.585-.723-1.519-1.544-1.487-6.031.216-12.06.437-18.088.729q-9.123.442-18.263.593c-11.821.2-23.663-.13-35.47-.541q3.022-.4,6.043-.8c7.234-.958,14.45-2.153,21.72-2.811,3.868-.351,7.75-.646,11.608-1.092,1.957-.224,3.9-.48,5.833-.855,2.079-.4,4.129-.952,6.172-1.5a1.907,1.907,0,0,0,1.495-.929,5.664,5.664,0,0,0,1-2.835c2.072-.607,2.5-3.486,2.514-5.217a8.683,8.683,0,0,0-.519-3.118c-.353-.886-1.031-2.142-2.231-2.149-6.276-.041-12.539-.412-18.815-.459-.736,0-1.474-.006-2.21,0-5.4.024-10.79.271-16.187.568Q507.462-.593,489.442.735c-5.581.4-11.157.876-16.743,1.219-6.832.418-13.649.746-20.486,1.028-11.439.469-22.9.682-34.339.929-13.124.287-26.234.671-39.35,1.31-12.146.593-24.282,1.365-36.421,2.1q-18.281,1.107-36.565,2.218c-12.491.765-24.991,1.348-37.493,1.93-6.325.3-12.658.406-18.986.6-5.991.187-11.985.256-17.977.365-11.794.215-23.589.367-35.385.533-23.795.332-47.58.8-71.374,1.279q-19.607.4-39.208.836c-6.667.148-13.337.427-20,.637-5.7.18-11.4.569-17.092.87q-9.1.481-18.191,1.028-5.407.319-10.823.645-2.349.143-4.706.282c-1.428.085-2.858.192-4.282.3C9,18.928,8,19.072,7,19.237a22.935,22.935,0,0,0-3.293,1,3.771,3.771,0,0,0-1.34,1.848,8.514,8.514,0,0,0-.539,3.034,8.427,8.427,0,0,0,.5,3.034l.579,1.109a2.01,2.01,0,0,0,1.592.986,36,36,0,0,0,3.73.847,2.05,2.05,0,0,0,1.6-.994,4.064,4.064,0,0,0,.37-.571c.666-.021,1.334-.022,2-.025.638,0,1.277-.008,1.919-.026q2.164-.055,4.321-.116,5.566-.148,11.131-.3c4.022-.11,8.04-.194,12.059-.278q-.624.054-1.246.1c-9.5.742-18.989,1.486-28.479,2.329a4.542,4.542,0,0,0-3.519,2.19A12.381,12.381,0,0,0,6.2,38.937q-2.5-.013-5-.022c-1.168,0-1.411,1.923-1.415,2.664S0,44.219,1.165,44.226c1.6.007,3.2.026,4.793.039A18.52,18.52,0,0,0,7.01,49.173q.635,1.217,1.269,2.433a4.428,4.428,0,0,0,3.494,2.159C20.753,52.971,29.737,52.271,38.723,51.579Z" transform="translate(0 0)" fill="#b6d5d4"/>
    <path id="Trazado_2207" data-name="Trazado 2207" d="M38.942,53.737c2.406-.186,4.83-.464,7.242-.557q3.376-.133,6.748-.269c12.321-.487,24.639-1.1,36.966-1.319,12.89-.236,25.786-.59,38.678-.677,13.157-.088,26.31-.2,39.464-.195q38.46.016,76.913-.051,38.2-.077,76.4-.379c12.64-.118,25.283-.461,37.919-.746,12.409-.28,24.807-.715,37.211-1.212,2.726-.111,5.448-.314,8.173-.473,2.69-.161,5.387-.291,8.075-.5q10.351-.794,20.687-1.711c12-1.087,23.967-2.517,35.983-3.429,12.589-.957,25.2-1.526,37.8-2.314,5.688-.355,11.407-.793,17.057-1.546,6.459-.856,12.862-1.884,19.251-3.161,6.175-1.233,12.346-2.5,18.527-3.713,2.964-.585,5.945-1.115,8.938-1.535,3.388-.476,6.746-.964,10.093-1.661,1.61-.337,1.938-2.362,1.945-3.665a6.113,6.113,0,0,0-.359-2.155c-.234-.585-.723-1.519-1.544-1.487-6.031.216-12.06.437-18.088.73q-9.124.442-18.263.593c-11.822.2-23.663-.13-35.47-.541q3.021-.4,6.043-.8c7.234-.958,14.45-2.153,21.72-2.811,3.869-.351,7.75-.646,11.608-1.092,1.957-.224,3.9-.48,5.833-.855,2.078-.4,4.129-.952,6.172-1.5a1.905,1.905,0,0,0,1.494-.929,5.665,5.665,0,0,0,1-2.835c2.071-.607,2.5-3.486,2.514-5.217a8.685,8.685,0,0,0-.518-3.118C564.8,1.726,564.121.47,562.921.464,556.645.423,550.382.051,544.106,0c-.736,0-1.474-.006-2.21,0-5.4.024-10.791.271-16.186.568q-18.028.994-36.049,2.322c-5.581.4-11.157.876-16.744,1.219-6.832.419-13.648.746-20.486,1.028-11.439.469-22.9.682-34.34.929-13.124.287-26.234.671-39.349,1.31-12.146.593-24.282,1.365-36.421,2.1q-18.281,1.107-36.566,2.218c-12.491.765-24.991,1.348-37.493,1.93-6.324.3-12.658.406-18.986.6-5.991.187-11.985.256-17.977.365-11.794.215-23.589.367-35.385.533-23.795.332-47.58.8-71.374,1.279q-19.606.4-39.209.836c-6.667.148-13.337.427-20,.637-5.7.18-11.4.569-17.092.87q-9.1.481-18.191,1.028-5.407.32-10.823.645-2.349.143-4.706.282c-1.428.085-2.858.192-4.282.3-1.018.077-2.018.22-3.022.386a22.934,22.934,0,0,0-3.293,1,3.77,3.77,0,0,0-1.341,1.848,8.52,8.52,0,0,0-.539,3.034,8.434,8.434,0,0,0,.5,3.034l.579,1.109a2.009,2.009,0,0,0,1.592.986,35.985,35.985,0,0,0,3.73.847,2.049,2.049,0,0,0,1.6-.994,4.084,4.084,0,0,0,.37-.571c.666-.021,1.334-.022,2-.025.638,0,1.277-.008,1.92-.026q2.164-.055,4.321-.116,5.565-.148,11.13-.3c4.022-.11,8.04-.194,12.059-.278q-.624.054-1.246.1c-9.5.742-18.989,1.486-28.479,2.329A4.542,4.542,0,0,0,8.6,35.572a12.38,12.38,0,0,0-2.185,5.522q-2.5-.013-5-.022C.247,41.067,0,42.995,0,43.736s.216,2.641,1.384,2.647c1.6.007,3.2.026,4.793.039A18.529,18.529,0,0,0,7.229,51.33q.636,1.217,1.269,2.433a4.428,4.428,0,0,0,3.493,2.159C20.972,55.128,29.956,54.428,38.942,53.737Z" transform="translate(590.448 58.319) rotate(180)" fill="#b6d5d4"/>
  </g>
</svg>
