<svg xmlns="http://www.w3.org/2000/svg" width="326.46" height="87.551" viewBox="0 0 326.46 87.551">
  <g id="Grupo_78272" data-name="Grupo 78272" transform="translate(-42.197 -673.713)">
    <path id="Trazado_2350" data-name="Trazado 2350" d="M18.665,46.295c1.15-.157,2.307-.4,3.46-.47,1.076-.069,2.151-.142,3.225-.21,5.889-.38,11.776-.872,17.668-1.012,6.162-.149,12.326-.406,18.489-.419,6.29-.013,12.578-.047,18.868.022q18.389.209,36.774.343c12.175.082,24.35.121,36.525.042,6.043-.043,12.086-.291,18.126-.486,5.932-.192,11.857-.524,17.786-.913,1.3-.087,2.6-.258,3.905-.388,1.286-.133,2.574-.238,3.859-.41,3.3-.447,6.59-.92,9.883-1.451,5.733-.928,11.448-2.166,17.189-2.935,6.015-.806,12.044-1.259,18.065-1.912a63.012,63.012,0,0,0,8.148-1.319A81.687,81.687,0,0,0,259.825,32c2.947-1.089,5.891-2.21,8.841-3.281,1.414-.516,2.837-.984,4.266-1.35a42.537,42.537,0,0,0,4.818-1.459c.768-.3.916-2.137.913-3.321a10.242,10.242,0,0,0-.181-1.96c-.115-.533-.353-1.384-.745-1.36-2.883.166-5.764.337-8.645.572q-4.36.355-8.729.447c-5.651.124,4.214-.627-1.433-1.061.962-.232.467-.778,1.429-1.011,3.454-.834-.269.528,1.849-.894,1.848-.3-1.846-1.391,0-1.777a20.473,20.473,0,0,0,2.785-.748,27.023,27.023,0,0,0,2.944-1.335q.47-.09.71-.836a8.451,8.451,0,0,0,.463-2.572c.988-.541,1.181-3.156,1.178-4.729a14.546,14.546,0,0,0-.262-2.837c-.173-.807-.5-1.952-1.077-1.964-3-.069-6-.438-9-.512C259.6.005,259.244,0,258.892,0c-2.582-.006-5.158.192-7.736.435q-8.615.812-17.225,1.928c-2.666.338-5.33.74-8,1.023-3.265.346-6.522.609-9.79.831-5.467.368-10.944.5-16.414.671-6.274.194-12.54.477-18.808.991-5.8.477-11.6,1.117-17.4,1.728q-8.735.913-17.473,1.83c-5.969.633-11.943,1.1-17.918,1.564-3.022.238-6.05.3-9.075.452-2.863.14-5.729.172-8.594.24-5.638.135-11.277.214-16.916.306-11.375.181-22.745.489-34.119.8q-9.373.262-18.743.562c-3.187.1-6.375.321-9.56.478-2.724.135-5.446.46-8.168.7-2.9.261-5.8.549-8.693.842-1.722.175-3.447.356-5.172.532-.748.079-1.5.154-2.249.233-.682.07-1.366.16-2.046.251a9.157,9.157,0,0,0-1.443.335,7.654,7.654,0,0,0-1.57.895,4.106,4.106,0,0,0-.633,1.673A14.091,14.091,0,0,0,.9,22.062a14.125,14.125,0,0,0,.255,2.76l.282,1.011c.174.535.431.836.765.9a11.06,11.06,0,0,0,1.787.789c.332-.065.586-.363.759-.895a4.851,4.851,0,0,0,.174-.517c.318-.016.638-.013.957-.012s.61,0,.918-.015Q7.833,26.048,8.864,26c1.773-.071-3.7,2.325-1.922,2.255,1.923-.08.013-.677,1.935-.733-.2.031.2.621.006.65-4.538.626,1.4-1.234-3.135-.516q-1.1.22-1.672,1.972A17.941,17.941,0,0,0,3.057,34.64q-1.2-.025-2.392-.046C.106,34.584,0,36.335,0,37.008s.115,2.4.674,2.413c.764.015,1.528.04,2.292.06a30.565,30.565,0,0,0,.525,4.466q.309,1.11.618,2.217.58,1.755,1.68,1.98C10.079,47.468,14.372,46.878,18.665,46.295Z" transform="matrix(1, 0.017, -0.017, 1, 54.24, 673.713)" fill="#fff"/>
    <path id="Trazado_2351" data-name="Trazado 2351" d="M21.833,51.59c1.343-.174,2.7-.441,4.042-.521,1.257-.076,2.514-.156,3.768-.232,6.88-.418,13.758-.962,20.642-1.113,7.2-.16,14.4-.441,21.6-.45,7.349-.009,14.7-.04,22.045.044q21.485.251,42.965.419c14.225.1,28.45.159,42.674.083,7.06-.042,14.121-.313,21.178-.525,6.931-.208,13.854-.573,20.78-1,1.522-.1,3.042-.285,4.563-.429,1.5-.147,3.007-.263,4.508-.454,3.852-.5,7.7-1.021,11.546-1.609,6.7-1.03,13.374-2.407,20.081-3.259,7.027-.894,14.071-1.394,21.105-2.116a76.756,76.756,0,0,0,9.519-1.465,98.732,98.732,0,0,0,10.736-3.089c3.442-1.213,6.882-2.461,10.328-3.654,1.652-.575,3.315-1.1,4.984-1.5a51.4,51.4,0,0,0,5.628-1.623c.9-.332,1.069-2.384,1.065-3.706a10.94,10.94,0,0,0-.213-2.188c-.134-.595-.413-1.545-.871-1.518-3.368.182-6.734.37-10.1.629q-5.094.392-10.2.49c-6.6.133,4.923-.7-1.675-1.186,1.124-.258.545-.869,1.669-1.127,4.035-.927-.314.589,2.16-1,2.159-.333-2.158-1.555-.005-1.983a24.792,24.792,0,0,0,3.254-.832,32.283,32.283,0,0,0,3.439-1.487q.549-.1.83-.933a9.058,9.058,0,0,0,.54-2.87c1.154-.6,1.378-3.521,1.374-5.278a15.542,15.542,0,0,0-.308-3.167c-.2-.9-.588-2.179-1.259-2.193-3.506-.08-7.007-.495-10.513-.581-.411-.009-.823-.015-1.235-.016-3.016-.009-6.027.209-9.039.477q-10.066.9-20.124,2.135c-3.115.375-6.228.821-9.346,1.134-3.814.383-7.62.674-11.438.918-6.387.406-12.786.552-19.178.733-7.33.211-14.651.52-21.974,1.088-6.782.527-13.557,1.236-20.334,1.912q-10.205,1.011-20.414,2.026c-6.973.7-13.953,1.214-20.934,1.728-3.531.263-7.069.334-10.6.5-3.345.153-6.694.186-10.04.26-6.587.146-13.176.228-19.764.325-13.291.191-26.575.523-39.864.861q-10.95.283-21.9.608c-3.723.109-7.448.351-11.169.524-3.182.148-6.362.508-9.543.778-3.385.288-6.771.607-10.156.932-2.012.194-4.027.394-6.042.589-.874.087-1.751.17-2.627.258-.8.077-1.6.177-2.39.279a11.123,11.123,0,0,0-1.686.373,9.04,9.04,0,0,0-1.834,1,4.456,4.456,0,0,0-.738,1.867,15.037,15.037,0,0,0-.283,3.075,15.082,15.082,0,0,0,.3,3.081l.33,1.128c.2.6.5.933.895,1.01a13.251,13.251,0,0,0,2.089.883c.389-.072.685-.4.886-1a5.245,5.245,0,0,0,.2-.577c.372-.017.745-.014,1.118-.013.357,0,.713,0,1.072-.015q1.208-.042,2.413-.091c2.072-.078-4.316,2.591-2.244,2.516,2.246-.087.015-.756,2.26-.816-.232.034.238.694.007.726-5.3.695,1.633-1.376-3.663-.579q-1.286.244-1.953,2.2A19.236,19.236,0,0,0,3.59,38.566q-1.4-.029-2.8-.053C.142,38.5.018,40.454.02,41.206s.136,2.68.789,2.694c.892.017,1.786.046,2.678.069A32.674,32.674,0,0,0,4.1,48.955q.362,1.239.723,2.476.679,1.96,1.964,2.212C11.8,52.892,16.817,52.237,21.833,51.59Z" transform="matrix(1, 0.017, -0.017, 1, 43.113, 701.947)" fill="#fff"/>
  </g>
</svg>
