<svg xmlns="http://www.w3.org/2000/svg" width="426.655" height="67.608" viewBox="0 0 426.655 67.608">
  <g id="Grupo_77927" data-name="Grupo 77927" transform="matrix(1, 0.017, -0.017, 1, -2013.279, -347.206)">
    <path id="Trazado_2206" data-name="Trazado 2206" d="M479.542,523.007c1.733-.181,3.479-.458,5.217-.544q2.433-.122,4.863-.248c8.879-.448,17.754-1.023,26.637-1.2,9.29-.185,18.583-.494,27.874-.525,9.483-.031,18.962-.085,28.443-.023q27.721.191,55.434.3,27.53.094,55.06-.046c9.109-.065,18.22-.363,27.327-.6,8.943-.233,17.876-.627,26.815-1.086,1.964-.1,3.926-.3,5.888-.452,1.938-.154,3.882-.277,5.818-.477,4.971-.517,9.936-1.065,14.9-1.678,8.645-1.071,17.264-2.5,25.92-3.387,9.069-.934,18.159-1.465,27.238-2.224a123.779,123.779,0,0,0,12.287-1.523c4.652-.857,9.262-1.892,13.862-3.184,4.445-1.248,8.888-2.532,13.338-3.76,2.134-.592,4.28-1.128,6.436-1.549,2.44-.477,4.858-.967,7.267-1.674,1.159-.342,1.387-2.436,1.387-3.785a8.9,8.9,0,0,0-.268-2.232c-.171-.606-.527-1.575-1.119-1.546-4.346.2-8.69.4-13.034.673q-6.574.416-13.16.531c-8.519.156-17.056-.242-25.567-.721q2.176-.4,4.352-.8c5.21-.959,10.406-2.163,15.643-2.811,2.786-.346,5.583-.634,8.362-1.077a39.221,39.221,0,0,0,4.2-.859c1.5-.409,2.972-.967,4.442-1.528a1.4,1.4,0,0,0,1.073-.955,7.587,7.587,0,0,0,.706-2.93c1.491-.619,1.79-3.6,1.79-5.389a12.633,12.633,0,0,0-.387-3.23c-.258-.919-.752-2.222-1.617-2.234-4.523-.071-9.039-.484-13.562-.561-.531-.008-1.062-.013-1.593-.013-3.892,0-7.776.231-11.664.515q-12.99.947-25.972,2.24c-4.02.392-8.038.857-12.063,1.186-4.922.4-9.834.711-14.761.971-8.242.433-16.5.6-24.746.807-9.458.238-18.905.575-28.356,1.177-8.752.559-17.5,1.3-26.241,2.013q-13.171,1.063-26.345,2.13c-9,.736-18.006,1.282-27.015,1.828-4.557.279-9.121.363-13.682.538-4.317.167-8.637.211-12.956.3-8.5.169-17,.273-25.5.392-17.149.236-34.29.615-51.437,1q-14.13.322-28.256.688c-4.8.123-9.611.381-14.412.569-4.106.16-8.211.538-12.315.823-4.369.3-8.738.64-13.107.982q-3.9.306-7.8.619c-1.128.092-2.259.179-3.391.271-1.029.081-2.059.186-3.085.292a17.667,17.667,0,0,0-2.177.386,12.963,12.963,0,0,0-2.37,1.023,4.1,4.1,0,0,0-.958,1.907,13.306,13.306,0,0,0,0,6.281l.422,1.15a1.518,1.518,0,0,0,1.151,1.027,19.688,19.688,0,0,0,2.692.894,1.508,1.508,0,0,0,1.147-1.021,4.679,4.679,0,0,0,.264-.59c.48-.019.962-.017,1.443-.017.46,0,.92,0,1.383-.019q1.559-.047,3.114-.1,4.011-.128,8.021-.256c2.9-.1,5.794-.165,8.691-.233-.3.035-.6.069-.9.1-6.842.725-13.68,1.453-20.516,2.282a3.341,3.341,0,0,0-2.527,2.251,16.26,16.26,0,0,0-1.552,5.706q-1.8-.025-3.606-.046c-.842-.01-1.009,1.984-1.009,2.751s.167,2.734,1.009,2.747c1.151.015,2.3.042,3.455.063a26.669,26.669,0,0,0,.778,5.085q.463,1.263.925,2.524a3.341,3.341,0,0,0,2.527,2.251C466.6,524.366,473.068,523.682,479.542,523.007Z" transform="translate(1568.567 -157.663)" fill="#fff"/>
    <path id="Trazado_2207" data-name="Trazado 2207" d="M28.109,53.344c1.733-.181,3.479-.458,5.217-.544q2.433-.122,4.863-.248c8.879-.448,17.754-1.023,26.637-1.2,9.29-.185,18.583-.494,27.874-.525,9.482-.031,18.962-.085,28.443-.023q27.72.191,55.434.3,27.53.094,55.06-.046c9.109-.065,18.22-.363,27.327-.6,8.943-.233,17.876-.627,26.815-1.086,1.964-.1,3.926-.3,5.888-.452,1.938-.154,3.881-.277,5.818-.477,4.971-.517,9.936-1.065,14.9-1.678,8.645-1.071,17.263-2.5,25.92-3.387,9.07-.934,18.159-1.465,27.238-2.224a123.8,123.8,0,0,0,12.288-1.523c4.652-.857,9.262-1.892,13.862-3.184,4.446-1.248,8.888-2.532,13.338-3.76,2.134-.592,4.28-1.128,6.436-1.549,2.44-.477,4.858-.967,7.267-1.674,1.159-.342,1.386-2.436,1.386-3.785a8.9,8.9,0,0,0-.268-2.232c-.171-.606-.527-1.575-1.119-1.546-4.346.2-8.691.4-13.034.673q-6.574.416-13.16.531c-8.519.156-17.055-.242-25.567-.721q2.176-.4,4.352-.8c5.21-.959,10.406-2.163,15.643-2.811,2.787-.346,5.583-.634,8.362-1.077a39.205,39.205,0,0,0,4.2-.859c1.5-.408,2.972-.967,4.442-1.528a1.4,1.4,0,0,0,1.073-.955,7.592,7.592,0,0,0,.706-2.93c1.49-.619,1.79-3.6,1.79-5.389a12.635,12.635,0,0,0-.387-3.23c-.258-.919-.752-2.222-1.617-2.234C401.018.5,396.5.09,391.979.013Q391.183,0,390.386,0c-3.892,0-7.776.231-11.664.515q-12.99.947-25.972,2.24c-4.02.392-8.038.857-12.063,1.186-4.922.4-9.834.711-14.761.971-8.243.433-16.5.6-24.746.807-9.458.238-18.905.575-28.355,1.177-8.752.559-17.5,1.3-26.241,2.013q-13.171,1.063-26.345,2.13c-9,.736-18.006,1.282-27.015,1.828-4.557.279-9.122.363-13.682.538-4.317.167-8.637.211-12.956.3-8.5.169-17,.273-25.5.392-17.149.236-34.29.615-51.437,1q-14.13.322-28.256.688c-4.8.123-9.611.381-14.412.569-4.106.16-8.211.538-12.315.823-4.369.3-8.738.64-13.107.982q-3.9.306-7.8.619c-1.128.092-2.259.179-3.391.271-1.029.081-2.059.186-3.085.292a17.668,17.668,0,0,0-2.177.386,12.966,12.966,0,0,0-2.369,1.023,4.1,4.1,0,0,0-.959,1.907,13.307,13.307,0,0,0,0,6.281l.422,1.15a1.517,1.517,0,0,0,1.151,1.027A19.681,19.681,0,0,0,6.044,32a1.507,1.507,0,0,0,1.147-1.021,4.68,4.68,0,0,0,.264-.59c.48-.019.961-.017,1.443-.017.46,0,.92,0,1.383-.019q1.559-.047,3.114-.1,4.01-.128,8.021-.256c2.9-.1,5.794-.165,8.69-.233-.3.035-.6.069-.9.1-6.842.725-13.68,1.453-20.516,2.282A3.341,3.341,0,0,0,6.167,34.4,16.261,16.261,0,0,0,4.615,40.11q-1.8-.025-3.606-.046C.167,40.054,0,42.048,0,42.815s.167,2.734,1.009,2.747c1.151.015,2.3.042,3.455.063a26.678,26.678,0,0,0,.778,5.085q.463,1.263.925,2.524a3.341,3.341,0,0,0,2.527,2.251C15.163,54.7,21.635,54.019,28.109,53.344Z" transform="translate(2445.834 372.185) rotate(180)" fill="#fff"/>
  </g>
</svg>
