<svg xmlns="http://www.w3.org/2000/svg" width="433.682" height="93.729" viewBox="0 0 433.682 93.729">
  <g id="Grupo_77933" data-name="Grupo 77933" transform="translate(2431.101 511.021) rotate(-177)">
    <path id="Trazado_2206" data-name="Trazado 2206" d="M479.89,533.662c1.755-.218,3.522-.55,5.282-.653,1.642-.1,3.284-.2,4.923-.3,8.989-.538,17.974-1.228,26.967-1.438,9.4-.223,18.813-.593,28.219-.63,9.6-.037,19.2-.1,28.795-.028q28.064.229,56.121.355c18.581.075,37.161.09,55.742-.055,9.222-.078,18.446-.435,27.665-.72,9.053-.28,18.1-.753,27.147-1.3,1.989-.122,3.974-.36,5.961-.542,1.962-.185,3.93-.333,5.89-.573,5.033-.62,10.059-1.278,15.087-2.013,8.752-1.285,17.477-3,26.241-4.063,9.182-1.12,18.384-1.758,27.575-2.668a106.739,106.739,0,0,0,12.439-1.828,136.258,136.258,0,0,0,14.034-3.821c4.5-1.5,9-3.038,13.5-4.511,2.16-.71,4.333-1.353,6.515-1.858a70.958,70.958,0,0,0,7.357-2.008c1.173-.41,1.4-2.923,1.4-4.541a12.554,12.554,0,0,0-.271-2.678c-.173-.727-.534-1.89-1.133-1.855-4.4.235-8.8.478-13.2.808q-6.655.5-13.323.638c-8.625.188-17.267-.29-25.883-.865,1.469-.32,2.937-.635,4.406-.955,5.274-1.15,10.535-2.6,15.837-3.373,2.821-.415,5.652-.76,8.465-1.293a34.339,34.339,0,0,0,4.253-1.03,44.02,44.02,0,0,0,4.5-1.833q.717-.124,1.086-1.145a10.5,10.5,0,0,0,.715-3.515c1.509-.743,1.813-4.316,1.813-6.466a17.826,17.826,0,0,0-.392-3.876c-.261-1.1-.761-2.665-1.637-2.68-4.579-.085-9.151-.58-13.73-.673-.537-.01-1.076-.015-1.612-.015-3.94,0-7.873.277-11.808.618q-13.151,1.136-26.294,2.688c-4.07.47-8.137,1.028-12.212,1.423-4.983.483-9.956.853-14.944,1.165-8.344.52-16.7.723-25.052.968-9.575.285-19.139.69-28.707,1.413-8.86.67-17.712,1.563-26.566,2.415q-13.334,1.275-26.671,2.555c-9.111.883-18.229,1.538-27.349,2.193-4.614.335-9.234.435-13.851.645-4.371.2-8.744.253-13.116.355-8.6.2-17.211.328-25.817.47-17.361.283-34.714.738-52.074,1.2q-14.3.386-28.606.825c-4.864.148-9.73.458-14.591.683-4.157.192-8.312.645-12.468.988-4.423.365-8.846.768-13.269,1.178-2.629.245-5.262.5-7.894.742-1.142.11-2.287.215-3.433.325-1.041.1-2.084.223-3.123.35a15.373,15.373,0,0,0-2.2.463,12.151,12.151,0,0,0-2.4,1.228,5.3,5.3,0,0,0-.97,2.288,18.844,18.844,0,0,0,0,7.536l.427,1.38c.265.73.655,1.14,1.166,1.233a17.853,17.853,0,0,0,2.725,1.073c.508-.09.9-.5,1.161-1.225a6.191,6.191,0,0,0,.268-.708c.486-.022.974-.02,1.461-.02.466,0,.932,0,1.4-.022q1.578-.056,3.152-.12,4.06-.154,8.12-.308c2.934-.115,5.865-.2,8.8-.28-.3.042-.607.083-.908.122-6.927.87-13.849,1.743-20.77,2.738q-1.681.3-2.558,2.7a22.375,22.375,0,0,0-1.571,6.846q-1.825-.03-3.651-.055c-.853-.013-1.021,2.38-1.021,3.3s.169,3.28,1.021,3.3c1.166.018,2.332.05,3.5.075a37.527,37.527,0,0,0,.788,6.1q.469,1.515.936,3.028.88,2.4,2.558,2.7C466.784,535.293,473.336,534.473,479.89,533.662Z" transform="translate(1568.567 -157.663)" fill="#fff"/>
    <path id="Trazado_2207" data-name="Trazado 2207" d="M28.457,64c1.755-.218,3.522-.55,5.282-.653,1.642-.1,3.284-.2,4.923-.3,8.988-.538,17.974-1.228,26.967-1.438,9.4-.223,18.813-.593,28.219-.63,9.6-.038,19.2-.1,28.795-.028q28.063.229,56.121.355c18.58.075,37.161.09,55.742-.055,9.222-.078,18.446-.435,27.665-.72,9.054-.28,18.1-.753,27.147-1.3,1.989-.122,3.974-.36,5.961-.543,1.962-.185,3.929-.333,5.89-.573,5.033-.62,10.059-1.278,15.088-2.013,8.752-1.285,17.477-3,26.241-4.063,9.182-1.12,18.384-1.758,27.575-2.668a106.753,106.753,0,0,0,12.44-1.828,136.236,136.236,0,0,0,14.033-3.821c4.5-1.5,9-3.038,13.5-4.511,2.16-.71,4.333-1.353,6.515-1.858a70.947,70.947,0,0,0,7.357-2.008c1.173-.41,1.4-2.923,1.4-4.541a12.558,12.558,0,0,0-.271-2.678c-.173-.728-.534-1.89-1.133-1.855-4.4.235-8.8.478-13.195.808q-6.656.5-13.323.638c-8.625.188-17.267-.29-25.884-.865,1.469-.32,2.937-.635,4.406-.955,5.274-1.15,10.535-2.6,15.837-3.373,2.821-.415,5.652-.76,8.465-1.293a34.317,34.317,0,0,0,4.253-1.03,43.979,43.979,0,0,0,4.5-1.833q.717-.124,1.086-1.145a10.507,10.507,0,0,0,.715-3.516c1.509-.743,1.812-4.316,1.812-6.466a17.833,17.833,0,0,0-.391-3.876c-.262-1.1-.761-2.665-1.637-2.68C405.982.6,401.41.107,396.831.015Q396.025,0,395.218,0c-3.94,0-7.873.277-11.808.618Q370.26,1.754,357.117,3.305c-4.07.47-8.137,1.028-12.212,1.423-4.983.483-9.956.853-14.944,1.165-8.345.52-16.7.723-25.053.968-9.575.285-19.139.69-28.706,1.413-8.86.67-17.712,1.563-26.566,2.415q-13.334,1.275-26.671,2.555c-9.111.883-18.229,1.538-27.349,2.193-4.613.335-9.234.435-13.851.645-4.37.2-8.744.253-13.116.355-8.6.2-17.211.328-25.817.47-17.361.283-34.714.738-52.074,1.2q-14.3.386-28.606.825c-4.864.148-9.73.458-14.591.683-4.157.192-8.312.645-12.468.988-4.423.365-8.846.768-13.269,1.178-2.629.245-5.262.5-7.894.743-1.142.11-2.287.215-3.433.325-1.042.1-2.085.223-3.123.35a15.379,15.379,0,0,0-2.2.463,12.154,12.154,0,0,0-2.4,1.228,5.3,5.3,0,0,0-.97,2.288,18.843,18.843,0,0,0,0,7.536l.427,1.38c.265.73.655,1.14,1.165,1.233A17.842,17.842,0,0,0,6.119,38.4c.508-.09.9-.5,1.161-1.225a6.176,6.176,0,0,0,.268-.708c.486-.022.973-.02,1.461-.02.466,0,.932,0,1.4-.022q1.579-.056,3.152-.12,4.06-.154,8.12-.308c2.934-.115,5.865-.2,8.8-.28-.3.042-.607.083-.908.122-6.927.87-13.849,1.743-20.77,2.738q-1.681.3-2.558,2.7a22.375,22.375,0,0,0-1.571,6.846q-1.825-.03-3.651-.055C.169,48.054,0,50.447,0,51.368s.169,3.281,1.021,3.3c1.165.018,2.332.05,3.5.075a37.532,37.532,0,0,0,.788,6.1q.469,1.515.936,3.028.88,2.4,2.558,2.7C15.351,65.63,21.9,64.809,28.457,64Z" transform="translate(2451.035 383.269) rotate(180)" fill="#fff"/>
  </g>
</svg>
