<svg xmlns="http://www.w3.org/2000/svg" width="29.079" height="35.076" viewBox="0 0 29.079 35.076">
  <g id="Grupo_78271" data-name="Grupo 78271" transform="translate(145.393 575.508) rotate(-107)">
    <path id="Trazado_1898" data-name="Trazado 1898" d="M566.139,31.194q1.253-1.9,2.525-3.789.613-.909,1.232-1.818a2.641,2.641,0,0,0,.437-2.415,1.085,1.085,0,0,0-1.032-.8,2.6,2.6,0,0,0-2.175,1.09q-.672.866-1.341,1.735-1.451,1.884-2.884,3.781a55.265,55.265,0,0,0-4.5,8.088c-.526,1.019.857,2.251,1.684,1.292q1.517-1.761,3.052-3.505a33.705,33.705,0,0,0,3-3.657" fill="#e52441"/>
    <path id="Trazado_1899" data-name="Trazado 1899" d="M576.415,31.016c-1.143-.705-2.87.122-4.027.534a31.119,31.119,0,0,0-3.841,1.656,19.909,19.909,0,0,0-5.866,5.43c-.507.635.157,1.854.958,1.27a27.923,27.923,0,0,1,3.234-2.04c1.061-.571,2.2-.986,3.245-1.581a26.661,26.661,0,0,1,3.241-1.579c1.148-.459,2.941-.626,3.578-1.768a1.436,1.436,0,0,0-.522-1.922" transform="translate(1.073 2.131)" fill="#e52441"/>
    <path id="Trazado_1900" data-name="Trazado 1900" d="M568.247,46.155l.931-.016,2.175-.036c1.345-.024,2.695-.016,4.038-.07a31.152,31.152,0,0,0,4.04-.634l2.134-.375a6.409,6.409,0,0,0,2-.5.812.812,0,0,0-.187-1.475,8.734,8.734,0,0,0-2.69-.078l-2.8.065a19.687,19.687,0,0,0-2.853.161c-.965.167-1.927.351-2.892.527l-2.739.5a16.921,16.921,0,0,0-2.614.508,1.116,1.116,0,0,0-.813,1.319.93.93,0,0,0,1.182.671.7.7,0,0,0,.463-.548h0l.622-.011" transform="translate(1.948 5.226)" fill="#e52441"/>
  </g>
</svg>
