<svg xmlns="http://www.w3.org/2000/svg" width="100.937" height="42.52" viewBox="0 0 100.937 42.52">
  <path id="Trazado_9089" data-name="Trazado 9089" d="M484.5,317.718c2.2.4,4.45.69,6.6,1.21,4.582,1.108,9.17,2.224,13.642,3.545a21.448,21.448,0,0,1,8.793,4.924c4.177,3.968,4.17,8.4-.039,12.347a26.3,26.3,0,0,1-7.627,4.667,75.373,75.373,0,0,1-20.086,5.153,163.559,163.559,0,0,1-37.178.672,77.513,77.513,0,0,1-18.244-3.722,29.988,29.988,0,0,1-7.485-3.661c-4.886-3.471-5.681-7.954-2.151-12.216a24.391,24.391,0,0,1,7.374-5.625,82.579,82.579,0,0,1,24.949-8.308,131.66,131.66,0,0,1,43.379-.573c1.159.182,2.3.429,3.427.71,1.655.413,2.2.911,1.951,1.638s-1.1.845-2.812.6q-5.7-.834-11.437-1.534a25.205,25.205,0,0,0-3.013-.018ZM464,348.587c5.763-.356,11.551-.573,17.284-1.1a79.505,79.505,0,0,0,20.666-4.424,25.1,25.1,0,0,0,8.013-4.294,10.952,10.952,0,0,0,2.824-3.572c1.187-2.8-.514-5.11-3.056-7.118a22.055,22.055,0,0,0-7.253-3.582,118.656,118.656,0,0,0-44.857-5.038c-1.776.145-3.553.652-5.4.143a3.448,3.448,0,0,0-1.37.191,80.122,80.122,0,0,0-19.528,6.668,26.735,26.735,0,0,0-6.793,4.594c-3.865,3.821-3.264,7.577,1.75,10.578a23.956,23.956,0,0,0,4.156,2.013,65.984,65.984,0,0,0,7.006,2.145C446.065,347.843,454.982,348.352,464,348.587Z" transform="translate(-433.904 -286.606) rotate(-3)" fill="#e52441" stroke="#fff" stroke-width="1"/>
</svg>
