<svg xmlns="http://www.w3.org/2000/svg" width="288.656" height="29.151" viewBox="0 0 288.656 29.151">
  <path id="Trazado_2401" data-name="Trazado 2401" d="M352.828,293a9.746,9.746,0,0,1-.943-.532,13.176,13.176,0,0,1-1.419-1.483c-.592-.806-1.122-1.641-1.637-2.5-.667-1.117-1.292-2.246-2.035-3.314-.289-.414-.568-.834-.894-1.222a5.8,5.8,0,0,0-1.4-1.2,4.31,4.31,0,0,0-2.038-.485,5.772,5.772,0,0,0-1.026.17,2.576,2.576,0,0,0-1.129.658,6.688,6.688,0,0,0-1.57,2.682c-.224.552-.434,1.11-.65,1.665-.34.876-.7,1.746-1.062,2.613s-.783,1.711-1.2,2.556a13.213,13.213,0,0,1-1.21,1.946,8.614,8.614,0,0,1-.791.832l-.088.052c-.163.051-.325.093-.491.129-.041,0-.082,0-.124,0s-.078-.02-.117-.032a8.043,8.043,0,0,1-.7-.427c-.194-.183-.373-.37-.546-.569a11.391,11.391,0,0,1-.711-1.189c-.437-1.153-.771-2.354-1.142-3.528a26.9,26.9,0,0,0-1.845-4.774,4.714,4.714,0,0,0-1.89-2.107,3.034,3.034,0,0,0-2.188-.235c-.3.125-.6.251-.9.383-.251.189-.5.382-.751.576a4.365,4.365,0,0,0-.937,1.7c-.1.286-.155.584-.273.863l-.364.867c-.5,1.047-1,2.089-1.548,3.111-.313.587-.627,1.176-.941,1.762-.381.714-.8,1.411-1.22,2.1a20.31,20.31,0,0,1-1.316,1.891,13.21,13.21,0,0,1-1.645,1.78c-.228.145-.456.275-.695.4-.2.065-.391.12-.589.165h-.028c-.085-.046-.169-.1-.252-.15l-.027-.027a14.551,14.551,0,0,1-1.058-2.065c-.772-1.876-1.477-3.78-2.229-5.665-.357-.9-.775-1.765-1.189-2.638a9.168,9.168,0,0,0-1.42-2.284,6.607,6.607,0,0,0-1.021-.918,3.481,3.481,0,0,0-1.223-.654,3.268,3.268,0,0,0-1.537-.071,3.713,3.713,0,0,0-1.526.806,8.891,8.891,0,0,0-2,3.2c-.332.687-.683,1.364-1.032,2.041-.324.624-.681,1.23-1.027,1.841a33.064,33.064,0,0,1-2.327,3.61c-.319.406-.646.8-.988,1.191a9.49,9.49,0,0,1-1.147,1.067,11.573,11.573,0,0,1-1.493.935c-.183.059-.365.11-.551.151-.228.005-.45,0-.674-.016-.128-.028-.256-.063-.382-.1l-.025-.014a6.543,6.543,0,0,1-.46-.488c-.191-.266-.378-.535-.558-.811a12.91,12.91,0,0,1-.845-1.688c-.176-.384-.343-.767-.509-1.155-.43-1.009-.857-2.021-1.291-3.028-.277-.66-.553-1.318-.844-1.971a22.618,22.618,0,0,0-1.424-2.59,9.516,9.516,0,0,0-1.528-1.877,8.749,8.749,0,0,0-1.077-.809,5.627,5.627,0,0,0-1.232-.546l-.927-.125a3.163,3.163,0,0,0-1.422.372,8.39,8.39,0,0,0-1.038.735l-.22.244a5.9,5.9,0,0,0-.53.726c-.372.567-.728,1.151-1.063,1.739-.631,1.107-1.251,2.223-1.934,3.3l-1.306,2.065q-.7,1.1-1.413,2.177c-.468.706-.984,1.378-1.5,2.049-.346.439-.7.865-1.077,1.282a9.24,9.24,0,0,1-1.08,1,12.442,12.442,0,0,1-1.731,1.054,7.893,7.893,0,0,1-.864.243,8.439,8.439,0,0,1-1.191-.007,7.185,7.185,0,0,1-.753-.211,8.217,8.217,0,0,1-.7-.438,11.972,11.972,0,0,1-1.025-1c-.453-.654-.833-1.345-1.226-2.04-.478-.852-.884-1.741-1.3-2.624s-.847-1.749-1.268-2.627a15.411,15.411,0,0,0-1.8-2.863,12.463,12.463,0,0,0-.939-1.071,9.353,9.353,0,0,0-1.114-.879,5.464,5.464,0,0,0-1.263-.667,2.794,2.794,0,0,0-.831-.257,4.668,4.668,0,0,0-.893-.083c-.128.016-.257.032-.387.051a3.654,3.654,0,0,0-2.1.85,11,11,0,0,0-1.737,2.669c-.73,1.331-1.545,2.616-2.332,3.912-.474.777-.978,1.536-1.466,2.3-.737,1.155-1.493,2.3-2.31,3.4a18.7,18.7,0,0,1-2.517,2.682,8.32,8.32,0,0,1-.8.464,5.967,5.967,0,0,1-.673.181c-.061,0-.122,0-.183,0s-.125-.03-.187-.049l-.031-.021c-.192-.186-.372-.376-.548-.579a43.211,43.211,0,0,1-2.982-5.3c-.661-1.3-1.291-2.615-2.025-3.875-.443-.761-.867-1.524-1.38-2.242a9.38,9.38,0,0,0-2.169-2.108c-.114-.058-.23-.115-.343-.172a1.546,1.546,0,0,0-.747-.227c-.158-.023-.315-.043-.474-.065a1.783,1.783,0,0,0-.9.244,3.592,3.592,0,0,0-1.675,2.043c-.288.813-.573,1.628-.873,2.437-.681,1.827-1.385,3.643-2.133,5.444-.306.7-.639,1.385-.963,2.076A14.249,14.249,0,0,1,216.3,302a12.534,12.534,0,0,1-1.04,1.1c-.074.051-.152.1-.232.142l-.011,0H214.8a5.212,5.212,0,0,1-.62-.166c-.043-.024-.086-.05-.128-.077a12.9,12.9,0,0,1-1.154-1.262,37.969,37.969,0,0,1-2.443-4.131q-.587-1.094-1.163-2.194c-.426-.813-.907-1.6-1.386-2.381a9.483,9.483,0,0,0-2.838-3.065,3.465,3.465,0,0,0-.738-.273,2.319,2.319,0,0,0-1.292.094c-.139.06-.28.119-.421.179-.232.165-.462.337-.686.515a3.33,3.33,0,0,0-.672,1.136c-.6,1.5-1.119,3.037-1.655,4.564-.628,1.785-1.283,3.577-1.988,5.332-.179.423-.359.846-.537,1.269.046-.109.092-.219.138-.329-.25.587-.512,1.163-.806,1.729a8.57,8.57,0,0,1-.763,1.166,8.034,8.034,0,0,1-.725.745c-.072.044-.146.087-.221.126a3.127,3.127,0,0,1-.313.086l-.133,0-.038-.01c-.061-.035-.123-.071-.183-.11l-.047-.046a34.531,34.531,0,0,1-2.116-4.368c-.5-1.286-1-2.572-1.46-3.873q-.443-1.238-.887-2.478c-.246-.686-.474-1.38-.764-2.048a7.4,7.4,0,0,0-.6-1.121,4.743,4.743,0,0,0-1.136-1.085,1.786,1.786,0,0,0-1.154-.478,1.69,1.69,0,0,0-1.409.809,7.472,7.472,0,0,0-.539.817c-.124.28-.237.565-.343.854-.141.366-.214.763-.336,1.135q-.257.79-.517,1.579c-.455,1.391-.971,2.771-1.515,4.127a19.06,19.06,0,0,1-2,3.682,9.118,9.118,0,0,1-.964,1,3.507,3.507,0,0,1-.327.187c-.066.022-.132.042-.2.06l-.005,0c-.053-.049-.1-.1-.151-.151a55.832,55.832,0,0,1-2.607-5.17c-.517-1.082-1.03-2.164-1.6-3.222a13.859,13.859,0,0,0-.768-1.209,11.842,11.842,0,0,0-.754-1.024,4.672,4.672,0,0,0-1.962-1.434,3.085,3.085,0,0,0-2.457,0c-.119.06-.237.12-.354.18a4.513,4.513,0,0,0-.687.586c-.088.115-.178.229-.265.344a2.128,2.128,0,0,0-.45.7,11.072,11.072,0,0,0-.536,1.58c-.1.31-.194.622-.3.929-.578,1.709-1.18,3.411-1.853,5.085a15.219,15.219,0,0,1-1.289,2.412,3.7,3.7,0,0,1-.285.282,4.91,4.91,0,0,1-.509.309l-.047.012h-.058a3.425,3.425,0,0,1-.417-.119c-.073-.037-.146-.078-.215-.121a7.266,7.266,0,0,1-.538-.586c-.408-.553-.8-1.111-1.156-1.7-.254-.418-.506-.834-.766-1.247q-.727-1.147-1.453-2.3a23.513,23.513,0,0,0-3.068-3.979,5.266,5.266,0,0,0-2.078-1.257,4.038,4.038,0,0,0-1.193-.146,2.578,2.578,0,0,0-1.256.321,7.463,7.463,0,0,0-.694.507,10.271,10.271,0,0,0-.785,1.06c-.058.126-.115.252-.174.38a4.487,4.487,0,0,0-.319.868c-.063.2-.12.406-.183.607-.229.737-.46,1.47-.686,2.207-.545,1.764-1.118,3.523-1.8,5.238a18.453,18.453,0,0,1-1.012,2.051c-.051-.1-.1-.21-.151-.316-.717-1.8-1.365-3.622-2.036-5.435q-1.039-2.806-2.223-5.557c-.2-.476-.426-.946-.654-1.411-.256-.52-.571-1.011-.859-1.512a3.436,3.436,0,0,0-1.864-1.731,2.425,2.425,0,0,0-1.233-.021c-.244.087-.487.187-.725.292a1.642,1.642,0,0,0-.588.588,3.428,3.428,0,0,0-.457,1.007c-.175.562-.3,1.144-.427,1.717-.177.769-.388,1.535-.606,2.3a45.61,45.61,0,0,1-1.456,4.487,14.6,14.6,0,0,1-1.354,2.59,9.529,9.529,0,0,1-.94,1.008c-.075.05-.153.095-.233.137-.069.022-.139.04-.209.055a2.776,2.776,0,0,1-.328,0l-.169-.04-.072-.043c-.243-.231-.47-.462-.69-.711-.554-.792-1.074-1.613-1.6-2.425-.326-.5-.647-1.005-.972-1.51a16.927,16.927,0,0,0-1.421-2.032,4.793,4.793,0,0,0-1.931-1.649,2.1,2.1,0,0,0-.645-.133,3.964,3.964,0,0,0-.689.122,2.9,2.9,0,0,0-1.214.821,5.476,5.476,0,0,0-.974,2.162c-.206.531-.409,1.063-.626,1.589a17.175,17.175,0,0,1-1.617,3.028,10.113,10.113,0,0,1-.956,1.028,6.775,6.775,0,0,1-.718.432,5.53,5.53,0,0,1-.74.211,3.81,3.81,0,0,1-.566-.006,3.451,3.451,0,0,1-.475-.124,2.94,2.94,0,0,1-.3-.179,4.829,4.829,0,0,1-.4-.383,15.432,15.432,0,0,1-.847-1.533q-.3-.589-.607-1.176-.356-.688-.709-1.372a12.009,12.009,0,0,0-.808-1.406,7.591,7.591,0,0,0-1.228-1.248,1.485,1.485,0,0,0-1.789-.231,4.094,4.094,0,0,0-1.273,1.107,9.054,9.054,0,0,0-.683,1.562c-.17.393-.342.786-.514,1.178a19.791,19.791,0,0,1-1.857,3.394,11.559,11.559,0,0,1-1.385,1.41,10.014,10.014,0,0,1-1.355.769,3.7,3.7,0,0,1-.522.142,3.865,3.865,0,0,1-.512,0,5.5,5.5,0,0,1-.777-.211l-.179-.108a7.53,7.53,0,0,1-.761-.791,17.3,17.3,0,0,1-1-1.82q-.408-.807-.812-1.614c-.436-.862-.876-1.72-1.315-2.579a22.68,22.68,0,0,0-1.334-2.349c-.288-.43-.642-.831-.97-1.231a5.175,5.175,0,0,0-1.115-.97q-.319-.139-.644-.263a4.576,4.576,0,0,0-.687-.07,6.793,6.793,0,0,0-.72.114q-.34.126-.671.273a3.419,3.419,0,0,0-.566.4,5.482,5.482,0,0,0-.456.557c-.238.456-.421.931-.618,1.406.051-.118.1-.234.15-.352-.232.548-.45,1.1-.668,1.656L82,301.4a18.185,18.185,0,0,1-2,3.513,13.4,13.4,0,0,1-1.237,1.237,3.753,3.753,0,0,1-.38.227,5.144,5.144,0,0,1-.494.145c-.146-.206-.284-.418-.42-.637a6.29,6.29,0,0,1-.419-.876q-.257-.617-.516-1.232c-.154-.367-.329-.731-.455-1.11q-.513-1.529-1.024-3.057c-.092-.271-.156-.554-.233-.828q-.283-1.011-.565-2.024-.583-2.086-1.149-4.175a1.641,1.641,0,1,0-3.163.873c.629,2.319,1.277,4.633,1.925,6.947.229.818.539,1.619.809,2.424.295.877.652,1.717,1.011,2.573.246.58.494,1.156.754,1.73a6.437,6.437,0,0,0,.655,1.084,3.8,3.8,0,0,0,1.074,1.138l.283.161a1.707,1.707,0,0,0,.709.221,4.213,4.213,0,0,0,1.584-.082,5.216,5.216,0,0,0,1.48-.626c.243-.17.478-.347.71-.533a7.7,7.7,0,0,0,.711-.667,15.325,15.325,0,0,0,3.145-5.246c.488-1.231.943-2.467,1.4-3.708l.024-.048a10.58,10.58,0,0,1,.747.838,20.034,20.034,0,0,1,1.665,2.938q.532,1.078,1.063,2.155c.306.618.6,1.242.893,1.864.223.469.447.941.69,1.4a7.263,7.263,0,0,0,.736,1.013,5.737,5.737,0,0,0,.865.877,4.912,4.912,0,0,0,1.823.9,5.577,5.577,0,0,0,2.6.019,4.72,4.72,0,0,0,.838-.3,11.355,11.355,0,0,0,1.325-.679,9.347,9.347,0,0,0,2.134-1.9,15.8,15.8,0,0,0,2.577-4.543q.233-.563.464-1.125c.044-.108.085-.216.126-.324.305.539.566,1.1.843,1.661q.353.709.7,1.424a9.212,9.212,0,0,0,1.3,2.31,6,6,0,0,0,1.606,1.262,5.247,5.247,0,0,0,2.178.471,4.782,4.782,0,0,0,1.644-.275,5.817,5.817,0,0,0,1.793-.97,9.326,9.326,0,0,0,2.452-3.081,23.168,23.168,0,0,0,1.369-3.188c.131-.369.259-.739.388-1.11.074-.21.138-.425.2-.639q.2.219.389.443c.614.86,1.148,1.775,1.7,2.678l1.1,1.823c.262.43.514.866.789,1.29a7.76,7.76,0,0,0,.741.91l.288.292c.2.167.412.332.624.493a4.907,4.907,0,0,0,1.042.422,4.537,4.537,0,0,0,1.159.1,4.283,4.283,0,0,0,1.117-.2,3.76,3.76,0,0,0,1.088-.584,7.7,7.7,0,0,0,1.769-1.848,13.39,13.39,0,0,0,1.334-2.457,33.725,33.725,0,0,0,1.518-4.207c.211-.722.428-1.44.62-2.167.109-.409.211-.82.316-1.231.258.5.493,1.009.716,1.526.777,1.89,1.471,3.815,2.125,5.749q.481,1.418.953,2.836.3.9.593,1.8c.189.573.439,1.126.674,1.68a4.171,4.171,0,0,0,1.013,1.4,3.042,3.042,0,0,0,1.149.7,2.874,2.874,0,0,0,.816.156,5.81,5.81,0,0,0,.83-.135,5.012,5.012,0,0,0,.786-.366c.235-.174.469-.353.7-.535a7.549,7.549,0,0,0,1.11-1.325,11.882,11.882,0,0,0,.824-1.586c.295-.6.546-1.219.8-1.836.282-.693.526-1.4.761-2.1.34-1.031.665-2.058.969-3.1.12-.415.241-.831.357-1.247.145-.506.265-1.028.425-1.532a13.6,13.6,0,0,1,1.344,1.453c1.152,1.593,2.185,3.287,3.2,4.971.262.436.515.874.784,1.3.229.362.5.7.754,1.05s.517.672.794.991a5.528,5.528,0,0,0,.961.778,5.434,5.434,0,0,0,1.187.523,5.6,5.6,0,0,0,1.31.229,3.527,3.527,0,0,0,1.256-.173l.454-.192a3.26,3.26,0,0,0,.728-.376,7.465,7.465,0,0,0,1.018-.812,6.485,6.485,0,0,0,.855-1.075,9.057,9.057,0,0,0,.659-1.21c.208-.416.406-.833.589-1.26.489-1.139.893-2.313,1.3-3.483.487-1.385.9-2.789,1.287-4.2a4.171,4.171,0,0,1,.365.38,17.387,17.387,0,0,1,1.323,2.069c.292.539.564,1.094.825,1.648.361.762.727,1.521,1.083,2.285.443.954.884,1.909,1.341,2.858a7.287,7.287,0,0,0,1.537,2.234,3.485,3.485,0,0,0,1.132.7,1.841,1.841,0,0,0,.838.2,2.642,2.642,0,0,0,.878-.05,5.068,5.068,0,0,0,2.375-1.094,11.7,11.7,0,0,0,2.072-2.4,16.512,16.512,0,0,0,1.326-2.558c.5-1.084.9-2.213,1.3-3.336.27-.757.5-1.533.745-2.3.093-.284.172-.573.251-.862.687,1.894,1.318,3.81,2,5.708.368,1.027.761,2.041,1.158,3.056q.476,1.217,1.04,2.4a6.6,6.6,0,0,0,.677,1.243,2.342,2.342,0,0,0,.55.606,4.614,4.614,0,0,0,1.005.67,4.058,4.058,0,0,0,1.687.376c.314-.032.628-.071.94-.117a3.323,3.323,0,0,0,.884-.3,2.614,2.614,0,0,0,.757-.395c.244-.182.481-.372.714-.567a9.247,9.247,0,0,0,1.44-1.736,16.78,16.78,0,0,0,1.676-3.4c.542-1.261,1.012-2.547,1.469-3.839.352-.991.711-1.977,1.041-2.977.3-.918.6-1.838.909-2.756.074.085.148.17.22.258a44.831,44.831,0,0,1,2.683,4.741,33.181,33.181,0,0,0,3.278,5.563c.25.31.5.615.765.913.093.091.186.183.28.274.219.182.443.359.671.532a8.727,8.727,0,0,0,1.159.545c.145.042.289.082.434.125q.473.084.949.141l.44.011q.455-.055.905-.129c.119-.047.24-.093.358-.138a3.5,3.5,0,0,0,.8-.394c.112-.084.222-.169.334-.251a6.424,6.424,0,0,0,.7-.586,9.919,9.919,0,0,0,1.161-1.336,13.673,13.673,0,0,0,1.445-2.47c.425-.885.839-1.774,1.211-2.681.482-1.179.934-2.369,1.38-3.562s.848-2.413,1.238-3.631c.079.083.155.169.232.257a31.437,31.437,0,0,1,1.731,2.9c.434.8.827,1.618,1.225,2.433.449.917.9,1.835,1.351,2.749a17.833,17.833,0,0,0,3.017,4.806q.341.275.7.521c.263.113.526.227.79.337a6.424,6.424,0,0,0,1.6.234c.312-.036.624-.077.934-.121a4.407,4.407,0,0,0,.836-.241,6.994,6.994,0,0,0,2.007-1.118,18.229,18.229,0,0,0,2.727-2.753,35.967,35.967,0,0,0,2.347-3.25c.713-1.06,1.383-2.151,2.069-3.23.5-.792.973-1.6,1.46-2.406.659-1.093,1.236-2.233,1.894-3.326h0c.047.013.095.026.141.041a8.279,8.279,0,0,1,.8.5,9.512,9.512,0,0,1,.783.8,16.311,16.311,0,0,1,1.522,2.562c.562,1.169,1.095,2.358,1.624,3.545.453,1.017.967,2,1.49,2.987a10.574,10.574,0,0,0,2.306,2.879,11.524,11.524,0,0,0,1.159.875,6.555,6.555,0,0,0,1.728.752,5.957,5.957,0,0,0,.944.173,7.92,7.92,0,0,0,1.07.11,8.7,8.7,0,0,0,2-.2,6.185,6.185,0,0,0,1.446-.514,12.253,12.253,0,0,0,1.756-.978,13.683,13.683,0,0,0,2.857-2.568c.734-.862,1.4-1.789,2.079-2.695.719-.964,1.353-2,1.988-3.022q.767-1.231,1.535-2.464c.454-.726.86-1.489,1.279-2.237.374-.67.756-1.332,1.159-1.984.127.122.249.248.37.382a19.517,19.517,0,0,1,1.852,3.36c.935,2.255,1.818,4.533,2.8,6.769a10.267,10.267,0,0,0,.667,1.242,11.035,11.035,0,0,0,1.085,1.5,5.37,5.37,0,0,0,1.042.947,6.456,6.456,0,0,0,1.612.732l.4.09c.346.047.69.095,1.037.14a4.761,4.761,0,0,0,.822.006q.5-.063,1.01-.134a9.223,9.223,0,0,0,3.036-1.447,13.934,13.934,0,0,0,2.579-2.3,28.9,28.9,0,0,0,2.1-2.778,41.066,41.066,0,0,0,2.058-3.556c.389-.722.748-1.458,1.108-2.194.294-.6.552-1.223.836-1.832a21.121,21.121,0,0,1,1.046,2.169c.516,1.291.981,2.6,1.454,3.912.523,1.447,1.029,2.9,1.669,4.3.158.346.319.689.493,1.028a4.643,4.643,0,0,0,1.1,1.323,6.7,6.7,0,0,0,1.169.8c.313.136.628.268.946.392a6.274,6.274,0,0,0,1.013.165,6.15,6.15,0,0,0,1.533-.136,11.386,11.386,0,0,0,1.92-.7,4.842,4.842,0,0,0,.741-.44q.421-.322.837-.645a12.639,12.639,0,0,0,1.213-1.227,31.933,31.933,0,0,0,2.046-2.646c.651-.928,1.187-1.937,1.751-2.917.5-.878.954-1.793,1.429-2.687.277-.521.523-1.063.771-1.6.389,1.217.742,2.448,1.1,3.672a10.937,10.937,0,0,0,2.892,5,9.846,9.846,0,0,0,1.319.985,8.1,8.1,0,0,0,1.515.688,5.239,5.239,0,0,0,1.521.235,6.877,6.877,0,0,0,1.481-.161,5.186,5.186,0,0,0,1.391-.481,5.636,5.636,0,0,0,1.231-.79,11.878,11.878,0,0,0,1.922-2.143,13.874,13.874,0,0,0,1.419-2.371c.477-.967.905-1.952,1.324-2.945.43-1.023.826-2.058,1.214-3.1l.057.092c.434.706.818,1.448,1.232,2.165s.84,1.456,1.3,2.161c.45.685.956,1.331,1.469,1.969a9.319,9.319,0,0,0,3.618,2.775,14.251,14.251,0,0,0,2.289.755,14.964,14.964,0,0,0,2.781.332,2.667,2.667,0,0,0,1.886-4.552,2.821,2.821,0,0,0-1.886-.782c-.145-.011-.289-.023-.434-.037A15.013,15.013,0,0,1,352.828,293Zm-266.667,5.8-.257.109a1.945,1.945,0,0,1,.263-.114Zm73.913,6.109.134.057h0C160.164,304.958,160.119,304.939,160.075,304.918Zm8.5-8.93-.061-.026c.022.008.042.016.063.025Zm.215.386a2.017,2.017,0,0,1,.095-.228h0Zm.273-.519h-.005c.043-.06.091-.12.14-.178C169.154,295.738,169.108,295.8,169.063,295.855Zm25.112,10.455h-.005c-.023-.017-.045-.037-.068-.056Zm.046.039q-.144.024-.291.036l.287-.039-.019-.014h.006l.017.014.04-.005h.009l-.044.008.064.049Q194.256,306.375,194.222,306.349Zm.149.028.04-.017h0Zm.055-.022h0l.175-.073Q194.513,306.321,194.425,306.355Zm40.162-4.221.2.029,0,0C234.726,302.158,234.657,302.147,234.588,302.134Zm.233.035,0,0,.026,0h0Zm.033,0h0Zm54.986-3.524-.047-.024.057.025Zm.011,0,.012,0,.228.095A2.312,2.312,0,0,1,289.851,298.652Zm22.634-.447.059.025h0Zm.164.066-.029-.025.035.027Zm.047.039-.039-.031.009,0,.037.028Zm.041.033h.006l.118.092C312.819,298.4,312.778,298.374,312.737,298.343Z" transform="translate(-69.89 -282.267)" fill="#e52441"/>
</svg>
