<svg xmlns="http://www.w3.org/2000/svg" width="38.414" height="35.363" viewBox="0 0 38.414 35.363">
  <path id="Trazado_2514" data-name="Trazado 2514" d="M276.991,310.392c-4.577,4.005-9.088,8.09-13.76,11.982a91.118,91.118,0,0,1-8.182,5.908c-1.21.8-2.971,1.325-3.741-.368-.367-.806.275-2.425.958-3.276a30.52,30.52,0,0,1,3.918-3.537l21.293-18.64-.333-.851c-2.028.442-4.037,1.049-6.089,1.284a57.946,57.946,0,0,1-8.588.43c-.734-.025-1.69-1.289-2.006-2.176-.136-.381,1-1.645,1.729-1.838,7.279-1.918,14.555-3.886,21.916-5.442,4.469-.944,6.673,1.588,4.891,5.842-3.092,7.38-6.742,14.529-10.228,21.741-.626,1.294-1.6,2.717-3.33,2.025-1.692-.679-1.5-2.253-1.025-3.72.546-1.674,1.082-3.352,1.679-5.008.475-1.316,1.037-2.6,1.56-3.9Z" transform="translate(-251.201 -293.671)" fill="#e52441"/>
</svg>
