<svg xmlns="http://www.w3.org/2000/svg" width="153.904" height="9.544" viewBox="0 0 153.904 9.544">
  <path id="Trazado_10282" data-name="Trazado 10282" d="M219.849,645.585c-3.362-.253-6.729-.433-10.094-.65-1.11-.071-2.224-.075-3.334-.112l-7.229-.237c-1.342-.044-2.685-.1-4.027-.132-.389-.01-.777-.013-1.167-.013-.874,0-1.748.017-2.622.018l-11.927.018c-.946,0-1.893.03-2.838.047l-7.029.118c-2.644.045-5.288.063-7.93.147l-12.831.409c-2.476.078-4.954.123-7.429.25q-6.4.327-12.795.651c-2.331.117-4.663.216-6.992.383q-6.615.472-13.231.948c-2.357.169-4.716.294-7.067.553l-13.173,1.442-2.847.312c-1.9.207-3.785.53-5.675.8l-.356.063a1.3,1.3,0,0,0-.59.442,2.082,2.082,0,0,0,0,2.431,1.16,1.16,0,0,0,.946.5c2.281-.33,4.559-.681,6.846-.93l6.357-.693,6.938-.756c.931-.1,1.865-.236,2.8-.3q5.409-.386,10.818-.765l6.743-.478c.929-.066,1.858-.148,2.786-.2,3.574-.183,7.148-.352,10.721-.528l6.5-.319c.727-.036,1.456-.081,2.184-.1q5.788-.173,11.576-.34l6.464-.191c.768-.022,1.534-.055,2.3-.065l11.938-.157c2.483-.033,4.964-.064,7.447-.056l12.678.039c.833,0,1.667.047,2.5.078l7,.264q2.624.1,5.249.2c1.24.047,2.481.166,3.721.252,3.651.253,7.3.515,10.951.808.927.075,1.853.165,2.78.252.993.092,1.989.183,2.978.327.155.033.308.07.462.112a1.219,1.219,0,0,0,1.116-.187,1.884,1.884,0,0,0,.665-1.113,1.991,1.991,0,0,0-1.011-2.289,9.759,9.759,0,0,0-2.042-.42q-.7-.092-1.408-.183c-.9-.117-1.812-.176-2.717-.264C223.25,645.807,221.548,645.712,219.849,645.585Z" transform="translate(-78.272 -644.439)" fill="#e52441"/>
</svg>
