<svg xmlns="http://www.w3.org/2000/svg" width="68.259" height="24.247" viewBox="0 0 68.259 24.247">
  <path id="Trazado_2285" data-name="Trazado 2285" d="M464.146,367.667c-1.4-.616-1.378-1.806-1.541-2.79-.93-5.645-2.074-11.278-2.606-16.958-1.089-11.6-1.834-23.235-2.726-34.855a12.352,12.352,0,0,0-.492-2.859c-1.7,4.007-2.486,8.3-4.229,12.251l-1-.173a8.541,8.541,0,0,1-.13-2.293c1.254-5.813,2.529-11.623,3.915-17.41.514-2.146,1.99-2.573,3.8-1.1a25.055,25.055,0,0,1,3.714,3.838c2.343,2.949,4.6,5.959,6.8,9,1.466,2.024,1.452,2.263,1.216,4.9-4.59-2.638-6.081-7.367-9.761-10.758a13.094,13.094,0,0,0-.242,2.186q1.82,26.8,3.668,53.6C464.606,365.336,465.157,366.525,464.146,367.667Z" transform="matrix(-0.07, 0.998, -0.998, -0.07, 399.625, -424.621)" fill="#d6d6d6"/>
</svg>
