<svg xmlns="http://www.w3.org/2000/svg" width="16.467" height="15.834" viewBox="0 0 16.467 15.834">
  <g id="Grupo_78332" data-name="Grupo 78332" transform="translate(-1192.765 -73.452)">
    <g id="noun-cart-4432016" transform="translate(1193.265 73.952)">
      <path id="Trazado_1816" data-name="Trazado 1816" d="M116.158,80.7h-6.046a1.383,1.383,0,0,1-1.369-1.206L107.71,71.4a.763.763,0,0,0-.756-.666h-2.341a.309.309,0,0,1,0-.618h2.341a1.383,1.383,0,0,1,1.369,1.206L108.538,73l10.7-.02h0a.523.523,0,0,1,.49.706l-2.28,6.112a1.387,1.387,0,0,1-1.293.9Zm-7.542-7.078.74,5.794h0a.763.763,0,0,0,.756.666h6.046a.766.766,0,0,0,.714-.5L119.1,73.6Z" transform="translate(-104.305 -70.121)" fill="#bebebe" stroke="#bebebe" stroke-width="1"/>
      <path id="Trazado_1817" data-name="Trazado 1817" d="M399.436,406.853a1.522,1.522,0,1,1,1.075-.446A1.521,1.521,0,0,1,399.436,406.853Zm0-2.423h0a.9.9,0,1,0,.638.265.9.9,0,0,0-.638-.265Z" transform="translate(-387.54 -392.02)" fill="#bebebe" stroke="#bebebe" stroke-width="1"/>
      <path id="Trazado_1818" data-name="Trazado 1818" d="M220.3,406.852a1.523,1.523,0,1,1,1.075-.446,1.52,1.52,0,0,1-1.075.446Zm0-2.423h0a.9.9,0,1,0,.638.265.9.9,0,0,0-.638-.265Z" transform="translate(-214.734 -392.019)" fill="#bebebe" stroke="#bebebe" stroke-width="1"/>
    </g>
  </g>
</svg>
