<svg id="Grupo_78880" data-name="Grupo 78880" xmlns="http://www.w3.org/2000/svg" width="175.485" height="51.451" viewBox="0 0 175.485 51.451">
  <g id="Grupo_28" data-name="Grupo 28" transform="translate(0 0)">
    <path id="Trazado_20" data-name="Trazado 20" d="M577.907,136.025a4.973,4.973,0,0,1-2.079-2.908c-1.978,2.316-4.155,3.469-6.478,3.46a6.2,6.2,0,0,1-5.493-3c-1.255-1.974-1.5-4.854-.826-8.639a16.253,16.253,0,0,1,3.97-8.367,9.145,9.145,0,0,1,6.781-3.258,5.94,5.94,0,0,1,3.986,1.329c0-.1,0-.151.05-.2a1.172,1.172,0,0,1,1.318-1.105l1.717.006c.706,0,1.059.358.9,1.115l-2.064,11.255c-.714,3.824-.853,6.443.238,7.286a1.815,1.815,0,0,1,.671,1.767h0A1.823,1.823,0,0,1,577.907,136.025Zm-1.844-11.694.208-1.566c.521-4.088-.431-6.112-3.058-6.123-2.877-.011-5.365,3.111-6.244,8.309-.98,5.5-.032,8.283,2.948,8.294C572.745,133.256,575.336,129.884,576.063,124.331Z" transform="translate(-528.943 -97.934)" fill="#e52441"/>
    <path id="Trazado_21" data-name="Trazado 21" d="M592.172,139.114a1.785,1.785,0,0,1-1.994,1.44c-3.876-.529-6.571-2.882-8.016-7.094-1.052-2.276-.844-3.538.57-3.685,4.647-.589,7.535-2.7,8.153-5.878.361-1.867-.492-3.183-2.159-3.189s-3.287.946-4.91,2.911a17.557,17.557,0,0,0-3.313,7.967c0,.05-.05.05-.05.1l-1.394,7.822a1.182,1.182,0,0,1-1.267,1.107l-1.717-.006c-.706,0-1.009-.358-.855-1.114l5.833-32.6c.154-.757.511-1.108,1.217-1.105l1.767.006c.758,0,1.059.358.905,1.115l-.465,2.474-.978,5.2c-.413,2.22-.723,4.189-1.034,5.9,2.231-2.062,4.507-3.114,6.831-3.105,4.039.015,6.251,2.5,5.479,6.536-.619,3.432-3.863,6.6-8.717,7.947a8,8,0,0,0,4.863,5.227,1.791,1.791,0,0,1,1.25,2.027Z" transform="translate(-522.325 -101.914)" fill="#e52441"/>
    <path id="Trazado_22" data-name="Trazado 22" d="M605.6,131.926a1.525,1.525,0,0,1-.22,2.328,14.22,14.22,0,0,1-8.341,2.428c-6.869-.026-10.138-3.776-8.743-11.65a15.661,15.661,0,0,1,4.123-8.367,9.819,9.819,0,0,1,7.033-3.255c2.474.009,4.189.774,5.193,2.241a5.622,5.622,0,0,1,.535,5.2,10.1,10.1,0,0,1-4.161,5.236,12.859,12.859,0,0,1-6.978,2.095c-.858,0-1.211-.358-1.105-1.52.106-1.261.613-1.865,1.371-1.864,3.383.014,6.016-1.592,6.985-4.366.868-2.471.066-3.686-2.409-3.7-3.03-.012-5.77,3.31-6.647,8.306-.98,5.3,1.079,8.288,5.372,8.3a10.834,10.834,0,0,0,6.011-1.66,1.538,1.538,0,0,1,1.932.185Z" transform="translate(-515.558 -97.882)" fill="#e52441"/>
    <path id="Trazado_23" data-name="Trazado 23" d="M606.563,137.821a1.743,1.743,0,0,1-2.255,1.347c-3.318-1.133-4.206-5.371-3.107-11.436l1.5-8.427-1.313-.006c-.708,0-1.059-.358-.9-1.114l.206-1.11A1.2,1.2,0,0,1,602,115.969l1.312,0,1.188-6.663a1.121,1.121,0,0,1,1.268-1.055l1.767.006c.706,0,.957.358.855,1.064l-1.188,6.663,2.475.009c.706,0,1.059.358.905,1.115l-.206,1.11a1.2,1.2,0,0,1-1.318,1.107l-2.425-.011-1.547,8.428a21.685,21.685,0,0,0-.477,5.958,2.674,2.674,0,0,0,1.136,2.159,1.638,1.638,0,0,1,.862,1.7Z" transform="translate(-508.965 -100.608)" fill="#e52441"/>
    <path id="Trazado_24" data-name="Trazado 24" d="M638.238,137.943a1.741,1.741,0,0,1-2.254,1.347c-3.319-1.131-4.207-5.369-3.108-11.434l3.3-18.421a1.121,1.121,0,0,1,1.266-1.056l1.769.006c.706,0,.957.358.853,1.064l-3.3,18.421a21.687,21.687,0,0,0-.477,5.958,2.68,2.68,0,0,0,1.136,2.16,1.635,1.635,0,0,1,.862,1.7Z" transform="translate(-492.05 -100.543)" fill="#e52441"/>
    <path id="Trazado_25" data-name="Trazado 25" d="M612.649,137.811a1.866,1.866,0,0,1-2.619,1.365c-2.477-1.2-3.149-4.681-2.125-10.459l2.014-11.254c.154-.757.509-1.11,1.267-1.107l1.767.008c.706,0,1.009.356.855,1.113l-2.014,11.255c-.668,3.837-.87,6.421.174,7.273a1.889,1.889,0,0,1,.681,1.806Zm1.937-25.935c-1.014.855-2.731.9-3.434-.014a2.43,2.43,0,0,1,.569-3.23c1.064-.855,2.781-.847,3.434.014A2.484,2.484,0,0,1,614.585,111.876Z" transform="translate(-505.263 -100.745)" fill="#e52441"/>
    <path id="Trazado_26" data-name="Trazado 26" d="M625.906,133.152q-3.651,3.772-7.287,3.759c-4.848-.018-6.45-3.762-5.005-11.634l1.909-10.549c.154-.757.509-1.108,1.266-1.105l1.769.006c.706,0,1.007.358.853,1.114-.413,2.575-1.084,6.056-1.859,10.549-1.084,6.207-.537,8.28,1.636,8.288,1.717.008,3.286-1,4.657-2.961a19.182,19.182,0,0,0,3.01-7.716,13.968,13.968,0,0,0-.676-8.234c-.6-1.315,2.584-2.01,3.539-.845q2.188,2.509,1.026,9.1A19.085,19.085,0,0,1,625.906,133.152Z" transform="translate(-502.27 -97.977)" fill="#e52441"/>
    <path id="Trazado_27" data-name="Trazado 27" d="M631.173,137.882a1.865,1.865,0,0,1-2.619,1.365c-2.475-1.2-3.15-4.681-2.124-10.457l2.014-11.255c.153-.757.509-1.11,1.266-1.107l1.767.008c.708,0,1.009.358.854,1.115L630.318,128.8c-.668,3.837-.869,6.421.174,7.273a1.885,1.885,0,0,1,.68,1.806Zm1.939-25.935c-1.014.855-2.732.9-3.435-.014a2.43,2.43,0,0,1,.569-3.23c1.064-.853,2.781-.847,3.434.014A2.483,2.483,0,0,1,633.112,111.947Z" transform="translate(-495.466 -100.707)" fill="#e52441"/>
    <path id="Trazado_28" data-name="Trazado 28" d="M641.6,114.086c-.583-.092-4.875-.466-7.511-.691a2.026,2.026,0,0,0-2.2,1.891h0a2.028,2.028,0,0,0,1.883,2.154l4.425-.154s5.906-.673,4.611,5.808l-.509,2.247c-1.39,7.725.081,11.616,5.331,11.637a7.659,7.659,0,0,0,5.366-2.25l-.468,2.573c0,.2-.153.607-.153.755a4.1,4.1,0,0,1-.911.05c-5.8-.023-9.245,1.478-10.419,4.554a4.556,4.556,0,0,0,.585,4.7,5.689,5.689,0,0,0,4.693,1.984c4.493.017,7.689-3.253,9.326-8.85a17.171,17.171,0,0,0,12.079-15.157l.049-.506c.158-.757-.145-1.11-.853-1.111l-1.162,0c-.757,0-1.111.347-1.267,1.1a2.312,2.312,0,0,0-.1.506c-1.186,6.51-3.825,10.491-7.973,11.942l4.074-22.411c.158-.757-.2-1.11-.9-1.111l-1.717-.008a1.2,1.2,0,0,0-1.321,1.1l-1.755,9.844v.1a15.1,15.1,0,0,1-2.6,6.306c-1.269,1.712-2.584,2.565-4,2.561-2.458-.011-2.81-1.526-2.325-5.839.058-.529.139-1.1.238-1.718l.127-.641c.24-1.222.509-2.111.673-3.344C647.878,114.865,641.6,114.086,641.6,114.086Zm5.345,31.93c-1.867-.006-2.672-1.321-1.908-2.934.611-1.261,2.383-1.862,5.412-1.8a7.088,7.088,0,0,0,1.109-.044C650.482,144.415,648.914,146.023,646.943,146.015Z" transform="translate(-492.337 -97.894)" fill="#e52441"/>
    <path id="Trazado_29" data-name="Trazado 29" d="M560.49,103.271c1.538-.121,9.438.242,13.464,5.013,2.092,2.478,2.8,5.808,2.1,9.9-1.358,5.871-7.851,9.418-7.851,9.418s4.71,3.938,3.888,8.717a12.463,12.463,0,0,1-5.287,8.268,18.652,18.652,0,0,1-10.78,3.458h0a11.944,11.944,0,0,1-8.609-3.189c-4.871-4.921-6.065-11.1-3.548-18.358,0,0,2.68-6.154,4.172-8a2.111,2.111,0,0,1,1.625-.839c.076,0,.153,0,.229.012l.193.023a2.075,2.075,0,0,1,1.61,1.038,1.982,1.982,0,0,1-.139,2.124,25.056,25.056,0,0,0-4.993,11.5,10.5,10.5,0,0,0,2.541,8.214,10.206,10.206,0,0,0,7.759,3.393,15.029,15.029,0,0,0,6.676-1.715,7.948,7.948,0,0,0,4.7-5.829,7.093,7.093,0,0,0-1.7-5.478,4.787,4.787,0,0,0-1.951-1.275l-.119-.052-.127.075a20.434,20.434,0,0,1-6.562,2.191c-.2.02-.4.029-.592.029a4.3,4.3,0,0,1-3.791-1.94,5.007,5.007,0,0,1,.069-5.178,4.644,4.644,0,0,1,4.015-2.338c.053,0,.107,0,.161,0,.939,0,3.48.257,7.028,2.489l.139.076.138-.035a10.26,10.26,0,0,0,6.927-7.634,10.186,10.186,0,0,0-2.477-7.092c-1.789-1.906-4.418-2.874-7.814-2.874-.414,0-.844.014-1.281.043-8.328.576-13.408,5.3-14.69,13.652a17.637,17.637,0,0,0-.17,2.76,2.253,2.253,0,0,1-2.055,2.4,1.826,1.826,0,0,1-.925-.191,4.116,4.116,0,0,1-1.816-2.912S538.993,104.954,560.49,103.271Zm.15,23.894a5.11,5.11,0,0,0-3.152-1.17,1.175,1.175,0,0,0-1.222.67,1.191,1.191,0,0,0,.017,1.168,1.338,1.338,0,0,0,1.209.5A4.964,4.964,0,0,0,560.64,127.165Z" transform="translate(-540.608 -103.253)" fill="#e52441"/>
  </g>
</svg>
