<svg xmlns="http://www.w3.org/2000/svg" xmlns:xlink="http://www.w3.org/1999/xlink" width="1366" height="201.423" viewBox="0 0 1366 201.423">
  <defs>
    <clipPath id="clip-path">
      <rect id="Rectángulo_6641" data-name="Rectángulo 6641" width="1366" height="201.423" fill="none"/>
    </clipPath>
  </defs>
  <g id="Grupo_78665" data-name="Grupo 78665" transform="translate(-28.508 -67.775)">
    <g id="Grupo_78664" data-name="Grupo 78664" transform="translate(28.508 67.775)" clip-path="url(#clip-path)">
      <path id="Trazado_14403" data-name="Trazado 14403" d="M297.925,42.741c-2.266,0-4.449-.621-5.586-1.749-.232-.23-.113-.533.268-.675a1.152,1.152,0,0,1,1.11.163c1.444,1.436,4.992,1.6,7.2.779a5.568,5.568,0,0,0,3.9-4.445c.2-1.791-.557-3.6-1.419-5.439a.26.26,0,0,1-.016-.034,17.494,17.494,0,0,1-3.512.415,11.157,11.157,0,0,1-5.084-.934c-1.585-.808-2.216-2.155-1.5-3.2a4.121,4.121,0,0,1,2.808-1.415,9.15,9.15,0,0,1,5,.606,7.1,7.1,0,0,1,3.273,3.15c3.922-1.4,6.464-4.359,6.544-7.047.127-4.269-4.214-8.052-7.877-10.473-.3-.2-.279-.51.048-.693a1.2,1.2,0,0,1,1.139.029c3.864,2.553,8.441,6.562,8.3,11.155-.094,3.133-3.034,6.487-7.659,8,.027.058.053.117.082.175.9,1.93,1.693,3.825,1.477,5.774-.257,2.279-2,4.23-4.671,5.216a11.219,11.219,0,0,1-3.831.643m-.405-15.665a6.341,6.341,0,0,0-1.013.077,2.616,2.616,0,0,0-1.73.843c-.445.651,0,1.543,1.047,2.075a8.773,8.773,0,0,0,4,.7,14.577,14.577,0,0,0,3.086-.383,6.049,6.049,0,0,0-2.8-2.8,6.344,6.344,0,0,0-2.587-.511" transform="translate(98.201 -20.664)" fill="#09989a"/>
      <path id="Trazado_14404" data-name="Trazado 14404" d="M259.107,104.043a1.114,1.114,0,0,1-.578-.148.373.373,0,0,1,.014-.693c4.312-2.547,6.883-6.248,6.875-9.9a8.674,8.674,0,0,0-.8-3.553,17.336,17.336,0,0,1-4.514.148c-3.509-.357-6.677-1.873-8.069-3.863a2.71,2.71,0,0,1,.115-3.4,3.944,3.944,0,0,1,2.579-1.192,7.782,7.782,0,0,1,4.9,1.262,16.392,16.392,0,0,1,6.055,5.773,10.177,10.177,0,0,0,2.926-1.293c2.852-1.918,3.446-5.131,1.588-8.593a13.8,13.8,0,0,0-5.626-5.6,18.805,18.805,0,0,0-9.743-2.153c-.455.028-.838-.173-.88-.442s.282-.508.726-.534a20.808,20.808,0,0,1,10.981,2.4,14.886,14.886,0,0,1,6.076,6.029c2.038,3.8,1.318,7.37-1.925,9.553a12.147,12.147,0,0,1-3.643,1.576,9.4,9.4,0,0,1,.873,3.882c.008,3.973-2.676,7.839-7.363,10.607a1.122,1.122,0,0,1-.563.139m-3.691-21.661a3.658,3.658,0,0,0-.392.022,2.205,2.205,0,0,0-1.456.691,2.064,2.064,0,0,0-.052,2.552c1.183,1.689,3.872,2.977,6.851,3.28a14.773,14.773,0,0,0,3.768-.116,15.4,15.4,0,0,0-5.634-5.4,6.233,6.233,0,0,0-3.086-1.026" transform="translate(108.376 -19.714)" fill="#e52441"/>
      <path id="Trazado_14405" data-name="Trazado 14405" d="M688.558,25.326a1.039,1.039,0,0,1-.665-.212c-.253-.224-.161-.529.206-.682,2.393-1,3.809-3.013,3.6-5.117a6.672,6.672,0,0,0-1.154-2.985,17.725,17.725,0,0,1-4.79.389A11.112,11.112,0,0,1,679,14.44c-1.051-.959-1.356-2-.839-2.854a3.682,3.682,0,0,1,2.266-1.406,9.221,9.221,0,0,1,4.361-.022,10.41,10.41,0,0,1,4.908,2.989,21.312,21.312,0,0,1,1.669,1.859,8.368,8.368,0,0,0,1.7-.812c3.255-2.088,3.591-5.724.779-8.459-2.487-2.422-7.125-4.159-12.722-4.763-.439-.047-.731-.3-.654-.567s.486-.448.936-.4c6.045.651,11.079,2.549,13.81,5.208,3.186,3.1,2.766,7.251-.978,9.652a10.267,10.267,0,0,1-2.214,1.046,7.376,7.376,0,0,1,1.3,3.343c.242,2.477-1.406,4.769-4.3,5.981a1.222,1.222,0,0,1-.457.086m-5.915-14.441a6.154,6.154,0,0,0-1.575.194,2.326,2.326,0,0,0-1.4.844c-.332.551-.084,1.288.666,1.971a9.149,9.149,0,0,0,5.558,1.848,15.2,15.2,0,0,0,4-.321,20.125,20.125,0,0,0-1.586-1.764,8.964,8.964,0,0,0-4.149-2.594,6.292,6.292,0,0,0-1.519-.178" transform="translate(370.146 -18.368)" fill="#e52441"/>
      <path id="Trazado_14406" data-name="Trazado 14406" d="M136.985,67.779a.869.869,0,0,1-.77-.341c-.136-.258.1-.535.525-.616,4.375-.843,7.676-3.377,8.026-6.157a4.049,4.049,0,0,0-.031-1.209c-4.214.7-8.907.049-11.893-1.808-1.6-.994-2.708-2.574-1.58-3.862,1.383-1.576,5.066-1.659,7.831-.826,3.391,1.021,5.9,2.977,6.87,5.183.353-.1.7-.209,1.033-.331,3.975-1.458,6.31-4.444,5.813-7.427-.531-3.182-3.775-5.781-7.208-8.533-3.331-2.67-6.775-5.429-7.508-8.778-.825-3.763,2.345-7.75,7.709-9.694a1.134,1.134,0,0,1,1.105.17c.229.232.1.534-.279.672-4.825,1.751-7.679,5.338-6.936,8.724.678,3.092,3.843,5.629,7.195,8.316,3.417,2.738,6.949,5.571,7.527,9.027.558,3.353-2.087,6.715-6.583,8.366a16.036,16.036,0,0,1-1.54.477,4.634,4.634,0,0,1,.082,1.612c-.4,3.17-4.161,6.056-9.146,7.017a1.292,1.292,0,0,1-.244.023M135.5,53.415a3.865,3.865,0,0,0-2.813.832c-.746.849.121,1.975,1.309,2.715,2.566,1.6,6.767,2.149,10.45,1.518-.826-1.973-3.047-3.732-6.071-4.642a10.29,10.29,0,0,0-2.874-.423" transform="translate(34.288 -18.817)" fill="#e52441"/>
      <path id="Trazado_14407" data-name="Trazado 14407" d="M653.753,78.76c-.237,0-.474-.008-.715-.025-.444-.031-.762-.275-.71-.543s.452-.466.894-.432c3.221.224,6-1.587,6.583-3.419.549-1.727-.257-3.693-2.392-5.844-.839-.845-1.816-1.669-2.76-2.466a37.382,37.382,0,0,1-3.239-2.954c-1.54-1.654-3.134-4.145-1.99-6.617,1.37-2.959,6.707-4.922,11.659-4.292.436.056.715.316.623.581s-.518.433-.955.38c-4.077-.523-8.644,1.159-9.772,3.6-.994,2.148.452,4.376,1.84,5.869a36.738,36.738,0,0,0,3.144,2.863c.963.813,1.959,1.653,2.832,2.532,2.348,2.366,3.221,4.564,2.6,6.537-.676,2.131-3.843,4.233-7.637,4.233" transform="translate(352.42 -19.371)" fill="#09989a"/>
      <path id="Trazado_14408" data-name="Trazado 14408" d="M815.158,89.031a1.864,1.864,0,0,0-.738,2.274,23.875,23.875,0,0,1,6.783.748c-.1-.77.247-1.3,1.246-2.28a28.852,28.852,0,0,0-7.291-.742" transform="translate(453.887 -20.084)" fill="#fff"/>
      <path id="Trazado_14409" data-name="Trazado 14409" d="M67.252,17.844a2.766,2.766,0,0,0-1.94,1.832,17.307,17.307,0,0,1,5.5,2.078c.353-.691.957-1.087,2.385-1.729a21.079,21.079,0,0,0-5.947-2.181" transform="translate(-5.915 -18.712)" fill="#fff"/>
      <path id="Trazado_14410" data-name="Trazado 14410" d="M772.56,46.95a1.7,1.7,0,0,0-1.018-1.592,32.75,32.75,0,0,1-4.766.462,1.243,1.243,0,0,1,.291.928,29.751,29.751,0,0,1,5.494.2" transform="translate(424.699 -19.242)" fill="#fff"/>
      <path id="Trazado_14411" data-name="Trazado 14411" d="M785.612,63.807a1.53,1.53,0,0,1,.447.769,12.548,12.548,0,0,1,2.313-.81.783.783,0,0,0-.3-.767,15.372,15.372,0,0,0-2.463.808" transform="translate(436.262 -19.582)" fill="#fff"/>
      <path id="Trazado_14412" data-name="Trazado 14412" d="M183.529,94.925a2.985,2.985,0,0,1-1.322.792c.208.147.3.259.282.384a4,4,0,0,0,1.594-.8,1.363,1.363,0,0,0-.555-.376" transform="translate(65.845 -20.198)" fill="#fff"/>
      <path id="Trazado_14413" data-name="Trazado 14413" d="M134.983,86.69a2.29,2.29,0,0,0,.573,2.85,56.006,56.006,0,0,1,8.082.447,1.973,1.973,0,0,1,.16-1.584,45.924,45.924,0,0,1-8.815-1.713" transform="translate(36.695 -20.039)" fill="#fff"/>
      <path id="Trazado_14414" data-name="Trazado 14414" d="M856.365,72.667a2.29,2.29,0,0,0,.573,2.85,56.006,56.006,0,0,1,8.082.447,1.973,1.973,0,0,1,.16-1.584,45.926,45.926,0,0,1-8.815-1.713" transform="translate(479.536 -19.769)" fill="#fff"/>
      <path id="Trazado_14415" data-name="Trazado 14415" d="M213.857,94.993a3.576,3.576,0,0,0-1.851.944,18.524,18.524,0,0,1,5.158,3.517,4.287,4.287,0,0,1,1.954-.726,15.867,15.867,0,0,0-5.261-3.736" transform="translate(84.138 -20.199)" fill="#fff"/>
      <path id="Trazado_14416" data-name="Trazado 14416" d="M108.7,54.794a1.045,1.045,0,0,0-.426-.842,3.421,3.421,0,0,1-1.4.36,1.343,1.343,0,0,0,.189.84,6.64,6.64,0,0,1,1.64-.357" transform="translate(19.591 -19.408)" fill="#fff"/>
      <path id="Trazado_14417" data-name="Trazado 14417" d="M721.815,62.384a9.978,9.978,0,0,0,2.3.674,1.124,1.124,0,0,0,0-.945,3.334,3.334,0,0,1-1.423-.4,1.3,1.3,0,0,1-.884.669" transform="translate(397.098 -19.558)" fill="#fff"/>
      <path id="Trazado_14418" data-name="Trazado 14418" d="M693.477,71.651a22.244,22.244,0,0,0,5.147,1.5,2.5,2.5,0,0,0,.006-2.111,7.458,7.458,0,0,1-3.178-.889,2.913,2.913,0,0,1-1.975,1.495" transform="translate(379.702 -19.72)" fill="#fff"/>
      <path id="Trazado_14419" data-name="Trazado 14419" d="M208.509,60.082a1.162,1.162,0,0,1-.178-1.271,14.548,14.548,0,0,0-3.149.754,2.629,2.629,0,0,0,.876,1.1,8.457,8.457,0,0,1,2.45-.586" transform="translate(79.949 -19.502)" fill="#fff"/>
      <path id="Trazado_14420" data-name="Trazado 14420" d="M853.863,39.61a14.165,14.165,0,0,0-4.772-.725,1.927,1.927,0,0,0-.668,1.765,12.834,12.834,0,0,1,4.688.738,1.449,1.449,0,0,1,.752-1.778" transform="translate(474.801 -19.117)" fill="#fff"/>
      <path id="Trazado_14421" data-name="Trazado 14421" d="M165.557,39.036a2.045,2.045,0,0,0-1.315-.138c-.223.3-.315.541-.224.791a3.324,3.324,0,0,1,1.328.626,2.032,2.032,0,0,1,.211-1.279" transform="translate(54.657 -19.117)" fill="#fff"/>
      <path id="Trazado_14422" data-name="Trazado 14422" d="M667.495,80.132a1.582,1.582,0,0,0-.684-1.179,7.433,7.433,0,0,1-1.433-.239c.16.281.032.47-.413.8a12.053,12.053,0,0,1,2.531.623" transform="translate(362.199 -19.885)" fill="#fff"/>
      <path id="Trazado_14423" data-name="Trazado 14423" d="M767.331,74.514a7.923,7.923,0,0,1-3.583-.456,6.813,6.813,0,0,0,.494,3.574,13.068,13.068,0,0,0,3.473-.336,3.989,3.989,0,0,1-.384-2.781" transform="translate(422.823 -19.795)" fill="#fff"/>
      <path id="Trazado_14424" data-name="Trazado 14424" d="M718.853,71.705a6.373,6.373,0,0,0-4.053.213,2.424,2.424,0,0,0,.345,2.436,12.976,12.976,0,0,1,4.714,1.219,6.394,6.394,0,0,1-1.007-3.868" transform="translate(392.691 -19.746)" fill="#fff"/>
      <path id="Trazado_14425" data-name="Trazado 14425" d="M53.8,78.586c-1.3.376-2.863.425-6.192-.248a3.013,3.013,0,0,0,.767,2.785,21.44,21.44,0,0,0,6.644-.059A3.123,3.123,0,0,1,53.8,78.586" transform="translate(-16.841 -19.878)" fill="#fff"/>
      <path id="Trazado_14426" data-name="Trazado 14426" d="M732.167,92.911a4.232,4.232,0,0,0,1.862-.618,2.477,2.477,0,0,1-1.257-1.118,7.379,7.379,0,0,0-1.927.412,4.333,4.333,0,0,1,1.322,1.324" transform="translate(402.642 -20.125)" fill="#fff"/>
      <path id="Trazado_14427" data-name="Trazado 14427" d="M799.386,71.75c1.26-.817,1.8-1.349,1.849-2.553a38.043,38.043,0,0,1-6.383-2.813,3.573,3.573,0,0,1-1.428,1.275,25.4,25.4,0,0,1,5.962,4.091" transform="translate(441.058 -19.648)" fill="#fff"/>
      <path id="Trazado_14428" data-name="Trazado 14428" d="M828.543,54.437a2.835,2.835,0,0,0-.96,2.419,8.261,8.261,0,0,1,1.966,1.346c.236-.575.789-.807,2.113-1.057a12.17,12.17,0,0,1-3.118-2.708" transform="translate(461.999 -19.417)" fill="#fff"/>
      <path id="Trazado_14429" data-name="Trazado 14429" d="M59.07,69.166a22.178,22.178,0,0,0,5.565-2.491,10.449,10.449,0,0,0-3.71-1.2,7.164,7.164,0,0,1-3.367,1.56c1.154.7,1.459,1.227,1.512,2.13" transform="translate(-10.675 -19.63)" fill="#fff"/>
      <path id="Trazado_14430" data-name="Trazado 14430" d="M755.954,31.93a3.422,3.422,0,0,1,1.979-.627,13.788,13.788,0,0,0-3.152-3.252,6.688,6.688,0,0,0-2.456.745,8.877,8.877,0,0,1,3.63,3.133" transform="translate(415.827 -18.909)" fill="#fff"/>
      <path id="Trazado_14431" data-name="Trazado 14431" d="M846.341,83.965a2.315,2.315,0,0,0-1.538-.319c-.365.338-.55.613-.521.923a3.271,3.271,0,0,1,1.4.908,2.81,2.81,0,0,1,.662-1.512" transform="translate(472.277 -19.98)" fill="#fff"/>
      <path id="Trazado_14432" data-name="Trazado 14432" d="M736.509,89.546a5.613,5.613,0,0,0-2.237.12,1.551,1.551,0,0,1,.441,1.407,8.629,8.629,0,0,0,2.155.1,2.756,2.756,0,0,1-.358-1.624" transform="translate(404.746 -20.093)" fill="#fff"/>
      <path id="Trazado_14433" data-name="Trazado 14433" d="M845.326,39.51a4.047,4.047,0,0,1-2.429-2.285,4.827,4.827,0,0,0-2.322,1.469,7.279,7.279,0,0,0,2.915,2.312,3.617,3.617,0,0,1,1.837-1.5" transform="translate(470.003 -19.085)" fill="#e52441"/>
      <path id="Trazado_14434" data-name="Trazado 14434" d="M857.819,34.663a2.159,2.159,0,0,1,.927,2.384,59.065,59.065,0,0,0,10.771-1.911,3.969,3.969,0,0,0-1.06-2.943,31.85,31.85,0,0,1-10.637,2.47" transform="translate(480.588 -18.988)" fill="#e52441"/>
      <path id="Trazado_14435" data-name="Trazado 14435" d="M46.215,22.922a2.159,2.159,0,0,1,.926,2.383,59.15,59.15,0,0,0,10.771-1.911,3.97,3.97,0,0,0-1.06-2.943,31.885,31.885,0,0,1-10.637,2.471" transform="translate(-17.638 -18.762)" fill="#e52441"/>
      <path id="Trazado_14436" data-name="Trazado 14436" d="M830.971,52.648a5.308,5.308,0,0,1,3.633-.8,9.1,9.1,0,0,0-3.318-2.756,4.632,4.632,0,0,0-3.131.866c1.469.912,2.416,1.629,2.816,2.693" transform="translate(462.378 -19.314)" fill="#e52441"/>
      <path id="Trazado_14437" data-name="Trazado 14437" d="M681.211,85.07a5.117,5.117,0,0,1-2.368-1.647,2.414,2.414,0,0,1-1.257.287,5.411,5.411,0,0,0,2.365,1.969,3.277,3.277,0,0,0,1.26-.61" transform="translate(369.947 -19.976)" fill="#008df0"/>
      <path id="Trazado_14438" data-name="Trazado 14438" d="M669.147,92.777a19.207,19.207,0,0,1-5.371-2.36,3.515,3.515,0,0,0-1.795,1.8,23.377,23.377,0,0,0,5.247,2.639,2.218,2.218,0,0,1,1.919-2.075" transform="translate(360.368 -20.111)" fill="#e52441"/>
      <path id="Trazado_14439" data-name="Trazado 14439" d="M710.112,46.59c1.453.783,3.112.9,5.766.691a9.486,9.486,0,0,1,1.9-6.354A12.918,12.918,0,0,1,712,39.761a11.182,11.182,0,0,0-1.883,6.829" transform="translate(389.914 -19.134)" fill="#e52441"/>
      <path id="Trazado_14440" data-name="Trazado 14440" d="M690.023,85.447c.765-.94,1.007-1.5.518-2.592a46.359,46.359,0,0,1-6.974-1.468,2.178,2.178,0,0,1-.71,1.377,34.262,34.262,0,0,1,7.166,2.683" transform="translate(373.183 -19.937)" fill="#e52441"/>
      <path id="Trazado_14441" data-name="Trazado 14441" d="M265.461,38.236a3.384,3.384,0,0,1,1.853,1.088,7.256,7.256,0,0,0,1.908-2.242,8.068,8.068,0,0,0-2.276-.589c-.144.535-.626.992-1.485,1.744" transform="translate(116.952 -19.071)" fill="#fff"/>
      <path id="Trazado_14442" data-name="Trazado 14442" d="M343.088,59.569a3.258,3.258,0,0,0,2.322-.877,2.775,2.775,0,0,0-1.427-1.4,10.006,10.006,0,0,1-3.434.141,7.965,7.965,0,0,1,2.539,2.132" transform="translate(373.7 -48.708)" fill="#fff"/>
      <path id="Trazado_14443" data-name="Trazado 14443" d="M319,34.107a5.024,5.024,0,0,1-1.672-1.277,16.662,16.662,0,0,1-3.5,2.451,2.417,2.417,0,0,0,1.383,1.331,20.682,20.682,0,0,0,3.785-2.5" transform="translate(146.648 -19.001)" fill="#fff"/>
      <path id="Trazado_14444" data-name="Trazado 14444" d="M291.66,22.783a12.03,12.03,0,0,1-3.715-2.831,4.669,4.669,0,0,0-2.266,1.293,14.321,14.321,0,0,0,3.5,3.055,2.855,2.855,0,0,1,2.485-1.516" transform="translate(129.364 -18.753)" fill="#fff"/>
      <path id="Trazado_14445" data-name="Trazado 14445" d="M300.614,44.33a1.533,1.533,0,0,1,.809-.049,3.076,3.076,0,0,0-.34-1.358,2.985,2.985,0,0,0-1,.05,1.908,1.908,0,0,1,.528,1.357" transform="translate(138.208 -19.195)" fill="#fff"/>
      <path id="Trazado_14446" data-name="Trazado 14446" d="M222.653,49.933a3.653,3.653,0,0,0,1.661-.331,7.576,7.576,0,0,1-1.9-3.2,4.02,4.02,0,0,1-1.633.167,6.548,6.548,0,0,0,1.874,3.367" transform="translate(89.523 -19.262)" fill="#fff"/>
      <path id="Trazado_14449" data-name="Trazado 14449" d="M83.8,52.65c-1.112,2.355-1.606,4.312-.783,6.3a15.313,15.313,0,0,0,6.286.219,6.892,6.892,0,0,1,.857-6.193c-2.668.471-4.348.5-6.36-.321" transform="translate(4.701 -19.383)" fill="#09989a"/>
      <path id="Trazado_14450" data-name="Trazado 14450" d="M727.1,29.545a7.129,7.129,0,0,1,1.951-.418,9.517,9.517,0,0,1-2.056-2.166,4.177,4.177,0,0,0-1.945.278,10.789,10.789,0,0,0,2.05,2.307" transform="translate(399.083 -18.887)" fill="#e52441"/>
      <path id="Trazado_14451" data-name="Trazado 14451" d="M742.281,70.437c-2.275.892-5.158,1.216-11.623.458-.081,1.732.631,3.247,2.548,5.068a39.406,39.406,0,0,0,12.338-1.1,6.944,6.944,0,0,1-3.263-4.431" transform="translate(402.523 -19.726)" fill="#e52441"/>
      <path id="Trazado_14452" data-name="Trazado 14452" d="M801.661,57.172a4.445,4.445,0,0,1,2.009,1.238,1.83,1.83,0,0,1,.975-.264,4.72,4.72,0,0,0-2.032-1.495,2.426,2.426,0,0,0-.952.521" transform="translate(446.114 -19.46)" fill="#e52441"/>
      <path id="Trazado_14453" data-name="Trazado 14453" d="M62.6,70.3c-.6.728-.429,1.419.276,2.454a26.012,26.012,0,0,1,7.29-.372c-.447-.772-.339-1.377.242-2.544A31.137,31.137,0,0,0,62.6,70.3" transform="translate(-7.806 -19.713)" fill="#09989a"/>
      <path id="Trazado_14454" data-name="Trazado 14454" d="M794.482,96.343a13.522,13.522,0,0,0,7.227-.536,20.136,20.136,0,0,1,1.136-7.569,12.807,12.807,0,0,1-4.017-.15c-.873,3.286-2.1,5.236-4.346,8.256" transform="translate(441.707 -20.066)" fill="#e52441"/>
      <path id="Trazado_14455" data-name="Trazado 14455" d="M227.672,83.591a3.342,3.342,0,0,1,1.086,1.352,20.472,20.472,0,0,1,3.952-1.782A1.636,1.636,0,0,0,231.9,81.8a25.133,25.133,0,0,0-4.23,1.8" transform="translate(93.755 -19.945)" fill="#e52441"/>
      <path id="Trazado_14456" data-name="Trazado 14456" d="M631.584,20.366a17.475,17.475,0,0,0-6.94.948,8.639,8.639,0,0,1-1.94,2.893,5.673,5.673,0,0,1,4.33,1.187c.809-1.7,2.385-3.117,4.549-5.028" transform="translate(336.256 -18.76)" fill="#e52441"/>
      <path id="Trazado_14457" data-name="Trazado 14457" d="M198.637,95.573a5,5,0,0,1,2.758-1.735,25.728,25.728,0,0,0-5.686-1.787,4.7,4.7,0,0,0-1.494,2.132,14.979,14.979,0,0,1,4.422,1.39" transform="translate(73.216 -20.142)" fill="#e52441"/>
      <path id="Trazado_14458" data-name="Trazado 14458" d="M800.423,34.866c.323.745,1.1,1.13,2.4,1.734,2.058-1.774,5.114-3.283,8.922-4.831a3.562,3.562,0,0,1-1.841-1.83,30.293,30.293,0,0,0-9.475,4.927" transform="translate(445.354 -18.945)" fill="#008df0"/>
      <path id="Trazado_14459" data-name="Trazado 14459" d="M137.592,80.464c-.053.724.281,1.179,1.275,1.695a6.3,6.3,0,0,0,2.758-.765,2.675,2.675,0,0,1,.231-2.342,15.633,15.633,0,0,1-4.264,1.412" transform="translate(38.453 -19.892)" fill="#e52441"/>
      <path id="Trazado_14460" data-name="Trazado 14460" d="M216.231,35.574c-.136-.992-.721-1.576-2.224-2.175a7.683,7.683,0,0,0-3.541,1.336,3.694,3.694,0,0,1,.358,3.218,18.86,18.86,0,0,1,5.406-2.378" transform="translate(83.192 -19.012)" fill="#e52441"/>
      <path id="Trazado_14461" data-name="Trazado 14461" d="M271.617,91.71a5.188,5.188,0,0,0-2.137.4,1.942,1.942,0,0,1,.912,1.313,8.5,8.5,0,0,0,2.13-.178,3.409,3.409,0,0,1-.905-1.535" transform="translate(119.42 -20.136)" fill="#09989a"/>
      <path id="Trazado_14462" data-name="Trazado 14462" d="M622.827,78.655a6.3,6.3,0,0,0,1.707-2.158,7.331,7.331,0,0,0-2.395,0c-.047.508-.4.842-1.01,1.333a2.652,2.652,0,0,1,1.7.828" transform="translate(335.289 -19.841)" fill="#e52441"/>
      <path id="Trazado_14463" data-name="Trazado 14463" d="M776.787,37.908a7.236,7.236,0,0,1-3.224.166,8.093,8.093,0,0,0,1.912,2.95,9.777,9.777,0,0,0,2.8-.822,4.72,4.72,0,0,1-1.488-2.294" transform="translate(428.865 -19.099)" fill="#008df0"/>
      <path id="Trazado_14464" data-name="Trazado 14464" d="M673.526,15.409c-1.276,1.61-2.029,2.981-1.838,4.469a10.709,10.709,0,0,0,4.477.627,5.7,5.7,0,0,1,1.87-4.391,7.175,7.175,0,0,1-4.509-.705" transform="translate(366.309 -18.665)" fill="#e52441"/>
      <path id="Trazado_14465" data-name="Trazado 14465" d="M758.806,70.912a.9.9,0,0,0-.348,1.232,4.917,4.917,0,0,0,2,.211,3.572,3.572,0,0,1,1.586-1.245,13.169,13.169,0,0,1-3.242-.2" transform="translate(419.519 -19.735)" fill="#09989a"/>
      <path id="Trazado_14466" data-name="Trazado 14466" d="M717.743,76.962a5.227,5.227,0,0,1,2.8.478,11.742,11.742,0,0,0,1.78-4.8,10.131,10.131,0,0,0-3.429-.622c.374,1.933-.111,3.149-1.151,4.946" transform="translate(394.599 -19.756)" fill="#e52441"/>
      <path id="Trazado_14467" data-name="Trazado 14467" d="M93.86,44.516a2.854,2.854,0,0,1,1.289-1.552c-.424-.155-.647-.29-.725-.478a3.888,3.888,0,0,0-1.682,1.65,3.131,3.131,0,0,0,1.117.381" transform="translate(10.925 -19.187)" fill="#e52441"/>
      <path id="Trazado_14468" data-name="Trazado 14468" d="M145.926,39.134a5.28,5.28,0,0,0,2.316-.068,7.856,7.856,0,0,1-.575-4.5,5.422,5.422,0,0,1-2.185-.136,6.963,6.963,0,0,0,.444,4.708" transform="translate(43.167 -19.032)" fill="#09989a"/>
      <path id="Trazado_14469" data-name="Trazado 14469" d="M83.355,87.94a4.481,4.481,0,0,0,2.179,1.34,11.74,11.74,0,0,1,2.208-.231c-.515-.321-.539-.631-.278-1.247a20.8,20.8,0,0,1-4.109.138" transform="translate(5.161 -20.06)" fill="#e52441"/>
      <path id="Trazado_14470" data-name="Trazado 14470" d="M653.007,31.375a11.017,11.017,0,0,0-5.929-.647,22.56,22.56,0,0,1-3.938,5.816,9.328,9.328,0,0,1,3.116.714,28.073,28.073,0,0,1,6.751-5.882" transform="translate(348.802 -18.958)" fill="#008df0"/>
      <path id="Trazado_14471" data-name="Trazado 14471" d="M101.332,63.8c-2.148.879-3.725,1.718-4.669,2.9a5.9,5.9,0,0,0,2.944,1.687,10.5,10.5,0,0,1,4.637-2.831c-1.635-.438-2.482-.845-2.911-1.756" transform="translate(13.331 -19.598)" fill="#e52441"/>
      <path id="Trazado_14472" data-name="Trazado 14472" d="M635.965,93.754A13.531,13.531,0,0,0,642.208,91c-3.01-1.213-4.385-2.263-5.384-3.674a24.367,24.367,0,0,0-6.63,2.024,19.16,19.16,0,0,1,5.771,4.4" transform="translate(340.854 -20.051)" fill="#e52441"/>
      <path id="Trazado_14473" data-name="Trazado 14473" d="M231.572,37.871a18.094,18.094,0,0,0,4.283-1.372,6.267,6.267,0,0,0-2.363-1.068,5.869,5.869,0,0,1-2.6.868,1.414,1.414,0,0,1,.681,1.572" transform="translate(95.731 -19.051)" fill="#e52441"/>
      <path id="Trazado_14474" data-name="Trazado 14474" d="M179.309,58.576a5.433,5.433,0,0,0,2.219.308,1.519,1.519,0,0,1,.3-1.441,7.656,7.656,0,0,0-2.03-.5,2.872,2.872,0,0,1-.484,1.634" transform="translate(64.066 -19.466)" fill="#e52441"/>
      <path id="Trazado_14475" data-name="Trazado 14475" d="M630.918,43.33c.332,1.372-.145,2.2-1.159,3.355a44.632,44.632,0,0,0,9.065-.462,5.033,5.033,0,0,0-.855-3.252c-1.8.463-3.759.451-7.051.359" transform="translate(340.587 -19.196)" fill="#e52441"/>
      <path id="Trazado_14476" data-name="Trazado 14476" d="M195.509,32.071c-.92,1.371-.791,2.387.539,3.8a15.179,15.179,0,0,0,6.18-.324c.253-1.66,1.2-2.714,3.092-4.415a39.5,39.5,0,0,1-9.811.943" transform="translate(73.646 -18.968)" fill="#09989a"/>
      <path id="Trazado_14477" data-name="Trazado 14477" d="M815.282,58.351a9.96,9.96,0,0,0-4.7,1.352,27.091,27.091,0,0,1,7.579,9.027,11.255,11.255,0,0,1,4.716-.864c-1.83-3.963-3.428-6.082-7.6-9.515" transform="translate(451.592 -19.493)" fill="#008df0"/>
      <path id="Trazado_14478" data-name="Trazado 14478" d="M119.994,30.752a8.019,8.019,0,0,1,3.307-5.269c-1.451-.411-2.245-.8-2.6-1.393a10.819,10.819,0,0,0-4.52,5.656,11,11,0,0,0,3.81,1.006" transform="translate(25.314 -18.832)" fill="#008df0"/>
      <path id="Trazado_14479" data-name="Trazado 14479" d="M194.257,53.766a10.449,10.449,0,0,1-3.237,1.565,30.9,30.9,0,0,1,6.213,3.275,6.526,6.526,0,0,0,3.376-1.3,35.266,35.266,0,0,0-6.352-3.544" transform="translate(71.255 -19.404)" fill="#008df0"/>
      <path id="Trazado_14480" data-name="Trazado 14480" d="M757.43,61.229a4.692,4.692,0,0,1-2.991-1.86,36.248,36.248,0,0,0-8.082,5.319,8.953,8.953,0,0,0,3.614,2.326c1.867-2.629,3.959-3.961,7.459-5.785" transform="translate(412.164 -19.512)" fill="#008df0"/>
      <path id="Trazado_14481" data-name="Trazado 14481" d="M648.079,70.629a3.083,3.083,0,0,0-1.567-1.745,6.418,6.418,0,0,1-2.834,1.179,3.728,3.728,0,0,0,1.043,1.8,12.628,12.628,0,0,1,3.359-1.239" transform="translate(349.132 -19.696)" fill="#e52441"/>
      <path id="Trazado_14482" data-name="Trazado 14482" d="M844.187,27.287c-1.612.48-2.4.852-3.136,1.938a22.349,22.349,0,0,1,4.216,3.9,5.643,5.643,0,0,1,2.025-.862,14.4,14.4,0,0,1-3.105-4.978" transform="translate(470.295 -18.894)" fill="#09989a"/>
      <path id="Trazado_14483" data-name="Trazado 14483" d="M675.263,99.467c1.3-.819,2.587-1.784,2.889-3.086a7.68,7.68,0,0,1-1.819-2.315c-.7.731-1.6.916-3.581.942a11.434,11.434,0,0,1,2.511,4.458" transform="translate(366.98 -20.181)" fill="#e52441"/>
      <path id="Trazado_14484" data-name="Trazado 14484" d="M705.347,57.824a11.325,11.325,0,0,0-6.475-1.732,38.136,38.136,0,0,1-7.133,5.979,8.853,8.853,0,0,1,3.233,1.337,46.221,46.221,0,0,1,10.376-5.583" transform="translate(378.635 -19.449)" fill="#e52441"/>
      <path id="Trazado_14485" data-name="Trazado 14485" d="M683.161,35.365a15.374,15.374,0,0,0,6.138.9,14.954,14.954,0,0,1,3.41-1.84,3.076,3.076,0,0,1-2.681-1.978,29.821,29.821,0,0,1-6.867,2.92" transform="translate(373.37 -18.993)" fill="#008df0"/>
      <path id="Trazado_14486" data-name="Trazado 14486" d="M188.055,74.88a25.186,25.186,0,0,1-7.182,3.48,6.664,6.664,0,0,0,3.279,2.122,36.305,36.305,0,0,0,7.747-3.275c-2.422-.574-3.505-1.1-3.844-2.327" transform="translate(65.026 -19.811)" fill="#008df0"/>
      <path id="Trazado_14487" data-name="Trazado 14487" d="M114.608,91.915a7.1,7.1,0,0,0,1.861-2.62,8.788,8.788,0,0,0-2.853.068c-.015.606-.4,1.015-1.094,1.616a3.314,3.314,0,0,1,2.087.936" transform="translate(23.066 -20.088)" fill="#e52441"/>
      <path id="Trazado_14488" data-name="Trazado 14488" d="M725.711,58.927a22.861,22.861,0,0,0-6.318-5.211c-1.887,1.343-2.674,2.387-3.042,3.474a7.848,7.848,0,0,1,3.959,3.153,9.386,9.386,0,0,1,5.4-1.416" transform="translate(393.744 -19.403)" fill="#09989a"/>
      <path id="Trazado_14489" data-name="Trazado 14489" d="M203.324,67.862a.61.61,0,0,1-.124-.757,19.34,19.34,0,0,0-3.447.318,1.133,1.133,0,0,0,.126.934,10.646,10.646,0,0,1,3.446-.494" transform="translate(76.588 -19.661)" fill="#e52441"/>
      <path id="Trazado_14490" data-name="Trazado 14490" d="M842.551,26.646a38.452,38.452,0,0,0-8.26.608,6.546,6.546,0,0,0,2.718,2.592,12.6,12.6,0,0,1,5.048-.423,2.2,2.2,0,0,1,.494-2.777" transform="translate(466.145 -18.881)" fill="#e52441"/>
      <path id="Trazado_14491" data-name="Trazado 14491" d="M47.514,59.466A3.854,3.854,0,0,0,49,62.585a18.783,18.783,0,0,1,3.655.752c-.344-.742.037-1.223,1.269-2.025a30.07,30.07,0,0,1-6.409-1.846" transform="translate(-16.841 -19.514)" fill="#e52441"/>
      <path id="Trazado_14492" data-name="Trazado 14492" d="M642.54,67a2.11,2.11,0,0,0,.3,2.1,9.093,9.093,0,0,1,3.568-.414,3.121,3.121,0,0,0,.247-2.017A17.471,17.471,0,0,1,642.54,67" transform="translate(348.338 -19.653)" fill="#008df0"/>
      <path id="Trazado_14493" data-name="Trazado 14493" d="M85.692,108.725a1.034,1.034,0,0,1-.665-.212c-.253-.224-.161-.529.207-.683,2.393-1,3.809-3.011,3.6-5.115a6.667,6.667,0,0,0-1.154-2.986,17.686,17.686,0,0,1-4.79.39,11.1,11.1,0,0,1-6.764-2.281c-1.051-.957-1.356-2-.839-2.853a3.686,3.686,0,0,1,2.266-1.406,9.2,9.2,0,0,1,4.361-.021,10.394,10.394,0,0,1,4.908,2.989,21.166,21.166,0,0,1,1.669,1.859,8.37,8.37,0,0,0,1.7-.813c3.255-2.088,3.591-5.724.779-8.46-2.487-2.421-7.125-4.157-12.722-4.761-.439-.047-.731-.3-.654-.569s.486-.446.936-.4c6.046.652,11.079,2.55,13.81,5.208,3.186,3.1,2.765,7.251-.978,9.652a10.269,10.269,0,0,1-2.214,1.046,7.38,7.38,0,0,1,1.3,3.343c.242,2.477-1.406,4.769-4.3,5.981a1.2,1.2,0,0,1-.457.086m-5.915-14.44a6.2,6.2,0,0,0-1.575.193,2.326,2.326,0,0,0-1.4.844c-.332.551-.084,1.289.667,1.972a9.157,9.157,0,0,0,5.558,1.848,15.24,15.24,0,0,0,4-.321,20.127,20.127,0,0,0-1.586-1.765A8.971,8.971,0,0,0,81.3,94.464a6.244,6.244,0,0,0-1.519-.178" transform="translate(0.06 -19.975)" fill="#e52441"/>
      <path id="Trazado_14494" data-name="Trazado 14494" d="M50.887,162.159c-.236,0-.474-.008-.715-.025-.444-.031-.76-.275-.71-.543s.454-.466.894-.432c3.223.224,6-1.587,6.585-3.419.547-1.727-.258-3.693-2.393-5.844-.839-.845-1.816-1.669-2.76-2.466a37.4,37.4,0,0,1-3.239-2.954c-1.54-1.654-3.134-4.145-1.99-6.617,1.37-2.959,6.707-4.922,11.659-4.292.436.056.715.316.623.581s-.516.433-.955.38c-4.077-.523-8.644,1.159-9.772,3.6-.994,2.148.452,4.376,1.84,5.869a36.739,36.739,0,0,0,3.144,2.863c.963.813,1.959,1.653,2.832,2.532,2.348,2.366,3.221,4.564,2.6,6.537-.676,2.131-3.843,4.233-7.637,4.233" transform="translate(-17.666 -20.979)" fill="#09989a"/>
      <path id="Trazado_14495" data-name="Trazado 14495" d="M212.293,172.43a1.867,1.867,0,0,0-.739,2.274,23.915,23.915,0,0,1,6.785.747c-.1-.769.247-1.3,1.246-2.279a28.856,28.856,0,0,0-7.292-.742" transform="translate(83.8 -21.692)" fill="#fff"/>
      <path id="Trazado_14496" data-name="Trazado 14496" d="M169.7,130.349a1.7,1.7,0,0,0-1.018-1.592,32.746,32.746,0,0,1-4.766.462,1.242,1.242,0,0,1,.291.928,29.749,29.749,0,0,1,5.494.2" transform="translate(54.613 -20.85)" fill="#fff"/>
      <path id="Trazado_14497" data-name="Trazado 14497" d="M182.746,147.206a1.54,1.54,0,0,1,.447.77,12.487,12.487,0,0,1,2.313-.811.784.784,0,0,0-.3-.767,15.374,15.374,0,0,0-2.463.808" transform="translate(66.175 -21.19)" fill="#fff"/>
      <path id="Trazado_14498" data-name="Trazado 14498" d="M253.5,156.066a2.291,2.291,0,0,0,.573,2.851,55.867,55.867,0,0,1,8.082.447,1.972,1.972,0,0,1,.16-1.584,45.848,45.848,0,0,1-8.815-1.714" transform="translate(109.449 -21.376)" fill="#fff"/>
      <path id="Trazado_14499" data-name="Trazado 14499" d="M118.95,145.783a9.946,9.946,0,0,0,2.3.675,1.124,1.124,0,0,0,0-.945,3.323,3.323,0,0,1-1.423-.4,1.3,1.3,0,0,1-.883.67" transform="translate(27.012 -21.165)" fill="#fff"/>
      <path id="Trazado_14500" data-name="Trazado 14500" d="M90.611,155.051a22.267,22.267,0,0,0,5.147,1.5,2.5,2.5,0,0,0,.006-2.111,7.471,7.471,0,0,1-3.179-.889,2.906,2.906,0,0,1-1.974,1.495" transform="translate(9.616 -21.328)" fill="#fff"/>
      <path id="Trazado_14501" data-name="Trazado 14501" d="M251,123.01a14.165,14.165,0,0,0-4.772-.725,1.927,1.927,0,0,0-.668,1.765,12.834,12.834,0,0,1,4.688.738A1.449,1.449,0,0,1,251,123.01" transform="translate(104.715 -20.725)" fill="#fff"/>
      <path id="Trazado_14502" data-name="Trazado 14502" d="M64.63,163.532a1.583,1.583,0,0,0-.684-1.179,7.431,7.431,0,0,1-1.433-.239c.16.28.032.47-.413.8a12.053,12.053,0,0,1,2.531.623" transform="translate(-7.887 -21.493)" fill="#fff"/>
      <path id="Trazado_14503" data-name="Trazado 14503" d="M164.465,157.914a7.937,7.937,0,0,1-3.583-.457,6.814,6.814,0,0,0,.494,3.574,13.067,13.067,0,0,0,3.473-.336,3.986,3.986,0,0,1-.384-2.78" transform="translate(52.736 -21.403)" fill="#fff"/>
      <path id="Trazado_14504" data-name="Trazado 14504" d="M115.987,155.105a6.372,6.372,0,0,0-4.052.213,2.424,2.424,0,0,0,.345,2.436,12.985,12.985,0,0,1,4.714,1.219,6.4,6.4,0,0,1-1.007-3.868" transform="translate(22.605 -21.353)" fill="#fff"/>
      <path id="Trazado_14505" data-name="Trazado 14505" d="M129.3,176.311a4.232,4.232,0,0,0,1.862-.618,2.477,2.477,0,0,1-1.257-1.118,7.379,7.379,0,0,0-1.927.412,4.333,4.333,0,0,1,1.322,1.324" transform="translate(32.555 -21.733)" fill="#fff"/>
      <path id="Trazado_14506" data-name="Trazado 14506" d="M196.52,155.149c1.26-.817,1.8-1.349,1.849-2.553a38.042,38.042,0,0,1-6.383-2.813,3.572,3.572,0,0,1-1.428,1.275,25.4,25.4,0,0,1,5.962,4.091" transform="translate(70.971 -21.255)" fill="#fff"/>
      <path id="Trazado_14507" data-name="Trazado 14507" d="M225.677,137.836a2.835,2.835,0,0,0-.96,2.419,8.262,8.262,0,0,1,1.966,1.346c.236-.575.789-.807,2.113-1.057a12.167,12.167,0,0,1-3.118-2.708" transform="translate(91.912 -21.025)" fill="#fff"/>
      <path id="Trazado_14508" data-name="Trazado 14508" d="M153.088,115.33a3.418,3.418,0,0,1,1.979-.627,13.787,13.787,0,0,0-3.152-3.252,6.687,6.687,0,0,0-2.456.745,8.878,8.878,0,0,1,3.63,3.133" transform="translate(45.741 -20.516)" fill="#fff"/>
      <path id="Trazado_14509" data-name="Trazado 14509" d="M243.475,167.365a2.308,2.308,0,0,0-1.536-.32c-.365.338-.55.613-.521.923a3.283,3.283,0,0,1,1.4.908,2.816,2.816,0,0,1,.66-1.511" transform="translate(102.191 -21.587)" fill="#fff"/>
      <path id="Trazado_14510" data-name="Trazado 14510" d="M133.644,172.946a5.613,5.613,0,0,0-2.237.12,1.551,1.551,0,0,1,.441,1.407,8.627,8.627,0,0,0,2.155.1,2.755,2.755,0,0,1-.358-1.624" transform="translate(34.66 -21.7)" fill="#fff"/>
      <path id="Trazado_14511" data-name="Trazado 14511" d="M242.46,122.909a4.051,4.051,0,0,1-2.429-2.285,4.828,4.828,0,0,0-2.322,1.469,7.292,7.292,0,0,0,2.915,2.312,3.624,3.624,0,0,1,1.837-1.5" transform="translate(99.916 -20.693)" fill="#e52441"/>
      <path id="Trazado_14512" data-name="Trazado 14512" d="M254.953,118.063a2.157,2.157,0,0,1,.926,2.383,59.066,59.066,0,0,0,10.771-1.911,3.976,3.976,0,0,0-1.059-2.943,31.871,31.871,0,0,1-10.639,2.471" transform="translate(110.502 -20.596)" fill="#e52441"/>
      <path id="Trazado_14513" data-name="Trazado 14513" d="M228.105,136.048a5.308,5.308,0,0,1,3.633-.8,9.1,9.1,0,0,0-3.318-2.756,4.632,4.632,0,0,0-3.131.866c1.469.912,2.414,1.629,2.816,2.693" transform="translate(92.292 -20.922)" fill="#e52441"/>
      <path id="Trazado_14514" data-name="Trazado 14514" d="M78.345,168.469a5.124,5.124,0,0,1-2.368-1.647,2.414,2.414,0,0,1-1.257.287,5.411,5.411,0,0,0,2.364,1.969,3.277,3.277,0,0,0,1.26-.61" transform="translate(-0.139 -21.583)" fill="#008df0"/>
      <path id="Trazado_14515" data-name="Trazado 14515" d="M66.281,176.176a19.208,19.208,0,0,1-5.371-2.36,3.516,3.516,0,0,0-1.795,1.8,23.457,23.457,0,0,0,5.247,2.64,2.219,2.219,0,0,1,1.919-2.076" transform="translate(-9.719 -21.718)" fill="#e52441"/>
      <path id="Trazado_14516" data-name="Trazado 14516" d="M107.246,129.989c1.452.783,3.113.9,5.768.691a9.486,9.486,0,0,1,1.9-6.354,12.929,12.929,0,0,1-5.781-1.166,11.2,11.2,0,0,0-1.883,6.829" transform="translate(19.827 -20.742)" fill="#e52441"/>
      <path id="Trazado_14517" data-name="Trazado 14517" d="M87.157,168.847c.765-.94,1.007-1.5.518-2.592a46.354,46.354,0,0,1-6.974-1.468,2.178,2.178,0,0,1-.71,1.377,34.263,34.263,0,0,1,7.166,2.683" transform="translate(3.096 -21.544)" fill="#e52441"/>
      <path id="Trazado_14518" data-name="Trazado 14518" d="M124.231,112.944a7.17,7.17,0,0,1,1.951-.417,9.518,9.518,0,0,1-2.056-2.166,4.177,4.177,0,0,0-1.945.278,10.767,10.767,0,0,0,2.05,2.306" transform="translate(28.996 -20.495)" fill="#e52441"/>
      <path id="Trazado_14519" data-name="Trazado 14519" d="M139.415,153.836c-2.276.892-5.158,1.216-11.623.458-.081,1.732.631,3.247,2.548,5.068a39.405,39.405,0,0,0,12.338-1.1,6.944,6.944,0,0,1-3.263-4.431" transform="translate(32.437 -21.333)" fill="#e52441"/>
      <path id="Trazado_14520" data-name="Trazado 14520" d="M198.8,140.572a4.429,4.429,0,0,1,2.008,1.238,1.839,1.839,0,0,1,.976-.264,4.714,4.714,0,0,0-2.032-1.495,2.414,2.414,0,0,0-.952.521" transform="translate(76.028 -21.067)" fill="#e52441"/>
      <path id="Trazado_14521" data-name="Trazado 14521" d="M191.616,179.743a13.532,13.532,0,0,0,7.227-.537,20.134,20.134,0,0,1,1.136-7.569,12.809,12.809,0,0,1-4.017-.149c-.873,3.285-2.1,5.235-4.346,8.256" transform="translate(71.621 -21.673)" fill="#e52441"/>
      <path id="Trazado_14522" data-name="Trazado 14522" d="M197.558,118.265c.323.745,1.1,1.13,2.4,1.734,2.058-1.774,5.114-3.283,8.922-4.831a3.563,3.563,0,0,1-1.841-1.83,30.293,30.293,0,0,0-9.475,4.927" transform="translate(75.268 -20.553)" fill="#008df0"/>
      <path id="Trazado_14523" data-name="Trazado 14523" d="M173.922,121.307a7.237,7.237,0,0,1-3.225.166,8.091,8.091,0,0,0,1.912,2.95,9.778,9.778,0,0,0,2.8-.822,4.718,4.718,0,0,1-1.488-2.294" transform="translate(58.779 -20.706)" fill="#008df0"/>
      <path id="Trazado_14524" data-name="Trazado 14524" d="M70.662,98.808c-1.277,1.61-2.03,2.981-1.84,4.469a10.709,10.709,0,0,0,4.477.627,5.7,5.7,0,0,1,1.87-4.391,7.167,7.167,0,0,1-4.508-.705" transform="translate(-3.778 -20.272)" fill="#e52441"/>
      <path id="Trazado_14525" data-name="Trazado 14525" d="M155.941,154.312a.9.9,0,0,0-.35,1.232,4.928,4.928,0,0,0,2.006.211,3.573,3.573,0,0,1,1.586-1.245,13.168,13.168,0,0,1-3.242-.2" transform="translate(49.433 -21.342)" fill="#09989a"/>
      <path id="Trazado_14526" data-name="Trazado 14526" d="M114.877,160.362a5.223,5.223,0,0,1,2.8.478,11.743,11.743,0,0,0,1.78-4.8,10.114,10.114,0,0,0-3.43-.623c.374,1.933-.111,3.149-1.151,4.946" transform="translate(24.512 -21.364)" fill="#e52441"/>
      <path id="Trazado_14527" data-name="Trazado 14527" d="M50.142,114.775a11.023,11.023,0,0,0-5.931-.647,22.592,22.592,0,0,1-3.936,5.816,9.328,9.328,0,0,1,3.115.714,28.052,28.052,0,0,1,6.752-5.882" transform="translate(-21.284 -20.565)" fill="#008df0"/>
      <path id="Trazado_14528" data-name="Trazado 14528" d="M33.1,177.154a13.531,13.531,0,0,0,6.242-2.751c-3.01-1.213-4.385-2.263-5.384-3.674a24.366,24.366,0,0,0-6.63,2.024,19.161,19.161,0,0,1,5.771,4.4" transform="translate(-29.232 -21.659)" fill="#e52441"/>
      <path id="Trazado_14529" data-name="Trazado 14529" d="M28.052,126.73c.332,1.372-.145,2.2-1.159,3.355a44.624,44.624,0,0,0,9.065-.462,5.033,5.033,0,0,0-.855-3.252c-1.8.463-3.759.451-7.051.359" transform="translate(-29.499 -20.804)" fill="#e52441"/>
      <path id="Trazado_14530" data-name="Trazado 14530" d="M212.416,141.751a9.971,9.971,0,0,0-4.7,1.352,27.09,27.09,0,0,1,7.579,9.027,11.254,11.254,0,0,1,4.716-.864c-1.83-3.963-3.428-6.082-7.6-9.515" transform="translate(81.505 -21.1)" fill="#008df0"/>
      <path id="Trazado_14531" data-name="Trazado 14531" d="M297.4,188.065a2.985,2.985,0,0,1-1.322.792c.208.148.3.259.282.384a4,4,0,0,0,1.594-.8,1.363,1.363,0,0,0-.555-.376" transform="translate(135.749 -21.993)" fill="#fff"/>
      <path id="Trazado_14532" data-name="Trazado 14532" d="M322.383,153.222a1.162,1.162,0,0,1-.178-1.271,14.593,14.593,0,0,0-3.15.754,2.647,2.647,0,0,0,.878,1.1,8.458,8.458,0,0,1,2.45-.586" transform="translate(164.853 29.112)" fill="#fff"/>
      <path id="Trazado_14533" data-name="Trazado 14533" d="M279.43,132.177a2.052,2.052,0,0,0-1.315-.138c-.223.3-.315.541-.224.791a3.324,3.324,0,0,1,1.328.626,2.033,2.033,0,0,1,.211-1.279" transform="translate(124.561 -20.912)" fill="#fff"/>
      <path id="Trazado_14534" data-name="Trazado 14534" d="M312.51,188.714a4.993,4.993,0,0,1,2.758-1.735,25.724,25.724,0,0,0-5.686-1.787,4.7,4.7,0,0,0-1.494,2.132,14.98,14.98,0,0,1,4.422,1.39" transform="translate(196.12 -178.365)" fill="#e52441"/>
      <path id="Trazado_14536" data-name="Trazado 14536" d="M293.182,151.716a5.441,5.441,0,0,0,2.219.308,1.525,1.525,0,0,1,.3-1.441,7.7,7.7,0,0,0-2.029-.5,2.862,2.862,0,0,1-.486,1.634" transform="translate(415.763 -31.099)" fill="#e52441"/>
      <path id="Trazado_14537" data-name="Trazado 14537" d="M309.381,125.211c-.92,1.371-.791,2.387.539,3.8a15.179,15.179,0,0,0,6.18-.324c.253-1.66,1.2-2.714,3.092-4.415a39.5,39.5,0,0,1-9.811.943" transform="translate(45.876 -100.558)" fill="#09989a"/>
      <path id="Trazado_14538" data-name="Trazado 14538" d="M308.13,146.906a10.448,10.448,0,0,1-3.237,1.565,30.855,30.855,0,0,1,6.213,3.275,6.526,6.526,0,0,0,3.376-1.3,35.2,35.2,0,0,0-6.352-3.544" transform="translate(221.159 26.685)" fill="#008df0"/>
      <path id="Trazado_14539" data-name="Trazado 14539" d="M301.928,168.02a25.165,25.165,0,0,1-7.182,3.48,6.664,6.664,0,0,0,3.279,2.122,36.271,36.271,0,0,0,7.747-3.275c-2.422-.574-3.505-1.1-3.844-2.327" transform="translate(134.93 -21.607)" fill="#008df0"/>
      <path id="Trazado_14540" data-name="Trazado 14540" d="M317.2,161a.612.612,0,0,1-.123-.757,19.328,19.328,0,0,0-3.447.318,1.123,1.123,0,0,0,.126.933A10.675,10.675,0,0,1,317.2,161" transform="translate(146.493 -21.457)" fill="#e52441"/>
      <path id="Trazado_14541" data-name="Trazado 14541" d="M283.568,223.489a1.7,1.7,0,0,0-1.018-1.592,32.746,32.746,0,0,1-4.766.462,1.242,1.242,0,0,1,.29.928,29.754,29.754,0,0,1,5.494.2" transform="translate(124.517 -22.645)" fill="#fff"/>
      <path id="Trazado_14542" data-name="Trazado 14542" d="M266.962,208.47a3.417,3.417,0,0,1,1.977-.627,13.789,13.789,0,0,0-3.152-3.252,6.71,6.71,0,0,0-2.456.745,8.893,8.893,0,0,1,3.631,3.133" transform="translate(115.645 -22.311)" fill="#fff"/>
      <path id="Trazado_14543" data-name="Trazado 14543" d="M311.431,211.406c.323.745,1.1,1.13,2.4,1.734,2.058-1.774,5.114-3.283,8.921-4.831a3.563,3.563,0,0,1-1.841-1.83,30.292,30.292,0,0,0-9.475,4.927" transform="translate(145.172 -22.348)" fill="#008df0"/>
      <path id="Trazado_14544" data-name="Trazado 14544" d="M287.8,214.447a7.229,7.229,0,0,1-3.226.167,8.085,8.085,0,0,0,1.912,2.949,9.756,9.756,0,0,0,2.8-.822,4.7,4.7,0,0,1-1.488-2.294" transform="translate(128.683 -22.501)" fill="#008df0"/>
      <path id="Trazado_14545" data-name="Trazado 14545" d="M154.564,144.628a4.685,4.685,0,0,1-2.989-1.861,36.3,36.3,0,0,0-8.084,5.32,8.947,8.947,0,0,0,3.615,2.326c1.866-2.629,3.957-3.961,7.458-5.785" transform="translate(42.078 -21.12)" fill="#008df0"/>
      <path id="Trazado_14546" data-name="Trazado 14546" d="M45.213,154.029a3.077,3.077,0,0,0-1.567-1.745,6.416,6.416,0,0,1-2.834,1.178,3.724,3.724,0,0,0,1.043,1.8,12.627,12.627,0,0,1,3.358-1.238" transform="translate(-20.955 -21.303)" fill="#e52441"/>
      <path id="Trazado_14547" data-name="Trazado 14547" d="M241.321,110.687c-1.612.48-2.4.852-3.136,1.938a22.378,22.378,0,0,1,4.215,3.9,5.658,5.658,0,0,1,2.025-.861,14.4,14.4,0,0,1-3.105-4.978" transform="translate(100.208 -20.501)" fill="#09989a"/>
      <path id="Trazado_14548" data-name="Trazado 14548" d="M72.4,182.866c1.3-.819,2.587-1.784,2.889-3.086a7.681,7.681,0,0,1-1.819-2.315c-.7.731-1.6.916-3.581.943a11.453,11.453,0,0,1,2.511,4.458" transform="translate(-3.107 -21.789)" fill="#e52441"/>
      <path id="Trazado_14549" data-name="Trazado 14549" d="M102.481,141.224a11.325,11.325,0,0,0-6.475-1.732,38.138,38.138,0,0,1-7.133,5.979,8.852,8.852,0,0,1,3.233,1.337,46.222,46.222,0,0,1,10.376-5.583" transform="translate(8.549 -21.057)" fill="#e52441"/>
      <path id="Trazado_14550" data-name="Trazado 14550" d="M80.295,118.765a15.357,15.357,0,0,0,6.138.9,14.952,14.952,0,0,1,3.41-1.84,3.076,3.076,0,0,1-2.681-1.978,29.819,29.819,0,0,1-6.867,2.92" transform="translate(3.283 -20.601)" fill="#008df0"/>
      <path id="Trazado_14551" data-name="Trazado 14551" d="M122.844,142.327a22.862,22.862,0,0,0-6.318-5.211c-1.887,1.343-2.674,2.387-3.042,3.474a7.848,7.848,0,0,1,3.959,3.153,9.386,9.386,0,0,1,5.4-1.416" transform="translate(23.657 -21.011)" fill="#09989a"/>
      <path id="Trazado_14552" data-name="Trazado 14552" d="M239.686,110.046a38.52,38.52,0,0,0-8.26.607,6.544,6.544,0,0,0,2.718,2.593,12.615,12.615,0,0,1,5.048-.424,2.2,2.2,0,0,1,.494-2.776" transform="translate(96.059 -20.489)" fill="#e52441"/>
      <path id="Trazado_14553" data-name="Trazado 14553" d="M39.674,150.4a2.11,2.11,0,0,0,.3,2.1,9.093,9.093,0,0,1,3.568-.414,3.11,3.11,0,0,0,.247-2.017,17.471,17.471,0,0,1-4.119.335" transform="translate(-21.748 -21.26)" fill="#008df0"/>
      <path id="Trazado_14554" data-name="Trazado 14554" d="M240.844,217.237a1.115,1.115,0,0,1-.578-.148.372.372,0,0,1,.016-.693c4.311-2.547,6.882-6.248,6.874-9.9a8.675,8.675,0,0,0-.8-3.553,17.333,17.333,0,0,1-4.514.148c-3.509-.357-6.677-1.873-8.069-3.863a2.71,2.71,0,0,1,.115-3.4,3.944,3.944,0,0,1,2.579-1.192,7.782,7.782,0,0,1,4.9,1.262,16.392,16.392,0,0,1,6.055,5.773,10.177,10.177,0,0,0,2.926-1.293c2.852-1.918,3.446-5.131,1.588-8.593a13.794,13.794,0,0,0-5.626-5.6,18.8,18.8,0,0,0-9.743-2.154c-.455.028-.838-.173-.88-.441s.282-.51.726-.535a20.808,20.808,0,0,1,10.981,2.4,14.876,14.876,0,0,1,6.076,6.029c2.038,3.8,1.319,7.37-1.925,9.553a12.148,12.148,0,0,1-3.643,1.576,9.4,9.4,0,0,1,.873,3.882c.008,3.973-2.676,7.839-7.362,10.607a1.122,1.122,0,0,1-.563.139m-3.691-21.661a3.415,3.415,0,0,0-.392.023,2.2,2.2,0,0,0-1.456.69,2.064,2.064,0,0,0-.052,2.552c1.183,1.689,3.872,2.977,6.851,3.28a14.777,14.777,0,0,0,3.768-.116,15.383,15.383,0,0,0-5.634-5.4,6.233,6.233,0,0,0-3.086-1.026" transform="translate(97.165 -21.896)" fill="#e52441"/>
      <path id="Trazado_14555" data-name="Trazado 14555" d="M165.266,208.119a2.974,2.974,0,0,1-1.322.791c.208.148.3.26.282.384a3.986,3.986,0,0,0,1.594-.8,1.363,1.363,0,0,0-.555-.376" transform="translate(54.633 -22.379)" fill="#fff"/>
      <path id="Trazado_14556" data-name="Trazado 14556" d="M116.72,199.884a2.29,2.29,0,0,0,.573,2.85,55.868,55.868,0,0,1,8.082.448,1.975,1.975,0,0,1,.16-1.585,45.925,45.925,0,0,1-8.815-1.713" transform="translate(25.483 -22.221)" fill="#fff"/>
      <path id="Trazado_14557" data-name="Trazado 14557" d="M195.594,208.188a3.575,3.575,0,0,0-1.851.944,18.523,18.523,0,0,1,5.158,3.517,4.287,4.287,0,0,1,1.954-.726,15.867,15.867,0,0,0-5.261-3.736" transform="translate(72.926 -22.381)" fill="#fff"/>
      <path id="Trazado_14558" data-name="Trazado 14558" d="M35.54,191.78c-1.3.376-2.863.425-6.192-.248a3.01,3.01,0,0,0,.768,2.785,21.431,21.431,0,0,0,6.643-.059,3.124,3.124,0,0,1-1.218-2.478" transform="translate(-28.051 -22.06)" fill="#fff"/>
      <path id="Trazado_14559" data-name="Trazado 14559" d="M270.656,183.955a19.333,19.333,0,0,0-5.245,6.545,22.389,22.389,0,0,0,7.283.028c.155-1.543,1.223-2.558,3.1-4.042-2.694-.5-3.862-1.171-5.14-2.532" transform="translate(116.922 -21.914)" fill="#e52441"/>
      <path id="Trazado_14560" data-name="Trazado 14560" d="M209.409,196.785a3.343,3.343,0,0,1,1.086,1.352,20.473,20.473,0,0,1,3.952-1.782,1.636,1.636,0,0,0-.809-1.366,25.129,25.129,0,0,0-4.23,1.8" transform="translate(82.543 -22.126)" fill="#e52441"/>
      <path id="Trazado_14561" data-name="Trazado 14561" d="M180.374,208.767a5,5,0,0,1,2.758-1.735,25.728,25.728,0,0,0-5.686-1.787,4.7,4.7,0,0,0-1.494,2.132,15.007,15.007,0,0,1,4.422,1.39" transform="translate(62.005 -22.324)" fill="#e52441"/>
      <path id="Trazado_14562" data-name="Trazado 14562" d="M119.329,193.658c-.053.724.281,1.179,1.275,1.695a6.3,6.3,0,0,0,2.758-.765,2.675,2.675,0,0,1,.231-2.342,15.633,15.633,0,0,1-4.264,1.412" transform="translate(27.242 -22.073)" fill="#e52441"/>
      <path id="Trazado_14563" data-name="Trazado 14563" d="M253.355,204.9a5.19,5.19,0,0,0-2.138.4,1.951,1.951,0,0,1,.913,1.313,8.481,8.481,0,0,0,2.129-.178,3.376,3.376,0,0,1-.9-1.535" transform="translate(108.208 -22.317)" fill="#09989a"/>
      <path id="Trazado_14564" data-name="Trazado 14564" d="M65.092,201.134a4.481,4.481,0,0,0,2.179,1.34,11.739,11.739,0,0,1,2.208-.231c-.515-.321-.539-.631-.278-1.246a20.806,20.806,0,0,1-4.109.138" transform="translate(-6.05 -22.242)" fill="#e52441"/>
      <path id="Trazado_14565" data-name="Trazado 14565" d="M169.792,188.074a25.165,25.165,0,0,1-7.182,3.48,6.664,6.664,0,0,0,3.279,2.122,36.27,36.27,0,0,0,7.747-3.275c-2.422-.574-3.505-1.1-3.844-2.327" transform="translate(53.814 -21.993)" fill="#008df0"/>
      <path id="Trazado_14566" data-name="Trazado 14566" d="M96.345,205.109a7.1,7.1,0,0,0,1.861-2.62,8.776,8.776,0,0,0-2.852.068c-.016.606-.4,1.015-1.1,1.616a3.314,3.314,0,0,1,2.087.936" transform="translate(11.855 -22.269)" fill="#e52441"/>
      <path id="Trazado_14567" data-name="Trazado 14567" d="M67.429,221.919a1.034,1.034,0,0,1-.665-.212c-.253-.224-.16-.529.207-.682,2.393-1,3.809-3.012,3.6-5.116a6.652,6.652,0,0,0-1.154-2.986,17.68,17.68,0,0,1-4.788.39,11.113,11.113,0,0,1-6.765-2.28c-1.051-.958-1.356-2-.839-2.854a3.686,3.686,0,0,1,2.266-1.406,9.207,9.207,0,0,1,4.361-.021,10.4,10.4,0,0,1,4.908,2.989,21.168,21.168,0,0,1,1.669,1.859,8.37,8.37,0,0,0,1.7-.813c3.255-2.088,3.591-5.725.78-8.459-2.487-2.422-7.125-4.158-12.722-4.762-.439-.047-.731-.3-.654-.568s.486-.447.936-.4c6.046.652,11.079,2.55,13.81,5.208,3.186,3.1,2.765,7.25-.978,9.653a10.315,10.315,0,0,1-2.214,1.045,7.38,7.38,0,0,1,1.3,3.343c.242,2.477-1.406,4.769-4.3,5.981a1.2,1.2,0,0,1-.457.086m-5.913-14.44a6.2,6.2,0,0,0-1.577.193,2.331,2.331,0,0,0-1.4.844c-.332.551-.084,1.289.667,1.972a9.165,9.165,0,0,0,5.558,1.848,15.241,15.241,0,0,0,4-.321,20.131,20.131,0,0,0-1.586-1.765,8.971,8.971,0,0,0-4.149-2.593,6.29,6.29,0,0,0-1.517-.178" transform="translate(-11.151 -22.157)" fill="#e52441"/>
      <path id="Trazado_14568" data-name="Trazado 14568" d="M105.968,226.139a7.131,7.131,0,0,1,1.951-.418,9.519,9.519,0,0,1-2.056-2.166,4.177,4.177,0,0,0-1.945.278,10.79,10.79,0,0,0,2.05,2.307" transform="translate(17.785 -22.677)" fill="#e52441"/>
      <path id="Trazado_14569" data-name="Trazado 14569" d="M52.4,212c-1.277,1.61-2.029,2.981-1.838,4.469a10.71,10.71,0,0,0,4.477.627,5.7,5.7,0,0,1,1.87-4.391A7.174,7.174,0,0,1,52.4,212" transform="translate(-14.989 -22.454)" fill="#e52441"/>
      <path id="Trazado_14570" data-name="Trazado 14570" d="M223.058,223.881c-1.612.48-2.4.852-3.136,1.937a22.413,22.413,0,0,1,4.215,3.9,5.657,5.657,0,0,1,2.025-.861,14.4,14.4,0,0,1-3.105-4.978" transform="translate(88.997 -22.683)" fill="#09989a"/>
      <path id="Trazado_14571" data-name="Trazado 14571" d="M221.423,223.24a38.522,38.522,0,0,0-8.26.607,6.544,6.544,0,0,0,2.718,2.593,12.614,12.614,0,0,1,5.048-.424,2.2,2.2,0,0,1,.494-2.776" transform="translate(84.848 -22.671)" fill="#e52441"/>
      <path id="Trazado_14572" data-name="Trazado 14572" d="M608.092,118.288c-2.669-.987-4.416-2.936-4.671-5.216-.218-1.949.574-3.842,1.477-5.774l.082-.174c-4.627-1.515-7.566-4.868-7.659-8-.137-4.594,4.438-8.6,8.3-11.156a1.206,1.206,0,0,1,1.141-.028c.328.183.35.493.048.692-3.665,2.421-8,6.205-7.877,10.473.081,2.688,2.623,5.648,6.543,7.047A7.1,7.1,0,0,1,608.752,103a9.147,9.147,0,0,1,5-.607,4.122,4.122,0,0,1,2.807,1.416c.716,1.046.087,2.393-1.5,3.2a11.171,11.171,0,0,1-5.084.934,17.564,17.564,0,0,1-3.51-.415l-.016.034c-.862,1.844-1.619,3.647-1.419,5.439a5.569,5.569,0,0,0,3.9,4.445c2.206.816,5.755.656,7.2-.779a1.145,1.145,0,0,1,1.109-.163c.381.141.5.443.268.674-1.136,1.129-3.318,1.75-5.586,1.75a11.2,11.2,0,0,1-3.83-.644m1.649-14.511a6.047,6.047,0,0,0-2.8,2.806,14.643,14.643,0,0,0,3.087.383,8.759,8.759,0,0,0,4-.7c1.041-.532,1.491-1.423,1.046-2.074a2.614,2.614,0,0,0-1.73-.844,6.44,6.44,0,0,0-1.014-.077,6.352,6.352,0,0,0-2.585.511" transform="translate(320.672 -20.06)" fill="#09989a"/>
      <path id="Trazado_14573" data-name="Trazado 14573" d="M650.585,180.1c-4.687-2.768-7.371-6.634-7.363-10.607a9.409,9.409,0,0,1,.873-3.883,12.123,12.123,0,0,1-3.643-1.575c-3.244-2.183-3.964-5.755-1.925-9.554a14.884,14.884,0,0,1,6.076-6.028,20.8,20.8,0,0,1,10.981-2.4c.444.025.77.265.726.535s-.424.47-.88.441a18.81,18.81,0,0,0-9.743,2.154,13.8,13.8,0,0,0-5.626,5.6c-1.858,3.462-1.262,6.674,1.588,8.593a10.176,10.176,0,0,0,2.926,1.292,16.42,16.42,0,0,1,6.055-5.773,7.787,7.787,0,0,1,4.9-1.261,3.935,3.935,0,0,1,2.579,1.192,2.71,2.71,0,0,1,.115,3.4c-1.393,1.99-4.561,3.505-8.069,3.863a17.335,17.335,0,0,1-4.514-.149,8.679,8.679,0,0,0-.8,3.554c-.008,3.655,2.563,7.356,6.875,9.9a.373.373,0,0,1,.014.693,1.105,1.105,0,0,1-.578.148,1.121,1.121,0,0,1-.563-.138m1.169-20.5a15.4,15.4,0,0,0-5.634,5.4,14.73,14.73,0,0,0,3.768.116c2.979-.3,5.67-1.59,6.851-3.28a2.062,2.062,0,0,0-.052-2.551,2.2,2.2,0,0,0-1.456-.691,3.417,3.417,0,0,0-.392-.023,6.242,6.242,0,0,0-3.086,1.026" transform="translate(345.269 -21.182)" fill="#e52441"/>
      <path id="Trazado_14574" data-name="Trazado 14574" d="M773.9,143.946c-4.985-.961-8.745-3.846-9.146-7.017a4.669,4.669,0,0,1,.082-1.611c-.526-.136-1.041-.3-1.538-.478-4.5-1.651-7.143-5.012-6.584-8.366.578-3.456,4.111-6.287,7.529-9.027,3.35-2.686,6.517-5.223,7.195-8.315.741-3.386-2.113-6.974-6.938-8.724-.383-.138-.508-.439-.279-.673a1.135,1.135,0,0,1,1.105-.17c5.365,1.945,8.536,5.932,7.711,9.7-.734,3.348-4.178,6.109-7.509,8.777-3.433,2.752-6.677,5.351-7.206,8.533-.5,2.983,1.837,5.969,5.812,7.428.334.123.679.232,1.033.331.975-2.2,3.481-4.162,6.872-5.183,2.765-.834,6.446-.75,7.829.827,1.128,1.287.02,2.867-1.578,3.861-2.986,1.858-7.681,2.51-11.893,1.809a4.045,4.045,0,0,0-.032,1.208c.35,2.781,3.651,5.314,8.026,6.157.425.082.66.358.525.616a.869.869,0,0,1-.768.342,1.236,1.236,0,0,1-.245-.023m-1.146-13.918c-3.024.91-5.245,2.669-6.07,4.642,3.681.631,7.884.078,10.448-1.518,1.189-.738,2.055-1.864,1.309-2.715a3.863,3.863,0,0,0-2.813-.832,10.29,10.29,0,0,0-2.874.423" transform="translate(418.479 -20.286)" fill="#e52441"/>
      <path id="Trazado_14575" data-name="Trazado 14575" d="M837.871,94.035a2.77,2.77,0,0,1,1.94,1.831,17.329,17.329,0,0,0-5.5,2.079c-.354-.691-.957-1.087-2.385-1.729a21.08,21.08,0,0,1,5.947-2.181" transform="translate(464.692 -20.18)" fill="#fff"/>
      <path id="Trazado_14576" data-name="Trazado 14576" d="M719.308,171.116a2.974,2.974,0,0,0,1.322.791c-.208.148-.3.26-.282.384a3.986,3.986,0,0,1-1.595-.8,1.363,1.363,0,0,1,.555-.376" transform="translate(395.219 -21.666)" fill="#fff"/>
      <path id="Trazado_14577" data-name="Trazado 14577" d="M770.592,162.881a2.29,2.29,0,0,1-.573,2.85,55.872,55.872,0,0,0-8.082.448,1.974,1.974,0,0,0-.16-1.585,45.926,45.926,0,0,0,8.815-1.713" transform="translate(421.63 -21.507)" fill="#fff"/>
      <path id="Trazado_14578" data-name="Trazado 14578" d="M690.971,171.184a3.575,3.575,0,0,1,1.851.944,18.545,18.545,0,0,0-5.158,3.517,4.288,4.288,0,0,0-1.954-.726,15.883,15.883,0,0,1,5.261-3.736" transform="translate(374.934 -21.667)" fill="#fff"/>
      <path id="Trazado_14579" data-name="Trazado 14579" d="M794.124,130.985a1.045,1.045,0,0,1,.426-.842,3.421,3.421,0,0,0,1.4.36,1.344,1.344,0,0,1-.191.84,6.607,6.607,0,0,0-1.638-.357" transform="translate(441.487 -20.876)" fill="#fff"/>
      <path id="Trazado_14580" data-name="Trazado 14580" d="M694.879,136.273a1.162,1.162,0,0,0,.178-1.271,14.591,14.591,0,0,1,3.15.754,2.646,2.646,0,0,1-.878,1.1,8.457,8.457,0,0,0-2.45-.586" transform="translate(380.563 -20.97)" fill="#fff"/>
      <path id="Trazado_14581" data-name="Trazado 14581" d="M737.166,115.227a2.04,2.04,0,0,1,1.314-.138.836.836,0,0,1,.226.791,3.3,3.3,0,0,0-1.328.626,2.033,2.033,0,0,0-.211-1.279" transform="translate(406.522 -20.585)" fill="#fff"/>
      <path id="Trazado_14582" data-name="Trazado 14582" d="M851.177,154.777c1.3.376,2.863.425,6.192-.248a3.017,3.017,0,0,1-.766,2.785,21.441,21.441,0,0,1-6.645-.059,3.125,3.125,0,0,0,1.219-2.478" transform="translate(475.763 -21.346)" fill="#fff"/>
      <path id="Trazado_14583" data-name="Trazado 14583" d="M845.745,145.357a22.178,22.178,0,0,1-5.565-2.491,10.448,10.448,0,0,1,3.71-1.2,7.164,7.164,0,0,0,3.366,1.561c-1.155.694-1.459,1.226-1.512,2.129" transform="translate(469.76 -21.099)" fill="#fff"/>
      <path id="Trazado_14584" data-name="Trazado 14584" d="M860.358,99.113a2.159,2.159,0,0,0-.926,2.383,59.15,59.15,0,0,1-10.771-1.911,3.969,3.969,0,0,1,1.06-2.943,31.865,31.865,0,0,0,10.637,2.471" transform="translate(474.965 -20.231)" fill="#e52441"/>
      <path id="Trazado_14585" data-name="Trazado 14585" d="M638.092,114.427a3.384,3.384,0,0,0-1.853,1.088,7.259,7.259,0,0,1-1.908-2.242,8.037,8.037,0,0,1,2.276-.589c.144.535.626.993,1.485,1.744" transform="translate(343.395 -20.54)" fill="#fff"/>
      <path id="Trazado_14586" data-name="Trazado 14586" d="M560.884,135.76a3.258,3.258,0,0,1-2.322-.877,2.775,2.775,0,0,1,1.427-1.4,10.006,10.006,0,0,0,3.434.141,7.967,7.967,0,0,0-2.539,2.132" transform="translate(296.881 -20.941)" fill="#fff"/>
      <path id="Trazado_14587" data-name="Trazado 14587" d="M585.086,110.3a5.022,5.022,0,0,0,1.672-1.276,16.654,16.654,0,0,0,3.5,2.45,2.417,2.417,0,0,1-1.383,1.331,20.677,20.677,0,0,1-3.785-2.5" transform="translate(313.163 -20.469)" fill="#fff"/>
      <path id="Trazado_14588" data-name="Trazado 14588" d="M612.738,98.974a12.029,12.029,0,0,0,3.715-2.831,4.668,4.668,0,0,1,2.266,1.293,14.318,14.318,0,0,1-3.5,3.055,2.855,2.855,0,0,0-2.486-1.516" transform="translate(330.138 -20.221)" fill="#fff"/>
      <path id="Trazado_14589" data-name="Trazado 14589" d="M602.018,120.521a1.534,1.534,0,0,0-.809-.049,3.077,3.077,0,0,1,.341-1.358,2.986,2.986,0,0,1,1,.05,1.908,1.908,0,0,0-.528,1.357" transform="translate(323.061 -20.664)" fill="#fff"/>
      <path id="Trazado_14590" data-name="Trazado 14590" d="M680.815,126.124a3.654,3.654,0,0,1-1.661-.331,7.575,7.575,0,0,0,1.9-3.2,4.019,4.019,0,0,0,1.633.167,6.548,6.548,0,0,1-1.874,3.367" transform="translate(370.91 -20.731)" fill="#fff"/>
      <path id="Trazado_14591" data-name="Trazado 14591" d="M563.013,146.117a7.2,7.2,0,0,1,4.036.953,12.439,12.439,0,0,0-1.172,4.464,7.406,7.406,0,0,0-2.352-.271,10.582,10.582,0,0,0-.513-5.147" transform="translate(299.613 -21.184)" fill="#09989a"/>
      <path id="Trazado_14592" data-name="Trazado 14592" d="M617.155,146.952A19.34,19.34,0,0,1,622.4,153.5a22.4,22.4,0,0,1-7.285.028c-.155-1.543-1.222-2.558-3.1-4.042,2.694-.5,3.862-1.171,5.14-2.532" transform="translate(329.695 -21.2)" fill="#e52441"/>
      <path id="Trazado_14593" data-name="Trazado 14593" d="M821.2,128.841c1.112,2.355,1.606,4.312.783,6.3a15.294,15.294,0,0,1-6.286.218,6.893,6.893,0,0,0-.857-6.193c2.668.472,4.348.5,6.36-.32" transform="translate(454.203 -20.851)" fill="#09989a"/>
      <path id="Trazado_14594" data-name="Trazado 14594" d="M842.636,146.5c.6.727.429,1.418-.276,2.454a26.012,26.012,0,0,0-7.29-.372c.447-.772.339-1.377-.242-2.544a31.136,31.136,0,0,1,7.808.462" transform="translate(466.475 -21.181)" fill="#09989a"/>
      <path id="Trazado_14595" data-name="Trazado 14595" d="M676.368,159.782a3.341,3.341,0,0,0-1.086,1.352,20.476,20.476,0,0,0-3.952-1.782,1.636,1.636,0,0,1,.809-1.366,25.131,25.131,0,0,1,4.23,1.8" transform="translate(366.106 -21.413)" fill="#e52441"/>
      <path id="Trazado_14596" data-name="Trazado 14596" d="M706.217,171.764a5,5,0,0,0-2.758-1.735,25.731,25.731,0,0,1,5.686-1.787,4.7,4.7,0,0,1,1.495,2.132,14.977,14.977,0,0,0-4.422,1.39" transform="translate(385.83 -21.611)" fill="#e52441"/>
      <path id="Trazado_14597" data-name="Trazado 14597" d="M766.155,156.655c.053.724-.281,1.179-1.275,1.695a6.3,6.3,0,0,1-2.758-.765,2.675,2.675,0,0,0-.231-2.342,15.632,15.632,0,0,0,4.264,1.412" transform="translate(421.7 -21.36)" fill="#e52441"/>
      <path id="Trazado_14598" data-name="Trazado 14598" d="M688.085,111.765c.136-.992.721-1.576,2.224-2.175a7.683,7.683,0,0,1,3.541,1.336,3.7,3.7,0,0,0-.358,3.218,18.86,18.86,0,0,0-5.406-2.378" transform="translate(376.392 -20.48)" fill="#e52441"/>
      <path id="Trazado_14599" data-name="Trazado 14599" d="M631.663,167.9a5.188,5.188,0,0,1,2.137.4,1.942,1.942,0,0,0-.912,1.313,8.5,8.5,0,0,1-2.13-.178,3.4,3.4,0,0,0,.905-1.535" transform="translate(341.201 -21.604)" fill="#09989a"/>
      <path id="Trazado_14600" data-name="Trazado 14600" d="M809.179,120.708a2.856,2.856,0,0,0-1.29-1.553c.425-.154.647-.289.725-.478a3.893,3.893,0,0,1,1.682,1.65,3.132,3.132,0,0,1-1.117.382" transform="translate(449.937 -20.655)" fill="#e52441"/>
      <path id="Trazado_14601" data-name="Trazado 14601" d="M757.329,115.325a5.279,5.279,0,0,1-2.316-.068,7.856,7.856,0,0,0,.574-4.5,5.422,5.422,0,0,0,2.185-.136,6.962,6.962,0,0,1-.444,4.708" transform="translate(417.478 -20.5)" fill="#09989a"/>
      <path id="Trazado_14602" data-name="Trazado 14602" d="M820.437,164.131a4.483,4.483,0,0,1-2.179,1.34,11.741,11.741,0,0,0-2.208-.231c.515-.321.539-.63.278-1.247a20.807,20.807,0,0,0,4.109.138" transform="translate(454.947 -21.529)" fill="#e52441"/>
      <path id="Trazado_14603" data-name="Trazado 14603" d="M803.674,139.994c2.148.879,3.725,1.718,4.669,2.9a5.891,5.891,0,0,1-2.944,1.686,10.5,10.5,0,0,0-4.637-2.83c1.635-.438,2.482-.845,2.911-1.755" transform="translate(445.563 -21.066)" fill="#e52441"/>
      <path id="Trazado_14604" data-name="Trazado 14604" d="M672.439,114.062a18.119,18.119,0,0,1-4.283-1.372,6.266,6.266,0,0,1,2.363-1.068,5.871,5.871,0,0,0,2.6.868,1.412,1.412,0,0,0-.681,1.572" transform="translate(364.158 -20.519)" fill="#e52441"/>
      <path id="Trazado_14605" data-name="Trazado 14605" d="M723.771,134.767a5.441,5.441,0,0,1-2.219.308,1.529,1.529,0,0,0-.3-1.441,7.629,7.629,0,0,1,2.029-.5,2.866,2.866,0,0,0,.486,1.634" transform="translate(396.756 -20.934)" fill="#e52441"/>
      <path id="Trazado_14606" data-name="Trazado 14606" d="M710.572,108.262c.92,1.371.791,2.387-.539,3.8a15.179,15.179,0,0,1-6.18-.324c-.253-1.66-1.2-2.714-3.092-4.415a39.5,39.5,0,0,0,9.811.943" transform="translate(384.174 -20.437)" fill="#09989a"/>
      <path id="Trazado_14607" data-name="Trazado 14607" d="M784.837,106.942a8.014,8.014,0,0,0-3.308-5.268c1.451-.412,2.245-.8,2.6-1.394a10.829,10.829,0,0,1,4.522,5.657,11.03,11.03,0,0,1-3.81,1.005" transform="translate(433.756 -20.301)" fill="#008df0"/>
      <path id="Trazado_14608" data-name="Trazado 14608" d="M711.513,129.957a10.426,10.426,0,0,0,3.237,1.565,30.853,30.853,0,0,0-6.214,3.275,6.526,6.526,0,0,1-3.376-1.3,35.205,35.205,0,0,1,6.352-3.544" transform="translate(386.875 -20.873)" fill="#008df0"/>
      <path id="Trazado_14609" data-name="Trazado 14609" d="M718.262,151.071a25.187,25.187,0,0,0,7.182,3.48,6.664,6.664,0,0,1-3.279,2.122,36.3,36.3,0,0,1-7.747-3.275c2.423-.575,3.505-1.1,3.844-2.327" transform="translate(392.558 -21.28)" fill="#008df0"/>
      <path id="Trazado_14610" data-name="Trazado 14610" d="M789.017,168.106a7.1,7.1,0,0,1-1.861-2.62,8.787,8.787,0,0,1,2.853.068c.015.606.4,1.015,1.094,1.616a3.313,3.313,0,0,0-2.087.936" transform="translate(437.21 -21.556)" fill="#e52441"/>
      <path id="Trazado_14611" data-name="Trazado 14611" d="M700.175,144.053a.612.612,0,0,0,.123-.757,19.326,19.326,0,0,1,3.447.318,1.127,1.127,0,0,1-.126.934,10.641,10.641,0,0,0-3.444-.494" transform="translate(383.814 -21.13)" fill="#e52441"/>
      <path id="Trazado_14612" data-name="Trazado 14612" d="M857.047,135.657a3.853,3.853,0,0,1-1.485,3.119,18.779,18.779,0,0,0-3.655.752c.344-.742-.037-1.223-1.269-2.025a30.067,30.067,0,0,0,6.409-1.846" transform="translate(476.18 -20.983)" fill="#e52441"/>
      <path id="Trazado_14613" data-name="Trazado 14613" d="M823.365,184.83c-2.892-1.212-4.54-3.5-4.3-5.981a7.361,7.361,0,0,1,1.3-3.343,10.234,10.234,0,0,1-2.214-1.046c-3.744-2.4-4.165-6.551-.979-9.652,2.731-2.658,7.764-4.555,13.811-5.208.449-.05.857.129.934.4s-.213.522-.652.569c-5.6.6-10.237,2.34-12.724,4.761-2.81,2.735-2.474,6.371.78,8.46a8.424,8.424,0,0,0,1.7.813,21.329,21.329,0,0,1,1.67-1.86,10.4,10.4,0,0,1,4.906-2.988,9.2,9.2,0,0,1,4.361.021,3.681,3.681,0,0,1,2.266,1.406c.518.856.212,1.9-.838,2.853a11.111,11.111,0,0,1-6.766,2.281,17.686,17.686,0,0,1-4.79-.39,6.665,6.665,0,0,0-1.152,2.986c-.2,2.1,1.209,4.113,3.6,5.115.368.154.46.459.207.683a1.031,1.031,0,0,1-.665.212,1.214,1.214,0,0,1-.457-.086m4.853-14.175a8.988,8.988,0,0,0-4.149,2.593,19.83,19.83,0,0,0-1.585,1.765,15.221,15.221,0,0,0,4,.321,9.162,9.162,0,0,0,5.56-1.848c.749-.685,1-1.422.667-1.972a2.335,2.335,0,0,0-1.4-.844,6.534,6.534,0,0,0-3.094-.015" transform="translate(454.325 -21.444)" fill="#e52441"/>
      <path id="Trazado_14614" data-name="Trazado 14614" d="M856.062,238.35q.354,0,.715-.025c.444-.031.76-.275.71-.543s-.453-.466-.894-.432c-3.221.224-6-1.587-6.583-3.419-.549-1.727.257-3.692,2.392-5.844.839-.845,1.816-1.669,2.76-2.466a37.23,37.23,0,0,0,3.239-2.954c1.54-1.654,3.134-4.145,1.99-6.617-1.37-2.959-6.707-4.922-11.659-4.292-.436.056-.715.316-.623.582s.518.432.955.379c4.077-.522,8.644,1.159,9.772,3.6.994,2.148-.452,4.376-1.84,5.869a36.775,36.775,0,0,1-3.144,2.863c-.964.813-1.959,1.653-2.832,2.532-2.348,2.366-3.221,4.564-2.6,6.537.676,2.131,3.843,4.233,7.637,4.233" transform="translate(474.617 -22.447)" fill="#09989a"/>
      <path id="Trazado_14615" data-name="Trazado 14615" d="M734.628,206.54a1.7,1.7,0,0,1,1.018-1.592,32.746,32.746,0,0,0,4.766.462,1.242,1.242,0,0,0-.29.928,29.752,29.752,0,0,0-5.494.2" transform="translate(404.964 -22.318)" fill="#fff"/>
      <path id="Trazado_14616" data-name="Trazado 14616" d="M720.432,223.4a1.53,1.53,0,0,0-.447.769,12.548,12.548,0,0,0-2.313-.81.783.783,0,0,1,.3-.767,15.378,15.378,0,0,1,2.463.808" transform="translate(394.547 -22.658)" fill="#fff"/>
      <path id="Trazado_14617" data-name="Trazado 14617" d="M784.09,221.975a9.977,9.977,0,0,1-2.3.674,1.124,1.124,0,0,1,0-.945,3.321,3.321,0,0,0,1.423-.4,1.3,1.3,0,0,0,.884.67" transform="translate(433.849 -22.634)" fill="#fff"/>
      <path id="Trazado_14618" data-name="Trazado 14618" d="M653.207,199.2a14.165,14.165,0,0,1,4.772-.725,1.927,1.927,0,0,1,.668,1.765,12.832,12.832,0,0,0-4.688.738,1.449,1.449,0,0,0-.752-1.778" transform="translate(354.982 -22.193)" fill="#fff"/>
      <path id="Trazado_14619" data-name="Trazado 14619" d="M678.015,214.027a2.836,2.836,0,0,1,.96,2.419,8.258,8.258,0,0,0-1.966,1.346c-.236-.575-.789-.807-2.113-1.057a12.168,12.168,0,0,0,3.118-2.708" transform="translate(368.296 -22.493)" fill="#fff"/>
      <path id="Trazado_14620" data-name="Trazado 14620" d="M751.169,191.521a3.422,3.422,0,0,0-1.979-.627,13.785,13.785,0,0,1,3.152-3.252,6.686,6.686,0,0,1,2.456.745,8.878,8.878,0,0,0-3.63,3.133" transform="translate(413.903 -21.985)" fill="#fff"/>
      <path id="Trazado_14621" data-name="Trazado 14621" d="M661.47,199.1a4.051,4.051,0,0,0,2.429-2.285,4.827,4.827,0,0,1,2.322,1.469,7.281,7.281,0,0,1-2.915,2.312,3.616,3.616,0,0,0-1.837-1.5" transform="translate(360.054 -22.162)" fill="#e52441"/>
      <path id="Trazado_14622" data-name="Trazado 14622" d="M651.62,194.254a2.157,2.157,0,0,0-.926,2.383,59.064,59.064,0,0,1-10.771-1.911,3.976,3.976,0,0,1,1.059-2.943,31.861,31.861,0,0,0,10.639,2.471" transform="translate(346.826 -22.065)" fill="#e52441"/>
      <path id="Trazado_14623" data-name="Trazado 14623" d="M676.471,212.239a5.308,5.308,0,0,0-3.633-.8,9.113,9.113,0,0,1,3.318-2.756,4.632,4.632,0,0,1,3.131.866c-1.469.912-2.414,1.629-2.816,2.693" transform="translate(367.033 -22.39)" fill="#e52441"/>
      <path id="Trazado_14624" data-name="Trazado 14624" d="M797.792,206.18c-1.454.783-3.113.9-5.768.691a9.486,9.486,0,0,0-1.9-6.354,12.929,12.929,0,0,0,5.781-1.166,11.2,11.2,0,0,1,1.883,6.829" transform="translate(439.034 -22.21)" fill="#e52441"/>
      <path id="Trazado_14625" data-name="Trazado 14625" d="M779.414,189.136a7.133,7.133,0,0,0-1.951-.418,9.518,9.518,0,0,0,2.056-2.166,4.177,4.177,0,0,1,1.945.278,10.789,10.789,0,0,1-2.05,2.307" transform="translate(431.26 -21.963)" fill="#e52441"/>
      <path id="Trazado_14626" data-name="Trazado 14626" d="M704.464,216.763A4.443,4.443,0,0,0,702.453,218a1.826,1.826,0,0,0-.975-.264,4.7,4.7,0,0,1,2.032-1.495,2.421,2.421,0,0,1,.954.521" transform="translate(384.614 -22.536)" fill="#e52441"/>
      <path id="Trazado_14627" data-name="Trazado 14627" d="M708.87,194.456c-.323.746-1.1,1.131-2.4,1.735-2.057-1.774-5.114-3.283-8.922-4.831a3.565,3.565,0,0,0,1.841-1.83,30.291,30.291,0,0,1,9.475,4.926" transform="translate(382.205 -22.021)" fill="#008df0"/>
      <path id="Trazado_14628" data-name="Trazado 14628" d="M729.994,197.5a7.237,7.237,0,0,0,3.225.166,8.094,8.094,0,0,1-1.912,2.95,9.78,9.78,0,0,1-2.8-.822,4.718,4.718,0,0,0,1.488-2.294" transform="translate(401.206 -22.175)" fill="#008df0"/>
      <path id="Trazado_14629" data-name="Trazado 14629" d="M833.887,175c1.277,1.61,2.029,2.981,1.838,4.469a10.71,10.71,0,0,1-4.477.627,5.7,5.7,0,0,0-1.871-4.391,7.174,7.174,0,0,0,4.509-.705" transform="translate(463.129 -21.741)" fill="#e52441"/>
      <path id="Trazado_14630" data-name="Trazado 14630" d="M855.735,190.966a11.017,11.017,0,0,1,5.929-.647,22.56,22.56,0,0,0,3.938,5.816,9.327,9.327,0,0,0-3.116.714,28.075,28.075,0,0,0-6.751-5.882" transform="translate(479.309 -22.034)" fill="#008df0"/>
      <path id="Trazado_14631" data-name="Trazado 14631" d="M877.532,202.921c-.332,1.372.145,2.2,1.159,3.355a44.624,44.624,0,0,1-9.065-.462,5.034,5.034,0,0,1,.855-3.252c1.8.463,3.759.451,7.051.359" transform="translate(487.816 -22.272)" fill="#e52441"/>
      <path id="Trazado_14632" data-name="Trazado 14632" d="M694.384,217.942a9.972,9.972,0,0,1,4.7,1.352,27.091,27.091,0,0,0-7.579,9.027,11.255,11.255,0,0,0-4.716-.864c1.83-3.963,3.428-6.082,7.6-9.515" transform="translate(375.596 -22.569)" fill="#008df0"/>
      <path id="Trazado_14633" data-name="Trazado 14633" d="M623.292,208.368a2.046,2.046,0,0,1,1.315-.137c.223.3.315.54.224.79a3.325,3.325,0,0,0-1.328.626,2.033,2.033,0,0,0-.211-1.279" transform="translate(336.617 -22.381)" fill="#fff"/>
      <path id="Trazado_14634" data-name="Trazado 14634" d="M574.212,204.905c.136-.992.722-1.576,2.224-2.175a7.682,7.682,0,0,1,3.541,1.336,3.694,3.694,0,0,0-.358,3.218,18.862,18.862,0,0,0-5.407-2.378" transform="translate(306.488 -22.276)" fill="#e52441"/>
      <path id="Trazado_14635" data-name="Trazado 14635" d="M596.7,201.4c.92,1.371.791,2.387-.539,3.8a15.179,15.179,0,0,1-6.179-.324c-.254-1.66-1.2-2.714-3.092-4.415a39.5,39.5,0,0,0,9.811.943" transform="translate(314.27 -22.232)" fill="#09989a"/>
      <path id="Trazado_14636" data-name="Trazado 14636" d="M597.64,223.1a10.447,10.447,0,0,0,3.237,1.565,30.846,30.846,0,0,0-6.213,3.275,6.525,6.525,0,0,1-3.376-1.3,35.257,35.257,0,0,1,6.352-3.544" transform="translate(316.971 -22.668)" fill="#008df0"/>
      <path id="Trazado_14637" data-name="Trazado 14637" d="M751.771,220.819a4.685,4.685,0,0,0,2.989-1.861,36.3,36.3,0,0,1,8.084,5.32,8.946,8.946,0,0,1-3.615,2.326c-1.866-2.629-3.957-3.961-7.458-5.785" transform="translate(415.488 -22.588)" fill="#008df0"/>
      <path id="Trazado_14638" data-name="Trazado 14638" d="M663.176,186.878c1.612.48,2.4.852,3.136,1.938a22.351,22.351,0,0,0-4.215,3.9,5.644,5.644,0,0,0-2.025-.862,14.4,14.4,0,0,0,3.105-4.978" transform="translate(359.195 -21.97)" fill="#09989a"/>
      <path id="Trazado_14639" data-name="Trazado 14639" d="M804.818,217.415a11.325,11.325,0,0,1,6.475-1.732,38.136,38.136,0,0,0,7.133,5.978A8.855,8.855,0,0,0,815.194,223a46.22,46.22,0,0,0-10.376-5.583" transform="translate(448.052 -22.525)" fill="#e52441"/>
      <path id="Trazado_14640" data-name="Trazado 14640" d="M825.46,194.956a15.357,15.357,0,0,1-6.138.9,14.952,14.952,0,0,0-3.41-1.84,3.076,3.076,0,0,0,2.681-1.978,29.818,29.818,0,0,0,6.867,2.92" transform="translate(454.863 -22.069)" fill="#008df0"/>
      <path id="Trazado_14641" data-name="Trazado 14641" d="M782.839,218.518a22.862,22.862,0,0,1,6.318-5.211c1.887,1.343,2.674,2.387,3.042,3.474a7.849,7.849,0,0,0-3.959,3.153,9.386,9.386,0,0,0-5.4-1.416" transform="translate(434.56 -22.479)" fill="#09989a"/>
      <path id="Trazado_14642" data-name="Trazado 14642" d="M665.579,186.237a38.52,38.52,0,0,1,8.26.607,6.544,6.544,0,0,1-2.718,2.593,12.613,12.613,0,0,0-5.048-.424,2.2,2.2,0,0,0-.494-2.776" transform="translate(362.576 -21.957)" fill="#e52441"/>
    </g>
  </g>
</svg>
