<svg xmlns="http://www.w3.org/2000/svg" width="148.141" height="39.725" viewBox="0 0 148.141 39.725">
  <path id="Trazado_16236" data-name="Trazado 16236" d="M461.246,500.518c.605-.1,1.215-.265,1.821-.315l1.7-.143c3.1-.259,6.2-.592,9.3-.693,3.243-.107,6.487-.286,9.731-.3,3.31-.018,6.619-.049,9.929-.013q9.677.11,19.352.171c6.407.036,12.814.043,19.221-.027,3.18-.037,6.361-.21,9.54-.347,3.122-.135,6.24-.363,9.361-.628.686-.059,1.37-.174,2.056-.262s1.355-.16,2.031-.276c1.735-.3,3.469-.616,5.2-.97,3.018-.62,6.027-1.444,9.049-1.959,3.166-.54,6.339-.847,9.509-1.286a27.141,27.141,0,0,0,4.289-.881,37,37,0,0,0,4.839-1.842c1.552-.722,3.1-1.465,4.656-2.175a20.64,20.64,0,0,1,2.247-.9,19.27,19.27,0,0,0,2.537-.968c.4-.2.484-1.409.484-2.189a8.378,8.378,0,0,0-.093-1.291c-.06-.351-.184-.911-.391-.894-1.517.113-3.034.23-4.55.389s-3.063.26-4.594.307a72.5,72.5,0,0,1-8.925-.417l1.519-.461c1.819-.555,3.633-1.251,5.461-1.626.973-.2,1.949-.366,2.919-.623a9.139,9.139,0,0,0,1.466-.5,13.132,13.132,0,0,0,1.551-.884q.247-.06.375-.552a6.847,6.847,0,0,0,.246-1.695c.52-.358.625-2.081.625-3.117a11.927,11.927,0,0,0-.135-1.868c-.09-.532-.263-1.285-.565-1.292-1.579-.041-3.155-.28-4.735-.324-.185,0-.371-.007-.556-.007a33.977,33.977,0,0,0-4.072.3q-4.535.548-9.067,1.3c-1.4.227-2.806.5-4.211.686-1.718.233-3.433.411-5.153.562-2.877.251-5.76.348-8.639.467-3.3.137-6.6.333-9.9.681-3.055.323-6.108.753-9.161,1.164s-6.131.816-9.2,1.232c-3.142.426-6.286.741-9.431,1.057-1.591.162-3.184.21-4.776.311-1.507.1-3.015.122-4.523.171-2.967.1-5.935.158-8.9.227-5.986.136-11.97.356-17.956.579q-4.932.186-9.864.4c-1.677.071-3.355.221-5.031.329-1.433.093-2.866.311-4.3.476-1.525.176-3.05.37-4.576.568-.907.118-1.814.24-2.722.358l-1.184.157c-.359.047-.719.107-1.077.169a4.031,4.031,0,0,0-.76.223,3.934,3.934,0,0,0-.827.592,3.153,3.153,0,0,0-.335,1.1,12.64,12.64,0,0,0,0,3.633l.147.665q.137.528.4.594a5.273,5.273,0,0,0,.94.517c.175-.043.309-.24.4-.591.035-.106.065-.221.092-.341.167-.011.336-.01.5-.01s.321,0,.483-.011q.544-.027,1.087-.058,1.4-.074,2.8-.148c1.012-.055,2.023-.1,3.034-.135l-.313.059c-2.389.419-4.776.84-7.162,1.32q-.58.146-.882,1.3a14.482,14.482,0,0,0-.542,3.3c-.419-.01-.839-.019-1.259-.026-.294-.006-.352,1.148-.352,1.591s.058,1.582.352,1.589c.4.008.8.024,1.206.036a25,25,0,0,0,.271,2.941q.162.73.323,1.46.3,1.155.882,1.3C456.726,501.3,458.986,500.909,461.246,500.518Z" transform="translate(-424.554 -492.646) rotate(3)" fill="#fff"/>
</svg>
