<svg xmlns="http://www.w3.org/2000/svg" width="111.094" height="34.426" viewBox="0 0 111.094 34.426">
  <path id="Trazado_16246" data-name="Trazado 16246" d="M458.775,497.277a13.235,13.235,0,0,1,1.363-.282l1.27-.128c2.319-.232,4.638-.53,6.958-.62,2.427-.1,4.854-.256,7.281-.272,2.477-.016,4.953-.044,7.43-.012q7.241.1,14.48.153c4.794.032,9.588.039,14.382-.024,2.379-.033,4.759-.188,7.138-.311,2.336-.121,4.669-.325,7-.562.513-.053,1.025-.155,1.538-.234s1.014-.143,1.52-.247c1.3-.268,2.6-.551,3.893-.868,2.258-.555,4.509-1.292,6.771-1.753,2.369-.483,4.743-.758,7.115-1.151a17.436,17.436,0,0,0,3.209-.789,25.066,25.066,0,0,0,3.621-1.648c1.161-.646,2.322-1.311,3.484-1.946a14.075,14.075,0,0,1,1.681-.8,13.059,13.059,0,0,0,1.9-.866c.3-.177.362-1.261.362-1.959a8.955,8.955,0,0,0-.07-1.155c-.045-.314-.138-.816-.292-.8-1.135.1-2.27.206-3.4.348s-2.292.233-3.438.275a45.441,45.441,0,0,1-6.678-.373l1.137-.412a40.8,40.8,0,0,1,4.086-1.455c.728-.179,1.458-.328,2.184-.558a6.1,6.1,0,0,0,1.1-.444,9.548,9.548,0,0,0,1.161-.791q.185-.053.28-.494a7.254,7.254,0,0,0,.184-1.517c.389-.32.468-1.862.468-2.79a12.732,12.732,0,0,0-.1-1.672c-.068-.476-.2-1.15-.423-1.157-1.182-.037-2.361-.25-3.543-.29-.138,0-.277-.007-.416-.007a21.339,21.339,0,0,0-3.047.267c-2.262.327-4.524.718-6.784,1.16-1.05.2-2.1.443-3.151.614-1.286.208-2.569.368-3.856.5-2.153.224-4.31.312-6.464.418-2.47.123-4.938.3-7.407.61-2.286.289-4.57.674-6.854,1.042s-4.588.73-6.882,1.1c-2.351.381-4.7.663-7.057.946-1.19.145-2.383.188-3.574.278-1.128.086-2.256.109-3.384.153-2.22.087-4.441.141-6.661.2-4.479.122-8.957.318-13.436.518q-3.691.167-7.381.356c-1.255.064-2.51.2-3.765.295-1.073.083-2.145.278-3.217.426-1.141.158-2.282.331-3.424.508-.678.106-1.358.215-2.037.32l-.886.14c-.269.042-.538.1-.806.151a2.653,2.653,0,0,0-.569.2,3.016,3.016,0,0,0-.619.53,3.236,3.236,0,0,0-.25.987,13.515,13.515,0,0,0,0,3.252l.11.6q.1.473.3.532a3.806,3.806,0,0,0,.7.463c.131-.039.231-.215.3-.529.026-.1.049-.2.069-.305.125-.01.251-.009.377-.009s.24,0,.361-.01q.407-.024.813-.052,1.048-.066,2.1-.133c.757-.05,1.513-.085,2.27-.121l-.234.053c-1.787.375-3.573.752-5.359,1.181q-.434.131-.66,1.165a15.3,15.3,0,0,0-.405,2.954c-.314-.009-.628-.017-.942-.024-.22-.005-.264,1.027-.264,1.424s.044,1.415.264,1.422c.3.008.6.022.9.032q.038,1.345.2,2.632.121.654.242,1.306.227,1.034.66,1.165C455.394,497.98,457.084,497.626,458.775,497.277Z" transform="translate(-424.731 -492.646) rotate(3)" fill="#fff"/>
</svg>
