<svg xmlns="http://www.w3.org/2000/svg" width="55.373" height="31.505" viewBox="0 0 55.373 31.505">
  <path id="Trazado_16248" data-name="Trazado 16248" d="M455.042,497.277a3.839,3.839,0,0,1,.67-.282l.624-.128a28.967,28.967,0,0,1,3.42-.62c1.193-.1,2.386-.256,3.579-.272,1.218-.016,2.435-.044,3.652-.012,2.373.066,4.745.123,7.118.153,2.357.032,4.713.039,7.07-.024,1.17-.033,2.34-.188,3.509-.311,1.148-.121,2.3-.325,3.443-.562.252-.053.5-.155.756-.234s.5-.143.747-.247c.638-.268,1.276-.551,1.914-.868,1.11-.555,2.217-1.292,3.328-1.753,1.165-.483,2.332-.758,3.5-1.151a5.408,5.408,0,0,0,1.578-.789,11.552,11.552,0,0,0,1.78-1.648c.571-.646,1.141-1.311,1.713-1.946a6.756,6.756,0,0,1,.826-.8,6.033,6.033,0,0,0,.933-.866,6.4,6.4,0,0,0,.178-1.959q0-.594-.034-1.155c-.022-.314-.068-.816-.144-.8-.558.1-1.116.206-1.674.348a9.768,9.768,0,0,1-1.69.275,11.187,11.187,0,0,1-3.283-.373l.559-.412a15.524,15.524,0,0,1,2.009-1.455,10.74,10.74,0,0,0,1.074-.558,2.553,2.553,0,0,0,.539-.444,6.49,6.49,0,0,0,.57-.791q.091-.053.138-.494a14.484,14.484,0,0,0,.091-1.517,10.631,10.631,0,0,0,.23-2.79q0-.859-.05-1.672c-.033-.476-.1-1.15-.208-1.157-.581-.037-1.161-.25-1.741-.29-.068,0-.136-.007-.2-.007a5.361,5.361,0,0,0-1.5.267c-1.112.327-2.224.718-3.335,1.16-.516.2-1.032.443-1.549.614a18.034,18.034,0,0,1-1.9.5,29.1,29.1,0,0,1-3.177.418,24.406,24.406,0,0,0-3.641.61c-1.124.289-2.246.674-3.369,1.042s-2.255.73-3.383,1.1c-1.156.381-2.312.663-3.469.946-.585.145-1.171.188-1.757.278-.554.086-1.109.109-1.664.153-1.091.087-2.183.141-3.274.2-2.2.122-4.4.318-6.6.518-1.209.111-2.419.233-3.628.356-.617.064-1.234.2-1.851.295a14.3,14.3,0,0,0-1.581.426c-.561.158-1.122.331-1.683.508-.333.106-.667.215-1,.32l-.435.14c-.132.042-.264.1-.4.151a1,1,0,0,0-.28.2,2.569,2.569,0,0,0-.3.53,6.1,6.1,0,0,0-.123.987q-.05.79-.048,1.625c0,.56.015,1.1.048,1.627l.054.6c.034.315.083.492.148.532a2.49,2.49,0,0,0,.346.463q.1-.058.147-.529c.013-.1.024-.2.034-.305a1.191,1.191,0,0,1,.185-.009,1.229,1.229,0,0,0,.178-.01q.2-.024.4-.052c.343-.044.687-.09,1.03-.133.372-.05.744-.085,1.116-.121l-.115.053c-.879.375-1.757.752-2.634,1.181q-.213.131-.324,1.165c-.11.824-.169,1.887-.2,2.954-.154-.009-.309-.017-.463-.024a7.878,7.878,0,0,0,0,2.846c.148.008.3.022.444.032q.019,1.345.1,2.632.06.654.119,1.306.112,1.034.324,1.165C453.38,497.98,454.211,497.626,455.042,497.277Z" transform="translate(-424.731 -492.646) rotate(3)" fill="#fff"/>
</svg>
