<svg xmlns="http://www.w3.org/2000/svg" width="36.424" height="26.672" viewBox="0 0 36.424 26.672">
  <g id="Grupo_77836" data-name="Grupo 77836" transform="translate(-38.391 -21.791)">
    <path id="Trazado_2297" data-name="Trazado 2297" d="M66.843,61.382l7.294.178L75.472,62l1.023,2.8,1.379,4.581s.045,9.162-.089,9.118-2.357,0-2.357,0l-.4,1.379-1.334,1.6s-1.379.623-1.512.623-1.779-.134-1.779-.134l-1.156-.756L68.4,80.152l-.534-1.423L53.278,78.55l-.311,1.735-1.779,1.423-2.224.134-1.423-.578-1.156-1.245-.222-1.379L42.47,78.55l.133-2.535h4.359l1.649-.85,2.621.182,2.491.89H66.666Z" transform="translate(-3.532 -34.284)" fill="#fff"/>
    <g id="Grupo_77834" data-name="Grupo 77834" transform="translate(38.391 21.791)">
      <g id="Grupo_77833" data-name="Grupo 77833" transform="translate(0 0)">
        <path id="Trazado_2298" data-name="Trazado 2298" d="M44.3,25.129l-.895.994.008,18.5h4.359l1.649-.85,2.038-.1L53.6,45.015l13.878-.171L67.57,30.3V26.322l-.6-.945-1.094-.149Z" transform="translate(-42.735 -24.681)" fill="#e52441"/>
        <g id="Grupo_77832" data-name="Grupo 77832">
          <path id="Trazado_2299" data-name="Trazado 2299" d="M74.808,34.343h0l-2.185-6.452A1.821,1.821,0,0,0,70.9,26.647H63.883V23.612a1.821,1.821,0,0,0-1.821-1.821H40.212a1.821,1.821,0,0,0-1.821,1.821v5.757h0V44.248a.607.607,0,0,0,.607.607h3.083a4.249,4.249,0,0,0,8.4,0V43.641a4.09,4.09,0,0,0-.37-1.214H64.3a4.1,4.1,0,0,0-.37,1.214H50.06v1.214H63.932a4.249,4.249,0,0,0,8.4,0H74.2a.607.607,0,0,0,.607-.607V34.537A.725.725,0,0,0,74.808,34.343Zm-32.727,9.3H39.6V42.427h2.847A4.087,4.087,0,0,0,42.081,43.641Zm6.294,2.7a2.962,2.962,0,1,1,.867-2.094A2.962,2.962,0,0,1,48.376,46.342Zm14.293-5.129H49.25a4.249,4.249,0,0,0-5.936,0H39.6V28.467h0V23.612A.607.607,0,0,1,40.212,23h21.85a.607.607,0,0,1,.607.607Zm7.62,5.192a3.051,3.051,0,1,1,.893-2.157A3.051,3.051,0,0,1,70.289,46.406Zm3.305-2.764H72.332a4.091,4.091,0,0,0-.371-1.214h1.633Zm0-2.428H71.1a4.249,4.249,0,0,0-5.936,0h-1.28V27.861H70.9a.607.607,0,0,1,.577.413l2.118,6.361Z" transform="translate(-38.391 -21.791)" fill="#333334"/>
          <path id="Trazado_2300" data-name="Trazado 2300" d="M239.436,130.458h-1.214a.607.607,0,1,0,0,1.214h1.214a.607.607,0,0,0,0-1.214Z" transform="translate(-210.909 -115.891)" fill="#333334"/>
          <path id="Trazado_2301" data-name="Trazado 2301" d="M242.513,76.119h-4.291a.607.607,0,0,0-.607.607v4.856a.607.607,0,0,0,.607.607h5.936a.612.612,0,0,0,.577-.8l-1.614-4.856A.607.607,0,0,0,242.513,76.119Zm-3.684,4.856V77.333h3.278l1.214,3.642Z" transform="translate(-210.909 -68.835)" fill="#333334"/>
        </g>
      </g>
      <path id="Trazado_2302" data-name="Trazado 2302" d="M94.809,42.476c.495-.039,3.037.078,4.332,1.613a3.753,3.753,0,0,1,.676,3.185,5.494,5.494,0,0,1-2.526,3.03,3.455,3.455,0,0,1,1.25,2.8,4.006,4.006,0,0,1-1.7,2.66,6,6,0,0,1-3.469,1.113,3.842,3.842,0,0,1-2.77-1.026,5.331,5.331,0,0,1-1.141-5.906A17.962,17.962,0,0,1,90.8,47.374a.68.68,0,0,1,.523-.27.626.626,0,0,1,.074,0l.062.007a.668.668,0,0,1,.518.334.639.639,0,0,1-.045.684,8.062,8.062,0,0,0-1.607,3.7,3.377,3.377,0,0,0,.818,2.643,3.282,3.282,0,0,0,2.5,1.092,4.828,4.828,0,0,0,2.148-.552A2.555,2.555,0,0,0,97.3,53.138a2.283,2.283,0,0,0-.548-1.762,1.535,1.535,0,0,0-.627-.41l-.039-.017-.041.024a6.567,6.567,0,0,1-2.11.705c-.065.006-.129.009-.191.009a1.384,1.384,0,0,1-1.22-.624,1.614,1.614,0,0,1,.022-1.667,1.5,1.5,0,0,1,1.292-.752h.051a4.439,4.439,0,0,1,2.261.8l.045.024.045-.011A3.3,3.3,0,0,0,98.468,47,2.985,2.985,0,0,0,95.158,43.8c-.133,0-.271,0-.412.014A4.743,4.743,0,0,0,90.02,48.2a5.615,5.615,0,0,0-.055.888.725.725,0,0,1-.661.771.592.592,0,0,1-.3-.062,1.323,1.323,0,0,1-.584-.938s-.529-5.845,6.387-6.387m.048,7.687a1.645,1.645,0,0,0-1.014-.376.4.4,0,0,0-.387.591.429.429,0,0,0,.389.161,1.6,1.6,0,0,0,1.012-.376" transform="translate(-81.707 -39.698)" fill="#fff"/>
    </g>
  </g>
</svg>
