<svg xmlns="http://www.w3.org/2000/svg" width="200.374" height="53.182" viewBox="0 0 200.374 53.182">
  <path id="Trazado_16242" data-name="Trazado 16242" d="M458.579,180.493c18.938.315,33.377.063,47.7-2.031a118.971,118.971,0,0,0,15.265-3.534,20.369,20.369,0,0,0,6.24-3.3c3.109-2.284,3.307-4.8.6-7.484a34.951,34.951,0,0,0-6.055-4.716c-5.639-3.534-11.833-5.917-18.074-8.136A257.732,257.732,0,0,0,456.806,139.8a303.378,303.378,0,0,0-55.276-3.449,310.815,310.815,0,0,0-40.72,3.741q-11.408,1.859-22.82,3.695c-.1.016-.194.04-.292.053-1.992.265-3.173-.254-3.377-1.486-.2-1.2.71-2.017,2.79-2.41,13.011-2.463,26.013-5.016,39.205-6.318a328.567,328.567,0,0,1,42.658-1.644A309.6,309.6,0,0,1,490.4,142.377a156.684,156.684,0,0,1,27.058,9.6,97.541,97.541,0,0,1,11.456,6.765,16.08,16.08,0,0,1,4.076,4.242c2.481,3.563,2.226,7.495-.878,10.52a25.5,25.5,0,0,1-6.266,4.368c-5.35,2.7-11.2,3.844-17.075,4.685-18.868,2.7-37.83,2.913-56.825,1.95-7.7-.391-15.408-.729-23.095-1.314-9.952-.758-19.908-1.555-29.824-2.677-9.322-1.055-18.631-2.339-27.872-3.942a115.816,115.816,0,0,1-15.432-4.1,22.872,22.872,0,0,1-6.736-3.627c-4.485-3.426-4.719-8.156-.887-12.318a22.64,22.64,0,0,1,8.159-5.27,99.533,99.533,0,0,1,21.089-5.865,129.843,129.843,0,0,1,30.128-1.891c2.521.134,3.654.827,3.534,2.185-.108,1.238-1.167,1.8-3.538,1.883-6.026.206-12.069.194-18.075.662a107.159,107.159,0,0,0-30.022,6.5,29.291,29.291,0,0,0-6.29,3.257c-4.45,3.106-4.288,6.164.448,8.714a40.517,40.517,0,0,0,7.11,2.913,125.477,125.477,0,0,0,23.512,4.7c15.126,1.7,30.266,3.321,45.433,4.587C440.719,179.833,451.9,180.141,458.579,180.493Z" transform="translate(-334.295 -131.846)" fill="#ffd64f"/>
</svg>
