<svg xmlns="http://www.w3.org/2000/svg" width="29.523" height="24.444" viewBox="0 0 29.523 24.444">
  <path id="Trazado_16239" data-name="Trazado 16239" d="M62.119,452.839c-2.224-.793-2.224-.793-4.581-5.926-.281,2.19-.51,3.743-.673,5.3-.175,1.672-.333,3.347-.416,5.025-.113,2.273-.115,4.551-.233,6.823-.047.9.345,2.281-1.163,2.254-1.335-.023-1.332-1.355-1.317-2.279.057-3.357.181-6.716.4-10.068.121-1.863.476-3.711.769-5.894-2.357,1.9-2.87,5.023-5.757,6.594a8.263,8.263,0,0,1,.152-2.231,40.726,40.726,0,0,1,6.61-11.194,4.638,4.638,0,0,1,.848-.825c1.191-.827,2.458-.552,2.855.818,1.044,3.6,1.936,7.243,2.866,10.876C62.513,452.252,62.318,452.451,62.119,452.839Z" transform="translate(-408.619 -158.647) rotate(-61)" fill="#e52441"/>
</svg>
