<svg xmlns="http://www.w3.org/2000/svg" width="71.265" height="74.281" viewBox="0 0 71.265 74.281">
  <path id="Trazado_16240" data-name="Trazado 16240" d="M40.2,89.078c-2.849.575-4.3,3.956-7.864,2.872a9.506,9.506,0,0,1,1.086-1.4c4.018-3.345,8.032-6.7,12.113-9.963a3.39,3.39,0,0,1,2.464-.9c1.24.385,1.012,1.64.755,2.739-.8,3.414-1.554,6.839-2.331,10.283-1.911-.9-1.911-.9-1.45-6.815-7.542,7.867-6.338,19.767,2.7,25.41.511-.928.99-1.866,1.531-2.766A11.821,11.821,0,0,1,55.975,103c2.223-.684,4.279-.452,5.909,1.264,1.679,1.767,1.516,3.873.695,5.994a9.1,9.1,0,0,1-10.729,5.913c-.6-.112-1.224-.13-2.051-.213-.476,6.22.733,11.879,4.458,16.725,5.744,7.47,13.7,5.7,18.985,1.744.654-.49,1.216-1.1,2.194-2a6.074,6.074,0,0,1-2.312,4.1,14.492,14.492,0,0,1-16.092,2.208,16.365,16.365,0,0,1-7.223-7.467,27.429,27.429,0,0,1-2.879-15.2c.057-.527.079-1.057.129-1.758-3.989-2.879-7.509-6.185-8.89-11.222C36.82,98.171,38.739,93.718,40.2,89.078Zm10.158,23.76c4.618,2.113,8.756.626,10.042-3.541a4.458,4.458,0,0,0-.331-3.258c-.74-1.218-2.168-1.045-3.45-.544C53.3,106.791,51.457,109.328,50.362,112.838Z" transform="matrix(-0.788, -0.616, 0.616, -0.788, 10.413, 156.948)" fill="#e52441"/>
</svg>
