<svg xmlns="http://www.w3.org/2000/svg" width="110.14" height="45.145" viewBox="0 0 110.14 45.145">
  <path id="Trazado_14643" data-name="Trazado 14643" d="M447.62,427.684a13.127,13.127,0,0,1,4.324-1.493c.818-.161,1.634-.271,2.453-.363,1.174-.132,2.344-.231,3.519-.294,2.237-.119,4.475-.164,6.713-.182a131.557,131.557,0,0,0,13.445-.595c4.646-.514,9.293-.99,13.939-1.516,4.405-.5,8.81-1,13.217-1.382s8.823-.724,13.232-1.354c4.511-.643,9.027-.989,13.545-1.27a36.455,36.455,0,0,0,6.426-.82c1.114-.272,2.224-.577,3.335-.9,1.088-.314,2.181-.522,3.274-.755a8.128,8.128,0,0,1,3.009.023q1.08-.272,1.641-2.427.3-1.362.6-2.723a51.707,51.707,0,0,0,0-14.858q-.3-1.361-.6-2.723-.561-2.156-1.641-2.427c-.555.1-1.108.23-1.662.316a10.929,10.929,0,0,1-1.518.081c-1.081.018-2.161.1-3.241.205-2.245.212-4.485.547-6.731.7-4.35.294-8.7.324-13.048.9-2.33.307-4.656.665-6.986.965-2.117.274-4.235.454-6.354.632q-6.763.565-13.519,1.38c-4.448.531-8.9,1.024-13.345,1.561q-3.688.444-7.378.821c-2.2.224-4.413.254-6.618.307a123.59,123.59,0,0,0-13.539.786,26.03,26.03,0,0,0-3.325.646,15.193,15.193,0,0,0-2.68,1,13.243,13.243,0,0,0-2.007,1.344,4.881,4.881,0,0,0-1.1,1.246,13.078,13.078,0,0,0-1.382,4.566,49.926,49.926,0,0,0-.4,11.547,30.741,30.741,0,0,0,1.009,6.254q.386.906.773,1.809.889,1.3,1.778,0A5.341,5.341,0,0,1,447.62,427.684Z" transform="matrix(0.998, 0.07, -0.07, 0.998, -412.029, -421.578)" fill="#fff"/>
</svg>
