<svg xmlns="http://www.w3.org/2000/svg" width="367.056" height="67.918" viewBox="0 0 367.056 67.918">
  <path id="Trazado_2257" data-name="Trazado 2257" d="M475.924,528.828c1.51-.2,3.031-.508,4.546-.6,1.413-.09,2.826-.185,4.237-.275,7.736-.5,15.468-1.135,23.208-1.329,8.094-.206,16.19-.548,24.285-.582,8.262-.035,16.521-.095,24.781-.026q24.152.212,48.3.328c15.991.069,31.981.083,47.972-.051,7.937-.072,15.875-.4,23.809-.666,7.792-.259,15.575-.7,23.362-1.2,1.711-.113,3.42-.333,5.13-.5,1.689-.171,3.382-.307,5.069-.529,4.331-.573,8.657-1.181,12.984-1.861,7.532-1.188,15.041-2.769,22.583-3.756,7.9-1.036,15.821-1.625,23.731-2.466a85.942,85.942,0,0,0,10.706-1.69,110.889,110.889,0,0,0,12.078-3.532c3.873-1.385,7.744-2.809,11.621-4.17,1.859-.656,3.729-1.251,5.607-1.717a57.757,57.757,0,0,0,6.332-1.856c1.01-.379,1.208-2.7,1.208-4.2a12.435,12.435,0,0,0-.233-2.476c-.149-.673-.459-1.747-.975-1.715-3.787.217-7.572.442-11.356.747q-5.728.461-11.466.589c-7.423.173-14.86-.268-22.276-.8,1.264-.3,2.528-.587,3.792-.883,4.539-1.063,9.066-2.4,13.629-3.118,2.428-.384,4.864-.7,7.285-1.2a27.832,27.832,0,0,0,3.66-.952,36.381,36.381,0,0,0,3.87-1.694q.617-.114.935-1.059a10.336,10.336,0,0,0,.615-3.25c1.3-.687,1.56-3.99,1.56-5.978a17.669,17.669,0,0,0-.337-3.583c-.225-1.019-.655-2.464-1.409-2.478-3.941-.078-7.875-.536-11.816-.622-.462-.009-.926-.014-1.388-.014-3.391,0-6.775.257-10.162.571q-11.318,1.051-22.629,2.485c-3.5.435-7,.95-10.51,1.315-4.289.446-8.568.788-12.861,1.077-7.181.481-14.375.668-21.56.895-8.24.263-16.471.638-24.705,1.306-7.625.62-15.243,1.445-22.863,2.233q-11.475,1.179-22.953,2.362c-7.841.816-15.688,1.422-23.537,2.027-3.97.31-7.947.4-11.92.6-3.761.185-7.525.233-11.288.328-7.405.187-14.812.3-22.219.435-14.941.261-29.875.682-44.815,1.11q-12.311.357-24.618.763c-4.186.136-8.374.423-12.557.631-3.577.178-7.154.6-10.73.913-3.807.337-7.613.71-11.42,1.089-2.263.227-4.528.46-6.794.687-.983.1-1.969.2-2.954.3-.9.09-1.794.206-2.688.324a12.448,12.448,0,0,0-1.9.428,10.213,10.213,0,0,0-2.064,1.135,5.091,5.091,0,0,0-.835,2.115,18.683,18.683,0,0,0,0,6.967l.368,1.276c.228.675.563,1.054,1,1.14a14.752,14.752,0,0,0,2.345.992c.437-.083.771-.46,1-1.133a6,6,0,0,0,.23-.654c.418-.021.838-.018,1.257-.018.4,0,.8,0,1.205-.021q1.359-.052,2.713-.111,3.494-.142,6.988-.284c2.525-.106,5.048-.182,7.572-.259-.261.039-.522.076-.782.113-5.961.8-11.919,1.611-17.875,2.531q-1.446.281-2.2,2.5a21.976,21.976,0,0,0-1.352,6.329q-1.57-.028-3.142-.051c-.734-.012-.879,2.2-.879,3.051s.145,3.033.879,3.047c1,.016,2.007.046,3.01.069a37.142,37.142,0,0,0,.678,5.64q.4,1.4.806,2.8.757,2.216,2.2,2.5C464.644,530.336,470.283,529.577,475.924,528.828Z" transform="matrix(1, 0.017, -0.017, 1, -442.094, -477.47)" fill="#fff"/>
</svg>
