<svg xmlns="http://www.w3.org/2000/svg" width="86.066" height="53.764" viewBox="0 0 86.066 53.764">
  <path id="Trazado_2493" data-name="Trazado 2493" d="M290.634,311.133c-8.5-2.412-33.346,1.764-40.707,6.918.93.2,1.607.376,2.3.485,1.314.208,2.647.315,3.948.582,1.132.233,1.614.9,1.412,1.727-.241.981-1.014,1.076-1.821.982-3.41-.4-6.823-.782-10.222-1.256-1.6-.223-2.067-1.343-1.249-2.768.347-.605.825-1.134,1.2-1.726q3.475-5.512,6.929-11.037c.185-.3.3-.733.561-.865.513-.255,1.22-.6,1.643-.421a1.919,1.919,0,0,1,.856,1.455,3.512,3.512,0,0,1-.608,1.746c-.936,1.643-1.942,3.247-2.906,4.876-.264.446-.474.925-.792,1.554a4.277,4.277,0,0,0,.8-.111c12.127-4.922,24.813-6.133,37.743-5.608a21.221,21.221,0,0,1,5.577.946,18.994,18.994,0,0,0,6.789.82,28.586,28.586,0,0,1,13.121,2.352,19.215,19.215,0,0,1,6.342,4.412,13.843,13.843,0,0,1,3.065,15.174,23.17,23.17,0,0,1-8.514,10.715,37.312,37.312,0,0,1-24.345,7.042,12.423,12.423,0,0,1-1.864-.3,1.312,1.312,0,0,1-1.214-1.456c.061-.885.691-1.146,1.47-1.147.42,0,.84.043,1.26.066A36.5,36.5,0,0,0,311,341.708a24.962,24.962,0,0,0,8.522-7.362,14.61,14.61,0,0,0,2.889-6.685,10.993,10.993,0,0,0-4.073-10.283c-3.958-3.395-8.7-4.618-14.131-4.836.42.6.653.973.923,1.314.216.274.484.506.716.769a12.1,12.1,0,0,1,1.853,14.059,14.727,14.727,0,0,1-2.042,3.17c-6.83,7.7-15.429,10.41-25.409,8.428a10.732,10.732,0,0,1-8.872-8.276,11.25,11.25,0,0,1,1.521-8.67,20.882,20.882,0,0,1,5.706-6.106,39.462,39.462,0,0,1,10.194-5.361C289.357,311.664,289.908,311.425,290.634,311.133Zm-5.056,27.045a27.484,27.484,0,0,0,13.689-4.535,16.853,16.853,0,0,0,5.688-6.34c1.846-3.789,1.456-7.39-1.385-10.508a21.3,21.3,0,0,0-4.265-3.334,3.676,3.676,0,0,0-2.383-.428c-6.825,1.109-13.1,3.55-18.291,8.239a16.281,16.281,0,0,0-3.444,4.434c-2.356,4.5-.612,9.168,4.121,11A44.605,44.605,0,0,0,285.577,338.178Z" transform="translate(292.126 381.3) rotate(-174)" fill="#c0dd52"/>
</svg>
