<svg xmlns="http://www.w3.org/2000/svg" width="227.322" height="44.294" viewBox="0 0 227.322 44.294">
  <path id="Trazado_2257" data-name="Trazado 2257" d="M466.6,508.451c.935-.132,1.877-.333,2.815-.4.875-.059,1.75-.121,2.623-.18,4.79-.326,9.578-.744,14.371-.871,5.012-.135,10.025-.359,15.038-.382,5.116-.023,10.23-.062,15.344-.017q14.955.139,29.906.215c9.9.046,19.8.055,29.7-.033,4.914-.047,9.83-.264,14.742-.436,4.825-.17,9.644-.456,14.466-.789,1.06-.074,2.118-.218,3.177-.329s2.094-.2,3.139-.347c2.682-.376,5.361-.774,8.04-1.22,4.664-.779,9.313-1.815,13.984-2.463,4.893-.679,9.8-1.065,14.695-1.617a50.492,50.492,0,0,0,6.629-1.108,65.787,65.787,0,0,0,7.478-2.316c2.4-.908,4.795-1.841,7.2-2.734,1.151-.43,2.309-.82,3.472-1.126a34.269,34.269,0,0,0,3.921-1.217c.625-.249.748-1.772.748-2.752a8.617,8.617,0,0,0-.144-1.623c-.092-.441-.284-1.146-.6-1.124-2.345.142-4.688.289-7.031.489q-3.547.3-7.1.386a137.54,137.54,0,0,1-13.793-.524c.783-.194,1.565-.385,2.348-.579,2.811-.7,5.614-1.573,8.439-2.044,1.5-.252,3.012-.461,4.511-.783a16.469,16.469,0,0,0,2.266-.624,21.909,21.909,0,0,0,2.4-1.111q.382-.075.579-.694a7.127,7.127,0,0,0,.381-2.131c.8-.45.966-2.616.966-3.919a12.241,12.241,0,0,0-.209-2.349c-.139-.668-.406-1.615-.873-1.625-2.44-.051-4.876-.352-7.317-.408-.286-.006-.573-.009-.859-.009-2.1,0-4.2.168-6.293.374q-7.008.689-14.012,1.629c-2.169.285-4.336.623-6.508.862-2.656.293-5.305.517-7.963.706-4.447.315-8.9.438-13.35.586-5.1.173-10.2.418-15.3.856-4.721.406-9.439.947-14.157,1.464q-7.106.773-14.213,1.549c-4.855.535-9.714.932-14.574,1.329-2.458.2-4.921.264-7.381.391-2.329.121-4.66.153-6.989.215-4.585.123-9.172.2-13.758.285-9.251.171-18.5.447-27.75.727q-7.623.234-15.244.5c-2.592.089-5.185.277-7.775.414-2.215.117-4.43.391-6.644.6-2.357.221-4.714.465-7.071.714-1.4.148-2.8.3-4.207.45-.609.067-1.219.13-1.829.2-.555.059-1.111.135-1.664.212a7.346,7.346,0,0,0-1.174.28,6.227,6.227,0,0,0-1.278.744,3.451,3.451,0,0,0-.517,1.387,12.958,12.958,0,0,0,0,4.567l.228.836c.141.443.349.691.621.747a8.869,8.869,0,0,0,1.452.65c.271-.055.478-.3.619-.743a4.1,4.1,0,0,0,.143-.429c.259-.014.519-.012.779-.012s.5,0,.746-.014q.841-.034,1.68-.073,2.163-.093,4.327-.186c1.564-.07,3.126-.12,4.688-.17l-.484.074c-3.691.527-7.38,1.056-11.068,1.659q-.9.184-1.363,1.637a15.136,15.136,0,0,0-.837,4.149q-.972-.018-1.945-.033c-.454-.008-.544,1.443-.544,2s.09,1.988.544,2c.621.011,1.243.03,1.864.045a25.709,25.709,0,0,0,.42,3.7q.25.918.5,1.835.469,1.453,1.363,1.637C459.613,509.439,463.105,508.942,466.6,508.451Z" transform="matrix(1, 0.017, -0.017, 1, -442.463, -477.47)" fill="#fff"/>
</svg>
