<svg xmlns="http://www.w3.org/2000/svg" width="76.927" height="49.48" viewBox="0 0 76.927 49.48">
  <path id="Trazado_2529" data-name="Trazado 2529" d="M171.026,101.9l-7.392-1.656a3.25,3.25,0,0,0,2.281,2.916,96.331,96.331,0,0,0,10.229,2.921c1.985.418,3.026-.967,2.428-2.893-1-3.214-2.164-6.376-3.262-9.559-.064-.186-.116-.437-.256-.525-.449-.282-.938-.5-1.412-.746-.2.409-.611.845-.561,1.222.165,1.27.492,2.519.759,3.776a4.361,4.361,0,0,1,.028,2.29c-.759-.688-1.549-1.345-2.271-2.069a46.061,46.061,0,0,1-7.822-55.109c1.28-2.342,2.849-4.525,4.271-6.79.5-.789.949-1.6,1.422-2.408l-.44-.5c-.563.207-1.284.262-1.66.65a39.96,39.96,0,0,0-3.7,4.247c-11.131,15.356-11.564,36.682-.955,53.181a107.517,107.517,0,0,0,6.982,8.851c.484.6,1.057,1.135,1.589,1.7Z" transform="translate(165.385 -103.968) rotate(112)" fill="#09989a"/>
</svg>
