<svg id="Home_Final_Logo-01" data-name="Home Final Logo-01" xmlns="http://www.w3.org/2000/svg" width="130.9" height="37.577" viewBox="0 0 130.9 37.577">
  <path id="Trazado_2326" data-name="Trazado 2326" d="M8.6,39.071V14c0-2.187,1.067-3.2,2.987-3.2H12.6c2.08,0,3.147,1.067,3.147,3.2V23.5H29.19V14c0-2.187,1.013-3.2,2.934-3.2H33.19c2.027,0,3.094,1.067,3.094,3.2v25.07c0,2.134-1.067,3.2-3.094,3.2H32.124c-1.92,0-2.934-1.12-2.934-3.2v-9.6H15.748v9.6c0,2.134-1.067,3.2-3.147,3.2H11.587C9.667,42.325,8.6,41.2,8.6,39.071Z" transform="translate(-8.6 -8.114)" fill="#333334"/>
  <path id="Trazado_2327" data-name="Trazado 2327" d="M139.1,14.274a3.218,3.218,0,0,1,3.521-3.574h1.92c2.24,0,2.88.693,3.681,2.56l6.294,14.669,6.4-14.669c.8-1.974,1.6-2.56,3.627-2.56h1.867a3.272,3.272,0,0,1,3.627,3.574v24.75c0,2.134-.8,3.2-2.827,3.2h-1.067c-1.974,0-2.774-1.12-2.774-3.2V20.461L158.2,33.1c-.533,1.227-.8,2.24-3.627,2.24-2.774,0-2.987-1.013-3.574-2.24l-5.174-12.429V39.024c0,2.134-.747,3.2-2.774,3.2h-1.174c-1.92,0-2.72-1.12-2.72-3.2V14.274Z" transform="translate(-69.489 -8.068)" fill="#333334"/>
  <path id="Trazado_2328" data-name="Trazado 2328" d="M208.1,38.357V15.047c0-2.507,1.387-3.947,3.681-3.947h17.336c2.24,0,3.254.96,3.254,2.827v.267c0,1.92-1.067,2.827-3.254,2.827H215.141v6.614h10.188c2.294,0,3.254.853,3.254,2.667v.16c0,1.867-1.013,2.72-3.254,2.72H215.141v7.254h14.242c2.24,0,3.2.8,3.2,2.667v.213c0,1.974-1.013,2.934-3.2,2.934h-17.6C209.487,42.251,208.1,40.865,208.1,38.357Z" transform="translate(-101.684 -8.254)" fill="#333334"/>
  <path id="Trazado_2329" data-name="Trazado 2329" d="M101,17.572a22.217,22.217,0,0,0-.48-4.534A10.223,10.223,0,0,0,98.331,8.5a7.075,7.075,0,0,0-2.187-1.76,13.641,13.641,0,0,0-1.28-.587,10.562,10.562,0,0,0-1.387-.32,5.972,5.972,0,0,0-3.04.32,7.042,7.042,0,0,0-2.454,1.494,14.816,14.816,0,0,0-2.08,2.507,11.151,11.151,0,0,0-1.227-1.547A8.086,8.086,0,0,0,82.329,6.9a5.453,5.453,0,0,0-1.44-.427c-.213-.053-.427-.053-.64-.107l-.32-.053H79.5a6.869,6.869,0,0,0-2.987.747c-7.628,3.521-8.268,14.829.267,29.231A22.854,22.854,0,0,0,82.435,42.8a2.461,2.461,0,0,0,3.307-.213,2.166,2.166,0,0,0,.213-3.254h0a53.639,53.639,0,0,1-5.014-6.028A41.041,41.041,0,0,1,77.1,26.694c-.533-1.12-1.013-2.294-1.44-3.467a14.159,14.159,0,0,1-.747-3.627,13.1,13.1,0,0,1,.16-3.574A8.629,8.629,0,0,1,76.3,12.878a5.764,5.764,0,0,1,2.08-2.027,2.213,2.213,0,0,1,2.187,0,7.443,7.443,0,0,1,2.08,2.08l.267.373a.936.936,0,0,0,.213.267c.107.213.267.48.427.747a6.257,6.257,0,0,1,.267.587,6.449,6.449,0,0,0-.267.96c-.373,1.387-.693,2.827-.96,4.214-.107.693-.213,1.44-.32,2.187-.053.8-.107,1.44-.16,2.187a19.116,19.116,0,0,0,.32,4.534,6.334,6.334,0,0,0,1.12,2.614,3.824,3.824,0,0,0,1.707,1.227,3.254,3.254,0,0,0,2.134-.053,3.454,3.454,0,0,0,1.654-1.28,4.791,4.791,0,0,0,.64-1.44,10.986,10.986,0,0,0,.373-2.454,29.919,29.919,0,0,0-.267-4.427,67.169,67.169,0,0,0-1.707-7.895c.267-.587.533-1.174.8-1.707a8.617,8.617,0,0,1,1.974-2.614,2.5,2.5,0,0,1,2.027-.747c.16,0,.427.107.64.107a1.971,1.971,0,0,1,.587.267,3.319,3.319,0,0,1,1.013.747,6.511,6.511,0,0,1,1.44,2.774,15.647,15.647,0,0,1,.533,3.627A26.661,26.661,0,0,1,96.2,25.36c-.16.64-.32,1.227-.533,1.867a16.288,16.288,0,0,1-.693,1.707,13.145,13.145,0,0,1-2.027,3.04,15.188,15.188,0,0,1-2.72,2.507,15.452,15.452,0,0,1-1.547,1.013c-.267.16-.533.267-.8.427-.267.107-.587.267-.747.32s-.267.107-.427.16a1.934,1.934,0,0,0-.693,2.774,1.893,1.893,0,0,0,2.614,1.067l.107-.053A6.374,6.374,0,0,0,89.8,39.6l.96-.64c.64-.427,1.227-.853,1.814-1.334a30.229,30.229,0,0,0,3.254-3.147,18.075,18.075,0,0,0,2.454-3.841,17.784,17.784,0,0,0,.853-2.134c.267-.693.427-1.387.64-2.08A33.755,33.755,0,0,0,101,17.572ZM85.049,28.4c-.853-2.294,0-6.241,1.174-8.215.907,2.134,2.507,9.068,0,9.175C85.369,29.414,85.262,28.881,85.049,28.4Z" transform="translate(-37.522 -5.765)" fill="#e52441"/>
</svg>
