<svg xmlns="http://www.w3.org/2000/svg" width="175.604" height="38.491" viewBox="0 0 175.604 38.491">
  <path id="Trazado_2256" data-name="Trazado 2256" d="M450.436,419.739a38.543,38.543,0,0,1,6.993-1.164c1.322-.125,2.642-.211,3.968-.283,1.9-.1,3.792-.18,5.692-.229,3.618-.093,7.238-.128,10.858-.142,7.253-.028,14.5-.078,21.746-.464,7.515-.4,15.03-.772,22.544-1.182,7.125-.39,14.249-.78,21.376-1.077s14.271-.565,21.4-1.056c7.3-.5,14.6-.771,21.906-.99,3.466-.1,6.943-.236,10.393-.64,1.8-.212,3.6-.45,5.394-.7,1.76-.245,3.528-.407,5.295-.589a27.09,27.09,0,0,1,4.866.018,3.363,3.363,0,0,0,2.653-1.892l.973-2.123a19.767,19.767,0,0,0,0-11.584l-.973-2.123a3.363,3.363,0,0,0-2.653-1.892c-.9.077-1.792.179-2.689.246-.817.061-1.637.057-2.454.063-1.749.014-3.5.081-5.242.16-3.63.165-7.254.427-10.886.545-7.035.229-14.077.253-21.1.7-3.768.24-7.531.519-11.3.752-3.423.214-6.85.354-10.276.493q-10.938.441-21.865,1.076c-7.195.414-14.391.8-21.584,1.217q-5.965.346-11.933.64c-3.564.174-7.137.2-10.7.24-7.3.084-14.605.141-21.9.613-1.8.115-3.59.272-5.378.5a43.885,43.885,0,0,0-4.334.783,29.585,29.585,0,0,0-3.247,1.048,7.041,7.041,0,0,0-1.78.971,7.234,7.234,0,0,0-2.234,3.56,19.086,19.086,0,0,0-.646,9,13.144,13.144,0,0,0,1.631,4.876q.624.707,1.25,1.411a2.3,2.3,0,0,0,2.876,0A7.262,7.262,0,0,1,450.436,419.739Z" transform="translate(-420.415 -414.277) rotate(3)" fill="#b6d5d4"/>
</svg>
