<svg xmlns="http://www.w3.org/2000/svg" width="326.35" height="33.324" viewBox="0 0 326.35 33.324">
  <path id="Trazado_2522" data-name="Trazado 2522" d="M473.639,496.237c1.37-.09,2.749-.228,4.122-.271l3.841-.124c7.014-.223,14.025-.51,21.043-.6,7.339-.092,14.68-.246,22.02-.262,7.491-.016,14.98-.043,22.469-.011q21.9.095,43.793.147,21.748.047,43.5-.023c7.2-.032,14.394-.181,21.588-.3,7.065-.116,14.122-.313,21.183-.541,1.552-.051,3.1-.149,4.652-.225,1.531-.077,3.066-.138,4.6-.238q5.891-.386,11.773-.836c6.829-.534,13.638-1.244,20.477-1.687,7.165-.465,14.345-.73,21.518-1.108,3.238-.17,6.492-.383,9.707-.759,3.675-.427,7.317-.943,10.951-1.586,3.512-.622,7.021-1.261,10.537-1.873,1.686-.295,3.381-.562,5.084-.771,1.927-.238-1.916-.37-.013-.722.915-.17.874-.7.874-1.371,0-.381-.775-.808-.919-1.168-.135-.3-.4-1.081-.871-1.067-3.433.1-.195-.075-3.626.062-3.462.138-.413.026-3.879.066-6.73.078,5.779.1-.946-.143,1.146-.133-1.143.292,0,.159,4.116-.478-.293-.839,0-.159,2.2-.172-5.724-1.294-3.528-1.515,1.113-.111,2.379-1.075,3.479-1.264,1.182-.2,2.348-.482,3.509-.761a1.089,1.089,0,0,0,.848-.475,2.723,2.723,0,0,0,.558-1.46c1.177-.308,1.414-1.792,1.414-2.685a4.123,4.123,0,0,0-.306-1.609c-.2-.458-.594-1.107-1.278-1.113-3.573-.035-7.141-.241-10.714-.279q-.629-.006-1.258-.006c-3.074,0-6.143.115-9.214.256q-10.262.472-20.518,1.116c-3.176.2-6.35.427-9.529.591-3.889.2-7.769.354-11.661.484-6.511.216-13.034.3-19.549.4-7.472.118-14.935.286-22.4.587-6.914.278-13.821.649-20.73,1q-10.4.529-20.812,1.061c-7.109.366-14.225.638-21.341.911-3.6.139-7.206.181-10.808.268-3.41.083-6.823.1-10.235.147-6.714.084-13.43.136-20.146.2-13.547.117-27.089.306-40.635.5q-11.162.16-22.322.343c-3.8.061-7.592.19-11.386.283-3.244.08-6.486.268-9.729.41q-5.177.227-10.354.489-3.078.153-6.16.308l-2.679.135c-.813.04-1.627.092-2.437.145-.58.037-1.148.109-1.72.192a13.986,13.986,0,0,0-1.872.51,1.937,1.937,0,0,0-.757.95,4.268,4.268,0,0,0,0,3.129l.333.573a1.177,1.177,0,0,0,.909.512c.705.171,1.4.342,2.127.445a1.171,1.171,0,0,0,.906-.509,2.07,2.07,0,0,0,.209-.294c.379-.009.76-.008,1.14-.008.364,0,.932,1.956,1.3,1.947.821-.016,1.884,1.3,2.7,1.28,2.112-.043,4.068.837,6.18.8,2.29-.048,1.895-.937,4.183-.971h0c-5.405.361-9.127-2.58-14.527-2.167a2.6,2.6,0,0,0-2,1.121,5.987,5.987,0,0,0-1.226,2.843q-1.424-.012-2.849-.023c-.665-.005-.8.988-.8,1.37s.132,1.362.8,1.368c.909.007,1.82.021,2.729.031a8.847,8.847,0,0,0,.615,2.533q.366.629.731,1.257a2.6,2.6,0,0,0,2,1.121C463.411,496.914,468.525,496.573,473.639,496.237Z" transform="matrix(1, 0.017, -0.017, 1, -442.685, -477.47)" fill="#fff"/>
</svg>
