<svg xmlns="http://www.w3.org/2000/svg" width="257.986" height="39.905" viewBox="0 0 257.986 39.905">
  <path id="Trazado_2522" data-name="Trazado 2522" d="M468.971,503.715c1.082-.116,2.171-.293,3.255-.347l3.034-.158c5.54-.286,11.077-.653,16.62-.765,5.8-.118,11.594-.315,17.391-.335,5.916-.02,11.831-.055,17.746-.015q17.3.122,34.587.189,17.177.06,34.353-.029c5.684-.041,11.368-.232,17.05-.383,5.58-.149,11.154-.4,16.73-.693,1.226-.065,2.449-.192,3.674-.289,1.209-.1,2.422-.177,3.63-.3,3.1-.33,6.2-.68,9.3-1.071,5.394-.684,10.771-1.594,16.172-2.162,5.659-.6,11.33-.935,16.995-1.419a75.6,75.6,0,0,0,7.666-.972c2.9-.547,5.779-1.208,8.649-2.033,2.774-.8,5.545-1.616,8.322-2.4,1.332-.378,2.671-.72,4.016-.988,1.522-.3-1.513-.474-.01-.925.723-.218.69-.9.69-1.757,0-.488-.612-1.035-.726-1.5-.107-.387-.319-1.386-.688-1.367-2.712.125-.154-.1-2.864.08a25.067,25.067,0,0,1-3.064.085c-5.315.1,4.564.123-.747-.183.905-.17-.9.374,0,.2,3.251-.612-.232-1.075,0-.2,1.739-.221-4.521-1.658-2.787-1.942.879-.142,1.879-1.378,2.748-1.62.934-.261,1.854-.617,2.772-.975a.881.881,0,0,0,.67-.609,4.94,4.94,0,0,0,.441-1.871c.93-.4,1.117-2.3,1.117-3.44a8.244,8.244,0,0,0-.241-2.062c-.161-.587-.469-1.418-1.009-1.426-2.822-.045-5.64-.309-8.462-.358-.331-.005-.663-.008-.994-.008-2.428,0-4.852.148-7.277.329q-8.1.6-16.2,1.43c-2.508.25-5.015.547-7.526.757-3.071.257-6.136.454-9.21.62-5.143.277-10.294.384-15.44.515-5.9.152-11.8.367-17.692.752-5.46.357-10.916.831-16.373,1.285q-8.218.678-16.437,1.36c-5.615.47-11.235.818-16.855,1.167-2.843.178-5.691.232-8.536.343-2.693.106-5.389.134-8.083.189-5.3.108-10.607.174-15.911.25-10.7.15-21.394.393-32.093.639q-8.816.206-17.63.439c-3,.079-6,.243-8.992.363-2.562.1-5.123.343-7.684.526-2.726.194-5.452.408-8.178.627q-2.431.2-4.865.4l-2.116.173c-.642.052-1.285.118-1.925.186a10.8,10.8,0,0,0-1.358.246,8,8,0,0,0-1.478.653,2.637,2.637,0,0,0-.6,1.217,8.682,8.682,0,0,0,0,4.01l.263.734a.954.954,0,0,0,.718.656,12.1,12.1,0,0,0,1.68.571.947.947,0,0,0,.715-.652,3.033,3.033,0,0,0,.165-.376c.3-.012.6-.011.9-.011s.736,2.506,1.025,2.5c.649-.02,1.488,1.662,2.136,1.64,1.668-.055,3.213,1.073,4.881,1.019,1.808-.061,1.5-1.2,3.3-1.244-.187.023.186-.021,0,0-4.269.463-7.208-3.306-11.474-2.776a2.1,2.1,0,0,0-1.577,1.437,10.566,10.566,0,0,0-.968,3.643q-1.124-.016-2.25-.029c-.526-.007-.629,1.267-.629,1.756s.1,1.745.629,1.753c.718.009,1.437.027,2.156.04a17.4,17.4,0,0,0,.485,3.246q.289.806.577,1.611a2.1,2.1,0,0,0,1.577,1.437C460.894,504.582,464.932,504.146,468.971,503.715Z" transform="matrix(1, 0.017, -0.017, 1, -442.549, -477.47)" fill="#fff"/>
</svg>
