<svg xmlns="http://www.w3.org/2000/svg" width="89.258" height="34.102" viewBox="0 0 89.258 34.102">
  <path id="Trazado_2526" data-name="Trazado 2526" d="M3.687,24.027a12.19,12.19,0,0,1,3.495-1c.661-.107,1.321-.18,1.983-.242.949-.088,1.895-.154,2.845-.2,1.808-.079,3.617-.109,5.426-.121,3.625-.024,7.246-.066,10.867-.4,3.756-.342,7.511-.659,11.266-1.01,3.561-.333,7.121-.666,10.682-.921s7.132-.483,10.695-.9c3.646-.429,7.3-.659,10.948-.846a35.432,35.432,0,0,0,5.194-.547c.9-.181,1.8-.384,2.7-.6.879-.209,1.763-.348,2.646-.5a7.946,7.946,0,0,1,2.432.015q.873-.181,1.326-1.617l.486-1.815a26.338,26.338,0,0,0,.434-4.95,26.341,26.341,0,0,0-.434-4.951l-.486-1.815Q85.735.181,84.862,0c-.448.066-.9.153-1.344.21a10.73,10.73,0,0,1-1.227.054c-.874.012-1.747.069-2.619.137-1.814.141-3.625.365-5.44.466-3.516.2-7.035.216-10.547.6-1.883.2-3.764.443-5.647.643-1.711.183-3.423.3-5.135.421q-5.466.377-10.927.92c-3.6.354-7.192.682-10.787,1.04q-2.981.3-5.963.547c-1.781.149-3.567.169-5.35.2-3.649.072-7.3.121-10.943.524a25.059,25.059,0,0,0-2.688.43,14.031,14.031,0,0,0-2.166.669,11.109,11.109,0,0,0-1.623.9,3.562,3.562,0,0,0-.89.83A7.651,7.651,0,0,0,.451,11.635a27.5,27.5,0,0,0-.323,7.695A17.219,17.219,0,0,0,.943,23.5q.312.6.624,1.206A.813.813,0,0,0,3,24.7,3.83,3.83,0,0,1,3.687,24.027Z" transform="matrix(0.995, 0.105, -0.105, 0.995, 2.627, 0)" fill="#b6d5d4"/>
</svg>
