<svg xmlns="http://www.w3.org/2000/svg" width="289.311" height="42.339" viewBox="0 0 289.311 42.339">
  <path id="Trazado_2527" data-name="Trazado 2527" d="M19.293,31.049c1.19-.106,2.388-.267,3.581-.317l3.338-.144c6.094-.261,12.186-.6,18.283-.7,6.376-.108,12.755-.287,19.132-.306,6.508-.018,13.015-.05,19.522-.013q19.026.111,38.049.172,18.9.055,37.791-.027c6.252-.038,12.506-.211,18.756-.349,6.138-.136,12.27-.365,18.4-.632,1.348-.059,2.694-.175,4.042-.263,1.33-.09,2.664-.161,3.993-.278,3.412-.3,6.82-.62,10.229-.977,5.934-.624,11.849-1.453,17.791-1.971,6.225-.543,12.464-.853,18.7-1.294,2.813-.2,5.641-.448,8.434-.887,3.193-.5,6.357-1.1,9.515-1.854,3.051-.727,6.1-1.474,9.155-2.188,1.465-.344,2.938-.656,4.417-.9,1.675-.278,3.335-.563,4.988-.974.8-.2.952-1.418.952-2.2a4.432,4.432,0,0,0-.184-1.3c-.117-.353-.362-.917-.768-.9-2.983.114-5.965.232-8.946.392q-4.512.242-9.033.309c-5.847.091.493.4-5.349.122,1-.155-1,.052,0-.1,3.576-.558-1.773-.595,1.822-.972,1.913-.2,3.4-.957,5.3-1.216.967-.13,2.067-1.257,3.023-1.477,1.027-.238,2.04-.563,3.049-.889a.93.93,0,0,0,.737-.556,3.882,3.882,0,0,0,.485-1.706c1.023-.36,1.229-2.094,1.229-3.137a6.3,6.3,0,0,0-.265-1.88c-.177-.535-.516-1.293-1.11-1.3-3.1-.041-6.2-.281-9.309-.326-.364,0-.729-.007-1.093-.007-2.671,0-5.337.135-8.006.3q-8.916.551-17.827,1.3c-2.759.228-5.517.5-8.279.69-3.379.234-6.75.414-10.132.565-5.657.252-11.324.351-16.985.469-6.492.138-12.976.335-19.462.685-6.007.325-12.009.758-18.011,1.172q-9.04.619-18.082,1.24c-6.177.428-12.359.746-18.542,1.064-3.128.163-6.261.211-9.391.313-2.963.1-5.928.122-8.892.172-5.834.1-11.669.159-17.5.228-11.77.137-23.535.358-35.3.582q-9.7.187-19.394.4c-3.3.072-6.6.222-9.892.331-2.818.093-5.635.313-8.453.479q-4.5.266-9,.571-2.674.178-5.352.36l-2.327.158c-.706.047-1.413.108-2.117.17a14.129,14.129,0,0,0-1.494.224,9.812,9.812,0,0,0-1.626.6,2.276,2.276,0,0,0-.658,1.11,6.6,6.6,0,0,0,0,3.656l.29.67a1.006,1.006,0,0,0,.79.6,15.269,15.269,0,0,0,1.848.52,1,1,0,0,0,.787-.594,2.555,2.555,0,0,0,.182-.343c.329-.011.66-.01.99-.01s.81,2.285,1.128,2.275c.713-.018,1.637,1.516,2.349,1.5,1.835-.05,3.534.978,5.369.93,1.989-.056,1.646-1.095,3.635-1.135-.206.021.2-.019,0,0-4.7.422-7.93-3.014-12.622-2.532a2.216,2.216,0,0,0-1.734,1.31,8.378,8.378,0,0,0-1.065,3.321Q1.931,23.332.692,23.32C.114,23.314,0,24.475,0,24.921s.114,1.592.692,1.6c.79.008,1.581.024,2.371.036a13.359,13.359,0,0,0,.534,2.96q.318.735.635,1.469A2.216,2.216,0,0,0,5.967,32.3C10.407,31.84,14.85,31.442,19.293,31.049Z" transform="translate(288.184 42.339) rotate(-178)" fill="#fff"/>
</svg>
