<svg xmlns="http://www.w3.org/2000/svg" width="139.852" height="39.492" viewBox="0 0 139.852 39.492">
  <path id="Trazado_2527" data-name="Trazado 2527" d="M9.257,31.049c.571-.106,1.146-.267,1.718-.317l1.6-.144c2.924-.261,5.847-.6,8.772-.7,3.059-.108,6.119-.287,9.179-.306,3.123-.018,6.244-.05,9.366-.013q9.129.111,18.255.172c6.044.036,12.088.044,18.132-.027,3-.038,6-.211,9-.349,2.945-.136,5.887-.365,8.83-.632.647-.059,1.293-.175,1.939-.263s1.278-.161,1.916-.278c1.637-.3,3.272-.62,4.908-.977,2.847-.624,5.685-1.453,8.536-1.971,2.987-.543,5.98-.853,8.97-1.294a24.208,24.208,0,0,0,4.046-.887,33.56,33.56,0,0,0,4.565-1.854c1.464-.727,2.927-1.474,4.392-2.188a18.775,18.775,0,0,1,2.119-.9,17.493,17.493,0,0,0,2.393-.974c.382-.2.457-1.418.457-2.2a8.991,8.991,0,0,0-.088-1.3c-.056-.353-.174-.917-.368-.9-1.431.114-2.862.232-4.292.392s-2.889.262-4.334.309c-2.805.091.236.4-2.567.122.478-.155-.478.052,0-.1,1.716-.558-.851-.595.874-.972.918-.2,1.63-.957,2.545-1.216.464-.13.992-1.257,1.45-1.477a12.214,12.214,0,0,0,1.463-.889q.233-.06.353-.556a7.317,7.317,0,0,0,.233-1.706c.491-.36.589-2.094.589-3.137a12.777,12.777,0,0,0-.127-1.88c-.085-.535-.248-1.293-.533-1.3-1.49-.041-2.977-.281-4.466-.326-.175,0-.35-.007-.525-.007a30.1,30.1,0,0,0-3.841.3c-2.852.368-5.7.808-8.553,1.3-1.324.228-2.647.5-3.972.69-1.621.234-3.238.414-4.861.565-2.714.252-5.433.351-8.149.469-3.115.138-6.226.335-9.338.685-2.882.325-5.762.758-8.642,1.172s-5.784.821-8.676,1.24c-2.964.428-5.93.746-8.9,1.064-1.5.163-3,.211-4.505.313-1.422.1-2.844.122-4.266.172-2.8.1-5.6.159-8.4.228-5.647.137-11.292.358-16.939.582q-4.653.187-9.305.4c-1.582.072-3.165.222-4.746.331-1.352.093-2.7.313-4.055.479-1.439.177-2.877.372-4.316.571-.855.119-1.712.241-2.568.36l-1.117.158c-.339.047-.678.108-1.016.17a3.625,3.625,0,0,0-.717.224,3.726,3.726,0,0,0-.78.6,3.328,3.328,0,0,0-.316,1.11,12.4,12.4,0,0,0-.124,1.827,12.4,12.4,0,0,0,.124,1.829l.139.67q.129.531.379.6a4.893,4.893,0,0,0,.886.52q.248-.065.378-.594c.033-.107.061-.222.087-.343.158-.011.317-.01.475-.01s.389,2.285.541,2.275c.342-.018.785,1.516,1.127,1.5.88-.05,1.7.978,2.576.93.954-.056.79-1.095,1.744-1.135-.1.021.1-.019,0,0-2.253.422-3.8-3.014-6.056-2.532q-.547.147-.832,1.31a15.459,15.459,0,0,0-.511,3.321c-.4-.01-.792-.019-1.188-.027C.055,23.314,0,24.475,0,24.921s.055,1.592.332,1.6c.379.008.759.024,1.138.036a26.77,26.77,0,0,0,.256,2.96q.153.735.3,1.469.286,1.163.832,1.31C4.993,31.84,7.125,31.442,9.257,31.049Z" transform="translate(138.161 39.492) rotate(-177)" fill="#fff"/>
</svg>
