<svg xmlns="http://www.w3.org/2000/svg" width="154.563" height="35.285" viewBox="0 0 154.563 35.285">
  <path id="Trazado_2531" data-name="Trazado 2531" d="M10.278,28.787c.634-.1,1.272-.247,1.908-.294l1.778-.134c3.246-.242,6.492-.552,9.739-.647,3.4-.1,6.794-.267,10.192-.283,3.467-.017,6.933-.046,10.4-.012q10.135.1,20.269.16c6.71.034,13.421.04,20.132-.025,3.331-.035,6.662-.2,9.991-.324,3.27-.126,6.536-.339,9.8-.586.718-.055,1.435-.162,2.153-.244s1.419-.15,2.127-.258c1.818-.279,3.633-.575,5.449-.905,3.161-.578,6.312-1.347,9.477-1.828,3.316-.5,6.64-.791,9.959-1.2a31.509,31.509,0,0,0,4.493-.822,41.8,41.8,0,0,0,5.068-1.718c1.625-.674,3.25-1.367,4.877-2.029a23.24,23.24,0,0,1,2.353-.836,21.773,21.773,0,0,0,2.657-.9c.424-.185.507-1.315.507-2.042a6.992,6.992,0,0,0-.1-1.2c-.063-.327-.193-.85-.409-.835-1.589.106-3.178.215-4.765.363s-3.208.243-4.812.287a85.185,85.185,0,0,1-9.348-.389l1.591-.43c1.9-.517,3.8-1.167,5.72-1.517,1.019-.187,2.041-.342,3.057-.581a10.4,10.4,0,0,0,1.536-.463,14.283,14.283,0,0,0,1.624-.824q.259-.056.392-.515a5.745,5.745,0,0,0,.258-1.581c.545-.334.655-1.941.655-2.908a9.933,9.933,0,0,0-.141-1.743c-.095-.5-.275-1.2-.591-1.206-1.654-.038-3.305-.261-4.959-.3-.194,0-.388-.007-.582-.007a39.886,39.886,0,0,0-4.265.278q-4.75.511-9.5,1.209c-1.47.211-2.939.462-4.411.64-1.8.217-3.6.383-5.4.524-3.014.234-6.033.325-9.048.435-3.458.128-6.912.31-10.368.635-3.2.3-6.4.7-9.595,1.086s-6.422.761-9.633,1.149c-3.291.4-6.584.692-9.878.986-1.666.151-3.335.2-5,.29-1.578.09-3.158.114-4.737.16-3.108.091-6.216.147-9.324.211-6.27.127-12.538.332-18.807.54q-5.166.174-10.331.371c-1.757.066-3.514.206-5.27.307-1.5.087-3,.29-4.5.444-1.6.164-3.195.345-4.792.53-.95.11-1.9.224-2.851.334l-1.24.146c-.376.044-.753.1-1.128.158a4.618,4.618,0,0,0-.8.208A4.152,4.152,0,0,0,1,11.195a2.713,2.713,0,0,0-.35,1.029,9.635,9.635,0,0,0-.138,1.694,9.633,9.633,0,0,0,.138,1.7l.154.621q.143.493.421.554a5.761,5.761,0,0,0,.984.482c.183-.04.324-.224.419-.551a3.226,3.226,0,0,0,.1-.318c.176-.01.352-.009.528-.009s.336,0,.506-.01q.57-.025,1.139-.054,1.466-.069,2.933-.138c1.06-.052,2.118-.089,3.178-.126l-.328.055c-2.5.391-5,.784-7.5,1.232q-.607.137-.924,1.215a12.171,12.171,0,0,0-.567,3.079q-.659-.014-1.319-.025C.061,21.615,0,22.691,0,23.105s.061,1.476.369,1.482c.421.008.842.023,1.263.034a20.825,20.825,0,0,0,.285,2.744q.169.682.338,1.362.318,1.078.924,1.215C5.544,29.52,7.911,29.151,10.278,28.787Z" transform="matrix(0.999, 0.035, -0.035, 0.999, 1.045, 0)" fill="#ffd64f"/>
</svg>
