<svg xmlns="http://www.w3.org/2000/svg" width="190.627" height="24.63" viewBox="0 0 190.627 24.63">
  <path id="Trazado_2523" data-name="Trazado 2523" d="M250.089,222.321c-.684.086-1.371.154-2.053.267l-2.832.471a21.75,21.75,0,0,0-4.642,1.323,17.663,17.663,0,0,0-4.695,2.94c-.3.252-.589.527-.9.75l-.988.72a14.811,14.811,0,0,1-1.418.837,8.182,8.182,0,0,1-1.706.626,9.714,9.714,0,0,1-1.507.132,6.97,6.97,0,0,1-1.43-.156,11.17,11.17,0,0,1-1.919-.692,15,15,0,0,1-1.951-1.16,27.42,27.42,0,0,1-3.175-2.679c-.483-.471-.962-.953-1.434-1.452-.569-.606-1.13-1.213-1.719-1.768a9.171,9.171,0,0,0-1.395-1.143,5.349,5.349,0,0,0-.963-.471,3.7,3.7,0,0,0-1.006-.182,2.431,2.431,0,0,0-.6.095,4.3,4.3,0,0,0-.854.315,6.7,6.7,0,0,0-1.263.951c-.825.7-1.65,1.407-2.474,2.117-1.043.9-2.1,1.775-3.175,2.546a18.467,18.467,0,0,1-2.007,1.138,13.845,13.845,0,0,1-2.73.944,14.983,14.983,0,0,1-2.668.3,13.733,13.733,0,0,1-3.02-.365,27.044,27.044,0,0,1-3.764-1.2,18.17,18.17,0,0,1-3.373-1.736,35.112,35.112,0,0,1-3.2-2.568,22.683,22.683,0,0,0-3.673-2.777,8.018,8.018,0,0,0-1.552-.657,5.462,5.462,0,0,0-1.84-.265,5.6,5.6,0,0,0-1.844.456,7.173,7.173,0,0,0-1.772,1.135,28.754,28.754,0,0,0-3.8,4.17c-.734.892-1.447,1.835-2.166,2.756-.6.75-1.2,1.5-1.835,2.185a14.1,14.1,0,0,1-2.08,1.842,11.245,11.245,0,0,1-1.019.6,5.985,5.985,0,0,1-1.385.489,3.739,3.739,0,0,1-.555.051,2.3,2.3,0,0,1-.4-.024,5.494,5.494,0,0,1-1.1-.521,25,25,0,0,1-3.645-3.676c-.549-.709-1.08-1.445-1.594-2.222q-.539-.811-1.076-1.626a50.8,50.8,0,0,0-2.792-4.256,9.214,9.214,0,0,0-1.341-1.355,4.2,4.2,0,0,0-.836-.5l-.282-.095-.591-.13c-.1-.008-.191-.019-.286-.029q-.053,0-.107,0a1.968,1.968,0,0,0-.527.074,4.216,4.216,0,0,0-1,.361,13.226,13.226,0,0,0-1.894,1.19c-.507.359-1,.748-1.507,1.128-.353.269-.712.522-1.053.827l-1.613,1.438c-.27.241-.546.468-.808.734q-.728.749-1.458,1.495c-.366.375-.74.736-1.1,1.128l-2.707,2.946a40.282,40.282,0,0,1-6.075,5.721c-.477.314-.956.608-1.445.87a8.269,8.269,0,0,1-1.855.695c-.266.05-.53.087-.8.113a4.622,4.622,0,0,1-1.177-.073,6.407,6.407,0,0,1-1.641-.7,11.44,11.44,0,0,1-1.649-1.591,36.6,36.6,0,0,1-2.286-3.552c-.361-.618-.727-1.228-1.091-1.842-.437-.736-.911-1.411-1.39-2.073a7.485,7.485,0,0,0-1.274-1.384,6.158,6.158,0,0,0-.825-.544,2.448,2.448,0,0,0-.865-.22,3.25,3.25,0,0,0-.561.1,2.832,2.832,0,0,0-.773.441,3.153,3.153,0,0,0-.69.743c-.206.321-.4.652-.594.995-.367.65-.693,1.376-1.033,2.063-.269.542-.535,1.088-.8,1.634-.311.633-.638,1.249-.956,1.875a22,22,0,0,1-2.109,3.361,11.92,11.92,0,0,1-1.884,1.806,7.2,7.2,0,0,1-1.862.8,7.626,7.626,0,0,1-2.7-.042,13.966,13.966,0,0,1-4.137-1.967,31.881,31.881,0,0,1-3.525-2.99c-.589-.569-1.157-1.193-1.723-1.818s-1.14-1.257-1.7-1.9-1.132-1.31-1.723-1.908a17.171,17.171,0,0,0-1.874-1.65,6.169,6.169,0,0,0-3.8-1.443,3.892,3.892,0,0,0-.919.163,6.588,6.588,0,0,0-.946.336,5.193,5.193,0,0,0-.818.5c-.291.2-.579.412-.869.624A24.268,24.268,0,0,0,72,230.538a23.474,23.474,0,0,0-2.825,3.915c-.4.677-.768,1.37-1.115,2.113a5.344,5.344,0,0,0-.383,1.13l-.1.486c-.041.347-.082.692-.123,1.04a1.963,1.963,0,0,0,.2,1.253.611.611,0,0,0,.771.331c.19-.087.38-.176.57-.265a3.892,3.892,0,0,0,.77-.531,1.8,1.8,0,0,0,.284-1.758.924.924,0,0,0-.471-.58,23.7,23.7,0,0,1,2.295-3.545,21.787,21.787,0,0,1,4.3-4.031c.344-.233.69-.462,1.038-.681a3.621,3.621,0,0,1,2.55-.575,6.184,6.184,0,0,1,.8.276,7.228,7.228,0,0,1,1.138.647,17.169,17.169,0,0,1,2.084,1.893c.785.8,1.509,1.76,2.262,2.639s1.49,1.732,2.249,2.561,1.539,1.57,2.33,2.288a20.431,20.431,0,0,0,4.865,3.34,8.147,8.147,0,0,0,5.383.742,6.822,6.822,0,0,0,2.436-1.087,11.391,11.391,0,0,0,2.13-2,19.654,19.654,0,0,0,1.992-2.914c.324-.57.623-1.164.922-1.765.436-.87.862-1.75,1.286-2.635.525-1.1,1.033-2.221,1.637-3.211a1.532,1.532,0,0,1,.138-.124,1.555,1.555,0,0,1,.2-.095.6.6,0,0,1,.065,0,2.045,2.045,0,0,1,.352.163,6.1,6.1,0,0,1,.829.758,32.4,32.4,0,0,1,2.093,3.213c.848,1.436,1.688,2.874,2.623,4.168a14.017,14.017,0,0,0,1.284,1.5,8.838,8.838,0,0,0,1.664,1.32,5.363,5.363,0,0,0,1.644.646,5.766,5.766,0,0,0,1.989.135,8.666,8.666,0,0,0,1.651-.376,9.216,9.216,0,0,0,1.931-.9,21.34,21.34,0,0,0,3.419-2.553c1.611-1.438,3.127-3.126,4.649-4.792.727-.8,1.447-1.622,2.187-2.386l2.542-2.624c.1-.1.2-.183.305-.274q.435-.389.869-.779l1.324-1.189c.087-.079.181-.141.272-.21.31-.24.621-.476.931-.716.521-.4,1.041-.792,1.568-1.165a8.891,8.891,0,0,1,1.629-.836,1.836,1.836,0,0,1,.339-.014,2.576,2.576,0,0,1,.282.027,3.829,3.829,0,0,1,.681.306,8.957,8.957,0,0,1,1.1,1.1c1.064,1.447,2,3.132,3.017,4.67.636.964,1.271,1.908,1.947,2.8.611.806,1.249,1.555,1.9,2.266a25.007,25.007,0,0,0,2.172,2.026,4.675,4.675,0,0,0,2.167,1.113,3.84,3.84,0,0,0,1,.053,6.09,6.09,0,0,0,1.288-.294,7.811,7.811,0,0,0,2.085-1.077,14.8,14.8,0,0,0,2.192-1.862,35.853,35.853,0,0,0,2.767-3.35l1.594-2.07,1.265-1.571a17.175,17.175,0,0,1,2.9-2.913,6.089,6.089,0,0,1,1.57-.684,5.706,5.706,0,0,1,.782-.076,2.988,2.988,0,0,1,.692.076,8.811,8.811,0,0,1,2.4,1.088c.673.481,1.337,1,1.987,1.556.4.347.8.726,1.2,1.087s.8.672,1.2.992c.773.619,1.557,1.195,2.357,1.718A16.774,16.774,0,0,0,190.9,230.8a25.7,25.7,0,0,0,5.556,1.673,12.574,12.574,0,0,0,2.854.2,15.626,15.626,0,0,0,2.81-.452,14.3,14.3,0,0,0,4.864-2.227c1-.687,1.957-1.475,2.923-2.269,1.155-.948,2.294-1.97,3.469-2.853a4.477,4.477,0,0,1,.716-.315,1.767,1.767,0,0,1,.428,0,4.5,4.5,0,0,1,.993.449,28.076,28.076,0,0,1,2.976,3.024,32,32,0,0,0,3.152,3.034A23.03,23.03,0,0,0,225,233.371a9.7,9.7,0,0,0,4.027,1.2,8.2,8.2,0,0,0,3.591-.6,12.33,12.33,0,0,0,2.9-1.729c.4-.3.8-.6,1.195-.939q.38-.33.758-.662a12.854,12.854,0,0,1,1.175-.889,18.074,18.074,0,0,1,5.973-2.392c1.1-.228,2.213-.353,3.319-.522.959-.146,1.924-.219,2.884-.322a52.646,52.646,0,0,1,5.861-.4c.749,0,1.373-1.017,1.373-2.229s-.624-2.251-1.373-2.23c-1.484.041-2.966.226-4.445.4Q251.163,222.187,250.089,222.321Zm-36.13,2.254.115-.024h0Z" transform="translate(-67.428 -218.776)" fill="#e52441"/>
</svg>
