<svg xmlns="http://www.w3.org/2000/svg" width="222.884" height="35.829" viewBox="0 0 222.884 35.829">
  <path id="Trazado_2534" data-name="Trazado 2534" d="M452.47,422.171a57.059,57.059,0,0,1,8.921-1.265c1.687-.136,3.371-.229,5.062-.308,2.422-.112,4.837-.2,7.262-.249,4.616-.1,9.234-.139,13.851-.154,9.253-.03,18.5-.084,27.741-.5,9.587-.435,19.174-.838,28.759-1.285,9.089-.424,18.177-.847,27.269-1.171s18.2-.614,27.3-1.147c9.307-.545,18.625-.838,27.946-1.076,4.422-.112,8.858-.256,13.259-.695,2.3-.23,4.589-.489,6.881-.761,2.245-.266,4.5-.442,6.754-.639a40.549,40.549,0,0,1,6.207.02,4.323,4.323,0,0,0,3.385-2.056l1.241-2.307a18.446,18.446,0,0,0,0-12.586l-1.241-2.307a4.323,4.323,0,0,0-3.385-2.056c-1.144.084-2.286.195-3.43.267-1.042.066-2.088.062-3.131.068-2.232.015-4.46.088-6.687.174-4.631.18-9.254.464-13.887.592-8.975.249-17.957.275-26.922.763-4.807.26-9.608.564-14.414.817-4.367.232-8.738.384-13.109.536q-13.953.479-27.893,1.169c-9.178.45-18.359.867-27.535,1.323q-7.61.376-15.223.7c-4.547.189-9.105.215-13.656.26-9.315.092-18.632.154-27.935.666-2.291.125-4.579.3-6.861.547-1.852.2-3.705.489-5.529.851a42.609,42.609,0,0,0-4.142,1.138,9.561,9.561,0,0,0-2.271,1.055,7.819,7.819,0,0,0-2.851,3.868,17.807,17.807,0,0,0-.824,9.782,12.9,12.9,0,0,0,2.081,5.3q.8.768,1.594,1.533a3.335,3.335,0,0,0,3.669,0A9.774,9.774,0,0,1,452.47,422.171Z" transform="matrix(1, 0.017, -0.017, 1, -435.598, -399.299)" fill="#fff"/>
</svg>
