<svg xmlns="http://www.w3.org/2000/svg" width="235.575" height="48.393" viewBox="0 0 235.575 48.393" class="text">
    <g id="Grupo_77951" data-name="Grupo 77951" transform="translate(-432.527 -4307.33)">
        <path id="Trazado_2605" data-name="Trazado 2605" d="M452.976,430.094a50.977,50.977,0,0,1,9.4-1.593c1.778-.172,3.552-.289,5.334-.388,2.553-.141,5.1-.246,7.652-.313,4.864-.127,9.73-.175,14.6-.194,9.751-.038,19.491-.106,29.233-.635,10.1-.548,20.2-1.056,30.305-1.618,9.577-.534,19.154-1.067,28.735-1.474s19.184-.773,28.768-1.444c9.808-.686,19.626-1.055,29.448-1.355,4.66-.141,9.334-.322,13.971-.875,2.421-.29,4.835-.616,7.251-.959,2.365-.335,4.743-.557,7.117-.805a35.781,35.781,0,0,1,6.541.025,4.524,4.524,0,0,0,3.567-2.589l1.308-2.905a27.512,27.512,0,0,0,0-15.851l-1.308-2.905a4.524,4.524,0,0,0-3.567-2.589c-1.206.105-2.409.245-3.614.337-1.1.084-2.2.078-3.3.086-2.351.019-4.7.111-7.046.219-4.88.226-9.752.584-14.634.745-9.457.313-18.923.346-28.37.96-5.065.328-10.124.71-15.189,1.03-4.6.292-9.208.484-13.814.675q-14.7.6-29.392,1.473c-9.671.566-19.345,1.092-29.015,1.666q-8.019.474-16.041.876c-4.791.239-9.595.271-14.39.328-9.816.115-19.634.193-29.437.839-2.414.158-4.826.372-7.229.689a58.039,58.039,0,0,0-5.827,1.071,39.27,39.27,0,0,0-4.365,1.434,9.416,9.416,0,0,0-2.393,1.329,9.923,9.923,0,0,0-3,4.871,26.562,26.562,0,0,0-.869,12.319,18.2,18.2,0,0,0,2.193,6.672q.839.967,1.68,1.93a3.044,3.044,0,0,0,3.866,0A9.722,9.722,0,0,1,452.976,430.094Z" transform="matrix(0.999, 0.035, -0.035, 0.999, 4.811, 3900.48)" fill="#fff"/>
    </g>
</svg>