<svg width="544" height="107" viewBox="0 0 544 107" fill="none" xmlns="http://www.w3.org/2000/svg" class="bake-talent-contact__big-text-highlight">
    <path d="M35.7426 67.929C42.7723 66.6136 49.8884 65.8112 57.0346 65.5282C61.0567 65.2965 65.0701 65.1647 69.1 65.0611C74.8721 64.9152 80.6252 64.8299 86.4012 64.8121C97.397 64.779 108.395 64.8859 119.391 65.0358C141.427 65.3444 163.44 65.6006 185.471 65.0588C208.317 64.496 231.161 64.0051 254.003 63.4231C275.663 62.8661 297.32 62.31 318.984 61.971C340.68 61.6297 362.359 61.369 384.038 60.5762C406.222 59.763 428.42 59.5012 450.627 59.3596C461.161 59.2946 471.731 59.1592 482.226 58.3793C487.705 57.9723 493.171 57.4981 498.641 56.9959C503.996 56.5058 509.377 56.2131 514.749 55.8693C519.677 55.6211 524.616 55.7195 529.53 56.1636C531.129 56.1087 532.694 55.6879 534.105 54.9334C535.515 54.179 536.734 53.111 537.668 51.8116C538.682 50.1491 539.696 48.4871 540.708 46.8259C544.372 38.063 544.54 28.2292 541.175 19.3469C540.219 17.6521 539.263 15.9567 538.306 14.2606C537.417 12.9303 536.236 11.8214 534.851 11.0194C533.467 10.2175 531.917 9.7437 530.321 9.63459C527.594 9.77128 524.871 9.96708 522.143 10.0798C519.659 10.1826 517.169 10.1302 514.685 10.102C509.37 10.0446 504.062 10.1134 498.755 10.2103C487.72 10.4148 476.701 10.8477 465.664 10.9401C444.283 11.1198 422.891 10.8131 401.525 11.5152C390.069 11.8887 378.625 12.3573 367.169 12.7167C356.76 13.0469 346.345 13.2019 335.932 13.355C313.769 13.6758 291.614 14.1504 269.466 14.7788C247.594 15.3893 225.717 15.9287 203.847 16.5522C191.757 16.8948 179.665 17.1957 167.572 17.4549C156.738 17.6848 145.881 17.5573 135.043 17.4701C112.856 17.293 90.6672 17.0508 68.4951 17.7932C63.0345 17.9744 57.5842 18.2529 52.1378 18.7105C47.7193 19.0795 43.2967 19.6275 38.9383 20.3436C35.5679 20.8975 32.3115 21.8034 29.033 22.6609C27.1329 23.1687 25.3032 23.9104 23.5859 24.869C20.4409 26.8292 18.0105 29.7498 16.6544 33.1986C13.5744 39.7331 13.0454 47.6084 14.3283 54.5222C14.9695 58.7278 16.6007 62.7209 19.0876 66.1725C20.3353 67.3114 21.583 68.4482 22.8308 69.5831C24.139 70.3912 25.6409 70.8315 27.1784 70.8576C28.7158 70.8837 30.2319 70.4947 31.5668 69.7316C32.8991 69.001 34.2972 68.3975 35.7426 67.929Z" fill="white"/>
    <path d="M34.163 103.747C36.269 103.503 38.391 103.13 40.503 103.015C42.474 102.906 44.445 102.791 46.412 102.681C57.201 102.081 67.986 101.305 78.781 101.069C90.07 100.82 101.362 100.405 112.653 100.363C124.176 100.321 135.695 100.248 147.216 100.332C169.673 100.503 192.127 100.637 214.579 100.732C236.881 100.816 259.183 100.795 281.486 100.67C292.555 100.583 303.627 100.182 314.693 99.863C325.56 99.549 336.416 99.019 347.277 98.403C349.664 98.266 352.047 98.003 354.433 97.795C356.788 97.587 359.149 97.422 361.503 97.153C367.544 96.453 373.578 95.72 379.613 94.896C390.113 93.455 400.591 91.538 411.113 90.341C422.134 89.085 433.18 88.37 444.213 87.35C449.224 86.9423 454.209 86.2583 459.145 85.301C464.828 84.1569 470.45 82.7275 475.99 81.018C481.39 79.339 486.79 77.612 492.198 75.961C494.791 75.161 497.398 74.444 500.018 73.878C502.998 73.2775 505.945 72.5262 508.849 71.627C510.257 71.167 510.534 68.35 510.534 66.537C510.541 65.5279 510.432 64.5213 510.209 63.537C510.001 62.721 509.568 61.418 508.849 61.457C503.568 61.721 498.289 61.992 493.011 62.362C487.685 62.7347 482.354 62.973 477.019 63.077C466.667 63.287 456.294 62.752 445.95 62.107C447.713 61.748 449.476 61.395 451.239 61.036C457.57 59.747 463.884 58.126 470.248 57.254C473.634 56.789 477.032 56.402 480.409 55.805C482.131 55.5224 483.834 55.1367 485.509 54.65C487.344 54.0601 489.146 53.3741 490.909 52.595C491.222 52.5198 491.509 52.3604 491.738 52.1341C491.967 51.9078 492.13 51.6232 492.209 51.311C492.733 50.0608 493.024 48.7251 493.067 47.37C494.878 46.537 495.243 42.532 495.243 40.121C495.256 38.6593 495.099 37.2011 494.773 35.776C494.459 34.54 493.859 32.788 492.807 32.771C487.307 32.671 481.823 32.121 476.326 32.017C475.681 32.006 475.035 32 474.39 32C469.661 32 464.94 32.311 460.216 32.692C449.693 33.5413 439.172 34.5457 428.655 35.705C423.769 36.232 418.888 36.857 413.996 37.305C408.015 37.846 402.046 38.261 396.059 38.611C386.043 39.194 376.01 39.421 365.988 39.696C354.495 40.016 343.015 40.47 331.531 41.28C320.896 42.031 310.27 43.032 299.643 43.988C288.976 44.9413 278.305 45.8964 267.629 46.853C256.693 47.843 245.748 48.577 234.801 49.311C229.264 49.687 223.717 49.799 218.175 50.034C212.929 50.258 207.675 50.317 202.432 50.434C192.104 50.661 181.773 50.801 171.443 50.961C150.604 51.278 129.775 51.788 108.938 52.307C97.4914 52.5957 86.046 52.904 74.602 53.232C68.763 53.397 62.923 53.745 57.088 53.997C52.098 54.213 47.111 54.72 42.123 55.104C36.814 55.513 31.505 55.965 26.196 56.424C23.04 56.6987 19.8813 56.9764 16.72 57.257C15.349 57.38 13.974 57.498 12.6 57.621C11.35 57.73 10.1 57.87 8.85098 58.013C7.95845 58.1251 7.07471 58.2985 6.20599 58.532C5.20017 58.8871 4.23506 59.3484 3.327 59.908C2.73176 60.6531 2.33138 61.5346 2.16199 62.473C1.55262 65.2564 1.55262 68.1387 2.16199 70.922L2.67499 72.469C2.76152 72.8045 2.93742 73.1101 3.18396 73.3535C3.4305 73.5969 3.73844 73.7688 4.07498 73.851C5.13247 74.3354 6.22611 74.7366 7.34598 75.051C7.68096 74.9699 7.98756 74.7991 8.23294 74.5571C8.47832 74.3151 8.65325 74.0108 8.73898 73.677C8.86289 73.4198 8.97012 73.1549 9.06 72.884C9.643 72.859 10.228 72.861 10.814 72.861C11.373 72.861 11.932 72.861 12.495 72.836C13.7583 72.794 15.0197 72.749 16.279 72.701C19.5283 72.5864 22.7773 72.4714 26.026 72.356C29.548 72.227 33.066 72.135 36.586 72.042C36.222 72.09 35.858 72.134 35.496 72.179C27.181 73.154 18.872 74.133 10.565 75.248C9.22034 75.4753 8.19665 76.4843 7.49399 78.275C6.44032 80.7098 5.80281 83.3042 5.608 85.95C4.148 85.9274 2.68732 85.9067 1.22598 85.888C0.201983 85.874 0 88.556 0 89.588C0 90.62 0.199983 93.266 1.22598 93.283C2.62598 93.303 4.02599 93.339 5.42599 93.367C5.54084 95.6703 5.85736 97.959 6.37198 100.207C6.74731 101.34 7.122 102.472 7.496 103.602C8.2 105.393 9.22365 106.403 10.567 106.63C18.431 105.574 26.296 104.655 34.163 103.747Z" fill="white"/>
</svg>