<svg xmlns="http://www.w3.org/2000/svg" width="331.227" height="56.047" viewBox="0 0 331.227 56.047">
  <g id="Grupo_77999" data-name="Grupo 77999" transform="matrix(1, 0.017, -0.017, 1, -2013.452, -347.207)">
    <path id="Trazado_2206" data-name="Trazado 2206" d="M473.168,513.489c1.34-.149,2.69-.377,4.034-.447,1.254-.067,2.508-.137,3.76-.2,6.865-.368,13.728-.841,20.6-.985,7.183-.152,14.369-.406,21.553-.431,7.332-.026,14.662-.07,21.993-.019q21.434.157,42.864.243,21.287.077,42.574-.038c7.044-.053,14.089-.3,21.13-.493,6.915-.192,13.823-.515,20.734-.892,1.519-.084,3.035-.247,4.553-.371,1.5-.127,3-.228,4.5-.392,3.844-.425,7.683-.875,11.523-1.378,6.685-.88,13.349-2.051,20.043-2.782,7.013-.767,14.041-1.2,21.061-1.827a90.358,90.358,0,0,0,9.5-1.252c3.6-.7,7.162-1.555,10.719-2.616,3.437-1.026,6.872-2.08,10.313-3.089,1.65-.486,3.31-.926,4.976-1.272,1.886-.392,3.757-.794,5.619-1.375.9-.281,1.072-2,1.072-3.109a7.745,7.745,0,0,0-.207-1.834c-.132-.5-.408-1.294-.865-1.27-3.361.161-6.72.327-10.078.553q-5.083.342-10.176.437c-6.587.128-13.188-.2-19.769-.592,1.122-.219,2.243-.435,3.365-.654,4.028-.788,8.046-1.777,12.1-2.31,2.155-.284,4.317-.521,6.466-.885a28.755,28.755,0,0,0,3.248-.705,35.9,35.9,0,0,0,3.435-1.255,1.107,1.107,0,0,0,.83-.784,6.555,6.555,0,0,0,.546-2.407c1.153-.509,1.384-2.955,1.384-4.428a11,11,0,0,0-.3-2.654c-.2-.755-.581-1.825-1.251-1.836-3.5-.058-6.989-.4-10.487-.461-.41-.007-.822-.01-1.232-.01-3.009,0-6.013.19-9.019.423q-10.044.778-20.082,1.841c-3.109.322-6.215.7-9.327.974-3.806.331-7.6.584-11.414.8-6.373.356-12.757.495-19.134.663-7.313.2-14.618.473-21.925.967-6.767.459-13.528,1.07-20.291,1.654q-10.185.873-20.371,1.75c-6.959.6-13.923,1.053-20.889,1.5-3.524.229-7.053.3-10.579.442-3.338.137-6.678.173-10.018.243-6.572.139-13.145.224-19.719.322-13.26.194-26.514.505-39.773.822q-10.925.265-21.848.565c-3.715.1-7.432.313-11.144.467-3.175.132-6.349.442-9.522.676-3.378.25-6.756.526-10.135.806q-3.012.252-6.03.508c-.872.075-1.747.147-2.622.223-.8.067-1.592.152-2.385.24a12.941,12.941,0,0,0-1.683.317,9.727,9.727,0,0,0-1.832.841,3.447,3.447,0,0,0-.741,1.567,11.6,11.6,0,0,0,0,5.161l.326.945a1.2,1.2,0,0,0,.89.844,14.6,14.6,0,0,0,2.081.735,1.19,1.19,0,0,0,.887-.839,3.958,3.958,0,0,0,.2-.485c.371-.015.744-.014,1.116-.014.356,0,.712,0,1.07-.015q1.206-.039,2.408-.082,3.1-.105,6.2-.211c2.241-.079,4.48-.135,6.72-.192l-.694.084c-5.291.6-10.578,1.193-15.864,1.875a2.638,2.638,0,0,0-1.954,1.849,14.014,14.014,0,0,0-1.2,4.688q-1.394-.021-2.789-.038c-.651-.009-.78,1.63-.78,2.26s.129,2.246.78,2.257c.89.012,1.781.034,2.671.051a23.179,23.179,0,0,0,.6,4.178q.358,1.038.715,2.073a2.637,2.637,0,0,0,1.954,1.849C463.157,514.606,468.162,514.044,473.168,513.489Z" transform="translate(1568.567 -157.663)" fill="#b6d5d4"/>
    <path id="Trazado_2207" data-name="Trazado 2207" d="M21.735,43.826c1.34-.149,2.69-.377,4.034-.447,1.254-.067,2.508-.137,3.76-.2,6.865-.368,13.728-.841,20.6-.985,7.183-.152,14.369-.406,21.553-.432,7.332-.026,14.662-.07,21.993-.019q21.434.157,42.864.243,21.287.077,42.574-.038c7.044-.053,14.089-.3,21.13-.493,6.915-.192,13.823-.515,20.734-.892,1.519-.084,3.035-.247,4.553-.372,1.5-.127,3-.228,4.5-.392,3.844-.425,7.683-.875,11.523-1.378,6.684-.88,13.349-2.051,20.042-2.782,7.013-.767,14.041-1.2,21.061-1.827a90.36,90.36,0,0,0,9.5-1.252c3.6-.7,7.162-1.555,10.718-2.616,3.437-1.026,6.872-2.08,10.313-3.089,1.65-.486,3.31-.926,4.976-1.272,1.887-.392,3.757-.794,5.619-1.375.9-.281,1.072-2,1.072-3.109a7.745,7.745,0,0,0-.207-1.834c-.132-.5-.408-1.294-.865-1.27-3.361.161-6.72.327-10.078.553q-5.083.342-10.176.437c-6.588.128-13.188-.2-19.769-.592,1.122-.219,2.243-.435,3.365-.654,4.028-.788,8.046-1.777,12.1-2.31,2.155-.284,4.317-.521,6.466-.885a28.756,28.756,0,0,0,3.248-.705,35.9,35.9,0,0,0,3.435-1.255,1.106,1.106,0,0,0,.83-.784,6.556,6.556,0,0,0,.546-2.407c1.152-.509,1.384-2.955,1.384-4.428a10.991,10.991,0,0,0-.3-2.654c-.2-.755-.581-1.825-1.251-1.836-3.5-.058-6.989-.4-10.487-.461Q302.475,0,301.859,0c-3.009,0-6.013.19-9.019.423Q282.8,1.2,272.757,2.264c-3.109.322-6.215.7-9.327.974-3.806.33-7.6.584-11.414.8-6.373.356-12.758.495-19.135.663-7.313.2-14.618.473-21.925.967-6.767.459-13.528,1.07-20.291,1.654q-10.184.873-20.371,1.75c-6.959.6-13.923,1.053-20.889,1.5-3.524.229-7.053.3-10.579.442-3.338.137-6.678.173-10.018.243-6.572.139-13.145.224-19.718.322-13.26.194-26.514.505-39.773.822q-10.925.265-21.848.565c-3.715.1-7.431.313-11.144.467-3.175.132-6.349.442-9.522.676-3.378.25-6.756.526-10.135.806q-3.012.252-6.03.508c-.872.075-1.747.147-2.622.223-.8.067-1.592.152-2.385.24a12.936,12.936,0,0,0-1.683.317,9.726,9.726,0,0,0-1.832.841,3.446,3.446,0,0,0-.741,1.567,11.6,11.6,0,0,0,0,5.161l.326.945a1.2,1.2,0,0,0,.89.844,14.6,14.6,0,0,0,2.081.735,1.19,1.19,0,0,0,.887-.839,3.968,3.968,0,0,0,.2-.485c.371-.015.743-.014,1.116-.014.356,0,.712,0,1.07-.015q1.206-.039,2.408-.082,3.1-.105,6.2-.211c2.241-.079,4.48-.135,6.72-.192-.232.029-.463.057-.694.084-5.291.6-10.578,1.193-15.864,1.875a2.638,2.638,0,0,0-1.954,1.849,14.013,14.013,0,0,0-1.2,4.688Q2.175,32.933.78,32.916c-.651-.009-.78,1.63-.78,2.26s.129,2.246.78,2.257c.89.012,1.781.034,2.671.051a23.191,23.191,0,0,0,.6,4.178q.358,1.038.715,2.073a2.637,2.637,0,0,0,1.954,1.849C11.724,44.942,16.729,44.381,21.735,43.826Z" transform="translate(2350.563 362.286) rotate(180)" fill="#b6d5d4"/>
  </g>
</svg>
