<svg xmlns="http://www.w3.org/2000/svg" width="24.405" height="15.447" viewBox="0 0 24.405 15.447">
  <g id="Grupo_78329" data-name="Grupo 78329" transform="translate(0 0.708)">
    <path id="Trazado_14213" data-name="Trazado 14213" d="M110.21,129.337a9.28,9.28,0,0,1,2.06.233,14.861,14.861,0,0,1,6.2,3.4,16.984,16.984,0,0,1,2.394,2.421l.047.054a.125.125,0,0,1,.027.059l-.007.088a.1.1,0,0,1-.021.035l-.045.052c-.226.29-.485.569-.726.828a19.272,19.272,0,0,1-4.7,3.742A11.852,11.852,0,0,1,112,141.555a9.679,9.679,0,0,1-1.819.175,9.226,9.226,0,0,1-2.066-.233,14.853,14.853,0,0,1-6.2-3.4,17.071,17.071,0,0,1-2.4-2.42.191.191,0,0,1,0-.289c.209-.268.442-.525.727-.827a19.174,19.174,0,0,1,4.7-3.741,11.767,11.767,0,0,1,3.436-1.306,9.679,9.679,0,0,1,1.824-.177m0-1.527a11.1,11.1,0,0,0-2.087.2,13.132,13.132,0,0,0-3.848,1.455,20.67,20.67,0,0,0-5.065,4.025c-.311.33-.57.616-.816.932a1.754,1.754,0,0,0,0,2.226,18.443,18.443,0,0,0,2.6,2.633,16.249,16.249,0,0,0,6.806,3.707,10.677,10.677,0,0,0,2.376.268,11.093,11.093,0,0,0,2.081-.2,13.228,13.228,0,0,0,3.848-1.456,20.724,20.724,0,0,0,5.065-4.025c.275-.294.54-.583.788-.9l.014-.016a1.631,1.631,0,0,0,.308-.516l.078-.209.017-.224.007-.088.018-.227-.047-.223a1.679,1.679,0,0,0-.379-.767l-.016-.019a18.573,18.573,0,0,0-2.575-2.6,16.256,16.256,0,0,0-6.807-3.708,10.7,10.7,0,0,0-2.37-.268Z" transform="translate(-97.999 -128.518)" fill="#333334"/>
    <path id="Trazado_14214" data-name="Trazado 14214" d="M267.634,191.687a2.71,2.71,0,1,1-2.667,2.709,2.692,2.692,0,0,1,2.667-2.709m0-1.457a4.167,4.167,0,1,0,4.124,4.166A4.15,4.15,0,0,0,267.634,190.23Z" transform="translate(-255.495 -187.381)" fill="#333334"/>
  </g>
</svg>
