<svg xmlns="http://www.w3.org/2000/svg" width="279.48" height="126.142" viewBox="0 0 279.48 126.142">
  <g id="Grupo_78045" data-name="Grupo 78045" transform="matrix(0.087, -0.996, 0.996, 0.087, -65.479, 567.275)">
    <path id="Trazado_3774" data-name="Trazado 3774" d="M491.923,39.626c-2.825,1.951-4.58,5.639-6.828,8.544-.262.338-.7.853-.975.8-3.2-.608-5.322,1.555-7.319,3.491-1.227,1.19-4.064,2.1-2.157,5l-.131.205.314-.01c1.566-.937,3.122-1.893,4.709-2.785.2-.11.563.123.852.2-.142.186-.247.449-.43.546-1.342.715-2.006,2.52-3.746,2.605-.188.009-.4.3.011.418.321.09.723.1.253.562-.2.2-.411.387-.616.579-.027-1.436-2,2.021-1.617-.72.036-.261-.543.1-.7.425-.616,1.277-1.165,2.6-1.842,3.835-1.476,2.7-3.256,5.289-2.25,8.7.146.495-1.555,1.211.162,1.514.042.063.085.127.128.187l.928.1h0l-.928-.1c-1.63,1.579-.834,3.656-.626,5.347.816,6.589,2,13.126,2.965,19.695.769,5.211,1.343,10.454,2.164,15.655.611,3.873,2.382,7.418,2.01,11.626-.266,3.019,1.02,6.157,1.078,9.253a80.581,80.581,0,0,0,.892,11.627c1,5.992.239,11.969,1.038,17.863.233,1.714-1.39,2.967-.483,4.51a8.027,8.027,0,0,1,.909,5.513c-.488,3.063.812,6.036.159,9.181-.332,1.6,1.037,3.591.725,5.207-.673,3.482.76,6.771.215,10.279-.424,2.726.328,5.694.758,8.521.3,2-.344,4.042.016,5.863a45.459,45.459,0,0,1,.372,11.689c-.255,4.044.806,8,.09,11.973-.194,1.08,1.561.508,1.223,1.536-.93,2.822-.073,5.671-.152,8.5-.1,3.639.543,7.3.54,10.946,0,4.6-.376,9.2-.489,13.8a7.67,7.67,0,0,0,.725,2.32c.611-.641-.02-1.364.123-2.034a3.883,3.883,0,0,1,.384-.567,15.322,15.322,0,0,0,2.006,7.832c2.108,2.073,4.022,4.46,6.392,6.113,1.927,1.344,4.406,1.8,6.64,2.648.215.081.587.075.638.213.71,1.918,3.17,2.875,4.718,1.8.074.087.15.174.224.26a10.14,10.14,0,0,0,8.341-.437c1.063-.556,3.6-.515,2.642-3.224-.082-.231-.194-.451-.293-.677a3.488,3.488,0,0,1,.75.414c1.1,1.017,1.264.98,1.172.583-.367-1.579,1.176-1.519,1.482-1.38,1.838.831,1.2-.834,1.519-1.521l.024.01v-.03l.18-.063-.186-.167v-.036l-.009,0c.5-.723-1.958-.651-.394-1.481.268-.143,2.428-.861,1.733,1.437-.2.644.188,1.221.817,1.723,1.574,1.258,4.3,1.748,4.011,4.424-.132,1.232,2.672,3.8-1.031,4,.209.425.621.882.568,1.265-.136.966-.644-.259-.97.085-.084.091-.241.1-.365.153.1.084.21.243.31.239,1.416-.052,2.994.278,4.218-.273,3.451-1.555,5.731-4.743,8.056-7.674,2.12-2.675,2.905-6.184,4.037-9.44.085-.245.211-.473.318-.709.089.24.2.475.265.722.278,1.022.894,2.137,1.786,2.041.822-.088.634-1.435.816-2.285.43-2.022,1.146-3.983,1.487-6.017.3-1.783,2.337-1.4,2.773-2.856a8.266,8.266,0,0,0,3.554.119c1.651-.164,1.485.934,2,1.642,1.11,1.518-.027,2.572-.668,3.731-.043.05-.085.1-.127.152.485,1.042-1.548,1.073-.792,2.224l.051.068c-.482,1,.19,1.477.847,1.339,1.976-.415,4.207-.573,5.8-1.693a17.111,17.111,0,0,0,6.288-9.526c1.624-5.583,3.693-11.052,4.163-16.95.334-4.176.585-8.36.877-12.541q.27-3.865.552-7.729h-.022c-.146-3.843-.311-7.686-.437-11.53q-.319-9.735-.6-19.473l.255.294c.052-.054.106-.106.159-.158l-.252-.3c-.114-1.427-.286-2.852-.331-4.281-.119-3.757.27-7.616-.439-11.236a27.083,27.083,0,0,1-.593-6.287c.267-4.414-1.555-8.5-1.02-12.9.292-2.391-.412-4.918-.667-7.383l.018.022q.1-.467.211-.937l-.017-.019q-.106.465-.212.931c-.171-.254-.458-.5-.467-.765-.154-4.241-.261-8.484-.419-12.724-.007-.181-.385-.417-.629-.5-.2-.068-.462.058-.7.1a7.834,7.834,0,0,1,.432-.823c.784-1.149.159-2.331-.2-3.289-.405-1.08-1.173.1-1.779.215a23.6,23.6,0,0,0-2.656.785c-.24.075-.55.316-.545-.189a2.4,2.4,0,0,1,.24-1.356c.234-.28.8-.252,1.223-.336a.744.744,0,0,1,.107.375c-.037.265-.99.1-.324.656.2.166.753.011,1.063-.162a3.627,3.627,0,0,0,1.973-4.293l.017-.009-.023-.025h0l0,.01c-1.128-.659-1.663-1.378-.4-2.551a1.881,1.881,0,0,0,.325-1.43c-.462-2.816-.377-5.813-2.244-8.2a.274.274,0,0,1,.032-.241c1.263-1.487.536-3.305.5-4.885a63.844,63.844,0,0,0-1.109-7.576c-.58-3.945-.855-7.969-1.786-11.817-.5-2.082.205-4.543-1.963-6.355-1.311-1.1,1.415-4.089-1.216-5.418.088-.09.163-.214.269-.263,1.735-.81.713-1.8.145-2.732-.133-.219-.733-.257-.222-.666.271-.217,1.01-.187.525-.748-.309-.356-.342-1.235-1.189-.991-.47.135-.953-.068-.376-.616.938-.889-.044-.873-.377-1.32-.529-.708-2.4-.5-1.466-2.258H554.4c.437-.861.876-1.722,1.292-2.594.011-.023-.3-.29-.344-.261-1.118.856-.583-.143-.526-.535.222-1.538.237-1.506-1.5-.927a3.433,3.433,0,0,1-1.291-.1l-.193-.194c.434-.369,1.176-.687,1.24-1.118.154-1.03,3.962-1.141.7-3.047-.609-.357.022-.821.435-1.129s.734-.739.387-1.3c-.213-.345-.516-.747-.976-.442-.654.432-1.267.932-1.9,1.4a1.9,1.9,0,0,0,1.11-.3c.251-.114.7.025.4.281-.7.6-1.125,1.763-2.312,1.534q.216-1.033.431-2.066h0c.1-.144.2-.287.306-.43l.047-.021c0-.013.014-.025.02-.038,1.832-.436,2.677-3.031,1.763-5.46h0c.211-.325.3-.608-.189-.7l0-.029-.025.012c.046-.524.071-1.039-.439-1.358h0a16.171,16.171,0,0,1-.785-3.574c-.259-2.321-1.359-4.319-1.585-6.554-.308-3.038-1.546-3.233-3.546-1.474a2.188,2.188,0,0,1-.144.359.683.683,0,0,1-.36.357.808.808,0,0,1-.646-.136.809.809,0,0,0,.646.136.683.683,0,0,0,.36-.357,2.1,2.1,0,0,0,.143-.359h0l.005-.014h-.013c.071-.791.754-1.06,1.171-1.562.432-.524.908-1.089.385-1.853-.571-.831-1.3-.214-1.6.1a39.713,39.713,0,0,0-2.594,3.317l-.034-.009.011.024c-.848-.512-.618-1.053-.075-1.669.438-.5.575-1.281-.314-1-1.947.616-2.544-.229-2.536-2.082a2.318,2.318,0,0,0,1.843-1.889c.217-.734-.691-1.163-1.2-1.4-.657-.3-.275-.495-.208-.881.136-.795.383-2.191.115-2.332-1.033-.543-1.131,1.138-1.77,1.258-.792.147-1,2.524-2.242.7q.085-.108.167-.216c1.377-.059.8-1.335,1.182-1.963,1.134-1.885,1.778-3.353.37-5.568-.7-1.1-1.412-.929-2.178-1.224l-.013-.086.009.084.008.025c-1.019.086-1.7-1.9-2.926-.533a2.656,2.656,0,0,1-.127-.437c-.189-1.633-1.509-1.792-2.589-2.056-1.1-.27.138.656-.3.927-.325.2-.539.382-.687-.078-.138-.426-.336-.387-.54-.139-.109.134-.192.463-.117.566a.823.823,0,0,1-.083,1.2c-.806.946-.749,1.716.569,2.044l.282.3c-.276.647-1.319.742-1.122,1.717.063.314.3.727-.13.788-.227.033-.774-.5-.736-.617.388-1.166-.606-1.176-1.08-1.68-.615-.657-1.558-.338-2.029-.839-.816-.868-1.351-2-2.82-1.355-.533.233-.951-.169-.5-.727.735-.9-.043-.884-.488-1.045a22.265,22.265,0,0,0-14.851-.545,21.81,21.81,0,0,0-8.534,5.693C496.117,33.9,495.07,37.453,491.923,39.626Zm-3.951,240.552.083.207,0,0c-.026-.072-.054-.141-.082-.21Zm14.715,5.66c.067-.12.126-.257.2-.366h0C502.812,285.581,502.753,285.718,502.687,285.838Zm52.478-16.753h0l-1.125.431Zm.014.017h0l0,.071Zm-2.758-7.409c.095-.771-.7-1.4-1.257-2.071q.126,1.512.253,3.023l.178.235h0l-.178-.235q-.128-1.512-.254-3.024h0C551.721,260.289,552.516,260.921,552.421,261.693Zm-1.271-2.127h0c-.773-.036-.95-.283-.91-.607-.04.324.138.571.91.607.57-.815.267-1.321-.529-1.651h0C551.417,258.244,551.72,258.75,551.15,259.566Zm-.54-1.688h0c.015-.352.03-.7.045-1.054C550.639,257.174,550.625,257.526,550.609,257.878Zm-68.27-139.515-.725,1.15.724-1.15Zm-4.564,1.157a.428.428,0,0,1-.443.233h0A.427.427,0,0,0,477.775,119.52Zm-.235,1.066a.772.772,0,0,1-.008.405.783.783,0,0,0,.008-.405c-.053-.264-.188-.534-.221-.8h0C477.353,120.051,477.487,120.322,477.54,120.586Zm-1.65-13.211h0c0-.067,0-.132,0-.2Zm-4.352-33.556c-.21,0-.437.036-.65.037C471.1,73.855,471.329,73.816,471.539,73.818Zm-.822.026c.048.005.1.009.146.01-.049,0-.1,0-.146-.01Zm4.4-9.727.175-.2-.174.2Zm74.226,11.367h0l.452-.628Zm-68.448-2.1c.088-.26.181-.516.288-.768C481.079,72.872,480.986,73.128,480.9,73.388Zm69.41-10.4v0c.071-.026.171-.039.193-.09C550.478,62.947,550.376,62.959,550.308,62.987Zm.1-4.956a2.476,2.476,0,0,0-.109.543,2.476,2.476,0,0,1,.109-.543Zm-.11.555a.47.47,0,0,0,.021.13A.47.47,0,0,1,550.294,58.586Zm.094-.581-1.755.382,1.756-.382Zm1.34.477c.388.508.7-.347,1.055-.394h0C552.428,58.131,552.116,58.991,551.727,58.482Zm-7.976-9.963h0l-.486-.32Zm.672.412c.01,0,.019-.005.027-.005C544.442,48.925,544.433,48.933,544.423,48.931Zm.127-.024a.773.773,0,0,0,.229-.455h0A.773.773,0,0,1,544.55,48.907Zm-.02-.691c-.27-.273-.536-.494-.745.3h0C543.993,47.721,544.26,47.943,544.53,48.216ZM533.749,28.431l-.747.806-.483.5h0l.483-.5.747-.806-.609-.257h0Zm-.606-.915a.407.407,0,0,0-.143-.243.407.407,0,0,1,.143.243,2.4,2.4,0,0,1-.014.628h0a.851.851,0,0,1-.6-.141.849.849,0,0,0,.6.141A2.4,2.4,0,0,0,533.143,27.516Zm1.027,13.9h0l-.615-.476Zm-.218.514Zm.248-.483a.114.114,0,0,1,.029.11.112.112,0,0,0-.031-.11h0c.549.035.656.188.6.385C534.855,41.635,534.748,41.481,534.2,41.447Zm-.343.583c-.183.2-.319.383-.08.463C533.538,42.414,533.674,42.229,533.857,42.03Zm2.743-2.268a1.941,1.941,0,0,0,.2-.311h0A1.941,1.941,0,0,1,536.6,39.763Z" transform="translate(0 0)" fill="#ffd64f"/>
  </g>
</svg>
