<svg xmlns="http://www.w3.org/2000/svg" width="605.351" height="62.824" viewBox="0 0 605.351 62.824">
  <g id="Grupo_78020" data-name="Grupo 78020" transform="translate(-77.778 -243.069)">
    <path id="Trazado_2669" data-name="Trazado 2669" d="M21.893,44c1.35-.15,2.71-.378,4.064-.449,1.263-.067,2.527-.137,3.787-.2,6.915-.37,13.828-.844,20.747-.988,7.235-.153,14.473-.407,21.71-.433,7.385-.026,14.769-.07,22.153-.019q21.59.157,43.176.244,21.442.077,42.884-.038c7.095-.053,14.191-.3,21.284-.5,6.965-.193,13.923-.517,20.885-.9,1.53-.084,3.057-.247,4.586-.373,1.51-.127,3.023-.229,4.532-.394,3.872-.426,7.739-.878,11.607-1.384,6.733-.883,13.446-2.059,20.188-2.793,7.064-.77,14.143-1.208,21.215-1.834a91.286,91.286,0,0,0,9.57-1.256c3.623-.706,7.214-1.561,10.8-2.626,3.462-1.03,6.922-2.088,10.388-3.1,1.662-.488,3.334-.93,5.012-1.277,1.9-.394,3.784-.8,5.66-1.38.9-.282,1.08-2.009,1.08-3.121a7.748,7.748,0,0,0-.208-1.841c-.133-.5-.411-1.3-.872-1.275-3.385.162-6.769.328-10.151.555q-5.12.343-10.25.438c-6.635.129-13.284-.2-19.913-.595,1.13-.22,2.26-.437,3.39-.657,4.058-.791,8.1-1.784,12.184-2.319,2.171-.285,4.348-.523,6.513-.889a29.037,29.037,0,0,0,3.272-.708,36.245,36.245,0,0,0,3.46-1.26,1.113,1.113,0,0,0,.836-.787,6.563,6.563,0,0,0,.55-2.417c1.161-.51,1.394-2.967,1.394-4.445a11.015,11.015,0,0,0-.3-2.664c-.2-.758-.586-1.832-1.26-1.843C312.337.414,308.82.074,305.3.01,304.884,0,304.469,0,304.056,0c-3.031,0-6.057.191-9.085.425q-10.117.781-20.229,1.848c-3.131.323-6.26.706-9.4.978-3.834.332-7.659.586-11.5.8-6.42.358-12.85.5-19.274.665-7.366.2-14.724.474-22.085.971-6.816.461-13.627,1.074-20.438,1.66Q181.8,8.225,171.535,9.1c-7.009.607-14.024,1.057-21.041,1.507-3.549.23-7.1.3-10.656.443-3.362.138-6.727.174-10.091.244-6.62.139-13.241.225-19.862.323-13.356.194-26.707.507-40.062.825q-11,.266-22.007.567c-3.742.1-7.485.315-11.225.469-3.2.132-6.395.443-9.592.679-3.4.251-6.806.528-10.208.81q-3.034.253-6.073.51c-.879.076-1.76.148-2.641.223-.8.067-1.6.153-2.4.241a13.069,13.069,0,0,0-1.7.318,9.823,9.823,0,0,0-1.846.844,3.456,3.456,0,0,0-.747,1.573,11.6,11.6,0,0,0,0,5.181l.329.949a1.205,1.205,0,0,0,.9.847,14.748,14.748,0,0,0,2.1.737,1.2,1.2,0,0,0,.893-.842,3.98,3.98,0,0,0,.206-.486c.374-.015.749-.014,1.124-.014.358,0,.717,0,1.078-.015q1.214-.039,2.425-.083,3.124-.106,6.247-.211c2.257-.079,4.512-.136,6.769-.193-.233.029-.467.057-.7.084-5.329.6-10.655,1.2-15.979,1.882A2.653,2.653,0,0,0,4.8,28.375a14.029,14.029,0,0,0-1.209,4.706q-1.4-.021-2.809-.038C.13,33.035,0,34.68,0,35.313s.13,2.255.786,2.265c.9.012,1.794.034,2.691.052a23.214,23.214,0,0,0,.606,4.194q.361,1.042.72,2.082a2.653,2.653,0,0,0,1.968,1.856C11.81,45.117,16.851,44.553,21.893,44Z" transform="translate(80.173 243.07) rotate(3)" fill="#fff"/>
    <path id="Trazado_2670" data-name="Trazado 2670" d="M17.3,42.373a137.107,137.107,0,0,1,16.4-1.755c3.1-.189,6.2-.318,9.3-.427,4.452-.155,8.891-.271,13.347-.345,8.484-.14,16.973-.193,25.46-.214,17.008-.042,34-.117,50.991-.7,17.621-.6,35.243-1.163,52.861-1.782,16.706-.588,33.411-1.175,50.123-1.624,16.737-.451,33.462-.851,50.181-1.591,17.108-.756,34.233-1.162,51.367-1.492,8.128-.155,16.281-.355,24.371-.964q6.334-.479,12.649-1.056c4.126-.369,8.273-.613,12.415-.887a98.714,98.714,0,0,1,11.41.027,8.59,8.59,0,0,0,6.222-2.852q1.142-1.6,2.281-3.2a18.908,18.908,0,0,0,2.034-8.729,18.91,18.91,0,0,0-2.034-8.731q-1.14-1.6-2.281-3.2A8.59,8.59,0,0,0,398.175,0c-2.1.116-4.2.27-6.3.371-1.916.092-3.838.086-5.755.1-4.1.021-8.2.122-12.291.241-8.513.249-17.01.643-25.525.821-16.5.345-33.007.381-49.485,1.058-8.835.361-17.66.782-26.495,1.134-8.026.322-16.062.533-24.1.743q-25.647.665-51.269,1.622c-16.87.624-33.744,1.2-50.612,1.835q-13.988.522-27.98.965c-8.357.263-16.736.3-25.1.361-17.122.127-34.248.213-51.347.924-4.212.174-8.417.41-12.61.759-3.4.282-6.81.678-10.164,1.18-2.593.388-5.1,1-7.613,1.579a20.627,20.627,0,0,0-4.174,1.464,11.657,11.657,0,0,0-5.239,5.366A19.059,19.059,0,0,0,.6,34.088a15.675,15.675,0,0,0,3.825,7.349q1.463,1.065,2.93,2.126a7.834,7.834,0,0,0,6.743,0A20.849,20.849,0,0,1,17.3,42.373Z" transform="matrix(1, 0.017, -0.017, 1, 274.477, 251.006)" fill="#fff"/>
  </g>
</svg>
