<svg xmlns="http://www.w3.org/2000/svg" width="449.994" height="52.16" viewBox="0 0 449.994 52.16">
  <g id="Grupo_78021" data-name="Grupo 78021" transform="translate(-264.589 -249.682)">
    <path id="Trazado_2670" data-name="Trazado 2670" d="M462.076,434a165.17,165.17,0,0,1,18.026-1.755c3.409-.189,6.811-.318,10.228-.427,4.894-.155,9.773-.271,14.672-.345,9.326-.14,18.658-.193,27.987-.214,18.7-.042,37.373-.117,56.053-.7,19.371-.6,38.741-1.163,58.109-1.782,18.365-.588,36.727-1.175,55.1-1.624,18.4-.451,36.784-.851,55.163-1.591,18.806-.756,37.632-1.162,56.466-1.492,8.935-.155,17.9-.355,26.79-.964q6.963-.479,13.9-1.056c4.536-.369,9.095-.613,13.647-.887a119.268,119.268,0,0,1,12.542.027,9.85,9.85,0,0,0,6.839-2.852q1.255-1.6,2.508-3.2a18.157,18.157,0,0,0,0-17.46q-1.253-1.6-2.508-3.2a9.85,9.85,0,0,0-6.839-2.852c-2.312.116-4.618.27-6.93.371-2.106.092-4.219.086-6.327.1-4.509.021-9.011.122-13.511.241-9.358.249-18.7.643-28.059.821-18.134.345-36.284.381-54.4,1.058-9.712.361-19.413.782-29.125,1.134-8.823.322-17.656.533-26.487.743q-28.193.665-56.358,1.622c-18.545.624-37.094,1.2-55.636,1.835q-15.376.522-30.758.965c-9.187.263-18.4.3-27.592.361-18.822.127-37.648.213-56.445.924-4.63.174-9.253.41-13.862.759-3.742.282-7.487.678-11.173,1.18-2.851.388-5.6,1-8.369,1.579a24.211,24.211,0,0,0-4.589,1.464,12.239,12.239,0,0,0-5.759,5.366,17.52,17.52,0,0,0-1.666,13.57,15.238,15.238,0,0,0,4.2,7.349q1.608,1.065,3.221,2.126a9.387,9.387,0,0,0,7.413,0A24.4,24.4,0,0,1,462.076,434Z" transform="matrix(1, 0.017, -0.017, 1, -170.793, -149.616)" fill="#fff"/>
  </g>
</svg>
