<svg xmlns="http://www.w3.org/2000/svg" width="46.013" height="29.335" viewBox="0 0 46.013 29.335">
  <path id="Trazado_2456" data-name="Trazado 2456" d="M70.147,460.813c-3.6-1.283-3.6-1.283-7.416-9.594-.455,3.546-.826,6.059-1.089,8.583-.283,2.706-.539,5.419-.674,8.135-.183,3.679-.186,7.367-.377,11.046-.076,1.456.559,3.692-1.882,3.649-2.161-.038-2.157-2.194-2.132-3.69.092-5.435.293-10.873.644-16.3.2-3.016.77-6.007,1.245-9.542-3.815,3.076-4.646,8.132-9.32,10.674.09-1.6-.117-2.724.246-3.611a65.93,65.93,0,0,1,10.7-18.121,7.51,7.51,0,0,1,1.373-1.336c1.928-1.338,3.979-.893,4.622,1.324,1.69,5.827,3.134,11.726,4.639,17.606C70.785,459.863,70.469,460.185,70.147,460.813Z" transform="translate(487.262 43.848) rotate(101)" fill="#09989A"/>
</svg>
