<svg xmlns="http://www.w3.org/2000/svg" width="43.73" height="35.942" viewBox="0 0 43.73 35.942">
  <g id="Grupo_78110" data-name="Grupo 78110" transform="translate(-284.135 -139.13)">
    <path id="Trazado_9065" data-name="Trazado 9065" d="M327.749,154.99a.884.884,0,0,0-.768-.446H285.017a.884.884,0,0,0-.762,1.33l3.012,5.1a.881.881,0,0,0,.758.434l35.859.085h0a.884.884,0,0,0,.758-.43l3.094-5.187a.878.878,0,0,0,.01-.888m-4.363,4.738-34.855-.083-1.97-3.337h38.867Z" transform="translate(0 13.577)" fill="#333334"/>
    <path id="Trazado_9066" data-name="Trazado 9066" d="M286.161,166.665h37.532a.882.882,0,0,0,.876-.778,19.657,19.657,0,0,0-15.423-21.7,4.193,4.193,0,0,0,.075-.762,4.294,4.294,0,0,0-8.588,0,4.153,4.153,0,0,0,.077.76,19.682,19.682,0,0,0-15.425,21.7.883.883,0,0,0,.876.776M302.4,143.424a2.531,2.531,0,0,1,5.062,0,2.037,2.037,0,0,1-.079.467,19.524,19.524,0,0,0-2.453-.17,19.89,19.89,0,0,0-2.451.168,2,2,0,0,1-.079-.465m2.53,2.061a18.054,18.054,0,0,1,18.034,18.031c0,.467-.023.928-.062,1.384H286.956c-.037-.457-.06-.917-.06-1.384a18.052,18.052,0,0,1,18.031-18.031" transform="translate(1.073)" fill="#333334"/>
    <path id="Trazado_9067" data-name="Trazado 9067" d="M288.087,157.577a.931.931,0,0,0,.131.01.883.883,0,0,0,.872-.753,13.7,13.7,0,0,1,13.47-11.6.881.881,0,1,0,0-1.762,15.474,15.474,0,0,0-15.215,13.106.883.883,0,0,0,.743,1" transform="translate(3.441 4.665)" fill="#333334"/>
  </g>
</svg>
