<svg xmlns="http://www.w3.org/2000/svg" width="127.3" height="138.776" viewBox="0 0 127.3 138.776">
  <path id="Trazado_2694" data-name="Trazado 2694" d="M22.618,19.135c-.5,1.885-1.086,3.561-1.381,5.287C19.226,36.2,22.924,46.181,31.06,54.646a28.8,28.8,0,0,0,15.869,8.676,23.225,23.225,0,0,0,16.709-2.953,19.49,19.49,0,0,0,7.083-26.044,31.6,31.6,0,0,0-9.2-10.257,46.126,46.126,0,0,0-30.159-9.473c-.672.025-1.345,0-2.315,0a13.438,13.438,0,0,1,.923-1.418A27.5,27.5,0,0,1,46.4,3.975C64.306.813,79.6,5.9,91.679,19.517c6.633,7.473,10.172,16.421,9.635,26.6a62.774,62.774,0,0,1-4.93,21.377c-.265.625-.6,1.222-.924,1.82a8.855,8.855,0,0,1-.625.84,7.322,7.322,0,0,1-.588-1.3c-.55-2.525-1.049-5.061-1.6-7.586a7.438,7.438,0,0,0-.671-2.127c-.22-.382-.931-.828-1.254-.724-.467.15-.827.742-1.14,1.208-.117.174,0,.528.056.791.984,4.657,1.956,9.317,2.973,13.968.511,2.338,1.478,2.781,3.641,1.758a11.778,11.778,0,0,0,1.437-.774c4.382-2.875,8.781-5.725,13.115-8.67a28.93,28.93,0,0,0,3.718-3.18,4.475,4.475,0,0,0,1.137-1.887,1.582,1.582,0,0,0-.488-1.386c-.334-.244-.982-.093-1.487-.048-.169.015-.342.218-.477.368-3.33,3.7-7.629,6.113-11.71,8.814-1.058.7-2.135,1.372-3.624,2.327a10.958,10.958,0,0,1,.367-1.174,60.945,60.945,0,0,0,5.8-21.15c1.7-15.724-4.6-28.188-16.43-38.008C77.982,3.366,66.643-.27,54.125.016A39.676,39.676,0,0,0,37.154,3.941,28.757,28.757,0,0,0,25.82,13.68,5.321,5.321,0,0,1,22.639,15.9a47.072,47.072,0,0,0-7.988,3.027C3.658,24.652-1.71,35.133.483,47.3,2.555,58.79,9.01,67.168,19.825,71.887A34.976,34.976,0,0,0,26.307,73.6a6.571,6.571,0,0,0,2.423-.057,1.067,1.067,0,0,0,.971-1.319c-.123-.442-.607-.8-.976-1.146-.121-.114-.391-.084-.594-.093C21.782,70.7,16.678,67.7,12.28,63.432A28.863,28.863,0,0,1,3.058,42.522a21.988,21.988,0,0,1,8-17.606A26.412,26.412,0,0,1,22.618,19.135Zm10.83-1.62a43.15,43.15,0,0,1,22.679,6.5A34.928,34.928,0,0,1,67.049,34c6.784,9.974,1.61,21.779-8.125,25.374a20.973,20.973,0,0,1-15.362-.086C33.809,55.457,27.815,48.148,24.808,38.3a26.852,26.852,0,0,1,.971-18.578,2.661,2.661,0,0,1,2.576-1.885C30.054,17.757,31.751,17.625,33.449,17.515Z" transform="translate(64.291) rotate(57)" fill="#e52441"/>
</svg>
