<svg xmlns="http://www.w3.org/2000/svg" width="283.364" height="46.452" viewBox="0 0 283.364 46.452">
  <g id="Grupo_78118" data-name="Grupo 78118" transform="translate(-54.613 -97.692)">
    <circle id="Elipse_35" data-name="Elipse 35" cx="0.609" cy="0.609" r="0.609" transform="translate(60.537 122.541)" fill="#e52441"/>
    <path id="Trazado_2218" data-name="Trazado 2218" d="M71.763,129.186c.271.729.571,1.447.891,2.159a23.281,23.281,0,0,0,3.529,5.407,21.013,21.013,0,0,0,4.563,3.9,16.957,16.957,0,0,0,2.544,1.336,22.067,22.067,0,0,0,3.465,1.206,17.608,17.608,0,0,0,6.056.376,23.778,23.778,0,0,0,6.424-1.537,34.843,34.843,0,0,0,5.474-2.791c.11-.068.221-.137.33-.208.248.27.5.533.775.788a19.013,19.013,0,0,0,2.477,1.906,15.962,15.962,0,0,0,3.231,1.556,14.322,14.322,0,0,0,3.282.706,18.105,18.105,0,0,0,2.991.137,19.444,19.444,0,0,0,3.414-.5,24.485,24.485,0,0,0,3.469-1.106,34.333,34.333,0,0,0,9.89-6.035,14.134,14.134,0,0,0,1.407,2.037,13.577,13.577,0,0,0,1.917,1.976,12,12,0,0,0,2.9,1.786,15.207,15.207,0,0,0,2.873.954,12.976,12.976,0,0,0,3.066.278,18.412,18.412,0,0,0,3.178-.424,17.724,17.724,0,0,0,3.2-.973,27.731,27.731,0,0,0,10.16-7.252q.64-.709,1.247-1.448c.408.482.835.948,1.268,1.395a20.514,20.514,0,0,0,2.225,1.954,23.8,23.8,0,0,0,3.1,2.054,26.553,26.553,0,0,0,2.967,1.344,12.487,12.487,0,0,0,3.186.772,22.177,22.177,0,0,0,6.707-.4,28.34,28.34,0,0,0,5.833-1.932,29.857,29.857,0,0,0,5.646-3.224,32.307,32.307,0,0,0,4.373-3.763c.166.374.34.746.518,1.115a16.206,16.206,0,0,0,1.874,2.91,18.389,18.389,0,0,0,1.865,2.054,18.063,18.063,0,0,0,2.325,1.808,14.712,14.712,0,0,0,2.441,1.291,16.867,16.867,0,0,0,3.32,1.061,18.66,18.66,0,0,0,6.1.214,21.531,21.531,0,0,0,3.2-.631,23.457,23.457,0,0,0,3.491-1.382,25.766,25.766,0,0,0,5.216-3.39,31.151,31.151,0,0,0,3.53-3.345c.2.252.393.5.591.747a12.047,12.047,0,0,0,2.178,2.045,15.585,15.585,0,0,0,5.557,2.639,18.366,18.366,0,0,0,3.191.441,15.54,15.54,0,0,0,2.978-.12,21.588,21.588,0,0,0,3.212-.647,33.314,33.314,0,0,0,3.369-1.2,35.473,35.473,0,0,0,5.542-2.789,36.257,36.257,0,0,0,5.4-4.222q1.116-1.026,2.146-2.133c.2.183.408.362.622.537a13.882,13.882,0,0,0,2.566,1.661,19.132,19.132,0,0,0,2.9,1.131,17.515,17.515,0,0,0,3.087.561,13.19,13.19,0,0,0,3.563-.14,15.887,15.887,0,0,0,2.71-.66,20,20,0,0,0,2.808-1.244,18.032,18.032,0,0,0,2.4-1.545,27.829,27.829,0,0,0,2.769-2.361c.163-.158.323-.319.479-.483l.159.2a16.487,16.487,0,0,0,2.354,2.327,15.208,15.208,0,0,0,2.569,1.748c.48.256,1,.441,1.5.648a10.785,10.785,0,0,0,1.287.415,13.852,13.852,0,0,0,3.1.427,17.488,17.488,0,0,0,3.77-.393,12.8,12.8,0,0,0,2.882-.936,10.676,10.676,0,0,0,1.738-.987c.279.233.567.457.858.674A19.553,19.553,0,0,0,314.039,131a20.893,20.893,0,0,0,8.164,2.42,28.786,28.786,0,0,0,4.957.146c.943-.038,1.876-.155,2.813-.26a19.94,19.94,0,0,0,4.428-.929c.372-.138.736-.288,1.1-.451a8.5,8.5,0,0,0,1.257-.912c.165-.211.33-.424.494-.638a2.45,2.45,0,0,0,.543-1.049c.08-.442.137-.885.182-1.329a3.069,3.069,0,0,0-4.619-2.651,3.229,3.229,0,0,0-.988.91l-.449.125a20.76,20.76,0,0,1-2.231.483l-1.467.176a25.619,25.619,0,0,1-3.143.121,27.754,27.754,0,0,1-2.969-.17c-.68-.106-1.353-.235-2.024-.4a14.794,14.794,0,0,1-1.894-.617,17.959,17.959,0,0,1-2.523-1.425c.24-.325.472-.654.7-.984a51.453,51.453,0,0,0,2.723-4.638,43.9,43.9,0,0,0,2.045-4.3,11.2,11.2,0,0,0,.975-3.538,9.681,9.681,0,0,0-.2-2.349,7.063,7.063,0,0,0-.558-1.534c-.169-.381-.345-.751-.542-1.117a15.253,15.253,0,0,0-1.479-2.189,11.817,11.817,0,0,0-1.6-1.726,6.824,6.824,0,0,0-2.315-1.24l-.431-.089q-.606-.1-1.218-.144a6.991,6.991,0,0,0-1.665.19,5.012,5.012,0,0,0-1.146.423,5.521,5.521,0,0,0-1.339.889,12.166,12.166,0,0,0-1.6,1.853,10.566,10.566,0,0,0-1.163,2.152,23.529,23.529,0,0,0-1.1,3.033,18.26,18.26,0,0,0-.5,2.752,22.8,22.8,0,0,0-.176,3.107,21.9,21.9,0,0,0,.264,2.773,20.84,20.84,0,0,0,.592,2.826,22.161,22.161,0,0,0,1.019,2.63c.145.338.307.667.481.99-.23.136-.466.264-.71.385a15.145,15.145,0,0,1-2.694.672,7.979,7.979,0,0,1-4.275-.517,12.908,12.908,0,0,1-1.85-1.1,18.157,18.157,0,0,1-2.417-2.4c-.076-.106-.15-.213-.223-.32a43.688,43.688,0,0,0,3.032-5.43c1.06-2.19,1.972-4.469,2.824-6.749.314-.835.59-1.673.821-2.535a6.948,6.948,0,0,0-.874-5.614,5.816,5.816,0,0,0-1.019-1.186,4.662,4.662,0,0,0-3.124-1.182c-.16.012-.322.021-.482.031a8.942,8.942,0,0,0-1.131.184,6.364,6.364,0,0,0-1.421.587,6.53,6.53,0,0,0-1.218.851,9.483,9.483,0,0,0-.938.883,13.885,13.885,0,0,0-.932,1.2,13.6,13.6,0,0,0-1.526,3.037,18.754,18.754,0,0,0-.81,2.844,31.559,31.559,0,0,0-.546,3.163,23.264,23.264,0,0,0-.181,3,22.984,22.984,0,0,0,.367,3.574,15.108,15.108,0,0,0,.731,2.737,25.55,25.55,0,0,1-3.162,3.1,20.042,20.042,0,0,1-3.405,2.031,15.607,15.607,0,0,1-2.831.791,14.3,14.3,0,0,1-2.57,0,16.627,16.627,0,0,1-2.969-.818,13.208,13.208,0,0,1-1.944-1.105c-.21-.174-.413-.354-.61-.538.787-1.062,1.527-2.159,2.211-3.289a33.586,33.586,0,0,0,2.59-5.593,34.652,34.652,0,0,0,1.721-6.38,16.494,16.494,0,0,0,.255-3.114,15.606,15.606,0,0,0-.4-2.971,7.54,7.54,0,0,0-.4-1.211,10.168,10.168,0,0,0-.587-1.253l-.213-.286a4.419,4.419,0,0,0-.705-.823q-.429-.336-.869-.664c-.325-.155-.652-.3-.986-.433a9.3,9.3,0,0,0-1.52-.184l-.443.051a3.811,3.811,0,0,0-1.068.2,5.559,5.559,0,0,0-1.336.655,9,9,0,0,0-1.188.957,12.778,12.778,0,0,0-1.87,2.273,16.338,16.338,0,0,0-1.587,3.255,25.332,25.332,0,0,0-1.339,6,35.371,35.371,0,0,0-.307,6.75,16.974,16.974,0,0,0,1.263,5.589,43.636,43.636,0,0,1-5.158,4.841,32.93,32.93,0,0,1-6.185,3.59,27.618,27.618,0,0,1-5.56,1.743,17.712,17.712,0,0,1-3.528.016,14.807,14.807,0,0,1-2.571-.7,14.4,14.4,0,0,1-2.171-1.239,13.691,13.691,0,0,1-1.712-1.742c-.207-.288-.4-.579-.6-.878.463-.655.913-1.32,1.353-1.987a46.9,46.9,0,0,0,3.152-5.652,24.117,24.117,0,0,0,1.945-5.94,18.324,18.324,0,0,0,.3-3.184,12.231,12.231,0,0,0-.595-3.6,12.6,12.6,0,0,0-.548-1.346,4.313,4.313,0,0,0-.518-.879,4.938,4.938,0,0,0-.847-.924,3.371,3.371,0,0,0-1.324-.749,7.276,7.276,0,0,0-1.333-.147,4.7,4.7,0,0,0-1.329.245,6.411,6.411,0,0,0-2.716,1.969,16.669,16.669,0,0,0-2.891,5.3,27.426,27.426,0,0,0-1.468,6.688,23.528,23.528,0,0,0,.177,6.428,21.426,21.426,0,0,0,.692,3,35.67,35.67,0,0,1-4.856,4.748,25.152,25.152,0,0,1-4.578,2.684,19.91,19.91,0,0,1-3.89,1.088,18.692,18.692,0,0,1-3.985,0,16.115,16.115,0,0,1-3.007-.829,16.685,16.685,0,0,1-2.63-1.54,17.29,17.29,0,0,1-2.213-2.216,19.1,19.1,0,0,1-1.954-3.467q-.285-.717-.526-1.446.474-.622.933-1.256a51.4,51.4,0,0,0,3.276-5.207,22.4,22.4,0,0,0,2.389-6.229,16.3,16.3,0,0,0,.286-3.018,19.044,19.044,0,0,0-.3-3.216,10.008,10.008,0,0,0-.355-1.5,9.326,9.326,0,0,0-.595-1.363l-.4-.511a2.6,2.6,0,0,0-.76-.684,4.807,4.807,0,0,0-1.648-.607,4.577,4.577,0,0,0-1.413-.051,5.8,5.8,0,0,0-1.431.33,7.248,7.248,0,0,0-1.287.633,7.789,7.789,0,0,0-1.189.975c-.105.116-.208.23-.312.347q-.338.431-.674.868c-.262.381-.5.761-.726,1.165a11.7,11.7,0,0,0-.635,1.416c-.227.577-.423,1.157-.6,1.75a27.081,27.081,0,0,0-.995,6.19,31.75,31.75,0,0,0,.537,6.755q.119.728.268,1.45a36.417,36.417,0,0,1-4.738,4.673,32.211,32.211,0,0,1-6.213,3.617c-.831.33-1.669.627-2.526.889a23.287,23.287,0,0,1-3.141.692,18.171,18.171,0,0,1-3.621.074,14.9,14.9,0,0,1-2.692-.8,22.815,22.815,0,0,1-3.866-2.241,21.823,21.823,0,0,1-3.181-3.165l-.137-.194a48.279,48.279,0,0,0,2.806-4.741,53.6,53.6,0,0,0,2.511-5.664,16.385,16.385,0,0,0,.817-3,13.237,13.237,0,0,0,.172-1.657,11.2,11.2,0,0,0-.191-2.062,10.614,10.614,0,0,0-1-2.756,6.9,6.9,0,0,0-.788-1.262,8.84,8.84,0,0,0-1.03-1.169,4.563,4.563,0,0,0-2.849-1.393,8.181,8.181,0,0,0-1.49.137,4.258,4.258,0,0,0-.845.293,6.35,6.35,0,0,0-.969.447,8.3,8.3,0,0,0-1.211.9,6.346,6.346,0,0,0-.931.987,12.679,12.679,0,0,0-.889,1.235,8.908,8.908,0,0,0-.669,1.417,22.639,22.639,0,0,0-1.369,6.424,26.81,26.81,0,0,0,.29,6.364,20.3,20.3,0,0,0,1.405,4.874c-.791.989-1.609,1.956-2.466,2.891a26.466,26.466,0,0,1-2.936,2.728,25.766,25.766,0,0,1-4.721,2.775,19.566,19.566,0,0,1-3.9,1.043,12.367,12.367,0,0,1-2.173.015,13.536,13.536,0,0,1-2.119-.592,11.468,11.468,0,0,1-1.638-.938,13.324,13.324,0,0,1-1.477-1.5,12.76,12.76,0,0,1-1.12-1.906q-.111-.289-.212-.58.6-.683,1.175-1.393c.7-.859,1.36-1.747,1.983-2.659.651-.953,1.226-1.958,1.791-2.963,1.466-2.612,2.65-5.361,3.853-8.1.475-1.082.94-2.167,1.374-3.268a9.841,9.841,0,0,0,.773-2.932,5.038,5.038,0,0,0-1.008-3.326c-.154-.2-.31-.4-.463-.6a5.481,5.481,0,0,0-.879-.73,5.2,5.2,0,0,0-1.329-.654,6.023,6.023,0,0,0-1.479-.279,6.65,6.65,0,0,0-1.582.117,8.248,8.248,0,0,0-2.853,1.117,12.059,12.059,0,0,0-1.282.983,11.405,11.405,0,0,0-1.277,1.3,19.451,19.451,0,0,0-3.315,4.953,19.686,19.686,0,0,0-1.022,2.921,29.447,29.447,0,0,0-.615,3.3,36.47,36.47,0,0,0-.389,6.31,29.518,29.518,0,0,0,.242,3.1,42.123,42.123,0,0,1-3.3,2.928,32.873,32.873,0,0,1-6.1,3.641,24.843,24.843,0,0,1-4.68,1.373,16.2,16.2,0,0,1-3.042-.017,14.445,14.445,0,0,1-2.228-.586,14.546,14.546,0,0,1-2.219-1.315q-.371-.317-.719-.653a35.866,35.866,0,0,0,4.023-4.62,26.145,26.145,0,0,0,3.341-5.836,21.365,21.365,0,0,0,.959-2.9,20.837,20.837,0,0,0,.506-3.391,12.543,12.543,0,0,0-.281-3.364,8.375,8.375,0,0,0-.433-1.386,10.927,10.927,0,0,0-1.026-2.06,11.88,11.88,0,0,0-1.071-1.358,6.136,6.136,0,0,0-1.276-1.08,6.626,6.626,0,0,0-2.615-.968,10.845,10.845,0,0,0-1.68-.137,11.417,11.417,0,0,0-1.754.228c-.144.036-.287.075-.433.115q-.593.225-1.174.481a9.884,9.884,0,0,0-1.825,1.25,12.037,12.037,0,0,0-1.024.988,15.559,15.559,0,0,0-1.075,1.388,13.417,13.417,0,0,0-1.463,2.891,23.286,23.286,0,0,0-.946,2.8,27.888,27.888,0,0,0-.657,3.922,25.992,25.992,0,0,0,.612,9.668,16.4,16.4,0,0,0,.875,2.472,32.049,32.049,0,0,1-4.434,2.44,23.105,23.105,0,0,1-4.788,1.3,17.837,17.837,0,0,1-3.383.043,18.365,18.365,0,0,1-3.684-1.034,19.3,19.3,0,0,1-3.2-1.885,20.353,20.353,0,0,1-2.878-2.879,23.313,23.313,0,0,1-2.368-4.059q-.3-.761-.551-1.535A75.646,75.646,0,0,0,86.1,119.4q1.18-1.018,2.311-2.093c.746-.707,1.448-1.457,2.168-2.191a14.916,14.916,0,0,0,1.823-2.068,10.446,10.446,0,0,0,1.351-2.892,6.644,6.644,0,0,0,.109-2.708,8.576,8.576,0,0,0-.769-2.671,9.819,9.819,0,0,0-3.919-4.213,8.735,8.735,0,0,0-1.412-.636,8.537,8.537,0,0,0-1.373-.369,9.321,9.321,0,0,0-3.018.005,9.713,9.713,0,0,0-2.739.806,13.823,13.823,0,0,0-2.9,1.834,22.058,22.058,0,0,0-6.584,10.284,23.5,23.5,0,0,0-1.029,6.187,27.937,27.937,0,0,0,.58,6.795q.133.691.314,1.368a68.8,68.8,0,0,1-7.759,3.925c-.933.377-1.873.717-2.836,1.01a25.469,25.469,0,0,1-2.585.709,5.567,5.567,0,0,1-.926.006l-.111-.038-.023-.014a2.746,2.746,0,0,1,.337-.333c.428-.307.851-.616,1.269-.934a.891.891,0,0,0,.313-1.193.872.872,0,0,0-1.193-.314c-.482.363-1.01.685-1.467,1.074a3.323,3.323,0,0,0-.642.621c-.235.263-.432.573-.644.855a.88.88,0,0,0,.14,1.084c.249.2.484.415.742.6l.286.207c.176.077.352.153.527.226a8.527,8.527,0,0,0,1.106.115,6.893,6.893,0,0,0,1.158-.126A11.967,11.967,0,0,0,60.072,134c.463-.121.925-.245,1.387-.37a30.562,30.562,0,0,0,3.417-1.2A67.043,67.043,0,0,0,71.763,129.186Zm239.58-16.9a19.146,19.146,0,0,1,1.035-3.742,12.113,12.113,0,0,1,.9-1.589c.119-.137.241-.27.371-.4.043-.012.085-.024.128-.033s.08,0,.121,0c.1.024.2.05.295.08l.033.019a15.828,15.828,0,0,1,1.354,1.381,13.95,13.95,0,0,1,1.036,1.685c.074.213.137.424.191.646.008.154.01.307.006.463a8.89,8.89,0,0,1-.383,1.208,41.861,41.861,0,0,1-2.089,3.866c-.734,1.21-1.46,2.432-2.24,3.616a18.7,18.7,0,0,1-.736-2.936A21.218,21.218,0,0,1,311.344,112.291Zm-14.073-8.651-.047-.06v-.011Zm-.21-.287,0,.009c.055.065.106.133.155.2v.011l-.145-.189.01.024-.011-.024-.094-.122q.043.047.084.1Zm-3.916,7.464a22.68,22.68,0,0,1,1.183-4.828,12.852,12.852,0,0,1,.922-1.614,8.014,8.014,0,0,1,.726-.752c.193-.131.388-.25.594-.362.09-.028.181-.053.273-.073h.062l.025.025c.087.14.167.283.241.431.028.083.053.166.075.251.012.2.013.4.005.607a14.022,14.022,0,0,1-.737,2.193c-.63,1.451-1.278,2.9-1.953,4.325-.486,1.032-1,2.045-1.547,3.046q-.021-.457-.025-.916A18.619,18.619,0,0,1,293.145,110.816Zm-24.471.6a24.846,24.846,0,0,1,1.233-5.251,13.447,13.447,0,0,1,1.272-2.255,12.393,12.393,0,0,1,.964-1.008c.1-.068.2-.132.31-.193.038.066.073.133.108.2a9.6,9.6,0,0,1,.361,1.441,13.881,13.881,0,0,1,.006,2.388,34.874,34.874,0,0,1-2.23,7.5,31.657,31.657,0,0,1-1.616,3.189q-.246.423-.508.836A30.7,30.7,0,0,1,268.674,111.417Zm-30.136-1.789h0l-.073.057Zm-3.256,8.438c.136-.9.309-1.78.522-2.663a21.859,21.859,0,0,1,.989-2.983,13.389,13.389,0,0,1,1.157-2.1c.194-.229.394-.446.608-.655l.023.046a11.421,11.421,0,0,1,.444,1.728,13.831,13.831,0,0,1-.042,2.107,21.1,21.1,0,0,1-1.227,4.319,44.845,44.845,0,0,1-2.577,4.743c-.041-.543-.065-1.087-.075-1.634A22.422,22.422,0,0,1,235.281,118.066ZM204.94,108.65h0l-.025,0Zm-2.826,6.909a22.548,22.548,0,0,1,1.162-4.549,11.069,11.069,0,0,1,.851-1.486c.18-.208.366-.4.565-.6.09-.058.181-.114.273-.166.031.153.059.308.085.462a17.328,17.328,0,0,1,.046,3.5,16.556,16.556,0,0,1-.918,3.15,33.179,33.179,0,0,1-2.15,3.935l-.016.026c-.021-.319-.04-.64-.051-.961A21.758,21.758,0,0,1,202.114,115.559Zm-37.168.735a19.3,19.3,0,0,1,.919-3.814,9.277,9.277,0,0,1,.622-1.073,8.256,8.256,0,0,1,.767-.77c.1-.063.2-.122.3-.178l.1-.032c.1.1.2.206.3.315a9.222,9.222,0,0,1,.519.9,10.236,10.236,0,0,1,.436,1.415,9.636,9.636,0,0,1,0,1.232,17.154,17.154,0,0,1-1.024,3.325,57.4,57.4,0,0,1-2.673,5.361l-.033.057c-.088-.428-.16-.859-.224-1.29A25.807,25.807,0,0,1,164.946,116.295Zm-21.036-5.006c.018.043.035.087.053.132l-.056-.132Zm-.23-.325-.005,0v-.005l.005,0Zm.015-.449v.005l-.03-.225A1.721,1.721,0,0,1,143.695,110.515Zm-.118.364v0l-.075-.058Zm-5.647,10.77a24.543,24.543,0,0,1,1.232-5.116,16.282,16.282,0,0,1,1.491-2.474,17.087,17.087,0,0,1,2.157-2.28c.187-.122.372-.233.564-.337-.063.167-.13.334-.2.5-.636,1.435-1.322,2.851-1.993,4.27-1.044,2.213-2.12,4.415-3.36,6.52Q137.869,122.194,137.93,121.65Zm-31.143.093c.106-.678.235-1.35.392-2.021a18.107,18.107,0,0,1,.77-2.38,13.094,13.094,0,0,1,1.018-1.825,10.668,10.668,0,0,1,.823-.839c.152-.1.305-.2.465-.292.121-.036.241-.069.364-.1.236-.011.467-.01.7,0,.051.013.1.026.153.041.156.149.3.305.448.468.165.26.315.521.456.794a10.024,10.024,0,0,1,.369,1.351,13.732,13.732,0,0,1-.04,2.014,19.447,19.447,0,0,1-.995,3.632,28.143,28.143,0,0,1-3.1,5.137q-.733.915-1.526,1.768c-.149-.582-.272-1.171-.375-1.768A28.211,28.211,0,0,1,106.788,121.743Zm-31.3-5.274c.116-.724.259-1.435.444-2.147a19.068,19.068,0,0,1,.822-2.411,24.519,24.519,0,0,1,2.4-4.224,15.584,15.584,0,0,1,2.123-2.139,12.08,12.08,0,0,1,1.8-1.064,10.145,10.145,0,0,1,1.375-.375,8.658,8.658,0,0,1,1.385-.014,9.828,9.828,0,0,1,1.013.29,8.731,8.731,0,0,1,1.258.726,10.538,10.538,0,0,1,.93.939,8.491,8.491,0,0,1,.706,1.2,9.134,9.134,0,0,1,.32,1.238,6.96,6.96,0,0,1-.005.833,8.988,8.988,0,0,1-.373,1.229,9.339,9.339,0,0,1-.787,1.308,58.355,58.355,0,0,1-9.422,9.257q-1.814,1.391-3.7,2.688-.154-.719-.27-1.449A26.1,26.1,0,0,1,75.49,116.469Z" transform="translate(0)" fill="#e52441"/>
  </g>
</svg>
