<svg xmlns="http://www.w3.org/2000/svg" width="280.761" height="59.329" viewBox="0 0 280.761 59.329">
  <path id="Trazado_2864" data-name="Trazado 2864" d="M16.621,29.286c1.154-.141,2.317-.337,3.471-.421l3.227-.242c5.892-.44,11.784-.953,17.67-1.235,6.155-.3,12.316-.663,18.468-.869,6.278-.209,12.555-.433,18.828-.589q18.343-.449,36.686-.949,18.22-.5,36.448-1.14c6.032-.222,12.072-.579,18.108-.9,5.926-.316,11.853-.726,17.784-1.173,1.3-.1,2.608-.253,3.912-.381,1.288-.129,2.578-.239,3.867-.394,3.306-.4,6.61-.82,9.917-1.276,5.756-.8,11.506-1.8,17.264-2.492,6.033-.726,12.067-1.218,18.1-1.843,2.723-.281,5.464-.613,8.181-1.133,3.106-.592,6.191-1.287,9.275-2.13,2.982-.815,5.963-1.651,8.947-2.454,1.432-.387,2.869-.742,4.309-1.03,1.631-.326,3.247-.66,4.864-1.119.777-.223.994-1.444,1.037-2.227a4.443,4.443,0,0,0-.107-1.291c-.094-.349-.3-.9-.692-.876-2.884.2-5.766.407-8.649.655q-4.364.374-8.728.575c-5.644.263-11.281.2-16.9.1.969-.185,1.937-.366,2.906-.55,3.479-.663,6.956-1.468,10.443-1.95,1.856-.257,3.716-.481,5.569-.8.94-.158,1.874-.335,2.808-.584,1-.267,2-.622,2.989-.977a1.008,1.008,0,0,0,.74-.576,4.254,4.254,0,0,0,.56-1.717c1.006-.389,1.3-2.126,1.354-3.167a6.333,6.333,0,0,0-.154-1.869c-.142-.528-.428-1.276-1-1.266-2.992.051-5.968-.1-8.96-.051q-.526.009-1.055.025c-2.576.079-5.155.292-7.737.535q-8.628.813-17.262,1.827c-2.673.309-5.347.66-8.022.933-3.271.333-6.532.612-9.8.863-5.47.419-10.94.683-16.406.968-6.268.33-12.533.717-18.807,1.258-5.811.5-11.622,1.11-17.433,1.7q-8.752.884-17.506,1.77c-5.98.609-11.959,1.109-17.94,1.609-3.025.254-6.049.395-9.073.589-2.863.184-5.723.3-8.585.434-5.632.27-11.261.5-16.893.743-11.358.484-22.717,1.051-34.08,1.622q-9.363.473-18.726.971c-3.185.169-6.374.417-9.558.623-2.723.176-5.452.478-8.178.727q-4.353.4-8.707.835-2.588.256-5.182.517c-.749.076-1.5.15-2.252.226-.684.068-1.369.15-2.051.232a13.879,13.879,0,0,0-1.453.268,10.14,10.14,0,0,0-1.6.642,2.559,2.559,0,0,0-.694,1.127,6.584,6.584,0,0,0-.347,1.831,6.153,6.153,0,0,0,.15,1.819L.2,16.3a.87.87,0,0,0,.729.574,13.474,13.474,0,0,0,1.754.466,1.085,1.085,0,0,0,.791-.617,2.9,2.9,0,0,0,.194-.348c.318-.021.637-.03.956-.04s.609-.019.916-.038q1.034-.059,2.065-.121l5.318-.311c1.921-.115,3.84-.213,5.76-.311l-.6.076c-4.552.56-9.1,1.121-13.652,1.741a2.4,2.4,0,0,0-1.744,1.359,9.233,9.233,0,0,0-1.206,3.346q-1.192.022-2.386.047c-.557.011-.73,1.173-.754,1.619s.025,1.585.581,1.575c.762-.015,1.524-.022,2.285-.033a13.186,13.186,0,0,0,.356,2.938q.267.724.533,1.448a1.92,1.92,0,0,0,1.6,1.257C8.009,30.337,12.315,29.809,16.621,29.286Z" transform="matrix(0.998, 0.07, -0.07, 0.998, 3.812, 9.16)" fill="#fff"/>
</svg>
