<svg xmlns="http://www.w3.org/2000/svg" width="694.824" height="65.537" viewBox="0 0 694.824 65.537" class="video-streaming__title-highlight video-streaming__title-highlight--desktop">
    <g transform="matrix(1, 0.017, -0.017, 1, -2013.397, -347.206)">
        <path d="M497.5,516.512c2.841-.159,5.7-.4,8.55-.478q3.987-.107,7.969-.218c14.549-.394,29.093-.9,43.65-1.052,15.223-.163,30.451-.434,45.677-.461,15.539-.028,31.073-.075,46.608-.02q45.425.167,90.84.26,45.113.082,90.226-.04c14.927-.057,29.857-.318,44.779-.527,14.655-.205,29.294-.551,43.941-.954,3.219-.09,6.433-.264,9.649-.4,3.176-.136,6.361-.243,9.534-.419q12.219-.681,24.421-1.473c14.166-.941,28.29-2.193,42.475-2.974,14.862-.82,29.757-1.287,44.634-1.953,6.716-.3,13.467-.675,20.135-1.338,7.623-.752,15.178-1.662,22.716-2.8,7.285-1.1,14.564-2.224,21.856-3.3,3.5-.52,7.014-.99,10.546-1.36,4-.419,7.961-.849,11.909-1.47,1.9-.3,2.272-2.14,2.272-3.324a4.452,4.452,0,0,0-.438-1.96,2.174,2.174,0,0,0-1.834-1.358c-7.122.172-14.241.35-21.358.591q-10.772.365-21.566.467c-13.961.137-27.949-.212-41.9-.633q3.566-.352,7.131-.7c8.537-.842,17.052-1.9,25.634-2.469,4.567-.3,9.148-.556,13.7-.946,2.309-.2,4.6-.421,6.883-.754,2.453-.359,4.87-.849,7.28-1.342a2.372,2.372,0,0,0,1.759-.838,4.4,4.4,0,0,0,1.157-2.573c2.443-.544,2.934-3.159,2.934-4.733a6.319,6.319,0,0,0-.634-2.837,3.159,3.159,0,0,0-2.65-1.962c-7.413-.062-14.812-.425-22.225-.492-.869-.007-1.741-.011-2.61-.011-6.378,0-12.743.2-19.114.452q-21.287.832-42.56,1.968c-6.588.344-13.171.752-19.767,1.042-8.067.353-16.115.624-24.189.853-13.507.381-27.036.529-40.551.708-15.5.209-30.98.505-46.466,1.034-14.341.491-28.67,1.144-43,1.768q-21.584.934-43.171,1.871c-14.747.646-29.507,1.126-44.269,1.605-7.468.245-14.947.318-22.42.472-7.074.146-14.153.185-21.23.26q-20.892.222-41.789.344-42.152.31-84.289.879-23.154.283-46.3.6c-7.873.108-15.749.335-23.617.5-6.729.141-13.455.472-20.181.723q-10.739.4-21.478.862-6.384.269-12.778.544-2.773.121-5.556.238c-1.686.071-3.374.163-5.055.256-1.2.066-2.382.192-3.567.339a33.123,33.123,0,0,0-3.883.9,3.576,3.576,0,0,0-1.57,1.675,6.483,6.483,0,0,0,0,5.517l.691,1.01a2.563,2.563,0,0,0,1.887.9c1.463.3,2.908.6,4.411.785a2.551,2.551,0,0,0,1.879-.9,3.7,3.7,0,0,0,.433-.518c.786-.016,1.576-.015,2.365-.015.754,0,1.508,0,2.267-.016q2.555-.041,5.1-.088,6.572-.113,13.144-.225,7.124-.126,14.241-.2-.736.047-1.471.09c-11.212.637-22.417,1.276-33.62,2a5.652,5.652,0,0,0-4.141,1.977A9.833,9.833,0,0,0,459,504.889q-2.954-.022-5.91-.04c-1.38-.009-1.653,1.743-1.653,2.416s.273,2.4,1.653,2.412c1.887.013,3.775.037,5.661.055a13.7,13.7,0,0,0,1.275,4.466q.759,1.109,1.515,2.216a5.651,5.651,0,0,0,4.141,1.977C476.28,517.705,486.886,517.105,497.5,516.512Z" transform="translate(1568.567 -157.663)" fill="#fff"/>
        <path d="M46.062,46.849c2.841-.159,5.7-.4,8.55-.478q3.987-.107,7.968-.218c14.549-.394,29.093-.9,43.65-1.052,15.223-.163,30.451-.434,45.677-.461,15.539-.027,31.072-.075,46.608-.02q45.425.167,90.84.26,45.113.082,90.226-.04c14.927-.057,29.857-.319,44.78-.527,14.654-.205,29.294-.551,43.941-.954,3.219-.09,6.433-.264,9.649-.4,3.176-.136,6.36-.243,9.534-.419q12.22-.681,24.421-1.473c14.166-.941,28.289-2.193,42.475-2.974,14.862-.82,29.757-1.287,44.634-1.953,6.716-.3,13.467-.675,20.135-1.338,7.623-.752,15.178-1.662,22.715-2.8,7.285-1.1,14.564-2.224,21.857-3.3,3.5-.52,7.014-.99,10.546-1.36,4-.419,7.961-.849,11.909-1.47,1.9-.3,2.272-2.14,2.272-3.324a4.449,4.449,0,0,0-.439-1.96,2.174,2.174,0,0,0-1.834-1.358c-7.122.172-14.241.35-21.358.591q-10.773.365-21.566.467c-13.961.137-27.948-.212-41.9-.633q3.566-.351,7.132-.7c8.537-.842,17.052-1.9,25.634-2.469,4.567-.3,9.148-.556,13.7-.946,2.31-.2,4.6-.421,6.884-.754,2.452-.359,4.87-.849,7.279-1.342a2.37,2.37,0,0,0,1.759-.838,4.406,4.406,0,0,0,1.157-2.573c2.442-.544,2.933-3.159,2.933-4.733a6.319,6.319,0,0,0-.634-2.837A3.16,3.16,0,0,0,664.555.5C657.143.441,649.743.079,642.331.011Q641.027,0,639.72,0c-6.378,0-12.743.2-19.113.452q-21.286.832-42.56,1.968c-6.588.344-13.171.752-19.767,1.042-8.066.353-16.115.624-24.188.853-13.507.381-27.037.529-40.551.708-15.5.209-30.979.505-46.465,1.034-14.341.491-28.67,1.144-43,1.768Q382.49,8.758,360.9,9.7c-14.747.646-29.507,1.126-44.269,1.605-7.467.245-14.947.318-22.42.472-7.074.146-14.153.185-21.23.26q-20.892.222-41.789.344-42.152.31-84.289.879-23.154.283-46.3.6c-7.873.108-15.749.335-23.617.5-6.729.141-13.455.472-20.181.723q-10.739.4-21.478.862-6.384.269-12.778.544-2.773.121-5.556.238c-1.686.071-3.374.163-5.055.256-1.2.066-2.382.192-3.567.339a33.123,33.123,0,0,0-3.883.9,3.575,3.575,0,0,0-1.571,1.675,6.483,6.483,0,0,0,0,5.517l.691,1.01a2.562,2.562,0,0,0,1.886.9c1.463.3,2.908.6,4.411.785a2.549,2.549,0,0,0,1.879-.9,3.713,3.713,0,0,0,.433-.518c.787-.016,1.576-.015,2.365-.015.754,0,1.508,0,2.267-.016q2.555-.041,5.1-.088,6.572-.113,13.144-.225,7.124-.126,14.241-.2-.736.047-1.47.09c-11.212.637-22.417,1.276-33.62,2a5.651,5.651,0,0,0-4.141,1.977,9.832,9.832,0,0,0-2.543,5.011q-2.954-.022-5.909-.04C.273,35.177,0,36.929,0,37.6S.273,40,1.653,40.015c1.886.013,3.775.037,5.661.055A13.707,13.707,0,0,0,8.59,44.536q.759,1.109,1.515,2.216a5.651,5.651,0,0,0,4.141,1.977C24.847,48.042,35.454,47.442,46.062,46.849Z" transform="translate(2714.162 365.43) rotate(180)" fill="#fff"/>
    </g>
</svg>