<svg xmlns="http://www.w3.org/2000/svg" width="153.6" height="10.079" viewBox="0 0 153.6 10.079">
  <path id="Trazado_9074" data-name="Trazado 9074" d="M219.57,645.649c-3.356-.267-6.716-.457-10.074-.687-1.108-.075-2.219-.08-3.328-.119l-7.215-.251c-1.34-.047-2.68-.1-4.019-.14-.388-.01-.776-.014-1.165-.014-.872,0-1.745.018-2.617.019l-11.9.019c-.944,0-1.889.032-2.832.05l-7.015.124c-2.638.048-5.277.066-7.915.155l-12.806.432c-2.471.083-4.945.13-7.415.264q-6.385.345-12.77.687c-2.326.124-4.654.228-6.978.4q-6.6.5-13.2,1c-2.352.179-4.706.311-7.053.584q-6.573.76-13.147,1.523l-2.842.329c-1.892.219-3.778.56-5.664.849l-.355.066a1.309,1.309,0,0,0-.589.467,2.3,2.3,0,0,0,0,2.567,1.141,1.141,0,0,0,.944.532c2.277-.348,4.55-.719,6.833-.982q3.172-.368,6.345-.732l6.925-.8c.929-.107,1.861-.249,2.793-.319q5.4-.408,10.8-.808l6.73-.505c.927-.07,1.854-.156,2.781-.207,3.567-.194,7.134-.372,10.7-.557l6.485-.337c.726-.038,1.453-.086,2.18-.109q5.777-.183,11.553-.359l6.452-.2c.766-.023,1.531-.059,2.3-.069l11.915-.166c2.478-.035,4.954-.067,7.432-.059l12.653.041c.832,0,1.663.049,2.5.082l6.983.279q2.619.107,5.239.209c1.238.05,2.477.176,3.714.266,3.644.268,7.287.544,10.93.853.925.08,1.849.174,2.774.266.991.1,1.985.193,2.972.345.154.034.307.074.461.119a1.163,1.163,0,0,0,1.113-.2,2.012,2.012,0,0,0,.664-1.176,2.146,2.146,0,0,0-1.009-2.418,9.267,9.267,0,0,0-2.038-.443q-.7-.1-1.405-.193c-.9-.123-1.809-.186-2.711-.279C222.964,645.884,221.266,645.783,219.57,645.649Z" transform="translate(-78.272 -644.439)" fill="#e52441"/>
</svg>
