<svg xmlns="http://www.w3.org/2000/svg" width="298.473" height="30.142" viewBox="0 0 298.473 30.142">
  <path id="Trazado_2401" data-name="Trazado 2401" d="M362.45,293.369a10.073,10.073,0,0,1-.975-.55,13.623,13.623,0,0,1-1.467-1.534c-.612-.833-1.16-1.7-1.692-2.587-.689-1.155-1.336-2.322-2.1-3.427-.3-.428-.588-.862-.925-1.264a6,6,0,0,0-1.447-1.239,4.456,4.456,0,0,0-2.107-.5,5.967,5.967,0,0,0-1.061.176,2.663,2.663,0,0,0-1.168.68,6.916,6.916,0,0,0-1.623,2.773c-.232.571-.448,1.148-.673,1.721-.351.906-.724,1.8-1.1,2.7s-.81,1.769-1.242,2.643a13.664,13.664,0,0,1-1.252,2.012,8.909,8.909,0,0,1-.818.86l-.091.054c-.168.052-.336.1-.508.134-.042,0-.085,0-.128,0s-.08-.021-.121-.033a8.327,8.327,0,0,1-.726-.442c-.2-.19-.386-.383-.564-.588a11.777,11.777,0,0,1-.735-1.229c-.452-1.192-.8-2.434-1.181-3.648a27.819,27.819,0,0,0-1.907-4.936,4.874,4.874,0,0,0-1.954-2.179,3.138,3.138,0,0,0-2.262-.243c-.311.129-.62.26-.928.4-.26.2-.519.395-.776.6a4.514,4.514,0,0,0-.969,1.759c-.1.3-.161.6-.282.892l-.376.9c-.519,1.083-1.035,2.16-1.6,3.217-.323.607-.648,1.216-.973,1.822-.394.738-.83,1.459-1.262,2.175a21,21,0,0,1-1.361,1.955,13.658,13.658,0,0,1-1.7,1.841c-.235.149-.472.284-.718.41-.2.067-.4.124-.609.171h-.029c-.088-.048-.175-.1-.261-.155l-.028-.028a15.044,15.044,0,0,1-1.094-2.135c-.8-1.94-1.527-3.909-2.3-5.857-.369-.928-.8-1.825-1.229-2.727a9.481,9.481,0,0,0-1.468-2.361,6.834,6.834,0,0,0-1.055-.949,3.6,3.6,0,0,0-1.265-.676,3.379,3.379,0,0,0-1.59-.074,3.839,3.839,0,0,0-1.578.833,9.193,9.193,0,0,0-2.064,3.31c-.344.711-.706,1.41-1.068,2.11-.335.645-.7,1.272-1.062,1.9a34.185,34.185,0,0,1-2.406,3.732c-.33.419-.668.831-1.022,1.231a9.81,9.81,0,0,1-1.186,1.1,11.964,11.964,0,0,1-1.544.967c-.19.061-.377.114-.57.156-.235.006-.465,0-.7-.017-.133-.029-.264-.065-.395-.106l-.026-.015a6.772,6.772,0,0,1-.475-.5c-.2-.276-.39-.553-.577-.839a13.345,13.345,0,0,1-.873-1.746c-.182-.4-.355-.793-.527-1.195-.445-1.043-.886-2.089-1.335-3.131-.287-.683-.572-1.363-.872-2.038a23.379,23.379,0,0,0-1.472-2.678,9.838,9.838,0,0,0-1.58-1.941,9.047,9.047,0,0,0-1.113-.837,5.818,5.818,0,0,0-1.274-.564l-.958-.129a3.271,3.271,0,0,0-1.47.385,8.674,8.674,0,0,0-1.073.76l-.228.252a6.1,6.1,0,0,0-.548.751c-.385.587-.753,1.19-1.1,1.8-.653,1.144-1.294,2.3-2,3.412l-1.351,2.135q-.72,1.134-1.461,2.251c-.484.729-1.017,1.424-1.551,2.118-.358.454-.725.895-1.113,1.325a9.556,9.556,0,0,1-1.117,1.03,12.864,12.864,0,0,1-1.79,1.09,8.16,8.16,0,0,1-.893.251,8.724,8.724,0,0,1-1.232-.007,7.427,7.427,0,0,1-.779-.219,8.511,8.511,0,0,1-.721-.453,12.385,12.385,0,0,1-1.06-1.036c-.469-.676-.861-1.391-1.267-2.109-.494-.881-.914-1.8-1.344-2.713s-.876-1.808-1.311-2.716a15.936,15.936,0,0,0-1.862-2.96,12.889,12.889,0,0,0-.97-1.108,9.675,9.675,0,0,0-1.152-.909,5.649,5.649,0,0,0-1.306-.689,2.888,2.888,0,0,0-.859-.265,4.829,4.829,0,0,0-.924-.086c-.133.017-.265.033-.4.052a3.779,3.779,0,0,0-2.166.879,11.37,11.37,0,0,0-1.8,2.76c-.755,1.376-1.6,2.705-2.412,4.045-.49.8-1.012,1.588-1.516,2.382-.762,1.195-1.544,2.378-2.388,3.515a19.333,19.333,0,0,1-2.6,2.773,8.6,8.6,0,0,1-.83.48,6.17,6.17,0,0,1-.7.187c-.064,0-.126,0-.19,0s-.129-.031-.193-.05l-.032-.021c-.2-.192-.385-.389-.567-.6a44.678,44.678,0,0,1-3.083-5.48c-.684-1.343-1.335-2.7-2.094-4.007-.458-.786-.9-1.576-1.427-2.318a9.7,9.7,0,0,0-2.243-2.18c-.118-.06-.238-.119-.355-.177a1.6,1.6,0,0,0-.772-.234c-.163-.023-.326-.045-.49-.067a1.844,1.844,0,0,0-.931.252,3.714,3.714,0,0,0-1.732,2.113c-.3.841-.592,1.683-.9,2.52-.7,1.89-1.432,3.767-2.205,5.629-.317.723-.66,1.432-1,2.146a14.734,14.734,0,0,1-1.3,2.292,12.961,12.961,0,0,1-1.075,1.14c-.077.052-.157.1-.24.147l-.011,0h-.22a5.388,5.388,0,0,1-.641-.172c-.045-.025-.089-.051-.133-.079a13.341,13.341,0,0,1-1.194-1.305,39.259,39.259,0,0,1-2.527-4.271q-.607-1.131-1.2-2.269c-.441-.841-.938-1.652-1.433-2.462a9.806,9.806,0,0,0-2.935-3.169,3.583,3.583,0,0,0-.763-.282,2.4,2.4,0,0,0-1.336.1c-.144.062-.29.123-.435.185-.24.171-.477.348-.709.532a3.443,3.443,0,0,0-.695,1.175c-.619,1.556-1.157,3.14-1.711,4.72-.649,1.846-1.326,3.7-2.056,5.514-.185.437-.371.875-.555,1.312.048-.113.095-.226.143-.34-.259.607-.53,1.2-.833,1.788a8.861,8.861,0,0,1-.789,1.206,8.306,8.306,0,0,1-.75.771c-.075.046-.151.09-.229.131a3.24,3.24,0,0,1-.324.089l-.137,0-.039-.01c-.064-.036-.127-.074-.19-.114l-.049-.048a35.7,35.7,0,0,1-2.187-4.517c-.515-1.33-1.03-2.659-1.509-4q-.458-1.28-.917-2.562c-.254-.709-.49-1.427-.79-2.117a7.65,7.65,0,0,0-.62-1.159,4.905,4.905,0,0,0-1.175-1.122,1.847,1.847,0,0,0-1.194-.494,1.748,1.748,0,0,0-1.457.837,7.726,7.726,0,0,0-.558.844c-.128.29-.245.585-.355.883-.146.378-.221.789-.347,1.173q-.266.817-.534,1.633c-.471,1.438-1,2.866-1.566,4.268a19.709,19.709,0,0,1-2.07,3.807,9.428,9.428,0,0,1-1,1.037,3.621,3.621,0,0,1-.338.193c-.068.022-.136.044-.205.062l-.006,0c-.055-.05-.106-.1-.156-.156a57.73,57.73,0,0,1-2.7-5.345c-.534-1.119-1.065-2.238-1.652-3.332a14.328,14.328,0,0,0-.794-1.25,12.253,12.253,0,0,0-.78-1.059,4.831,4.831,0,0,0-2.029-1.482,3.19,3.19,0,0,0-2.541,0c-.123.063-.245.124-.366.186a4.667,4.667,0,0,0-.711.606c-.091.119-.184.236-.274.356a2.2,2.2,0,0,0-.465.724,11.449,11.449,0,0,0-.554,1.634c-.1.32-.2.644-.308.96-.6,1.767-1.22,3.527-1.916,5.258a15.737,15.737,0,0,1-1.333,2.494,3.821,3.821,0,0,1-.294.291,5.081,5.081,0,0,1-.527.319l-.049.012h-.06a3.537,3.537,0,0,1-.432-.123c-.076-.038-.151-.08-.222-.125a7.509,7.509,0,0,1-.557-.606c-.422-.572-.825-1.149-1.2-1.759-.262-.432-.523-.862-.792-1.289q-.751-1.186-1.5-2.376A24.313,24.313,0,0,0,156,295.54a5.445,5.445,0,0,0-2.148-1.3,4.176,4.176,0,0,0-1.234-.151,2.666,2.666,0,0,0-1.3.332,7.718,7.718,0,0,0-.717.524,10.622,10.622,0,0,0-.812,1.1c-.06.13-.119.261-.18.393a4.64,4.64,0,0,0-.33.9c-.065.21-.124.419-.19.628-.236.762-.475,1.52-.709,2.282-.563,1.824-1.156,3.643-1.866,5.416a19.082,19.082,0,0,1-1.046,2.121c-.052-.108-.1-.218-.156-.327-.742-1.856-1.411-3.745-2.1-5.62q-1.074-2.9-2.3-5.746c-.212-.492-.441-.978-.676-1.459-.264-.538-.59-1.045-.888-1.564a3.553,3.553,0,0,0-1.928-1.79,2.508,2.508,0,0,0-1.275-.021c-.252.09-.5.193-.75.3a1.7,1.7,0,0,0-.608.608,3.545,3.545,0,0,0-.473,1.041c-.181.581-.306,1.182-.442,1.776-.183.8-.4,1.587-.627,2.374a47.16,47.16,0,0,1-1.506,4.639,15.1,15.1,0,0,1-1.4,2.678,9.853,9.853,0,0,1-.972,1.042c-.078.051-.158.1-.241.142-.071.022-.144.041-.216.057a2.873,2.873,0,0,1-.339,0l-.175-.041-.075-.045c-.251-.239-.486-.477-.714-.735-.573-.819-1.111-1.668-1.652-2.508-.337-.52-.669-1.04-1.005-1.562a17.5,17.5,0,0,0-1.469-2.1,4.956,4.956,0,0,0-2-1.706,2.167,2.167,0,0,0-.667-.137,4.1,4.1,0,0,0-.713.126,3,3,0,0,0-1.255.849,5.662,5.662,0,0,0-1.007,2.235c-.213.549-.423,1.1-.647,1.643a17.761,17.761,0,0,1-1.672,3.131,10.458,10.458,0,0,1-.988,1.063,7.006,7.006,0,0,1-.743.446,5.715,5.715,0,0,1-.765.219,3.941,3.941,0,0,1-.586-.007,3.57,3.57,0,0,1-.491-.128,3.042,3.042,0,0,1-.313-.185,5,5,0,0,1-.417-.4,15.957,15.957,0,0,1-.876-1.585q-.315-.609-.628-1.216-.368-.711-.733-1.419a12.417,12.417,0,0,0-.835-1.453,7.848,7.848,0,0,0-1.269-1.291,1.536,1.536,0,0,0-1.849-.239,4.233,4.233,0,0,0-1.316,1.145,9.361,9.361,0,0,0-.706,1.615c-.176.406-.354.813-.531,1.218a20.466,20.466,0,0,1-1.92,3.509,11.954,11.954,0,0,1-1.432,1.458,10.356,10.356,0,0,1-1.4.8,3.83,3.83,0,0,1-.54.147,4,4,0,0,1-.53,0,5.686,5.686,0,0,1-.8-.219l-.185-.112a7.787,7.787,0,0,1-.786-.818,17.888,17.888,0,0,1-1.032-1.882q-.422-.835-.84-1.669-.676-1.337-1.36-2.667a23.451,23.451,0,0,0-1.38-2.428c-.3-.445-.664-.859-1-1.273a5.351,5.351,0,0,0-1.153-1q-.33-.144-.666-.272a4.734,4.734,0,0,0-.711-.072,7.022,7.022,0,0,0-.744.118q-.351.131-.694.282a3.535,3.535,0,0,0-.586.409,5.67,5.67,0,0,0-.472.576c-.247.472-.435.963-.639,1.453.052-.122.1-.242.155-.364-.24.567-.465,1.138-.69,1.712l-.657,1.513a18.8,18.8,0,0,1-2.064,3.632,13.853,13.853,0,0,1-1.279,1.279,3.88,3.88,0,0,1-.393.234c-.171.059-.338.108-.511.149-.151-.213-.293-.432-.434-.658a6.5,6.5,0,0,1-.433-.906q-.266-.637-.533-1.274c-.16-.379-.34-.756-.471-1.148q-.53-1.581-1.059-3.161c-.095-.28-.162-.573-.241-.857q-.293-1.046-.585-2.093-.6-2.157-1.188-4.317a1.7,1.7,0,1,0-3.271.9c.65,2.4,1.321,4.791,1.99,7.184.236.846.558,1.674.837,2.507.3.907.674,1.776,1.045,2.66.254.6.511,1.2.78,1.789a6.656,6.656,0,0,0,.677,1.121,3.926,3.926,0,0,0,1.111,1.177l.292.166a1.765,1.765,0,0,0,.733.229,4.357,4.357,0,0,0,1.638-.085,5.393,5.393,0,0,0,1.53-.647c.251-.176.494-.359.734-.551a7.955,7.955,0,0,0,.735-.689A15.846,15.846,0,0,0,85.3,303.27c.5-1.273.975-2.551,1.447-3.834l.025-.05a10.947,10.947,0,0,1,.772.867,20.717,20.717,0,0,1,1.721,3.037q.55,1.114,1.1,2.229c.317.639.616,1.284.924,1.928.231.485.462.973.714,1.45a7.51,7.51,0,0,0,.761,1.047,5.931,5.931,0,0,0,.895.907,5.079,5.079,0,0,0,1.885.931,5.766,5.766,0,0,0,2.693.02,4.88,4.88,0,0,0,.867-.315,11.746,11.746,0,0,0,1.37-.7,9.666,9.666,0,0,0,2.206-1.964,16.333,16.333,0,0,0,2.665-4.7q.241-.582.48-1.163c.046-.112.088-.223.131-.335.316.558.586,1.142.871,1.718q.365.733.724,1.472a9.525,9.525,0,0,0,1.341,2.388,6.205,6.205,0,0,0,1.661,1.305A5.426,5.426,0,0,0,112.8,310a4.945,4.945,0,0,0,1.7-.284,6.015,6.015,0,0,0,1.854-1,9.643,9.643,0,0,0,2.535-3.186,23.958,23.958,0,0,0,1.416-3.3c.135-.381.268-.764.4-1.148.077-.218.143-.439.207-.66q.2.226.4.458c.635.889,1.187,1.835,1.755,2.769l1.139,1.885c.271.445.531.9.815,1.334a8.023,8.023,0,0,0,.766.941l.3.3c.211.173.426.344.645.51a5.074,5.074,0,0,0,1.078.436,4.691,4.691,0,0,0,1.2.1,4.43,4.43,0,0,0,1.155-.206,3.888,3.888,0,0,0,1.125-.6,7.963,7.963,0,0,0,1.829-1.911,13.846,13.846,0,0,0,1.38-2.541,34.87,34.87,0,0,0,1.569-4.35c.219-.746.443-1.489.641-2.241.113-.423.219-.848.327-1.273.267.516.51,1.043.741,1.578.8,1.954,1.521,3.944,2.2,5.944q.5,1.466.985,2.933.308.93.614,1.859c.2.592.454,1.165.7,1.737a4.313,4.313,0,0,0,1.047,1.447,3.146,3.146,0,0,0,1.188.72,2.971,2.971,0,0,0,.843.162,6.005,6.005,0,0,0,.858-.139,5.18,5.18,0,0,0,.813-.378c.243-.18.485-.365.724-.553a7.806,7.806,0,0,0,1.148-1.37,12.283,12.283,0,0,0,.852-1.64c.3-.62.564-1.26.825-1.9.291-.716.544-1.443.786-2.176.351-1.066.687-2.128,1-3.2.124-.429.249-.859.369-1.289.149-.523.274-1.063.439-1.584a14.064,14.064,0,0,1,1.39,1.5c1.191,1.648,2.259,3.4,3.306,5.14.271.451.532.9.811,1.347.236.375.519.727.78,1.085s.534.695.821,1.025a5.715,5.715,0,0,0,.994.8,5.617,5.617,0,0,0,1.227.541,5.784,5.784,0,0,0,1.354.236,3.648,3.648,0,0,0,1.3-.178l.47-.2a3.371,3.371,0,0,0,.753-.389,7.717,7.717,0,0,0,1.053-.84,6.7,6.7,0,0,0,.885-1.111,9.365,9.365,0,0,0,.682-1.252c.215-.431.419-.861.609-1.3.505-1.178.924-2.392,1.347-3.6.5-1.432.931-2.883,1.331-4.347a4.319,4.319,0,0,1,.377.393,17.979,17.979,0,0,1,1.368,2.139c.3.558.583,1.131.853,1.7.374.788.752,1.573,1.12,2.363.458.986.914,1.974,1.387,2.955a7.534,7.534,0,0,0,1.59,2.31,3.6,3.6,0,0,0,1.17.726,1.9,1.9,0,0,0,.867.21,2.732,2.732,0,0,0,.908-.051,5.24,5.24,0,0,0,2.456-1.131,12.1,12.1,0,0,0,2.143-2.484,17.075,17.075,0,0,0,1.371-2.645c.52-1.121.931-2.288,1.345-3.449.279-.783.515-1.585.771-2.375.1-.293.177-.592.26-.891.711,1.959,1.363,3.94,2.066,5.9.38,1.062.786,2.11,1.2,3.16q.492,1.258,1.075,2.48a6.828,6.828,0,0,0,.7,1.285,2.422,2.422,0,0,0,.569.627,4.771,4.771,0,0,0,1.04.693,4.2,4.2,0,0,0,1.745.389c.325-.033.649-.074.972-.12a3.437,3.437,0,0,0,.914-.315,2.7,2.7,0,0,0,.783-.408c.252-.188.5-.385.738-.587a9.56,9.56,0,0,0,1.489-1.795,17.351,17.351,0,0,0,1.733-3.517c.56-1.3,1.046-2.634,1.519-3.97.364-1.025.735-2.045,1.076-3.079.315-.949.625-1.9.94-2.85.077.088.153.176.228.267a46.351,46.351,0,0,1,2.774,4.9,34.31,34.31,0,0,0,3.39,5.753c.259.32.518.636.791.944.1.094.192.19.29.283.226.189.458.371.694.55a9.022,9.022,0,0,0,1.2.563c.149.043.3.085.448.129q.489.087.982.146l.455.011q.47-.057.936-.134c.123-.049.248-.1.37-.143a3.619,3.619,0,0,0,.825-.407c.116-.087.23-.175.346-.26a6.639,6.639,0,0,0,.727-.606,10.255,10.255,0,0,0,1.2-1.381,14.138,14.138,0,0,0,1.494-2.554c.439-.915.868-1.834,1.253-2.772.5-1.219.966-2.45,1.427-3.683s.877-2.5,1.281-3.755c.081.086.161.175.24.266a32.5,32.5,0,0,1,1.79,3c.448.823.856,1.673,1.267,2.515.464.948.926,1.9,1.4,2.842a18.439,18.439,0,0,0,3.12,4.969q.353.285.726.539c.272.117.544.234.817.348a6.642,6.642,0,0,0,1.654.242c.322-.037.645-.079.966-.125a4.558,4.558,0,0,0,.864-.249,7.232,7.232,0,0,0,2.075-1.156,18.85,18.85,0,0,0,2.82-2.847,37.192,37.192,0,0,0,2.427-3.361c.737-1.1,1.43-2.224,2.139-3.34.519-.819,1.006-1.656,1.509-2.488.682-1.13,1.278-2.309,1.959-3.439h0c.049.013.1.027.146.042a8.569,8.569,0,0,1,.822.514,9.834,9.834,0,0,1,.81.832,16.866,16.866,0,0,1,1.574,2.649c.581,1.209,1.132,2.438,1.679,3.665.469,1.052,1,2.071,1.54,3.089a10.934,10.934,0,0,0,2.385,2.977,11.916,11.916,0,0,0,1.2.9,6.778,6.778,0,0,0,1.787.777,6.161,6.161,0,0,0,.976.178,8.19,8.19,0,0,0,1.107.114,9,9,0,0,0,2.07-.2,6.4,6.4,0,0,0,1.495-.531,12.672,12.672,0,0,0,1.816-1.012,14.149,14.149,0,0,0,2.954-2.655c.759-.891,1.452-1.849,2.15-2.786.743-1,1.4-2.07,2.056-3.124q.793-1.273,1.587-2.548c.47-.751.889-1.539,1.323-2.313.387-.693.782-1.378,1.2-2.051.132.126.258.257.383.395a20.181,20.181,0,0,1,1.915,3.475c.967,2.331,1.88,4.687,2.894,7a10.612,10.612,0,0,0,.689,1.284,11.41,11.41,0,0,0,1.122,1.546,5.552,5.552,0,0,0,1.078.979,6.676,6.676,0,0,0,1.667.757l.417.093c.358.049.714.1,1.072.145a4.922,4.922,0,0,0,.85.007q.522-.065,1.044-.138a9.536,9.536,0,0,0,3.139-1.5,14.409,14.409,0,0,0,2.667-2.374,29.88,29.88,0,0,0,2.176-2.872,42.468,42.468,0,0,0,2.128-3.677c.4-.746.773-1.508,1.146-2.269.3-.622.571-1.265.865-1.894a21.834,21.834,0,0,1,1.082,2.243c.533,1.335,1.014,2.692,1.5,4.045.541,1.5,1.064,3,1.726,4.449.163.358.33.713.51,1.063a4.8,4.8,0,0,0,1.134,1.368,6.928,6.928,0,0,0,1.209.832c.323.141.649.277.978.4a6.488,6.488,0,0,0,1.047.171,6.361,6.361,0,0,0,1.585-.141,11.773,11.773,0,0,0,1.986-.728,5.007,5.007,0,0,0,.766-.455q.435-.333.866-.667a13.071,13.071,0,0,0,1.254-1.268,33.016,33.016,0,0,0,2.116-2.736c.673-.959,1.227-2,1.81-3.016.522-.908.986-1.854,1.478-2.779.287-.539.541-1.1.8-1.655.4,1.258.767,2.531,1.133,3.8a11.309,11.309,0,0,0,2.991,5.17,10.182,10.182,0,0,0,1.364,1.018,8.37,8.37,0,0,0,1.566.712,5.418,5.418,0,0,0,1.573.243,7.111,7.111,0,0,0,1.532-.166,5.361,5.361,0,0,0,1.438-.5,5.828,5.828,0,0,0,1.273-.816,12.283,12.283,0,0,0,1.988-2.215,14.347,14.347,0,0,0,1.467-2.452c.493-1,.936-2.018,1.369-3.045.445-1.057.854-2.128,1.255-3.2l.059.095c.448.73.846,1.5,1.274,2.239s.869,1.506,1.347,2.234c.465.708.988,1.376,1.519,2.036a9.636,9.636,0,0,0,3.741,2.869,14.736,14.736,0,0,0,2.367.781,15.472,15.472,0,0,0,2.876.344,2.758,2.758,0,0,0,1.95-4.707,2.917,2.917,0,0,0-1.95-.809c-.149-.011-.3-.023-.448-.038A15.526,15.526,0,0,1,362.45,293.369Zm-275.736,6-.265.113a2.013,2.013,0,0,1,.272-.118Zm76.427,6.317.138.059h0C163.234,305.73,163.187,305.71,163.142,305.689Zm8.79-9.234-.064-.027c.022.008.044.017.065.026Zm.222.4a2.086,2.086,0,0,1,.1-.235h0Zm.282-.537h-.006c.045-.062.094-.124.145-.184C172.529,296.2,172.483,296.257,172.436,296.318Zm25.966,10.81H198.4c-.023-.018-.047-.038-.07-.058Zm.048.04q-.149.025-.3.037l.3-.04-.02-.014h.007l.018.014.041-.006h.009l-.046.008.066.05Q198.485,307.195,198.45,307.168Zm.154.029.041-.018h0Zm.057-.022h0l.181-.076Q198.751,307.139,198.661,307.174Zm41.528-4.365.21.03,0,0C240.331,302.834,240.26,302.823,240.189,302.81Zm.241.036,0,0,.027,0h0Zm.035,0h0ZM297.32,299.2l-.049-.025.059.026Zm.011,0,.012,0,.235.1A2.387,2.387,0,0,1,297.331,299.209Zm23.4-.462.061.026h0Zm.17.068-.03-.026.036.028Zm.049.04-.04-.032.009,0,.038.029Zm.042.035H321l.122.095C321.081,298.953,321.038,298.922,321,298.89Z" transform="translate(-69.89 -282.267)" fill="#e52441"/>
</svg>
