<svg width="248" height="70" viewBox="0 0 248 70" fill="none" xmlns="http://www.w3.org/2000/svg" class="video-streaming__title-highlight video-streaming__title-highlight--mobile">
    <path d="M16.4687 37.111C17.4889 37.0003 18.5171 36.8277 19.5382 36.7801C20.4912 36.7353 21.4403 36.6874 22.3944 36.6416C27.6091 36.3921 32.8253 36.0597 38.038 35.9892C43.4898 35.9149 48.9451 35.7585 54.3962 35.7852C59.9583 35.8127 65.5197 35.8253 71.0788 35.9138C81.9163 36.0913 92.7527 36.2499 103.588 36.3894C114.352 36.5234 125.116 36.6243 135.883 36.6383C141.227 36.6421 146.576 36.492 151.921 36.3828C157.171 36.272 162.417 36.0611 167.668 35.8053C168.822 35.7479 169.971 35.6284 171.129 35.538C172.287 35.4477 173.411 35.3767 174.55 35.2541C177.474 34.9397 180.396 34.6042 183.319 34.2278C188.408 33.5681 193.486 32.6751 198.579 32.1345C203.914 31.567 209.255 31.2637 214.592 30.8113C217.019 30.6335 219.434 30.3209 221.826 29.875C224.586 29.3389 227.318 28.6639 230.01 27.8525C232.638 27.0549 235.266 26.2333 237.896 25.4498C239.158 25.0711 240.425 24.7306 241.697 24.4651C243.144 24.1839 244.576 23.8293 245.987 23.4027C246.672 23.1843 246.841 21.8088 246.863 20.9229C246.88 20.4305 246.84 19.9378 246.744 19.4545C246.651 19.0528 246.462 18.4164 246.114 18.4325C243.562 18.5391 241.009 18.6458 238.459 18.8085C235.883 18.9681 233.307 19.0623 230.731 19.0912C225.728 19.1512 220.732 18.8462 215.747 18.4884L218.313 17.9878C221.385 17.3839 224.453 16.6188 227.536 16.2201C229.176 16.0069 230.821 15.8318 232.458 15.5545C233.295 15.4235 234.122 15.2421 234.936 15.0115C235.83 14.7306 236.708 14.4029 237.568 14.0299C237.721 13.9939 237.862 13.9172 237.976 13.8079C238.09 13.6986 238.172 13.5607 238.214 13.4087C238.482 12.8011 238.639 12.1502 238.677 11.4871C239.562 11.088 239.788 9.13224 239.818 7.95541C239.842 7.24292 239.784 6.52997 239.645 5.83086C239.509 5.22838 239.242 4.36758 238.734 4.35495C236.082 4.28586 233.438 3.99185 230.788 3.91978C230.477 3.91449 230.165 3.90919 229.854 3.9039C227.571 3.88411 225.288 4.01635 223.004 4.18757C217.914 4.55851 212.824 5.00546 207.733 5.52842C205.368 5.7653 203.004 6.0482 200.637 6.24605C197.744 6.48593 194.858 6.66294 191.963 6.80979C187.122 7.05258 182.276 7.12225 177.435 7.214C171.884 7.31969 166.337 7.49647 160.784 7.84419C155.641 8.16688 150.5 8.61164 145.359 9.03439C140.197 9.45545 135.034 9.8775 129.871 10.3005C124.58 10.7387 119.288 11.0519 113.995 11.364C111.318 11.5246 108.64 11.5561 105.961 11.6476C103.426 11.7355 100.892 11.7425 98.3569 11.7764C93.3683 11.8446 88.3804 11.8699 83.3924 11.9041C73.3304 11.9721 63.2697 12.1342 53.206 12.3002C47.6775 12.3936 42.1491 12.4963 36.6209 12.6084C33.8012 12.6605 30.9778 12.8126 28.1584 12.9097C25.7472 12.9947 23.3337 13.2218 20.9212 13.3868C18.3534 13.5642 15.7853 13.7626 13.2171 13.9651C11.6906 14.0858 10.1624 14.2082 8.63256 14.3322L6.63924 14.4934C6.03826 14.5412 5.428 14.6049 4.82472 14.6696C4.39182 14.7207 3.96297 14.8017 3.54124 14.9119C3.04865 15.0813 2.57545 15.3027 2.12961 15.5721C1.83294 15.9337 1.62892 16.3621 1.53522 16.8203C1.36536 17.4942 1.27373 18.1854 1.26213 18.8803C1.23684 19.5732 1.29219 20.2666 1.42706 20.9467L1.65525 21.7048C1.79845 22.1073 2.01869 22.3322 2.31286 22.3862C2.81749 22.6276 3.34056 22.8285 3.8771 22.9869C4.04096 22.9476 4.19131 22.8652 4.31256 22.7482C4.4338 22.6311 4.52152 22.4838 4.56661 22.3215C4.62946 22.1962 4.68444 22.0672 4.73122 21.9351C5.01347 21.9249 5.29549 21.9287 5.57753 21.9315C5.85956 21.9343 6.11763 21.9347 6.38885 21.9263C6.99928 21.9113 7.60874 21.8947 8.21723 21.8764C9.78703 21.8364 11.3565 21.7937 12.9258 21.7483C14.6271 21.7002 16.3281 21.6701 18.0292 21.635L17.5009 21.6981C13.4753 22.1398 9.45256 22.5836 5.42874 23.0933C5.07011 23.1819 4.7413 23.3637 4.47569 23.6205C4.21008 23.8772 4.01714 24.1996 3.91646 24.555C3.37791 25.7387 3.03806 27.0029 2.91057 28.297C2.206 28.2797 1.50107 28.2634 0.795794 28.2481C0.301794 28.2397 0.173541 29.5469 0.157973 30.0508C0.142405 30.5546 0.209373 31.8522 0.703373 31.8605C1.37837 31.872 2.0541 31.8995 2.72896 31.919C2.75572 33.0411 2.87997 34.1587 3.1003 35.2593C3.26759 35.8143 3.43421 36.3686 3.60019 36.9222C3.9187 37.7999 4.40005 38.2972 5.04425 38.4142C8.85244 37.9378 12.6596 37.5224 16.4687 37.111Z" fill="white"/>
    <path d="M25.2874 64.8081C26.1708 64.679 27.0635 64.4792 27.9477 64.4222C28.7729 64.3682 29.5991 64.3102 30.4232 64.2562C34.9426 63.9569 39.4627 63.5616 43.9796 63.4664C48.7037 63.3646 53.4303 63.1709 58.1525 63.1851C62.9716 63.199 67.79 63.1969 72.606 63.2808C81.9945 63.4497 91.3827 63.597 100.771 63.7226C110.096 63.8431 119.422 63.9246 128.751 63.9082C133.38 63.8958 138.016 63.7096 142.647 63.5682C147.196 63.4295 151.742 63.1707 156.291 62.8639C157.293 62.7959 158.295 62.6549 159.291 62.5498C160.288 62.4447 161.268 62.3584 162.256 62.2161C164.791 61.8501 167.323 61.46 169.858 61.021C174.272 60.2548 178.672 59.2232 183.086 58.5931C187.71 57.9315 192.338 57.57 196.964 57.0395C199.077 56.8258 201.173 56.4603 203.233 55.9457C205.646 55.3214 208.017 54.5448 210.331 53.6207C212.611 52.7051 214.89 51.7636 217.172 50.8631C218.25 50.4275 219.35 50.0496 220.468 49.7308C221.733 49.403 222.977 48.9948 224.19 48.5087C224.784 48.2577 224.935 46.6929 224.958 45.685C224.974 45.1268 224.941 44.5683 224.859 44.0158C224.783 43.5624 224.618 42.8364 224.317 42.8552C222.105 42.9847 219.894 43.1182 217.682 43.3066C215.451 43.4961 213.218 43.6108 210.986 43.6509C206.651 43.6748 202.317 43.4609 198.006 43.0101C198.747 42.8167 199.489 42.6262 200.23 42.4328C202.894 41.7368 205.559 40.8569 208.226 40.3931C209.648 40.1452 211.074 39.9413 212.494 39.6214C213.225 39.4682 213.943 39.2593 214.643 38.9967C215.427 38.6702 216.189 38.2946 216.926 37.8722C217.167 37.8223 217.354 37.5861 217.487 37.1635C217.724 36.4569 217.861 35.7205 217.895 34.9758C218.663 34.5187 218.865 32.2915 218.896 30.9547C218.92 30.1467 218.872 29.3382 218.754 28.5386C218.637 27.8504 218.409 26.8752 217.969 26.8617C215.669 26.7906 213.384 26.4647 211.086 26.3886C210.817 26.3841 210.546 26.3794 210.277 26.3749C208.294 26.382 206.313 26.4949 204.342 26.7131C199.933 27.151 195.521 27.6761 191.106 28.2886C189.057 28.5659 187.007 28.8971 184.956 29.1273C182.45 29.4088 179.946 29.6193 177.442 29.7948C173.246 30.0856 169.048 30.1793 164.854 30.299C160.044 30.4393 155.237 30.6537 150.425 31.066C145.968 31.4484 141.512 31.9698 137.056 32.4662C132.58 32.961 128.106 33.4567 123.633 33.9535C119.047 34.4678 114.461 34.8399 109.875 35.2121C107.555 35.4027 105.233 35.4473 102.913 35.5599C100.716 35.6676 98.5205 35.6853 96.3241 35.7289C92.0023 35.8215 87.6803 35.8651 83.3591 35.9207C74.6408 36.0285 65.9246 36.2434 57.2043 36.4633C52.4142 36.5866 47.6242 36.7206 42.8343 36.8652C40.3904 36.9377 37.9437 37.1122 35.501 37.2327C33.4116 37.3362 31.3195 37.6017 29.2295 37.7993C27.0043 38.0095 24.7787 38.2427 22.553 38.481C21.2302 38.6235 19.9053 38.7701 18.5805 38.9136C18.0053 38.9778 17.4291 39.0391 16.8528 39.1023C16.3287 39.1594 15.8033 39.2325 15.2809 39.3086C14.9023 39.3694 14.5298 39.4635 14.1678 39.5898C13.7314 39.7909 13.3213 40.0446 12.9466 40.3453C12.6799 40.7795 12.5033 41.263 12.4273 41.7668C12.1371 43.3172 12.1013 44.9045 12.3214 46.4664L12.5168 47.328C12.6391 47.7842 12.8297 48.0405 13.0848 48.1009C13.5129 48.3701 13.966 48.5975 14.4376 48.78C14.694 48.7264 14.894 48.4734 15.0377 48.021C15.0933 47.877 15.1415 47.7303 15.1822 47.5813C15.4265 47.5695 15.6715 47.5727 15.9156 47.5748C16.1596 47.577 16.3837 47.5768 16.6159 47.5667C17.1444 47.5477 17.6722 47.527 18.1994 47.5046C19.5594 47.4517 20.9193 47.3985 22.2793 47.3449C23.7537 47.2849 25.2259 47.2449 26.7 47.205L26.2426 47.2782C22.7538 47.7931 19.267 48.31 15.779 48.9009C15.2134 49.0246 14.7728 49.582 14.4572 50.5729C13.9805 51.9487 13.6832 53.3802 13.5725 54.8321C12.962 54.815 12.3514 54.7987 11.7408 54.7829C11.3151 54.7627 11.1897 56.253 11.18 56.826C11.1702 57.399 11.2182 58.8702 11.6451 58.8835C12.23 58.8984 12.8148 58.9234 13.3996 58.9443C13.4183 60.2186 13.522 61.4902 13.71 62.7507C13.8527 63.3813 13.9953 64.0113 14.138 64.6405C14.4098 65.6381 14.8253 66.2023 15.3846 66.3332C18.6851 65.7721 21.9863 65.2861 25.2874 64.8081Z" fill="white"/>
</svg>