<svg xmlns="http://www.w3.org/2000/svg" width="266.462" height="45.918" viewBox="0 0 266.462 45.918">
  <g id="Grupo_78123" data-name="Grupo 78123" transform="translate(-264.476 -252.804)">
    <path id="Trazado_2670" data-name="Trazado 2670" d="M11.361,39.505a58.918,58.918,0,0,1,10.655-1.626c2.016-.165,4.028-.269,6.049-.354,2.9-.12,5.782-.2,8.68-.24,5.518-.074,11.04-.06,16.561-.015,11.064.091,22.116.149,33.166-.3,11.459-.466,22.918-.887,34.375-1.368,10.864-.457,21.726-.913,32.595-1.231,10.885-.32,21.762-.589,32.633-1.2,11.124-.622,22.261-.894,33.405-1.089,5.286-.091,10.589-.227,15.847-.773,2.745-.286,5.482-.612,8.221-.957,2.682-.337,5.378-.548,8.07-.79a41.852,41.852,0,0,1,7.423.116,5,5,0,0,0,4.027-2.8q.731-1.591,1.461-3.182a27.332,27.332,0,0,0,1.261-8.712A27.8,27.8,0,0,0,264.4,6.239q-.753-1.608-1.507-3.218a5.256,5.256,0,0,0-4.068-2.9c-1.367.1-2.731.237-4.1.322-1.246.077-2.5.056-3.743.05-2.668-.011-5.332.058-7.994.145-5.536.182-11.061.51-16.6.621-10.729.216-21.469.122-32.184.67-5.745.292-11.483.644-17.228.926-5.219.259-10.445.407-15.669.554q-16.68.464-33.34,1.22c-10.97.492-21.943.939-32.911,1.438q-9.1.412-18.2.746c-5.435.2-10.885.168-16.326.164C49.4,6.97,38.264,6.922,27.145,7.5c-2.739.141-5.473.344-8.2.66-2.213.255-4.426.625-6.6,1.1A44.759,44.759,0,0,0,7.4,10.778,10.53,10.53,0,0,0,4.7,12.21a10.614,10.614,0,0,0-3.37,5.324A28.321,28.321,0,0,0,.438,31.09a19.989,19.989,0,0,0,2.541,7.378q.959,1.076,1.921,2.149a3.536,3.536,0,0,0,4.387.053A10.843,10.843,0,0,1,11.361,39.505Z" transform="matrix(1, 0.017, -0.017, 1, 265.187, 252.684)" fill="#fff"/>
  </g>
</svg>
