<svg xmlns="http://www.w3.org/2000/svg" width="176.617" height="45.882" viewBox="0 0 176.617 45.882">
  <g id="Grupo_78124" data-name="Grupo 78124" transform="matrix(-1, -0.017, 0.017, -1, 435.826, 304.813)">
    <path id="Trazado_2670" data-name="Trazado 2670" d="M7.724,39.448a26.611,26.611,0,0,1,7.022-1.563c1.329-.153,2.657-.245,3.99-.318,1.91-.1,3.814-.167,5.727-.189,3.641-.041,7.285.005,10.929.084,7.3.157,14.6.281,21.885-.1,7.559-.4,15.119-.751,22.677-1.164,7.166-.393,14.332-.784,21.5-1.038s14.358-.46,21.528-1c7.337-.556,14.686-.761,22.038-.891a80.505,80.505,0,0,0,10.453-.679c1.81-.27,3.614-.579,5.419-.908,1.768-.321,3.546-.516,5.321-.742a18.306,18.306,0,0,1,4.9.16q1.755-.272,2.641-2.779.473-1.587.945-3.173a40.372,40.372,0,0,0,.781-8.7,41.3,41.3,0,0,0-.966-8.753q-.506-1.612-1.013-3.226-.94-2.558-2.7-2.924c-.9.091-1.8.221-2.7.3a24.525,24.525,0,0,1-2.47.028c-1.761-.027-3.518.026-5.274.1-3.652.149-7.3.444-10.951.522-7.079.152-14.167-.005-21.235.479-3.789.258-7.574.575-11.363.824-3.443.228-6.89.345-10.337.461q-11,.364-21.995,1.022C77.236,5.694,70,6.075,62.762,6.51q-6,.358-12,.638c-3.585.165-7.182.1-10.773.067-7.35-.073-14.7-.188-22.036.323-1.806.125-3.61.311-5.406.611A30.429,30.429,0,0,0,8.193,9.211,22.484,22.484,0,0,0,4.941,10.7a6.531,6.531,0,0,0-1.777,1.415,12.011,12.011,0,0,0-2.192,5.3,42.319,42.319,0,0,0-.506,13.55,27.728,27.728,0,0,0,1.72,7.392q.639,1.082,1.28,2.16a1.757,1.757,0,0,0,2.9.079A6.933,6.933,0,0,1,7.724,39.448Z" transform="matrix(1, 0.017, -0.017, 1, 264.952, 252.804)" fill="#fff"/>
  </g>
</svg>
