<svg xmlns="http://www.w3.org/2000/svg" width="119.718" height="84.258" viewBox="0 0 119.718 84.258">
  <path id="Trazado_2263" data-name="Trazado 2263" d="M34.368,37.437C26.1,37.6,22.322,39.883,21.22,44.916c-.95,4.339,1.506,9.557,5.358,11.383,4.2,1.99,7.729.223,12.834-6.8,4.352,15.775,2.958,31.059.667,47.345-3.279-3.482-3.274-8.059-7.263-11.083a20.057,20.057,0,0,0,.033,3.874q1.921,7.693,4.032,15.341c1.126,4.074,3.173,4.963,6.754,2.486,2.819-1.95,5.213-4.515,8-6.99-3.262-2.906-5.6-.321-8,.573,2.515-19.276,5.168-38.238-2.6-56.948C33.25,25.328,20.312,11.241,3.428.453A4.658,4.658,0,0,0,0,.19c6.839,5.134,13.438,10.31,19.061,16.6S31.052,28.817,34.368,37.437Zm1.249,7.827c.035,4.036-2.554,7.678-5.58,7.851-2.523.144-5.059-2.743-5.149-5.861A5.793,5.793,0,0,1,30.9,41.228C34,41.24,35.594,42.6,35.617,45.264Z" transform="matrix(0.326, -0.946, 0.946, 0.326, 0, 48.825)" fill="#e52441"/>
</svg>
