<svg xmlns="http://www.w3.org/2000/svg" width="748.265" height="49.01" viewBox="0 0 748.265 49.01">
  <g id="Grupo_77957" data-name="Grupo 77957" transform="translate(-51.616 -560.131)">
    <path id="Trazado_2150" data-name="Trazado 2150" d="M798.786,573.373l-.447-.138a150.637,150.637,0,0,1-18.111-3.36,116.463,116.463,0,0,0-17.573-3.046,147.679,147.679,0,0,0-20.016-.428,176.972,176.972,0,0,0-18.888,2.081c-11.841,1.775-23.733,3.717-37.338,4.57a214.511,214.511,0,0,1-39.611-1.332c-12.594-1.552-23.583-3.753-35.486-5.582C599,564.246,584.7,562.562,569.8,563.025c-15.5.481-27.926,2.366-40.792,4.394-11.76,1.853-24.395,3.685-38.6,4.025a125.181,125.181,0,0,1-19.416-.837,111.06,111.06,0,0,1-14.144-2.937,79.168,79.168,0,0,0-14.237-2.995,96.837,96.837,0,0,0-18.128-.03c-13.439,1.292-23.407,4.089-36.31,5.63-14.171,1.692-30.48.905-43.936-.795-25.578-3.23-50.456-10.1-81.981-8.656-14.2.652-26.391,2.768-39.066,4.345-11.7,1.455-26.293,2.827-39.515,1.857a87.165,87.165,0,0,1-15.4-2.573,88.426,88.426,0,0,0-16.36-2.978c-13.646-1.126-29.795.523-41.18,2.364-12.3,1.988-23.86,4.084-38.332,5.042-6.588.437-13.527.659-20.287.881v.786l.349-.011a384.65,384.65,0,0,0,40.1-2.969c13.186-1.844,24.324-4.348,39.4-5.283a138.24,138.24,0,0,1,20.531.027,87.894,87.894,0,0,1,15.778,2.928,87.475,87.475,0,0,0,15.955,2.614,169.435,169.435,0,0,0,20.757-.139c13.265-.8,24.848-2.693,36.846-4.217a213.69,213.69,0,0,1,44.047-1.463c14.257,1.091,26.214,3.224,38.426,5.251,12.854,2.135,26.655,4.357,42.531,4.683a157.7,157.7,0,0,0,21.908-.978c6.234-.764,11.8-1.8,17.4-2.808,10.732-1.931,23.241-4.131,36.993-2.668,5.987.637,9.768,1.9,14.095,3.042a108.86,108.86,0,0,0,13.761,2.837c12.5,1.671,27.73.759,39.911-.643,13.431-1.546,24.79-3.981,38.268-5.487a215.99,215.99,0,0,1,42.915-.724c13.678,1.239,25.4,3.392,37.353,5.384a284.471,284.471,0,0,0,37.212,4.231,235.856,235.856,0,0,0,39.451-2.308c11.947-1.59,23.473-4.1,37.144-4.687a147.1,147.1,0,0,1,19.995.513,118.6,118.6,0,0,1,17.417,3.094c4.038.967,10.7,3.363,17.117,3.1C799.8,573.785,798.486,573.4,798.786,573.373Z" transform="translate(0)" fill="#09989a" stroke="#09989a" stroke-width="1"/>
    <path id="Trazado_2151" data-name="Trazado 2151" d="M796.241,598.495c-13.981-1.347-37.652-4.084-50.235-5.234a242.718,242.718,0,0,0-41.566-.281c-12.861,1.005-24.857,2.652-38.088,3.376a256.2,256.2,0,0,1-41.18-1.339c-24.521-2.655-48.826-7.532-77.226-5.428-24.226,1.794-42.531,7.9-69.362,7.654-12.821-.119-23.68-1.947-34.185-3.562a197.5,197.5,0,0,0-35.606-2.744c-13.418.346-25.3,2.217-37.744,3.342a251.8,251.8,0,0,1-41.641.152c-25.652-1.966-51.121-7.206-79.4-5.9-24.4,1.125-39.673,8.735-66.88,6.917-12.268-.82-22.046-2.918-33-4.4a156.379,156.379,0,0,0-38.082-.524c-11.593,1.353-20.461,3.689-30.881,5.472a179.632,179.632,0,0,1-29.045,2.489v.766c4.143,0,8.342-.142,12.578-.456,12.387-.917,21.8-3.032,31.718-4.965a162.385,162.385,0,0,1,34.873-3.465c13.437.238,24.054,2.29,35.113,3.955,10.845,1.631,22.73,2.806,35.4,1.758,12.017-.993,20.805-3.354,31.244-5.009a182.636,182.636,0,0,1,38.226-1.572c13.6.75,26.077,2.386,38.655,3.8,12.882,1.45,26.362,2.784,40.769,2.741,14.225-.042,26.41-1.631,39.208-2.951a194.087,194.087,0,0,1,37.752-.736c12.02,1.065,21.819,3.142,33.246,4.493a170.3,170.3,0,0,0,36.295.318c12.1-1.177,22.378-3.2,33.482-4.828a215.569,215.569,0,0,1,37.8-2.4c13.828.4,26.306,2.025,38.413,3.608,12.3,1.608,24.838,3.289,38.821,3.779,14.057.492,26.965-.492,39.854-1.777,12.844-1.28,26.034-2.751,40.215-2.608,13.983.141,26.432,1.779,39.121,3.048,6.126.613,24.9,3.021,31.448,3.275-.142-.005,3.206-.048,3.019-.055Z" transform="translate(0 -17.474)" fill="#09989a" stroke="#09989a" stroke-width="1"/>
    <path id="Trazado_2152" data-name="Trazado 2152" d="M799.2,619.967l-4.251-.687c-16.309-5.149-54.1-8.49-79.308-6.489-23.453,1.862-40.245,8.9-67.7,6.99-12.209-.852-22.216-2.886-32.115-4.746a279.1,279.1,0,0,0-34.076-4.814,216.419,216.419,0,0,0-39.909,1.3c-12.069,1.5-22.254,3.783-34.576,5.167a212.1,212.1,0,0,1-39.63.375c-13.467-1.088-25.842-2.9-39.565-3.806a248.007,248.007,0,0,0-39.926.46c-11.924,1.186-23.034,3.169-36.174,3.456-13.61.3-25.853-1.47-36.852-3.212-11.318-1.793-22.637-3.617-36.013-4.315a295.354,295.354,0,0,0-40.183.675c-6.3.555-12.262,1.324-17.689,2.285s-10.37,2.087-15.9,3.021a110.434,110.434,0,0,1-17.74,1.667,130.193,130.193,0,0,1-17.908-1.262c-11.537-1.508-22.4-3.571-35.4-4.27-28.227-1.518-50.386,4.61-76.959,5.569q-2.6.094-5.218.159v.782c8.574-.235,16.936-.764,24.973-1.652,12.39-1.37,24.018-3.232,37.414-3.982a195.559,195.559,0,0,1,38.132,1.766c10.883,1.482,22.463,3.844,35.6,3.668,13.268-.179,22.909-2.892,33-4.68a246.073,246.073,0,0,1,37.807-3.3,270.526,270.526,0,0,1,39.524,2.158c11.737,1.555,22.165,3.727,34.64,4.939a159.572,159.572,0,0,0,18.766.773c6.51-.142,12.728-.734,18.6-1.407,12.332-1.411,23.649-2.983,37.615-3.1a337.39,337.39,0,0,1,39.72,2.427c12.808,1.378,25.791,2.865,40.109,2.724,14.182-.139,25.751-1.88,37.186-3.774a271.358,271.358,0,0,1,36.808-4.114c28.4-.957,47.616,4.432,69.29,7.895a156.725,156.725,0,0,0,35.537,1.946c12.524-.869,21.914-3.158,32.421-4.912a221.147,221.147,0,0,1,37.358-2.8c13.17.059,22.3,1.4,37.12,2.918,5.535.566,7.286,1.507,20.074,4.244.253.054,2.933.524,3.263.536C798.294,620.589,799.633,620.1,799.2,619.967Z" transform="translate(0 -30.755)" fill="#09989a" stroke="#09989a" stroke-width="1"/>
    <path id="Trazado_2153" data-name="Trazado 2153" d="M797.028,643.939c-6.23.08-11.736-1.984-16.032-3-2.143-.509-4.139-1.064-6.417-1.537a36.277,36.277,0,0,0-3.722-.559c-1.924-.207-2.85-.49-4.483-.786-5.406-.984-13.7-1.257-20.2-1.141a147.418,147.418,0,0,0-19.378,1.6c-12.695,1.943-25.545,4.143-40.28,5.133a229.188,229.188,0,0,1-45.188-1.623c-13.152-1.858-24.456-4.415-37.854-6.2a222.1,222.1,0,0,0-40.675-1.876c-28.085,1.511-47.741,8.581-78.083,8.289a109.031,109.031,0,0,1-19.673-1.725c-4.876-.991-8.6-2.267-13.088-3.356a83.2,83.2,0,0,0-18.536-2.246,115.051,115.051,0,0,0-19.35,1.748c-12.922,2.165-24.6,4.984-41.022,5.333-14.27.3-28.306-1.53-39.938-3.361-12.459-1.962-24.059-4.336-37.684-5.812-14.006-1.517-30.266-2.027-44.689-.531-12.735,1.32-24.114,3.31-36.894,4.608-6.08.617-12.493,1.071-19.1,1.135-3.148.03-6.3-.029-9.389-.182a60.98,60.98,0,0,1-10.057-1.3c-5.659-1.164-10.5-2.547-16.74-3.541a110.574,110.574,0,0,0-19.325-1.2c-13.441.283-25.381,2.323-36.328,4.088a308.657,308.657,0,0,1-38.241,4.274c-4.152.171-8.352.247-12.546.236v.787a274.356,274.356,0,0,0,33.735-1.95c21.542-2.679,47.75-9.572,73.256-5.359,6.16,1.018,10.975,2.407,16.687,3.556a57.516,57.516,0,0,0,8.962,1.164c3.469.184,7.023.251,10.565.206,13.539-.172,25.8-1.9,37.376-3.474,12.839-1.747,25.277-3.383,40.448-3.141a279.307,279.307,0,0,1,42.671,4.335c11.685,1.95,23.111,4.107,36.428,5.351a181.96,181.96,0,0,0,21.465.881,169,169,0,0,0,21.591-2.009c6.779-1.029,12.684-2.308,19.282-3.393a113.062,113.062,0,0,1,19.48-1.665c14.567.2,21.329,3.705,31.4,5.691,12.17,2.4,29.243,1.827,42.605.409,12.96-1.375,23.982-3.585,36.292-5.25,5.807-.785,11.938-1.46,18.44-1.808,3.257-.174,6.583-.264,9.917-.257,3.665.009,7.242.272,10.856.272,3.342,0,6.751.387,9.827.691q5.481.54,10.65,1.248c6.549.883,12.731,1.918,18.821,2.978,12.886,2.242,24.954,4.515,41.062,5.07a225.777,225.777,0,0,0,23.289-.351c7.784-.542,14.538-1.481,21.627-2.412,1.643-.216,3.376-.4,5-.624,1.6-.221,2.7-.559,4.313-.777,1.314-.178,2.763-.27,4.035-.473,1.75-.279,3.337-.613,5.131-.88a148.532,148.532,0,0,1,19.44-1.529c6.247-.088,14.465.188,19.61,1.151,1.448.271,2.283.545,4,.739,1.388.156,2.615.286,3.822.523,2.455.483,4.538,1.086,6.8,1.622,4.3,1.019,9.236,2.928,15.473,2.848.079,0,2.766-.165,2.8-.165Z" transform="translate(0 -45.058)" fill="#09989a" stroke="#09989a" stroke-width="1"/>
    <path id="Trazado_2154" data-name="Trazado 2154" d="M798.7,668.5l-1.121-.165a117.162,117.162,0,0,1-16.253-3.036,137.652,137.652,0,0,0-16.5-3.028c-13.993-1.652-27.739-.607-40.513,1.175-12.1,1.688-23.7,3.726-37.324,4.616a221.116,221.116,0,0,1-41.139-1.332c-24.509-3.069-46.371-9.133-76.179-8.516-28.482.59-47.752,7.026-75.613,8.2a152.461,152.461,0,0,1-20.537-.381,90.8,90.8,0,0,1-15.615-2.943,90.91,90.91,0,0,0-14.7-3.163,100.029,100.029,0,0,0-20.973.148c-12.531,1.3-21.939,3.885-34.249,5.288-13.951,1.589-29.416.907-42.754-.711-24.486-2.972-46.652-8.982-75.875-8.766-28.637.213-49.421,6.942-78.539,6.5a98.061,98.061,0,0,1-17.7-1.657c-5.235-1.094-8.952-2.574-14.932-3.458-11.129-1.646-25.137-.952-36.291.3-12.88,1.444-23.616,3.8-36.449,5.269a297.483,297.483,0,0,1-33.332,1.742v.792c4.277,0,8.554-.072,12.787-.233a308.155,308.155,0,0,0,39.034-4.2c11.1-1.793,22.888-3.589,36.5-3.823a112.481,112.481,0,0,1,17.751.943c5.979.884,9.69,2.366,14.932,3.458,10.835,2.258,26.241,1.914,38.741.788,13.18-1.186,24.671-3.239,37.666-4.525a215.665,215.665,0,0,1,40.528-.2c13.461,1.219,25.192,3.324,37.094,5.241s24.731,3.858,39.234,4.2c15.44.367,27.214-1.506,39.145-3.64,10.522-1.882,24.235-4.212,37.681-2.669,12.376,1.42,17.725,4.974,30.94,6.167,13.121,1.184,27.759.107,39.7-1.37,12.431-1.538,23.435-3.691,36.07-5.133a212.411,212.411,0,0,1,40.449-.75c13.648,1.076,25.358,3.187,37.119,5.132,11.848,1.959,24.3,3.9,38.728,4.4a235.366,235.366,0,0,0,40.3-2.362c12.089-1.651,23.945-3.984,37.943-4.529a134.012,134.012,0,0,1,37.341,3.929c4.322,1.047,9.269,2.575,15.67,2.848C800.04,669.159,798.567,668.5,798.7,668.5Z" transform="translate(0 -60.633)" fill="#09989a" stroke="#09989a" stroke-width="1"/>
  </g>
</svg>
