<svg xmlns="http://www.w3.org/2000/svg" width="197.814" height="16.908" viewBox="0 0 197.814 16.908">
  <path id="Trazado_2486" data-name="Trazado 2486" d="M256.976,221.21c-.71.059-1.422.106-2.131.184l-2.938.324a31.927,31.927,0,0,0-4.817.909,21.354,21.354,0,0,0-4.872,2.018c-.307.173-.612.362-.929.515l-1.025.494c-.485.21-.972.408-1.472.575a11.553,11.553,0,0,1-1.77.43,15.125,15.125,0,0,1-1.564.091,10.805,10.805,0,0,1-1.484-.107,15.828,15.828,0,0,1-1.992-.475,18.535,18.535,0,0,1-2.024-.8,28.841,28.841,0,0,1-3.295-1.839c-.5-.324-1-.654-1.488-1-.59-.416-1.173-.833-1.784-1.214a9.794,9.794,0,0,0-1.447-.785,7.052,7.052,0,0,0-1-.324,5.633,5.633,0,0,0-1.044-.125,3.728,3.728,0,0,0-.623.065,6.075,6.075,0,0,0-.886.216,7.47,7.47,0,0,0-1.311.653q-1.285.725-2.567,1.453c-1.082.616-2.174,1.219-3.295,1.748-.684.294-1.376.555-2.083.781a19.768,19.768,0,0,1-2.833.648,23.222,23.222,0,0,1-2.769.209,21.244,21.244,0,0,1-3.134-.25,39.15,39.15,0,0,1-3.906-.821,23.6,23.6,0,0,1-3.5-1.191q-1.7-.8-3.319-1.763a25.238,25.238,0,0,0-3.812-1.906,10.988,10.988,0,0,0-1.611-.451,7.517,7.517,0,0,0-3.823.131,8.6,8.6,0,0,0-1.839.779,26.028,26.028,0,0,0-3.946,2.862c-.762.612-1.5,1.26-2.248,1.892-.625.515-1.247,1.032-1.9,1.5a14.44,14.44,0,0,1-2.158,1.265c-.348.151-.7.288-1.058.41a8.509,8.509,0,0,1-1.437.335c-.192.021-.384.033-.576.035a3.589,3.589,0,0,1-.413-.017,7.307,7.307,0,0,1-1.139-.358,23.781,23.781,0,0,1-3.782-2.524c-.57-.486-1.121-.992-1.654-1.525q-.559-.557-1.117-1.116a37.663,37.663,0,0,0-2.9-2.922,8.757,8.757,0,0,0-1.392-.93,5.185,5.185,0,0,0-.868-.343l-.292-.065-.613-.089c-.1-.006-.2-.013-.3-.02l-.111,0a3.031,3.031,0,0,0-.547.051,5.971,5.971,0,0,0-1.041.248,15.992,15.992,0,0,0-1.966.817c-.526.246-1.043.513-1.563.774-.366.184-.739.358-1.093.568l-1.674.987c-.28.165-.567.321-.838.5l-1.512,1.026c-.38.258-.768.506-1.141.774l-2.809,2.022a39.874,39.874,0,0,1-6.3,3.927c-.495.215-.993.417-1.5.6a11.631,11.631,0,0,1-1.925.477c-.276.034-.55.06-.83.078a7.21,7.21,0,0,1-1.221-.05,8.749,8.749,0,0,1-1.7-.482A11.166,11.166,0,0,1,121.309,230a26.852,26.852,0,0,1-2.372-2.439c-.375-.424-.754-.843-1.132-1.265-.453-.506-.945-.969-1.442-1.423a6.817,6.817,0,0,0-1.322-.95,7.3,7.3,0,0,0-.856-.374,3.63,3.63,0,0,0-.9-.151,4.958,4.958,0,0,0-.582.07,3.546,3.546,0,0,0-.8.3,2.885,2.885,0,0,0-.716.51c-.214.22-.416.448-.616.683-.381.446-.719.944-1.072,1.416-.279.372-.555.747-.834,1.122-.323.435-.662.858-.992,1.287a15.91,15.91,0,0,1-2.188,2.307,11.678,11.678,0,0,1-1.955,1.24,9.813,9.813,0,0,1-1.933.552,11.907,11.907,0,0,1-2.8-.029,18.541,18.541,0,0,1-4.293-1.35,33.435,33.435,0,0,1-3.658-2.052c-.612-.39-1.2-.819-1.788-1.248s-1.183-.863-1.768-1.305-1.174-.9-1.788-1.31a17.641,17.641,0,0,0-1.944-1.133,8.558,8.558,0,0,0-3.941-.99,5.936,5.936,0,0,0-.953.112,9.373,9.373,0,0,0-.981.231,6.327,6.327,0,0,0-.849.346c-.3.139-.6.283-.9.428a24.5,24.5,0,0,0-3.758,2.26,18.439,18.439,0,0,0-2.932,2.687,17,17,0,0,0-1.157,1.451,2.934,2.934,0,0,0-.4.776l-.107.334c-.043.238-.085.475-.127.714a.966.966,0,0,0,.212.86.787.787,0,0,0,.8.227c.2-.06.394-.121.592-.182a4.517,4.517,0,0,0,.8-.365.924.924,0,0,0,.294-1.207.79.79,0,0,0-.489-.4,17.457,17.457,0,0,1,2.381-2.434,21.628,21.628,0,0,1,4.464-2.767c.357-.16.716-.317,1.078-.467a6.374,6.374,0,0,1,1.393-.378,7.248,7.248,0,0,1,1.253-.017c.279.049.551.112.829.189a9.076,9.076,0,0,1,1.181.444,17.34,17.34,0,0,1,2.163,1.3c.814.552,1.566,1.208,2.347,1.811s1.546,1.189,2.333,1.758,1.6,1.078,2.418,1.571a23.761,23.761,0,0,0,5.048,2.293,12.383,12.383,0,0,0,5.586.51,9.2,9.2,0,0,0,2.528-.746,11.292,11.292,0,0,0,2.211-1.374,14.942,14.942,0,0,0,2.067-2c.336-.391.646-.8.957-1.211.453-.6.895-1.2,1.335-1.809a23.564,23.564,0,0,1,1.7-2.2,1.551,1.551,0,0,1,.143-.085,2.057,2.057,0,0,1,.2-.065h.067a2.739,2.739,0,0,1,.365.112,6.136,6.136,0,0,1,.86.521,23.938,23.938,0,0,1,2.172,2.206c.88.986,1.752,1.973,2.722,2.862A12.191,12.191,0,0,0,120.8,232.8a9.6,9.6,0,0,0,1.727.906,7.46,7.46,0,0,0,1.706.444,8.972,8.972,0,0,0,2.063.093,13.018,13.018,0,0,0,1.714-.258,12.326,12.326,0,0,0,2-.617,23.88,23.88,0,0,0,3.548-1.753c1.671-.987,3.245-2.146,4.824-3.29.754-.548,1.5-1.114,2.269-1.638l2.638-1.8c.1-.068.212-.126.317-.188q.452-.267.9-.535l1.374-.816c.09-.054.188-.1.282-.144l.966-.491c.541-.273,1.08-.544,1.627-.8a11.556,11.556,0,0,1,1.691-.574,2.873,2.873,0,0,1,.351-.01c.1,0,.2.009.293.018a5.17,5.17,0,0,1,.706.21,8.541,8.541,0,0,1,1.138.757c1.1.994,2.077,2.15,3.131,3.206.66.662,1.319,1.31,2.021,1.922.634.553,1.3,1.068,1.973,1.556a24.886,24.886,0,0,0,2.254,1.391,5.873,5.873,0,0,0,3.29.8,9.146,9.146,0,0,0,1.336-.2,10.124,10.124,0,0,0,2.164-.739,15.512,15.512,0,0,0,2.275-1.278,30.545,30.545,0,0,0,2.871-2.3l1.654-1.421,1.313-1.079a16.373,16.373,0,0,1,3.008-2,8.277,8.277,0,0,1,1.629-.47c.27-.029.538-.048.811-.052a4.631,4.631,0,0,1,.718.052,11.853,11.853,0,0,1,2.49.747c.7.33,1.387.684,2.062,1.068.42.238.831.5,1.246.746s.825.461,1.243.681c.8.425,1.615.82,2.446,1.18a21.817,21.817,0,0,0,2.681.909,37.453,37.453,0,0,0,5.765,1.149,19.615,19.615,0,0,0,2.961.134A23.969,23.969,0,0,0,207.2,228a19.163,19.163,0,0,0,5.048-1.529c1.034-.471,2.031-1.013,3.033-1.558,1.2-.651,2.38-1.352,3.6-1.959a6.076,6.076,0,0,1,.743-.216,2.767,2.767,0,0,1,.445,0,6.06,6.06,0,0,1,1.03.308,26.586,26.586,0,0,1,3.089,2.076,31.281,31.281,0,0,0,3.271,2.083,26.754,26.754,0,0,0,3.489,1.591,14.093,14.093,0,0,0,4.179.824,12.482,12.482,0,0,0,3.726-.413,15.2,15.2,0,0,0,3.008-1.187c.418-.207.835-.409,1.24-.645l.786-.455c.393-.227.808-.422,1.22-.61a25.023,25.023,0,0,1,6.2-1.642c1.144-.157,2.3-.242,3.444-.358,1-.1,2-.15,2.993-.221,2.022-.143,4.054-.281,6.082-.273a1.534,1.534,0,0,0,0-3.061c-1.54.028-3.077.155-4.613.276Q258.09,221.118,256.976,221.21Zm-37.492,1.548.119-.017h0Z" transform="translate(-67.428 -218.776)" fill="#e52441"/>
</svg>
