<svg xmlns="http://www.w3.org/2000/svg" width="1380.7" height="57.078" viewBox="0 0 1380.7 57.078">
  <g id="Grupo_77949" data-name="Grupo 77949" transform="translate(-51.616 -560.137)">
    <path id="Trazado_2150" data-name="Trazado 2150" d="M1430.719,584.161l-.825-.254c-9.723-.812-25.823-4.373-33.439-6.2a215.03,215.03,0,0,0-32.445-5.624,272.666,272.666,0,0,0-36.957-.79,326.8,326.8,0,0,0-34.874,3.843c-21.862,3.277-43.818,6.863-68.938,8.438a396.06,396.06,0,0,1-73.135-2.46c-23.253-2.866-43.543-6.929-65.519-10.307-22.738-3.494-49.135-6.6-76.656-5.749-28.625.888-51.56,4.369-75.317,8.112-21.713,3.421-45.04,6.8-71.261,7.431a231.113,231.113,0,0,1-35.849-1.545,205.06,205.06,0,0,1-26.114-5.423c-8.037-2.124-15.024-4.4-26.287-5.529a178.808,178.808,0,0,0-33.471-.056c-24.813,2.385-43.217,7.55-67.04,10.394-26.165,3.124-56.276,1.671-81.121-1.467-47.226-5.964-93.158-18.654-151.364-15.981-26.224,1.2-48.727,5.111-72.129,8.022-21.595,2.686-48.546,5.219-72.958,3.429a160.958,160.958,0,0,1-28.437-4.751c-9.306-2.341-17.15-4.422-30.205-5.5-25.195-2.079-55.011.965-76.032,4.364-22.711,3.671-44.054,7.541-70.773,9.31-12.163.806-24.974,1.216-37.456,1.627v1.452l.644-.021c26.342-.89,50.727-2.221,74.043-5.481,24.346-3.4,44.911-8.027,72.738-9.755a255.235,255.235,0,0,1,37.908.049c12.56,1.1,20.109,3.141,29.132,5.406a161.508,161.508,0,0,0,29.458,4.827,312.841,312.841,0,0,0,38.324-.256c24.491-1.486,45.878-4.972,68.03-7.786,26.126-3.317,52.523-4.9,81.325-2.7,26.322,2.014,48.4,5.952,70.946,9.7,23.733,3.942,49.214,8.045,78.527,8.646a291.174,291.174,0,0,0,40.45-1.806c11.511-1.411,21.787-3.324,32.127-5.185,19.815-3.565,42.911-7.628,68.3-4.926,11.055,1.176,18.034,3.516,26.024,5.617a200.99,200.99,0,0,0,25.407,5.238c23.076,3.086,51.2,1.4,73.689-1.187,24.8-2.854,45.771-7.351,70.656-10.131,25.4-2.837,52.692-3.743,79.234-1.337,25.254,2.288,46.9,6.263,68.966,9.941,20.793,3.467,43.382,6.881,68.706,7.812,25.568.939,50.708-1.316,72.841-4.261,22.059-2.935,43.339-7.577,68.581-8.653a271.568,271.568,0,0,1,36.917.947,218.973,218.973,0,0,1,32.158,5.712c7.455,1.785,19.763,6.21,31.6,5.725C1432.582,584.922,1430.165,584.206,1430.719,584.161Z" transform="translate(0)" fill="#09989a" stroke="#09989a" stroke-width="1"/>
    <path id="Trazado_2151" data-name="Trazado 2151" d="M1426.02,607.1c-25.813-2.487-69.519-7.541-92.751-9.663a448.145,448.145,0,0,0-76.745-.518c-23.746,1.856-45.895,4.9-70.323,6.234a473.036,473.036,0,0,1-76.031-2.473c-45.275-4.9-90.15-13.907-142.584-10.022-44.73,3.313-78.526,14.592-128.065,14.132-23.671-.22-43.722-3.594-63.117-6.576-19.78-3.041-41.74-5.686-65.741-5.066-24.774.639-46.711,4.093-69.688,6.17a464.919,464.919,0,0,1-76.882.28c-47.362-3.629-94.387-13.3-146.6-10.9-45.055,2.077-73.25,16.128-123.483,12.771-22.651-1.514-40.7-5.388-60.936-8.115a288.733,288.733,0,0,0-70.311-.968c-21.4,2.5-37.778,6.812-57.016,10.1a331.686,331.686,0,0,1-53.627,4.6v1.414c7.65,0,15.4-.262,23.224-.842,22.871-1.694,40.254-5.6,58.562-9.168,18.607-3.628,39.681-6.835,64.388-6.4,24.809.44,44.412,4.229,64.831,7.3,20.023,3.012,41.968,5.18,65.365,3.246,22.188-1.834,38.414-6.192,57.687-9.249,21.592-3.425,45.569-4.281,70.578-2.9,25.107,1.384,48.147,4.4,71.371,7.02,23.785,2.678,48.672,5.14,75.274,5.061,26.264-.077,48.763-3.012,72.391-5.449,23.028-2.374,45.585-3.495,69.7-1.358,22.192,1.967,40.285,5.8,61.383,8.3a314.437,314.437,0,0,0,67.012.587c22.349-2.174,41.317-5.916,61.818-8.915a398.009,398.009,0,0,1,69.8-4.427c25.531.733,48.57,3.739,70.923,6.661,22.706,2.969,45.86,6.072,71.677,6.977,25.954.909,49.786-.909,73.583-3.28,23.714-2.363,48.068-5.079,74.25-4.816,25.817.26,48.8,3.284,72.23,5.627,11.31,1.131,45.973,5.578,58.064,6.046-.263-.01,5.92-.089,5.575-.1Z" transform="translate(0 -20.177)" fill="#09989a" stroke="#09989a" stroke-width="1"/>
    <path id="Trazado_2152" data-name="Trazado 2152" d="M1431.489,629.029l-7.849-1.269c-30.112-9.506-99.893-15.675-146.429-11.981-43.3,3.438-74.305,16.441-124.993,12.906-22.542-1.573-41.018-5.329-59.294-8.763-19.143-3.6-39.315-7.294-62.917-8.888a399.59,399.59,0,0,0-73.685,2.4c-22.283,2.763-41.089,6.984-63.839,9.54-23.28,2.615-49.079,2.638-73.171.693-24.865-2.008-47.713-5.346-73.049-7.027a457.91,457.91,0,0,0-73.717.849c-22.016,2.189-42.529,5.852-66.79,6.381-25.128.547-47.733-2.714-68.042-5.93-20.9-3.311-41.8-6.679-66.492-7.967a545.327,545.327,0,0,0-74.191,1.247c-11.624,1.024-22.64,2.445-32.659,4.218-10.043,1.777-19.147,3.854-29.351,5.577a203.9,203.9,0,0,1-32.753,3.078,240.356,240.356,0,0,1-33.063-2.33c-21.3-2.785-41.36-6.593-65.361-7.884-52.117-2.8-93.029,8.511-142.092,10.283q-4.8.174-9.634.294V625.9c15.831-.434,31.27-1.41,46.108-3.051,22.876-2.529,44.346-5.968,69.078-7.352,25.4-1.421,48.149.23,70.4,3.261,20.093,2.736,41.473,7.1,65.734,6.772,24.5-.33,42.3-5.34,60.931-8.64,20.368-3.607,44.774-5.7,69.8-6.1a499.486,499.486,0,0,1,72.975,3.984c21.671,2.871,40.924,6.881,63.957,9.12a294.605,294.605,0,0,0,34.649,1.427c12.021-.262,23.5-1.356,34.347-2.6,22.77-2.606,43.663-5.507,69.451-5.717,26.039-.212,49.86,1.956,73.336,4.482,23.649,2.544,47.619,5.289,74.054,5.029,26.184-.257,47.545-3.471,68.658-6.969,20.98-3.476,42.388-6.734,67.96-7.6,52.43-1.767,87.915,8.184,127.933,14.576,19.72,3.15,42.1,5.225,65.613,3.593,23.123-1.6,40.461-5.83,59.859-9.069a408.312,408.312,0,0,1,68.976-5.171c24.316.109,41.179,2.589,68.536,5.388,10.219,1.045,13.453,2.783,37.062,7.835.467.1,5.416.967,6.024.989C1429.809,630.177,1432.281,629.278,1431.489,629.029Z" transform="translate(0 -26.277)" fill="#09989a" stroke="#09989a" stroke-width="1"/>
    <path id="Trazado_2153" data-name="Trazado 2153" d="M1427.472,654.56c-11.5.147-21.669-3.663-29.6-5.545-3.956-.939-7.641-1.964-11.849-2.838a66.944,66.944,0,0,0-6.872-1.033c-3.552-.382-5.263-.9-8.277-1.452-9.981-1.816-25.3-2.32-37.3-2.107a272.185,272.185,0,0,0-35.778,2.954c-23.439,3.587-47.164,7.649-74.37,9.478a423.158,423.158,0,0,1-83.433-3c-24.282-3.431-45.154-8.151-69.892-11.445-22.936-3.055-49-4.868-75.1-3.464-51.854,2.79-88.146,15.843-144.168,15.3-13.148-.126-26.111-1.109-36.324-3.185-9-1.83-15.883-4.186-24.165-6.2a153.6,153.6,0,0,0-34.224-4.147,212.412,212.412,0,0,0-35.727,3.228c-23.859,4-45.425,9.2-75.74,9.846-26.347.559-52.262-2.825-73.738-6.206-23-3.622-44.42-8.006-69.578-10.73-25.86-2.8-55.881-3.742-82.51-.981-23.513,2.437-44.523,6.112-68.118,8.507-11.225,1.139-23.066,1.978-35.26,2.1-5.813.056-11.629-.054-17.336-.336a112.592,112.592,0,0,1-18.568-2.392c-10.448-2.149-19.392-4.7-30.907-6.538a204.168,204.168,0,0,0-35.68-2.22c-24.816.523-46.862,4.289-67.074,7.548-22.116,3.565-44.087,6.8-70.606,7.891-7.665.315-15.42.456-23.164.436v1.454a506.555,506.555,0,0,0,62.286-3.6c39.773-4.946,88.162-17.673,135.255-9.9,11.374,1.879,20.264,4.445,30.809,6.565a106.19,106.19,0,0,0,16.547,2.149c6.405.34,12.967.463,19.506.38,25-.317,47.635-3.505,69.009-6.414,23.706-3.226,46.669-6.246,74.68-5.8,29.381.468,54.962,4.029,78.786,8,21.574,3.6,42.67,7.582,67.259,9.879a335.917,335.917,0,0,0,39.632,1.626,312.025,312.025,0,0,0,39.864-3.71c12.516-1.9,23.419-4.261,35.6-6.265a208.755,208.755,0,0,1,35.966-3.074c26.9.364,39.381,6.841,57.969,10.507,22.469,4.431,53.993,3.373,78.664.755,23.929-2.539,44.279-6.62,67.007-9.694,10.722-1.45,22.041-2.7,34.047-3.339,6.013-.321,12.155-.488,18.309-.474,6.766.016,13.372.5,20.044.5,6.17,0,12.465.715,18.144,1.275q10.12,1,19.663,2.3c12.092,1.63,23.505,3.542,34.75,5.5,23.792,4.14,46.073,8.336,75.815,9.361a416.859,416.859,0,0,0,43-.649c14.372-1,26.841-2.735,39.93-4.453,3.034-.4,6.233-.74,9.231-1.153,2.963-.409,4.984-1.032,7.963-1.435,2.426-.329,5.1-.5,7.449-.874,3.23-.515,6.162-1.132,9.474-1.625a274.234,274.234,0,0,1,35.892-2.824c11.535-.163,26.708.347,36.206,2.126,2.673.5,4.215,1.006,7.386,1.364,2.563.288,4.828.528,7.057.966,4.533.892,8.379,2.005,12.555,2.994,7.944,1.881,17.053,5.406,28.568,5.259.145,0,5.106-.3,5.161-.3Z" transform="translate(0 -39.591)" fill="#09989a" stroke="#09989a" stroke-width="1"/>
  </g>
</svg>
