<svg xmlns="http://www.w3.org/2000/svg" width="110.511" height="109.861" viewBox="0 0 110.511 109.861">
  <path id="Trazado_2661" data-name="Trazado 2661" d="M85.294,93.827c4.282.864,6.464,5.946,11.82,4.317a14.289,14.289,0,0,0-1.632-2.108c-6.04-5.028-12.073-10.064-18.206-14.975-1-.8-2.689-1.67-3.7-1.356-1.864.578-1.521,2.465-1.135,4.117,1.2,5.132,2.335,10.28,3.5,15.456,2.873-1.351,2.873-1.351,2.18-10.244,11.336,11.825,9.526,29.711-4.051,38.193-.768-1.395-1.488-2.8-2.3-4.158a17.767,17.767,0,0,0-10.179-8.321c-3.341-1.028-6.431-.68-8.881,1.9-2.523,2.656-2.279,5.822-1.044,9.009,2.677,6.9,8.783,10.256,16.126,8.887.906-.169,1.839-.2,3.083-.32.715,9.349-1.1,17.855-6.7,25.138-8.634,11.228-20.59,8.573-28.536,2.622-.983-.736-1.828-1.655-3.3-3,.312,3.119,1.914,4.67,3.475,6.161,6.163,5.892,16.621,7.3,24.187,3.318a24.6,24.6,0,0,0,10.856-11.224A41.227,41.227,0,0,0,75.186,134.4c-.085-.792-.119-1.589-.194-2.643,6-4.327,11.286-9.3,13.362-16.867C90.38,107.493,87.5,100.8,85.294,93.827ZM70.026,129.539c-6.941,3.176-13.16.941-15.093-5.323a6.7,6.7,0,0,1,.5-4.9c1.112-1.831,3.259-1.57,5.185-.818C65.611,120.45,68.38,124.263,70.026,129.539Z" transform="matrix(-0.695, -0.719, 0.719, -0.695, 10.173, 188.447)" fill="#c0dd52"/>
</svg>
