<svg xmlns="http://www.w3.org/2000/svg" width="80.823" height="88.558" viewBox="0 0 80.823 88.558">
  <path id="Trazado_1897" data-name="Trazado 1897" d="M39.642,12.112c-3.688.93-7.066,5.025-4.444,8.765,1.838,2.622,5.745,3.423,8.716,3.373A22.01,22.01,0,0,0,52.2,22.485c-.618-6.2-5.9-12.054-12.559-10.373M76.183,1.683a56.929,56.929,0,0,1,.032,12.77c-.237,2.187-3.839,2.229-3.922-.04q-.1-2.671-.2-5.337c-4.251,6.346-9.458,12.333-16.009,15.851,0,.042,0,.084,0,.128-.8,11.684-12.365,19.915-23.452,20C19.378,45.167,1.442,34.359,0,20.081a.8.8,0,0,1,1.533-.388c4.482,11.016,15.987,20.046,27.9,21.43,9.385,1.09,20.769-4.741,22.588-14.42a25.81,25.81,0,0,1-7,1.389c-4.971.288-10.921-1.168-13.55-5.83s-.164-10.3,4.269-12.8c9.119-5.14,18.092,2.351,19.993,11.184,5.425-3.374,9.814-8.692,13.394-14.151a49.263,49.263,0,0,1-5.766,2.1c-2.442.716-3.923-2.981-1.466-3.7A46.7,46.7,0,0,0,72.629.31,2.422,2.422,0,0,1,74.176.025a1.776,1.776,0,0,1,2.007,1.658Z" transform="translate(36.911) rotate(55)" fill="#e52441"/>
</svg>
