<svg xmlns="http://www.w3.org/2000/svg" width="89.211" height="10.954" viewBox="0 0 89.211 10.954">
  <path id="Trazado_2591" data-name="Trazado 2591" d="M81.927,1.128C79.981.88,78.033.7,76.086.488,75.444.418,74.8.413,74.156.377L69.973.143C69.2.1,68.419.046,67.642.013,67.417,0,67.193,0,66.967,0c-.506,0-1.012.017-1.517.018l-6.9.017c-.547,0-1.1.03-1.642.047L52.838.2c-1.53.044-3.06.062-4.589.145l-7.425.4c-1.433.077-2.867.121-4.3.246q-3.7.322-7.4.641c-1.349.116-2.7.213-4.046.377q-3.828.465-7.656.934c-1.364.167-2.729.29-4.09.545L5.706,4.909l-1.648.307c-1.1.2-2.19.522-3.284.792L.568,6.07A.957.957,0,0,0,.227,6.5,2.992,2.992,0,0,0,0,7.7,3,3,0,0,0,.227,8.9c.131.287.355.542.547.5,1.32-.325,2.638-.671,3.962-.916L8.415,7.8l4.015-.745c.539-.1,1.079-.232,1.619-.3q3.13-.38,6.26-.754l3.9-.471c.537-.065,1.075-.146,1.612-.193,2.068-.181,4.137-.347,6.2-.52l3.76-.315c.421-.035.842-.08,1.264-.1q3.349-.17,6.7-.335l3.741-.188c.444-.022.888-.055,1.331-.064l6.908-.155C57.168,3.625,58.6,3.6,60.041,3.6l7.336.039c.482,0,.964.046,1.447.076l4.049.26q1.518.1,3.038.2c.718.047,1.436.164,2.153.248,2.113.25,4.225.508,6.337.8.536.074,1.072.162,1.609.248.575.091,1.151.18,1.723.322.09.032.178.069.267.111a.486.486,0,0,0,.646-.184,2.322,2.322,0,0,0,.385-1.1,2.586,2.586,0,0,0-.585-2.255,3.719,3.719,0,0,0-1.181-.414q-.407-.091-.815-.18c-.522-.115-1.049-.173-1.572-.26C83.9,1.348,82.911,1.254,81.927,1.128Z" transform="matrix(1, -0.017, 0.017, 1, 0, 1.554)" fill="#c0dd52"/>
</svg>
