<svg xmlns="http://www.w3.org/2000/svg" width="188.821" height="14.206" viewBox="0 0 188.821 14.206">
  <path id="Trazado_2686" data-name="Trazado 2686" d="M251.82,645.749c-4.122-.289-8.249-.5-12.374-.744-1.361-.081-2.726-.086-4.087-.128l-8.862-.271c-1.645-.051-3.291-.113-4.937-.151-.477-.011-.953-.015-1.43-.015-1.071,0-2.143.019-3.214.021l-14.621.02c-1.16,0-2.32.035-3.479.054l-8.617.134c-3.241.052-6.482.072-9.721.168l-15.729.468c-3.035.09-6.073.14-9.107.286q-7.843.374-15.684.744c-2.857.135-5.716.247-8.571.438q-8.109.54-16.219,1.085c-2.889.194-5.781.336-8.663.632q-8.073.823-16.147,1.649l-3.49.357c-2.323.237-4.64.606-6.957.919l-.436.072a1.594,1.594,0,0,0-.723.505,2.253,2.253,0,0,0,0,2.78,1.455,1.455,0,0,0,1.16.576c2.8-.377,5.588-.779,8.392-1.063q3.9-.4,7.793-.793l8.505-.865c1.141-.116,2.286-.27,3.43-.346q6.63-.441,13.261-.875l8.266-.547c1.138-.075,2.277-.169,3.415-.224,4.381-.21,8.762-.4,13.142-.6l7.965-.365c.892-.041,1.784-.093,2.677-.118q7.1-.2,14.19-.389l7.924-.218c.941-.025,1.881-.063,2.82-.074l14.634-.18c3.044-.038,6.085-.073,9.128-.063l15.54.045c1.021,0,2.043.053,3.065.089l8.577.3q3.217.116,6.435.227c1.521.054,3.042.19,4.562.288,4.476.29,8.95.589,13.424.924,1.136.086,2.271.188,3.408.288,1.217.106,2.438.209,3.651.374.19.037.377.08.566.128a1.582,1.582,0,0,0,1.368-.214,2.135,2.135,0,0,0,.816-1.273,2.23,2.23,0,0,0-1.239-2.618,12.713,12.713,0,0,0-2.5-.48q-.863-.105-1.726-.209c-1.107-.134-2.221-.2-3.33-.3C255.99,646,253.9,645.895,251.82,645.749Z" transform="matrix(1, -0.017, 0.017, 1, -89.507, -639.682)" fill="#84d2d3"/>
</svg>
