<svg xmlns="http://www.w3.org/2000/svg" width="279" height="21.272" viewBox="0 0 279 21.272">
  <path id="Trazado_2454" data-name="Trazado 2454" d="M334.769,221.838c-1,.074-2.006.133-3.005.231l-4.144.407a49.938,49.938,0,0,0-6.794,1.143,32.242,32.242,0,0,0-6.871,2.539c-.433.218-.863.455-1.31.648l-1.446.622c-.684.264-1.371.513-2.076.723a17.951,17.951,0,0,1-2.5.541c-.735.072-1.467.11-2.206.114a17.054,17.054,0,0,1-2.093-.135,24.61,24.61,0,0,1-2.809-.6,28.1,28.1,0,0,1-2.855-1,42.318,42.318,0,0,1-4.647-2.314c-.707-.407-1.408-.823-2.1-1.254-.832-.523-1.654-1.048-2.516-1.527a14.417,14.417,0,0,0-2.041-.987,10.827,10.827,0,0,0-1.409-.407,8.865,8.865,0,0,0-1.473-.157,5.875,5.875,0,0,0-.879.082,9.439,9.439,0,0,0-1.25.272,11.1,11.1,0,0,0-1.848.821q-1.812.912-3.621,1.828c-1.526.775-3.067,1.533-4.647,2.2-.965.37-1.941.7-2.937.983a30.775,30.775,0,0,1-4,.815,36.651,36.651,0,0,1-3.905.263,33.518,33.518,0,0,1-4.42-.315c-1.857-.254-3.686-.611-5.509-1.033a36.12,36.12,0,0,1-4.937-1.5q-2.394-1-4.682-2.218a37.478,37.478,0,0,0-5.376-2.4,16.986,16.986,0,0,0-2.272-.567,13.217,13.217,0,0,0-2.693-.229,12.735,12.735,0,0,0-5.292,1.374,36.878,36.878,0,0,0-5.566,3.6c-1.074.77-2.118,1.585-3.17,2.38-.881.648-1.759,1.3-2.686,1.887a21.063,21.063,0,0,1-3.044,1.591c-.491.19-.985.362-1.492.516a13.236,13.236,0,0,1-2.027.422c-.27.027-.541.041-.813.044a5.674,5.674,0,0,1-.583-.021,11.233,11.233,0,0,1-1.606-.45,34.1,34.1,0,0,1-5.335-3.175c-.8-.612-1.581-1.248-2.332-1.919q-.789-.7-1.575-1.4A50.592,50.592,0,0,0,189.9,220.6a12.555,12.555,0,0,0-1.963-1.17,7.859,7.859,0,0,0-1.224-.431l-.412-.082-.865-.112c-.14-.007-.28-.016-.419-.025q-.078,0-.156,0a4.776,4.776,0,0,0-.772.064,9.286,9.286,0,0,0-1.468.312,24.153,24.153,0,0,0-2.773,1.028c-.742.31-1.471.646-2.205.974-.516.232-1.042.451-1.542.714l-2.361,1.242c-.4.208-.8.4-1.182.634q-1.066.646-2.133,1.291c-.536.324-1.083.636-1.61.974l-3.962,2.544a57.71,57.71,0,0,1-8.892,4.941c-.7.271-1.4.525-2.115.751a18.06,18.06,0,0,1-2.715.6c-.389.043-.776.075-1.17.1a11.393,11.393,0,0,1-1.722-.063,13.513,13.513,0,0,1-2.4-.607,16.108,16.108,0,0,1-2.413-1.374,35.945,35.945,0,0,1-3.345-3.068c-.529-.534-1.064-1.061-1.6-1.591-.639-.636-1.333-1.219-2.034-1.79a9.672,9.672,0,0,0-1.865-1.195,10.975,10.975,0,0,0-1.207-.47,5.686,5.686,0,0,0-1.266-.19,7.8,7.8,0,0,0-.821.088,5.391,5.391,0,0,0-1.131.381,4.1,4.1,0,0,0-1.01.642c-.3.277-.587.563-.869.859-.537.561-1.014,1.188-1.512,1.782-.393.468-.782.94-1.176,1.411-.456.547-.934,1.079-1.4,1.619a21.21,21.21,0,0,1-3.087,2.9,16.861,16.861,0,0,1-2.757,1.56,15.155,15.155,0,0,1-2.726.694,18.814,18.814,0,0,1-3.956-.036,28.494,28.494,0,0,1-6.055-1.7,49.032,49.032,0,0,1-5.159-2.582c-.863-.491-1.694-1.03-2.522-1.57s-1.669-1.086-2.494-1.642-1.656-1.131-2.521-1.648a25.754,25.754,0,0,0-2.742-1.425,13.252,13.252,0,0,0-5.558-1.246,9.342,9.342,0,0,0-1.345.141c-.469.077-.923.168-1.384.29a9.571,9.571,0,0,0-1.2.435c-.426.175-.848.356-1.272.539a35.625,35.625,0,0,0-5.3,2.843,25.17,25.17,0,0,0-4.135,3.381,22,22,0,0,0-1.631,1.825,3.563,3.563,0,0,0-.561.976l-.15.42c-.061.3-.12.6-.179.9a1.122,1.122,0,0,0,.3,1.082,1.2,1.2,0,0,0,1.129.286c.279-.075.556-.152.835-.229a6.765,6.765,0,0,0,1.127-.459,1.089,1.089,0,0,0-.274-2.019,23.394,23.394,0,0,1,3.359-3.062,31.318,31.318,0,0,1,6.3-3.481c.5-.2,1.01-.4,1.52-.588a9.861,9.861,0,0,1,1.965-.476,11.454,11.454,0,0,1,1.767-.021c.393.062.777.141,1.169.238a13.806,13.806,0,0,1,1.666.559,25.217,25.217,0,0,1,3.05,1.635c1.148.694,2.208,1.52,3.311,2.279s2.18,1.5,3.291,2.212,2.252,1.356,3.41,1.976a35.6,35.6,0,0,0,7.12,2.885,19.48,19.48,0,0,0,7.879.641,14.178,14.178,0,0,0,3.565-.939,16.346,16.346,0,0,0,3.118-1.728,20.211,20.211,0,0,0,2.916-2.517c.474-.492.912-1,1.35-1.524.638-.751,1.262-1.511,1.883-2.276a30.329,30.329,0,0,1,2.4-2.773,2.266,2.266,0,0,1,.2-.107c.095-.032.191-.059.289-.082h.095a4.215,4.215,0,0,1,.515.141,8.914,8.914,0,0,1,1.213.655,32.112,32.112,0,0,1,3.064,2.775c1.241,1.24,2.471,2.482,3.839,3.6a17.1,17.1,0,0,0,1.88,1.3,14.182,14.182,0,0,0,2.436,1.14,11.561,11.561,0,0,0,2.407.558,14.168,14.168,0,0,0,2.91.117,20.438,20.438,0,0,0,2.417-.325,18.969,18.969,0,0,0,2.826-.776,35.5,35.5,0,0,0,5-2.205c2.357-1.242,4.576-2.7,6.8-4.139,1.064-.689,2.118-1.4,3.2-2.061l3.721-2.266c.143-.086.3-.158.446-.237q.637-.336,1.272-.673l1.938-1.027c.127-.068.265-.122.4-.181.454-.207.909-.411,1.362-.618.763-.344,1.523-.684,2.295-1.006a17.691,17.691,0,0,1,2.385-.722,4.546,4.546,0,0,1,.5-.012c.138,0,.275.011.413.023a7.974,7.974,0,0,1,1,.264,12.255,12.255,0,0,1,1.605.952c1.557,1.25,2.929,2.705,4.416,4.033.93.833,1.861,1.648,2.85,2.418.894.7,1.828,1.343,2.783,1.957a36.075,36.075,0,0,0,3.179,1.75,9.239,9.239,0,0,0,3.171.961,9.477,9.477,0,0,0,1.469.046,14.359,14.359,0,0,0,1.885-.254,15.489,15.489,0,0,0,3.052-.93,22.742,22.742,0,0,0,3.209-1.608,42.629,42.629,0,0,0,4.049-2.893l2.332-1.788,1.852-1.357a23.49,23.49,0,0,1,4.242-2.516,12.776,12.776,0,0,1,2.3-.591c.381-.037.758-.06,1.144-.066a7.311,7.311,0,0,1,1.013.066,18.261,18.261,0,0,1,3.512.94c.985.415,1.957.861,2.908,1.344.592.3,1.171.627,1.758.939s1.164.58,1.754.857c1.132.535,2.278,1.032,3.45,1.484a33.4,33.4,0,0,0,3.781,1.143,58.509,58.509,0,0,0,8.131,1.445,30.985,30.985,0,0,0,4.177.169,37.759,37.759,0,0,0,4.113-.39,29.5,29.5,0,0,0,7.119-1.923c1.458-.593,2.864-1.274,4.278-1.96,1.69-.819,3.357-1.7,5.078-2.464a9.375,9.375,0,0,1,1.047-.272,4.374,4.374,0,0,1,.627,0,9.34,9.34,0,0,1,1.453.388,38.088,38.088,0,0,1,4.356,2.612,45.153,45.153,0,0,0,4.614,2.62,40.086,40.086,0,0,0,4.92,2,22,22,0,0,0,5.894,1.036,19.642,19.642,0,0,0,5.255-.519,23.041,23.041,0,0,0,4.242-1.493c.589-.261,1.178-.515,1.748-.811q.555-.285,1.109-.572c.554-.286,1.139-.531,1.72-.768a38.745,38.745,0,0,1,8.741-2.066c1.614-.2,3.239-.305,4.858-.451,1.4-.126,2.815-.189,4.222-.278,2.852-.18,5.718-.353,8.579-.344a1.927,1.927,0,1,0,0-3.851c-2.172.035-4.34.195-6.506.347Q336.341,221.722,334.769,221.838Zm-52.88,1.947.168-.021h0Z" transform="translate(-67.428 -218.776)" fill="#c0dd52"/>
</svg>
