<svg xmlns="http://www.w3.org/2000/svg" width="605.792" height="37" viewBox="0 0 605.792 37">
  <path id="Trazado_2660" data-name="Trazado 2660" d="M491.965,505.236c2.5-.121,5.017-.306,7.523-.363q3.508-.081,7.012-.165c12.8-.3,25.6-.682,38.409-.8,13.4-.124,26.795-.329,40.192-.35,13.673-.021,27.342-.057,41.012-.015q39.971.127,79.933.2,39.7.063,79.393-.031c13.135-.043,26.273-.242,39.4-.4q19.342-.234,38.665-.724c2.833-.068,5.661-.2,8.491-.3,2.8-.1,5.6-.185,8.389-.318q10.753-.517,21.489-1.119c12.465-.714,24.893-1.665,37.375-2.258,13.078-.623,26.184-.977,39.275-1.483,5.91-.228,11.85-.513,17.718-1.016,6.708-.571,13.356-1.262,19.988-2.124,6.41-.833,12.816-1.689,19.232-2.507,3.077-.395,6.172-.752,9.28-1.033,3.518-.318,7.005-.645,10.479-1.116a2.3,2.3,0,0,0,2-2.524,3,3,0,0,0-.386-1.488,1.9,1.9,0,0,0-1.614-1.031c-6.267.131-12.531.265-18.794.449q-9.479.277-18.976.354c-12.284.1-24.593-.161-36.866-.481l6.276-.531c7.512-.639,15-1.443,22.556-1.875,4.018-.231,8.05-.422,12.057-.719,2.032-.149,4.049-.32,6.057-.573,2.158-.272,4.285-.645,6.406-1.019a2.223,2.223,0,0,0,1.547-.636,3.154,3.154,0,0,0,1.018-1.954,3.352,3.352,0,0,0,2.581-3.594,4.259,4.259,0,0,0-.558-2.154,2.759,2.759,0,0,0-2.332-1.49c-6.522-.047-13.034-.322-19.556-.374-.765-.006-1.532-.008-2.3-.008-5.612,0-11.213.154-16.818.343q-18.731.632-37.45,1.494c-5.8.261-11.59.571-17.394.791-7.1.268-14.18.474-21.284.648-11.885.289-23.791.4-35.682.538-13.638.158-27.26.384-40.887.785-12.619.372-25.228.869-37.838,1.343Q788,476.313,769,477.025c-12.977.491-25.964.855-38.954,1.219-6.571.186-13.153.242-19.728.359-6.225.111-12.454.14-18.681.2q-18.383.169-36.771.261-37.091.236-74.169.667-20.374.215-40.744.459c-6.928.082-13.858.254-20.782.379-5.921.107-11.839.359-17.758.549q-9.45.3-18.9.655-5.618.2-11.244.413-2.44.092-4.889.181c-1.483.054-2.969.124-4.448.195-1.058.05-2.1.146-3.139.257a33.134,33.134,0,0,0-3.417.682A2.92,2.92,0,0,0,454,484.768a4.316,4.316,0,0,0,0,4.189l.608.767a2.4,2.4,0,0,0,1.66.685c1.287.229,2.559.457,3.882.6a2.392,2.392,0,0,0,1.653-.681,2.964,2.964,0,0,0,.381-.393c.692-.013,1.386-.011,2.081-.011.664,0,1.327,0,1.995-.013q2.248-.031,4.49-.067,5.783-.086,11.566-.171,6.269-.1,12.531-.156l-1.294.068c-9.866.484-19.726.969-29.583,1.522a5.3,5.3,0,0,0-3.644,1.5,7.152,7.152,0,0,0-2.237,3.805q-2.6-.017-5.2-.031c-1.215-.007-1.455,1.323-1.455,1.835s.24,1.823,1.455,1.832c1.66.01,3.322.028,4.982.042a9.349,9.349,0,0,0,1.122,3.391q.668.842,1.334,1.683a5.3,5.3,0,0,0,3.644,1.5C473.3,506.142,482.63,505.686,491.965,505.236Z" transform="translate(-451.433 -469.663)" fill="#ffd64f"/>
</svg>
