<svg xmlns="http://www.w3.org/2000/svg" width="448.496" height="61.237" viewBox="0 0 448.496 61.237">
  <g id="Grupo_77824" data-name="Grupo 77824" transform="matrix(1, 0.017, -0.017, 1, -2013.397, -347.207)">
    <path id="Trazado_2206" data-name="Trazado 2206" d="M481.012,516.512c1.824-.159,3.661-.4,5.49-.478q2.56-.107,5.117-.218c9.343-.394,18.682-.9,28.03-1.052,9.775-.163,19.554-.434,29.331-.461,9.978-.028,19.953-.075,29.929-.02q29.17.167,58.332.26,28.969.082,57.938-.04c9.585-.057,19.173-.318,28.755-.527,9.41-.205,18.811-.551,28.216-.954,2.067-.09,4.131-.264,6.2-.4,2.04-.136,4.085-.243,6.122-.419,5.231-.454,10.456-.935,15.682-1.473,9.1-.941,18.166-2.193,27.275-2.974,9.544-.82,19.108-1.287,28.662-1.953,4.313-.3,8.648-.675,12.93-1.338,4.895-.752,9.746-1.662,14.587-2.8,4.678-1.1,9.352-2.224,14.035-3.3,2.246-.52,4.5-.99,6.772-1.36,2.567-.419,5.112-.849,7.647-1.47,1.219-.3,1.459-2.14,1.459-3.324a6.6,6.6,0,0,0-.281-1.96c-.18-.533-.555-1.384-1.178-1.358-4.573.172-9.145.35-13.715.591q-6.917.365-13.848.467c-8.965.137-17.947-.212-26.9-.633q2.29-.352,4.579-.7c5.482-.842,10.95-1.9,16.461-2.469,2.932-.3,5.875-.556,8.8-.946,1.483-.2,2.955-.421,4.42-.754,1.575-.359,3.127-.849,4.675-1.342a1.424,1.424,0,0,0,1.13-.838,5.789,5.789,0,0,0,.743-2.573c1.568-.544,1.884-3.159,1.884-4.733a9.362,9.362,0,0,0-.407-2.837c-.272-.807-.791-1.951-1.7-1.962-4.76-.062-9.512-.425-14.271-.492-.558-.007-1.118-.011-1.676-.011-4.1,0-8.183.2-12.274.452q-13.669.832-27.33,1.968c-4.231.344-8.458.752-12.693,1.042-5.18.353-10.348.624-15.533.853-8.673.381-17.361.529-26.039.708-9.952.209-19.894.505-29.838,1.034-9.209.491-18.41,1.144-27.613,1.768q-13.86.934-27.722,1.871c-9.47.646-18.948,1.126-28.427,1.605-4.8.245-9.6.318-14.4.472-4.543.146-9.089.185-13.633.26-8.944.148-17.889.24-26.834.344-18.045.207-36.082.54-54.126.879q-14.868.283-29.733.6c-5.056.108-10.113.335-15.166.5-4.321.141-8.64.472-12.959.723q-6.9.4-13.792.862-4.1.269-8.206.544c-1.187.081-2.378.157-3.568.238-1.082.071-2.167.163-3.246.256a21.968,21.968,0,0,0-2.291.339,15.187,15.187,0,0,0-2.493.9,3.424,3.424,0,0,0-1.008,1.675,9.813,9.813,0,0,0,0,5.517l.444,1.01a1.54,1.54,0,0,0,1.211.9,23.7,23.7,0,0,0,2.833.785,1.531,1.531,0,0,0,1.207-.9,3.8,3.8,0,0,0,.278-.518c.505-.016,1.012-.015,1.519-.015.484,0,.968,0,1.456-.016q1.641-.041,3.277-.088,4.22-.113,8.44-.225c3.05-.084,6.1-.144,9.145-.2q-.473.047-.944.09c-7.2.637-14.4,1.276-21.589,2a3.393,3.393,0,0,0-2.659,1.977,12.5,12.5,0,0,0-1.633,5.011q-1.9-.022-3.795-.04c-.886-.009-1.062,1.743-1.062,2.416s.175,2.4,1.062,2.412c1.211.013,2.424.037,3.635.055a19.858,19.858,0,0,0,.819,4.466q.487,1.109.973,2.216a3.392,3.392,0,0,0,2.659,1.977C467.388,517.705,474.2,517.105,481.012,516.512Z" transform="translate(1568.567 -157.663)" fill="#fff"/>
    <path id="Trazado_2207" data-name="Trazado 2207" d="M29.579,46.849c1.824-.159,3.661-.4,5.49-.478q2.56-.107,5.117-.218c9.343-.394,18.682-.9,28.03-1.052,9.775-.163,19.554-.434,29.331-.461,9.978-.027,19.953-.075,29.929-.02q29.169.167,58.332.26,28.969.082,57.938-.04c9.586-.057,19.173-.319,28.755-.527,9.41-.205,18.811-.551,28.216-.954,2.067-.09,4.131-.264,6.2-.4,2.04-.136,4.084-.243,6.122-.419,5.231-.454,10.456-.935,15.682-1.473,9.1-.941,18.166-2.193,27.275-2.974,9.544-.82,19.108-1.287,28.662-1.953,4.313-.3,8.648-.675,12.93-1.338,4.895-.752,9.746-1.662,14.586-2.8,4.678-1.1,9.352-2.224,14.035-3.3,2.246-.52,4.5-.99,6.772-1.36,2.567-.419,5.112-.849,7.647-1.47,1.219-.3,1.459-2.14,1.459-3.324a6.594,6.594,0,0,0-.282-1.96c-.18-.533-.555-1.384-1.177-1.358-4.573.172-9.145.35-13.715.591q-6.918.365-13.848.467c-8.965.137-17.947-.212-26.9-.633q2.29-.351,4.58-.7c5.482-.842,10.95-1.9,16.461-2.469,2.933-.3,5.875-.556,8.8-.946,1.483-.2,2.955-.421,4.42-.754,1.575-.359,3.127-.849,4.674-1.342a1.423,1.423,0,0,0,1.129-.838,5.79,5.79,0,0,0,.743-2.573c1.568-.544,1.884-3.159,1.884-4.733a9.361,9.361,0,0,0-.407-2.837c-.272-.807-.791-1.951-1.7-1.962-4.76-.062-9.512-.425-14.271-.492C411.911,0,411.351,0,410.793,0c-4.1,0-8.183.2-12.274.452q-13.669.832-27.33,1.968c-4.231.344-8.458.752-12.693,1.042-5.18.353-10.348.624-15.532.853-8.673.381-17.361.529-26.04.708-9.952.209-19.893.505-29.838,1.034-9.209.491-18.41,1.144-27.613,1.768q-13.86.934-27.722,1.871c-9.47.646-18.948,1.126-28.427,1.605-4.8.245-9.6.318-14.4.472-4.543.146-9.089.185-13.633.26-8.944.148-17.889.24-26.834.344-18.045.207-36.082.54-54.126.879q-14.868.283-29.733.6c-5.056.108-10.113.335-15.166.5-4.321.141-8.64.472-12.959.723q-6.9.4-13.792.862-4.1.269-8.205.544c-1.187.081-2.377.157-3.568.238-1.083.071-2.167.163-3.246.256a21.963,21.963,0,0,0-2.291.339,15.184,15.184,0,0,0-2.493.9,3.423,3.423,0,0,0-1.009,1.675,9.814,9.814,0,0,0,0,5.517l.444,1.01a1.54,1.54,0,0,0,1.211.9,23.692,23.692,0,0,0,2.833.785,1.531,1.531,0,0,0,1.206-.9,3.814,3.814,0,0,0,.278-.518c.505-.016,1.012-.015,1.519-.015.484,0,.968,0,1.456-.016q1.641-.041,3.277-.088,4.22-.113,8.44-.225c3.05-.084,6.1-.145,9.145-.2q-.473.047-.944.09c-7.2.637-14.4,1.276-21.589,2a3.392,3.392,0,0,0-2.659,1.977,12.5,12.5,0,0,0-1.633,5.011q-1.9-.022-3.795-.04C.175,35.177,0,36.929,0,37.6S.175,40,1.062,40.015c1.211.013,2.424.037,3.635.055a19.867,19.867,0,0,0,.819,4.466q.487,1.109.973,2.216a3.392,3.392,0,0,0,2.659,1.977C15.956,48.042,22.766,47.442,29.579,46.849Z" transform="translate(2467.796 365.43) rotate(180)" fill="#fff"/>
  </g>
</svg>
