<svg xmlns="http://www.w3.org/2000/svg" width="298.899" height="54.777" viewBox="0 0 298.899 54.777">
  <path id="Trazado_2592" data-name="Trazado 2592" d="M455.652,434.09a73.672,73.672,0,0,1,11.937-1.759c2.257-.189,4.51-.319,6.773-.428,3.241-.155,6.472-.272,9.716-.346,6.176-.14,12.355-.193,18.534-.215,12.381-.042,24.749-.117,37.119-.7,12.828-.605,25.656-1.165,38.481-1.786,12.162-.589,24.322-1.177,36.487-1.627,12.184-.452,24.359-.853,36.53-1.594,12.454-.758,24.921-1.165,37.393-1.5,5.917-.155,11.852-.356,17.741-.966,3.074-.32,6.14-.679,9.208-1.058,3-.37,6.022-.614,9.037-.889a52.245,52.245,0,0,1,8.306.027,5.759,5.759,0,0,0,4.529-2.858q.831-1.6,1.66-3.207a26.581,26.581,0,0,0,0-17.5q-.83-1.6-1.66-3.207a5.759,5.759,0,0,0-4.529-2.858c-1.531.116-3.059.271-4.59.372-1.395.092-2.794.086-4.19.1-2.986.021-5.968.122-8.947.241-6.2.25-12.382.644-18.581.823-12.009.346-24.028.382-36.024,1.06-6.431.362-12.856.784-19.287,1.136-5.843.323-11.692.534-17.54.745q-18.67.666-37.322,1.625c-12.281.625-24.565,1.206-36.843,1.839q-10.183.523-20.369.967c-6.084.263-12.183.3-18.272.362-12.465.127-24.931.213-37.379.926-3.066.174-6.128.411-9.18.761-2.478.283-4.958.679-7.4,1.182a55.316,55.316,0,0,0-5.542,1.582,12.571,12.571,0,0,0-3.039,1.467,10.851,10.851,0,0,0-3.814,5.377,25.662,25.662,0,0,0-1.1,13.6,18.343,18.343,0,0,0,2.785,7.365q1.065,1.067,2.133,2.131a4.323,4.323,0,0,0,4.909,0A12.884,12.884,0,0,1,455.652,434.09Z" transform="translate(-427.57 -406.85) rotate(2)" fill="#fff"/>
</svg>
