<svg xmlns="http://www.w3.org/2000/svg" width="629.944" height="71.156" viewBox="0 0 629.944 71.156">
  <g id="Grupo_77927" data-name="Grupo 77927" transform="matrix(1, 0.017, -0.017, 1, -2013.279, -347.207)">
    <path id="Trazado_2206" data-name="Trazado 2206" d="M493.146,523.007c2.572-.181,5.163-.458,7.742-.544q3.61-.122,7.216-.248c13.175-.448,26.346-1.023,39.528-1.2,13.786-.185,27.576-.494,41.363-.525,14.072-.031,28.139-.085,42.207-.023q41.136.191,82.262.3,40.853.094,81.707-.046c13.518-.065,27.038-.363,40.551-.6,13.271-.233,26.528-.627,39.792-1.086,2.915-.1,5.825-.3,8.738-.452,2.876-.154,5.76-.277,8.634-.477q11.065-.775,22.115-1.678c12.829-1.071,25.618-2.5,38.465-3.387,13.459-.934,26.947-1.465,40.42-2.224,6.082-.342,12.2-.769,18.234-1.523,6.9-.857,13.745-1.892,20.571-3.184,6.6-1.248,13.189-2.532,19.792-3.76,3.167-.592,6.351-1.128,9.55-1.549,3.621-.477,7.209-.967,10.785-1.674,1.719-.342,2.058-2.436,2.058-3.785a6.18,6.18,0,0,0-.4-2.232c-.254-.606-.783-1.575-1.661-1.546-6.449.2-12.9.4-19.341.673q-9.755.416-19.529.531c-12.642.156-25.31-.242-37.94-.721q3.229-.4,6.458-.8c7.731-.959,15.442-2.163,23.214-2.811,4.135-.346,8.284-.634,12.409-1.077,2.091-.223,4.167-.479,6.234-.859,2.221-.409,4.41-.967,6.592-1.528a2.022,2.022,0,0,0,1.593-.955,5.684,5.684,0,0,0,1.048-2.93c2.212-.619,2.657-3.6,2.657-5.389a8.769,8.769,0,0,0-.575-3.23c-.383-.919-1.116-2.222-2.4-2.234-6.713-.071-13.414-.484-20.126-.561-.787-.008-1.577-.013-2.363-.013-5.775,0-11.54.231-17.309.515q-19.277.947-38.542,2.24c-5.966.392-11.927.857-17.9,1.186-7.3.4-14.593.711-21.9.971-12.231.433-24.483.6-36.722.807-14.035.238-28.054.575-42.078,1.177-12.987.559-25.962,1.3-38.941,2.013q-19.546,1.063-39.095,2.13c-13.355.736-26.721,1.282-40.089,1.828-6.763.279-13.536.363-20.3.538-6.406.167-12.817.211-19.226.3-12.613.169-25.228.273-37.843.392-25.448.236-50.884.615-76.33,1q-20.968.322-41.931.688c-7.13.123-14.262.381-21.387.569-6.093.16-12.184.538-18.275.823q-9.725.456-19.45.982-5.781.306-11.571.619-2.511.138-5.032.271c-1.527.081-3.055.186-4.578.292-1.089.075-2.157.219-3.23.386a24.921,24.921,0,0,0-3.516,1.023,3.856,3.856,0,0,0-1.422,1.907,9.119,9.119,0,0,0,0,6.281l.626,1.15a2.186,2.186,0,0,0,1.708,1.027,39.85,39.85,0,0,0,3.995.894,2.174,2.174,0,0,0,1.7-1.021,4.152,4.152,0,0,0,.392-.59c.712-.019,1.427-.017,2.142-.017.683,0,1.366,0,2.053-.019q2.314-.047,4.621-.1,5.952-.128,11.9-.256c4.3-.1,8.6-.165,12.9-.233q-.667.053-1.332.1c-10.153.725-20.3,1.453-30.445,2.282a4.817,4.817,0,0,0-3.75,2.251,12.45,12.45,0,0,0-2.3,5.706q-2.675-.025-5.352-.046c-1.25-.01-1.5,1.984-1.5,2.751s.247,2.734,1.5,2.747c1.708.015,3.419.042,5.127.063a18.766,18.766,0,0,0,1.155,5.085q.687,1.263,1.372,2.524a4.817,4.817,0,0,0,3.75,2.251C473.934,524.366,483.539,523.682,493.146,523.007Z" transform="translate(1568.567 -157.663)" fill="#fff"/>
    <path id="Trazado_2207" data-name="Trazado 2207" d="M41.713,53.344c2.572-.181,5.163-.458,7.742-.544q3.61-.122,7.216-.248c13.175-.448,26.346-1.023,39.528-1.2,13.786-.185,27.576-.494,41.363-.525,14.071-.031,28.138-.085,42.207-.023q41.136.191,82.262.3,40.853.094,81.706-.046c13.518-.065,27.038-.363,40.551-.6,13.271-.233,26.528-.627,39.792-1.086,2.915-.1,5.825-.3,8.738-.452,2.876-.154,5.76-.277,8.634-.477q11.066-.775,22.115-1.678c12.828-1.071,25.618-2.5,38.465-3.387,13.459-.934,26.947-1.465,40.42-2.224,6.082-.342,12.2-.769,18.234-1.523,6.9-.857,13.745-1.892,20.57-3.184,6.6-1.248,13.189-2.532,19.793-3.76,3.167-.592,6.352-1.128,9.55-1.549,3.62-.477,7.209-.967,10.784-1.674,1.719-.342,2.057-2.436,2.057-3.785a6.178,6.178,0,0,0-.4-2.232c-.254-.606-.783-1.575-1.66-1.546-6.449.2-12.9.4-19.341.673q-9.756.416-19.529.531c-12.642.156-25.309-.242-37.94-.721q3.229-.4,6.458-.8c7.731-.959,15.442-2.163,23.213-2.811,4.136-.346,8.285-.634,12.409-1.077,2.092-.223,4.167-.479,6.234-.859,2.221-.408,4.41-.967,6.592-1.528a2.021,2.021,0,0,0,1.593-.955,5.69,5.69,0,0,0,1.048-2.93c2.212-.619,2.656-3.6,2.656-5.389a8.773,8.773,0,0,0-.574-3.23c-.383-.919-1.116-2.222-2.4-2.234C595.091.5,588.39.09,581.678.013,580.891,0,580.1,0,579.314,0c-5.775,0-11.54.231-17.308.515q-19.276.947-38.541,2.24c-5.966.392-11.928.857-17.9,1.186-7.3.4-14.593.711-21.9.971-12.232.433-24.484.6-36.722.807-14.035.238-28.054.575-42.078,1.177-12.987.559-25.963,1.3-38.941,2.013q-19.545,1.063-39.095,2.13c-13.355.736-26.721,1.282-40.089,1.828-6.762.279-13.536.363-20.3.538-6.406.167-12.817.211-19.225.3-12.613.169-25.228.273-37.843.392-25.448.236-50.884.615-76.33,1q-20.968.322-41.931.688c-7.13.123-14.262.381-21.387.569-6.093.16-12.184.538-18.275.823q-9.725.456-19.45.982-5.781.306-11.572.619-2.511.138-5.031.271c-1.527.081-3.056.186-4.578.292-1.089.075-2.157.219-3.23.386a24.932,24.932,0,0,0-3.516,1.023A3.856,3.856,0,0,0,2.64,22.652a9.119,9.119,0,0,0,0,6.281l.626,1.15a2.185,2.185,0,0,0,1.708,1.027A39.838,39.838,0,0,0,8.97,32a2.173,2.173,0,0,0,1.7-1.021,4.155,4.155,0,0,0,.392-.59c.712-.019,1.427-.017,2.142-.017.683,0,1.366,0,2.053-.019q2.314-.047,4.621-.1,5.951-.128,11.9-.256c4.3-.1,8.6-.165,12.9-.233q-.667.053-1.332.1c-10.154.725-20.3,1.453-30.445,2.282A4.817,4.817,0,0,0,9.151,34.4a12.451,12.451,0,0,0-2.3,5.706q-2.675-.025-5.351-.046C.247,40.054,0,42.048,0,42.815s.247,2.734,1.5,2.747c1.708.015,3.419.042,5.127.063A18.772,18.772,0,0,0,7.779,50.71q.687,1.263,1.372,2.524a4.817,4.817,0,0,0,3.75,2.251C22.5,54.7,32.106,54.019,41.713,53.344Z" transform="translate(2649.154 372.185) rotate(180)" fill="#fff"/>
  </g>
</svg>
