<svg xmlns="http://www.w3.org/2000/svg" width="34.314" height="30.56" viewBox="0 0 34.314 30.56">
  <path id="Trazado_2742" data-name="Trazado 2742" d="M15.222,15.118c-2.61-.93-2.61-.93-5.375-6.954-.33,2.57-.6,4.392-.789,6.221-.205,1.961-.391,3.928-.489,5.9-.133,2.667-.135,5.34-.273,8.006-.055,1.055.405,2.676-1.364,2.645-1.566-.028-1.563-1.59-1.545-2.675.067-3.939.212-7.881.467-11.813.142-2.186.558-4.354.9-6.916C3.99,11.759,3.388,15.424,0,17.266a9.7,9.7,0,0,1,.178-2.617A47.787,47.787,0,0,1,7.934,1.515a5.443,5.443,0,0,1,1-.968c1.4-.97,2.884-.647,3.35.96C13.5,5.729,14.551,10,15.642,14.267,15.684,14.43,15.455,14.663,15.222,15.118Z" transform="matrix(-0.574, 0.819, -0.819, -0.574, 34.314, 17.743)" fill="#fff"/>
</svg>
