<svg xmlns="http://www.w3.org/2000/svg" width="614.809" height="75.429" viewBox="0 0 614.809 75.429">
  <g id="Grupo_77977" data-name="Grupo 77977" transform="translate(684.309 321.694) rotate(180)">
    <path id="Trazado_2669" data-name="Trazado 2669" d="M492.568,530.549c2.537-.207,5.092-.523,7.635-.621q3.56-.139,7.116-.283c12.993-.511,25.981-1.168,38.981-1.368,13.595-.212,27.194-.564,40.791-.6,13.876-.036,27.749-.1,41.623-.026q40.566.218,81.123.338,40.287.107,80.575-.052c13.331-.074,26.664-.414,39.99-.685,13.087-.266,26.16-.716,39.24-1.239,2.875-.116,5.745-.342,8.617-.516,2.836-.176,5.68-.316,8.514-.545q10.913-.885,21.809-1.915c12.651-1.223,25.263-2.85,37.932-3.865,13.273-1.066,26.574-1.672,39.86-2.538,6-.39,12.026-.878,17.981-1.739,6.808-.978,13.555-2.16,20.286-3.635,6.505-1.425,13.006-2.89,19.519-4.291,3.123-.675,6.264-1.287,9.417-1.767,3.571-.545,7.11-1.1,10.635-1.91,1.7-.39,2.029-2.781,2.029-4.32a8.053,8.053,0,0,0-.391-2.548c-.251-.692-.772-1.8-1.638-1.765-6.36.224-12.718.454-19.073.768q-9.62.475-19.259.607c-12.467.178-24.959-.276-37.415-.823q3.184-.457,6.369-.909c7.624-1.094,15.228-2.469,22.892-3.209,4.078-.395,8.17-.723,12.237-1.23,2.063-.254,4.109-.547,6.147-.98,2.19-.466,4.349-1.1,6.5-1.744a1.972,1.972,0,0,0,1.571-1.089,7.163,7.163,0,0,0,1.033-3.345c2.181-.706,2.62-4.106,2.62-6.151a11.44,11.44,0,0,0-.566-3.687c-.378-1.049-1.1-2.536-2.367-2.55-6.619-.081-13.228-.552-19.847-.64q-1.165-.014-2.331-.014c-5.7,0-11.38.264-17.069.588q-19.009,1.081-38.008,2.557c-5.884.447-11.763.978-17.653,1.353-7.2.459-14.391.811-21.6,1.109-12.062.495-24.145.687-36.214.921-13.841.271-27.666.657-41.5,1.344-12.807.638-25.6,1.487-38.4,2.3q-19.274,1.213-38.553,2.431c-13.17.84-26.351,1.463-39.534,2.086-6.669.319-13.348.414-20.021.614-6.318.19-12.64.24-18.959.338-12.438.193-24.878.312-37.319.447-25.1.269-50.179.7-75.273,1.142q-20.677.367-41.35.785c-7.031.14-14.064.435-21.091.649-6.009.183-12.015.614-18.022.94q-9.59.521-19.181,1.12-5.7.35-11.411.707c-1.651.1-3.306.2-4.962.309-1.506.093-3.013.212-4.514.333-1.074.086-2.128.25-3.186.44a22.117,22.117,0,0,0-3.467,1.168,4.408,4.408,0,0,0-1.4,2.177,11.953,11.953,0,0,0,0,7.169l.617,1.313a2.134,2.134,0,0,0,1.685,1.173,34.788,34.788,0,0,0,3.939,1.02,2.121,2.121,0,0,0,1.678-1.166,4.848,4.848,0,0,0,.387-.673c.7-.021,1.407-.019,2.112-.019.673,0,1.347,0,2.025-.021q2.282-.054,4.557-.114,5.869-.146,11.738-.293c4.241-.109,8.478-.188,12.718-.266q-.658.061-1.313.117c-10.013.828-20.019,1.658-30.024,2.6a4.7,4.7,0,0,0-3.7,2.569,15.525,15.525,0,0,0-2.271,6.513q-2.637-.028-5.277-.052c-1.233-.012-1.476,2.265-1.476,3.14s.244,3.121,1.476,3.135c1.685.017,3.371.048,5.056.071a24.313,24.313,0,0,0,1.139,5.8q.678,1.441,1.353,2.881a4.7,4.7,0,0,0,3.7,2.569C473.622,532.1,483.094,531.32,492.568,530.549Z" transform="translate(-381.932 -223.398)" fill="#ffd64f"/>
    <path id="Trazado_2670" data-name="Trazado 2670" d="M468.32,434c7.79-.985,15.955-1.421,23.945-1.755,4.528-.189,9.047-.318,13.586-.427,6.5-.155,12.982-.271,19.489-.345q18.583-.21,37.176-.214c24.835-.042,49.644-.117,74.456-.7q38.6-.906,77.188-1.782c24.394-.588,48.786-1.175,73.189-1.624,24.44-.451,48.861-.851,73.274-1.591,24.981-.756,49.987-1.162,75.006-1.492,11.868-.155,23.774-.355,35.586-.964q9.249-.479,18.469-1.056c6.025-.369,12.08-.613,18.128-.887,5.579-.252,11.077-.161,16.66.027q5.98-.32,9.085-2.852,1.668-1.6,3.331-3.2a14.313,14.313,0,0,0,0-17.46q-1.664-1.6-3.331-3.2-3.1-2.533-9.085-2.852c-3.07.116-6.135.27-9.205.371-2.8.092-5.6.086-8.4.1-5.989.021-11.97.122-17.947.241-12.43.249-24.838.643-37.272.821-24.088.345-48.2.381-72.258,1.058-12.9.361-25.787.782-38.687,1.134-11.72.322-23.453.533-35.184.743q-37.45.665-74.862,1.622-36.95.936-73.9,1.835-20.425.522-40.857.965c-12.2.263-24.438.3-36.651.361-25,.127-50.008.213-74.977.924-6.15.174-12.291.41-18.413.759-4.971.282-9.945.678-14.841,1.18-3.787.388-7.442,1-11.117,1.579a40.13,40.13,0,0,0-6.1,1.464q-5.524,2.106-7.65,5.366a13.79,13.79,0,0,0-2.213,13.57,14.871,14.871,0,0,0,5.585,7.349q2.136,1.065,4.278,2.126a16.271,16.271,0,0,0,9.847,0A40.185,40.185,0,0,1,468.32,434Z" transform="translate(-364.286 -114.258)" fill="#ffd64f"/>
  </g>
</svg>
