<svg xmlns="http://www.w3.org/2000/svg" width="212.146" height="63.492" viewBox="0 0 212.146 63.492">
  <g id="Grupo_77976" data-name="Grupo 77976" transform="translate(-78.771 -264.057)">
    <path id="Trazado_2669" data-name="Trazado 2669" d="M462.993,495.259c.713-.087,1.431-.22,2.146-.261l2-.119c3.651-.215,7.3-.491,10.954-.575,3.82-.089,7.642-.237,11.463-.252,3.9-.015,7.8-.041,11.7-.011q11.4.092,22.8.142c7.548.03,15.1.036,22.643-.022,3.746-.031,7.493-.174,11.238-.288,3.678-.112,7.351-.3,11.027-.521.808-.049,1.614-.144,2.422-.217s1.6-.133,2.393-.229c2.044-.248,4.086-.511,6.129-.8,3.555-.514,7.1-1.2,10.659-1.625,3.73-.448,7.468-.7,11.2-1.067a44,44,0,0,0,5.053-.731,56.022,56.022,0,0,0,5.7-1.528c1.828-.6,3.655-1.215,5.485-1.8.878-.284,1.76-.541,2.647-.743a29.161,29.161,0,0,0,2.989-.8c.477-.164.57-1.169.57-1.816a4.941,4.941,0,0,0-.11-1.071c-.07-.291-.217-.756-.46-.742-1.787.094-3.574.191-5.36.323q-2.7.2-5.412.255c-3.5.075-7.014-.116-10.514-.346l1.79-.382c2.142-.46,4.279-1.038,6.433-1.349,1.146-.166,2.3-.3,3.439-.517a14.117,14.117,0,0,0,1.728-.412,18.022,18.022,0,0,0,1.827-.733q.291-.05.441-.458a4.147,4.147,0,0,0,.29-1.406c.613-.3.736-1.726.736-2.586a7.026,7.026,0,0,0-.159-1.55c-.106-.441-.309-1.066-.665-1.072-1.86-.034-3.717-.232-5.577-.269-.218,0-.437-.006-.655-.006-1.6,0-3.2.111-4.8.247q-5.342.455-10.681,1.075c-1.653.188-3.305.411-4.961.569-2.024.193-4.044.341-6.07.466-3.39.208-6.785.289-10.177.387-3.889.114-7.775.276-11.661.565-3.6.268-7.195.625-10.791.966s-7.223.677-10.834,1.022c-3.7.353-7.4.615-11.11.877-1.874.134-3.751.174-5.626.258-1.775.08-3.552.1-5.328.142-3.5.081-6.991.131-10.487.188-7.052.113-14.1.3-21.153.48q-5.811.154-11.62.33c-1.976.059-3.952.183-5.927.273-1.689.077-3.377.258-5.064.4-1.8.146-3.593.307-5.39.471-1.068.1-2.137.2-3.207.3l-1.394.13c-.423.039-.847.089-1.269.14a6.337,6.337,0,0,0-.9.185,4.97,4.97,0,0,0-.974.491,2.1,2.1,0,0,0-.394.915,7.419,7.419,0,0,0,0,3.014l.173.552c.108.292.266.456.473.493a7.32,7.32,0,0,0,1.107.429c.206-.036.364-.2.471-.49a2.442,2.442,0,0,0,.109-.283c.2-.009.4-.008.593-.008s.378,0,.569-.009q.641-.023,1.281-.048l3.3-.123c1.192-.046,2.383-.079,3.574-.112l-.369.049c-2.814.348-5.626.7-8.437,1.1q-.683.121-1.039,1.08a8.833,8.833,0,0,0-.638,2.738q-.741-.012-1.483-.022c-.346-.005-.415.952-.415,1.32s.068,1.312.415,1.318c.473.007.947.02,1.421.03a14.8,14.8,0,0,0,.32,2.44q.191.606.38,1.211.357.959,1.039,1.08C457.669,495.911,460.33,495.583,462.993,495.259Z" transform="translate(-333.286 -205.606)" fill="#ffd64f"/>
    <path id="Trazado_2670" data-name="Trazado 2670" d="M450.873,439.6a27.069,27.069,0,0,1,7.407-1.987c1.4-.214,2.8-.36,4.2-.483,2.011-.175,4.016-.307,6.029-.391,3.832-.158,7.667-.218,11.5-.242,7.683-.048,15.358-.132,23.034-.791,7.96-.684,15.92-1.317,23.878-2.017,7.547-.666,15.092-1.33,22.641-1.839s15.115-.963,22.668-1.8c7.728-.856,15.464-1.315,23.2-1.689a79.586,79.586,0,0,0,11.009-1.091c1.908-.361,3.81-.768,5.714-1.2,1.864-.418,3.737-.694,5.608-1a17.872,17.872,0,0,1,5.154.031q1.85-.362,2.811-3.229.516-1.812,1.03-3.623a53.6,53.6,0,0,0,0-19.766q-.515-1.81-1.03-3.623-.96-2.868-2.811-3.229c-.95.131-1.9.306-2.848.42a24.058,24.058,0,0,1-2.6.108c-1.853.024-3.7.138-5.552.273-3.845.282-7.684.728-11.53.929-7.452.391-14.91.431-22.353,1.2-3.991.409-7.977.885-11.968,1.284-3.626.365-7.255.6-10.884.841q-11.585.752-23.159,1.836c-7.62.706-15.243,1.362-22.862,2.077q-6.319.591-12.639,1.092c-3.775.3-7.56.339-11.338.409-7.735.144-15.47.241-23.195,1.046a56.154,56.154,0,0,0-5.7.859,31.082,31.082,0,0,0-4.591,1.336,24.009,24.009,0,0,0-3.439,1.788,7.4,7.4,0,0,0-1.886,1.657,14.74,14.74,0,0,0-2.367,6.075,51.758,51.758,0,0,0-.685,15.362,32.629,32.629,0,0,0,1.728,8.32q.661,1.206,1.323,2.407a1.775,1.775,0,0,0,3.046,0A7.909,7.909,0,0,1,450.873,439.6Z" transform="translate(-364.286 -114.258)" fill="#ffd64f"/>
  </g>
</svg>
