<svg xmlns="http://www.w3.org/2000/svg" width="349.16" height="48.199" viewBox="0 0 349.16 48.199">
  <g id="Grupo_78268" data-name="Grupo 78268" transform="translate(349.16 48.199) rotate(180)">
    <path id="Trazado_2669" data-name="Trazado 2669" d="M20.81,17.975c1.283-.061,2.576-.155,3.863-.183l3.6-.084c6.573-.151,13.144-.345,19.72-.4,6.877-.062,13.757-.166,20.636-.177,7.02-.011,14.038-.029,21.057-.008q20.522.064,41.039.1,20.381.032,40.762-.015c6.744-.022,13.489-.122,20.231-.2q9.931-.118,19.851-.366c1.454-.034,2.906-.1,4.359-.152,1.435-.052,2.873-.093,4.307-.161q5.521-.261,11.033-.565c6.4-.361,12.78-.841,19.189-1.141,6.714-.315,13.444-.494,20.165-.749,3.034-.115,6.084-.259,9.1-.513,3.444-.289,6.857-.638,10.262-1.073,3.291-.421,6.58-.853,9.874-1.267,1.58-.2,3.169-.38,4.764-.522,1.806-.161,3.6-.326,5.38-.564a1.168,1.168,0,0,0,1.026-1.275,1.5,1.5,0,0,0-.2-.752A.975.975,0,0,0,310,7.379c-3.218.066-6.434.134-9.649.227q-4.867.14-9.743.179c-6.307.053-12.627-.081-18.928-.243l3.222-.268c3.857-.323,7.7-.729,11.581-.947,2.063-.117,4.133-.213,6.19-.363,1.044-.075,2.079-.162,3.11-.289,1.108-.138,2.2-.326,3.289-.515a1.151,1.151,0,0,0,.795-.322,1.586,1.586,0,0,0,.523-.987,1.7,1.7,0,0,0,1.325-1.816,2.126,2.126,0,0,0-.286-1.089,1.417,1.417,0,0,0-1.2-.753C296.882.169,293.539.03,290.19,0c-.393,0-.787,0-1.179,0-2.881,0-5.757.078-8.635.173q-9.617.319-19.228.755c-2.976.132-5.951.289-8.93.4-3.644.136-7.28.239-10.928.327-6.1.146-12.215.2-18.32.272-7,.08-14,.194-20.992.4-6.479.188-12.953.439-19.427.678q-9.751.358-19.5.718c-6.662.248-13.331.432-20,.616-3.374.094-6.753.122-10.129.181-3.2.056-6.394.071-9.591.1q-9.439.085-18.879.132-19.043.119-38.08.337-10.461.109-20.919.232c-3.557.041-7.115.129-10.67.192-3.04.054-6.078.181-9.117.277q-4.852.154-9.7.331l-5.773.209-2.51.091c-.762.027-1.524.063-2.284.1-.543.025-1.076.074-1.612.13a17.255,17.255,0,0,0-1.754.345,1.491,1.491,0,0,0-.71.643,2.151,2.151,0,0,0,0,2.117l.312.388a1.244,1.244,0,0,0,.852.346c.661.116,1.314.231,1.993.3a1.238,1.238,0,0,0,.849-.344,1.509,1.509,0,0,0,.2-.2c.355-.006.712-.006,1.068-.006.341,0,.681,0,1.024-.006L9.917,10.2l5.938-.086q3.218-.048,6.434-.079l-.664.034c-5.066.244-10.128.489-15.189.769a2.744,2.744,0,0,0-1.871.758,3.6,3.6,0,0,0-1.149,1.923L.747,13.5c-.624,0-.747.669-.747.927s.123.921.747.926c.852,0,1.706.014,2.558.021a4.672,4.672,0,0,0,.576,1.714q.343.426.685.85a2.744,2.744,0,0,0,1.871.758C11.225,18.433,16.017,18.2,20.81,17.975Z" transform="translate(24.958 0)" fill="#ffd64f"/>
    <path id="Trazado_2670" data-name="Trazado 2670" d="M14.78,37.14A114.26,114.26,0,0,1,28.788,35.6c2.649-.166,5.293-.279,7.948-.374,3.8-.136,7.6-.238,11.4-.3,7.248-.123,14.5-.169,21.75-.188,14.53-.037,29.044-.1,43.561-.613,15.054-.529,30.107-1.019,45.159-1.562,14.272-.515,28.542-1.03,42.819-1.423,14.3-.4,28.586-.746,42.869-1.394,14.615-.663,29.245-1.019,43.882-1.308,6.943-.136,13.909-.311,20.819-.845q5.411-.419,10.806-.926c3.525-.323,7.068-.537,10.606-.777a82.2,82.2,0,0,1,9.747.024,7.264,7.264,0,0,0,5.315-2.5l1.949-2.8a16.928,16.928,0,0,0,1.738-7.651A16.93,16.93,0,0,0,347.42,5.3l-1.949-2.8A7.264,7.264,0,0,0,340.157,0c-1.8.1-3.589.237-5.386.325-1.637.081-3.279.075-4.917.083-3.5.018-7,.107-10.5.211-7.272.218-14.531.564-21.806.72-14.093.3-28.2.334-42.275.927-7.548.316-15.087.685-22.634.994-6.857.282-13.721.467-20.584.651q-21.91.582-43.8,1.422c-14.412.547-28.827,1.054-43.237,1.608q-11.95.458-23.9.846c-7.14.231-14.3.262-21.443.316-14.628.111-29.257.187-43.865.81-3.6.153-7.191.359-10.773.665-2.908.247-5.818.594-8.683,1.034-2.215.34-4.354.876-6.5,1.384a17.327,17.327,0,0,0-3.566,1.283,10.1,10.1,0,0,0-4.476,4.7A17.1,17.1,0,0,0,.513,29.878a13.866,13.866,0,0,0,3.268,6.441q1.25.934,2.5,1.863a6.539,6.539,0,0,0,5.761,0A17.526,17.526,0,0,1,14.78,37.14Z" transform="translate(0 9.348)" fill="#ffd64f"/>
  </g>
</svg>
