<svg xmlns="http://www.w3.org/2000/svg" width="349.595" height="65.552" viewBox="0 0 349.595 65.552">
  <g id="Grupo_78276" data-name="Grupo 78276" transform="matrix(0.999, 0.035, -0.035, 0.999, -2006.18, -382.307)">
    <path id="Trazado_2206" data-name="Trazado 2206" d="M474.353,516.512c1.413-.159,2.837-.4,4.254-.478,1.322-.071,2.645-.146,3.965-.218,7.239-.394,14.476-.9,21.719-1.052,7.575-.163,15.152-.434,22.728-.461,7.732-.028,15.461-.075,23.191-.02q22.6.167,45.2.26,22.448.082,44.895-.04c7.427-.057,14.856-.318,22.281-.527,7.292-.205,14.576-.551,21.864-.954,1.6-.09,3.2-.264,4.8-.4,1.581-.136,3.165-.243,4.744-.419,4.053-.454,8.1-.935,12.151-1.473,7.049-.941,14.076-2.193,21.135-2.974,7.395-.82,14.806-1.287,22.209-1.953a94.071,94.071,0,0,0,10.019-1.338c3.793-.752,7.552-1.662,11.3-2.8,3.625-1.1,7.247-2.224,10.875-3.3,1.74-.52,3.49-.99,5.248-1.36,1.989-.419,3.961-.849,5.926-1.47.945-.3,1.131-2.14,1.131-3.324a8.384,8.384,0,0,0-.218-1.96c-.14-.533-.43-1.384-.912-1.358-3.544.172-7.086.35-10.627.591q-5.36.365-10.731.467c-6.946.137-13.907-.212-20.847-.633,1.183-.234,2.366-.465,3.549-.7,4.248-.842,8.485-1.9,12.755-2.469,2.272-.3,4.552-.556,6.818-.946a29.96,29.96,0,0,0,3.425-.754,37.522,37.522,0,0,0,3.622-1.342,1.173,1.173,0,0,0,.875-.838,7.09,7.09,0,0,0,.576-2.573c1.215-.544,1.46-3.159,1.46-4.733a11.907,11.907,0,0,0-.316-2.837c-.211-.807-.613-1.951-1.319-1.962-3.689-.062-7.37-.425-11.059-.492-.433-.007-.866-.011-1.3-.011-3.173,0-6.341.2-9.511.452q-10.592.832-21.177,1.968c-3.278.344-6.554.752-9.836,1.042-4.014.353-8.019.624-12.036.853-6.721.381-13.453.529-20.177.708-7.712.209-15.415.505-23.121,1.034-7.136.491-14.266,1.144-21.4,1.768q-10.74.934-21.481,1.871c-7.338.646-14.682,1.126-22.027,1.605-3.716.245-7.437.318-11.156.472-3.52.146-7.042.185-10.564.26-6.93.148-13.862.24-20.793.344-13.983.207-27.959.54-41.941.879q-11.521.283-23.039.6c-3.918.108-7.837.335-11.752.5-3.348.141-6.695.472-10.042.723-3.562.267-7.125.562-10.687.862q-3.177.269-6.358.544c-.92.081-1.842.157-2.765.238-.839.071-1.679.163-2.515.256a13.48,13.48,0,0,0-1.775.339,10.193,10.193,0,0,0-1.932.9,3.707,3.707,0,0,0-.781,1.675,12.563,12.563,0,0,0,0,5.517l.344,1.01a1.271,1.271,0,0,0,.939.9,15.268,15.268,0,0,0,2.195.785,1.262,1.262,0,0,0,.935-.9,4.26,4.26,0,0,0,.215-.518c.391-.016.784-.015,1.177-.015.375,0,.75,0,1.128-.016q1.271-.041,2.539-.088,3.27-.113,6.54-.225c2.363-.084,4.724-.144,7.086-.2-.244.031-.488.06-.732.09-5.579.637-11.154,1.276-16.729,2a2.8,2.8,0,0,0-2.06,1.977,15.148,15.148,0,0,0-1.265,5.011q-1.47-.022-2.94-.04c-.687-.009-.823,1.743-.823,2.416s.136,2.4.823,2.412c.939.013,1.879.037,2.817.055a25.09,25.09,0,0,0,.635,4.466q.377,1.109.754,2.216a2.8,2.8,0,0,0,2.06,1.977C463.8,517.705,469.074,517.105,474.353,516.512Z" transform="translate(1568.567 -157.663)" fill="#fff"/>
    <path id="Trazado_2207" data-name="Trazado 2207" d="M22.92,46.849c1.413-.159,2.837-.4,4.254-.478,1.322-.071,2.645-.146,3.965-.218,7.239-.394,14.476-.9,21.719-1.052,7.575-.163,15.152-.434,22.728-.461,7.732-.027,15.461-.075,23.191-.02q22.6.167,45.2.26,22.447.082,44.895-.04c7.428-.057,14.856-.319,22.282-.527,7.292-.205,14.576-.551,21.864-.954,1.6-.09,3.2-.264,4.8-.4,1.58-.136,3.165-.243,4.744-.419,4.054-.454,8.1-.935,12.152-1.473,7.049-.941,14.076-2.193,21.135-2.974,7.4-.82,14.807-1.287,22.209-1.953A94.066,94.066,0,0,0,308.078,34.8c3.793-.752,7.552-1.662,11.3-2.8,3.625-1.1,7.247-2.224,10.875-3.3,1.74-.52,3.49-.99,5.247-1.36,1.989-.419,3.961-.849,5.926-1.47.945-.3,1.131-2.14,1.131-3.324a8.39,8.39,0,0,0-.218-1.96c-.14-.533-.43-1.384-.912-1.358-3.544.172-7.086.35-10.627.591q-5.36.365-10.731.467c-6.947.137-13.907-.212-20.847-.633,1.183-.234,2.366-.465,3.549-.7,4.248-.842,8.485-1.9,12.755-2.469,2.272-.3,4.552-.556,6.818-.946a29.966,29.966,0,0,0,3.425-.754,37.527,37.527,0,0,0,3.622-1.342,1.173,1.173,0,0,0,.875-.838,7.089,7.089,0,0,0,.576-2.573c1.215-.544,1.46-3.159,1.46-4.733a11.9,11.9,0,0,0-.315-2.837c-.211-.807-.613-1.951-1.319-1.962C326.982.441,323.3.079,319.612.011Q318.963,0,318.313,0c-3.173,0-6.341.2-9.51.452q-10.592.832-21.177,1.968c-3.278.344-6.554.752-9.836,1.042-4.013.353-8.018.624-12.036.853-6.721.381-13.453.529-20.178.708-7.712.209-15.415.505-23.12,1.034-7.136.491-14.266,1.144-21.4,1.768Q190.32,8.758,179.578,9.7c-7.338.646-14.682,1.126-22.027,1.605-3.716.245-7.438.318-11.156.472-3.52.146-7.042.185-10.564.26-6.93.148-13.862.24-20.793.344-13.983.207-27.959.54-41.941.879q-11.521.283-23.039.6c-3.918.108-7.836.335-11.752.5-3.348.141-6.695.472-10.041.723-3.562.267-7.125.562-10.687.862q-3.177.269-6.358.544c-.92.081-1.842.157-2.765.238-.839.071-1.679.163-2.515.256a13.475,13.475,0,0,0-1.775.339,10.19,10.19,0,0,0-1.932.9,3.706,3.706,0,0,0-.782,1.675,12.563,12.563,0,0,0,0,5.517l.344,1.01a1.27,1.27,0,0,0,.939.9,15.257,15.257,0,0,0,2.195.785,1.261,1.261,0,0,0,.935-.9,4.273,4.273,0,0,0,.216-.518c.391-.016.784-.015,1.177-.015.375,0,.75,0,1.128-.016q1.271-.041,2.539-.088,3.27-.113,6.54-.225c2.363-.084,4.724-.145,7.086-.2-.244.031-.489.06-.732.09-5.579.637-11.154,1.276-16.729,2a2.8,2.8,0,0,0-2.06,1.977,15.144,15.144,0,0,0-1.265,5.011q-1.47-.022-2.94-.04C.136,35.177,0,36.929,0,37.6s.136,2.4.823,2.412c.939.013,1.878.037,2.817.055a25.109,25.109,0,0,0,.634,4.466q.378,1.109.754,2.216a2.8,2.8,0,0,0,2.06,1.977C12.364,48.042,17.641,47.442,22.92,46.849Z" transform="translate(2368.271 365.43) rotate(180)" fill="#fff"/>
  </g>
</svg>
