<svg xmlns="http://www.w3.org/2000/svg" width="698.908" height="65.608" viewBox="0 0 698.908 65.608">
  <g id="Grupo_77999" data-name="Grupo 77999" transform="matrix(1, 0.017, -0.017, 1, -2013.397, -347.206)">
    <path id="Trazado_2206" data-name="Trazado 2206" d="M497.769,516.512c2.857-.159,5.735-.4,8.6-.478q4.01-.107,8.016-.218c14.635-.394,29.266-.9,43.909-1.052,15.313-.163,30.632-.434,45.947-.461,15.631-.028,31.257-.075,46.885-.02q45.695.167,91.379.26,45.381.082,90.762-.04c15.016-.057,30.035-.318,45.045-.527,14.741-.205,29.468-.551,44.2-.954,3.238-.09,6.471-.264,9.706-.4,3.2-.136,6.4-.243,9.591-.419q12.292-.681,24.566-1.473c14.25-.941,28.458-2.193,42.728-2.974,14.95-.82,29.933-1.287,44.9-1.953,6.756-.3,13.547-.675,20.255-1.338,7.668-.752,15.268-1.662,22.851-2.8,7.328-1.1,14.65-2.224,21.986-3.3,3.518-.52,7.056-.99,10.609-1.36,4.022-.419,8.008-.849,11.98-1.47,1.91-.3,2.286-2.14,2.286-3.324a4.428,4.428,0,0,0-.441-1.96,2.185,2.185,0,0,0-1.845-1.358c-7.164.172-14.326.35-21.485.591q-10.836.365-21.694.467c-14.043.137-28.114-.212-42.145-.633q3.588-.352,7.174-.7c8.588-.842,17.153-1.9,25.786-2.469,4.594-.3,9.2-.556,13.784-.946,2.323-.2,4.629-.421,6.924-.754,2.467-.359,4.9-.849,7.323-1.342a2.391,2.391,0,0,0,1.769-.838,4.393,4.393,0,0,0,1.164-2.573c2.457-.544,2.951-3.159,2.951-4.733a6.288,6.288,0,0,0-.638-2.837,3.176,3.176,0,0,0-2.666-1.962c-7.457-.062-14.9-.425-22.357-.492-.875-.007-1.751-.011-2.625-.011-6.416,0-12.818.2-19.227.452q-21.413.832-42.813,1.968c-6.627.344-13.249.752-19.884,1.042-8.115.353-16.211.624-24.332.853-13.587.381-27.2.529-40.792.708-15.591.209-31.164.505-46.742,1.034-14.426.491-28.84,1.144-43.256,1.768q-21.712.934-43.427,1.871c-14.835.646-29.682,1.126-44.532,1.605-7.512.245-15.036.318-22.553.472-7.116.146-14.237.185-21.356.26q-21.016.222-42.037.344-42.4.31-84.789.879-23.291.283-46.577.6c-7.92.108-15.843.335-23.758.5-6.769.141-13.535.472-20.3.723q-10.8.4-21.605.862-6.422.269-12.854.544-2.79.121-5.589.238c-1.7.071-3.394.163-5.085.256-1.209.066-2.4.192-3.588.339a33.491,33.491,0,0,0-3.906.9,3.584,3.584,0,0,0-1.58,1.675,6.448,6.448,0,0,0,0,5.517l.7,1.01a2.584,2.584,0,0,0,1.9.9c1.472.3,2.926.6,4.437.785a2.572,2.572,0,0,0,1.89-.9,3.7,3.7,0,0,0,.436-.518c.791-.016,1.585-.015,2.379-.015.758,0,1.517,0,2.28-.016q2.57-.041,5.133-.088,6.611-.113,13.222-.225,7.167-.126,14.325-.2-.741.047-1.479.09c-11.279.637-22.55,1.276-33.819,2a5.7,5.7,0,0,0-4.166,1.977,9.813,9.813,0,0,0-2.557,5.011q-2.971-.022-5.945-.04c-1.388-.009-1.663,1.743-1.663,2.416s.275,2.4,1.663,2.412c1.9.013,3.8.037,5.7.055a13.635,13.635,0,0,0,1.283,4.466q.763,1.109,1.524,2.216a5.7,5.7,0,0,0,4.166,1.977C476.428,517.705,487.1,517.105,497.769,516.512Z" transform="translate(1568.567 -157.663)" fill="#fff"/>
    <path id="Trazado_2207" data-name="Trazado 2207" d="M46.336,46.849c2.858-.159,5.735-.4,8.6-.478q4.01-.107,8.016-.218c14.635-.394,29.266-.9,43.909-1.052,15.313-.163,30.632-.434,45.948-.461,15.631-.027,31.257-.075,46.885-.02q45.694.167,91.379.26,45.38.082,90.761-.04c15.016-.057,30.035-.319,45.045-.527,14.741-.205,29.468-.551,44.2-.954,3.238-.09,6.471-.264,9.707-.4,3.2-.136,6.4-.243,9.591-.419q12.292-.681,24.566-1.473c14.25-.941,28.457-2.193,42.727-2.974,14.951-.82,29.934-1.287,44.9-1.953,6.756-.3,13.547-.675,20.255-1.338,7.668-.752,15.268-1.662,22.85-2.8,7.328-1.1,14.651-2.224,21.986-3.3,3.518-.52,7.056-.99,10.608-1.36,4.022-.419,8.008-.849,11.98-1.47,1.91-.3,2.286-2.14,2.286-3.324a4.429,4.429,0,0,0-.441-1.96,2.185,2.185,0,0,0-1.844-1.358c-7.164.172-14.326.35-21.484.591q-10.837.365-21.694.467c-14.044.137-28.114-.212-42.145-.633q3.587-.351,7.174-.7c8.588-.842,17.153-1.9,25.786-2.469,4.594-.3,9.2-.556,13.784-.946,2.323-.2,4.629-.421,6.925-.754,2.467-.359,4.9-.849,7.323-1.342a2.39,2.39,0,0,0,1.769-.838,4.393,4.393,0,0,0,1.164-2.573c2.457-.544,2.951-3.159,2.951-4.733a6.286,6.286,0,0,0-.637-2.837A3.176,3.176,0,0,0,668.5.5C661.041.441,653.6.079,646.141.011Q644.83,0,643.516,0C637.1,0,630.7.2,624.289.452q-21.412.832-42.813,1.968c-6.627.344-13.25.752-19.885,1.042-8.114.353-16.21.624-24.332.853-13.587.381-27.2.529-40.792.708-15.59.209-31.163.505-46.741,1.034C435.3,6.547,420.886,7.2,406.47,7.825q-21.711.934-43.428,1.871c-14.835.646-29.682,1.126-44.532,1.605-7.512.245-15.036.318-22.553.472-7.116.146-14.237.185-21.356.26q-21.016.222-42.037.344-42.4.31-84.789.879-23.291.283-46.577.6c-7.92.108-15.842.335-23.757.5-6.768.141-13.534.472-20.3.723q-10.8.4-21.606.862-6.422.269-12.854.544-2.789.121-5.589.238c-1.7.071-3.394.163-5.085.256-1.21.066-2.4.192-3.588.339a33.487,33.487,0,0,0-3.906.9,3.583,3.583,0,0,0-1.58,1.675,6.448,6.448,0,0,0,0,5.517l.7,1.01a2.583,2.583,0,0,0,1.9.9c1.472.3,2.926.6,4.437.785a2.57,2.57,0,0,0,1.89-.9,3.718,3.718,0,0,0,.436-.518c.791-.016,1.585-.015,2.379-.015.758,0,1.517,0,2.28-.016q2.57-.041,5.133-.088,6.611-.113,13.222-.225,7.166-.126,14.325-.2-.741.047-1.479.09c-11.279.637-22.55,1.276-33.819,2a5.7,5.7,0,0,0-4.165,1.977,9.811,9.811,0,0,0-2.558,5.011q-2.971-.022-5.944-.04C.275,35.177,0,36.929,0,37.6S.275,40,1.663,40.015c1.9.013,3.8.037,5.695.055a13.645,13.645,0,0,0,1.283,4.466q.763,1.109,1.524,2.216a5.7,5.7,0,0,0,4.165,1.977C24.995,48.042,35.664,47.442,46.336,46.849Z" transform="translate(2718.246 365.43) rotate(180)" fill="#fff"/>
  </g>
</svg>
