<svg xmlns="http://www.w3.org/2000/svg" width="264.559" height="71.699" viewBox="0 0 264.559 71.699">
  <path id="Trazado_2404" data-name="Trazado 2404" d="M454.143,447.141a45.414,45.414,0,0,1,10.507-2.3c1.987-.248,3.97-.417,5.961-.559,2.853-.2,5.7-.355,8.552-.452,5.436-.183,10.875-.253,16.313-.28,10.9-.055,21.784-.153,32.672-.916,11.291-.791,22.581-1.524,33.87-2.335,10.7-.77,21.407-1.539,32.115-2.128,10.724-.591,21.44-1.115,32.153-2.084,10.962-.99,21.935-1.522,32.913-1.955a137.612,137.612,0,0,0,15.615-1.263c2.706-.418,5.4-.888,8.1-1.383,2.644-.483,5.3-.8,7.955-1.162a31.019,31.019,0,0,1,7.311.035q2.624-.419,3.986-3.736.732-2.1,1.462-4.193a50.83,50.83,0,0,0,0-22.875q-.73-2.095-1.462-4.192-1.362-3.319-3.986-3.737c-1.347.152-2.692.354-4.039.486-1.228.12-2.459.113-3.688.124-2.628.028-5.253.16-7.875.316-5.454.326-10.9.842-16.355,1.076-10.57.452-21.149.5-31.707,1.386-5.661.473-11.315,1.025-16.976,1.486-5.143.422-10.291.7-15.439.973q-16.433.871-32.85,2.125c-10.809.818-21.621,1.576-32.429,2.4q-8.963.684-17.928,1.264c-5.355.345-10.723.392-16.083.473-10.971.166-21.944.279-32.9,1.211-2.7.228-5.393.537-8.08.994a51.912,51.912,0,0,0-6.512,1.546,37.35,37.35,0,0,0-4.878,2.069,10.153,10.153,0,0,0-2.675,1.918,15.41,15.41,0,0,0-3.357,7.03,49.081,49.081,0,0,0-.971,17.779,31.843,31.843,0,0,0,2.451,9.628q.937,1.4,1.877,2.785a2.835,2.835,0,0,0,4.321,0A10.679,10.679,0,0,1,454.143,447.141Z" transform="translate(-418.915 -414.277) rotate(3)" fill="#fff"/>
</svg>
