<svg xmlns="http://www.w3.org/2000/svg" width="234.177" height="46.75" viewBox="0 0 234.177 46.75">
  <g id="Grupo_78273" data-name="Grupo 78273" transform="matrix(-0.999, -0.035, 0.035, -0.999, 2240.874, 429.056)">
    <path id="Trazado_2206" data-name="Trazado 2206" d="M466.66,502.284c.939-.111,1.885-.28,2.826-.333l2.634-.152c4.81-.274,9.618-.626,14.43-.733,5.032-.113,10.066-.3,15.1-.321,5.137-.019,10.272-.052,15.408-.014q15.017.117,30.03.181c9.942.038,19.885.046,29.827-.028,4.935-.039,9.87-.222,14.8-.367,4.844-.143,9.684-.384,14.526-.664,1.064-.062,2.127-.184,3.19-.276s2.1-.169,3.152-.292c2.693-.316,5.383-.651,8.073-1.026,4.683-.655,9.352-1.527,14.042-2.071,4.913-.571,9.837-.9,14.755-1.36a59.8,59.8,0,0,0,6.656-.932,75.844,75.844,0,0,0,7.509-1.947c2.408-.763,4.815-1.549,7.225-2.3,1.156-.362,2.319-.69,3.486-.947a39.485,39.485,0,0,0,3.937-1.023c.628-.209.751-1.49.751-2.314a6.108,6.108,0,0,0-.145-1.365c-.093-.371-.286-.963-.606-.946-2.354.12-4.708.243-7.06.412q-3.561.254-7.129.325c-4.615.1-9.239-.148-13.85-.441l2.358-.487c2.822-.586,5.637-1.323,8.474-1.719,1.51-.212,3.024-.387,4.53-.659a19.123,19.123,0,0,0,2.275-.525,24.214,24.214,0,0,0,2.407-.934q.384-.063.581-.584a5.135,5.135,0,0,0,.383-1.792c.807-.378.97-2.2.97-3.3a8.669,8.669,0,0,0-.21-1.975c-.14-.562-.407-1.359-.876-1.366-2.451-.043-4.9-.3-7.347-.343-.287-.005-.576-.008-.863-.008-2.108,0-4.212.141-6.319.315q-7.037.579-14.07,1.37c-2.178.24-4.354.524-6.534.725-2.667.246-5.327.435-8,.594-4.465.265-8.938.368-13.405.493-5.124.145-10.241.352-15.361.72-4.741.342-9.478.8-14.215,1.231q-7.135.65-14.272,1.3c-4.875.45-9.754.784-14.635,1.118-2.469.171-4.941.222-7.412.329-2.339.1-4.679.129-7.018.181-4.6.1-9.209.167-13.814.24-9.29.144-18.575.376-27.864.612q-7.654.2-15.307.421c-2.6.075-5.207.233-7.807.348-2.224.1-4.448.329-6.671.5-2.367.186-4.733.391-7.1.6-1.407.125-2.816.254-4.224.378-.611.056-1.224.11-1.837.166-.557.05-1.115.113-1.671.178a8.587,8.587,0,0,0-1.179.236,6.63,6.63,0,0,0-1.284.626,2.637,2.637,0,0,0-.519,1.166,9.158,9.158,0,0,0,0,3.841l.228.7a.861.861,0,0,0,.624.628,9.837,9.837,0,0,0,1.458.547c.272-.046.479-.254.621-.625a3.046,3.046,0,0,0,.143-.361c.26-.011.521-.01.782-.01s.5,0,.749-.011q.845-.029,1.687-.061,2.173-.078,4.345-.157c1.57-.059,3.139-.1,4.708-.143l-.486.062c-3.707.443-7.411.888-11.114,1.4q-.9.155-1.369,1.376a10.957,10.957,0,0,0-.84,3.49q-.977-.015-1.954-.028c-.456-.006-.546,1.213-.546,1.682s.09,1.672.546,1.68c.624.009,1.248.025,1.872.038a18.259,18.259,0,0,0,.422,3.11q.251.772.5,1.543.471,1.222,1.369,1.376C459.647,503.115,463.153,502.7,466.66,502.284Z" transform="translate(1568.567 -157.663)" fill="#fff"/>
    <path id="Trazado_2207" data-name="Trazado 2207" d="M15.227,32.621c.939-.111,1.885-.28,2.826-.333l2.634-.152c4.81-.274,9.618-.626,14.43-.733,5.032-.113,10.067-.3,15.1-.321,5.137-.019,10.272-.052,15.408-.014q15.017.117,30.03.181c9.942.038,19.885.046,29.827-.028,4.935-.04,9.87-.222,14.8-.367,4.844-.143,9.684-.384,14.526-.664,1.064-.062,2.127-.184,3.19-.277s2.1-.169,3.152-.292c2.693-.316,5.383-.651,8.073-1.026,4.683-.655,9.352-1.527,14.042-2.071,4.913-.571,9.837-.9,14.755-1.36a59.789,59.789,0,0,0,6.656-.932,75.791,75.791,0,0,0,7.509-1.947c2.408-.763,4.815-1.548,7.225-2.3,1.156-.362,2.319-.69,3.486-.947a39.464,39.464,0,0,0,3.937-1.023c.628-.209.751-1.49.751-2.314a6.108,6.108,0,0,0-.145-1.365c-.093-.371-.286-.963-.606-.946-2.354.12-4.708.243-7.06.412q-3.561.254-7.129.325c-4.615.1-9.239-.148-13.85-.441l2.358-.487c2.822-.586,5.637-1.323,8.474-1.719,1.51-.212,3.024-.387,4.53-.659a19.127,19.127,0,0,0,2.276-.525,24.217,24.217,0,0,0,2.406-.934q.384-.063.581-.584a5.136,5.136,0,0,0,.383-1.792c.807-.379.97-2.2.97-3.3a8.671,8.671,0,0,0-.209-1.975c-.14-.562-.407-1.359-.876-1.366-2.45-.043-4.9-.3-7.347-.343Q211.911,0,211.479,0c-2.108,0-4.213.141-6.319.315q-7.037.579-14.07,1.37c-2.178.24-4.354.524-6.535.725-2.666.246-5.327.435-8,.594-4.465.265-8.938.368-13.406.493-5.123.145-10.241.352-15.361.72-4.741.342-9.478.8-14.215,1.231q-7.135.65-14.272,1.3c-4.875.45-9.754.784-14.634,1.118-2.469.171-4.941.222-7.412.329-2.339.1-4.679.129-7.018.181-4.6.1-9.209.167-13.815.24-9.29.144-18.575.376-27.864.612q-7.654.2-15.307.421c-2.6.075-5.206.233-7.807.348-2.224.1-4.448.329-6.671.5-2.367.186-4.733.391-7.1.6-1.407.125-2.816.254-4.224.378l-1.837.166c-.557.05-1.115.113-1.671.178a8.587,8.587,0,0,0-1.179.236,6.631,6.631,0,0,0-1.284.626,2.636,2.636,0,0,0-.519,1.166,9.158,9.158,0,0,0,0,3.841l.229.7a.861.861,0,0,0,.624.628,9.835,9.835,0,0,0,1.458.547c.272-.046.48-.254.621-.624a3.056,3.056,0,0,0,.143-.361c.26-.011.521-.01.782-.01s.5,0,.749-.011q.845-.029,1.687-.061,2.173-.078,4.345-.157c1.57-.059,3.139-.1,4.708-.143l-.486.062c-3.707.443-7.411.888-11.114,1.4q-.9.155-1.369,1.376A10.955,10.955,0,0,0,2.5,24.528Q1.524,24.513.547,24.5C.09,24.494,0,25.713,0,26.182s.09,1.672.547,1.68c.624.009,1.248.026,1.872.038a18.272,18.272,0,0,0,.422,3.11q.251.772.5,1.543.471,1.222,1.369,1.376C8.214,33.452,11.72,33.034,15.227,32.621Z" transform="translate(2253.299 350.631) rotate(180)" fill="#fff"/>
  </g>
</svg>
