<svg xmlns="http://www.w3.org/2000/svg" width="269.978" height="50.518" viewBox="0 0 269.978 50.518">
  <g id="Grupo_78272" data-name="Grupo 78272" transform="matrix(1, 0.017, -0.017, 1, -2013.53, -347.206)">
    <path id="Trazado_2206" data-name="Trazado 2206" d="M469.075,509.2c1.088-.134,2.184-.34,3.274-.4,1.018-.06,2.036-.124,3.052-.184,5.572-.332,11.142-.758,16.718-.888,5.83-.137,11.662-.366,17.494-.389,5.951-.023,11.9-.063,17.851-.017q17.4.141,34.791.219c11.519.046,23.037.056,34.556-.034,5.717-.048,11.435-.269,17.15-.445,5.613-.173,11.219-.465,16.829-.8,1.233-.076,2.464-.222,3.7-.335,1.217-.114,2.436-.205,3.652-.354,3.12-.383,6.236-.789,9.353-1.243,5.426-.794,10.835-1.851,16.268-2.51,5.692-.692,11.4-1.086,17.095-1.648a66.4,66.4,0,0,0,7.712-1.129,84.733,84.733,0,0,0,8.7-2.36c2.79-.925,5.578-1.877,8.371-2.786,1.339-.439,2.686-.836,4.039-1.148a44.111,44.111,0,0,0,4.561-1.24c.727-.253.87-1.806.87-2.805a7.729,7.729,0,0,0-.168-1.654c-.107-.449-.331-1.168-.7-1.146-2.728.145-5.454.3-8.18.5q-4.126.308-8.26.394c-5.347.116-10.7-.179-16.046-.534.911-.2,1.821-.392,2.731-.59,3.27-.71,6.531-1.6,9.818-2.084,1.749-.256,3.5-.47,5.248-.8a21.322,21.322,0,0,0,2.636-.636,27.312,27.312,0,0,0,2.788-1.132q.445-.076.674-.707a6.471,6.471,0,0,0,.443-2.172c.935-.459,1.124-2.666,1.124-3.994a10.977,10.977,0,0,0-.243-2.394c-.162-.681-.472-1.647-1.015-1.656-2.839-.053-5.673-.358-8.512-.416-.333-.006-.667-.009-1-.009-2.443,0-4.88.171-7.32.382q-8.152.7-16.3,1.66c-2.523.29-5.044.635-7.571.879-3.089.3-6.172.527-9.264.72-5.173.321-10.355.446-15.531.6-5.936.176-11.865.426-17.8.873-5.493.414-10.98.965-16.469,1.492q-8.267.788-16.534,1.579c-5.648.545-11.3.95-16.955,1.355-2.86.207-5.725.269-8.587.4-2.709.124-5.421.156-8.131.219-5.334.125-10.67.2-16,.29-10.763.175-21.521.456-32.282.741q-8.868.239-17.734.51c-3.016.091-6.032.283-9.045.422-2.577.119-5.153.4-7.729.61-2.742.226-5.484.474-8.226.728-1.63.151-3.262.307-4.894.459-.708.068-1.418.133-2.128.2-.646.06-1.292.138-1.936.216a9.568,9.568,0,0,0-1.366.286,7.544,7.544,0,0,0-1.487.758,3.268,3.268,0,0,0-.6,1.413,11.6,11.6,0,0,0,0,4.655l.265.853c.164.451.406.7.723.761a11.087,11.087,0,0,0,1.689.663c.315-.056.556-.307.72-.757a3.794,3.794,0,0,0,.166-.437c.3-.014.6-.012.906-.012s.578,0,.868-.014q.979-.035,1.954-.074,2.517-.095,5.034-.19c1.819-.071,3.636-.122,5.454-.173l-.563.076c-4.294.537-8.586,1.077-12.876,1.691q-1.042.188-1.586,1.668a13.785,13.785,0,0,0-.974,4.229q-1.131-.019-2.263-.034c-.529-.008-.633,1.471-.633,2.039s.1,2.027.633,2.036c.723.011,1.446.031,2.168.046a23.091,23.091,0,0,0,.488,3.769q.291.936.58,1.871.546,1.481,1.586,1.668C460.949,510.206,465.011,509.7,469.075,509.2Z" transform="translate(1568.567 -157.663)" fill="#fff"/>
    <path id="Trazado_2207" data-name="Trazado 2207" d="M17.642,39.536c1.088-.134,2.184-.34,3.274-.4,1.018-.06,2.036-.124,3.052-.184,5.572-.332,11.143-.758,16.718-.888,5.83-.137,11.663-.366,17.494-.389,5.951-.023,11.9-.063,17.851-.017q17.4.141,34.791.219c11.519.046,23.037.056,34.556-.034,5.717-.048,11.435-.269,17.15-.445,5.613-.173,11.219-.465,16.829-.8,1.233-.076,2.464-.222,3.7-.335,1.217-.114,2.436-.205,3.652-.354,3.12-.383,6.236-.789,9.353-1.243,5.425-.794,10.835-1.85,16.268-2.51,5.692-.692,11.4-1.086,17.095-1.648a66.4,66.4,0,0,0,7.712-1.129,84.688,84.688,0,0,0,8.7-2.36c2.79-.925,5.578-1.877,8.371-2.786,1.339-.439,2.686-.836,4.039-1.148a44.1,44.1,0,0,0,4.561-1.24c.727-.253.87-1.806.87-2.8a7.733,7.733,0,0,0-.168-1.654c-.107-.449-.331-1.168-.7-1.146-2.728.145-5.454.3-8.18.5q-4.126.308-8.26.394c-5.347.116-10.7-.179-16.046-.534.91-.2,1.821-.392,2.731-.59,3.27-.711,6.531-1.6,9.818-2.084,1.749-.256,3.5-.47,5.248-.8a21.336,21.336,0,0,0,2.636-.636,27.319,27.319,0,0,0,2.788-1.132q.445-.077.674-.707a6.47,6.47,0,0,0,.443-2.172c.935-.459,1.123-2.666,1.123-3.994a10.975,10.975,0,0,0-.243-2.394c-.162-.681-.472-1.647-1.015-1.656-2.839-.053-5.673-.358-8.512-.415q-.5-.009-1-.009c-2.443,0-4.88.171-7.32.382q-8.152.7-16.3,1.66c-2.523.29-5.045.635-7.571.879-3.089.3-6.172.527-9.264.72-5.173.321-10.355.446-15.531.6-5.936.176-11.865.426-17.8.873-5.493.414-10.98.965-16.469,1.492q-8.266.788-16.534,1.579c-5.648.545-11.3.95-16.955,1.355-2.86.207-5.725.269-8.587.4-2.709.124-5.421.156-8.131.219-5.334.125-10.67.2-16,.29-10.763.175-21.521.456-32.282.741q-8.868.239-17.734.51c-3.015.091-6.032.283-9.045.422-2.577.119-5.153.4-7.729.61-2.742.226-5.484.474-8.226.728-1.63.151-3.262.307-4.894.459-.708.068-1.418.133-2.128.2-.646.06-1.292.138-1.936.216a9.563,9.563,0,0,0-1.366.286,7.545,7.545,0,0,0-1.487.758,3.266,3.266,0,0,0-.6,1.413,11.6,11.6,0,0,0,0,4.655l.265.853c.164.451.406.7.722.761a11.084,11.084,0,0,0,1.689.663c.315-.056.556-.307.72-.757a3.807,3.807,0,0,0,.166-.437c.3-.014.6-.012.906-.012s.578,0,.868-.014q.979-.035,1.954-.074,2.517-.1,5.034-.19c1.819-.071,3.636-.122,5.454-.173l-.563.076c-4.294.538-8.586,1.077-12.876,1.691Q4.414,24.018,3.87,25.5A13.782,13.782,0,0,0,2.9,29.728q-1.131-.019-2.263-.034C.1,29.686,0,31.164,0,31.733s.1,2.027.633,2.036c.722.011,1.446.031,2.168.046a23.108,23.108,0,0,0,.488,3.769q.291.936.58,1.87.546,1.481,1.586,1.668C9.516,40.543,13.579,40.036,17.642,39.536Z" transform="translate(2289.383 357.824) rotate(180)" fill="#fff"/>
  </g>
</svg>
