<svg xmlns="http://www.w3.org/2000/svg" width="109.226" height="118.127" viewBox="0 0 109.226 118.127">
  <path id="Trazado_2746" data-name="Trazado 2746" d="M415.547,152.073c.566-.049.816,0,.978-.1,13.135-7.892,21.951-19.04,25.37-34.118a24.838,24.838,0,0,0-.256-11.63,19,19,0,0,0-17.568-14.558c-4.431-.258-8.71.193-12.607,2.637-.306,2.07-.478,4.128-.936,6.121a10.738,10.738,0,0,1-5.277,7.33c-2.178,1.216-4.269,1.252-5.456.038a4.162,4.162,0,0,1-.576-5.131,42.968,42.968,0,0,1,4.518-6.432,33.983,33.983,0,0,1,3.766-3.453c-1.212-8.068-8.853-11.537-18.052-8.157-.3,1.13-.551,2.36-.959,3.534-1.466,4.228-4.065,7.479-8.4,8.979-1.629.564-3.431.768-4.842-.694-1.09-1.129-1.084-3.166.079-5.155a22.017,22.017,0,0,1,7.67-7.3c1.06-.667,2.165-1.263,3.2-1.864-1.407-12.534-12.662-21.4-23.735-16.393.106-.913-.026-1.7.307-2.138a3.065,3.065,0,0,1,1.777-.907c6.054-1.133,11.71-.435,16.392,3.992a28.751,28.751,0,0,1,7.441,11.858c.221.647.455,1.29.7,1.928.035.094.156.155.4.386.621-.06,1.41-.1,2.186-.218,9.581-1.506,14.6,1.081,19.07,10.023.9-.289,1.836-.581,2.769-.9A25.639,25.639,0,0,1,430.1,89.6c9.112,2.987,14.988,10.83,15.582,20.694a36.215,36.215,0,0,1-2.495,15.536c-4.734,12.1-12.49,21.611-24.041,27.833q-.911.491-1.8,1.01c-.082.047-.113.181-.394.661a25.007,25.007,0,0,0,7.016.249c2.249-.095,4.5-.281,6.931-.439a3.188,3.188,0,0,1-2.422,3.008,16.54,16.54,0,0,1-4.327,1.075c-3.9.143-7.82.219-11.711-.026-3.1-.2-3.947-1.865-2.555-4.373q4.431-7.986,8.964-15.915a26.623,26.623,0,0,1,1.909-2.549c1.363,1.563.759,2.709.263,3.8C419.26,144.034,417.472,147.888,415.547,152.073ZM377.455,94.287c4.928-.664,8.028-3.82,8.209-8.259C382.35,88.227,379.186,90.182,377.455,94.287Zm24.194,11.125c4.232-.968,6.207-3.849,5.772-8.222C404.7,99.444,402.311,101.628,401.65,105.413Z" transform="translate(-295.481 -171.173) rotate(18)" fill="#09989a"/>
</svg>
