<svg xmlns="http://www.w3.org/2000/svg" width="217.047" height="205.01" viewBox="0 0 217.047 205.01">
  <path id="Trazado_2665" data-name="Trazado 2665" d="M84.968,438.083c-.784-2.953-1.7-5.579-2.163-8.283-3.153-18.455,2.642-34.093,15.389-47.356a45.121,45.121,0,0,1,24.864-13.593,36.39,36.39,0,0,1,26.18,4.627,30.537,30.537,0,0,1,11.1,40.806,49.5,49.5,0,0,1-14.422,16.071A72.271,72.271,0,0,1,98.66,445.2c-1.053-.039-2.108-.006-3.627-.006a21.053,21.053,0,0,0,1.446,2.221,43.092,43.092,0,0,0,25.744,14.423c28.061,4.954,52.019-3.021,70.95-24.351,10.393-11.709,15.938-25.728,15.1-41.671a98.355,98.355,0,0,0-7.724-33.494c-.416-.979-.938-1.914-1.447-2.851a13.875,13.875,0,0,0-.979-1.316,11.474,11.474,0,0,0-.922,2.033c-.862,3.956-1.644,7.929-2.5,11.886a11.656,11.656,0,0,1-1.051,3.333c-.345.6-1.459,1.3-1.965,1.135-.732-.235-1.295-1.163-1.786-1.893-.183-.273,0-.828.087-1.239,1.542-7.3,3.065-14.6,4.658-21.885.8-3.663,2.315-4.358,5.7-2.754a18.45,18.45,0,0,1,2.251,1.213c6.865,4.505,13.758,8.97,20.548,13.585a45.33,45.33,0,0,1,5.825,4.983,7.011,7.011,0,0,1,1.781,2.957,2.479,2.479,0,0,1-.764,2.172c-.523.382-1.539.146-2.33.075-.265-.024-.536-.341-.747-.576-5.218-5.8-11.953-9.578-18.348-13.81-1.658-1.1-3.345-2.15-5.678-3.646a17.173,17.173,0,0,0,.575,1.84c5.261,10.434,7.853,21.645,9.1,33.138,2.663,24.636-7.214,44.165-25.742,59.552-15.1,12.538-32.864,18.235-52.477,17.788a62.165,62.165,0,0,1-26.591-6.151A45.057,45.057,0,0,1,89.984,446.63,8.336,8.336,0,0,0,85,443.145,73.749,73.749,0,0,1,72.485,438.4c-17.224-8.963-25.635-25.385-22.2-44.443,3.247-18.007,13.36-31.135,30.305-38.528,3.176-1.385,6.734-1.937,10.156-2.691a10.3,10.3,0,0,1,3.8.089,1.672,1.672,0,0,1,1.521,2.067c-.192.693-.951,1.255-1.53,1.8-.19.178-.612.131-.93.145-9.947.448-17.945,5.155-24.835,11.842-9.19,8.918-14.243,19.8-14.45,32.761-.178,11.189,4.2,20.289,12.53,27.586A41.383,41.383,0,0,0,84.968,438.083Zm16.969,2.539a67.608,67.608,0,0,0,35.533-10.185c6.684-4.112,12.638-9.06,17.112-15.637,10.63-15.627,2.522-34.124-12.73-39.756a32.861,32.861,0,0,0-24.07.135C102.5,381.173,93.11,392.625,88.4,408.052a42.072,42.072,0,0,0,1.522,29.109,4.169,4.169,0,0,0,4.036,2.954C96.618,440.242,99.277,440.449,101.937,440.622Z" transform="matrix(0.799, -0.602, 0.602, 0.799, -248.961, -138.995)" fill="#09989a"/>
</svg>
