<svg xmlns="http://www.w3.org/2000/svg" width="1381.15" height="99.675" viewBox="0 0 1381.15 99.675">
  <g id="Grupo_77597" data-name="Grupo 77597" transform="translate(-51.616 -560.136)">
    <path id="Trazado_2148" data-name="Trazado 2148" d="M1425.129,700.291l-17.472-2.792a12.2,12.2,0,0,1-1.407-.329c-25.871-7.923-67.921-11.864-108.783-10.69-10.127.291-20.114.9-29.606,1.815-4.742.458-9.665.966-14.007,1.628-2.312.353-3.9.854-6.012,1.268-2.316.455-4.981.642-7.494,1-10.946,1.576-20.11,3.935-30.817,5.628a296.565,296.565,0,0,1-34.513,3.152c-22.018.911-43.476-1.915-60.842-4.968-18.581-3.267-35.179-7.172-55.144-9.951a378.189,378.189,0,0,0-71.064-3.577c-23.476,1.162-44.1,4.373-63.833,7.56-21,3.391-41.007,6.607-66.89,6.976-26.718.381-50.441-2.437-74.4-4.955-12.542-1.318-25.217-2.689-38.323-3.641-13.165-.957-27.011-1.129-40.651-.984-25.565.272-46.455,3.684-69.03,6.251a291.624,291.624,0,0,1-37.546,2.164,343.9,343.9,0,0,1-35.94-2.495c-5.918-.7-11.64-1.493-17.241-2.337-5.581-.841-10.46-1.894-16.128-2.7-2.222-.314-4.672-.567-6.784-.925-2.736-.465-4.7-1.047-7.623-1.472-5.824-.845-11.864-1.6-18.083-2.249a523.572,523.572,0,0,0-72.687-2.4,459.284,459.284,0,0,0-67.5,7.7c-10.531,1.955-19.984,4.211-32.075,5.588a212.859,212.859,0,0,1-36.637,1.079c-12.93-.81-23.794-2.985-35.124-4.623-11.468-1.658-23.312-3.346-35.653-4.58-25.479-2.547-51.8-1.056-75.794,1.652q-17.984,2.031-35.312,4.376a355.877,355.877,0,0,1-35.465,3.154c-5.738.2-11.429.447-17.127.626v1.438c5.687-.182,11.37-.422,17.127-.612a347.867,347.867,0,0,0,35.457-3.154c10.12-1.359,20.349-2.665,30.8-3.861,13.055-1.493,27.556-3.142,42.371-3.431a330.8,330.8,0,0,1,37.942,1.264c12.338,1.232,24.194,2.922,35.653,4.58,11.691,1.692,22.841,3.922,36.281,4.689a213.691,213.691,0,0,0,36.559-1.272c11.95-1.414,21.4-3.694,31.926-5.634,9.822-1.808,20.118-3.476,31.166-4.8a484.867,484.867,0,0,1,72.244-2.791c12.722.432,25.158,1.315,36.935,2.572,11.82,1.261,21.407,3.087,32.342,4.664,4.962.716,9.23,1.655,14.133,2.4,6.275.955,12.71,1.853,19.392,2.626a340.665,340.665,0,0,0,35.995,2.38c25.542.229,47.137-3.742,69.5-6.193a438.633,438.633,0,0,1,77.8-1.156c25.859,1.972,49.653,5.289,75.367,7.346a383.382,383.382,0,0,0,71.891-1.1c22.026-2.556,40.788-6.629,62.512-9.365a384.548,384.548,0,0,1,69.673-2.789,460.731,460.731,0,0,1,62.606,8.352c17.233,3.351,34.305,7.083,55.148,9.013a276.978,276.978,0,0,0,67.56-2.3c10.3-1.657,19.22-3.972,29.857-5.476,2.191-.31,4.644-.479,6.725-.846,2.465-.435,4.205-1.025,6.78-1.425,4.307-.67,9.273-1.172,14.007-1.629,38.432-3.711,84.076-2.215,117.237,3.835,8.2,1.5,16.618,4.78,39.31,8.181C1433.485,702.372,1435.915,701.951,1425.129,700.291Z" transform="translate(0 -57.082)" fill="#e52441" stroke="#e52441" stroke-width="1"/>
    <path id="Trazado_2149" data-name="Trazado 2149" d="M1430.624,722.928c-1.7-1.057-7.353-2.106-10.632-2.908-4.239-1.036-8.78-2-13.514-2.893-10.184-1.932-21.276-3.58-32.859-4.954-21.5-2.551-46.559-4.518-70.724-3.875l-.625.017a367.906,367.906,0,0,0-57.647,5.9c-17.973,3.432-36.182,7.25-58.8,8.632-25.035,1.529-47.538-.995-67.595-4.531-20.6-3.629-39.532-7.8-61.893-10.8a360.408,360.408,0,0,0-70.642-2.791c-24.292,1.5-45.623,5.026-65.715,8.565a388.714,388.714,0,0,1-71.224,5.824c-14.265-.145-26.879-1.309-39.925-2.626-12.732-1.286-25.346-2.643-38.077-3.928-25.652-2.59-51.835-4.224-79.548-2.659-24.378,1.376-44.813,5.292-68.88,6.923a328.952,328.952,0,0,1-71.912-3.132c-21.653-3.482-43.81-7.468-68.865-9.346-45.009-3.373-94.9.014-130.034,7.426-4.235.893-8.021,1.906-12.645,2.683-5.233.88-11.072,1.582-16.746,2.274a199.589,199.589,0,0,1-36.642.845c-12.516-.881-23.545-3.035-34.629-4.652-11.473-1.674-23.328-3.342-35.954-4.439-26.608-2.314-52.453-.826-77.212,2.083-22.923,2.694-45.631,6.338-70.96,7.495-4.868.223-9.736.333-14.607.384v1.45c4.868-.052,9.736-.162,14.607-.381,13.152-.591,25.306-1.986,37.311-3.377,23.608-2.735,46.861-6.538,73.351-7.28,27.288-.764,50.679,2.194,73.465,5.517,11.057,1.612,22.133,3.785,34.629,4.652a198.5,198.5,0,0,0,36.642-.845c5.32-.668,10.817-1.309,15.81-2.117,5.3-.858,9.586-2.009,14.411-3.013,8.8-1.83,18.441-3.412,28.707-4.7a523.513,523.513,0,0,1,66.671-3.847,493.548,493.548,0,0,1,69.171,5.384c22.412,3.227,42.646,7.664,68.939,8.811,25.758,1.123,48.3-1.23,70.945-3.957,11.536-1.39,23.01-2.782,35.651-3.458,12.9-.691,26.3-.736,39.335-.247,27.382,1.027,52.873,4.469,78.274,7.024,13.09,1.317,25.684,2.414,39.988,2.515,12.531.087,25.176-.376,36.953-1.433,24.142-2.166,43.185-6.543,65.4-9.584,21.032-2.878,44.77-4.789,69.053-3.818,24.72.988,46.975,4.765,66.6,8.372,19.691,3.619,38.813,8.1,62.754,9.958,23.183,1.8,46.122-.1,65.735-3.25,19.2-3.086,35.27-7.169,56.931-9.27,38.29-3.714,83.315-2.017,116.009,4.058,13.809,2.567,24.862,6.233,40.539,8.242C1429.9,723.5,1431.1,723.225,1430.624,722.928Z" transform="translate(0 -65.458)" fill="#e52441" stroke="#e52441" stroke-width="1"/>
    <path id="Trazado_2150" data-name="Trazado 2150" d="M1430.719,584.161l-.825-.254c-9.723-.812-25.823-4.373-33.439-6.2a215.03,215.03,0,0,0-32.445-5.624,272.666,272.666,0,0,0-36.957-.79,326.8,326.8,0,0,0-34.874,3.843c-21.862,3.277-43.818,6.863-68.938,8.438a396.06,396.06,0,0,1-73.135-2.46c-23.253-2.866-43.543-6.929-65.519-10.307-22.738-3.494-49.135-6.6-76.656-5.749-28.625.888-51.56,4.369-75.317,8.112-21.713,3.421-45.04,6.8-71.261,7.431a231.113,231.113,0,0,1-35.849-1.545,205.06,205.06,0,0,1-26.114-5.423c-8.037-2.124-15.024-4.4-26.287-5.529a178.808,178.808,0,0,0-33.471-.056c-24.813,2.385-43.217,7.55-67.04,10.394-26.165,3.124-56.276,1.671-81.121-1.467-47.226-5.964-93.158-18.654-151.364-15.981-26.224,1.2-48.727,5.111-72.129,8.022-21.595,2.686-48.546,5.219-72.958,3.429a160.958,160.958,0,0,1-28.437-4.751c-9.306-2.341-17.15-4.422-30.205-5.5-25.195-2.079-55.011.965-76.032,4.364-22.711,3.671-44.054,7.541-70.773,9.31-12.163.806-24.974,1.216-37.456,1.627v1.452l.644-.021c26.342-.89,50.727-2.221,74.043-5.481,24.346-3.4,44.911-8.027,72.738-9.755a255.235,255.235,0,0,1,37.908.049c12.56,1.1,20.109,3.141,29.132,5.406a161.508,161.508,0,0,0,29.458,4.827,312.841,312.841,0,0,0,38.324-.256c24.491-1.486,45.878-4.972,68.03-7.786,26.126-3.317,52.523-4.9,81.325-2.7,26.322,2.014,48.4,5.952,70.946,9.7,23.733,3.942,49.214,8.045,78.527,8.646a291.174,291.174,0,0,0,40.45-1.806c11.511-1.411,21.787-3.324,32.127-5.185,19.815-3.565,42.911-7.628,68.3-4.926,11.055,1.176,18.034,3.516,26.024,5.617a200.99,200.99,0,0,0,25.407,5.238c23.076,3.086,51.2,1.4,73.689-1.187,24.8-2.854,45.771-7.351,70.656-10.131,25.4-2.837,52.692-3.743,79.234-1.337,25.254,2.288,46.9,6.263,68.966,9.941,20.793,3.467,43.382,6.881,68.706,7.812,25.568.939,50.708-1.316,72.841-4.261,22.059-2.935,43.339-7.577,68.581-8.653a271.568,271.568,0,0,1,36.917.947,218.973,218.973,0,0,1,32.158,5.712c7.455,1.785,19.763,6.21,31.6,5.725C1432.582,584.922,1430.165,584.206,1430.719,584.161Z" transform="translate(0)" fill="#e52441" stroke="#e52441" stroke-width="1"/>
    <path id="Trazado_2151" data-name="Trazado 2151" d="M1426.02,607.1c-25.813-2.487-69.519-7.541-92.751-9.663a448.145,448.145,0,0,0-76.745-.518c-23.746,1.856-45.895,4.9-70.323,6.234a473.036,473.036,0,0,1-76.031-2.473c-45.275-4.9-90.15-13.907-142.584-10.022-44.73,3.313-78.526,14.592-128.065,14.132-23.671-.22-43.722-3.594-63.117-6.576-19.78-3.041-41.74-5.686-65.741-5.066-24.774.639-46.711,4.093-69.688,6.17a464.919,464.919,0,0,1-76.882.28c-47.362-3.629-94.387-13.3-146.6-10.9-45.055,2.077-73.25,16.128-123.483,12.771-22.651-1.514-40.7-5.388-60.936-8.115a288.733,288.733,0,0,0-70.311-.968c-21.4,2.5-37.778,6.812-57.016,10.1a331.686,331.686,0,0,1-53.627,4.6v1.414c7.65,0,15.4-.262,23.224-.842,22.871-1.694,40.254-5.6,58.562-9.168,18.607-3.628,39.681-6.835,64.388-6.4,24.809.44,44.412,4.229,64.831,7.3,20.023,3.012,41.968,5.18,65.365,3.246,22.188-1.834,38.414-6.192,57.687-9.249,21.592-3.425,45.569-4.281,70.578-2.9,25.107,1.384,48.147,4.4,71.371,7.02,23.785,2.678,48.672,5.14,75.274,5.061,26.264-.077,48.763-3.012,72.391-5.449,23.028-2.374,45.585-3.495,69.7-1.358,22.192,1.967,40.285,5.8,61.383,8.3a314.437,314.437,0,0,0,67.012.587c22.349-2.174,41.317-5.916,61.818-8.915a398.009,398.009,0,0,1,69.8-4.427c25.531.733,48.57,3.739,70.923,6.661,22.706,2.969,45.86,6.072,71.677,6.977,25.954.909,49.786-.909,73.583-3.28,23.714-2.363,48.068-5.079,74.25-4.816,25.817.26,48.8,3.284,72.23,5.627,11.31,1.131,45.973,5.578,58.064,6.046-.263-.01,5.92-.089,5.575-.1Z" transform="translate(0 -12.596)" fill="#e52441" stroke="#e52441" stroke-width="1"/>
    <path id="Trazado_2152" data-name="Trazado 2152" d="M1431.489,629.029l-7.849-1.269c-30.112-9.506-99.893-15.675-146.429-11.981-43.3,3.438-74.305,16.441-124.993,12.906-22.542-1.573-41.018-5.329-59.294-8.763-19.143-3.6-39.315-7.294-62.917-8.888a399.59,399.59,0,0,0-73.685,2.4c-22.283,2.763-41.089,6.984-63.839,9.54-23.28,2.615-49.079,2.638-73.171.693-24.865-2.008-47.713-5.346-73.049-7.027a457.91,457.91,0,0,0-73.717.849c-22.016,2.189-42.529,5.852-66.79,6.381-25.128.547-47.733-2.714-68.042-5.93-20.9-3.311-41.8-6.679-66.492-7.967a545.327,545.327,0,0,0-74.191,1.247c-11.624,1.024-22.64,2.445-32.659,4.218-10.043,1.777-19.147,3.854-29.351,5.577a203.9,203.9,0,0,1-32.753,3.078,240.356,240.356,0,0,1-33.063-2.33c-21.3-2.785-41.36-6.593-65.361-7.884-52.117-2.8-93.029,8.511-142.092,10.283q-4.8.174-9.634.294V625.9c15.831-.434,31.27-1.41,46.108-3.051,22.876-2.529,44.346-5.968,69.078-7.352,25.4-1.421,48.149.23,70.4,3.261,20.093,2.736,41.473,7.1,65.734,6.772,24.5-.33,42.3-5.34,60.931-8.64,20.368-3.607,44.774-5.7,69.8-6.1a499.486,499.486,0,0,1,72.975,3.984c21.671,2.871,40.924,6.881,63.957,9.12a294.605,294.605,0,0,0,34.649,1.427c12.021-.262,23.5-1.356,34.347-2.6,22.77-2.606,43.663-5.507,69.451-5.717,26.039-.212,49.86,1.956,73.336,4.482,23.649,2.544,47.619,5.289,74.054,5.029,26.184-.257,47.545-3.471,68.658-6.969,20.98-3.476,42.388-6.734,67.96-7.6,52.43-1.767,87.915,8.184,127.933,14.576,19.72,3.15,42.1,5.225,65.613,3.593,23.123-1.6,40.461-5.83,59.859-9.069a408.312,408.312,0,0,1,68.976-5.171c24.316.109,41.179,2.589,68.536,5.388,10.219,1.045,13.453,2.783,37.062,7.835.467.1,5.416.967,6.024.989C1429.809,630.177,1432.281,629.278,1431.489,629.029Z" transform="translate(0 -22.309)" fill="#e52441" stroke="#e52441" stroke-width="1"/>
    <path id="Trazado_2153" data-name="Trazado 2153" d="M1427.472,654.56c-11.5.147-21.669-3.663-29.6-5.545-3.956-.939-7.641-1.964-11.849-2.838a66.944,66.944,0,0,0-6.872-1.033c-3.552-.382-5.263-.9-8.277-1.452-9.981-1.816-25.3-2.32-37.3-2.107a272.185,272.185,0,0,0-35.778,2.954c-23.439,3.587-47.164,7.649-74.37,9.478a423.158,423.158,0,0,1-83.433-3c-24.282-3.431-45.154-8.151-69.892-11.445-22.936-3.055-49-4.868-75.1-3.464-51.854,2.79-88.146,15.843-144.168,15.3-13.148-.126-26.111-1.109-36.324-3.185-9-1.83-15.883-4.186-24.165-6.2a153.6,153.6,0,0,0-34.224-4.147,212.412,212.412,0,0,0-35.727,3.228c-23.859,4-45.425,9.2-75.74,9.846-26.347.559-52.262-2.825-73.738-6.206-23-3.622-44.42-8.006-69.578-10.73-25.86-2.8-55.881-3.742-82.51-.981-23.513,2.437-44.523,6.112-68.118,8.507-11.225,1.139-23.066,1.978-35.26,2.1-5.813.056-11.629-.054-17.336-.336a112.592,112.592,0,0,1-18.568-2.392c-10.448-2.149-19.392-4.7-30.907-6.538a204.168,204.168,0,0,0-35.68-2.22c-24.816.523-46.862,4.289-67.074,7.548-22.116,3.565-44.087,6.8-70.606,7.891-7.665.315-15.42.456-23.164.436v1.454a506.555,506.555,0,0,0,62.286-3.6c39.773-4.946,88.162-17.673,135.255-9.9,11.374,1.879,20.264,4.445,30.809,6.565a106.19,106.19,0,0,0,16.547,2.149c6.405.34,12.967.463,19.506.38,25-.317,47.635-3.505,69.009-6.414,23.706-3.226,46.669-6.246,74.68-5.8,29.381.468,54.962,4.029,78.786,8,21.574,3.6,42.67,7.582,67.259,9.879a335.917,335.917,0,0,0,39.632,1.626,312.025,312.025,0,0,0,39.864-3.71c12.516-1.9,23.419-4.261,35.6-6.265a208.755,208.755,0,0,1,35.966-3.074c26.9.364,39.381,6.841,57.969,10.507,22.469,4.431,53.993,3.373,78.664.755,23.929-2.539,44.279-6.62,67.007-9.694,10.722-1.45,22.041-2.7,34.047-3.339,6.013-.321,12.155-.488,18.309-.474,6.766.016,13.372.5,20.044.5,6.17,0,12.465.715,18.144,1.275q10.12,1,19.663,2.3c12.092,1.63,23.505,3.542,34.75,5.5,23.792,4.14,46.073,8.336,75.815,9.361a416.859,416.859,0,0,0,43-.649c14.372-1,26.841-2.735,39.93-4.453,3.034-.4,6.233-.74,9.231-1.153,2.963-.409,4.984-1.032,7.963-1.435,2.426-.329,5.1-.5,7.449-.874,3.23-.515,6.162-1.132,9.474-1.625a274.234,274.234,0,0,1,35.892-2.824c11.535-.163,26.708.347,36.206,2.126,2.673.5,4.215,1.006,7.386,1.364,2.563.288,4.828.528,7.057.966,4.533.892,8.379,2.005,12.555,2.994,7.944,1.881,17.053,5.406,28.568,5.259.145,0,5.106-.3,5.161-.3Z" transform="translate(0 -33.271)" fill="#e52441" stroke="#e52441" stroke-width="1"/>
    <path id="Trazado_2154" data-name="Trazado 2154" d="M1430.553,679.176l-2.07-.3c-9.512-.762-21.738-3.613-30.008-5.6a254.181,254.181,0,0,0-30.464-5.591c-25.836-3.051-51.216-1.12-74.8,2.17-22.343,3.116-43.752,6.879-68.912,8.523a408.255,408.255,0,0,1-75.956-2.46c-45.252-5.667-85.617-16.863-140.652-15.723-52.587,1.089-88.167,12.973-139.607,15.145a281.5,281.5,0,0,1-37.917-.7,167.649,167.649,0,0,1-28.83-5.434c-8.089-2.179-16-4.565-27.132-5.84-12.47-1.429-26.378-1.01-38.723.274-23.137,2.408-40.506,7.173-63.234,9.763-25.757,2.934-54.312,1.675-78.938-1.313-45.209-5.487-86.136-16.584-140.09-16.184-52.874.393-91.247,12.817-145.009,12-11.9-.181-23.526-1.147-32.68-3.06-9.665-2.02-16.529-4.753-27.569-6.385-20.548-3.039-46.411-1.757-67.006.552-23.781,2.666-43.6,7.024-67.3,9.729a549.233,549.233,0,0,1-61.541,3.216v1.463c7.9.006,15.794-.133,23.608-.431,27.042-1.031,49.539-4.119,72.07-7.758,20.5-3.31,42.258-6.627,67.391-7.059a207.666,207.666,0,0,1,32.774,1.74c11.04,1.633,17.892,4.369,27.569,6.385,20.006,4.169,48.45,3.533,71.528,1.455,24.335-2.19,45.551-5.98,69.544-8.355a398.192,398.192,0,0,1,74.828-.368c24.854,2.251,46.513,6.138,68.487,9.677,22,3.543,45.661,7.123,72.44,7.761,28.508.678,50.246-2.781,72.275-6.721,19.428-3.474,44.745-7.776,69.572-4.928,22.85,2.621,32.727,9.184,57.125,11.386,24.225,2.187,51.252.2,73.3-2.53,22.952-2.839,43.268-6.815,66.6-9.478a392.171,392.171,0,0,1,74.683-1.384c25.2,1.987,46.82,5.884,68.534,9.476,21.876,3.618,44.863,7.205,71.5,8.126,26.614.919,51.432-1.223,74.4-4.361,22.32-3.049,44.211-7.356,70.055-8.362a247.428,247.428,0,0,1,68.943,7.254c7.979,1.933,17.114,4.754,28.932,5.258C1433.032,680.4,1430.314,679.185,1430.553,679.176Z" transform="translate(0 -44.73)" fill="#e52441" stroke="#e52441" stroke-width="1"/>
  </g>
</svg>
