<svg xmlns="http://www.w3.org/2000/svg" width="283.364" height="76.335" viewBox="0 0 283.364 76.335">
  <path id="Trazado_799" data-name="Trazado 799" d="M122.768,307.357c1.158-.2,2.323-.51,3.484-.605,1.083-.09,2.166-.185,3.247-.276,5.929-.5,11.855-1.138,17.786-1.333,6.2-.207,12.408-.55,18.611-.585,6.332-.034,12.661-.095,18.991-.026q18.509.214,37.014.329c12.254.07,24.508.084,36.763-.051,6.082-.072,12.166-.4,18.246-.668,5.971-.259,11.936-.7,17.9-1.209,1.311-.113,2.621-.332,3.932-.5,1.295-.172,2.591-.308,3.885-.53,3.319-.576,6.634-1.186,9.951-1.868,5.773-1.192,11.527-2.779,17.307-3.769,6.056-1.039,12.125-1.63,18.187-2.474a51.639,51.639,0,0,0,8.2-1.694,70.544,70.544,0,0,0,9.255-3.544c2.968-1.39,5.935-2.817,8.906-4.184a39.453,39.453,0,0,1,4.3-1.724,36.583,36.583,0,0,0,4.853-1.861c.773-.381.926-2.712.926-4.211a16.238,16.238,0,0,0-.179-2.483c-.114-.676-.352-1.753-.747-1.72-2.9.218-5.8.443-8.7.749q-4.389.462-8.787.591a138.074,138.074,0,0,1-17.071-.8c.969-.3,1.937-.588,2.906-.886,3.479-1.068,6.948-2.408,10.445-3.128,1.861-.385,3.728-.7,5.583-1.2a17.362,17.362,0,0,0,2.805-.956,24.958,24.958,0,0,0,2.967-1.7c.315-.077.554-.432.716-1.062a13.229,13.229,0,0,0,.472-3.262c.995-.688,1.195-4,1.195-6a23.123,23.123,0,0,0-.258-3.594c-.173-1.022-.5-2.473-1.08-2.486-3.02-.078-6.036-.538-9.056-.624q-.531-.014-1.064-.014a64.6,64.6,0,0,0-7.788.573q-8.673,1.055-17.341,2.493c-2.684.437-5.367.953-8.054,1.319-3.286.447-6.566.791-9.856,1.082-5.5.483-11.016.67-16.523.9-6.315.265-12.623.64-18.933,1.311-5.844.622-11.682,1.449-17.521,2.24q-8.794,1.184-17.591,2.37c-6.009.818-12.023,1.426-18.038,2.035-3.043.309-6.09.4-9.135.6-2.882.185-5.766.234-8.65.329-5.675.188-11.35.3-17.027.435-11.449.264-22.895.685-34.344,1.114q-9.435.358-18.867.764c-3.208.138-6.418.426-9.623.634-2.741.178-5.482.6-8.223.916-2.917.339-5.834.712-8.751,1.092-1.734.227-3.471.461-5.207.688-.753.1-1.508.2-2.263.3-.687.09-1.375.207-2.06.325a7.747,7.747,0,0,0-1.453.429,7.572,7.572,0,0,0-1.582,1.138,6.111,6.111,0,0,0-.64,2.122,24.488,24.488,0,0,0,0,6.991l.282,1.279q.262,1.016.768,1.143a10.124,10.124,0,0,0,1.8,1q.5-.126.765-1.137c.067-.2.124-.424.177-.656.32-.021.642-.02.963-.02s.615,0,.923-.02q1.041-.053,2.079-.112,2.678-.142,5.356-.285c1.935-.107,3.868-.184,5.8-.259-.2.038-.4.075-.6.112-4.569.807-9.134,1.616-13.7,2.54q-1.108.283-1.687,2.5a27.988,27.988,0,0,0-1.036,6.349c-.8-.018-1.605-.037-2.408-.051-.562-.012-.673,2.208-.673,3.061s.111,3.043.673,3.056c.769.017,1.538.047,2.307.07a48.1,48.1,0,0,0,.52,5.658q.309,1.4.617,2.808.58,2.222,1.688,2.5C114.124,308.869,118.446,308.107,122.768,307.357Z" transform="translate(-87.647 -253.103) rotate(3)" fill="#fff"/>
</svg>
