<svg xmlns="http://www.w3.org/2000/svg" width="1400.385" height="116.726" viewBox="0 0 1400.385 116.726">
  <g id="Grupo_206" data-name="Grupo 206" transform="translate(-68.5 -2409.51)">
    <g id="Grupo_205" data-name="Grupo 205" transform="translate(69 2410)">
      <path id="Trazado_774" data-name="Trazado 774" d="M1392.148,2523.241l-17.715-2.792a12.811,12.811,0,0,1-1.427-.329c-26.232-7.924-68.868-11.864-110.3-10.69-10.268.291-20.393.9-30.019,1.815-4.808.458-9.8.966-14.2,1.628-2.345.353-3.958.854-6.1,1.268-2.349.455-5.051.642-7.6,1-11.1,1.576-20.39,3.935-31.246,5.627a304.962,304.962,0,0,1-34.994,3.153c-22.326.911-44.082-1.915-61.691-4.968-18.84-3.268-35.669-7.172-55.912-9.951a388.725,388.725,0,0,0-72.054-3.577c-23.8,1.162-44.71,4.373-64.722,7.559-21.3,3.392-41.58,6.608-67.822,6.977-27.09.381-51.144-2.438-75.441-4.955-12.716-1.319-25.567-2.69-38.856-3.641-13.349-.957-27.388-1.13-41.218-.984-25.921.271-47.1,3.683-69.991,6.251a299.818,299.818,0,0,1-38.07,2.164,353.487,353.487,0,0,1-36.44-2.5c-6-.7-11.8-1.493-17.481-2.337-5.659-.841-10.607-1.894-16.353-2.7-2.253-.314-4.737-.566-6.879-.924-2.774-.465-4.761-1.047-7.729-1.472-5.905-.846-12.029-1.6-18.336-2.249a538.226,538.226,0,0,0-73.7-2.4,471.742,471.742,0,0,0-68.442,7.7c-10.679,1.955-20.264,4.211-32.523,5.588a218.806,218.806,0,0,1-37.148,1.079c-13.11-.81-24.126-2.986-35.614-4.623-11.628-1.659-23.637-3.346-36.151-4.58-25.834-2.547-52.523-1.056-76.85,1.652q-18.234,2.029-35.805,4.376c-11.377,1.511-23.056,2.7-35.959,3.154-5.818.2-11.588.446-17.366.626v1.438c5.766-.183,11.528-.422,17.366-.613a357.564,357.564,0,0,0,35.951-3.153c10.261-1.359,20.633-2.665,31.231-3.861,13.237-1.493,27.94-3.142,42.962-3.431a340.039,340.039,0,0,1,38.471,1.264c12.51,1.232,24.531,2.922,36.151,4.58,11.854,1.692,23.159,3.922,36.786,4.689a219.668,219.668,0,0,0,37.069-1.272c12.117-1.414,21.7-3.7,32.371-5.634,9.959-1.809,20.4-3.477,31.6-4.8a498.265,498.265,0,0,1,73.251-2.791c12.9.432,25.509,1.315,37.45,2.571,11.985,1.262,21.705,3.087,32.793,4.664,5.03.717,9.359,1.656,14.329,2.4,6.362.955,12.888,1.852,19.663,2.626a350.717,350.717,0,0,0,36.5,2.38c25.9.229,47.794-3.743,70.466-6.193a450.931,450.931,0,0,1,78.881-1.156c26.219,1.972,50.345,5.289,76.417,7.346a394.216,394.216,0,0,0,72.893-1.1c22.333-2.557,41.357-6.629,63.383-9.365a395.093,395.093,0,0,1,70.644-2.789,473.156,473.156,0,0,1,63.479,8.351c17.473,3.352,34.783,7.083,55.917,9.014a284.708,284.708,0,0,0,68.5-2.3c10.444-1.656,19.488-3.971,30.273-5.475,2.221-.31,4.709-.479,6.819-.846,2.5-.436,4.265-1.025,6.875-1.425,4.367-.671,9.4-1.173,14.2-1.63,38.968-3.711,85.248-2.215,118.871,3.835,8.317,1.5,16.849,4.781,39.858,8.182C1400.621,2525.321,1403.085,2524.9,1392.148,2523.241Z" transform="translate(0 -2426.677)" fill="#13989a" stroke="#13989a" stroke-width="1"/>
      <path id="Trazado_775" data-name="Trazado 775" d="M1392.148,2523.241l-17.715-2.792a12.811,12.811,0,0,1-1.427-.329c-26.232-7.924-68.868-11.864-110.3-10.69-10.268.291-20.393.9-30.019,1.815-4.808.458-9.8.966-14.2,1.628-2.345.353-3.958.854-6.1,1.268-2.349.455-5.051.642-7.6,1-11.1,1.576-20.39,3.935-31.246,5.627a304.962,304.962,0,0,1-34.994,3.153c-22.326.911-44.082-1.915-61.691-4.968-18.84-3.268-35.669-7.172-55.912-9.951a388.725,388.725,0,0,0-72.054-3.577c-23.8,1.162-44.71,4.373-64.722,7.559-21.3,3.392-41.58,6.608-67.822,6.977-27.09.381-51.144-2.438-75.441-4.955-12.716-1.319-25.567-2.69-38.856-3.641-13.349-.957-27.388-1.13-41.218-.984-25.921.271-47.1,3.683-69.991,6.251a299.818,299.818,0,0,1-38.07,2.164,353.487,353.487,0,0,1-36.44-2.5c-6-.7-11.8-1.493-17.481-2.337-5.659-.841-10.607-1.894-16.353-2.7-2.253-.314-4.737-.566-6.879-.924-2.774-.465-4.761-1.047-7.729-1.472-5.905-.846-12.029-1.6-18.336-2.249a538.226,538.226,0,0,0-73.7-2.4,471.742,471.742,0,0,0-68.442,7.7c-10.679,1.955-20.264,4.211-32.523,5.588a218.806,218.806,0,0,1-37.148,1.079c-13.11-.81-24.126-2.986-35.614-4.623-11.628-1.659-23.637-3.346-36.151-4.58-25.834-2.547-52.523-1.056-76.85,1.652q-18.234,2.029-35.805,4.376c-11.377,1.511-23.056,2.7-35.959,3.154-5.818.2-11.588.446-17.366.626v1.438c5.766-.183,11.528-.422,17.366-.613a357.564,357.564,0,0,0,35.951-3.153c10.261-1.359,20.633-2.665,31.231-3.861,13.237-1.493,27.94-3.142,42.962-3.431a340.039,340.039,0,0,1,38.471,1.264c12.51,1.232,24.531,2.922,36.151,4.58,11.854,1.692,23.159,3.922,36.786,4.689a219.668,219.668,0,0,0,37.069-1.272c12.117-1.414,21.7-3.7,32.371-5.634,9.959-1.809,20.4-3.477,31.6-4.8a498.265,498.265,0,0,1,73.251-2.791c12.9.432,25.509,1.315,37.45,2.571,11.985,1.262,21.705,3.087,32.793,4.664,5.03.717,9.359,1.656,14.329,2.4,6.362.955,12.888,1.852,19.663,2.626a350.717,350.717,0,0,0,36.5,2.38c25.9.229,47.794-3.743,70.466-6.193a450.931,450.931,0,0,1,78.881-1.156c26.219,1.972,50.345,5.289,76.417,7.346a394.216,394.216,0,0,0,72.893-1.1c22.333-2.557,41.357-6.629,63.383-9.365a395.093,395.093,0,0,1,70.644-2.789,473.156,473.156,0,0,1,63.479,8.351c17.473,3.352,34.783,7.083,55.917,9.014a284.708,284.708,0,0,0,68.5-2.3c10.444-1.656,19.488-3.971,30.273-5.475,2.221-.31,4.709-.479,6.819-.846,2.5-.436,4.265-1.025,6.875-1.425,4.367-.671,9.4-1.173,14.2-1.63,38.968-3.711,85.248-2.215,118.871,3.835,8.317,1.5,16.849,4.781,39.858,8.182C1400.621,2525.321,1403.085,2524.9,1392.148,2523.241Z" transform="translate(0 -2426.677)" fill="#13989a" stroke="#13989a" stroke-width="1"/>
      <path id="Trazado_776" data-name="Trazado 776" d="M1397.719,2546.716c-1.722-1.058-7.454-2.107-10.78-2.908-4.3-1.037-8.9-2-13.7-2.893-10.326-1.933-21.573-3.581-33.317-4.955-21.8-2.551-47.208-4.518-71.711-3.875l-.634.018a377.933,377.933,0,0,0-58.45,5.9c-18.224,3.432-36.686,7.25-59.617,8.631-25.384,1.529-48.2-.994-68.537-4.53-20.883-3.629-40.083-7.8-62.756-10.805a370.568,370.568,0,0,0-71.626-2.791c-24.631,1.505-46.259,5.026-66.631,8.565a399.5,399.5,0,0,1-72.217,5.825c-14.464-.145-27.254-1.31-40.481-2.626-12.909-1.287-25.7-2.643-38.609-3.928-26.01-2.59-52.557-4.225-80.657-2.659-24.718,1.376-45.436,5.292-69.84,6.923a338.265,338.265,0,0,1-72.914-3.132c-21.955-3.483-44.421-7.469-69.824-9.346-45.637-3.374-96.226.014-131.847,7.426-4.294.892-8.133,1.906-12.821,2.682-5.307.88-11.227,1.582-16.979,2.275a205.173,205.173,0,0,1-37.153.845c-12.69-.881-23.873-3.036-35.112-4.653-11.634-1.674-23.654-3.342-36.455-4.438-26.979-2.315-53.184-.826-78.289,2.083-23.242,2.694-46.266,6.338-71.949,7.5-4.936.223-9.871.333-14.811.384v1.45c4.936-.052,9.871-.162,14.811-.382,13.336-.591,25.659-1.985,37.831-3.376,23.936-2.735,47.514-6.539,74.373-7.28,27.668-.764,51.385,2.194,74.489,5.516,11.21,1.613,22.441,3.786,35.112,4.653a204.035,204.035,0,0,0,37.153-.846c5.394-.667,10.968-1.309,16.03-2.116,5.374-.859,9.72-2.01,14.612-3.013,8.919-1.83,18.7-3.413,29.107-4.7a538.547,538.547,0,0,1,67.6-3.847,507.263,507.263,0,0,1,70.135,5.385c22.724,3.227,43.24,7.664,69.9,8.811,26.118,1.123,48.978-1.23,71.934-3.957,11.7-1.39,23.331-2.783,36.148-3.458,13.077-.691,26.672-.737,39.884-.248,27.764,1.028,53.61,4.469,79.365,7.025,13.271,1.316,26.041,2.413,40.545,2.514,12.706.087,25.527-.375,37.467-1.433,24.479-2.165,43.787-6.543,66.312-9.584,21.325-2.878,45.394-4.788,70.015-3.817,25.065.988,47.631,4.764,67.532,8.372,19.966,3.619,39.354,8.1,63.63,9.958,23.505,1.8,46.765-.1,66.65-3.25,19.468-3.086,35.762-7.169,57.724-9.27,38.824-3.715,84.476-2.017,117.626,4.058,14,2.567,25.208,6.233,41.1,8.241C1396.99,2547.292,1398.2,2547.013,1397.719,2546.716Z" transform="translate(0 -2432.822)" fill="#13989a" stroke="#13989a" stroke-width="1"/>
      <path id="Trazado_777" data-name="Trazado 777" d="M1397.719,2546.716c-1.722-1.058-7.454-2.107-10.78-2.908-4.3-1.037-8.9-2-13.7-2.893-10.326-1.933-21.573-3.581-33.317-4.955-21.8-2.551-47.208-4.518-71.711-3.875l-.634.018a377.933,377.933,0,0,0-58.45,5.9c-18.224,3.432-36.686,7.25-59.617,8.631-25.384,1.529-48.2-.994-68.537-4.53-20.883-3.629-40.083-7.8-62.756-10.805a370.568,370.568,0,0,0-71.626-2.791c-24.631,1.505-46.259,5.026-66.631,8.565a399.5,399.5,0,0,1-72.217,5.825c-14.464-.145-27.254-1.31-40.481-2.626-12.909-1.287-25.7-2.643-38.609-3.928-26.01-2.59-52.557-4.225-80.657-2.659-24.718,1.376-45.436,5.292-69.84,6.923a338.265,338.265,0,0,1-72.914-3.132c-21.955-3.483-44.421-7.469-69.824-9.346-45.637-3.374-96.226.014-131.847,7.426-4.294.892-8.133,1.906-12.821,2.682-5.307.88-11.227,1.582-16.979,2.275a205.173,205.173,0,0,1-37.153.845c-12.69-.881-23.873-3.036-35.112-4.653-11.634-1.674-23.654-3.342-36.455-4.438-26.979-2.315-53.184-.826-78.289,2.083-23.242,2.694-46.266,6.338-71.949,7.5-4.936.223-9.871.333-14.811.384v1.45c4.936-.052,9.871-.162,14.811-.382,13.336-.591,25.659-1.985,37.831-3.376,23.936-2.735,47.514-6.539,74.373-7.28,27.668-.764,51.385,2.194,74.489,5.516,11.21,1.613,22.441,3.786,35.112,4.653a204.035,204.035,0,0,0,37.153-.846c5.394-.667,10.968-1.309,16.03-2.116,5.374-.859,9.72-2.01,14.612-3.013,8.919-1.83,18.7-3.413,29.107-4.7a538.547,538.547,0,0,1,67.6-3.847,507.263,507.263,0,0,1,70.135,5.385c22.724,3.227,43.24,7.664,69.9,8.811,26.118,1.123,48.978-1.23,71.934-3.957,11.7-1.39,23.331-2.783,36.148-3.458,13.077-.691,26.672-.737,39.884-.248,27.764,1.028,53.61,4.469,79.365,7.025,13.271,1.316,26.041,2.413,40.545,2.514,12.706.087,25.527-.375,37.467-1.433,24.479-2.165,43.787-6.543,66.312-9.584,21.325-2.878,45.394-4.788,70.015-3.817,25.065.988,47.631,4.764,67.532,8.372,19.966,3.619,39.354,8.1,63.63,9.958,23.505,1.8,46.765-.1,66.65-3.25,19.468-3.086,35.762-7.169,57.724-9.27,38.824-3.715,84.476-2.017,117.626,4.058,14,2.567,25.208,6.233,41.1,8.241C1396.99,2547.292,1398.2,2547.013,1397.719,2546.716Z" transform="translate(0 -2432.822)" fill="#13989a" stroke="#13989a" stroke-width="1"/>
      <path id="Trazado_778" data-name="Trazado 778" d="M1397.816,2422.209l-.838-.253c-9.857-.812-26.183-4.373-33.905-6.2a220.788,220.788,0,0,0-32.9-5.624,280.7,280.7,0,0,0-37.472-.79,335.547,335.547,0,0,0-35.36,3.844c-22.167,3.276-44.429,6.862-69.9,8.437a407.024,407.024,0,0,1-74.154-2.46c-23.578-2.866-44.151-6.929-66.433-10.306-23.055-3.5-49.82-6.6-77.724-5.749-29.025.887-52.279,4.369-76.367,8.112-22.015,3.421-45.668,6.8-72.253,7.43a237.58,237.58,0,0,1-36.349-1.544,210.843,210.843,0,0,1-26.478-5.423c-8.149-2.124-15.233-4.4-26.653-5.53a183.726,183.726,0,0,0-33.937-.055c-25.159,2.385-43.819,7.55-67.974,10.393-26.53,3.124-57.06,1.671-82.252-1.466-47.883-5.964-94.456-18.655-153.474-15.981-26.589,1.2-49.405,5.11-73.134,8.022-21.9,2.686-49.223,5.218-73.975,3.428a165.069,165.069,0,0,1-28.833-4.751c-9.436-2.341-17.389-4.422-30.626-5.5-25.546-2.079-55.778.966-77.092,4.364-23.028,3.671-44.668,7.542-71.759,9.311-12.333.806-25.323,1.215-37.978,1.627v1.451l.653-.02c26.709-.89,51.434-2.222,75.075-5.482,24.685-3.4,45.537-8.026,73.753-9.755a262.409,262.409,0,0,1,38.436.049c12.735,1.1,20.389,3.142,29.538,5.406a165.828,165.828,0,0,0,29.869,4.828,321.85,321.85,0,0,0,38.859-.256c24.832-1.487,46.516-4.972,68.978-7.786,26.49-3.318,53.255-4.906,82.458-2.7,26.69,2.015,49.076,5.953,71.936,9.7,24.063,3.942,49.9,8.045,79.621,8.645a299.333,299.333,0,0,0,41.014-1.8c11.671-1.412,22.091-3.325,32.575-5.186,20.091-3.564,43.509-7.627,69.254-4.926,11.208,1.176,18.285,3.517,26.386,5.617a206.076,206.076,0,0,0,25.761,5.239c23.4,3.086,51.913,1.4,74.717-1.188,25.143-2.853,46.409-7.35,71.64-10.131,25.753-2.837,53.426-3.743,80.339-1.337,25.6,2.289,47.557,6.264,69.926,9.942,21.083,3.467,43.987,6.881,69.665,7.811,25.924.94,51.414-1.316,73.855-4.26,22.366-2.935,43.943-7.578,69.537-8.654a279.129,279.129,0,0,1,37.431.948,224.809,224.809,0,0,1,32.607,5.711c7.559,1.786,20.038,6.21,32.044,5.726C1399.7,2422.971,1397.254,2422.254,1397.816,2422.209Z" transform="translate(0 -2398.675)" fill="#13989a" stroke="#13989a" stroke-width="1"/>
      <path id="Trazado_779" data-name="Trazado 779" d="M1397.816,2422.209l-.838-.253c-9.857-.812-26.183-4.373-33.905-6.2a220.788,220.788,0,0,0-32.9-5.624,280.7,280.7,0,0,0-37.472-.79,335.547,335.547,0,0,0-35.36,3.844c-22.167,3.276-44.429,6.862-69.9,8.437a407.024,407.024,0,0,1-74.154-2.46c-23.578-2.866-44.151-6.929-66.433-10.306-23.055-3.5-49.82-6.6-77.724-5.749-29.025.887-52.279,4.369-76.367,8.112-22.015,3.421-45.668,6.8-72.253,7.43a237.58,237.58,0,0,1-36.349-1.544,210.843,210.843,0,0,1-26.478-5.423c-8.149-2.124-15.233-4.4-26.653-5.53a183.726,183.726,0,0,0-33.937-.055c-25.159,2.385-43.819,7.55-67.974,10.393-26.53,3.124-57.06,1.671-82.252-1.466-47.883-5.964-94.456-18.655-153.474-15.981-26.589,1.2-49.405,5.11-73.134,8.022-21.9,2.686-49.223,5.218-73.975,3.428a165.069,165.069,0,0,1-28.833-4.751c-9.436-2.341-17.389-4.422-30.626-5.5-25.546-2.079-55.778.966-77.092,4.364-23.028,3.671-44.668,7.542-71.759,9.311-12.333.806-25.323,1.215-37.978,1.627v1.451l.653-.02c26.709-.89,51.434-2.222,75.075-5.482,24.685-3.4,45.537-8.026,73.753-9.755a262.409,262.409,0,0,1,38.436.049c12.735,1.1,20.389,3.142,29.538,5.406a165.828,165.828,0,0,0,29.869,4.828,321.85,321.85,0,0,0,38.859-.256c24.832-1.487,46.516-4.972,68.978-7.786,26.49-3.318,53.255-4.906,82.458-2.7,26.69,2.015,49.076,5.953,71.936,9.7,24.063,3.942,49.9,8.045,79.621,8.645a299.333,299.333,0,0,0,41.014-1.8c11.671-1.412,22.091-3.325,32.575-5.186,20.091-3.564,43.509-7.627,69.254-4.926,11.208,1.176,18.285,3.517,26.386,5.617a206.076,206.076,0,0,0,25.761,5.239c23.4,3.086,51.913,1.4,74.717-1.188,25.143-2.853,46.409-7.35,71.64-10.131,25.753-2.837,53.426-3.743,80.339-1.337,25.6,2.289,47.557,6.264,69.926,9.942,21.083,3.467,43.987,6.881,69.665,7.811,25.924.94,51.414-1.316,73.855-4.26,22.366-2.935,43.943-7.578,69.537-8.654a279.129,279.129,0,0,1,37.431.948,224.809,224.809,0,0,1,32.607,5.711c7.559,1.786,20.038,6.21,32.044,5.726C1399.7,2422.971,1397.254,2422.254,1397.816,2422.209Z" transform="translate(0 -2398.675)" fill="#13989a" stroke="#13989a" stroke-width="1"/>
      <path id="Trazado_780" data-name="Trazado 780" d="M1393.051,2442.407c-26.173-2.487-70.488-7.541-94.044-9.663a460.7,460.7,0,0,0-77.815-.518c-24.076,1.856-46.535,4.9-71.3,6.234a486.276,486.276,0,0,1-77.091-2.473c-45.906-4.9-91.406-13.907-144.571-10.022-45.353,3.313-79.62,14.592-129.851,14.132-24-.22-44.33-3.594-64-6.576-20.055-3.041-42.322-5.686-66.657-5.066-25.118.639-47.362,4.093-70.658,6.17a477.968,477.968,0,0,1-77.954.28c-48.022-3.629-95.7-13.3-148.644-10.9-45.684,2.077-74.271,16.128-125.2,12.771-22.967-1.514-41.271-5.388-61.784-8.115a296.806,296.806,0,0,0-71.292-.968c-21.7,2.5-38.3,6.812-57.811,10.1A340.9,340.9,0,0,1,0,2442.4v1.414c7.757,0,15.616-.262,23.548-.842,23.19-1.694,40.814-5.6,59.378-9.168,18.866-3.628,40.234-6.835,65.285-6.4,25.155.44,45.031,4.229,65.735,7.3,20.3,3.012,42.553,5.18,66.275,3.246,22.5-1.834,38.949-6.192,58.492-9.249,21.893-3.425,46.2-4.281,71.562-2.9,25.457,1.384,48.817,4.4,72.365,7.02,24.116,2.678,49.351,5.14,76.323,5.061,26.631-.077,49.443-3.012,73.4-5.449,23.349-2.374,46.22-3.495,70.674-1.358,22.5,1.967,40.846,5.8,62.238,8.3a323.231,323.231,0,0,0,67.946.587c22.661-2.174,41.893-5.916,62.681-8.915a409.078,409.078,0,0,1,70.77-4.427c25.887.733,49.248,3.739,71.912,6.661,23.023,2.969,46.5,6.072,72.675,6.977,26.317.909,50.481-.909,74.609-3.28,24.046-2.363,48.739-5.079,75.286-4.816,26.177.26,49.481,3.284,73.236,5.627,11.468,1.131,46.615,5.578,58.873,6.046-.267-.01,6-.089,5.653-.1Z" transform="translate(0 -2405.246)" fill="#13989a" stroke="#13989a" stroke-width="1"/>
      <path id="Trazado_781" data-name="Trazado 781" d="M1393.051,2442.407c-26.173-2.487-70.488-7.541-94.044-9.663a460.7,460.7,0,0,0-77.815-.518c-24.076,1.856-46.535,4.9-71.3,6.234a486.276,486.276,0,0,1-77.091-2.473c-45.906-4.9-91.406-13.907-144.571-10.022-45.353,3.313-79.62,14.592-129.851,14.132-24-.22-44.33-3.594-64-6.576-20.055-3.041-42.322-5.686-66.657-5.066-25.118.639-47.362,4.093-70.658,6.17a477.968,477.968,0,0,1-77.954.28c-48.022-3.629-95.7-13.3-148.644-10.9-45.684,2.077-74.271,16.128-125.2,12.771-22.967-1.514-41.271-5.388-61.784-8.115a296.806,296.806,0,0,0-71.292-.968c-21.7,2.5-38.3,6.812-57.811,10.1A340.9,340.9,0,0,1,0,2442.4v1.414c7.757,0,15.616-.262,23.548-.842,23.19-1.694,40.814-5.6,59.378-9.168,18.866-3.628,40.234-6.835,65.285-6.4,25.155.44,45.031,4.229,65.735,7.3,20.3,3.012,42.553,5.18,66.275,3.246,22.5-1.834,38.949-6.192,58.492-9.249,21.893-3.425,46.2-4.281,71.562-2.9,25.457,1.384,48.817,4.4,72.365,7.02,24.116,2.678,49.351,5.14,76.323,5.061,26.631-.077,49.443-3.012,73.4-5.449,23.349-2.374,46.22-3.495,70.674-1.358,22.5,1.967,40.846,5.8,62.238,8.3a323.231,323.231,0,0,0,67.946.587c22.661-2.174,41.893-5.916,62.681-8.915a409.078,409.078,0,0,1,70.77-4.427c25.887.733,49.248,3.739,71.912,6.661,23.023,2.969,46.5,6.072,72.675,6.977,26.317.909,50.481-.909,74.609-3.28,24.046-2.363,48.739-5.079,75.286-4.816,26.177.26,49.481,3.284,73.236,5.627,11.468,1.131,46.615,5.578,58.873,6.046-.267-.01,6-.089,5.653-.1Z" transform="translate(0 -2405.246)" fill="#13989a" stroke="#13989a" stroke-width="1"/>
      <path id="Trazado_782" data-name="Trazado 782" d="M1398.6,2462.217l-7.958-1.269c-30.532-9.506-101.284-15.675-148.469-11.981-43.906,3.438-75.34,16.441-126.735,12.906-22.856-1.573-41.591-5.329-60.121-8.763-19.41-3.6-39.863-7.294-63.793-8.888a410.766,410.766,0,0,0-74.712,2.4c-22.594,2.763-41.662,6.984-64.729,9.54-23.6,2.615-49.763,2.638-74.191.693-25.212-2.008-48.379-5.346-74.068-7.027a470.709,470.709,0,0,0-74.743.849c-22.323,2.189-43.123,5.852-67.721,6.381-25.479.547-48.4-2.714-68.99-5.93-21.189-3.311-42.379-6.679-67.419-7.967a560.6,560.6,0,0,0-75.225,1.247c-11.787,1.024-22.957,2.445-33.115,4.218-10.182,1.777-19.414,3.854-29.759,5.577a209.546,209.546,0,0,1-33.21,3.078,247.009,247.009,0,0,1-33.524-2.33c-21.6-2.785-41.936-6.593-66.273-7.884-52.842-2.8-94.325,8.511-144.072,10.283q-4.87.174-9.768.294v1.444c16.052-.434,31.706-1.41,46.751-3.051,23.195-2.529,44.964-5.968,70.041-7.352,25.749-1.421,48.82.23,71.385,3.261,20.373,2.736,42.052,7.1,66.651,6.772,24.837-.33,42.886-5.34,61.779-8.64,20.652-3.607,45.4-5.7,70.777-6.1a513.412,513.412,0,0,1,73.992,3.984c21.973,2.871,41.494,6.881,64.848,9.12a302.816,302.816,0,0,0,35.132,1.427c12.188-.262,23.826-1.356,34.825-2.6,23.087-2.606,44.273-5.507,70.419-5.717,26.4-.212,50.555,1.956,74.358,4.482,23.979,2.544,48.283,5.289,75.086,5.029,26.549-.257,48.208-3.471,69.615-6.969,21.272-3.476,42.979-6.734,68.907-7.6,53.161-1.767,89.14,8.184,129.715,14.576,20,3.15,42.689,5.225,66.527,3.593,23.445-1.6,41.025-5.83,60.693-9.069a419.655,419.655,0,0,1,69.937-5.171c24.655.109,41.753,2.589,69.492,5.388,10.361,1.045,13.64,2.783,37.578,7.835.474.1,5.491.967,6.108.989C1396.894,2463.365,1399.4,2462.466,1398.6,2462.217Z" transform="translate(0 -2410.313)" fill="#13989a" stroke="#13989a" stroke-width="1"/>
      <path id="Trazado_783" data-name="Trazado 783" d="M1398.6,2462.217l-7.958-1.269c-30.532-9.506-101.284-15.675-148.469-11.981-43.906,3.438-75.34,16.441-126.735,12.906-22.856-1.573-41.591-5.329-60.121-8.763-19.41-3.6-39.863-7.294-63.793-8.888a410.766,410.766,0,0,0-74.712,2.4c-22.594,2.763-41.662,6.984-64.729,9.54-23.6,2.615-49.763,2.638-74.191.693-25.212-2.008-48.379-5.346-74.068-7.027a470.709,470.709,0,0,0-74.743.849c-22.323,2.189-43.123,5.852-67.721,6.381-25.479.547-48.4-2.714-68.99-5.93-21.189-3.311-42.379-6.679-67.419-7.967a560.6,560.6,0,0,0-75.225,1.247c-11.787,1.024-22.957,2.445-33.115,4.218-10.182,1.777-19.414,3.854-29.759,5.577a209.546,209.546,0,0,1-33.21,3.078,247.009,247.009,0,0,1-33.524-2.33c-21.6-2.785-41.936-6.593-66.273-7.884-52.842-2.8-94.325,8.511-144.072,10.283q-4.87.174-9.768.294v1.444c16.052-.434,31.706-1.41,46.751-3.051,23.195-2.529,44.964-5.968,70.041-7.352,25.749-1.421,48.82.23,71.385,3.261,20.373,2.736,42.052,7.1,66.651,6.772,24.837-.33,42.886-5.34,61.779-8.64,20.652-3.607,45.4-5.7,70.777-6.1a513.412,513.412,0,0,1,73.992,3.984c21.973,2.871,41.494,6.881,64.848,9.12a302.816,302.816,0,0,0,35.132,1.427c12.188-.262,23.826-1.356,34.825-2.6,23.087-2.606,44.273-5.507,70.419-5.717,26.4-.212,50.555,1.956,74.358,4.482,23.979,2.544,48.283,5.289,75.086,5.029,26.549-.257,48.208-3.471,69.615-6.969,21.272-3.476,42.979-6.734,68.907-7.6,53.161-1.767,89.14,8.184,129.715,14.576,20,3.15,42.689,5.225,66.527,3.593,23.445-1.6,41.025-5.83,60.693-9.069a419.655,419.655,0,0,1,69.937-5.171c24.655.109,41.753,2.589,69.492,5.388,10.361,1.045,13.64,2.783,37.578,7.835.474.1,5.491.967,6.108.989C1396.894,2463.365,1399.4,2462.466,1398.6,2462.217Z" transform="translate(0 -2410.313)" fill="#13989a" stroke="#13989a" stroke-width="1"/>
      <path id="Trazado_784" data-name="Trazado 784" d="M1394.524,2485.359c-11.663.148-21.97-3.662-30.012-5.545-4.011-.938-7.749-1.963-12.014-2.837a68.74,68.74,0,0,0-6.968-1.034c-3.6-.381-5.336-.9-8.393-1.451-10.119-1.816-25.656-2.32-37.817-2.107a279.409,279.409,0,0,0-36.277,2.954c-23.765,3.587-47.821,7.649-75.406,9.477a434.9,434.9,0,0,1-84.595-2.995c-24.621-3.431-45.784-8.151-70.866-11.445-23.257-3.055-49.688-4.868-76.148-3.464-52.577,2.79-89.375,15.843-146.177,15.3-13.331-.126-26.475-1.11-36.829-3.185-9.129-1.83-16.105-4.186-24.5-6.2a157.88,157.88,0,0,0-34.7-4.148,218.4,218.4,0,0,0-36.225,3.229c-24.192,4-46.058,9.2-76.8,9.846-26.714.559-52.99-2.825-74.766-6.206-23.324-3.622-45.04-8.006-70.548-10.73-26.221-2.8-56.66-3.742-83.661-.981-23.841,2.437-45.142,6.112-69.067,8.507-11.381,1.139-23.387,1.978-35.751,2.095-5.893.056-11.791-.054-17.577-.336a115.676,115.676,0,0,1-18.827-2.392c-10.594-2.149-19.663-4.7-31.339-6.538a209.777,209.777,0,0,0-36.177-2.22c-25.162.522-47.514,4.289-68.009,7.548-22.424,3.565-44.7,6.8-71.59,7.89-7.772.316-15.636.456-23.487.437v1.454a520.494,520.494,0,0,0,63.154-3.6c40.327-4.945,89.39-17.672,137.14-9.894,11.533,1.879,20.545,4.445,31.238,6.564a108.974,108.974,0,0,0,16.778,2.15c6.494.34,13.148.463,19.778.38,25.345-.317,48.3-3.5,69.971-6.414,24.035-3.226,47.319-6.247,75.721-5.8,29.79.468,55.728,4.029,79.884,8,21.875,3.6,43.265,7.582,68.2,9.879a345.616,345.616,0,0,0,40.184,1.626,320.885,320.885,0,0,0,40.42-3.71c12.69-1.9,23.745-4.261,36.1-6.265a214.534,214.534,0,0,1,36.467-3.074c27.271.364,39.93,6.841,58.777,10.507,22.782,4.431,54.745,3.373,79.76.754,24.263-2.539,44.9-6.62,67.941-9.693,10.871-1.45,22.348-2.7,34.522-3.339,6.1-.321,12.324-.488,18.564-.474,6.861.016,13.558.5,20.323.5,6.256,0,12.639.714,18.4,1.275q10.262,1,19.937,2.3c12.26,1.63,23.833,3.542,35.234,5.5,24.124,4.139,46.715,8.336,76.872,9.361a428.569,428.569,0,0,0,43.6-.649c14.573-1,27.216-2.735,40.488-4.453,3.075-.4,6.319-.74,9.36-1.153,3-.409,5.053-1.032,8.074-1.435,2.459-.329,5.173-.5,7.553-.874,3.275-.515,6.248-1.132,9.607-1.625a282.03,282.03,0,0,1,36.391-2.825c11.7-.162,27.08.348,36.71,2.126,2.71.5,4.275,1.007,7.49,1.365,2.6.288,4.894.528,7.154.965,4.6.893,8.5,2.006,12.731,3,8.054,1.88,17.291,5.406,28.966,5.258.147,0,5.177-.3,5.233-.3Z" transform="translate(0 -2416.031)" fill="#13989a" stroke="#13989a" stroke-width="1"/>
      <path id="Trazado_785" data-name="Trazado 785" d="M1394.524,2485.359c-11.663.148-21.97-3.662-30.012-5.545-4.011-.938-7.749-1.963-12.014-2.837a68.74,68.74,0,0,0-6.968-1.034c-3.6-.381-5.336-.9-8.393-1.451-10.119-1.816-25.656-2.32-37.817-2.107a279.409,279.409,0,0,0-36.277,2.954c-23.765,3.587-47.821,7.649-75.406,9.477a434.9,434.9,0,0,1-84.595-2.995c-24.621-3.431-45.784-8.151-70.866-11.445-23.257-3.055-49.688-4.868-76.148-3.464-52.577,2.79-89.375,15.843-146.177,15.3-13.331-.126-26.475-1.11-36.829-3.185-9.129-1.83-16.105-4.186-24.5-6.2a157.88,157.88,0,0,0-34.7-4.148,218.4,218.4,0,0,0-36.225,3.229c-24.192,4-46.058,9.2-76.8,9.846-26.714.559-52.99-2.825-74.766-6.206-23.324-3.622-45.04-8.006-70.548-10.73-26.221-2.8-56.66-3.742-83.661-.981-23.841,2.437-45.142,6.112-69.067,8.507-11.381,1.139-23.387,1.978-35.751,2.095-5.893.056-11.791-.054-17.577-.336a115.676,115.676,0,0,1-18.827-2.392c-10.594-2.149-19.663-4.7-31.339-6.538a209.777,209.777,0,0,0-36.177-2.22c-25.162.522-47.514,4.289-68.009,7.548-22.424,3.565-44.7,6.8-71.59,7.89-7.772.316-15.636.456-23.487.437v1.454a520.494,520.494,0,0,0,63.154-3.6c40.327-4.945,89.39-17.672,137.14-9.894,11.533,1.879,20.545,4.445,31.238,6.564a108.974,108.974,0,0,0,16.778,2.15c6.494.34,13.148.463,19.778.38,25.345-.317,48.3-3.5,69.971-6.414,24.035-3.226,47.319-6.247,75.721-5.8,29.79.468,55.728,4.029,79.884,8,21.875,3.6,43.265,7.582,68.2,9.879a345.616,345.616,0,0,0,40.184,1.626,320.885,320.885,0,0,0,40.42-3.71c12.69-1.9,23.745-4.261,36.1-6.265a214.534,214.534,0,0,1,36.467-3.074c27.271.364,39.93,6.841,58.777,10.507,22.782,4.431,54.745,3.373,79.76.754,24.263-2.539,44.9-6.62,67.941-9.693,10.871-1.45,22.348-2.7,34.522-3.339,6.1-.321,12.324-.488,18.564-.474,6.861.016,13.558.5,20.323.5,6.256,0,12.639.714,18.4,1.275q10.262,1,19.937,2.3c12.26,1.63,23.833,3.542,35.234,5.5,24.124,4.139,46.715,8.336,76.872,9.361a428.569,428.569,0,0,0,43.6-.649c14.573-1,27.216-2.735,40.488-4.453,3.075-.4,6.319-.74,9.36-1.153,3-.409,5.053-1.032,8.074-1.435,2.459-.329,5.173-.5,7.553-.874,3.275-.515,6.248-1.132,9.607-1.625a282.03,282.03,0,0,1,36.391-2.825c11.7-.162,27.08.348,36.71,2.126,2.71.5,4.275,1.007,7.49,1.365,2.6.288,4.894.528,7.154.965,4.6.893,8.5,2.006,12.731,3,8.054,1.88,17.291,5.406,28.966,5.258.147,0,5.177-.3,5.233-.3Z" transform="translate(0 -2416.031)" fill="#13989a" stroke="#13989a" stroke-width="1"/>
      <path id="Trazado_786" data-name="Trazado 786" d="M1397.648,2507.479l-2.1-.3c-9.645-.762-22.042-3.612-30.427-5.6a260.95,260.95,0,0,0-30.889-5.591c-26.2-3.05-51.93-1.12-75.844,2.17-22.654,3.117-44.361,6.879-69.871,8.523a419.691,419.691,0,0,1-77.016-2.46c-45.883-5.667-86.81-16.862-142.612-15.723-53.32,1.089-89.395,12.973-141.553,15.145a289.545,289.545,0,0,1-38.445-.7,172.117,172.117,0,0,1-29.232-5.435c-8.2-2.179-16.225-4.564-27.51-5.84-12.644-1.428-26.746-1.01-39.262.275-23.459,2.407-41.072,7.172-64.116,9.762-26.116,2.934-55.069,1.675-80.038-1.313C502.9,2494.9,461.4,2483.8,406.692,2484.2c-53.611.393-92.519,12.818-147.03,12-12.071-.18-23.854-1.147-33.135-3.059-9.8-2.021-16.759-4.754-27.953-6.386-20.834-3.039-47.058-1.757-67.94.553-24.112,2.666-44.21,7.023-68.235,9.728A564.566,564.566,0,0,1,0,2500.248v1.463c8.007.006,16.014-.133,23.937-.431,27.419-1.031,50.229-4.119,73.075-7.758,20.782-3.31,42.847-6.626,68.33-7.059a213.633,213.633,0,0,1,33.231,1.74c11.194,1.633,18.141,4.369,27.953,6.385,20.284,4.169,49.125,3.533,72.525,1.455,24.674-2.189,46.186-5.98,70.513-8.355a409.433,409.433,0,0,1,75.872-.368c25.2,2.251,47.161,6.138,69.441,9.677,22.3,3.543,46.3,7.123,73.45,7.761,28.9.679,50.945-2.78,73.281-6.721,19.7-3.474,45.37-7.775,70.542-4.928,23.169,2.621,33.183,9.184,57.921,11.386,24.563,2.188,51.966.2,74.322-2.53,23.273-2.839,43.872-6.815,67.526-9.478a403.039,403.039,0,0,1,75.724-1.383c25.551,1.986,47.473,5.883,69.49,9.475,22.18,3.618,45.488,7.2,72.5,8.126,26.985.919,52.149-1.223,75.437-4.36,22.631-3.05,44.827-7.357,71.031-8.363a254.214,254.214,0,0,1,69.9,7.254c8.091,1.933,17.353,4.754,29.335,5.258C1400.161,2508.7,1397.406,2507.488,1397.648,2507.479Z" transform="translate(0 -2422.009)" fill="#13989a" stroke="#13989a" stroke-width="1"/>
      <path id="Trazado_787" data-name="Trazado 787" d="M1397.648,2507.479l-2.1-.3c-9.645-.762-22.042-3.612-30.427-5.6a260.95,260.95,0,0,0-30.889-5.591c-26.2-3.05-51.93-1.12-75.844,2.17-22.654,3.117-44.361,6.879-69.871,8.523a419.691,419.691,0,0,1-77.016-2.46c-45.883-5.667-86.81-16.862-142.612-15.723-53.32,1.089-89.395,12.973-141.553,15.145a289.545,289.545,0,0,1-38.445-.7,172.117,172.117,0,0,1-29.232-5.435c-8.2-2.179-16.225-4.564-27.51-5.84-12.644-1.428-26.746-1.01-39.262.275-23.459,2.407-41.072,7.172-64.116,9.762-26.116,2.934-55.069,1.675-80.038-1.313C502.9,2494.9,461.4,2483.8,406.692,2484.2c-53.611.393-92.519,12.818-147.03,12-12.071-.18-23.854-1.147-33.135-3.059-9.8-2.021-16.759-4.754-27.953-6.386-20.834-3.039-47.058-1.757-67.94.553-24.112,2.666-44.21,7.023-68.235,9.728A564.566,564.566,0,0,1,0,2500.248v1.463c8.007.006,16.014-.133,23.937-.431,27.419-1.031,50.229-4.119,73.075-7.758,20.782-3.31,42.847-6.626,68.33-7.059a213.633,213.633,0,0,1,33.231,1.74c11.194,1.633,18.141,4.369,27.953,6.385,20.284,4.169,49.125,3.533,72.525,1.455,24.674-2.189,46.186-5.98,70.513-8.355a409.433,409.433,0,0,1,75.872-.368c25.2,2.251,47.161,6.138,69.441,9.677,22.3,3.543,46.3,7.123,73.45,7.761,28.9.679,50.945-2.78,73.281-6.721,19.7-3.474,45.37-7.775,70.542-4.928,23.169,2.621,33.183,9.184,57.921,11.386,24.563,2.188,51.966.2,74.322-2.53,23.273-2.839,43.872-6.815,67.526-9.478a403.039,403.039,0,0,1,75.724-1.383c25.551,1.986,47.473,5.883,69.49,9.475,22.18,3.618,45.488,7.2,72.5,8.126,26.985.919,52.149-1.223,75.437-4.36,22.631-3.05,44.827-7.357,71.031-8.363a254.214,254.214,0,0,1,69.9,7.254c8.091,1.933,17.353,4.754,29.335,5.258C1400.161,2508.7,1397.406,2507.488,1397.648,2507.479Z" transform="translate(0 -2422.009)" fill="#13989a" stroke="#13989a" stroke-width="1"/>
    </g>
  </g>
</svg>
