<svg xmlns="http://www.w3.org/2000/svg" width="300.176" height="51.777" viewBox="0 0 300.176 51.777">
  <path id="Trazado_773" data-name="Trazado 773" d="M124.084,297.779c1.239-.17,2.486-.428,3.728-.508,1.159-.076,2.318-.155,3.475-.231,6.344-.418,12.685-.955,19.032-1.118,6.638-.173,13.277-.461,19.916-.491,6.776-.028,13.548-.08,20.322-.022q19.806.179,39.608.276c13.113.059,26.226.071,39.34-.042,6.508-.06,13.018-.338,19.525-.56,6.389-.217,12.773-.586,19.159-1.014,1.4-.1,2.8-.279,4.207-.421,1.385-.144,2.773-.258,4.157-.445,3.551-.483,7.1-.994,10.648-1.566,6.177-1,12.334-2.331,18.52-3.161,6.48-.871,12.975-1.367,19.462-2.075a68.794,68.794,0,0,0,8.779-1.421,89.246,89.246,0,0,0,9.9-2.972c3.176-1.165,6.351-2.363,9.53-3.509,1.525-.553,3.059-1.052,4.6-1.445a46.279,46.279,0,0,0,5.193-1.561c.827-.32.991-2.274.991-3.532a10.734,10.734,0,0,0-.191-2.083c-.122-.567-.377-1.47-.8-1.443-3.106.182-6.21.371-9.313.628q-4.7.387-9.4.5c-6.087.145-12.185-.226-18.268-.673,1.036-.249,2.073-.493,3.11-.743,3.723-.9,7.435-2.02,11.177-2.624,1.991-.322,3.99-.591,5.974-1.006a22.278,22.278,0,0,0,3-.8,29.315,29.315,0,0,0,3.174-1.425c.337-.064.593-.362.766-.89a8.885,8.885,0,0,0,.5-2.735c1.065-.577,1.279-3.356,1.279-5.029a15.285,15.285,0,0,0-.276-3.014c-.185-.857-.538-2.074-1.156-2.085-3.232-.066-6.458-.451-9.69-.523Q383.5,248,382.928,248c-2.78,0-5.556.216-8.334.48q-9.281.885-18.556,2.09c-2.872.366-5.743.8-8.619,1.106-3.517.375-7.026.663-10.546.907-5.889.4-11.788.561-17.681.752-6.758.222-13.508.537-20.26,1.1-6.253.522-12.5,1.215-18.749,1.878q-9.41.993-18.824,1.988c-6.43.686-12.865,1.2-19.3,1.706-3.256.26-6.517.338-9.775.5-3.084.155-6.17.2-9.257.276-6.073.158-12.146.254-18.221.365-12.252.221-24.5.574-36.751.934q-10.1.3-20.189.641c-3.433.116-6.867.357-10.3.532-2.933.149-5.867.5-8.8.768-3.122.284-6.243.6-9.365.916-1.855.19-3.714.387-5.572.577-.806.086-1.613.168-2.422.253-.735.076-1.472.173-2.2.272a10.09,10.09,0,0,0-1.555.36,8.368,8.368,0,0,0-1.693.955,4.363,4.363,0,0,0-.685,1.78,16.149,16.149,0,0,0,0,5.863l.3,1.073q.28.852.822.958a11.981,11.981,0,0,0,1.924.835q.538-.106.819-.953a5.19,5.19,0,0,0,.189-.55c.342-.018.687-.017,1.031-.017.328,0,.658,0,.988-.017q1.114-.044,2.225-.094,2.866-.119,5.731-.239c2.07-.09,4.14-.154,6.209-.217l-.641.094c-4.889.677-9.774,1.355-14.659,2.13q-1.186.237-1.806,2.1a18.893,18.893,0,0,0-1.109,5.324q-1.287-.023-2.577-.042c-.6-.01-.72,1.851-.72,2.567s.119,2.552.72,2.563c.823.014,1.646.04,2.469.059a31.877,31.877,0,0,0,.556,4.745q.331,1.178.66,2.355.621,1.864,1.806,2.1C114.834,299.047,119.458,298.409,124.084,297.779Z" transform="translate(-104 -248)" fill="#c0dd52"/>
</svg>
