<svg xmlns="http://www.w3.org/2000/svg" width="284" height="57.002" viewBox="0 0 284 57.002">
  <path id="Trazado_2797" data-name="Trazado 2797" d="M455.017,436.719a63.071,63.071,0,0,1,11.335-1.868c2.143-.2,4.283-.338,6.431-.454,3.078-.165,6.146-.288,9.226-.367,5.865-.149,11.732-.205,17.6-.228,11.757-.045,23.5-.125,35.248-.744,12.181-.643,24.362-1.238,36.54-1.9,11.548-.626,23.1-1.25,34.647-1.728,11.57-.48,23.131-.906,34.688-1.693,11.826-.8,23.664-1.237,35.508-1.588,5.618-.165,11.254-.378,16.846-1.026,2.919-.34,5.83-.721,8.743-1.124,2.852-.393,5.719-.652,8.582-.944a44.376,44.376,0,0,1,7.887.029,5.449,5.449,0,0,0,4.3-3.035q.789-1.7,1.577-3.405a31.39,31.39,0,0,0,0-18.581q-.788-1.7-1.577-3.405a5.449,5.449,0,0,0-4.3-3.035c-1.454.123-2.9.287-4.358.395-1.324.1-2.653.092-3.979.1-2.835.022-5.667.13-8.5.257-5.884.265-11.758.684-17.645.874-11.4.367-22.816.405-34.207,1.126-6.107.384-12.207.832-18.315,1.207-5.548.343-11.1.567-16.656.791q-17.729.707-35.44,1.726c-11.661.664-23.326,1.28-34.985,1.953q-9.669.556-19.341,1.027c-5.777.28-11.569.318-17.351.384-11.836.135-23.674.227-35.494.983-2.911.185-5.818.436-8.717.808-2.353.3-4.708.721-7.026,1.256a48.288,48.288,0,0,0-5.263,1.68,11.452,11.452,0,0,0-2.886,1.558,11.588,11.588,0,0,0-3.622,5.71,30.307,30.307,0,0,0-1.048,14.441,20.932,20.932,0,0,0,2.644,7.821q1.011,1.133,2.025,2.262a3.752,3.752,0,0,0,4.661,0A11.805,11.805,0,0,1,455.017,436.719Z" transform="matrix(0.999, 0.035, -0.035, 0.999, -427.474, -406.85)" fill="#c0dd52"/>
</svg>
