<svg xmlns="http://www.w3.org/2000/svg" width="267.497" height="16.401" viewBox="0 0 267.497 16.401">
  <path id="Trazado_796" data-name="Trazado 796" d="M929.177,753.924c-5.852-.24-11.71-.382-17.566-.574-1.931-.062-3.868-.035-5.8-.051l-12.574-.1c-2.335-.019-4.671-.052-7.005-.057q-1.016,0-2.029.018c-1.519.026-3.04.075-4.558.1l-20.737.386c-1.644.031-3.29.1-4.933.15q-6.109.184-12.218.372c-4.6.142-9.192.246-13.785.44l-22.3.942c-4.3.181-8.61.317-12.911.564q-11.115.636-22.23,1.268c-4.05.23-8.1.433-12.147.73q-11.49.84-22.981,1.684c-4.094.3-8.192.541-12.274.963q-11.434,1.173-22.869,2.35-2.47.254-4.943.509c-3.29.337-6.568.831-9.848,1.259-.207.032-.412.063-.618.1a2.3,2.3,0,0,0-1.015.615,2.328,2.328,0,0,0,.057,3.289,2.233,2.233,0,0,0,1.657.652c3.959-.515,7.91-1.059,11.881-1.466q5.519-.567,11.037-1.13l12.046-1.234c1.616-.165,3.237-.375,4.858-.494q9.395-.686,18.791-1.363l11.713-.851c1.613-.118,3.226-.257,4.839-.35q9.315-.534,18.628-1.039,5.645-.316,11.29-.629c1.264-.07,2.528-.155,3.8-.206q10.059-.411,20.118-.812l11.234-.454c1.335-.053,2.667-.122,4-.158l20.752-.575c4.317-.121,8.63-.237,12.946-.3l22.043-.332c1.448-.022,2.9.013,4.349.029l12.171.145q4.564.057,9.132.108c2.157.027,4.318.15,6.475.228q9.532.349,19.06.761c1.613.074,3.225.167,4.839.257,1.729.095,3.462.187,5.186.351.27.04.536.086.805.138a2.623,2.623,0,0,0,1.936-.287,2.52,2.52,0,0,0-.682-4.592,21.305,21.305,0,0,0-3.559-.505q-1.225-.1-2.452-.205c-1.572-.13-3.155-.183-4.729-.274C935.1,754.122,932.134,754.044,929.177,753.924Z" transform="translate(-683.185 -753.141)" fill="#e52441"/>
</svg>
