<svg xmlns="http://www.w3.org/2000/svg" width="91.393" height="86.048" viewBox="0 0 91.393 86.048">
  <path id="Trazado_800" data-name="Trazado 800" d="M826.634,842.8l.576.9a15.4,15.4,0,0,0,7.422-2.423c2.1-1.335,2.819-2.71,1.9-3.753-1.311-1.486-2.78-.669-3.924.2C830.529,839.3,828.616,841.093,826.634,842.8Zm-5.945.767a58.693,58.693,0,0,1,5.2-5.859,29.933,29.933,0,0,1,6.956-4.747,5.634,5.634,0,0,1,7.391,2.392c1.639,2.714,1.125,5.7-1.5,7.974-3.384,2.945-7.473,4.24-11.836,4.81-1.065.14-2.141.2-3.148.286-3.589,5.845-2.789,8.109,6.978,19.847-1.615,1.933-3.29,1.146-4.9.086-5.41-3.553-8.956-12.129-7.659-18.437.131-.637.292-1.271.47-2.032-.8-.463-1.509-.832-2.172-1.268-4.784-3.144-6.97-8.249-5.207-13.7a33.98,33.98,0,0,1,4.623-8.9,43.61,43.61,0,0,1,12.554-11.372c5.807-3.7,11.792-7.119,17.7-10.667.884-.532,1.742-1.105,2.875-1.827a58.4,58.4,0,0,1-5.808-2.512c-.651-.364-1.427-1.818-1.2-2.165a6.374,6.374,0,0,1,2.433-1.586c.195-.1.526.044.793.083,4.255.639,8.5,1.343,12.766,1.9,3.767.493,4.449,1.222,3.966,4.951a23.039,23.039,0,0,1-5.126,11.3c-.848,1.079-1.894,2.041-3.6.736-.264-3.845,3.08-6.612,3.816-10.786-1.361.606-2.324.937-3.188,1.436-7.483,4.322-15.1,8.446-22.36,13.111a64.236,64.236,0,0,0-10.791,9.119,23.36,23.36,0,0,0-4.721,7.458C814.145,837.717,815.854,841.216,820.689,843.564Z" transform="translate(226.904 -1122.449) rotate(54)" fill="#e52441"/>
</svg>
