<svg xmlns="http://www.w3.org/2000/svg" width="86.507" height="90.498" viewBox="0 0 86.507 90.498">
  <path id="Trazado_770" data-name="Trazado 770" d="M27.743,30.589c3-.686,4.395-2.725,4.087-5.821C29.9,26.363,28.212,27.909,27.743,30.589Zm-17.13-7.877c3.489-.47,5.684-2.7,5.812-5.847C14.079,18.421,11.839,19.8,10.614,22.712ZM37.583,63.625c.4-.035.579,0,.693-.067,9.3-5.588,15.542-13.481,17.962-24.156a17.593,17.593,0,0,0-.181-8.234A13.455,13.455,0,0,0,43.618,20.86a14.582,14.582,0,0,0-8.926,1.867c-.217,1.465-.338,2.923-.663,4.334a7.6,7.6,0,0,1-3.736,5.19c-1.543.861-3.022.887-3.863.027a2.947,2.947,0,0,1-.408-3.633,30.383,30.383,0,0,1,3.2-4.554,24.063,24.063,0,0,1,2.666-2.445c-.858-5.712-6.268-8.169-12.781-5.775-.214.8-.39,1.671-.678,2.5a9.54,9.54,0,0,1-5.947,6.358,3.044,3.044,0,0,1-3.428-.491c-.772-.8-.768-2.242.056-3.65a15.588,15.588,0,0,1,5.43-5.166c.75-.473,1.532-.894,2.266-1.32C15.809,5.228,7.84-1.047,0,2.5.076,1.85-.018,1.289.218.982A2.17,2.17,0,0,1,1.476.34c4.286-.8,8.29-.308,11.606,2.826a20.356,20.356,0,0,1,5.268,8.4c.156.458.322.913.5,1.365.025.066.111.11.286.273.44-.043,1-.068,1.547-.155,6.783-1.066,10.339.765,13.5,7.1.634-.2,1.3-.412,1.961-.635a18.153,18.153,0,0,1,11.745-.118A15.925,15.925,0,0,1,58.918,34.042a25.641,25.641,0,0,1-1.766,11c-3.352,8.566-8.844,15.3-17.022,19.706q-.645.348-1.277.715c-.058.034-.08.128-.279.468a17.7,17.7,0,0,0,4.967.176c1.593-.067,3.183-.2,4.907-.311a2.257,2.257,0,0,1-1.715,2.129,11.721,11.721,0,0,1-3.064.761c-2.762.1-5.537.155-8.291-.018-2.192-.138-2.8-1.32-1.809-3.1q3.137-5.655,6.347-11.268A18.765,18.765,0,0,1,41.269,52.5a2.1,2.1,0,0,1,.186,2.693C40.211,57.933,38.946,60.662,37.583,63.625Z" transform="translate(33.434 1.076) rotate(28)" fill="#e52441" stroke="#e22845" stroke-width="1.5"/>
</svg>
