<svg xmlns="http://www.w3.org/2000/svg" width="117.72" height="65.684" viewBox="0 0 117.72 65.684">
  <path id="Trazado_767" data-name="Trazado 767" d="M983.721,2709.01a82.453,82.453,0,0,1-7.486,16.928c-1.6,2.755-6.4.688-5.169-2.365q1.445-3.595,2.881-7.185c-9.371,5.9-19.8,10.754-30.543,11.551-.028.054-.049.112-.082.167-7.942,15-28.114,19.079-42.847,12.662-17.6-7.668-34.983-32.554-28.469-52.305a1.16,1.16,0,0,1,2.258.389c-.559,17.229,9.351,35.969,24.312,44.826,11.784,6.977,30.3,5.968,38.411-5.778a37.385,37.385,0,0,1-10.088-2.287c-6.752-2.551-13.772-7.985-14.506-15.708-.736-7.742,5.857-13.739,13.2-14.432,15.1-1.431,22.571,13.779,19.88,26.595,9.173-1.269,18.121-5.724,26.078-10.84a71.66,71.66,0,0,1-8.874-.618c-3.655-.492-3.437-6.26.241-5.765a67.705,67.705,0,0,0,16.908.254,3.5,3.5,0,0,1,2.216.535A2.573,2.573,0,0,1,983.721,2709.01Zm-54.532-7.734c-5.432-.942-12.319,2.488-11.053,8.985.889,4.556,5.591,7.919,9.553,9.6a31.906,31.906,0,0,0,12.015,2.549c2.835-8.571-.7-19.438-10.515-21.139" transform="translate(-1101.539 -2591.695) rotate(-5)" fill="#ffd64f"/>
</svg>
