<svg xmlns="http://www.w3.org/2000/svg" width="185.412" height="40.299" viewBox="0 0 185.412 40.299">
  <path id="Trazado_798" data-name="Trazado 798" d="M116.405,286.744c.765-.132,1.535-.333,2.3-.395.716-.059,1.432-.121,2.146-.18,3.919-.325,7.835-.743,11.756-.87,4.1-.135,8.2-.359,12.3-.382,4.185-.022,8.368-.062,12.552-.017q12.234.14,24.465.215c8.1.046,16.2.055,24.3-.033,4.02-.047,8.041-.263,12.06-.436,3.946-.169,7.889-.456,11.834-.789.867-.074,1.732-.217,2.6-.328s1.713-.2,2.568-.346c2.194-.376,4.385-.774,6.577-1.219,3.815-.778,7.619-1.814,11.439-2.46,4-.678,8.014-1.064,12.021-1.615a34.5,34.5,0,0,0,5.423-1.106,46.986,46.986,0,0,0,6.117-2.313c1.962-.907,3.923-1.839,5.886-2.731a26.273,26.273,0,0,1,2.84-1.125A24.37,24.37,0,0,0,288.8,269.4c.511-.249.612-1.77.612-2.749a10.467,10.467,0,0,0-.118-1.621c-.075-.441-.233-1.144-.494-1.123-1.918.142-3.836.289-5.752.489q-2.9.3-5.808.386a92.41,92.41,0,0,1-11.283-.524c.64-.194,1.28-.384,1.921-.578,2.3-.7,4.592-1.572,6.9-2.042,1.23-.251,2.464-.46,3.69-.783a11.571,11.571,0,0,0,1.854-.624,16.544,16.544,0,0,0,1.961-1.109c.208-.05.366-.282.473-.693a8.532,8.532,0,0,0,.312-2.129c.658-.449.79-2.612.79-3.914a14.915,14.915,0,0,0-.17-2.346c-.114-.667-.332-1.614-.714-1.623-2-.051-3.989-.351-5.985-.407q-.351-.009-.7-.009a43.229,43.229,0,0,0-5.148.374q-5.733.688-11.462,1.627c-1.774.285-3.547.622-5.324.861-2.172.292-4.34.516-6.514.706-3.638.315-7.281.437-10.921.585-4.174.173-8.344.418-12.514.856-3.862.406-7.721.946-11.581,1.462q-5.813.772-11.627,1.547c-3.972.534-7.947.931-11.923,1.328-2.011.2-4.025.263-6.038.39-1.905.121-3.811.153-5.718.215-3.751.123-7.5.2-11.255.284-7.568.172-15.133.447-22.7.727q-6.236.234-12.47.5c-2.121.09-4.242.278-6.361.414-1.812.116-3.624.39-5.435.6-1.928.221-3.856.465-5.784.713-1.146.148-2.294.3-3.442.449-.5.067-1,.131-1.5.2-.454.059-.909.135-1.362.212a5.172,5.172,0,0,0-.961.28,5,5,0,0,0-1.046.743,3.953,3.953,0,0,0-.423,1.385,15.788,15.788,0,0,0,0,4.563l.187.835q.173.663.508.746a6.716,6.716,0,0,0,1.188.65q.332-.082.506-.742c.044-.133.082-.277.117-.428.211-.014.424-.013.637-.013s.406,0,.61-.013q.688-.034,1.374-.073,1.77-.093,3.54-.186c1.279-.07,2.557-.12,3.835-.169l-.4.073c-3.02.527-6.037,1.055-9.054,1.658q-.733.185-1.115,1.635a18.06,18.06,0,0,0-.685,4.144c-.53-.012-1.061-.024-1.592-.033-.371-.008-.445,1.441-.445,2s.074,1.986.445,2c.508.011,1.017.031,1.525.046a31.012,31.012,0,0,0,.344,3.693q.2.916.408,1.833.383,1.451,1.115,1.635C110.692,287.731,113.548,287.234,116.405,286.744Z" transform="translate(-104 -248)" fill="#ffd64f"/>
</svg>
