<svg xmlns="http://www.w3.org/2000/svg" width="490.547" height="88.628" viewBox="0 0 490.547 88.628">
  <g id="Grupo_77639" data-name="Grupo 77639" transform="matrix(1, 0.017, -0.017, 1, -2012.931, -347.206)">
    <path id="Trazado_2206" data-name="Trazado 2206" d="M483.795,542.152c2-.247,4.005-.623,6.007-.739,1.867-.11,3.735-.227,5.6-.337,10.222-.609,20.44-1.391,30.667-1.628,10.695-.252,21.393-.671,32.09-.714,10.917-.043,21.83-.116,32.745-.031q31.914.259,63.82.4c21.13.085,42.259.1,63.389-.062,10.487-.088,20.977-.493,31.46-.816,10.3-.317,20.581-.852,30.871-1.475,2.261-.139,4.519-.408,6.779-.614,2.232-.21,4.469-.377,6.7-.649,5.723-.7,11.439-1.447,17.157-2.28,9.953-1.456,19.875-3.393,29.841-4.6,10.441-1.269,20.906-1.991,31.358-3.022a121.855,121.855,0,0,0,14.146-2.07,155.441,155.441,0,0,0,15.959-4.327c5.118-1.7,10.232-3.441,15.355-5.109,2.457-.8,4.928-1.532,7.409-2.1a80.939,80.939,0,0,0,8.367-2.274c1.334-.465,1.6-3.311,1.6-5.143a14.178,14.178,0,0,0-.308-3.033c-.2-.824-.607-2.141-1.288-2.1-5,.266-10.005.541-15.005.915q-7.568.565-15.151.722c-9.808.212-19.636-.328-29.435-.98,1.67-.363,3.34-.719,5.01-1.082,6-1.3,11.98-2.94,18.009-3.82,3.208-.47,6.427-.861,9.627-1.464a39.16,39.16,0,0,0,4.836-1.167,50.144,50.144,0,0,0,5.114-2.076q.816-.14,1.236-1.3a11.857,11.857,0,0,0,.813-3.982c1.716-.841,2.061-4.888,2.061-7.324a20.115,20.115,0,0,0-.446-4.39c-.3-1.249-.866-3.019-1.862-3.036-5.208-.1-10.406-.657-15.614-.762-.611-.011-1.223-.017-1.834-.017-4.481,0-8.953.314-13.429.7q-14.955,1.287-29.9,3.044c-4.628.532-9.254,1.164-13.887,1.612-5.667.547-11.322.966-16.994,1.32-9.489.589-18.995.818-28.489,1.1-10.889.323-21.765.782-32.645,1.6-10.075.759-20.142,1.77-30.211,2.736q-15.164,1.445-30.33,2.894c-10.361,1-20.73,1.742-31.1,2.484-5.247.379-10.5.493-15.751.731-4.97.227-9.944.286-14.915.4-9.785.229-19.572.371-29.359.532-19.743.32-39.477.835-59.218,1.359q-16.267.438-32.53.935c-5.532.167-11.065.518-16.593.773-4.727.218-9.453.731-14.178,1.119-5.03.414-10.06.869-15.09,1.334-2.99.277-5.984.564-8.977.841-1.3.125-2.6.244-3.9.368-1.184.111-2.37.252-3.552.4a17.555,17.555,0,0,0-2.506.524,13.838,13.838,0,0,0-2.728,1.391,5.989,5.989,0,0,0-1.1,2.591,21.259,21.259,0,0,0,0,8.536l.485,1.563c.3.827.745,1.291,1.326,1.4a20.344,20.344,0,0,0,3.1,1.215c.577-.1,1.019-.563,1.32-1.388a6.959,6.959,0,0,0,.3-.8c.553-.025,1.107-.023,1.662-.023.529,0,1.059,0,1.593-.025q1.795-.064,3.585-.136,4.618-.174,9.234-.348c3.337-.13,6.67-.224,10.005-.317-.345.048-.69.093-1.033.139-7.877.985-15.749,1.974-23.62,3.1q-1.911.344-2.909,3.058a25.26,25.26,0,0,0-1.786,7.754q-2.075-.034-4.152-.062c-.969-.014-1.161,2.7-1.161,3.738s.192,3.716,1.161,3.733c1.325.02,2.652.057,3.978.085a42.336,42.336,0,0,0,.9,6.91q.533,1.716,1.065,3.43,1,2.715,2.909,3.059C468.89,544,476.341,543.07,483.795,542.152Z" transform="translate(1568.567 -157.663)" fill="#fff"/>
    <path id="Trazado_2207" data-name="Trazado 2207" d="M32.362,72.489c2-.246,4.006-.623,6.007-.739,1.867-.11,3.734-.227,5.6-.337,10.222-.609,20.44-1.391,30.667-1.628,10.7-.252,21.394-.671,32.09-.714,10.917-.042,21.83-.116,32.745-.031q31.914.259,63.82.4c21.13.085,42.259.1,63.389-.062,10.487-.088,20.977-.493,31.46-.816,10.3-.317,20.581-.852,30.871-1.476,2.262-.139,4.519-.408,6.779-.614,2.232-.21,4.468-.377,6.7-.649,5.723-.7,11.44-1.447,17.157-2.28,9.952-1.456,19.875-3.393,29.841-4.6,10.442-1.269,20.906-1.991,31.358-3.022a121.852,121.852,0,0,0,14.146-2.07,155.416,155.416,0,0,0,15.959-4.327c5.118-1.7,10.232-3.441,15.356-5.109,2.457-.8,4.928-1.532,7.409-2.1a80.931,80.931,0,0,0,8.367-2.274c1.334-.464,1.6-3.311,1.6-5.143a14.168,14.168,0,0,0-.308-3.033c-.2-.824-.607-2.141-1.288-2.1-5,.266-10.005.541-15.005.915q-7.569.565-15.151.722c-9.808.212-19.635-.329-29.435-.98,1.67-.363,3.34-.719,5.01-1.082,6-1.3,11.98-2.94,18.009-3.821,3.208-.47,6.427-.861,9.627-1.464a39.158,39.158,0,0,0,4.836-1.167,50.13,50.13,0,0,0,5.114-2.076q.816-.14,1.236-1.3a11.859,11.859,0,0,0,.813-3.982c1.716-.841,2.061-4.888,2.061-7.324a20.121,20.121,0,0,0-.445-4.39c-.3-1.249-.866-3.019-1.862-3.036-5.208-.1-10.406-.657-15.614-.762C450.664.006,450.052,0,449.441,0c-4.481,0-8.953.314-13.428.7q-14.955,1.287-29.9,3.044c-4.629.532-9.254,1.164-13.888,1.612-5.667.547-11.321.966-16.994,1.32-9.49.589-18.995.818-28.49,1.1-10.889.323-21.765.782-32.645,1.6-10.076.759-20.142,1.77-30.211,2.736Q268.721,13.551,253.554,15c-10.361,1-20.73,1.742-31.1,2.484-5.246.379-10.5.493-15.751.731-4.97.227-9.944.286-14.915.4-9.785.229-19.572.371-29.359.532-19.743.32-39.477.835-59.218,1.359q-16.267.438-32.53.935c-5.531.167-11.065.518-16.593.773-4.727.218-9.453.731-14.178,1.119-5.03.413-10.06.869-15.09,1.334-2.99.277-5.984.564-8.977.841-1.3.125-2.6.244-3.9.368-1.184.111-2.371.252-3.552.4A17.549,17.549,0,0,0,5.88,26.8,13.842,13.842,0,0,0,3.152,28.19a5.987,5.987,0,0,0-1.1,2.591,21.259,21.259,0,0,0,0,8.536l.486,1.563c.3.827.745,1.291,1.325,1.4a20.338,20.338,0,0,0,3.1,1.215c.577-.1,1.019-.563,1.32-1.388a6.978,6.978,0,0,0,.3-.8c.553-.025,1.107-.023,1.661-.023.53,0,1.059,0,1.593-.025q1.8-.064,3.585-.136,4.617-.174,9.234-.348c3.337-.13,6.67-.224,10.005-.317-.345.048-.69.094-1.033.139-7.877.986-15.75,1.974-23.62,3.1Q8.1,44.037,7.1,46.751a25.259,25.259,0,0,0-1.786,7.754q-2.075-.034-4.152-.062C.192,54.429,0,57.139,0,58.182S.192,61.9,1.161,61.914c1.325.02,2.652.057,3.977.085a42.35,42.35,0,0,0,.9,6.91q.533,1.716,1.065,3.429,1,2.715,2.909,3.059C17.457,74.336,24.908,73.407,32.362,72.489Z" transform="translate(2509.388 392.099) rotate(180)" fill="#fff"/>
  </g>
</svg>
