<svg xmlns="http://www.w3.org/2000/svg" width="18.013" height="31.869" viewBox="0 0 18.013 31.869">
  <g id="Grupo_77700" data-name="Grupo 77700" transform="matrix(-0.848, -0.53, 0.53, -0.848, 471.805, 346.685)">
    <path id="Trazado_1898" data-name="Trazado 1898" d="M565.371,30.33q1.13-1.715,2.278-3.418.554-.82,1.111-1.64a2.383,2.383,0,0,0,.394-2.179.978.978,0,0,0-.931-.724,2.342,2.342,0,0,0-1.962.984q-.606.781-1.21,1.565-1.309,1.7-2.6,3.411a49.84,49.84,0,0,0-4.057,7.3c-.474.919.773,2.03,1.519,1.166q1.368-1.589,2.754-3.162a30.409,30.409,0,0,0,2.707-3.3" transform="translate(0 0)" fill="#ffd64f"/>
    <path id="Trazado_1899" data-name="Trazado 1899" d="M575.053,30.989c-1.031-.636-2.589.11-3.633.482a28.08,28.08,0,0,0-3.466,1.494,17.962,17.962,0,0,0-5.292,4.9c-.457.573.142,1.673.865,1.145a25.191,25.191,0,0,1,2.918-1.84c.957-.515,1.985-.89,2.928-1.426a24.053,24.053,0,0,1,2.923-1.425c1.036-.414,2.653-.565,3.228-1.595a1.3,1.3,0,0,0-.471-1.734" transform="translate(0.556 1.103)" fill="#ffd64f"/>
    <path id="Trazado_1900" data-name="Trazado 1900" d="M568.021,45.836l.84-.015,1.962-.033c1.213-.022,2.431-.015,3.643-.063a28.1,28.1,0,0,0,3.644-.572l1.925-.338a5.782,5.782,0,0,0,1.8-.455.732.732,0,0,0-.169-1.331,7.879,7.879,0,0,0-2.426-.07l-2.522.059a17.761,17.761,0,0,0-2.574.145c-.87.151-1.738.317-2.609.475l-2.471.449a15.267,15.267,0,0,0-2.359.458,1.007,1.007,0,0,0-.733,1.189.839.839,0,0,0,1.066.605.627.627,0,0,0,.418-.495h0l.561-.01" transform="translate(-1.953 -0.161)" fill="#ffd64f"/>
  </g>
</svg>
