<svg id="Group_497" data-name="Group 497" xmlns="http://www.w3.org/2000/svg" width="480" height="585" viewBox="0 0 480 585">
  <path id="Path_62" data-name="Path 62" d="M1499.888,1164.864c-1.139.091-2.275.138-3.377.138-10.381.134-22.216.209-35.067.223-51.266.062-112.377-.858-162.848-1.649l-7.127-.111c-37.561-.589-70-1.1-89.643-1.078-6.214.009-10.815.068-14.061.181-3.4.115-7.028.26-10.823.41l-1.3.051c-13.429.53-28.662,1.131-43.626,1.147-12.022.016-22.086-.347-30.77-1.107-14.211-1.25-25.761-8.73-30.9-20.01l-.05-.1c-2.405-4.232-4.828-10.145-6.27-24.619-4.969-48.965-3.127-89.666-.993-136.791l.048-1.053q.456-10.055.905-20.523c.913-21.731,1.879-41.978,2.814-61.56l.02-.39c3.147-65.949,5.866-122.9,4.662-196.122-.131-8.012-.587-19.864-1.068-32.413l-.021-.528c-.84-21.95-1.8-46.831-1.43-60.562.448-17.13,9.626-26.537,27.281-27.959,1.756-.141,3.59-.211,5.611-.213,26.7,0,58.787.814,95.935,1.761l.406.01c50.4,1.286,107.494,2.744,169.876,2.672,18.205-.023,39.347-1.076,59.79-2.1,19.31-.959,37.535-1.867,52.331-1.883,10.339-.016,17.937.417,23.229,1.318,14.785,2.515,30.778,13.423,32.737,29.4,7.071,57.494,4.671,116.009,2.351,172.6l-.006.185c-.63,36.5-2.031,73.138-3.385,108.571-2.962,77.552-6.021,157.665-1.311,241.9.5,8.948-4.341,15.468-8.5,19.36C1518.885,1160.051,1509.38,1164.1,1499.888,1164.864Z" transform="translate(-1060.857 -580.228)" fill="#fff"/>
  <path id="Path_63" data-name="Path 63" stroke="#b8d656" d="M1467.05,1160.964c-55.244.064-121.739-.969-175.17-1.8-39-.6-72.677-1.129-93.081-1.1-6.579.007-11.52.071-15.106.194-3.937.134-8.166.3-12.6.473-13.726.537-29.287,1.145-44.42,1.161-11.915.015-21.813-.335-30.264-1.07-9.04-.785-16.388-5.49-19.652-12.584l-.235-.512-.283-.494c-1.872-3.262-3.781-8.048-5.07-20.848-5.057-49.357-3.168-90.653-.983-138.471.331-7.208.665-14.555.985-22.085.948-22.338,1.954-43.175,2.924-63.326,3.262-67.652,6.078-126.077,4.829-201.342-.139-8.363-.617-20.686-1.122-33.734-.866-22.378-1.851-47.741-1.483-61.49.336-12.671,5.034-16.743,19.332-16.759,27.461,0,60.667.836,99.113,1.809,52.179,1.318,111.316,2.811,175.96,2.736,19.206-.023,41.283-1.109,62.633-2.164,19.724-.97,38.359-1.889,53.217-1.907,9.558-.011,16.652.362,21.084,1.109,9.97,1.68,20.737,8.808,22.023,19.178,7.2,57.983,4.735,117.433,2.354,174.925l-.009.278c-.652,37.323-2.1,74.812-3.5,111.068-3.067,79.528-6.238,161.763-1.345,248.421.281,4.944-2.562,8.672-4.993,10.928a28.8,28.8,0,0,1-18.887,7.177l-.2,0C1492.284,1160.871,1480.154,1160.947,1467.05,1160.964Z" fill="none" transform="translate(-1061.196 -581.57)" stroke-linecap="round" stroke-linejoin="round" stroke-width="3.217" stroke-dasharray="0 6.434"/>
</svg>
