<svg xmlns="http://www.w3.org/2000/svg" viewBox="0 0 273.93 356.48" width="250.258" height="328.366"><defs><style>.cls-1{fill:#fff;}.cls-2{fill:none;stroke:#e6334e;stroke-linecap:round;stroke-linejoin:round;stroke-width:2.93px;stroke-dasharray:0 5.85;}</style></defs><g id="Layer_2" data-name="Layer 2"><g id="Layer_1-2" data-name="Layer 1"><g id="Group_299" data-name="Group 299"><path id="Path_62" data-name="Path 62" class="cls-1" d="M250.56,356.26c-.65.06-1.3.09-1.92.09-5.93.08-12.69.12-20,.13-29.25,0-64.13-.52-92.93-1l-4.07-.07c-21.44-.36-39.95-.67-51.16-.66-3.55,0-6.17,0-8,.11l-6.18.25-.74,0c-7.67.33-16.36.69-24.9.7-6.86,0-12.61-.21-17.56-.67-8.11-.77-14.71-5.32-17.63-12.2l0-.06c-1.38-2.57-2.76-6.18-3.58-15C-1,298.08,0,273.27,1.24,244.56l0-.65q.25-6.12.52-12.5c.52-13.24,1.07-25.58,1.6-37.52v-.23c1.8-40.19,3.35-74.9,2.67-119.51C6,69.26,5.73,62,5.46,54.39v-.32c-.48-13.37-1-28.53-.82-36.9C4.89,6.73,10.12,1,20.2.13,21.2,0,22.25,0,23.4,0,38.64,0,57,.5,78.15,1.07h.23c28.76.78,61.35,1.67,97,1.63,10.39,0,22.45-.66,34.12-1.28,11-.58,21.42-1.14,29.86-1.15a78.41,78.41,0,0,1,13.26.81C261,2.62,270.14,9.27,271.25,19c4,35,2.67,70.69,1.35,105.17v.11c-.36,22.24-1.16,44.57-1.94,66.16-1.69,47.26-3.43,96.07-.74,147.41a15.48,15.48,0,0,1-4.85,11.79A24,24,0,0,1,250.56,356.26Z"/><path id="Path_63" data-name="Path 63" class="cls-2" d="M230.57,351.93c-31.17,0-68.7-.58-98.85-1.09-22-.37-41-.68-52.53-.67-3.71,0-6.5,0-8.52.12l-7.12.28c-7.74.33-16.52.7-25.06.71-6.72,0-12.31-.21-17.08-.65A13,13,0,0,1,10.32,343l-.13-.31-.16-.3c-1.06-2-2.13-4.87-2.86-12.62C4.31,299.9,5.38,274.9,6.61,246c.19-4.37.38-8.81.56-13.37.53-13.53,1.1-26.14,1.65-38.34,1.84-41,3.43-76.33,2.72-121.9-.08-5.06-.35-12.52-.63-20.42-.49-13.55-1.05-28.9-.84-37.23C10.26,7,12.91,4.56,21,4.55c15.5,0,34.24.5,55.93,1.09,29.45.8,62.82,1.7,99.3,1.66C187,7.28,199.5,6.63,211.55,6c11.13-.58,21.65-1.14,30-1.15a74,74,0,0,1,11.9.67c5.63,1,11.7,5.34,12.43,11.61,4.06,35.11,2.67,71.1,1.33,105.91v.17c-.37,22.59-1.19,45.29-2,67.24-1.73,48.14-3.51,97.93-.76,150.4a8.74,8.74,0,0,1-2.81,6.61A15.69,15.69,0,0,1,251,351.79h-.11C244.81,351.88,238,351.92,230.57,351.93Z"/></g></g></g></svg>