<svg xmlns="http://www.w3.org/2000/svg" width="259.505" height="73.828" viewBox="0 0 259.505 73.828">
  <g id="Group_1533" data-name="Group 1533" transform="translate(-259.682 -247.881)">
    <g id="Group_513" data-name="Group 513" transform="translate(519.187 247.881) rotate(90)">
      <path id="Path_62" data-name="Path 62" d="M67.527,259.344a2.33,2.33,0,0,1-.519.061c-1.6.059-3.417.093-5.394.1-7.885.028-17.284-.38-25.047-.732l-1.1-.049c-5.777-.262-10.766-.487-13.788-.478-.956,0-1.664.03-2.163.08-.524.051-1.081.115-1.665.182l-.2.022a61.516,61.516,0,0,1-6.71.509,19.055,19.055,0,0,1-4.733-.491c-2.186-.555-3.962-3.873-4.752-8.876l-.008-.043a66.349,66.349,0,0,1-.964-10.921c-.764-21.721-.481-39.776-.153-60.681l.007-.467q.07-4.46.139-9.1c.14-9.64.289-18.621.433-27.308l0-.173c.484-29.255.9-54.52.717-87-.02-3.554-.09-8.811-.164-14.378l0-.234c-.129-9.737-.276-20.774-.22-26.865C1.316,4.9,2.727.725,5.443.094A3.8,3.8,0,0,1,6.306,0c4.107,0,9.042.361,14.756.781l.063,0C28.876,1.356,37.657,2,47.252,1.971a70.26,70.26,0,0,0,9.2-.93A63.146,63.146,0,0,1,64.5.206,8.222,8.222,0,0,1,68.07.791c2.274,1.116,4.734,5.954,5.035,13.044,1.088,25.5.718,51.461.362,76.563v.082c-.1,16.19-.312,32.444-.521,48.162-.456,34.4-.926,69.94-.2,107.307a23.464,23.464,0,0,1-1.307,8.588C70.449,257.209,68.986,259,67.527,259.344Z" fill="#0aa8aa"/>
      <path id="Path_63" data-name="Path 63" stroke="#fff" d="M56.468,253.009c-7.816.028-17.225-.427-24.785-.794-5.518-.267-10.283-.5-13.17-.487-.931,0-1.63.031-2.137.086-.557.059-1.155.132-1.783.208a54.038,54.038,0,0,1-6.285.512,16.156,16.156,0,0,1-4.282-.472c-1.279-.346-2.319-2.421-2.78-5.549l-.033-.226-.04-.218a61.254,61.254,0,0,1-.717-9.193C-.26,215.115.007,196.905.316,175.82c.047-3.178.094-6.418.139-9.738.134-9.85.276-19.038.414-27.923.462-29.831.86-55.593.683-88.78-.02-3.688-.087-9.122-.159-14.875-.123-9.867-.262-21.051-.21-27.114C1.232,1.8,1.9.007,3.919,0,7.8,0,12.5.369,17.943.8c7.383.581,15.75,1.24,24.9,1.207A63.152,63.152,0,0,0,51.7,1.05,55.914,55.914,0,0,1,59.23.209,6.717,6.717,0,0,1,62.213.7c1.411.741,2.934,3.884,3.116,8.456,1.018,25.567.67,51.782.333,77.132v.123c-.092,16.457-.3,32.988-.495,48.975-.434,35.067-.883,71.328-.19,109.54a14.017,14.017,0,0,1-.707,4.819c-.674,1.949-1.7,3.162-2.672,3.165h-.028C60.039,252.968,58.322,253,56.468,253.009Z" fill="none" transform="translate(3.912 3.247)" stroke-linecap="round" stroke-linejoin="round" stroke-width="3.217" stroke-dasharray="0 6.434"/>
    </g>
  </g>
</svg>
