<svg xmlns="http://www.w3.org/2000/svg" width="250.258" height="328.366" viewBox="0 0 250.258 328.366">
  <path id="Path_63" data-name="Path 63" d="M1279.3,912.322c-29.255.036-64.469-.549-92.764-1.02-20.651-.343-38.487-.64-49.293-.626-3.484,0-6.1.04-8,.11-2.085.076-4.324.17-6.675.268-7.269.3-15.509.649-23.523.658-6.309.008-11.552-.19-16.027-.606a12.209,12.209,0,0,1-10.407-7.131l-.124-.29-.15-.28c-.991-1.849-2-4.56-2.685-11.813-2.678-27.969-1.678-51.37-.521-78.467.175-4.084.352-8.248.521-12.515.5-12.658,1.035-24.466,1.548-35.885,1.728-38.336,3.219-71.444,2.557-114.094-.073-4.739-.327-11.722-.594-19.116-.459-12.681-.98-27.053-.786-34.844.178-7.18,2.666-9.488,10.238-9.5,14.542,0,32.127.474,52.487,1.025,27.632.747,58.949,1.593,93.182,1.551,10.171-.013,21.862-.629,33.168-1.226,10.445-.55,20.313-1.07,28.182-1.08a69.5,69.5,0,0,1,11.165.629c5.28.952,10.981,4.991,11.663,10.867,3.811,32.857,2.508,66.546,1.247,99.124l0,.158c-.345,21.149-1.111,42.393-1.852,62.938-1.624,45.066-3.3,91.665-.712,140.772a8.174,8.174,0,0,1-2.644,6.193,14.7,14.7,0,0,1-10,4.067h-.1C1292.661,912.269,1286.237,912.313,1279.3,912.322Z" transform="translate(-1066.339 -585.566)" fill="#0AA8AA" stroke="#b8d656" stroke-linecap="round" stroke-linejoin="round" stroke-width="3.217" stroke-dasharray="0 6.434"/>
</svg>
