<svg xmlns="http://www.w3.org/2000/svg" width="14.346" height="13.901" viewBox="0 0 14.346 13.901">
  <g id="cart_icon" data-name="cart icon" transform="translate(-0.001)">
    <path id="cart_icon-2" data-name="cart icon" d="M18606.736,137.511a1.387,1.387,0,1,0,1.383-1.39A1.389,1.389,0,0,0,18606.736,137.511Zm-6.951,0a1.387,1.387,0,1,0,1.385-1.39A1.389,1.389,0,0,0,18599.785,137.511Zm9.246-9.731h-8.445l1.557,3.288.09.188h4.879Zm-9.107-1.39h11.42l-3.014,5.539a1.385,1.385,0,0,1-1.219.716h-5.176l-.627,1.133-.02.084a.175.175,0,0,0,.172.174h8.049v1.39h-8.34a1.394,1.394,0,0,1-1.391-1.39,1.362,1.362,0,0,1,.172-.667l.939-1.7-2.5-5.275H18597V125h2.273Z" transform="translate(-18596.998 -125)" fill="#fff"/>
  </g>
</svg>
