<svg xmlns="http://www.w3.org/2000/svg" width="32.556" height="26.895" viewBox="0 0 32.556 26.895">
  <path id="noun-adress-4201003" d="M171.653,32.525a1.05,1.05,0,0,0-.676.287L156,46.918a1.055,1.055,0,1,0,1.444,1.539l2.639-2.487v11.9a1.052,1.052,0,0,0,1.05,1.047h21.123a1.052,1.052,0,0,0,1.048-1.047v-11.9l2.639,2.49h0a1.055,1.055,0,1,0,1.444-1.539L172.413,32.813a1.051,1.051,0,0,0-.76-.287Zm.047,2.5,9.5,8.96V56.816h-5.156V48.068A1.052,1.052,0,0,0,175,47.012h-6.606a1.052,1.052,0,0,0-1.05,1.056v8.748h-5.154V43.985Zm-2.251,14.09h4.494v7.7h-4.494Z" transform="translate(-155.417 -32.275)" fill="#333334" stroke="#fff" stroke-width="0.5"/>
</svg>
