<svg xmlns="http://www.w3.org/2000/svg" width="30.127" height="28.97" viewBox="0 0 30.127 28.97" class="custom-class">
  <path id="Trazado_1917" data-name="Trazado 1917" d="M138.49,84.873v3.653h0a2.393,2.393,0,0,0,1.954,2.349v11.518a3.19,3.19,0,0,0,3.19,3.19h19.838a3.19,3.19,0,0,0,3.19-3.19V90.875a2.393,2.393,0,0,0,1.954-2.349V84.873a2.393,2.393,0,0,0-2.393-2.393h-3.749a3.725,3.725,0,0,0-3.055-5.867c-3.139,0-4.949,2.544-5.867,4.443-.917-1.9-2.728-4.443-5.867-4.443a3.725,3.725,0,0,0-3.055,5.867h-3.749a2.393,2.393,0,0,0-2.393,2.393Zm1.6,3.653V84.873a.8.8,0,0,1,.8-.8h11.873v5.248H140.883a.8.8,0,0,1-.8-.8Zm3.55,15.462h0a1.6,1.6,0,0,1-1.6-1.6V90.919h10.716v13.069Zm19.837,0h-9.121V90.919h10.716v11.474a1.6,1.6,0,0,1-1.6,1.6Zm3.55-19.119v3.653h0a.8.8,0,0,1-.8.8H154.351V84.075h11.873a.8.8,0,0,1,.8.8Zm-7.6-6.661a2.136,2.136,0,1,1,0,4.271h-4.75c.61-1.531,2.074-4.271,4.75-4.271ZM145.553,80.33a2.138,2.138,0,0,1,2.134-2.138c2.656,0,4.132,2.744,4.746,4.271h-4.746a2.138,2.138,0,0,1-2.134-2.134Z" transform="translate(-138.49 -76.613)" fill="#333334"/>
</svg>
