<svg id="Group_496" data-name="Group 496" xmlns="http://www.w3.org/2000/svg" width="293.718" height="371.085" viewBox="0 0 293.718 371.085">
  <path id="Path_62" data-name="Path 62" d="M1329.506,951.083c-.7.057-1.392.087-2.066.087-6.352.085-13.594.133-21.458.142-31.37.04-68.765-.544-99.649-1.046l-4.361-.071c-22.984-.374-42.833-.7-54.854-.684-3.8.006-6.618.043-8.6.115-2.083.073-4.3.165-6.623.26l-.8.032c-8.217.336-17.539.718-26.7.728-7.356.01-13.515-.22-18.828-.7-8.7-.793-15.763-5.538-18.907-12.693l-.031-.061c-1.472-2.685-2.955-6.435-3.837-15.617-3.041-31.06-1.913-56.878-.608-86.771l.029-.668q.279-6.378.554-13.018c.559-13.785,1.15-26.628,1.722-39.049l.012-.248c1.926-41.834,3.59-77.962,2.853-124.407-.08-5.082-.359-12.6-.653-20.561l-.013-.335c-.514-13.924-1.1-29.707-.875-38.417.274-10.866,5.891-16.833,16.693-17.736,1.074-.09,2.2-.134,3.433-.135,16.34,0,35.972.516,58.7,1.117l.249.007c30.841.816,65.777,1.741,103.95,1.7,11.14-.014,24.077-.682,36.586-1.329,11.816-.608,22.968-1.184,32.022-1.194a86.558,86.558,0,0,1,14.214.836c9.047,1.6,18.833,8.515,20.032,18.652,4.327,36.471,2.859,73.588,1.438,109.483l0,.117c-.385,23.152-1.243,46.394-2.071,68.87-1.812,49.194-3.684,100.012-.8,153.446a15.873,15.873,0,0,1-5.2,12.281A26.027,26.027,0,0,1,1329.506,951.083Z" transform="translate(-1060.857 -580.228)" fill="#fff"/>
  <path id="Path_63" data-name="Path 63" stroke="#b8d656" d="M1307.68,947.05c-33.184.04-73.126-.608-105.221-1.129-23.425-.379-43.656-.708-55.912-.692-3.952,0-6.92.045-9.074.122-2.365.084-4.905.188-7.571.3-8.245.337-17.592.718-26.682.728-7.157.009-13.1-.21-18.179-.671-5.43-.492-9.844-3.443-11.8-7.892l-.141-.321-.17-.31c-1.124-2.046-2.271-5.048-3.046-13.075-3.038-30.956-1.9-56.857-.59-86.848.2-4.521.4-9.129.592-13.852.569-14.01,1.173-27.079,1.756-39.718,1.959-42.431,3.651-79.075,2.9-126.28-.084-5.245-.371-12.974-.674-21.158-.52-14.035-1.112-29.943-.891-38.566.2-7.947,3.024-10.5,11.612-10.511,16.5,0,36.441.525,59.535,1.134,31.343.827,66.865,1.763,105.7,1.716,11.537-.015,24.8-.7,37.622-1.357,11.848-.609,23.041-1.185,31.967-1.2a80.752,80.752,0,0,1,12.665.7c5.989,1.054,12.456,5.524,13.229,12.028,4.322,36.366,2.844,73.653,1.414,109.712l-.005.174c-.392,23.409-1.26,46.921-2.1,69.661-1.842,49.879-3.747,101.456-.808,155.807a8.95,8.95,0,0,1-3,6.854,16.891,16.891,0,0,1-11.345,4.5h-.119C1322.838,946.992,1315.551,947.04,1307.68,947.05Z" fill="none" transform="translate(-1061.196 -581.57)" stroke-linecap="round" stroke-linejoin="round" stroke-width="3.217" stroke-dasharray="0 6.434"/>
</svg>
