<svg xmlns="http://www.w3.org/2000/svg" width="293.72" height="371.088" viewBox="0 0 293.72 371.088">
  <g id="Group_1548" data-name="Group 1548" transform="translate(-99 -1911.558)">
    <path id="Path_1256" data-name="Path 1256" d="M1329.507,951.085c-.7.058-1.392.087-2.066.087-6.352.085-13.594.133-21.458.142-31.37.04-68.765-.544-99.649-1.046l-4.361-.071c-22.984-.374-42.833-.7-54.854-.684-3.8.006-6.618.043-8.6.115-2.083.073-4.3.165-6.623.26l-.8.032c-8.217.336-17.539.718-26.7.728-7.356.01-13.515-.22-18.829-.7-8.7-.793-15.763-5.538-18.907-12.693l-.031-.061c-1.472-2.685-2.954-6.436-3.837-15.617-3.041-31.06-1.913-56.878-.608-86.772l.029-.668q.279-6.378.554-13.018c.559-13.785,1.149-26.628,1.722-39.05l.012-.248c1.926-41.834,3.59-77.962,2.853-124.407-.08-5.082-.359-12.6-.654-20.561l-.012-.335c-.514-13.924-1.1-29.707-.875-38.417.274-10.866,5.891-16.833,16.693-17.736,1.074-.09,2.2-.134,3.433-.135,16.34,0,35.973.516,58.7,1.117l.249.007c30.841.816,65.777,1.741,103.95,1.7,11.14-.014,24.077-.682,36.586-1.329,11.816-.608,22.968-1.184,32.022-1.194a86.556,86.556,0,0,1,14.214.836c9.047,1.6,18.834,8.515,20.032,18.652,4.327,36.471,2.859,73.589,1.438,109.484l0,.117c-.385,23.152-1.243,46.394-2.071,68.871-1.813,49.194-3.684,100.013-.8,153.447a15.873,15.873,0,0,1-5.2,12.281A26.027,26.027,0,0,1,1329.507,951.085Z" transform="translate(-961.857 1331.33)" fill="#fff"/>
    <path id="Path_1257" data-name="Path 1257" stroke="#b8d656" d="M1307.682,947.052c-33.184.04-73.127-.607-105.222-1.129-23.425-.379-43.656-.708-55.912-.692-3.952,0-6.92.045-9.074.122-2.365.084-4.905.188-7.571.3-8.245.337-17.592.718-26.682.728-7.157.009-13.1-.21-18.179-.671-5.43-.492-9.844-3.443-11.8-7.892l-.141-.321-.17-.31c-1.124-2.046-2.271-5.048-3.046-13.076-3.038-30.957-1.9-56.857-.59-86.849.2-4.521.4-9.129.592-13.852.57-14.01,1.173-27.079,1.756-39.718,1.96-42.431,3.651-79.075,2.9-126.281-.083-5.245-.371-12.974-.674-21.158-.52-14.035-1.112-29.943-.891-38.566.2-7.947,3.024-10.5,11.612-10.511,16.5,0,36.442.525,59.536,1.134,31.343.827,66.866,1.763,105.7,1.716,11.537-.014,24.8-.7,37.623-1.357,11.848-.609,23.041-1.185,31.967-1.2a80.775,80.775,0,0,1,12.665.7c5.989,1.054,12.456,5.524,13.229,12.028,4.322,36.367,2.844,73.654,1.414,109.712l-.005.175c-.392,23.409-1.26,46.922-2.1,69.661-1.843,49.879-3.747,101.457-.808,155.809a8.95,8.95,0,0,1-3,6.854,16.891,16.891,0,0,1-11.345,4.5h-.119C1322.839,946.994,1315.553,947.042,1307.682,947.052Z" fill="none" transform="translate(-962.196 1329.988)" stroke-linecap="round" stroke-linejoin="round" stroke-width="3.217" stroke-dasharray="0 6.434"/>
  </g>
</svg>
