<svg xmlns="http://www.w3.org/2000/svg" width="883.435" height="1133.672" viewBox="0 0 883.435 1133.672">
  <g id="Group_1552" data-name="Group 1552" transform="translate(-202.145 -1869.553)">
    <path id="Path_1257" data-name="Path 1257" stroke="#b8d656" d="M1821,1717.624c-104.238.126-229.705-1.908-330.523-3.546-73.582-1.191-137.132-2.224-175.631-2.175-12.413.014-21.736.14-28.5.383-7.429.263-15.408.59-23.782.931-25.9,1.058-55.261,2.256-83.815,2.287-22.481.029-41.159-.66-57.1-2.108-17.057-1.546-30.921-10.816-37.08-24.792l-.443-1.008-.534-.973c-3.532-6.427-7.135-15.856-9.567-41.073-9.542-97.24-5.979-178.6-1.855-272.809.625-14.2,1.255-28.675,1.859-43.511,1.789-44.01,3.686-85.061,5.517-124.762,6.155-133.285,11.468-248.391,9.112-396.673-.263-16.477-1.165-40.755-2.117-66.461-1.635-44.087-3.493-94.057-2.8-121.143.635-24.964,9.5-32.986,36.477-33.018,51.815,0,114.47,1.648,187.014,3.563,98.454,2.6,210.039,5.538,332.012,5.391,36.239-.046,77.9-2.185,118.18-4.262,37.217-1.912,72.378-3.721,100.414-3.757,18.035-.021,31.42.713,39.783,2.186,18.812,3.31,39.127,17.353,41.555,37.783,13.577,114.235,8.935,231.361,4.442,344.629l-.016.548c-1.23,73.531-3.959,147.39-6.6,218.82-5.787,156.681-11.77,318.7-2.537,489.426.529,9.741-4.834,17.086-9.421,21.531-8.99,8.708-22.646,14.127-35.638,14.141l-.373,0C1868.615,1717.441,1845.727,1717.592,1821,1717.624Z" fill="none" transform="translate(-864.196 1283.988)" stroke-linecap="round" stroke-linejoin="round" stroke-width="3.217" stroke-dasharray="0 6.434"/>
  </g>
</svg>
