<svg id="Group_31" data-name="Group 31" xmlns="http://www.w3.org/2000/svg" width="175.63" height="51.494" viewBox="0 0 175.63 51.494">
  <g id="Group_28" data-name="Group 28" transform="translate(0 0)">
    <path id="Path_20" data-name="Path 20" d="M577.92,136.044a4.977,4.977,0,0,1-2.081-2.91c-1.98,2.318-4.159,3.472-6.483,3.463a6.2,6.2,0,0,1-5.5-3c-1.256-1.975-1.5-4.858-.826-8.647a16.264,16.264,0,0,1,3.974-8.374,9.152,9.152,0,0,1,6.786-3.261,5.944,5.944,0,0,1,3.989,1.33c0-.1,0-.151.05-.2a1.172,1.172,0,0,1,1.319-1.106l1.718.006c.707,0,1.06.358.906,1.115l-2.065,11.265c-.715,3.827-.854,6.448.239,7.292a1.816,1.816,0,0,1,.672,1.769h0A1.824,1.824,0,0,1,577.92,136.044Zm-1.845-11.7.208-1.567c.522-4.091-.432-6.117-3.06-6.128-2.88-.011-5.369,3.114-6.249,8.316-.981,5.505-.032,8.29,2.95,8.3C572.754,133.273,575.346,129.9,576.074,124.34Z" transform="translate(-528.915 -97.922)" fill="#fff"/>
    <path id="Path_21" data-name="Path 21" d="M592.186,139.141a1.786,1.786,0,0,1-2,1.441c-3.879-.529-6.576-2.884-8.022-7.1-1.053-2.278-.845-3.541.571-3.688,4.651-.589,7.542-2.7,8.16-5.883.361-1.868-.493-3.186-2.16-3.192s-3.29.947-4.915,2.913a17.574,17.574,0,0,0-3.316,7.973c0,.05-.05.05-.05.1l-1.4,7.828a1.183,1.183,0,0,1-1.269,1.108l-1.718-.006c-.707,0-1.01-.358-.856-1.115l5.837-32.631c.155-.757.511-1.109,1.218-1.106l1.769.006c.759,0,1.06.358.906,1.115l-.465,2.476-.979,5.2c-.413,2.222-.724,4.192-1.034,5.909,2.232-2.064,4.511-3.117,6.836-3.108,4.043.015,6.257,2.5,5.484,6.541-.62,3.435-3.866,6.607-8.725,7.953a8.006,8.006,0,0,0,4.867,5.231,1.792,1.792,0,0,1,1.252,2.029Z" transform="translate(-522.281 -101.911)" fill="#fff"/>
    <path id="Path_22" data-name="Path 22" d="M605.613,131.941a1.527,1.527,0,0,1-.22,2.33,14.232,14.232,0,0,1-8.348,2.43c-6.875-.026-10.146-3.779-8.75-11.659a15.673,15.673,0,0,1,4.127-8.374,9.827,9.827,0,0,1,7.038-3.258c2.476.009,4.193.774,5.2,2.243a5.627,5.627,0,0,1,.536,5.208,10.111,10.111,0,0,1-4.165,5.241,12.869,12.869,0,0,1-6.983,2.1c-.858,0-1.212-.358-1.106-1.521.106-1.262.614-1.867,1.373-1.865,3.386.014,6.021-1.593,6.991-4.37.869-2.473.066-3.689-2.411-3.7-3.033-.012-5.775,3.313-6.653,8.313-.981,5.3,1.08,8.295,5.377,8.311a10.844,10.844,0,0,0,6.016-1.662,1.54,1.54,0,0,1,1.934.185Z" transform="translate(-515.498 -97.869)" fill="#fff"/>
    <path id="Path_23" data-name="Path 23" d="M606.568,137.845a1.744,1.744,0,0,1-2.257,1.348c-3.32-1.134-4.209-5.375-3.109-11.445l1.5-8.434-1.314-.006c-.708,0-1.06-.358-.906-1.115l.207-1.111a1.2,1.2,0,0,1,1.319-1.106l1.313,0,1.189-6.668a1.122,1.122,0,0,1,1.269-1.056l1.769.006c.707,0,.958.358.855,1.065L607.211,116l2.477.009c.707,0,1.06.358.906,1.115l-.207,1.111a1.2,1.2,0,0,1-1.319,1.108l-2.427-.011-1.548,8.435a21.7,21.7,0,0,0-.477,5.963,2.676,2.676,0,0,0,1.137,2.161,1.639,1.639,0,0,1,.863,1.7Z" transform="translate(-508.89 -100.601)" fill="#fff"/>
    <path id="Path_24" data-name="Path 24" d="M638.243,137.967a1.742,1.742,0,0,1-2.255,1.348c-3.322-1.132-4.211-5.374-3.111-11.444l3.307-18.436a1.121,1.121,0,0,1,1.267-1.057l1.77.006c.707,0,.958.358.854,1.065l-3.305,18.436a21.708,21.708,0,0,0-.477,5.963,2.682,2.682,0,0,0,1.137,2.162,1.636,1.636,0,0,1,.863,1.7Z" transform="translate(-491.934 -100.537)" fill="#fff"/>
    <path id="Path_25" data-name="Path 25" d="M612.653,137.836a1.868,1.868,0,0,1-2.621,1.366c-2.479-1.2-3.152-4.685-2.127-10.467l2.015-11.263c.155-.757.51-1.111,1.268-1.108l1.769.008c.707,0,1.01.357.855,1.114L611.8,128.75c-.669,3.841-.871,6.426.174,7.279a1.89,1.89,0,0,1,.681,1.807Zm1.939-25.957c-1.014.855-2.733.9-3.437-.014a2.432,2.432,0,0,1,.569-3.233c1.065-.855,2.783-.848,3.437.014A2.487,2.487,0,0,1,614.591,111.88Z" transform="translate(-505.179 -100.739)" fill="#fff"/>
    <path id="Path_26" data-name="Path 26" d="M625.916,133.169q-3.654,3.775-7.292,3.762c-4.852-.018-6.456-3.766-5.009-11.644l1.911-10.558c.155-.757.51-1.109,1.267-1.106l1.77.006c.707,0,1.008.358.854,1.115-.413,2.577-1.085,6.061-1.861,10.558-1.085,6.212-.537,8.287,1.637,8.295,1.718.008,3.288-1,4.661-2.964a19.2,19.2,0,0,0,3.013-7.722,13.979,13.979,0,0,0-.676-8.241c-.6-1.316,2.586-2.012,3.542-.846q2.19,2.511,1.027,9.1A19.1,19.1,0,0,1,625.916,133.169Z" transform="translate(-502.179 -97.964)" fill="#fff"/>
    <path id="Path_27" data-name="Path 27" d="M631.177,137.907a1.867,1.867,0,0,1-2.621,1.366c-2.477-1.2-3.152-4.685-2.125-10.466l2.015-11.265c.153-.757.51-1.111,1.267-1.108l1.769.008c.708,0,1.01.358.855,1.115l-2.015,11.263c-.669,3.841-.869,6.426.174,7.279a1.887,1.887,0,0,1,.681,1.807Zm1.94-25.957c-1.014.855-2.734.9-3.438-.014a2.432,2.432,0,0,1,.569-3.233c1.065-.854,2.783-.848,3.437.014A2.485,2.485,0,0,1,633.118,111.95Z" transform="translate(-495.358 -100.701)" fill="#fff"/>
    <path id="Path_28" data-name="Path 28" d="M641.606,114.086c-.583-.092-4.88-.467-7.517-.692a2.028,2.028,0,0,0-2.2,1.893h0a2.03,2.03,0,0,0,1.885,2.156l4.428-.155s5.911-.673,4.615,5.813l-.51,2.249c-1.391,7.732.081,11.626,5.335,11.647a7.665,7.665,0,0,0,5.371-2.252l-.468,2.575c0,.2-.153.607-.153.756a4.1,4.1,0,0,1-.912.051c-5.81-.023-9.252,1.48-10.427,4.558a4.56,4.56,0,0,0,.586,4.7,5.694,5.694,0,0,0,4.7,1.986c4.5.017,7.695-3.256,9.334-8.858a17.185,17.185,0,0,0,12.089-15.169l.049-.506c.158-.757-.145-1.111-.854-1.112l-1.163,0c-.757,0-1.112.347-1.268,1.1a2.312,2.312,0,0,0-.1.506c-1.187,6.515-3.828,10.5-7.979,11.952l4.078-22.43c.158-.757-.2-1.111-.9-1.112l-1.718-.008a1.2,1.2,0,0,0-1.322,1.1l-1.757,9.852v.1a15.116,15.116,0,0,1-2.6,6.312c-1.27,1.714-2.586,2.568-4,2.563-2.46-.011-2.812-1.527-2.327-5.843.058-.529.139-1.1.239-1.72l.127-.641c.24-1.223.51-2.113.673-3.346C647.892,114.867,641.606,114.086,641.606,114.086Zm5.349,31.956c-1.868-.006-2.675-1.322-1.91-2.936.612-1.262,2.385-1.864,5.417-1.8a7.091,7.091,0,0,0,1.109-.044C650.5,144.44,648.928,146.05,646.955,146.042Z" transform="translate(-492.221 -97.881)" fill="#fff"/>
    <path id="Path_29" data-name="Path 29" d="M560.507,103.271c1.539-.121,9.445.242,13.476,5.017,2.093,2.48,2.8,5.813,2.1,9.907-1.359,5.876-7.857,9.425-7.857,9.425s4.714,3.942,3.891,8.725a12.473,12.473,0,0,1-5.291,8.275,18.667,18.667,0,0,1-10.789,3.461h0a11.954,11.954,0,0,1-8.616-3.192c-4.875-4.925-6.07-11.107-3.551-18.373,0,0,2.682-6.159,4.176-8.01a2.113,2.113,0,0,1,1.627-.84c.076,0,.153,0,.229.012l.193.023a2.077,2.077,0,0,1,1.611,1.039,1.984,1.984,0,0,1-.139,2.125,25.075,25.075,0,0,0-5,11.506,10.5,10.5,0,0,0,2.543,8.221,10.214,10.214,0,0,0,7.765,3.4,15.041,15.041,0,0,0,6.682-1.717,7.954,7.954,0,0,0,4.7-5.834,7.1,7.1,0,0,0-1.706-5.482,4.788,4.788,0,0,0-1.952-1.276l-.119-.052-.127.075a20.45,20.45,0,0,1-6.567,2.193c-.2.02-.4.029-.592.029a4.3,4.3,0,0,1-3.795-1.942,5.011,5.011,0,0,1,.069-5.182,4.648,4.648,0,0,1,4.018-2.34c.054,0,.107,0,.161,0,.939,0,3.482.257,7.034,2.491l.139.077.138-.035a10.268,10.268,0,0,0,6.933-7.64,10.194,10.194,0,0,0-2.479-7.1c-1.79-1.908-4.422-2.877-7.82-2.877-.415,0-.845.014-1.282.043-8.335.577-13.419,5.3-14.7,13.664a17.667,17.667,0,0,0-.17,2.762,2.255,2.255,0,0,1-2.057,2.4,1.827,1.827,0,0,1-.926-.191,4.119,4.119,0,0,1-1.818-2.915S538.992,104.956,560.507,103.271Zm.15,23.914a5.114,5.114,0,0,0-3.155-1.171,1.176,1.176,0,0,0-1.223.67,1.192,1.192,0,0,0,.017,1.169,1.339,1.339,0,0,0,1.21.5A4.968,4.968,0,0,0,560.657,127.185Z" transform="translate(-540.608 -103.253)" fill="#fff"/>
  </g>
</svg>
