<svg xmlns="http://www.w3.org/2000/svg" width="893.72" height="1129.132" viewBox="0 0 893.72 1129.132">
  <g id="Group_1548" data-name="Group 1548" transform="translate(-99 -1911.558)">
    <path id="Path_1256" data-name="Path 1256" d="M1878.3,1708.657c-2.12.175-4.236.266-6.287.266-19.328.259-41.364.4-65.293.431-95.452.121-209.236-1.655-303.209-3.183l-13.27-.215c-69.936-1.137-130.33-2.12-166.908-2.08-11.57.017-20.137.132-26.18.35-6.339.222-13.085.5-20.151.791l-2.423.1c-25,1.023-53.367,2.183-81.228,2.214-22.383.031-41.123-.67-57.291-2.137-26.46-2.413-47.964-16.85-57.531-38.622l-.093-.186c-4.479-8.169-8.99-19.582-11.675-47.519-9.252-94.51-5.822-173.067-1.85-264.027l.09-2.032q.849-19.406,1.685-39.612c1.7-41.944,3.5-81.024,5.239-118.819l.037-.753c5.86-127.291,10.923-237.22,8.68-378.542-.244-15.464-1.093-38.34-1.988-62.562l-.038-1.02c-1.565-42.367-3.343-90.391-2.662-116.894.835-33.064,17.924-51.22,50.795-53.965,3.269-.273,6.684-.407,10.447-.41,49.72-.007,109.456,1.571,178.623,3.4l.757.02c93.843,2.483,200.145,5.3,316.3,5.158,33.9-.044,73.26-2.076,111.324-4.044,35.953-1.85,69.887-3.6,97.437-3.634,19.25-.03,33.4.8,43.25,2.544,27.528,4.855,57.306,25.908,60.953,56.755,13.166,110.972,8.7,223.913,4.377,333.133l-.011.356c-1.173,70.445-3.781,141.167-6.3,209.557-5.515,149.686-11.209,304.315-2.441,466.9.94,17.271-8.083,29.855-15.819,37.368C1913.668,1699.367,1895.969,1707.18,1878.3,1708.657Z" transform="translate(-961.857 1331.33)" fill="#fff"/>
    <path id="Path_1257" data-name="Path 1257" stroke="#b8d656" d="M1821,1705.093c-104.237.125-229.7-1.887-330.523-3.506-73.582-1.178-137.131-2.2-175.631-2.151-12.413.014-21.736.139-28.5.379-7.429.26-15.408.583-23.782.921-25.9,1.047-55.261,2.231-83.815,2.262-22.481.028-41.159-.653-57.1-2.085-17.057-1.529-30.921-10.7-37.08-24.517l-.443-1-.534-.962c-3.532-6.356-7.135-15.681-9.567-40.618-9.542-96.163-5.979-176.621-1.855-269.785.625-14.043,1.255-28.357,1.859-43.029,1.789-43.522,3.686-84.118,5.517-123.379,6.155-131.807,11.468-245.637,9.112-392.276-.263-16.294-1.165-40.3-2.117-65.724-1.635-43.6-3.493-93.014-2.8-119.8.635-24.687,9.5-32.62,36.477-32.652,51.815,0,114.47,1.63,187.013,3.524,98.454,2.568,210.038,5.477,332.012,5.331,36.239-.045,77.9-2.161,118.18-4.215,37.217-1.891,72.377-3.68,100.414-3.715,18.035-.021,31.42.705,39.783,2.161,18.812,3.274,39.127,17.16,41.555,37.364,13.577,112.969,8.935,228.8,4.442,340.809l-.016.542c-1.23,72.716-3.959,145.756-6.6,216.394-5.788,154.944-11.771,315.163-2.538,484,.529,9.633-4.833,16.9-9.421,21.292-8.989,8.611-22.645,13.97-35.638,13.984l-.373,0C1868.612,1704.912,1845.725,1705.061,1821,1705.093Z" fill="none" transform="translate(-962.196 1329.988)" stroke-linecap="round" stroke-linejoin="round" stroke-width="3.217" stroke-dasharray="0 6.434"/>
  </g>
</svg>
