<svg id="Group_76894" data-name="Group 76894" xmlns="http://www.w3.org/2000/svg" width="257.07" height="333.474" viewBox="0 0 257.07 333.474">
  <path id="Path_62" data-name="Path 62" d="M1295.986,913.494c-.61.052-1.219.078-1.808.078-5.56.077-11.9.12-18.781.127-27.456.036-60.185-.489-87.215-.94l-3.817-.063c-20.116-.336-37.488-.626-48.01-.614-3.328.005-5.792.039-7.531.1-1.823.066-3.764.148-5.8.234l-.7.029c-7.192.3-15.35.645-23.364.654-6.438.009-11.829-.2-16.479-.631-7.611-.713-13.8-4.977-16.548-11.407l-.027-.055c-1.288-2.413-2.586-5.783-3.358-14.034-2.661-27.912-1.675-51.113-.532-77.977l.026-.6q.244-5.732.485-11.7c.489-12.388,1.006-23.929,1.507-35.092l.011-.222c1.685-37.594,3.142-70.06,2.5-111.8-.07-4.567-.314-11.323-.572-18.477l-.011-.3c-.45-12.513-.961-26.7-.766-34.523.24-9.765,5.155-15.127,14.611-15.938.94-.081,1.922-.12,3-.121,14.3,0,31.484.464,51.379,1l.218.006c26.993.733,57.57,1.564,90.979,1.523,9.75-.013,21.073-.613,32.021-1.195,10.342-.547,20.1-1.064,28.027-1.073a73.808,73.808,0,0,1,12.441.751c7.918,1.434,16.484,7.651,17.532,16.762,3.787,32.774,2.5,66.13,1.259,98.386l0,.105c-.337,20.805-1.088,41.692-1.813,61.89-1.586,44.208-3.224,89.875-.7,137.894a14.439,14.439,0,0,1-4.55,11.036A22.506,22.506,0,0,1,1295.986,913.494Z" transform="translate(-1060.857 -580.228)" fill="#fff"/>
  <g id="Group_76907" data-name="Group 76907">
    <g id="Group_76908" data-name="Group 76908">
      <path id="Path_63" data-name="Path 63" d="M1279.3,912.322c-29.255.036-64.469-.549-92.764-1.02-20.651-.343-38.487-.64-49.293-.626-3.484,0-6.1.04-8,.11-2.085.076-4.324.17-6.675.268-7.269.3-15.509.649-23.523.658-6.309.008-11.552-.19-16.027-.606a12.209,12.209,0,0,1-10.407-7.131l-.124-.29-.15-.28c-.991-1.849-2-4.56-2.685-11.813-2.678-27.969-1.678-51.37-.521-78.467.175-4.084.352-8.248.521-12.515.5-12.658,1.035-24.466,1.548-35.885,1.728-38.336,3.219-71.444,2.557-114.094-.073-4.739-.327-11.722-.594-19.116-.459-12.681-.98-27.053-.786-34.844.178-7.18,2.666-9.488,10.238-9.5,14.542,0,32.127.474,52.487,1.025,27.632.747,58.949,1.593,93.182,1.551,10.171-.013,21.862-.629,33.168-1.226,10.445-.55,20.313-1.07,28.182-1.08a69.5,69.5,0,0,1,11.165.629c5.28.952,10.981,4.991,11.663,10.867,3.811,32.857,2.508,66.546,1.247,99.124l0,.158c-.345,21.149-1.111,42.393-1.852,62.938-1.624,45.066-3.3,91.665-.712,140.772a8.174,8.174,0,0,1-2.644,6.193,14.7,14.7,0,0,1-10,4.067h-.1C1292.661,912.269,1286.237,912.313,1279.3,912.322Z" transform="translate(-1062.933 -583.012)" fill="none" stroke="#b8d656" stroke-linecap="round" stroke-linejoin="round" stroke-width="3.217" stroke-dasharray="0 6.434"/>
    </g>
  </g>
</svg>
