<svg xmlns="http://www.w3.org/2000/svg" width="208.388" height="122.448" viewBox="0 0 208.388 122.448">
  <g id="Group_29" data-name="Group 29" transform="translate(-540.608 -69.461)">
    <g id="Group_27" data-name="Group 27" transform="translate(607.344 69.461)">
      <g id="Group_5" data-name="Group 5" transform="translate(7.443 8.86)">
        <g id="Group_2" data-name="Group 2" transform="translate(0 13.055)">
          <g id="Group_1" data-name="Group 1">
            <path id="Path_1" data-name="Path 1" d="M611.083,127.35a18.211,18.211,0,0,1-4.493-.663c-.41-.1-1.008-.245-1.22-.263a2.333,2.333,0,0,0-.234,0c-.265.007-.594.033-.946.058l-.063.005c-.487.036-1.095.084-1.736.1a13.536,13.536,0,0,1-4.482-.576,15.845,15.845,0,0,1-5.461-3.241c-.265-.22-.757-.626-.9-.712-.167-.1-.773-.336-1.1-.463a13.85,13.85,0,0,1-8.923-8.406.585.585,0,0,1,1.062-.492,12.714,12.714,0,0,0,8.288,7.808,11.8,11.8,0,0,1,1.266.543,11.322,11.322,0,0,1,1.055.817,14.845,14.845,0,0,0,5.069,3.028,12.22,12.22,0,0,0,4.1.521c.61-.015,1.176-.058,1.676-.1l.063-.005c.372-.027.723-.053,1.006-.06.214-.005.325,0,.354,0a11.377,11.377,0,0,1,1.391.29,16.484,16.484,0,0,0,4.515.63,10.613,10.613,0,0,0,1.265-.105,14.855,14.855,0,0,0,5.5-2.164,10.751,10.751,0,0,1,1.167-.632,11.249,11.249,0,0,1,1.338-.33,12.72,12.72,0,0,0,9.45-6.356,11.638,11.638,0,0,1,.8-1.1,11.355,11.355,0,0,1,1.048-.861,12.694,12.694,0,0,0,5.779-9.82,11.279,11.279,0,0,1,.252-1.376,11.73,11.73,0,0,1,.554-1.189,14.934,14.934,0,0,0,1.825-5.623,14.937,14.937,0,0,0-.89-5.855,11.448,11.448,0,0,1-.347-1.245,11,11,0,0,1-.027-1.385,14.849,14.849,0,0,0-.784-5.8.585.585,0,1,1,1.093-.419,15.82,15.82,0,0,1,.862,6.22c-.005.419-.014,1.02.015,1.22.022.151.207.75.3,1.038a14.007,14.007,0,0,1-1,12.378c-.131.26-.436.864-.485,1.018-.06.192-.149.8-.209,1.195a13.841,13.841,0,0,1-6.223,10.575c-.256.2-.788.6-.908.733s-.49.672-.686.96a13.847,13.847,0,0,1-10.17,6.841c-.4.085-.99.212-1.167.281-.16.062-.768.416-1,.55a15.912,15.912,0,0,1-5.926,2.313,12.15,12.15,0,0,1-1.4.114C611.292,127.348,611.187,127.35,611.083,127.35Z" transform="translate(-581.467 -81.532)" fill="#fff"/>
          </g>
        </g>
        <g id="Group_4" data-name="Group 4" transform="translate(0.928)">
          <g id="Group_3" data-name="Group 3">
            <path id="Path_2" data-name="Path 2" d="M604.557,75.51h0a10.738,10.738,0,0,1,2.351.4,16.6,16.6,0,0,0,2.625.492c.274.022.555.033.862.033.624,0,1.227-.045,1.814-.091.532-.04,1.035-.078,1.5-.078a4.283,4.283,0,0,1,1.3.162,7.912,7.912,0,0,1,2.418,1.587,15.865,15.865,0,0,0,2.079,1.534,16.315,16.315,0,0,0,2.389,1.089,7.924,7.924,0,0,1,2.529,1.32,7.936,7.936,0,0,1,1.474,2.453,12.52,12.52,0,0,0,2.9,4.314,7.943,7.943,0,0,1,1.723,2.3,8.071,8.071,0,0,1,.258,2.829,16.654,16.654,0,0,0,.1,2.634,15.871,15.871,0,0,0,.63,2.491,7.961,7.961,0,0,1,.554,2.858,7.941,7.941,0,0,1-1.013,2.729,16.163,16.163,0,0,0-1.026,2.355,16.668,16.668,0,0,0-.53,2.585,8.047,8.047,0,0,1-.717,2.745,7.892,7.892,0,0,1-2.073,1.988,12.574,12.574,0,0,0-3.564,3.783,5.255,5.255,0,0,1-4.564,3.07,16.484,16.484,0,0,0-2.533.686,16,16,0,0,0-2.3,1.176,7.9,7.9,0,0,1-2.642,1.171,2.982,2.982,0,0,1-.434.029,10.582,10.582,0,0,1-2.351-.4,16.588,16.588,0,0,0-2.627-.49c-.272-.024-.554-.035-.859-.035q-.169,0-.338.005c-.5.011-1,.049-1.474.085-.534.04-1.037.08-1.505.08a4.361,4.361,0,0,1-1.3-.162,7.967,7.967,0,0,1-2.418-1.589,15.959,15.959,0,0,0-2.079-1.534,16.626,16.626,0,0,0-2.389-1.089,5.262,5.262,0,0,1-4-3.771,16.346,16.346,0,0,0-1.227-2.315,16.1,16.1,0,0,0-1.672-2,7.915,7.915,0,0,1-1.723-2.3,8.07,8.07,0,0,1-.26-2.829,16.4,16.4,0,0,0-.1-2.632,15.691,15.691,0,0,0-.628-2.493,7.966,7.966,0,0,1-.555-2.856,7.993,7.993,0,0,1,1.015-2.731,16.031,16.031,0,0,0,1.024-2.355,16.607,16.607,0,0,0,.532-2.583,8,8,0,0,1,.715-2.745,7.933,7.933,0,0,1,2.075-1.99,12.483,12.483,0,0,0,3.562-3.783,5.264,5.264,0,0,1,4.562-3.07,16.421,16.421,0,0,0,2.536-.684,16.173,16.173,0,0,0,2.3-1.176,7.958,7.958,0,0,1,2.645-1.173,3.209,3.209,0,0,1,.432-.029m0-1.169a4.365,4.365,0,0,0-.6.04,8.844,8.844,0,0,0-3.066,1.32,11.455,11.455,0,0,1-4.492,1.728,6.333,6.333,0,0,0-5.287,3.557,11.443,11.443,0,0,1-3.308,3.513,8.852,8.852,0,0,0-2.371,2.324,8.8,8.8,0,0,0-.864,3.166,15.859,15.859,0,0,1-.488,2.406,15.03,15.03,0,0,1-.957,2.18,8.888,8.888,0,0,0-1.133,3.159,8.844,8.844,0,0,0,.6,3.3,14.87,14.87,0,0,1,.586,2.307,15.91,15.91,0,0,1,.093,2.453,8.812,8.812,0,0,0,.336,3.264,8.878,8.878,0,0,0,1.961,2.678,11.453,11.453,0,0,1,2.692,4,6.331,6.331,0,0,0,4.637,4.37,15.578,15.578,0,0,1,2.224,1.009,15.255,15.255,0,0,1,1.926,1.427,8.822,8.822,0,0,0,2.812,1.8,5.47,5.47,0,0,0,1.654.216c.512,0,1.046-.04,1.594-.082.465-.036.938-.073,1.414-.084.1,0,.205,0,.309,0,.254,0,.51.007.764.029a16.007,16.007,0,0,1,2.444.461,11.409,11.409,0,0,0,2.629.439,4.077,4.077,0,0,0,.6-.042,8.862,8.862,0,0,0,3.068-1.318,15.162,15.162,0,0,1,2.133-1.1,15.821,15.821,0,0,1,2.358-.634,6.332,6.332,0,0,0,5.287-3.557,15.292,15.292,0,0,1,1.471-1.937,15.458,15.458,0,0,1,1.837-1.576,8.84,8.84,0,0,0,2.369-2.322,8.809,8.809,0,0,0,.864-3.166,15.812,15.812,0,0,1,.49-2.406,15.134,15.134,0,0,1,.955-2.182,8.876,8.876,0,0,0,1.135-3.159,8.908,8.908,0,0,0-.6-3.3,15.093,15.093,0,0,1-.588-2.309,15.644,15.644,0,0,1-.091-2.453,8.813,8.813,0,0,0-.338-3.264,8.8,8.8,0,0,0-1.959-2.676,11.389,11.389,0,0,1-2.692-4,8.824,8.824,0,0,0-1.734-2.816,8.839,8.839,0,0,0-2.9-1.556,15.742,15.742,0,0,1-2.224-1.008,15.146,15.146,0,0,1-1.924-1.429,8.84,8.84,0,0,0-2.812-1.8,5.469,5.469,0,0,0-1.654-.216c-.512,0-1.046.042-1.594.084-.565.044-1.142.087-1.721.087-.256,0-.512-.009-.766-.029a15.782,15.782,0,0,1-2.444-.463,11.519,11.519,0,0,0-2.629-.438Z" transform="translate(-581.978 -74.341)" fill="#fff"/>
          </g>
        </g>
      </g>
      <g id="Group_11" data-name="Group 11" transform="translate(20.408 18.354)">
        <g id="Group_7" data-name="Group 7" transform="translate(7.29 27.692)">
          <g id="Group_6" data-name="Group 6">
            <path id="Path_3" data-name="Path 3" d="M595.542,94.824l-2.918,8.375a6.035,6.035,0,0,1,3.586,1.2L599,95.984Z" transform="translate(-592.624 -94.824)" fill="#fff"/>
          </g>
        </g>
        <g id="Group_9" data-name="Group 9" transform="translate(0 37.99)">
          <g id="Group_8" data-name="Group 8">
            <path id="Path_4" data-name="Path 4" d="M592.133,103.217l-3.32,10.35a3.983,3.983,0,1,0,7.552,2.534l3.321-10.348a3.984,3.984,0,1,0-7.553-2.536Zm1.845,11.3a1.331,1.331,0,0,1-.688,1.834,1.406,1.406,0,0,1-1.921-.644,1.469,1.469,0,0,1,.644-1.921A1.558,1.558,0,0,1,593.978,114.517Z" transform="translate(-588.609 -100.496)" fill="#fff"/>
          </g>
        </g>
        <g id="Group_10" data-name="Group 10" transform="translate(2.894)">
          <path id="Path_5" data-name="Path 5" d="M596.89,109.957a1.253,1.253,0,0,1-1.015-.517c-6.191-8.533-7.427-18.54-3.15-25.5a9.253,9.253,0,0,1,5.877-4.288,4.652,4.652,0,0,1,3.822.91,7.217,7.217,0,0,1,2.251,4.05,8.384,8.384,0,0,1,4.493-2.505,5.029,5.029,0,0,1,4.05,1.294c2.854,2.485,3.542,7.215,1.794,12.344-2.144,6.294-8.015,12.87-16.3,13.367a1.251,1.251,0,0,1-.606-.116,1.252,1.252,0,0,1-1.218.959Zm2.652-27.879a3.033,3.033,0,0,0-.516.045,6.869,6.869,0,0,0-4.167,3.134c-3.649,5.931-2.607,14.549,2.623,22.118a1.257,1.257,0,0,1,1.08-.764c7.122-.427,12.2-6.169,14.077-11.672,1.411-4.145,1-7.841-1.069-9.646a2.5,2.5,0,0,0-2.064-.7c-1.761.234-3.575,2.229-4.375,3.306a36.8,36.8,0,0,1-.617,8.567l-.007.04c-.345,1.716-.815,4.067-2.284,5.328a1.886,1.886,0,0,1-2.239.372,3.062,3.062,0,0,1-1.529-2.329c-.608-3.513,2.527-10.459,4.1-12.716-.231-2.326-.819-3.927-1.71-4.646A2.023,2.023,0,0,0,599.542,82.078Zm2.983,10.582c-.089.211-.176.428-.263.65-1.042,2.652-1.541,4.949-1.334,6.14l.013.073a11.1,11.1,0,0,0,1.109-3.509l.007-.042A31.661,31.661,0,0,0,602.525,92.661Z" transform="translate(-590.203 -79.571)" fill="#fff"/>
        </g>
      </g>
      <g id="Group_26" data-name="Group 26">
        <g id="Group_12" data-name="Group 12" transform="translate(3.545 47.664)">
          <path id="Path_6" data-name="Path 6" d="M579.32,97.507l1.136-.674.018.029.047.08.162.274a.166.166,0,0,1-.033.229c-.034.029-.122.1-.26.2l.579.98,3.415-2.017-.082-.216-.04-.111-.016-.045a.222.222,0,0,1,.109-.289l.392-.231.3.5.528.9.3.5-.39.231a.221.221,0,0,1-.307-.044l-.033-.036-.076-.089-.151-.176L581.5,99.518l.579.98q.234-.106.3-.131a.164.164,0,0,1,.214.082l.163.274.047.08.016.029-1.138.672-.058-.1-.005-.009-2.233-3.78,0-.005Z" transform="translate(-579.32 -95.715)" fill="#fff"/>
        </g>
        <g id="Group_13" data-name="Group 13" transform="translate(1.456 40.998)">
          <path id="Path_7" data-name="Path 7" d="M581.315,92.048a2.735,2.735,0,0,1,1.04.265,2.618,2.618,0,0,1,.844.664,3.246,3.246,0,0,1,.717,2.2,2.653,2.653,0,0,1-.29,1.037,2.681,2.681,0,0,1-.683.83,3.122,3.122,0,0,1-1.019.548,3.171,3.171,0,0,1-1.146.158,2.683,2.683,0,0,1-1.042-.271,2.6,2.6,0,0,1-.844-.666,3.025,3.025,0,0,1-.563-1.035,2.993,2.993,0,0,1-.152-1.166,2.619,2.619,0,0,1,.973-1.861,3.245,3.245,0,0,1,2.164-.7Zm-1.561,1.543a1.724,1.724,0,0,0-.481.525,1.477,1.477,0,0,0-.2.648,1.927,1.927,0,0,0,.1.741,1.972,1.972,0,0,0,.358.661,1.553,1.553,0,0,0,.545.41,1.772,1.772,0,0,0,.7.143,2.823,2.823,0,0,0,1.569-.51,1.727,1.727,0,0,0,.479-.528,1.541,1.541,0,0,0,.2-.652,2.075,2.075,0,0,0-.456-1.4,1.517,1.517,0,0,0-.543-.407,1.717,1.717,0,0,0-.7-.142,2.625,2.625,0,0,0-.823.14A2.586,2.586,0,0,0,579.753,93.591Z" transform="translate(-578.17 -92.043)" fill="#fff"/>
        </g>
        <g id="Group_14" data-name="Group 14" transform="translate(0 33.946)">
          <path id="Path_8" data-name="Path 8" d="M580.068,88.326l2.255-.167a3.075,3.075,0,0,1,.3.421,2.656,2.656,0,0,1,.221.476A3.594,3.594,0,0,1,583,89.6a5,5,0,0,1,.084.637,2.9,2.9,0,0,1-.127,1.137,2.651,2.651,0,0,1-1.382,1.583,3.078,3.078,0,0,1-1.129.294,3.148,3.148,0,0,1-1.167-.118,2.537,2.537,0,0,1-1.6-1.38,3.266,3.266,0,0,1-.292-1.133l-.005-.049V90.57a5.75,5.75,0,0,1,.249-2l1.427-.107,0,.034.007.093.024.318a.168.168,0,0,1-.131.191c-.067.016-.265.054-.6.111a4.118,4.118,0,0,0-.094,1.333,1.9,1.9,0,0,0,.194.735,1.606,1.606,0,0,0,.438.539,1.828,1.828,0,0,0,.648.316,2.4,2.4,0,0,0,.819.065,2.52,2.52,0,0,0,.848-.2,1.814,1.814,0,0,0,.606-.425,1.656,1.656,0,0,0,.352-.608,1.921,1.921,0,0,0,.082-.743,2.692,2.692,0,0,0-.109-.606,2.738,2.738,0,0,0-.212-.481l-1.015.074.053.7a.217.217,0,0,1-.044.162.179.179,0,0,1-.133.067l-.586.045Z" transform="translate(-577.367 -88.159)" fill="#fff"/>
        </g>
        <g id="Group_15" data-name="Group 15" transform="translate(0.041 27.652)">
          <path id="Path_9" data-name="Path 9" d="M577.936,84.692l.532.071.287.038.635.085,0,.033-.013.093-.042.316a.169.169,0,0,1-.167.16q-.093,0-.5-.011l-.238,1.779,1.536.205.251-1.872.793.105-.252,1.874,1.567.209L582.559,86c-.265-.062-.427-.1-.485-.122a.166.166,0,0,1-.12-.2l.044-.314.013-.094,0-.033.635.085.287.04.537.071-.468,3.493-.078.579-.45-.06a.221.221,0,0,1-.212-.223l0-.049-.005-.118-.009-.231-4.02-.539-.071.221-.034.111-.016.047a.222.222,0,0,1-.265.16l-.45-.06.078-.581Z" transform="translate(-577.39 -84.692)" fill="#fff"/>
        </g>
        <g id="Group_16" data-name="Group 16" transform="translate(1.154 20.76)">
          <path id="Path_10" data-name="Path 10" d="M579.537,80.9l1.249.438-.011.031-.031.089-.105.3a.165.165,0,0,1-.2.122c-.045-.007-.151-.031-.318-.071l-.378,1.077,3.745,1.311.114-.2.056-.1.025-.044a.222.222,0,0,1,.292-.1l.428.151-.194.552-.343.98-.194.554-.428-.151a.225.225,0,0,1-.164-.263l.007-.049.018-.114q.014-.084.038-.229L579.4,83.861l-.378,1.077c.156.073.254.12.294.143a.166.166,0,0,1,.076.218l-.105.3-.031.089-.011.031L578,85.28l.036-.107.005-.013,1.451-4.145,0-.005Z" transform="translate(-578.003 -80.896)" fill="#fff"/>
        </g>
        <g id="Group_17" data-name="Group 17" transform="translate(3.801 13.358)">
          <path id="Path_11" data-name="Path 11" d="M583.107,77.4l-.045.109-.089.214,3.413,2.191.156-.169.08-.087.034-.036a.222.222,0,0,1,.307-.031l.383.245-.316.492-.567.882-.318.492-.381-.245a.225.225,0,0,1-.1-.294l.02-.045.045-.109.089-.212-1.411-.908L582.992,82.1,584.4,83l.158-.171.08-.085.033-.036a.224.224,0,0,1,.309-.031l.383.245-.318.492-.565.881-.318.494-.381-.247a.222.222,0,0,1-.1-.292l.02-.045.044-.109.089-.214-3.411-2.193-.158.171-.08.085-.033.036a.222.222,0,0,1-.309.033l-.383-.245.318-.494.566-.881.316-.492.381.245a.225.225,0,0,1,.1.294l-.02.045-.044.107-.089.214,1.378.886,1.416-2.206-1.378-.884-.158.169-.08.087-.033.034a.222.222,0,0,1-.309.033l-.381-.245.316-.492.566-.882.316-.492.383.245a.222.222,0,0,1,.1.294Z" transform="translate(-579.461 -76.819)" fill="#fff"/>
        </g>
        <g id="Group_18" data-name="Group 18" transform="translate(8.761 8.478)">
          <path id="Path_12" data-name="Path 12" d="M585.132,74.131l.376.385.2.205.448.459-.024.024-.067.065-.227.221a.166.166,0,0,1-.231.024c-.049-.036-.178-.142-.387-.318l-1.285,1.254,1.082,1.109,1.352-1.32.559.572-1.353,1.32,1.1,1.131,1.285-1.255c-.171-.212-.274-.345-.309-.4a.166.166,0,0,1,.029-.229l.227-.221.067-.065.024-.024.448.459.2.207.379.387-2.522,2.462-.419.408-.318-.325a.222.222,0,0,1-.029-.307l.029-.042.067-.094.134-.189-2.832-2.9-.191.131-.1.065-.04.027a.221.221,0,0,1-.307-.038L582.193,77l.419-.408Z" transform="translate(-582.193 -74.131)" fill="#fff"/>
        </g>
        <g id="Group_19" data-name="Group 19" transform="translate(13.723 5.105)">
          <path id="Path_13" data-name="Path 13" d="M591.9,75.645l.243.385-.091.056-.4.256-.387.245a.433.433,0,0,1-.223.076.469.469,0,0,1-.218-.044l-1.95-.884a.434.434,0,0,0-.2-.044.543.543,0,0,0-.221.089l-.329.209.759,1.2.214-.087.107-.044.047-.02a.224.224,0,0,1,.292.1l.243.383-.5.314-.877.556-.5.314-.243-.385a.222.222,0,0,1,.034-.307l.036-.034.085-.078.172-.158-2.169-3.428-.216.089-.107.044-.047.018a.222.222,0,0,1-.292-.1l-.243-.385.5-.312,1.394-.884a3.52,3.52,0,0,1,.891-.423,1.873,1.873,0,0,1,.741-.08,1.278,1.278,0,0,1,.6.225,1.707,1.707,0,0,1,.452.485,1.742,1.742,0,0,1,.214.5,1.548,1.548,0,0,1-.092,1.024,2.054,2.054,0,0,1-.31.49,1.021,1.021,0,0,1,.459.089l1.438.626.223-.094.125-.054.055-.024A.222.222,0,0,1,591.9,75.645Zm-3.086-1.3a.806.806,0,0,0,.014-.372,1.039,1.039,0,0,0-.151-.367.787.787,0,0,0-.586-.4,1.333,1.333,0,0,0-.844.265l-.516.325.991,1.569.5-.318a1.681,1.681,0,0,0,.394-.336A.994.994,0,0,0,588.813,74.341Z" transform="translate(-584.926 -72.273)" fill="#fff"/>
        </g>
        <g id="Group_20" data-name="Group 20" transform="translate(23.931)">
          <path id="Path_14" data-name="Path 14" d="M598.946,69.461l.078.447a.223.223,0,0,1-.149.272l-.082.029-.209.076-.648,5.022-.926.162-1.857-3.551-.075-.147c-.027-.053-.053-.109-.08-.171,0,.065-.009.127-.016.187s-.013.116-.02.163l-.559,3.972-.924.162-2.309-4.506-.225,0h-.085a.223.223,0,0,1-.232-.205l-.078-.448.261-.045.314-.054.546-.094.933-.163.078.448a.222.222,0,0,1-.149.27l-.036.016-.082.036-.125.054,1.275,2.638c.036.078.072.162.109.254s.071.189.107.292c0-.109.007-.214.014-.314s.018-.192.031-.278l.508-3.48a.357.357,0,0,1,.093-.18.332.332,0,0,1,.205-.111l.3-.053a.371.371,0,0,1,.231.024.335.335,0,0,1,.152.149l1.647,3.1a4.435,4.435,0,0,1,.238.516q0-.15.005-.294c0-.1.009-.183.015-.267l.3-2.907-.325-.015a.221.221,0,0,1-.232-.2l-.078-.448.991-.172.488-.085.316-.054Z" transform="translate(-590.549 -69.461)" fill="#fff"/>
        </g>
        <g id="Group_21" data-name="Group 21" transform="translate(34.639 0.191)">
          <path id="Path_15" data-name="Path 15" d="M601.06,69.951l-.051.536-.027.287-.06.639-.033,0L600.8,71.4l-.316-.029a.165.165,0,0,1-.165-.16c-.005-.062-.009-.229-.009-.5l-1.788-.167-.145,1.541,1.881.178-.074.8-1.881-.176-.147,1.572,1.786.169q.079-.4.1-.49a.165.165,0,0,1,.192-.127l.316.031.094.007.033,0-.06.639-.027.287-.051.539-3.508-.329-.583-.054.042-.454a.222.222,0,0,1,.216-.221l.049,0,.116-.011.231-.018.379-4.038-.223-.062-.113-.031-.047-.013a.224.224,0,0,1-.171-.26l.044-.452.583.054Z" transform="translate(-596.447 -69.566)" fill="#fff"/>
        </g>
        <g id="Group_22" data-name="Group 22" transform="translate(43.103 2.082)">
          <path id="Path_16" data-name="Path 16" d="M606.1,76.105a1.559,1.559,0,0,1-.385.55,1.437,1.437,0,0,1-.566.32,1.861,1.861,0,0,1-.721.062,2.749,2.749,0,0,1-.844-.229l-1.939-.837-.537-.232.18-.418a.225.225,0,0,1,.274-.145l.047.013.114.025.227.054,1.607-3.725-.192-.127-.1-.065-.042-.027a.223.223,0,0,1-.082-.3l.18-.418.537.232,1.772.764a3.647,3.647,0,0,1,.819.467,1.779,1.779,0,0,1,.469.527,1.166,1.166,0,0,1,.149.574,1.582,1.582,0,0,1-.138.614,1.2,1.2,0,0,1-.2.323,1.1,1.1,0,0,1-.3.238,1.375,1.375,0,0,1-.4.138,1.839,1.839,0,0,1-.5.022A1.236,1.236,0,0,1,606.1,76.105Zm-.935-.428a.835.835,0,0,0,.076-.323.605.605,0,0,0-.069-.3.818.818,0,0,0-.229-.269,1.718,1.718,0,0,0-.407-.236l-.966-.416-.65,1.505.97.418a1.477,1.477,0,0,0,.474.129.832.832,0,0,0,.359-.047.665.665,0,0,0,.263-.182A1.007,1.007,0,0,0,605.167,75.677Zm-1.309-2.2.763.33a1.38,1.38,0,0,0,.815.14.7.7,0,0,0,.5-.454.73.73,0,0,0,.02-.67,1.305,1.305,0,0,0-.637-.477l-.815-.352Z" transform="translate(-601.109 -70.608)" fill="#fff"/>
        </g>
        <g id="Group_23" data-name="Group 23" transform="translate(48.524 6.632)">
          <path id="Path_17" data-name="Path 17" d="M609.139,79.387l-.236.318-.22-.165-.485-.361-.1-.078-.056-.042-.648-.483.236-.318a.211.211,0,0,1,.242-.065l.161.04.025-.084.232-.775L606.5,76.042l-.706.461-.046.029.085.143a.212.212,0,0,1,.005.251l-.236.316-.646-.481-.058-.044-.1-.078-.485-.361-.22-.165.234-.316a.211.211,0,0,1,.243-.065c.042.009.191.047.445.109l4.4-2.727.852.635L608.9,78.74c.134.229.213.359.232.4A.21.21,0,0,1,609.139,79.387Zm-1.983-3.773,1.356,1.011.528-1.77c.025-.087.056-.185.093-.3s.08-.231.131-.358c-.109.084-.211.162-.305.231s-.181.129-.26.178Z" transform="translate(-604.095 -73.114)" fill="#fff"/>
        </g>
        <g id="Group_24" data-name="Group 24" transform="translate(54.308 10.682)">
          <path id="Path_18" data-name="Path 18" d="M611.034,82.767l-.352.287-.038-.047-.332-.407-.189-.232-.06-.074-.748-.92.352-.287a.223.223,0,0,1,.309,0l.047.04.082.069.45-1.888a.482.482,0,0,0,0-.227.651.651,0,0,0-.14-.24l-.207-.256L608.9,79.65l.112.2.056.1.024.042a.223.223,0,0,1-.065.3l-.352.287-.369-.454-.657-.806-.369-.454.352-.287a.222.222,0,0,1,.309,0l.038.031.089.076.176.153,3.148-2.56-.113-.2-.056-.1-.025-.044a.224.224,0,0,1,.067-.3l.352-.287.368.454.656.806.369.454-.352.287a.221.221,0,0,1-.309,0l-.038-.031-.089-.076-.174-.151-1.225.995.154.189a.626.626,0,0,0,.185.163.407.407,0,0,0,.205.047l1.856-.025-.025-.047-.024-.044a.221.221,0,0,1,.065-.3l.352-.287.808.993.122.151.37.454-.352.287a.224.224,0,0,1-.31,0l-.045-.044c-.022-.02-.056-.053-.1-.094s-.1-.094-.173-.154l-2.01,0a1.633,1.633,0,0,1-.247-.018.823.823,0,0,1-.2-.058.8.8,0,0,1,.044.26,1.274,1.274,0,0,1-.042.292l-.572,2.235.116.2c.033.054.056.094.073.12l.033.053A.223.223,0,0,1,611.034,82.767Z" transform="translate(-607.281 -75.345)" fill="#fff"/>
        </g>
        <g id="Group_25" data-name="Group 25" transform="translate(58.422 17.111)">
          <path id="Path_19" data-name="Path 19" d="M616.382,82.555l-.479.241-.258.129-.574.289-.015-.029-.042-.084-.144-.285a.165.165,0,0,1,.047-.225c.049-.036.189-.127.419-.274l-.808-1.6-1.383.7L614,83.1l-.713.359-.85-1.687-1.411.71.806,1.6c.256-.1.412-.156.47-.174a.164.164,0,0,1,.209.1l.143.283.042.084.016.031-.574.289-.258.129-.485.243L609.81,81.92l-.263-.523.4-.2a.223.223,0,0,1,.3.064l.029.04.071.093.138.185,3.622-1.823-.067-.221-.033-.113L614,79.371a.224.224,0,0,1,.129-.281l.407-.2.263.521Z" transform="translate(-609.547 -78.886)" fill="#fff"/>
        </g>
      </g>
    </g>
    <g id="Group_28" data-name="Group 28" transform="translate(540.608 130.81)">
      <path id="Path_20" data-name="Path 20" d="M580.765,140.284a5.906,5.906,0,0,1-2.469-3.453c-2.349,2.75-4.934,4.119-7.692,4.108a7.36,7.36,0,0,1-6.523-3.564c-1.49-2.344-1.777-5.764-.98-10.259a19.3,19.3,0,0,1,4.715-9.936,10.859,10.859,0,0,1,8.052-3.869,7.053,7.053,0,0,1,4.733,1.578c0-.12,0-.18.06-.24a1.391,1.391,0,0,1,1.565-1.313l2.039.007c.839,0,1.258.425,1.075,1.323l-2.451,13.366c-.848,4.541-1.013,7.65.283,8.653a2.155,2.155,0,0,1,.8,2.1h0A2.165,2.165,0,0,1,580.765,140.284ZM578.575,126.4l.247-1.859c.619-4.855-.512-7.258-3.631-7.271-3.417-.013-6.371,3.695-7.415,9.867-1.164,6.532-.038,9.836,3.5,9.849C574.635,137,577.711,132.991,578.575,126.4Z" transform="translate(-522.62 -95.051)" fill="#fff"/>
      <path id="Path_21" data-name="Path 21" d="M595.358,145.363a2.119,2.119,0,0,1-2.367,1.71c-4.6-.628-7.8-3.422-9.519-8.424-1.249-2.7-1-4.2.677-4.375,5.519-.7,8.949-3.2,9.682-6.981.429-2.217-.584-3.78-2.563-3.787s-3.9,1.124-5.831,3.457a20.851,20.851,0,0,0-3.934,9.461c0,.06-.06.06-.06.12l-1.656,9.288a1.4,1.4,0,0,1-1.505,1.314l-2.039-.007c-.839,0-1.2-.425-1.015-1.324l6.926-38.717c.183-.9.606-1.316,1.445-1.313l2.1.007c.9,0,1.258.425,1.075,1.323l-.552,2.937-1.162,6.173c-.49,2.636-.859,4.974-1.227,7.011,2.649-2.449,5.352-3.7,8.112-3.687,4.8.018,7.424,2.968,6.507,7.761-.735,4.076-4.588,7.839-10.352,9.437a9.5,9.5,0,0,0,5.775,6.207,2.127,2.127,0,0,1,1.485,2.407Z" transform="translate(-512.414 -101.189)" fill="#fff"/>
      <path id="Path_22" data-name="Path 22" d="M608.9,135.4a1.812,1.812,0,0,1-.261,2.765,16.886,16.886,0,0,1-9.905,2.883c-8.157-.031-12.039-4.484-10.383-13.834a18.6,18.6,0,0,1,4.9-9.936c2.589-2.569,5.352-3.878,8.351-3.865,2.938.011,4.974.919,6.167,2.661a6.676,6.676,0,0,1,.636,6.18,12,12,0,0,1-4.942,6.218,15.269,15.269,0,0,1-8.286,2.487c-1.018,0-1.438-.425-1.313-1.8.125-1.5.728-2.215,1.628-2.213,4.018.016,7.144-1.89,8.295-5.185,1.031-2.934.078-4.377-2.861-4.388-3.6-.015-6.852,3.931-7.894,9.864-1.164,6.292,1.282,9.842,6.38,9.862a12.865,12.865,0,0,0,7.138-1.972,1.827,1.827,0,0,1,2.295.22Z" transform="translate(-501.979 -94.971)" fill="#fff"/>
      <path id="Path_23" data-name="Path 23" d="M607.71,143.364a2.07,2.07,0,0,1-2.678,1.6c-3.94-1.345-4.994-6.378-3.689-13.58l1.777-10.007-1.56-.007c-.841,0-1.258-.425-1.075-1.323l.245-1.318a1.423,1.423,0,0,1,1.565-1.313l1.558.005,1.411-7.912a1.331,1.331,0,0,1,1.505-1.253l2.1.007c.839,0,1.137.425,1.015,1.264l-1.411,7.912,2.939.011c.839,0,1.258.425,1.075,1.323l-.245,1.318a1.426,1.426,0,0,1-1.565,1.314l-2.879-.013L605.96,131.4a25.752,25.752,0,0,0-.566,7.075,3.175,3.175,0,0,0,1.349,2.563,1.945,1.945,0,0,1,1.024,2.019Z" transform="translate(-491.813 -99.174)" fill="#fff"/>
      <path id="Path_24" data-name="Path 24" d="M639.327,143.486a2.067,2.067,0,0,1-2.676,1.6c-3.942-1.344-5-6.376-3.691-13.578l3.923-21.875a1.33,1.33,0,0,1,1.5-1.254l2.1.007c.839,0,1.136.425,1.013,1.264l-3.922,21.875a25.757,25.757,0,0,0-.566,7.075,3.182,3.182,0,0,0,1.349,2.565,1.941,1.941,0,0,1,1.024,2.017Z" transform="translate(-465.728 -99.074)" fill="#fff"/>
      <path id="Path_25" data-name="Path 25" d="M613.624,143.4a2.216,2.216,0,0,1-3.11,1.621c-2.941-1.42-3.74-5.559-2.523-12.42l2.391-13.364c.183-.9.6-1.318,1.505-1.314l2.1.009c.839,0,1.2.423,1.015,1.322l-2.391,13.366c-.793,4.557-1.033,7.625.207,8.636a2.243,2.243,0,0,1,.808,2.144Zm2.3-30.8c-1.2,1.015-3.242,1.066-4.078-.016a2.886,2.886,0,0,1,.675-3.836c1.264-1.015,3.3-1.006,4.078.016A2.951,2.951,0,0,1,615.924,112.6Z" transform="translate(-486.104 -99.386)" fill="#fff"/>
      <path id="Path_26" data-name="Path 26" d="M628.306,136.887q-4.335,4.48-8.653,4.464c-5.757-.022-7.66-4.468-5.944-13.816l2.267-12.527c.183-.9.6-1.316,1.5-1.313l2.1.007c.839,0,1.2.425,1.013,1.324-.49,3.057-1.287,7.191-2.208,12.527-1.287,7.371-.637,9.833,1.943,9.842,2.039.009,3.9-1.184,5.53-3.517a22.778,22.778,0,0,0,3.575-9.163c.674-3.9.387-7.195-.8-9.778-.714-1.561,3.068-2.387,4.2-1q2.6,2.979,1.218,10.8C633.132,129.829,631.258,133.839,628.306,136.887Z" transform="translate(-481.489 -95.117)" fill="#fff"/>
      <path id="Path_27" data-name="Path 27" d="M632.149,143.473a2.215,2.215,0,0,1-3.11,1.621c-2.939-1.42-3.74-5.559-2.522-12.418l2.391-13.366c.182-.9.6-1.318,1.5-1.314l2.1.009c.841,0,1.2.425,1.015,1.323l-2.391,13.364c-.793,4.557-1.031,7.625.207,8.636a2.239,2.239,0,0,1,.808,2.144Zm2.3-30.8c-1.2,1.015-3.244,1.067-4.079-.016a2.886,2.886,0,0,1,.675-3.836c1.264-1.013,3.3-1.006,4.078.016A2.948,2.948,0,0,1,634.451,112.675Z" transform="translate(-470.997 -99.328)" fill="#fff"/>
      <path id="Path_28" data-name="Path 28" d="M643.419,114.217c-.692-.109-5.79-.554-8.92-.821a2.406,2.406,0,0,0-2.607,2.246h0a2.408,2.408,0,0,0,2.237,2.558l5.254-.183s7.013-.8,5.476,6.9l-.6,2.669c-1.65,9.174.1,13.794,6.331,13.819a9.094,9.094,0,0,0,6.372-2.672l-.555,3.055c0,.24-.182.721-.182.9a4.868,4.868,0,0,1-1.082.06c-6.893-.027-10.978,1.756-12.372,5.408a5.41,5.41,0,0,0,.7,5.581,6.756,6.756,0,0,0,5.573,2.357c5.336.02,9.13-3.863,11.075-10.51a20.391,20.391,0,0,0,14.344-18l.058-.6c.187-.9-.172-1.318-1.013-1.32l-1.38-.005c-.9,0-1.32.412-1.5,1.311a2.73,2.73,0,0,0-.123.6c-1.409,7.73-4.543,12.458-9.468,14.181l4.838-26.613c.187-.9-.236-1.318-1.071-1.32l-2.039-.009a1.429,1.429,0,0,0-1.569,1.311L659.1,126.8v.114a17.938,17.938,0,0,1-3.086,7.489c-1.507,2.033-3.068,3.046-4.748,3.041-2.919-.013-3.337-1.812-2.761-6.933.069-.628.165-1.307.283-2.041l.151-.761c.285-1.451.6-2.507.8-3.97C650.877,115.143,643.419,114.217,643.419,114.217Zm6.347,37.917c-2.217-.007-3.173-1.569-2.266-3.484.726-1.5,2.83-2.211,6.427-2.139a8.412,8.412,0,0,0,1.316-.053C653.969,150.232,652.106,152.142,649.766,152.133Z" transform="translate(-466.171 -94.989)" fill="#fff"/>
      <path id="Path_29" data-name="Path 29" d="M564.218,103.275c1.826-.143,11.207.287,15.989,5.953,2.484,2.943,3.324,6.9,2.494,11.755-1.612,6.971-9.323,11.183-9.323,11.183s5.594,4.677,4.617,10.352a14.8,14.8,0,0,1-6.278,9.818,22.149,22.149,0,0,1-12.8,4.107h0c-2.954,0-7.126-.657-10.223-3.787-5.784-5.844-7.2-13.179-4.214-21.8,0,0,3.182-7.307,4.954-9.5a2.507,2.507,0,0,1,1.93-1c.091,0,.182.005.272.015l.229.027a2.463,2.463,0,0,1,1.912,1.233,2.353,2.353,0,0,1-.165,2.522c-3.419,4.724-5.414,9.317-5.929,13.653a12.463,12.463,0,0,0,3.017,9.755,12.119,12.119,0,0,0,9.214,4.029,17.846,17.846,0,0,0,7.928-2.037c3.173-1.583,5.051-3.911,5.575-6.923.16-3.468-1.013-5.446-2.024-6.5a5.682,5.682,0,0,0-2.317-1.514l-.142-.062-.151.089a24.264,24.264,0,0,1-7.792,2.6c-.24.024-.472.034-.7.034a5.1,5.1,0,0,1-4.5-2.3,5.946,5.946,0,0,1,.082-6.149,5.515,5.515,0,0,1,4.767-2.776c.064,0,.127,0,.191,0,1.115.005,4.132.305,8.346,2.956l.165.091.163-.042a12.184,12.184,0,0,0,8.226-9.065,12.1,12.1,0,0,0-2.941-8.422c-2.124-2.264-5.247-3.413-9.279-3.413-.492,0-1,.016-1.521.051-9.889.684-15.922,6.289-17.445,16.212a20.973,20.973,0,0,0-.2,3.277,2.675,2.675,0,0,1-2.44,2.845,2.167,2.167,0,0,1-1.1-.227c-1.828-.926-2.153-3.433-2.157-3.459C540.642,126.851,538.691,105.273,564.218,103.275Zm.178,28.374a6.068,6.068,0,0,0-3.744-1.389,1.4,1.4,0,0,0-1.451.8,1.414,1.414,0,0,0,.02,1.387,1.589,1.589,0,0,0,1.436.594A5.894,5.894,0,0,0,564.4,131.649Z" transform="translate(-540.608 -103.253)" fill="#fff"/>
    </g>
  </g>
</svg>
