<svg id="Group_1670" data-name="Group 1670" xmlns="http://www.w3.org/2000/svg" width="54.417" height="54.461" viewBox="0 0 54.417 54.461">
  <g id="Group_1669" data-name="Group 1669" transform="translate(0 0)" opacity="0.559">
    <path id="Path_1921" data-name="Path 1921" d="M0-72.866a27.27,27.27,0,0,1,27.958-27.142A27.312,27.312,0,0,1,54.416-72.664,27.2,27.2,0,0,1,40.725-49.152a27.208,27.208,0,0,1-27.208-.1A27.208,27.208,0,0,1,0-72.866Zm40.2.478v0a7.086,7.086,0,0,0-1.235-1.324q-8.162-4.843-16.38-9.61c-1.365-.8-2.453-.238-2.453,1.324q-.083,9.654,0,19.307c0,1.573,1.088,2.177,2.449,1.377Q30.866-66.1,39.081-71c.4-.257.642-.812,1.127-1.388Z" transform="translate(0 100.017)"/>
  </g>
  <path id="Path_1922" data-name="Path 1922" d="M59.985-56.3v0a7.086,7.086,0,0,0-1.235-1.324q-8.162-4.843-16.38-9.61c-1.365-.8-2.453-.238-2.453,1.324q-.083,9.654,0,19.307c0,1.573,1.088,2.177,2.449,1.377q8.283-4.789,16.5-9.687c.4-.257.642-.812,1.127-1.388Z" transform="translate(-19.783 83.933)" fill="#fff"/>
</svg>
