<svg xmlns="http://www.w3.org/2000/svg" width="38" height="38" viewBox="0 0 38 38">
  <g id="Grupo_77230" data-name="Grupo 77230" transform="translate(-214 -1379)">
    <circle id="Elipse_24" data-name="Elipse 24" cx="19" cy="19" r="19" transform="translate(214 1379)" fill="#fff"/>
    <path id="Trazado_1377" data-name="Trazado 1377" d="M11.385,2.024a34.91,34.91,0,0,1,4.554.127,5.867,5.867,0,0,1,2.151.38,4.443,4.443,0,0,1,2.151,2.151,5.867,5.867,0,0,1,.38,2.151c0,1.139.127,1.518.127,4.554a34.91,34.91,0,0,1-.127,4.554,5.867,5.867,0,0,1-.38,2.151,4.443,4.443,0,0,1-2.151,2.151,5.867,5.867,0,0,1-2.151.38c-1.139,0-1.518.127-4.554.127a34.91,34.91,0,0,1-4.554-.127,5.867,5.867,0,0,1-2.151-.38A4.443,4.443,0,0,1,2.53,18.09a5.867,5.867,0,0,1-.38-2.151c0-1.139-.127-1.518-.127-4.554a34.91,34.91,0,0,1,.127-4.554,5.867,5.867,0,0,1,.38-2.151,4.543,4.543,0,0,1,.886-1.265A2.139,2.139,0,0,1,4.681,2.53a5.867,5.867,0,0,1,2.151-.38,34.91,34.91,0,0,1,4.554-.127m0-2.024A37.378,37.378,0,0,0,6.7.127,7.81,7.81,0,0,0,3.922.633,4.952,4.952,0,0,0,1.9,1.9,4.952,4.952,0,0,0,.633,3.922,5.764,5.764,0,0,0,.127,6.7,37.378,37.378,0,0,0,0,11.385a37.378,37.378,0,0,0,.127,4.681,7.81,7.81,0,0,0,.506,2.783A4.952,4.952,0,0,0,1.9,20.873a4.952,4.952,0,0,0,2.024,1.265,7.81,7.81,0,0,0,2.783.506,37.379,37.379,0,0,0,4.681.127,37.378,37.378,0,0,0,4.681-.127,7.81,7.81,0,0,0,2.783-.506,5.307,5.307,0,0,0,3.289-3.289,7.81,7.81,0,0,0,.506-2.783c0-1.265.127-1.645.127-4.681A37.379,37.379,0,0,0,22.644,6.7a7.81,7.81,0,0,0-.506-2.783A4.952,4.952,0,0,0,20.873,1.9,4.952,4.952,0,0,0,18.849.633,7.81,7.81,0,0,0,16.066.127,37.378,37.378,0,0,0,11.385,0m0,5.566a5.725,5.725,0,0,0-5.819,5.819,5.819,5.819,0,1,0,5.819-5.819m0,9.614a3.727,3.727,0,0,1-3.8-3.8,3.727,3.727,0,0,1,3.8-3.8,3.727,3.727,0,0,1,3.8,3.8,3.727,3.727,0,0,1-3.8,3.8M17.458,3.922a1.392,1.392,0,1,0,1.392,1.392,1.4,1.4,0,0,0-1.392-1.392" transform="translate(221.409 1386.738)" fill="#ee324d" fill-rule="evenodd"/>
  </g>
</svg>
