<svg id="Group_1483" data-name="Group 1483" xmlns="http://www.w3.org/2000/svg" width="17.803" height="17.003" viewBox="0 0 17.803 17.003">
  <path id="Path_5" data-name="Path 5" d="M594.824,96.574a.945.945,0,0,1-.7-.29c-4.278-4.775-5.132-10.374-2.177-14.267a6.493,6.493,0,0,1,4.061-2.4,3.8,3.8,0,0,1,2.641.509,3.936,3.936,0,0,1,1.556,2.266,6.254,6.254,0,0,1,3.105-1.4,4.033,4.033,0,0,1,2.8.724c1.972,1.391,2.448,4.037,1.24,6.907a12.919,12.919,0,0,1-11.262,7.48,1.042,1.042,0,0,1-.419-.065.72.72,0,0,1-.334.4A1.014,1.014,0,0,1,594.824,96.574Zm1.833-15.6A2.581,2.581,0,0,0,596.3,81a4.789,4.789,0,0,0-2.879,1.753c-2.522,3.319-1.8,8.141,1.813,12.376a.879.879,0,0,1,.746-.428,11.2,11.2,0,0,0,9.728-6.531c.975-2.319.692-4.388-.739-5.4a1.99,1.99,0,0,0-1.427-.392,5.713,5.713,0,0,0-3.023,1.85,16.764,16.764,0,0,1-.427,4.794l-.005.022a4.858,4.858,0,0,1-1.578,2.982,1.542,1.542,0,0,1-1.547.208,1.767,1.767,0,0,1-1.056-1.3c-.42-1.966,1.746-5.852,2.837-7.115a3.512,3.512,0,0,0-1.182-2.6A1.622,1.622,0,0,0,596.657,80.974Zm2.061,5.921c-.061.118-.122.24-.182.364a6.6,6.6,0,0,0-.922,3.436l.009.041a5.405,5.405,0,0,0,.767-1.964l.005-.023A14.6,14.6,0,0,0,598.718,86.9Z" transform="translate(-590.203 -79.571)" fill="#0aa8aa"/>
</svg>
