<svg xmlns="http://www.w3.org/2000/svg" width="73" height="72" viewBox="0 0 73 72">
  <g id="Group_4151" data-name="Group 4151" transform="translate(-644 -1484)">
    <g id="Ellipse_1394" data-name="Ellipse 1394" transform="translate(644 1484)" fill="none" stroke="#0aa8aa" stroke-width="3">
      <ellipse cx="36.5" cy="36" rx="36.5" ry="36" stroke="none"/>
      <ellipse cx="36.5" cy="36" rx="35" ry="34.5" fill="none"/>
    </g>
    <g id="Group_1674" data-name="Group 1674" transform="translate(662.699 1496.365)">
      <path id="Path_1923" data-name="Path 1923" d="M16.49-71.524h8.1A1.23,1.23,0,0,1,25.821-70.3v.074a12.585,12.585,0,0,0,5.554-2.826A9.111,9.111,0,0,0,33.8-79.831c0-1.376,1.5-2.818,3.154-3.023,1.057-.131,3.645.082,4.833,4.809a19.217,19.217,0,0,1,.2,6.029h4.866A4.411,4.411,0,0,1,50.552-70.1c1.065,1.5,1.917,4.456-.041,10.011l-2.2,7.946a5.119,5.119,0,0,1-5.038,4.153H37.331c-2.2,0-8.012-.36-11.51-1.8v.418a1.23,1.23,0,0,1-1.229,1.229h-8.1a1.23,1.23,0,0,1-1.229-1.229V-70.3a1.222,1.222,0,0,1,.36-.868,1.223,1.223,0,0,1,.868-.36Zm9.331,19c1.8,1.212,7.308,2.081,11.51,2.081H43.27a2.665,2.665,0,0,0,2.63-2.187c.008-.041.016-.074.025-.115l2.228-8.036c.008-.025.016-.057.025-.082,1.778-5.013.852-7.135.369-7.815a1.963,1.963,0,0,0-1.688-.877H40.591a1.209,1.209,0,0,1-.934-.434,1.23,1.23,0,0,1-.279-1,20.047,20.047,0,0,0,.025-6.455c-.459-1.827-1.2-2.941-1.991-2.974a1.445,1.445,0,0,0-1.155.655,11.493,11.493,0,0,1-3.146,8.454,15.586,15.586,0,0,1-7.291,3.621ZM38.75-86.7v-3.473a1.23,1.23,0,0,0-1.229-1.229,1.228,1.228,0,0,0-1.229,1.229V-86.7a1.228,1.228,0,0,0,1.229,1.229A1.23,1.23,0,0,0,38.75-86.7Zm-6.506,4.227a1.227,1.227,0,0,0-.42-1.685l-2.978-1.792h0a1.238,1.238,0,0,0-.938-.152,1.229,1.229,0,0,0-.764.561,1.226,1.226,0,0,0-.137.938,1.221,1.221,0,0,0,.571.758l2.976,1.79a1.224,1.224,0,0,0,.93.141,1.228,1.228,0,0,0,.758-.559Zm15.638-3.06a1.229,1.229,0,0,0-1.685-.418l-2.976,1.79a1.228,1.228,0,0,0-.571.758,1.223,1.223,0,0,0,.137.938,1.221,1.221,0,0,0,.764.561,1.227,1.227,0,0,0,.938-.152l2.978-1.792v0a1.231,1.231,0,0,0,.416-1.688Z" transform="translate(-15.262 91.407)" fill="#0aa8aa"/>
    </g>
  </g>
</svg>
