<svg xmlns="http://www.w3.org/2000/svg" width="96.634" height="96.634" viewBox="0 0 96.634 96.634"><defs><style>.a{fill:#EE324D;}</style></defs><path class="a" d="M76.043,49.078c-.088.338.152.489.176.788.44.264.626-.313.612-.739-.259-.01-.524-.034-.788-.049Z" transform="translate(4.89 -1.923)"/><path class="a" d="M68.738,51.824c.113.377.514.45,1.165.064C69.717,51.423,69.364,51.487,68.738,51.824Z" transform="translate(3.048 -1.297)"/><path class="a" d="M86.441,54.094c-1.365-.289-2.731-.577-4.111-.866.024-.724-.44-.45-.778-.152-.7-.039-1.365-.073-2.065-.113-.1-.538-.45-.69-.352-1.067a.867.867,0,0,0-.6.24c-.113-.842-.715-.152-1.077-.186-.225-.064-.45-.1-.675-.176a1.793,1.793,0,0,0-.2-.25,4.418,4.418,0,0,0-.666-.3c-.313.113-.6.24-.915.328-.514-1.052-1.179.289-1.865.162-.161-.137-.049-.426-.088-.651-.714-.088-1.316.577-1.977.274-.563.426-1.253.176-1.967.024-.073.264-.137.5-.215.763-.127-.015-.264-.015-.387-.024-.073-.377-.225-.465-.186-.651-.225-.015-.45-.024-.7-.039-.3-.176-.715-.651-.979-.328-.2.553-.778-.064-.979.587-.088,0-1.7-.117-1.762-.117-.225-.426-1.911-.524-2.249-.558l-3.527-.558-3.526.113c-.176-.064-1.808-.064-1.984-.113-.088.049-1.832.059-1.9.113-.812-.127-1.183-.25-2-.4-.186-.015-.387-.024-.587-.039-.264.039-.563-.137-.778.088-.225.064-.475.137-.7.225a.956.956,0,0,0-.563-.162c-.215.127-.411.25-.6.338-.362-.049-.714-.113-1.077-.161-.489-.073-.979-.162-1.468-.215-.049.137-.064.24-.113.362a.615.615,0,0,0-1.091.073,4.978,4.978,0,0,0-.5.1l-1.365-.073c-.587-.039-1.165-.064-1.752-.1-.465-.137-.842.088-1.493.3-.161.049-.328.064-.5.113-.2-.015-.387-.024-.587-.039-.328.064-.666.127-.989.215a1.231,1.231,0,0,0-.891.186c-.377.064-.724.127-1.091.215-.362-.024-.715-.039-1.091-.064-.264.015-.675-.152-.778.088-.225.073-.475.137-.7.2a3.585,3.585,0,0,0-.4.25c-.137.338-.289.651-.426.989a2.463,2.463,0,0,0-.113.4c-.049.45-.088.925-.152,1.39-.1,0-.186-.015-.289-.015-.362-.176-.7-.387-1.067-.563a4.486,4.486,0,0,1-.225.5c-.2-.225-.538-.4-.778-.152a.993.993,0,0,0,.352,1.037c-.127.152-.274.338-.4.489.049.489-.2,1.091.24,1.429-.1.475-.215.925-.328,1.4-.626.313-.411,1.38.039,2.065-.587.612-.073,1.067.137,1.664-.015.264-.015.514-.024.778.1,0,.2.015.313.015-.015.24-.015.514-.024.778.137.225.387.587.563.915a1.781,1.781,0,0,1-.015.264c.024.489.9.073.954.94.073-.24.137-.5.215-.739.45.612.514,1.155.842,1.439a1.514,1.514,0,0,0,.44-.724c.162.015.073-.352.024-.641A6.513,6.513,0,0,1,30.4,65.1c.215.387.2.6.553.538.039-.666.763-.362,1.116-.852.387.024,1.067.538,1.1-.45a1.438,1.438,0,0,0,1.693-.176c.264.064.426.313.666.3a7.182,7.182,0,0,0,.891-.225c.778.073,1.1-.475,1.693-.411.289-.064.6-.127.891-.186.264-.088.538-.162.8-.225.289.152.563.162.989-.215.25.015.514.024.778.039s.514.024.778.039a.792.792,0,0,0,.989-.186c.137.015.264.015.411.024a.863.863,0,0,0,1.067-.073c.475-.049.925-.113,1.4-.186.24.44.954.352,1.365.073.225-.015.45-.049.675-.073,1.067.538,1.992-.264,3.059-.1.362-.25.925.049,1.292-.113l3.378-.137,2.131.137,3.334-.079,2.442-.058a8.878,8.878,0,0,0,3.269-.064c1.067,0,2.031.612,3.347-.088.1,0,.2.015.289.015.24.152.465.289.69.44.2.015.387.024.587.039.024.489.274.362.587.039.514-.024,1.052-.049,1.551-.049.2.015.411.024.587.039.915.073,1.84.176,2.755.289.553-.024,1.1-.049,1.664-.039a2.313,2.313,0,0,1,.088.377c.2-.015.387-.064.6-.1.186.015.387.024.587.039a.5.5,0,0,0,.489.3c.088-.264.2-.5.313-.763.225.015.475.024.7.039.328.073.651.113.979.186.064,0,.127.015.186.015a4.463,4.463,0,0,1,.69.176c.377-.039.715-.064,1.091-.073.387.049.842.049.788-.465-.1-.274-.186-.514-.264-.788.475-.137.362-1.077.049-1.414-.328.039-.651.049-.989.073-.465-.1-.852-.426-1.38-.338-.127.176-.25.338-.4.514-.328-.176-.514-.641-.866-.69-.45-.073-.915-.162-1.365-.215-.475-.514-.979-.1-1.478-.073-.113-.137-.264-.289-.377-.426-.264-.015-.529-.024-.8-.039-.064,0-.127-.015-.186-.015-.225.039-.475.073-.7.1a3.9,3.9,0,0,1,.24-1.14v-.137c.215-.264.475.049.587-.338.2-.5-.362-.666-.039-1.551.8.45,1.478-.113,2.256.127a2.547,2.547,0,0,0,.3-.362c.015-.264.015-.514.024-.778.137.088.426.264.489-.113.186.064.328.1.489.162.137.3.1.675.377.925.69.387.4-.538.715-1,.015.426.6.328.8.039.064,0,.127.015.186.015.2.152.377.289.577.44.161.015.328.015.489.024.724-.313.127,1.1,1.179.3.064-.24.137-.5.215-.763.1,0,.2.015.313.015.264-.088.514-.215.788-.338.538-.1,1.214.387,1.59-.426-.553-.162-1.1-.328-1.664-.489-.176-.034-.323-.044-.45-.059ZM33.91,59.884a6.475,6.475,0,0,0-.876.064A1.537,1.537,0,0,1,33.91,59.884Zm1.992.323a.4.4,0,0,1-.3.049A2.23,2.23,0,0,0,35.9,60.207Zm.387-.426c.039-.152.186-.127.313-.127h-.015A.322.322,0,0,0,36.289,59.781Zm.529-.25V59.4a.816.816,0,0,0,.186.015A1.239,1.239,0,0,0,36.817,59.531Zm-2.98,3.709c.186.015.387.024.577.024C34.15,63.251,34,63.251,33.837,63.241Zm11.647-1.566c.264-.113.553-.2.812-.3C46.052,61.5,46.013,61.851,45.485,61.675Z" transform="translate(-7.75 -7.463)"/><path class="a" d="M87.422,47.767c.015.5,0,.94.024,1.292a6.16,6.16,0,0,0,.113.876c.1.45.225.651.338.641-.015-.612-.024-1.214-.039-1.83l-.015-.465c0-.152-.015-.3-.024-.45-.024-.3-.039-.612-.064-.915-.2-.4-.186.7-.333.852Z" transform="translate(7.771 -2.492)"/><path class="a" d="M74.124,22.651c-.225-.215-.5-.44-.827-.7-.161-.127-.338-.264-.538-.411-.049-.039-.1-.073-.152-.113a.593.593,0,0,0-.161-.1c-.113-.073-.225-.137-.338-.215-.225-.152-.475-.3-.739-.475s-.538-.352-.842-.514a7.828,7.828,0,0,0,1.292,1.1c.176.127.362.264.577.4s.426.313.651.489.489.352.754.538c.137.1.274.186.411.289s.274.215.411.313c-.064-.088-.137-.186-.215-.289a1.544,1.544,0,0,0-.284-.318Z" transform="translate(3.5 -9.243)"/><path class="a" d="M106.547,62.016a6.359,6.359,0,0,0-.352,1.5c-.015-.289-.039-.612-.049-.925-.015-.162-.015-.313-.024-.465,0-.073-.015-.152-.015-.225s-.015-.152-.024-.225c-.127.1-.25-.127-.387-.137-.064,0-.127.049-.186.225a6.3,6.3,0,0,0-.225.954c-.1-.225-.2-.465-.3-.715-.049-.127-.1-.25-.161-.387s-.113-.264-.161-.387c-.088-2.745-.651-1.781-1.052.127-.127-1.277-.25-1.351-.4-1s-.289,1.1-.465,1.527a3.964,3.964,0,0,1-.387-.127c-.039.426-.073.852-.1,1.267-.127-.039-.25-.088-.387-.137-.039.137-.088.3-.137.489s-.1.387-.161.587c-.137.411-.274.827-.4,1.165a.629.629,0,0,0-.127-.049c-.064.015-.127.25-.186.587s-.176.788-.264,1.238c-.176.9-.475,1.791-.7,1.855.064.3.113.6.176.9a14.925,14.925,0,0,1-.915,1.693c-.113.2-.25.377-.362.577a5.273,5.273,0,0,0-.377.715,8,8,0,0,0-.25,1.742c-.24.6.049.338.274.2-.073.338-.137.666-.225.989s-.186.666-.3,1.028c-.274.352-.411.514-.587.739a6,6,0,0,0-.651,1.165c.049.073.015.3-.113.6s-.328.675-.538,1.091c-.113.215-.225.426-.338.641s-.25.426-.362.626a10.249,10.249,0,0,0-.587,1.14c-.9,1.316-2.819,3.318-2.545,3.719-1.664,1.728-3.685,3.758-4.835,4.948a10.58,10.58,0,0,1-1.14.812c-.176.113-.352.24-.529.362s-.362.264-.563.411c-.514.377-.989.754-1.478,1.116-.5.338-.989.675-1.478,1.013-.69.4-1.277.739-1.806,1.067-.538.3-1,.577-1.454.842-.113.064-.225.137-.338.2s-.225.113-.338.176c-.225.113-.45.225-.69.352s-.475.24-.724.352-.529.215-.812.328c-.553.24-1.116.489-1.7.69-.289.113-.577.215-.866.328-.137.049-.289.1-.426.161s-.289.088-.426.137c-.529.176-1.067.352-1.59.514-.538.137-1.077.289-1.615.426l-.44.073c-.152.024-.3.039-.45.064-.3.049-.612.1-.925.161-.651.152-1.365.264-2.232.475-.5.073-1.037.088-1.581.137-.274.024-.538.039-.812.064l-.2.015h-.215l-.411.015c-.553.015-1.091.024-1.615.024s-1.067-.039-1.615-.049c-.161-.015-.313-.024-.465-.039s-.313-.039-.465-.049c-.313-.039-.626-.064-.964-.073-.666-.024-1.38-.088-2.217-.1-.587-.064-1.091-.176-1.679-.274-.2-.064-.489-.137-.842-.215-.176-.039-.362-.088-.563-.137s-.4-.1-.612-.152-.411-.088-.626-.137a4.837,4.837,0,0,1-.612-.137,10.684,10.684,0,0,0-1.077-.215c-.24-.064-.475-.127-.715-.186s-.465-.152-.69-.225c-.465-.152-.925-.289-1.38-.45-.9-.352-1.816-.651-2.721-1.067a6.2,6.2,0,0,0-.915-.538c-.387-.225-.842-.475-1.326-.715s-.979-.529-1.468-.778c-.24-.127-.475-.25-.7-.362s-.426-.24-.626-.338c-.4-.25-.8-.5-1.2-.754s-.778-.538-1.165-.8c-.113-.088-.215-.176-.328-.264s-.215-.176-.328-.264c-.215-.176-.411-.352-.626-.529-.411-.352-.842-.675-1.228-1.028s-.8-.69-1.2-1.028-.763-.7-1.155-1.052a33.647,33.647,0,0,1-4.272-4.723,21.093,21.093,0,0,1-1.9-2.721c-.152-.25-.313-.489-.45-.724s-.274-.465-.4-.675a7.836,7.836,0,0,0-.715-1.028,42.573,42.573,0,0,1-2.481-5.589c-.162-.489-.328-.964-.475-1.429-.073-.24-.162-.465-.225-.69s-.137-.45-.2-.675c-.137-.45-.274-.876-.4-1.292s-.225-.812-.338-1.179c-.049-.225-.1-.475-.162-.724s-.1-.514-.137-.763a8.278,8.278,0,0,1-.152-1.292c-.088-.514-.176-1.013-.25-1.527-.039-.25-.088-.5-.113-.763s-.049-.514-.073-.763-.049-.514-.073-.763-.049-.514-.064-.763c-.015-.514-.039-1.013-.049-1.527a38.08,38.08,0,0,1,.387-6.1c.039-.25.064-.5.1-.763s.088-.5.137-.754c.1-.5.186-1.013.289-1.517.127-.5.24-1,.362-1.5l.088-.377c.039-.127.073-.25.113-.377.073-.25.152-.5.215-.754s.152-.5.215-.754a3.794,3.794,0,0,1,.127-.377l.127-.377c.176-.5.338-1,.514-1.5s.387-1,.587-1.5c.049-.127.1-.25.152-.377l.162-.377c.113-.25.215-.5.328-.754a4.169,4.169,0,0,1,.127-.44c.137-.313.328-.675.5-1.013a3.543,3.543,0,0,1,.489-.778c.162-.313.352-.612.538-.925s.377-.626.577-.954c.088-.161.2-.328.3-.475s.215-.313.328-.475c.215-.328.426-.651.651-.979s.475-.641.714-.964.465-.651.724-.964c.514-.626,1.013-1.277,1.566-1.894.274-.313.538-.612.8-.915s.563-.587.842-.876c.538-.6,1.14-1.126,1.693-1.679.137-.137.274-.274.426-.4s.289-.25.426-.377c.289-.25.563-.5.842-.754.137-.127.274-.24.411-.352l.411-.338c.274-.225.538-.45.788-.666a41.536,41.536,0,0,1,5.638-3.46c.5-.25,1.013-.5,1.542-.763.529-.24,1.077-.489,1.63-.754.073-.039.137-.064.215-.1s.137-.064.215-.088c.137-.064.289-.127.426-.186.289-.127.577-.25.876-.377.152-.064.3-.137.45-.2a4.355,4.355,0,0,1,.465-.176c.313-.127.626-.25.94-.387.2-.064.4-.137.6-.186s.387-.1.553-.152c.5-.1.979-.2,1.439-.289s.925-.137,1.39-.2A.926.926,0,0,1,51.6,18.3c.176-.039.338-.073.5-.113.2-.039.4-.064.6-.1.4-.073.8-.137,1.228-.215a.336.336,0,0,0,.264.088,2.029,2.029,0,0,0,.538-.039c.44-.064,1.013-.2,1.664-.352a46.656,46.656,0,0,1,6.514-.176c.426.039.852.073,1.267.1.215.015.411.039.612.049.1.015.2.015.3.039s.2.024.289.039l1.429.2a6.078,6.078,0,0,1,.715.127l.7.137c.954.162,1.865.411,2.8.641.465.127.915.274,1.38.4l.69.2c.225.073.45.162.675.24l1.351.475,1.326.538a42.311,42.311,0,0,1,6.176,3.093,2.292,2.292,0,0,1,.215.362c.362.225.7.44,1.052.651.176.1.338.225.514.338s.338.24.529.352c.152.113.313.225.475.338s.328.24.489.362c.328.264.651.529.989.788a2.934,2.934,0,0,0,.338.362c.113.127.225.24.352.362.24.24.489.45.754.675.186.073.387.161.587.264s.411.215.626.328c.176.162.338.328.514.5s.362.338.529.514c.338.362.675.715.989,1.052.24.25.44.514.666.778l.651.788c.225.25.426.538.626.8l.612.812c.073.1.161.2.24.3l.225.313c.264.387.529.788.8,1.189a1.554,1.554,0,0,1,.186.313c.064.1.127.215.186.313.127.2.24.411.362.612a40.458,40.458,0,0,1,2.241,3.92c.049.088.088.176.137.274s.088.186.127.274c.088.186.161.377.25.553.161.362.328.7.475.989.264.587.475.964.563.827-.015-.411-.039-.842-.039-1.179.8,1.83,1.077,1.228.739-.1-.3-.641-.587-1.277-.891-1.918-.328-.626-.651-1.253-.979-1.879-.24-.44-.465-.866-.675-1.292l-.328-.626c-.113-.2-.24-.4-.352-.612-.24-.411-.475-.827-.754-1.253s-.587-.852-.94-1.316l-.3-.3a3.532,3.532,0,0,0-.313-.289c-.215-.2-.426-.4-.666-.626-.387-.577-.69-1.037-1-1.517-.161-.24-.313-.475-.5-.724a8.629,8.629,0,0,0-.666-.778c-.161-.176-.328-.362-.489-.538s-.328-.362-.5-.538c-.352-.352-.7-.7-1.052-1.037l-.264-.264-.274-.25c-.186-.162-.362-.328-.553-.5-.362-.328-.724-.666-1.116-.964-.362-.362-.754-.715-1.165-1.067-.411-.328-.852-.626-1.3-.925s-.9-.577-1.365-.852-.915-.563-1.39-.812c-.411-.313-.891-.69-1.316-.989-.514-.264-1.028-.538-1.542-.8-.25-.137-.514-.25-.778-.377l-.788-.362c-.24-.113-.475-.225-.724-.328-.925-.338-1.928-.739-2.868-1.028.064-.088.127-.186,1.189-.2L76,17.673a13.1,13.1,0,0,1,1.38.475c.215.088.426.162.6.215a1.5,1.5,0,0,0,.475.113c.45.064.113-.176-.152-.411-.127-.127-.25-.225-.225-.3s.161-.113.553-.064c.4.215.8.411,1.189.6.2.1.387.186.577.289l.563.3c.377.2.754.387,1.116.577.186.088.362.2.553.3l.538.3c.362.2.724.387,1.077.6s.7.44,1.052.651a24.9,24.9,0,0,1,2.08,1.454c.44.215.842.475,1.179.666.113-.088.215-.162.328-.24.24.215.587.538.94.812a2.749,2.749,0,0,0,.842.577c.3.289.577.538.842.778s.5.5.754.763a3.576,3.576,0,0,1,.274.6,4.764,4.764,0,0,0,.626.94c.5.587.842.954,1.077,1.189a1.55,1.55,0,0,0,.514.387,1.881,1.881,0,0,1,.94.45c-.039.039.049.2.215.426.039.049.088.113.137.176s.1.137.152.2c.1.137.225.289.352.45.25.313.514.641.763.915.127.137.24.274.338.4a2.949,2.949,0,0,0,.274.3c.161.225.328.45.475.69.113.2.24.387.338.577s.2.387.3.577c.2.387.4.763.612,1.165.1.152.186.313.289.475l.274.489c.186.328.362.651.553.964.113.176.2.338.274.475s.137.264.2.377a3.1,3.1,0,0,1,.225.529,2.132,2.132,0,0,1,.113.577,2.89,2.89,0,0,0,.073.3,3.578,3.578,0,0,0,.186.5c.088.215.225.475.4.827.088.176.186.362.3.577s.225.465.362.724c.225.25.465.489.715.739.073.215.176.44.25.651s.152.44.225.666c.113.289.215.563.328.852.049.137.113.274.161.411l.152.426c.186.563.377,1.126.577,1.718.161.587.3,1.228.44,1.879.039.162.073.328.1.489s.049.328.073.489c.049.328.113.651.161.979.024.162.064.313.088.475s.064.313.073.465c.049.3.1.6.152.876s.113.553.176.8.137.475.2.69a48.79,48.79,0,0,0-1.116-7.581c-.152-.553-.328-1.189-.475-1.728A46.594,46.594,0,0,0,96.388,28.9c.176-.073-.113-.5-.6-1.037a3.926,3.926,0,0,0-.4-.411c-.152-.137-.3-.289-.45-.426-.313-.289-.641-.577-.94-.827a47.241,47.241,0,0,0-7.429-6.127c-.264-.5-1.59-1.429-1.126-1.351-.45-.274-.876-.5-1.3-.714a13.247,13.247,0,0,0-1.228-.577A1.676,1.676,0,0,0,82.3,16.9c-.161-.1-.338-.2-.538-.3a6.486,6.486,0,0,0-.641-.3c-.915-.377-1.977-.788-2.794-1.1l-.724-.313-.362-.152c-.127-.049-.24-.1-.362-.152-.5-.186-.989-.362-1.493-.553a8.4,8.4,0,0,0-.852-.4c-.5-.176-1-.338-1.5-.514l-.377-.127c-.127-.039-.25-.073-.377-.113l-.763-.215c-.362-.064-.724-.137-1.077-.2s-.714-.1-1.067-.152c-.715-.088-1.414-.215-2.153-.264-.3-.1-.6-.186-.925-.264-.161-.039-.328-.073-.489-.1l-.25-.039c-.088-.015-.176-.015-.25-.024-.69-.064-1.414-.088-2.168-.1-.754.024-1.527.064-2.32.1-.2,0-.4.024-.6.039s-.4.024-.6.039c-.4.024-.812.039-1.214.039a1.609,1.609,0,0,1-.362-.049c-.064-.024-.073-.049-.064-.073.015-.064.1-.127.024-.176-.426.024-.842.064-1.253.088-.2.024-.4.039-.6.049s-.4.039-.6.073c-.788.127-1.551.25-2.3.387-.754.162-1.493.328-2.241.465-.739.176-1.493.338-2.281.489-.641.225-1.316.45-2.016.675-.352.1-.7.24-1.067.362s-.724.25-1.1.377-.754.264-1.126.4-.763.289-1.155.426l-.289.113-.289.127c-.186.073-.387.162-.577.24-.387.161-.778.328-1.165.5-.24.264-.475.529-.714.788-.264.127-.538.274-.812.411-.137.073-.274.137-.411.215s-.264.152-.387.215c-.377,0-1.067.338-.915.152-.94.514-1.83,1.1-2.819,1.728-.612.377-1.351.8-2.055,1.238a12.572,12.572,0,0,0-1.752,1.39,11.278,11.278,0,0,1-1.679,1.615A8.9,8.9,0,0,0,26.8,25.69c-.274.274-.475.489-.675.7a7.635,7.635,0,0,0-.612.489,7.513,7.513,0,0,0-.675.651c-.45.475-.925,1.013-1.39,1.566-.44.553-.876,1.1-1.292,1.581a9.23,9.23,0,0,1-1.052,1.155c-.127.152-.352.426-.6.763s-.514.724-.754,1.091a6.765,6.765,0,0,0-.5.852c-.073.186-.049.25.152.073-.215.4-.426.788-.626,1.155-.1.186-.2.362-.3.553-.049.088-.1.176-.152.264s-.088.176-.137.264c-.176.352-.362.7-.538,1.052-.088.176-.176.338-.264.514l-.137.25a2.171,2.171,0,0,1-.127.264c-.162.352-.328.7-.489,1.052-.088.176-.162.362-.25.538-.039.088-.088.186-.127.274s-.073.186-.113.289l-.475,1.179c-.073.2-.161.411-.25.626s-.152.44-.225.666a5.446,5.446,0,0,1-.387,1.527c-.225.69-.489,1.5-.69,2.143-.1.338-.162.715-.25,1.091s-.162.763-.25,1.165-.162.812-.24,1.238-.152.852-.225,1.292c-.039.215-.073.44-.1.651s-.064.44-.088.666c-.064.44-.137.891-.2,1.326s-.1.891-.152,1.326c-.024.225-.049.44-.088.651s-.064.44-.073.651c.215,1.551.2,2.129-.137,2.32.1,1.1.162,1.718.2,2.29.015.289.049.553.064.852s.024.651.039,1.091c.186,1.292.489,3.509.612,4.649a1.054,1.054,0,0,1,.264.553c.039.152.073.313.113.5s.088.387.127.6c.073.426.152.876.24,1.326s.186.866.289,1.214c.024.274.064.587.113.891.024.152.039.313.064.45s.049.3.073.44c.264.842.387.9.5,1a.639.639,0,0,1,.2.274,3.369,3.369,0,0,1,.137.352c.049.152.127.338.2.577.152.362.3.724.45,1.091l.225.538.25.538a11.022,11.022,0,0,1,.641,1.341c.113.3.274.641.45,1.037s.377.876.6,1.429c.289.514.626,1.1.915,1.615.176.352.377.675.577,1.013l.6,1c.186.338.411.666.626.989l.651.979c.25.313.45.538.651.763l.891,1.165c.152.2.3.387.465.577l.949,1.126.24.274c.073.088.161.176.25.274l.989,1.077c.328.362.675.7,1.028,1.052s.7.69,1.052,1.028l1.091.989.553.489c.186.161.377.313.563.465.352.274.714.563,1.091.866.186.152.387.289.577.44s.4.289.6.426c.264.186.538.377.8.577s.553.377.827.553.538.352.8.5a7.519,7.519,0,0,0,.739.4c.489.264.989.529,1.493.8.127.064.25.137.377.2s.264.127.387.176c.264.127.514.24.763.352.186.113.377.225.577.338.1.049.2.113.3.161s.215.1.313.152c.411.2.842.4,1.253.577.24.088.465.176.7.264s.475.152.7.225l1.351.44c.411.161.827.3,1.228.44s.812.289,1.214.426.812.25,1.228.377c.2.064.411.127.626.186.1.024.215.064.313.088s.215.049.313.073l1.718.426c.137.039.289.073.426.1l.44.088.866.176.866.161c.289.049.577.088.876.137.587.088,1.165.161,1.752.24.225-.049.338-.088.563-.137.352.073.778.152,1.253.215.24.024.475.064.724.073s.5.024.754.024c.5.015.989.015,1.414-.015a4.072,4.072,0,0,0,.587-.064c.176-.024.338-.064.465-.088.788-.039,1.581-.049,2.369-.152.538-.039,1.077-.073,1.615-.113s1.077-.127,1.615-.186c.274-.039.538-.064.812-.1s.538-.088.812-.137c.538-.1,1.091-.186,1.654-.289a49.262,49.262,0,0,0,8.08-2.369,31.643,31.643,0,0,0,6.328-3.23c.338-.215.675-.4,1-.612s.651-.44.979-.666c.842-.514,1.542-1.028,2.344-1.59.161-.127.313-.225.475-.352l.45-.377.915-.754c.313-.25.6-.514.891-.778l.876-.8a25.282,25.282,0,0,0,2.946-3.02c.152-.161.3-.328.44-.489s.274-.328.426-.489c.274-.328.553-.666.827-.989s.538-.666.788-1.013.514-.69.778-1.052c.137-.161.264-.352.387-.529s.25-.352.377-.529c.25-.352.5-.69.739-1.037s.465-.715.7-1.067c.113-.176.24-.362.352-.538.064-.088.113-.186.176-.274s.113-.186.161-.289c.313-.553.724-1.228,1.077-1.84a9.835,9.835,0,0,0,.666-1.429c.24-.489.45-1,.666-1.527.113-.264.215-.529.328-.778.049-.127.1-.25.161-.387s.088-.264.137-.387c.186-.563.4-1.214.577-1.791.049-.651.127-1.39.161-2.031a2.392,2.392,0,0,0-.024-.563c-.152-.313-.338-.538-.489-.852.127-.45.24-.812.362-1.267.25-.788.465-1.581.7-2.354.186-.788.387-1.581.563-2.393-.039-.313-.088-.641-.127-1.037.064-.225.113-.489.176-.778.024-.137.064-.289.088-.45s.039-.313.064-.475a12.178,12.178,0,0,0,.088-1.84c-.284-.054-.372-.083-.484.117Zm-15,28.3A34.227,34.227,0,0,0,93.9,87.7,20.392,20.392,0,0,1,91.547,90.317Zm-9.881,7.771c-.176.1-.352.186-.514.274a1.745,1.745,0,0,0-.225.127c.24-.152.475-.3.7-.45-.024.02-.015.049.039.049Zm1.713-1.165a1.687,1.687,0,0,1-.137.113,1.841,1.841,0,0,1-.176.113c-.127.073-.274.161-.426.24a2.667,2.667,0,0,0-.274.161.172.172,0,0,1,.039-.024,6.766,6.766,0,0,0,.94-.587l.176-.137c-.029.02-.078.069-.142.122ZM84.8,95.7c.289-.225.612-.489,1.052-.778-.289.2-.563.411-.852.626A1.029,1.029,0,0,1,84.8,95.7Zm5.608-6.641a1.04,1.04,0,0,1,.127-.127Zm-.059.078-.015.015S90.348,89.142,90.348,89.142Zm-.514.489-1.028.964c.4-.377.715-.675.989-.925.113-.1.215-.2.313-.3C90.02,89.455,89.922,89.544,89.834,89.632ZM43.416,98.837c.113.039.225.073.362.127s.274.1.45.161c.338.127.754.289,1.3.538-.587-.2-1.189-.4-1.791-.626-.5-.2-1.013-.4-1.5-.6.489.191.788.264,1.179.4Z" transform="translate(-11.217 -11.439)"/><path class="a" d="M47.767,12.674c.5-.015.94,0,1.292-.024a6.16,6.16,0,0,0,.876-.113c.45-.1.651-.225.641-.338-.612.015-1.214.024-1.83.039l-.465.015c-.152,0-.3.015-.45.024-.3.024-.612.039-.915.064-.4.2.7.186.852.333Z" transform="translate(-2.492 -11.247)"/><path class="a" d="M22.651,26.7c-.215.225-.44.5-.7.827-.127.162-.264.338-.411.538-.039.049-.073.1-.113.152a.593.593,0,0,0-.1.162c-.073.113-.137.225-.215.338-.152.225-.3.475-.475.739s-.352.538-.514.842a7.828,7.828,0,0,0,1.1-1.292c.127-.176.264-.362.4-.577s.313-.426.489-.651.352-.489.538-.754c.1-.137.186-.274.289-.411s.215-.274.313-.411c-.088.064-.186.137-.289.215a1.544,1.544,0,0,0-.318.284Z" transform="translate(-9.243 -7.706)"/><path class="a" d="M62.016,12.568a6.359,6.359,0,0,0,1.5.352c-.289.015-.612.039-.925.049-.162.015-.313.015-.465.024-.073,0-.152.015-.225.015s-.152.015-.225.024c.1.127-.127.25-.137.387,0,.064.049.127.225.186a6.3,6.3,0,0,0,.954.225c-.225.1-.465.2-.715.3-.127.049-.25.1-.387.162s-.264.113-.387.162c-2.745.088-1.781.651.127,1.052-1.277.127-1.351.25-1,.4s1.1.289,1.527.465a3.965,3.965,0,0,1-.127.387c.426.039.852.073,1.267.1-.039.127-.088.25-.137.387.137.039.3.088.489.137s.387.1.587.162c.411.137.827.274,1.165.4a.629.629,0,0,0-.049.127c.015.064.25.127.587.186s.788.176,1.238.264c.9.176,1.791.475,1.855.7.3-.064.6-.113.9-.176a14.924,14.924,0,0,1,1.693.915c.2.113.377.25.577.362a5.273,5.273,0,0,0,.715.377,8,8,0,0,0,1.742.25c.6.24.338-.049.2-.274.338.073.666.137.989.225s.666.186,1.028.3c.352.274.514.411.739.587a6,6,0,0,0,1.165.651c.073-.049.3-.015.6.113s.675.328,1.091.538l.641.338c.215.127.426.25.626.362a10.248,10.248,0,0,0,1.14.587c1.316.9,3.318,2.819,3.719,2.545,1.728,1.664,3.758,3.685,4.948,4.835a10.581,10.581,0,0,1,.812,1.14c.113.176.24.352.362.529s.264.362.411.563c.377.514.754.989,1.116,1.478.338.5.675.989,1.013,1.478.4.69.739,1.277,1.067,1.806.3.538.577,1,.842,1.454.064.113.137.225.2.338s.113.225.176.338c.113.225.225.45.352.69s.24.475.352.724.215.529.328.812c.24.553.489,1.116.69,1.7.113.289.215.577.328.866.049.137.1.289.161.426s.088.289.137.426c.176.529.352,1.067.514,1.59.137.538.289,1.077.426,1.615.024.152.049.289.073.44s.039.3.064.45c.049.3.1.612.161.925.152.651.264,1.365.475,2.232.073.5.088,1.037.137,1.581.024.274.039.538.064.812l.015.2v.215l.015.411c.015.553.024,1.091.024,1.615s-.039,1.067-.049,1.615c-.015.162-.024.313-.039.465s-.039.313-.049.465c-.039.313-.064.626-.073.964-.024.666-.088,1.38-.1,2.217-.064.587-.176,1.091-.274,1.679-.064.2-.137.489-.215.842-.039.176-.088.362-.137.563s-.1.4-.152.612-.088.411-.137.626a4.837,4.837,0,0,1-.137.612,10.684,10.684,0,0,0-.215,1.077c-.064.24-.127.475-.186.714s-.152.465-.225.69c-.152.465-.289.925-.45,1.38-.352.9-.651,1.816-1.067,2.721a6.2,6.2,0,0,0-.538.915c-.225.387-.475.842-.715,1.326s-.529.979-.778,1.468c-.127.24-.25.475-.362.7s-.24.426-.338.626c-.25.4-.5.8-.754,1.2s-.538.778-.8,1.165c-.088.113-.176.215-.264.328s-.176.215-.264.328c-.176.215-.352.411-.529.626-.352.411-.675.842-1.028,1.228s-.69.8-1.028,1.2-.7.763-1.052,1.155A33.647,33.647,0,0,1,84.914,92.4a21.093,21.093,0,0,1-2.721,1.9c-.25.152-.489.313-.724.45s-.465.274-.675.4a7.835,7.835,0,0,0-1.028.715,42.574,42.574,0,0,1-5.589,2.481c-.489.161-.964.328-1.429.475-.24.073-.465.161-.69.225s-.45.137-.675.2c-.45.137-.876.274-1.292.4s-.812.225-1.179.338c-.225.049-.475.1-.724.161s-.514.1-.763.137a8.278,8.278,0,0,1-1.292.152c-.514.088-1.013.176-1.527.25-.25.039-.5.088-.763.113l-.763.073-.763.073c-.25.024-.514.049-.763.064-.514.015-1.013.039-1.527.049a38.078,38.078,0,0,1-6.1-.387c-.25-.039-.5-.064-.763-.1s-.5-.088-.754-.137c-.5-.1-1.013-.186-1.517-.289-.5-.127-1-.24-1.5-.362l-.377-.088c-.127-.039-.25-.073-.377-.113-.25-.073-.5-.152-.754-.215s-.5-.152-.754-.215a3.8,3.8,0,0,1-.377-.127L46.37,98.9c-.5-.176-1-.338-1.5-.514s-1-.387-1.5-.587c-.127-.049-.25-.1-.377-.152l-.377-.162c-.25-.113-.5-.215-.754-.328a4.169,4.169,0,0,1-.44-.127c-.313-.137-.675-.328-1.013-.5a3.543,3.543,0,0,1-.778-.489c-.313-.161-.612-.352-.925-.538s-.626-.377-.954-.577c-.161-.088-.328-.2-.475-.3s-.313-.215-.475-.328c-.328-.215-.651-.426-.979-.651s-.641-.475-.964-.715-.651-.465-.964-.724C33.265,91.7,32.614,91.2,32,90.645c-.313-.274-.612-.538-.915-.8s-.587-.563-.876-.842c-.6-.538-1.126-1.14-1.679-1.693-.137-.137-.274-.274-.4-.426s-.25-.289-.377-.426c-.25-.289-.5-.563-.754-.842-.127-.137-.24-.274-.352-.411l-.338-.411c-.225-.274-.45-.538-.666-.788a41.536,41.536,0,0,1-3.46-5.638c-.25-.5-.5-1.013-.763-1.542-.24-.529-.489-1.077-.754-1.63-.039-.073-.064-.137-.1-.215s-.064-.137-.088-.215c-.064-.137-.127-.289-.186-.426-.127-.289-.25-.577-.377-.876-.064-.152-.137-.3-.2-.45a4.356,4.356,0,0,1-.176-.465c-.127-.313-.25-.626-.387-.94-.064-.2-.137-.4-.186-.6s-.1-.387-.152-.553c-.1-.5-.2-.979-.289-1.439s-.137-.925-.2-1.39a.926.926,0,0,1-.024-.113c-.039-.176-.073-.338-.113-.5-.039-.2-.064-.4-.1-.6-.073-.4-.137-.8-.215-1.228a.336.336,0,0,0,.088-.264,2.029,2.029,0,0,0-.039-.538c-.064-.44-.2-1.013-.352-1.664a46.656,46.656,0,0,1-.176-6.514c.039-.426.073-.852.1-1.267.015-.215.039-.411.049-.612.015-.1.015-.2.039-.3s.024-.2.039-.289l.2-1.429a6.078,6.078,0,0,1,.127-.714l.137-.7c.162-.954.411-1.865.641-2.8.127-.465.274-.915.4-1.38l.2-.69c.073-.225.162-.45.24-.675l.475-1.351.538-1.326a42.31,42.31,0,0,1,3.093-6.176,2.291,2.291,0,0,1,.362-.215c.225-.362.44-.7.651-1.052.1-.176.225-.338.338-.514s.24-.338.352-.529c.113-.152.225-.313.338-.475s.24-.328.362-.489c.264-.328.529-.651.788-.989a2.934,2.934,0,0,0,.362-.338c.127-.113.24-.225.362-.352.24-.24.45-.489.675-.754.073-.186.161-.387.264-.587s.215-.411.328-.626c.162-.176.328-.338.5-.514s.338-.362.514-.529c.362-.338.715-.675,1.052-.989.25-.24.514-.44.778-.666l.788-.651c.25-.225.538-.426.8-.626l.812-.612c.1-.073.2-.162.3-.24l.313-.225c.387-.264.788-.529,1.189-.8a1.555,1.555,0,0,1,.313-.186c.1-.064.215-.127.313-.186.2-.127.411-.24.612-.362a40.457,40.457,0,0,1,3.92-2.241c.088-.049.176-.088.274-.137s.186-.088.274-.127c.186-.088.377-.162.553-.25.362-.161.7-.328.989-.475.587-.264.964-.475.827-.563-.411.015-.842.039-1.179.039,1.83-.8,1.228-1.077-.1-.739-.641.3-1.277.587-1.918.891-.626.328-1.253.651-1.879.979-.44.24-.866.465-1.292.675l-.626.328c-.2.113-.4.24-.612.352-.411.24-.827.475-1.253.754s-.852.587-1.316.94l-.3.3a3.531,3.531,0,0,0-.289.313c-.2.215-.4.426-.626.666-.577.387-1.037.69-1.517,1-.24.162-.475.313-.724.5a8.629,8.629,0,0,0-.778.666c-.176.162-.362.328-.538.489s-.362.328-.538.5c-.352.352-.7.7-1.037,1.052l-.264.264-.25.274c-.162.186-.328.362-.5.553-.328.362-.666.724-.964,1.116-.362.362-.715.754-1.067,1.165-.328.411-.626.852-.925,1.3s-.577.9-.852,1.365-.563.915-.812,1.39c-.313.411-.69.891-.989,1.316-.264.514-.538,1.028-.8,1.542-.137.25-.25.514-.377.778l-.362.788c-.113.24-.225.475-.328.724-.338.925-.739,1.928-1.028,2.868-.088-.064-.186-.127-.2-1.189l-.064-.039a13.1,13.1,0,0,1,.475-1.38c.088-.215.162-.426.215-.6a1.5,1.5,0,0,0,.113-.475c.064-.45-.176-.113-.411.152-.127.127-.225.25-.3.225s-.113-.161-.064-.553c.215-.4.411-.8.6-1.189.1-.2.186-.387.289-.577s.2-.377.3-.563c.2-.377.387-.754.577-1.116.088-.186.2-.362.3-.553l.3-.538c.2-.362.387-.724.6-1.077s.44-.7.651-1.052a24.9,24.9,0,0,1,1.454-2.08c.215-.44.475-.842.666-1.179-.088-.113-.162-.215-.24-.328.215-.24.538-.587.812-.94a2.749,2.749,0,0,0,.577-.842c.289-.3.538-.577.778-.842s.5-.5.763-.754a3.576,3.576,0,0,1,.6-.274,4.764,4.764,0,0,0,.94-.626c.587-.5.954-.842,1.189-1.077a1.55,1.55,0,0,0,.387-.514,1.881,1.881,0,0,1,.45-.94c.039.039.2-.049.426-.215.049-.039.113-.088.176-.137s.137-.1.2-.152c.137-.1.289-.225.45-.352.313-.25.641-.514.915-.763.137-.127.274-.24.4-.338a2.949,2.949,0,0,0,.3-.274c.225-.162.45-.328.69-.475.2-.113.387-.24.577-.338s.387-.2.577-.3c.387-.2.763-.4,1.165-.612.152-.1.313-.186.475-.289l.489-.274c.328-.186.651-.362.964-.553.176-.113.338-.2.475-.274s.264-.137.377-.2a3.1,3.1,0,0,1,.529-.225,2.131,2.131,0,0,1,.577-.113,2.887,2.887,0,0,0,.3-.073,3.575,3.575,0,0,0,.5-.186c.215-.088.475-.225.827-.4.176-.088.362-.186.577-.3s.465-.225.724-.362c.25-.225.489-.465.739-.715.215-.073.44-.176.651-.25s.44-.152.666-.225c.289-.113.563-.215.852-.328.137-.049.274-.113.411-.162l.426-.152c.563-.186,1.126-.377,1.718-.577.587-.162,1.228-.3,1.879-.44.162-.039.328-.073.489-.1l.489-.073c.328-.049.651-.113.979-.162.162-.024.313-.064.475-.088s.313-.064.465-.073c.3-.049.6-.1.876-.152s.553-.113.8-.176.475-.137.69-.2a48.79,48.79,0,0,0-7.581,1.116c-.553.152-1.189.328-1.728.475A46.594,46.594,0,0,0,28.9,22.728c-.073-.176-.5.113-1.037.6a3.926,3.926,0,0,0-.411.4c-.137.152-.289.3-.426.45-.289.313-.577.641-.827.94a47.241,47.241,0,0,0-6.127,7.429c-.5.264-1.429,1.59-1.351,1.126-.274.45-.5.876-.714,1.3a13.247,13.247,0,0,0-.577,1.228,1.676,1.676,0,0,0-.529.612c-.1.161-.2.338-.3.538a6.488,6.488,0,0,0-.3.641c-.377.915-.788,1.977-1.1,2.794l-.313.724-.152.362c-.049.127-.1.24-.152.362-.186.5-.362.989-.553,1.493a8.4,8.4,0,0,0-.4.852c-.176.5-.338,1-.514,1.5l-.127.377c-.039.127-.073.25-.113.377l-.215.763c-.064.362-.137.724-.2,1.077s-.1.714-.152,1.067c-.088.714-.215,1.414-.264,2.153-.1.3-.186.6-.264.925-.039.162-.073.328-.1.489-.015.088-.024.161-.039.25s-.015.176-.024.25c-.064.69-.088,1.414-.1,2.168.024.754.064,1.527.1,2.32,0,.2.024.4.039.6s.024.4.039.6c.024.4.039.812.039,1.214a1.609,1.609,0,0,1-.049.362c-.024.064-.049.073-.073.064-.064-.015-.127-.1-.176-.024.024.426.064.842.088,1.253.024.2.039.4.049.6s.039.4.073.6c.127.788.25,1.551.387,2.3.162.754.328,1.493.465,2.241.176.739.338,1.493.489,2.281.225.641.45,1.316.675,2.016.1.352.24.7.362,1.067s.25.724.377,1.1.264.754.4,1.126.289.763.426,1.155l.113.289.127.289c.073.186.162.387.24.577.161.387.328.778.5,1.165.264.24.529.475.788.715.127.264.274.538.411.812.073.137.137.274.215.411s.152.264.215.387c0,.377.338,1.067.152.915.514.94,1.1,1.83,1.728,2.819.377.612.8,1.351,1.238,2.055a12.572,12.572,0,0,0,1.39,1.752,11.278,11.278,0,0,1,1.615,1.679,8.9,8.9,0,0,0,1.728,1.581c.274.274.489.475.7.675a7.635,7.635,0,0,0,.489.612,7.513,7.513,0,0,0,.651.675c.475.45,1.013.925,1.566,1.39.553.44,1.1.876,1.581,1.292a9.23,9.23,0,0,1,1.155,1.052c.152.127.426.352.763.6s.724.514,1.091.754a6.764,6.764,0,0,0,.852.5c.186.073.25.049.073-.152.4.215.788.426,1.155.626.186.1.362.2.553.3.088.049.176.1.264.152s.176.088.264.137c.352.176.7.362,1.052.538.176.088.338.176.514.264l.25.137a2.17,2.17,0,0,1,.264.127c.352.161.7.328,1.052.489.176.088.362.161.538.25.088.039.186.088.274.127s.186.073.289.113l1.179.475c.2.073.411.161.626.25s.44.152.666.225a5.446,5.446,0,0,1,1.527.387c.69.225,1.5.489,2.143.69.338.1.715.162,1.091.25s.763.161,1.165.25.812.161,1.238.24.852.152,1.292.225c.215.039.44.073.651.1s.44.064.666.088c.44.064.891.137,1.326.2s.891.1,1.326.152c.225.024.44.049.651.088s.44.064.651.073c1.551-.215,2.129-.2,2.32.137,1.1-.1,1.718-.161,2.29-.2.289-.015.553-.049.852-.064s.651-.024,1.091-.039c1.292-.186,3.509-.489,4.649-.612a1.054,1.054,0,0,1,.553-.264c.152-.039.313-.073.5-.113s.387-.088.6-.127c.426-.073.876-.152,1.326-.24s.866-.186,1.214-.289c.274-.024.587-.064.891-.113.152-.024.313-.039.45-.064l.44-.073c.842-.264.9-.387,1-.5a.638.638,0,0,1,.274-.2,3.368,3.368,0,0,1,.352-.137c.152-.049.338-.127.577-.2.362-.152.724-.3,1.091-.45l.538-.225.538-.25A11.021,11.021,0,0,1,80.173,102c.3-.113.641-.274,1.037-.45s.876-.377,1.429-.6c.514-.289,1.1-.626,1.615-.915.352-.176.675-.377,1.013-.577l1-.6c.338-.186.666-.411.989-.626l.979-.651c.313-.25.538-.45.763-.651l1.165-.891c.2-.152.387-.3.577-.465l1.126-.949.274-.24c.088-.073.176-.161.274-.25l1.077-.989c.362-.328.7-.675,1.052-1.028s.69-.7,1.028-1.052l.989-1.091.489-.553c.161-.186.313-.377.465-.563.274-.352.563-.715.866-1.091.152-.186.289-.387.44-.577s.289-.4.426-.6c.186-.264.377-.538.577-.8s.377-.553.553-.827.352-.538.5-.8a7.518,7.518,0,0,0,.4-.739c.264-.489.529-.989.8-1.493.064-.127.137-.25.2-.377s.127-.264.176-.387c.127-.264.24-.514.352-.763.113-.186.225-.377.338-.577.049-.1.113-.2.161-.3s.1-.215.152-.313c.2-.411.4-.842.577-1.253.088-.24.176-.465.264-.7s.152-.475.225-.7l.44-1.351c.161-.411.3-.827.44-1.228s.289-.812.426-1.214.25-.812.377-1.228c.064-.2.127-.411.186-.626.024-.1.064-.215.088-.313s.049-.215.073-.313l.426-1.718c.039-.137.073-.289.1-.426l.088-.44.176-.866.161-.866c.049-.289.088-.577.137-.876.088-.587.161-1.165.24-1.752-.049-.225-.088-.338-.137-.563.073-.352.152-.778.215-1.253.024-.24.064-.475.073-.724s.024-.5.024-.754c.015-.5.015-.989-.015-1.414a4.072,4.072,0,0,0-.064-.587c-.024-.176-.064-.338-.088-.465-.039-.788-.049-1.581-.152-2.369-.039-.538-.073-1.077-.113-1.615s-.127-1.077-.186-1.615c-.039-.274-.064-.538-.1-.812s-.088-.538-.137-.812c-.1-.538-.186-1.091-.289-1.654a49.262,49.262,0,0,0-2.369-8.08,31.643,31.643,0,0,0-3.23-6.328c-.215-.338-.4-.675-.612-1s-.44-.651-.666-.979c-.514-.842-1.028-1.542-1.59-2.344-.127-.162-.225-.313-.352-.475l-.377-.45-.754-.915c-.25-.313-.514-.6-.778-.891l-.8-.876a25.283,25.283,0,0,0-3.02-2.946c-.161-.152-.328-.3-.489-.44s-.328-.274-.489-.426c-.328-.274-.666-.553-.989-.827s-.666-.538-1.013-.788-.69-.514-1.052-.778c-.161-.137-.352-.264-.529-.387s-.352-.25-.529-.377c-.352-.25-.69-.5-1.037-.739s-.715-.465-1.067-.7c-.176-.113-.362-.24-.538-.352-.088-.064-.186-.113-.274-.176s-.186-.113-.289-.162c-.553-.313-1.228-.724-1.84-1.077a9.834,9.834,0,0,0-1.429-.666c-.489-.24-1-.45-1.527-.666-.264-.113-.529-.215-.778-.328-.127-.049-.25-.1-.387-.162s-.264-.088-.387-.137c-.563-.186-1.214-.4-1.791-.577-.651-.049-1.39-.127-2.031-.162a2.392,2.392,0,0,0-.563.024c-.313.152-.538.338-.852.489-.45-.127-.812-.24-1.267-.362-.788-.25-1.581-.465-2.354-.7-.788-.186-1.581-.387-2.393-.563-.313.039-.641.088-1.037.127-.225-.064-.489-.113-.778-.176-.137-.024-.289-.064-.45-.088s-.313-.039-.475-.064a12.178,12.178,0,0,0-1.84-.088c-.054.284-.083.372.117.484Zm28.3,15A34.228,34.228,0,0,0,87.7,25.214,20.391,20.391,0,0,1,90.317,27.568Zm7.771,9.881c.1.176.186.352.274.514a1.745,1.745,0,0,0,.127.225c-.152-.24-.3-.475-.45-.7.02.024.049.015.049-.039Zm-1.165-1.713a1.686,1.686,0,0,1,.113.137,1.84,1.84,0,0,1,.113.176c.073.127.161.274.24.426a2.668,2.668,0,0,0,.161.274.172.172,0,0,1-.024-.039,6.766,6.766,0,0,0-.587-.94l-.137-.176C96.821,35.624,96.87,35.672,96.924,35.736ZM95.7,34.317c-.225-.289-.489-.612-.778-1.052.2.289.411.563.626.852a1.029,1.029,0,0,1,.152.2Zm-6.641-5.608a1.04,1.04,0,0,1-.127-.127Zm.078.059.015.015S89.142,28.767,89.142,28.767Zm.489.514.964,1.028c-.377-.4-.675-.714-.925-.989-.1-.113-.2-.215-.3-.313C89.455,29.1,89.544,29.193,89.632,29.281ZM98.837,75.7c.039-.113.073-.225.127-.362s.1-.274.161-.45c.127-.338.289-.754.538-1.3-.2.587-.4,1.189-.626,1.791-.2.5-.4,1.013-.6,1.5.191-.489.264-.788.4-1.179Z" transform="translate(-11.439 -11.278)"/></svg>