<svg xmlns="http://www.w3.org/2000/svg" width="86.286" height="86.286" viewBox="0 0 86.286 86.286"><defs><style>.a{fill:none;stroke:#b8d656;stroke-linecap:round;stroke-linejoin:round;stroke-width:2px;}</style></defs><g transform="translate(1 1)"><path class="a" d="M85.849,43.706A42.143,42.143,0,1,1,43.706,1.563,42.145,42.145,0,0,1,85.849,43.706" transform="translate(-1.563 -1.563)"/><path class="a" d="M70.86,23.985c1.992-5.173-6.8-6.8-6.8-6.8S65.653,25.942,70.86,23.985Z" transform="translate(-9.684 -3.593)"/><path class="a" d="M79.281,31.345c5.064-2.25,0-9.564,0-9.564S74.217,29.1,79.281,31.345Z" transform="translate(-11.369 -4.19)"/><path class="a" d="M83.909,42.876c5.54-.109,3.711-8.836,3.711-8.836S80.1,38.838,83.909,42.876Z" transform="translate(-12.123 -5.783)"/><path class="a" d="M83.906,54.07c4.615,3.072,8.075-5.125,8.075-5.125S83.09,48.584,83.906,54.07Z" transform="translate(-12.256 -7.719)"/><path class="a" d="M80.266,64.435c3.4,4.371,9.285-2.3,9.285-2.3S81.231,58.976,80.266,64.435Z" transform="translate(-11.79 -9.315)"/><path class="a" d="M73.148,73.875c2.318,5.03,9.564-.129,9.564-.129S75.33,68.777,73.148,73.875Z" transform="translate(-10.865 -10.661)"/><path class="a" d="M28.081,23.985c-1.992-5.173,6.8-6.8,6.8-6.8S33.288,25.942,28.081,23.985Z" transform="translate(-4.97 -3.593)"/><path class="a" d="M20.047,31.345c-5.064-2.25,0-9.564,0-9.564S25.111,29.1,20.047,31.345Z" transform="translate(-3.672 -4.19)"/><path class="a" d="M15.332,42.876c-5.54-.109-3.711-8.836-3.711-8.836S19.145,38.838,15.332,42.876Z" transform="translate(-2.832 -5.783)"/><path class="a" d="M14.88,54.07C10.271,57.135,6.8,48.945,6.8,48.945S15.7,48.584,14.88,54.07Z" transform="translate(-2.244 -7.719)"/><path class="a" d="M18.348,64.435c-3.4,4.371-9.285-2.3-9.285-2.3S17.382,58.976,18.348,64.435Z" transform="translate(-2.537 -9.315)"/><path class="a" d="M25.423,73.875c-2.291,5.03-9.564-.136-9.564-.136S23.241,68.777,25.423,73.875Z" transform="translate(-3.42 -10.66)"/><path class="a" d="M68.423,25A28.729,28.729,0,0,1,78.531,46.955,27.187,27.187,0,0,1,58.907,73.261c-4.758,1.359-11.555,2.719-13.595,8.157" transform="translate(-7.248 -4.608)"/><path class="a" d="M26.615,25A28.729,28.729,0,0,0,16.508,46.955,27.187,27.187,0,0,0,36.131,73.261c4.758,1.359,11.555,2.719,13.595,8.157" transform="translate(-3.505 -4.608)"/><path class="a" d="M38.523,54.281l3.188,14.628H55.306l3.188-14.628" transform="translate(-6.366 -8.413)"/><path class="a" d="M56.36,46.555a7.477,7.477,0,0,1-14.954,0" transform="translate(-6.74 -7.409)"/><path class="a" d="M51.858,50.187a7.44,7.44,0,0,0,3.31.734c4.133,0,7.477-4.711,7.477-8.836,0-2.039-.829-5.281-2.175-6.634A46.725,46.725,0,0,0,47.936,25.7c.585,1.047-1.815,1.992-1.815,1.992a39.366,39.366,0,0,0-11.032,7.79c-1.359,1.359-2.175,4.575-2.175,6.634,0,4.133,3.351,8.836,7.477,8.836a7.426,7.426,0,0,0,3.263-.748" transform="translate(-5.637 -4.7)"/></g></svg>