<svg xmlns="http://www.w3.org/2000/svg" width="83.03" height="91.009" viewBox="0 0 83.03 91.009"><defs><style>.a{fill:#b8d656;}</style></defs><path class="a" d="M51.944,97.634c-14.667,0-26.6-13.138-26.6-29.286,0-1.238.8-2.774,2.1-4.856-.2-6.233-.488-13-.684-15.84-8.873-.738-16.331-7.389-16.331-14.914,0-6.795,10.491-8.983,15.537-10.032.672-.139,1.422-.3,1.754-.389A15.775,15.775,0,0,0,31,17.972c3.037-5.057,6.819-11.348,21.577-11.348,14.209,0,18.1,6.229,21.221,11.237A17.814,17.814,0,0,0,77.01,22.1c.25.066.68.16,1.07.246,4.6,1.025,15.38,3.422,15.38,10.414,0,7.516-7.459,14.159-16.331,14.9-.2,2.848-.475,9.635-.68,15.892a.021.021,0,0,1,.008.016c1.324,2.106,2.086,3.565,2.086,4.8,0,16.143-11.93,29.269-26.6,29.269ZM29.072,70.242c.852,13.217,10.786,23.72,22.872,23.72S73.952,83.479,74.813,70.238Zm.807-3.672h44.1c-.176-.3-.389-.652-.639-1.049-.164-.258-.287-.463-.357-.582a1.854,1.854,0,0,1-.234-.955s.148-4.545.332-9.09c.094-2.283.2-4.561.3-6.27.189-3.229.266-4.565,2.106-4.565,7.614,0,14.29-5.278,14.29-11.3,0-4.045-9.414-6.143-12.5-6.832a5.5,5.5,0,0,1-2.311-.758,19.439,19.439,0,0,1-4.295-5.36C67.751,15.137,64.735,10.3,52.563,10.3c-12.68,0-15.6,4.865-18.429,9.565a17.919,17.919,0,0,1-4.389,5.52c-.529.393-1.209.537-3.037.918C23.257,27.03,14.1,28.939,14.1,32.747c0,6.024,6.68,11.311,14.29,11.311,1.84,0,1.918,1.332,2.106,4.557.1,1.7.2,3.979.3,6.254.189,4.533.336,9.065.336,9.065a1.819,1.819,0,0,1-.234.959c-.066.115-.184.307-.336.553-.266.422-.492.8-.68,1.123ZM58.17,87.183c-2.307,0-4.951-1.361-6.393-2.221-1.447.861-4.09,2.221-6.4,2.221a11.371,11.371,0,0,1-4.008-.529,1.837,1.837,0,1,1,1.328-3.426,8.776,8.776,0,0,0,2.684.279c1.742,0,4.516-1.656,5.352-2.234a1.839,1.839,0,0,1,2.09,0c1.25.865,3.807,2.234,5.348,2.234a8.965,8.965,0,0,0,2.873-.279,1.837,1.837,0,0,1,1.59,3.311,10.2,10.2,0,0,1-4.463.643Zm3.66-10.114H55.76a1.836,1.836,0,1,1,0-3.672h6.069a1.836,1.836,0,1,1,0,3.672Zm-14.036,0H41.723a1.836,1.836,0,1,1,0-3.672h6.069a1.836,1.836,0,1,1,0,3.672ZM63.915,60.947a1.836,1.836,0,0,1-1.836-1.836V45.833a1.836,1.836,0,1,1,3.672,0V59.111A1.838,1.838,0,0,1,63.915,60.947Zm-11.381,0A1.836,1.836,0,0,1,50.7,59.111V41.28a1.836,1.836,0,1,1,3.672,0V59.111a1.838,1.838,0,0,1-1.836,1.836Zm-11.381,0a1.836,1.836,0,0,1-1.836-1.836V45.833a1.836,1.836,0,1,1,3.672,0V59.111A1.838,1.838,0,0,1,41.153,60.947Z" transform="translate(-10.431 -6.625)"/></svg>