<svg xmlns="http://www.w3.org/2000/svg" width="104.113" height="102.062" viewBox="0 0 104.113 102.062"><g transform="translate(-1.558 -2.47)"><path d="M105.617,42.327l-.118-19.6V15.613a9.5,9.5,0,0,0-.076-1.419,9.042,9.042,0,0,1-.227-1.482A13.109,13.109,0,0,0,98.468,3.9a12.936,12.936,0,0,0-5.306-1.431H88.616l-8.467.109-15.692.256c-9.856.185-18.42.4-25.287.646a1.58,1.58,0,0,0-1.2.437A1.564,1.564,0,0,0,37.5,5.106,1.62,1.62,0,0,0,39.15,6.436c6.867.248,15.43.462,25.287.646l15.679.256,8.467.109h4.2a7.841,7.841,0,0,1,7.178,6.339,7.561,7.561,0,0,0,.118.861,8.419,8.419,0,0,1,0,.924v7.115l-.147,19.641V57.5A7.532,7.532,0,0,1,96.6,63.819a7.74,7.74,0,0,1-3.438,1.259H83.07a2.952,2.952,0,0,0-2.943,2.955V78.641L67.391,66.036a2.835,2.835,0,0,0-2.011-.819l-15.519.076H42.34l-3.77.076H36.925a6.623,6.623,0,0,1-1.343-.206,7.7,7.7,0,0,1-4.416-3.018,8.046,8.046,0,0,1-1.192-2.309L29.8,59.2l-.109-.655v0a12.82,12.82,0,0,1-.071-1.448l-.16-13.488-.407-23.932-.071-2.666V14.634a8.814,8.814,0,0,1,7.073-7.992,2.074,2.074,0,0,0,1.075-.6,1.5,1.5,0,0,0,.407-1.075,1.221,1.221,0,0,0-.592-.923,1.856,1.856,0,0,0-1.385-.353,11.916,11.916,0,0,0-8.328,5.2,12.249,12.249,0,0,0-1.977,5.373c0,.474-.084,1.075-.084,1.461v1.3l-.055,2.666L24.881,33.83c-1.935-.13-4.105-.235-6.448-.353l-3.879-.16H12.288l0,0a11.181,11.181,0,0,0-2.729.483,11.093,11.093,0,0,0-7.363,8.282,15.651,15.651,0,0,0-.16,2.871L1.924,47.5l-.1,5.188C1.71,59.726,1.613,67.257,1.558,75v2.934a11.809,11.809,0,0,0,5.419,9.852,11.239,11.239,0,0,0,3.652,1.528,10.861,10.861,0,0,0,1.944.29h4.655l.055,12.068a2.867,2.867,0,0,0,4.92,2c5.062-5.125,9.747-9.919,14.142-14.453l9.672-.193,2.527-.013h1.31a9.477,9.477,0,0,0,1.536-.185,10.864,10.864,0,0,0,8.244-7.048A10.377,10.377,0,0,0,60.18,79.3a9,9,0,0,0,.055-1.213V77.016q-.151-3.362-.323-6.137h4.3L81,87.826a2.943,2.943,0,0,0,5.016-2.04V71.065h6.116a11.761,11.761,0,0,0,1.591-.076A13.362,13.362,0,0,0,105.67,57.556V52.465ZM56.583,77.05v.932a6.09,6.09,0,0,1-.109.785,6.478,6.478,0,0,1-.483,1.536,6.9,6.9,0,0,1-2.065,2.636A6.684,6.684,0,0,1,50.7,84.282a5.525,5.525,0,0,1-.911.05h-1.18l-2.548-.063L35.22,84.056h0a2.516,2.516,0,0,0-1.784.7l-.076.063q-4.924,4.748-10.272,9.995V86.688a2.935,2.935,0,0,0-2.934-2.934h-7.2a4.778,4.778,0,0,1-.978-.139,5.447,5.447,0,0,1-1.805-.764A5.936,5.936,0,0,1,7.75,79.833a6.09,6.09,0,0,1-.344-1.956V74.984c-.055-7.736-.139-15.259-.269-22.311L6.978,47.5a40.683,40.683,0,0,1,0-4.525,6.649,6.649,0,0,1,4.072-5.117,7.245,7.245,0,0,1,1.57-.428l.827-.076h1.02l3.879-.16c2.363-.109,4.525-.227,6.448-.344l-.118,6.813L24.5,57.093a19.359,19.359,0,0,0,.1,2.032l.16,1.075.256,1.075h0a13.08,13.08,0,0,0,9.252,9.059,11.98,11.98,0,0,0,2.279.386,6.482,6.482,0,0,1,1.075.055H56.88q-.151,2.9-.3,6.276Z" transform="translate(0 0)" fill="rgba(255,255,255,0.5)"/><path d="M50.378,45.807c-.151,0-.281.764-.281,1.591s.193,1.331.441,1.356a7.791,7.791,0,0,0,6.276-2.527,8.471,8.471,0,0,0,2.078-4A7.551,7.551,0,0,0,59.059,41l.063-.991.122-1.847c.118-2.59.214-5.373.281-8.219V28.336c.013-.3.013-.6,0-.9a6.908,6.908,0,0,0-6.343-6.082H47.755a6.524,6.524,0,0,0-.944.118,6.845,6.845,0,0,0-5.482,6.649v1.125l.063,2.086.076,2.032,0,0a6.7,6.7,0,0,0,.793,3.06,6.456,6.456,0,0,0,4.76,3.312,6.507,6.507,0,0,0,.7,0c.2.008.395.008.588,0l.861-.063,1.645-.139q1.776-.164,3.224-.344v1.7a3.194,3.194,0,0,1,0,.567,4.508,4.508,0,0,1-.525,2.086,5.31,5.31,0,0,1-3.14,2.267Zm.462-10.465L49.195,35.2l-.861-.063,0,0a1.051,1.051,0,0,1-.281,0,1.3,1.3,0,0,1-.181,0A1.576,1.576,0,0,1,46.8,33.407l.076-2.032.063-2.086V28.5a.744.744,0,0,1,0-.193,1.227,1.227,0,0,1,.076-.3,1.187,1.187,0,0,1,.9-.739.909.909,0,0,1,.151,0h4.618a1,1,0,0,1,.294.05,1.074,1.074,0,0,1,.739.861v1.8c0,1.977.1,3.9.172,5.759-.915-.16-1.931-.285-3.039-.386Z" transform="translate(2.968 1.409)" fill="rgba(255,255,255,0.5)"/><path d="M72.269,45.807c-.151,0-.281.764-.281,1.591s.193,1.331.441,1.356A7.791,7.791,0,0,0,78.7,46.227a8.464,8.464,0,0,0,2.074-4A7.56,7.56,0,0,0,80.95,41l.063-.991.088-1.847c.118-2.59.214-5.373.281-8.219V28.336a8.087,8.087,0,0,0,0-.9,6.913,6.913,0,0,0-4.471-5.675,6.787,6.787,0,0,0-1.872-.407H69.646a6.524,6.524,0,0,0-.944.118,6.845,6.845,0,0,0-5.482,6.649v1.125l.063,2.086.076,2.032,0,0a6.7,6.7,0,0,0,.793,3.06,5.592,5.592,0,0,0,5.461,3.312c.193.008.39.008.588,0l.861-.063,1.645-.139q1.776-.164,3.224-.344v1.7a3.2,3.2,0,0,1,0,.567,4.462,4.462,0,0,1-.529,2.086,5.289,5.289,0,0,1-3.136,2.267Zm.462-10.465L71.086,35.2l-.861-.063v0a1.02,1.02,0,0,1-.277,0,1.357,1.357,0,0,1-.185,0,1.584,1.584,0,0,1-1.075-1.729l.076-2.032.063-2.086V28.5h0a.744.744,0,0,1,0-.193,1.228,1.228,0,0,1,.076-.3,1.187,1.187,0,0,1,.9-.739.859.859,0,0,1,.147,0h4.58a.954.954,0,0,1,.29.05,1.079,1.079,0,0,1,.743.861v1.8c0,1.977.1,3.9.172,5.759-.89-.16-1.893-.285-3.01-.386Z" transform="translate(4.601 1.409)" fill="rgba(255,255,255,0.5)"/></g></svg>