<svg xmlns="http://www.w3.org/2000/svg" width="104.005" height="121.466" viewBox="0 0 104.005 121.466"><defs><style>.a{fill:#b8d656;fill-rule:evenodd;}</style></defs><path class="a" d="M92,20.051v.008a1.855,1.855,0,0,1,.411.047A2.054,2.054,0,0,1,94,21.586l9.28,33.9,1.985-.543a2.532,2.532,0,0,1,.543-.062,2.06,2.06,0,0,1,1.744.938,1.956,1.956,0,0,1,.256.581l12,43.872a2.066,2.066,0,0,1-1.992,2.613h.279l-37.331,10.2a16.179,16.179,0,0,1,3.427,5.427l40-10.947,2.179-.6a2.2,2.2,0,0,1,.55-.085,2.068,2.068,0,0,1,.551,4.062l-2.194.6L85.155,122.527a16.264,16.264,0,0,1,.116,2.892,17.111,17.111,0,0,1-17.405,16.087,16.046,16.046,0,0,1-15.335-17.242A17.066,17.066,0,0,1,54.19,117.9l-.333-1.2L48.686,97.788a2.028,2.028,0,0,1-.24-.876L43.755,79.747a2.069,2.069,0,0,1,.194-1.574l5.264-9.117c-4.031-14.63-8.047-29.344-10.978-40.617l-10.994.62a2.068,2.068,0,0,1-1.527-.5A2.062,2.062,0,0,1,27,24.934l12.676-.721a2.072,2.072,0,0,1,2.117,1.551c5.83,22.592,16.328,59.945,22.755,83.2a16.116,16.116,0,0,1,5.373-.791c.217.008.419.085.636.085L59.951,69.483a2.073,2.073,0,0,1,2-2.6h-.287L63.4,66.4,54.121,32.51a2.071,2.071,0,0,1,1.45-2.551l23.87-6.528a.538.538,0,0,1,.1-.039l11.916-3.264A2.134,2.134,0,0,1,92,20.051Zm-1.442,4.613-7.978,2.179,4.729,17.312a2.144,2.144,0,0,1-2.2,3.256,2.088,2.088,0,0,1-1.326-.892L78.3,42.287l-2.768,6.97a2.071,2.071,0,0,1-3.985-.07L66.635,31.215,58.65,33.394l8.73,31.9,31.91-8.73ZM78.606,27.936,70.62,30.114l3.287,12.025,1.566-3.923a2.08,2.08,0,0,1,1.83-1.3,2.048,2.048,0,0,1,1.357.434l3.179,2.45Zm25.762,31.531V59.5l-1.969.543h-.031L92.4,62.77l5.946,21.763a.323.323,0,0,1,.031.078l.016.054a.533.533,0,0,1,.023.062,2.069,2.069,0,0,1-3.311,2.116l-5.791-4.675-2.938,7.063a.183.183,0,0,0-.016.062h-.008c-.016.023-.023.054-.039.078l-.047.093a2.066,2.066,0,0,1-3.931-.837L76.449,67.1l-9.97,2.729-.124.031H66.34l-1.853.512,10.652,38.942c.488.194.977.372,1.442.612l38.7-10.583ZM88.42,63.832l-7.978,2.179,4.411,16.126,1.706-4.117a2.054,2.054,0,0,1,1.868-1.271,2.1,2.1,0,0,1,1.341.457l2.954,2.388ZM50.756,74.647l-2.783,4.83L51.81,93.533l3.559-2.241c-1.574-5.667-2.938-10.59-4.613-16.645Zm5.768,20.808L52.949,97.7l4.326,15.808a16.714,16.714,0,0,1,3.442-2.876C59.555,106.41,57.911,100.471,56.524,95.455Zm13.141,16.831A12.785,12.785,0,0,0,56.648,124.4,12.012,12.012,0,0,0,68.13,137.367a12.779,12.779,0,0,0,13.009-12.11,12,12,0,0,0-11.474-12.971Zm-.364,4.272a8.274,8.274,0,1,1-8.66,7.869A8.3,8.3,0,0,1,69.3,116.558Zm-.194,4.14a4.134,4.134,0,1,0,3.931,4.326A4.1,4.1,0,0,0,69.107,120.7Z" transform="translate(-24.997 -20.051)"/></svg>