<svg xmlns="http://www.w3.org/2000/svg" width="73.734" height="87.001" viewBox="0 0 73.734 87.001"><defs><style>.a{fill:#b8d656;}</style></defs><path class="a" d="M66.516,59.652V24.874a22.023,22.023,0,0,0-44.046,0V59.652a27.858,27.858,0,0,1,2.943-.873l8.514-2.009,1.305-5.744a22,22,0,0,1-3.066-2.552A17.033,17.033,0,0,1,26.8,36.634V22.353a1.424,1.424,0,0,1,1.424-1.424,30.134,30.134,0,0,0,8.208-1.05,20.179,20.179,0,0,0,5.047-2.151,14.668,14.668,0,0,1-2.732-5.39,1.423,1.423,0,0,1,2.749-.738,13.014,13.014,0,0,0,6.376,7.875,25.786,25.786,0,0,0,12.9,2.987A1.425,1.425,0,0,1,62.2,23.892V36.637a17,17,0,0,1-5.373,11.827,22.267,22.267,0,0,1-3.066,2.556l1.308,5.754,8.514,2.009a27.265,27.265,0,0,1,2.936.873Zm-15.324-7.11a15.351,15.351,0,0,1-6.7,1.791,15.329,15.329,0,0,1-6.7-1.781L36.609,57.8,44.5,75.613,52.385,57.8ZM19.615,60.89V24.874a24.876,24.876,0,0,1,49.752,0V60.89A21.688,21.688,0,0,1,81.361,80.7V87H78.506V80.7a19.16,19.16,0,0,0-4.18-12.263,20.528,20.528,0,0,0-11.4-6.882l-1.818-.428,1.516,4.561a1.42,1.42,0,0,1-.455,1.665L45.406,80.217l-.014.01a1.406,1.406,0,0,1-.207.143,1.3,1.3,0,0,1-.119.061,1.429,1.429,0,0,1-1.122.014,1.281,1.281,0,0,1-.36-.224L26.813,67.35a1.413,1.413,0,0,1-.486-1.574l1.55-4.653-1.818.428a20.511,20.511,0,0,0-11.4,6.882A19.152,19.152,0,0,0,10.482,80.7V87H7.627V80.7a21.694,21.694,0,0,1,11.99-19.807Zm38.252-.534L54.7,59.608l-6.641,15,11.589-8.895ZM40.932,74.607l-6.641-15-3.168.748-1.781,5.356Zm5.523-52.672a18.694,18.694,0,0,1-2.964-2.111,22.71,22.71,0,0,1-6.3,2.8,32.193,32.193,0,0,1-7.545,1.132V36.634a14.179,14.179,0,0,0,4.534,9.822c3.083,3.083,7.11,5.03,10.314,5.03,3.188,0,7.226-1.954,10.314-5.044a14.2,14.2,0,0,0,4.534-9.808V25.289a27.821,27.821,0,0,1-12.891-3.354Z" transform="translate(-7.627 0)"/></svg>