<svg xmlns="http://www.w3.org/2000/svg" width="172.51" height="73.828" viewBox="0 0 172.51 73.828"><defs><style>.a{fill:#0aa8aa;}</style></defs><path class="a" d="M67.527,172.4a3.461,3.461,0,0,1-.519.041c-1.6.04-3.417.062-5.394.066-7.885.018-17.284-.253-25.047-.486l-1.1-.033c-5.777-.174-10.766-.324-13.788-.318-.956,0-1.664.02-2.163.053-.524.034-1.081.077-1.665.121l-.2.015c-2.065.156-4.409.334-6.71.338a28.331,28.331,0,0,1-4.733-.326c-2.186-.369-3.962-2.574-4.752-5.9l-.008-.028a29.9,29.9,0,0,1-.964-7.26c-.764-14.439-.481-26.441-.153-40.338l.007-.311q.07-2.965.139-6.052C.622,105.575.77,99.6.914,93.83l0-.115c.484-19.448.9-36.243.717-57.834-.02-2.363-.09-5.858-.164-9.558l0-.156c-.129-6.473-.276-13.81-.22-17.859C1.316,3.256,2.727.482,5.443.063A5.647,5.647,0,0,1,6.306,0c4.107,0,9.042.24,14.756.519l.063,0c7.752.379,16.534.809,26.128.788,2.8-.007,6.052-.317,9.2-.618C59.419.41,62.222.142,64.5.137A11.981,11.981,0,0,1,68.07.526c2.274.742,4.734,3.958,5.035,8.671,1.088,16.954.718,34.21.362,50.9v.054c-.1,10.763-.312,21.568-.521,32.016-.456,22.869-.926,46.493-.2,71.334a10.988,10.988,0,0,1-1.307,5.709A5.91,5.91,0,0,1,67.527,172.4Z" transform="translate(172.51) rotate(90)"/></svg>