<svg xmlns="http://www.w3.org/2000/svg" width="848.836" height="1309.021" viewBox="0 0 848.836 1309.021">
  <path id="Path_1254" data-name="Path 1254" stroke="#b8d656" d="M1791.4,1892.973c-100.14.146-220.676-2.2-317.531-4.1-70.689-1.376-131.741-2.57-168.728-2.513-11.925.016-20.881.162-27.382.443-7.137.3-14.8.681-22.848,1.075-24.881,1.222-53.088,2.607-80.52,2.642-21.6.033-39.542-.763-54.86-2.435-16.387-1.785-29.706-12.494-35.622-28.637l-.426-1.165-.513-1.124c-3.393-7.424-6.855-18.315-9.191-47.444-9.167-112.324-5.743-206.3-1.782-315.126.6-16.4,1.206-33.122,1.786-50.26,1.718-50.837,3.541-98.255,5.3-144.115,5.913-153.959,11.018-286.92,8.754-458.2-.253-19.033-1.119-47.077-2.034-76.77-1.571-50.926-3.356-108.646-2.689-139.935.609-28.836,9.126-38.1,35.043-38.139,49.779,0,109.971,1.9,179.663,4.116,94.584,3,201.782,6.4,318.961,6.227,34.814-.053,74.833-2.524,113.535-4.923,35.754-2.208,69.533-4.3,96.467-4.339,17.325-.024,30.185.824,38.219,2.524,18.072,3.824,37.589,20.044,39.922,43.644,13.042,131.954,8.583,267.249,4.267,398.086l-.015.633c-1.183,84.937-3.8,170.252-6.338,252.761-5.56,180.985-11.308,368.13-2.437,565.343.508,11.252-4.644,19.736-9.051,24.87-8.636,10.058-21.755,16.318-34.238,16.333l-.358,0C1837.142,1892.762,1815.153,1892.936,1791.4,1892.973Z" fill="none" transform="translate(-1066.34 -585.565)" stroke-linecap="round" stroke-linejoin="round" stroke-width="3.217" stroke-dasharray="1 6.43"/>
</svg>
