<svg xmlns="http://www.w3.org/2000/svg" width="348.838" height="536.925" viewBox="0 0 348.838 536.925">
  <path id="Path_1254" data-name="Path 1254" stroke="#b8d656" d="M1363.637,1120.88c-40.929.06-90.195-.9-129.781-1.674-28.892-.562-53.845-1.05-68.962-1.027-4.874.007-8.535.066-11.192.181-2.917.124-6.05.278-9.338.439-10.17.5-21.7,1.066-32.91,1.08a205.878,205.878,0,0,1-22.422-1,17.392,17.392,0,0,1-14.56-11.7l-.174-.476-.209-.459c-1.387-3.034-2.8-7.486-3.756-19.391-3.747-45.909-2.348-84.321-.728-128.8.245-6.7.493-13.538.73-20.542.7-20.778,1.447-40.159,2.166-58.9,2.417-62.926,4.5-117.27,3.578-187.276-.1-7.779-.457-19.241-.831-31.377-.642-20.814-1.372-44.406-1.1-57.194.249-11.786,3.73-15.573,14.323-15.588,20.345,0,44.947.778,73.432,1.682,38.658,1.226,82.472,2.615,130.366,2.545,14.229-.022,30.586-1.032,46.4-2.012,14.614-.9,28.419-1.757,39.428-1.773,7.081-.01,12.337.337,15.621,1.032,7.386,1.563,15.363,8.193,16.317,17.838,5.331,53.932,3.508,109.23,1.744,162.706l-.006.259c-.483,34.716-1.555,69.586-2.591,103.309-2.273,73.972-4.622,150.462-1,231.067a14.559,14.559,0,0,1-3.7,10.165,19.105,19.105,0,0,1-13.994,6.676l-.146,0C1382.332,1120.794,1373.345,1120.865,1363.637,1120.88Z" fill="none" transform="translate(-1066.339 -585.565)" stroke-linecap="round" stroke-linejoin="round" stroke-width="3.217" stroke-dasharray="1 6.43"/>
</svg>
