<svg xmlns="http://www.w3.org/2000/svg" width="168.28" height="69.096" viewBox="0 0 168.28 69.096"><defs><style>.a{fill:none;stroke:#0aa8aa;stroke-linecap:round;stroke-linejoin:round;stroke-width:3.217px;stroke-dasharray:0 6.434;}</style></defs><path class="a" d="M56.468,165.062c-7.816.019-17.225-.279-24.785-.518-5.518-.174-10.283-.325-13.17-.318-.931,0-1.63.02-2.137.056-.557.038-1.155.086-1.783.136-1.942.155-4.144.33-6.285.334a24.43,24.43,0,0,1-4.282-.308c-1.279-.226-2.319-1.579-2.78-3.62l-.033-.147-.04-.142a26.515,26.515,0,0,1-.717-6C-.26,140.34.007,128.46.316,114.7c.047-2.073.094-4.187.139-6.353.134-6.426.276-12.42.414-18.217.462-19.461.86-36.269.683-57.92-.02-2.406-.087-5.951-.159-9.7-.123-6.437-.262-13.734-.21-17.689C1.232,1.176,1.9,0,3.919,0,7.8,0,12.5.241,17.942.52c7.383.379,15.75.809,24.9.787C45.556,1.3,48.68.988,51.7.685,54.491.406,57.128.142,59.23.136a9.954,9.954,0,0,1,2.983.319c1.411.483,2.934,2.534,3.116,5.517,1.018,16.68.67,33.782.333,50.321v.08c-.092,10.737-.3,21.521-.495,31.951-.434,22.878-.883,46.534-.19,71.463a6.314,6.314,0,0,1-.707,3.144A3.383,3.383,0,0,1,61.6,165h-.028C60.038,165.035,58.322,165.057,56.468,165.062Z" transform="translate(166.671 1.549) rotate(90)"/></svg>