<svg xmlns="http://www.w3.org/2000/svg" width="37.495" height="37.495" viewBox="0 0 37.495 37.495">
  <g id="Group_1537" data-name="Group 1537" transform="translate(-1039.617 -1325.142)">
    <g id="np_plus_923636_000000" transform="translate(1039.617 1325.142)">
      <path id="Path_1194" data-name="Path 1194" d="M76.031,49.078c-.034.131.059.19.068.306.171.1.243-.122.237-.287-.1,0-.2-.013-.306-.019Z" transform="translate(-44.628 -30.781)" fill="#ee324d"/>
      <path id="Path_1195" data-name="Path 1195" d="M68.738,51.66c.044.146.2.175.452.025C69.118,51.5,68.981,51.529,68.738,51.66Z" transform="translate(-40.884 -32.054)" fill="#ee324d"/>
      <path id="Path_1196" data-name="Path 1196" d="M49.47,37.614l-1.6-.336c.009-.281-.171-.175-.3-.059l-.8-.044c-.038-.209-.175-.268-.137-.414a.336.336,0,0,0-.234.093c-.044-.327-.277-.059-.418-.072-.087-.025-.175-.038-.262-.068a.7.7,0,0,0-.078-.1,1.714,1.714,0,0,0-.258-.116c-.122.044-.234.093-.355.127-.2-.408-.458.112-.723.063-.063-.053-.019-.165-.034-.253-.277-.034-.511.224-.767.106-.218.165-.486.068-.763.009-.028.1-.053.194-.084.3-.049-.006-.1-.006-.15-.009-.028-.146-.087-.18-.072-.253l-.272-.015c-.116-.068-.277-.253-.38-.127-.078.215-.3-.025-.38.228-.034,0-.053-.006-.078-.006-.087-.165-.228-.146-.359-.16.028-.18.059-.359.093-.539.006-.072.009-.15.015-.228-.015-.1.053-.218-.034-.3-.025-.087-.053-.184-.087-.272a.371.371,0,0,0,.063-.218c-.049-.084-.1-.16-.131-.234.019-.141.044-.277.063-.418.028-.19.063-.38.084-.57-.053-.019-.093-.025-.141-.044a.239.239,0,0,0-.028-.423,1.932,1.932,0,0,0-.038-.194c.009-.175.019-.349.028-.53.015-.228.025-.452.038-.68.053-.18-.034-.327-.116-.579-.019-.063-.025-.127-.044-.194.006-.078.009-.15.015-.228-.025-.127-.049-.258-.084-.384a.478.478,0,0,0-.072-.346c-.025-.146-.049-.281-.084-.423.009-.141.015-.277.025-.423-.006-.1.059-.262-.034-.3-.028-.087-.053-.184-.078-.272a1.391,1.391,0,0,0-.1-.156c-.131-.053-.253-.112-.384-.165a.955.955,0,0,0-.156-.044c-.175-.019-.359-.034-.539-.059,0-.038.006-.072.006-.112.068-.141.15-.272.218-.414a1.741,1.741,0,0,1-.194-.087c.087-.078.156-.209.059-.3a.385.385,0,0,0-.4.137c-.059-.049-.131-.106-.19-.156-.19.019-.423-.078-.554.093-.184-.038-.359-.084-.545-.127-.122-.243-.536-.16-.8.015-.237-.228-.414-.028-.646.053-.1-.006-.2-.006-.3-.009,0,.038-.006.078-.006.122-.093-.006-.2-.006-.3-.009-.087.053-.228.15-.355.218a.691.691,0,0,1-.1-.006c-.19.009-.028.349-.365.37.093.028.194.053.287.084-.237.175-.448.2-.558.327a.588.588,0,0,0,.281.171c-.006.063.137.028.249.009a2.527,2.527,0,0,1,.237.2c-.15.084-.234.078-.209.215.258.015.141.3.33.433-.009.15-.209.414.175.427a.558.558,0,0,0,.068.657c-.025.1-.122.165-.116.258a2.785,2.785,0,0,0,.087.346c-.028.3.184.427.16.657.025.112.049.234.072.346s.063.209.087.311c-.059.112-.063.218.084.384-.006.1-.009.2-.015.3s-.009.2-.015.3a.307.307,0,0,0,.072.384c-.006.053-.006.1-.009.16a.335.335,0,0,0,.028.414c.019.184.044.359.072.545-.171.093-.137.37-.028.53.006.087.019.175.028.262a.7.7,0,0,0-.059.461c-.068-.025-.141-.044-.209-.063a.485.485,0,0,0-.084.049c-.315-.049-.632-.1-.948-.156l-.228-.015c-.1.015-.218-.053-.3.034-.087.025-.184.053-.272.087a.371.371,0,0,0-.218-.063c-.084.049-.16.1-.234.131-.141-.019-.277-.044-.418-.063-.19-.028-.38-.063-.57-.084-.019.053-.025.093-.044.141a.239.239,0,0,0-.423.028,1.93,1.93,0,0,0-.194.038l-.53-.028c-.228-.015-.452-.025-.68-.038-.18-.053-.327.034-.579.116-.063.019-.127.025-.194.044l-.228-.015c-.127.025-.258.049-.384.084a.478.478,0,0,0-.346.072c-.146.025-.281.049-.423.084-.141-.009-.277-.015-.423-.025-.1.006-.262-.059-.3.034-.087.028-.184.053-.272.078a1.391,1.391,0,0,0-.156.1c-.053.131-.112.253-.165.384a.956.956,0,0,0-.044.156c-.019.175-.034.359-.059.539-.038,0-.072-.006-.112-.006-.141-.068-.272-.15-.414-.218a1.74,1.74,0,0,1-.087.194c-.078-.087-.209-.156-.3-.059a.385.385,0,0,0,.137.4c-.049.059-.106.131-.156.19.019.19-.078.423.093.554-.038.184-.084.359-.127.545-.243.122-.16.535.015.8-.228.237-.028.414.053.646-.006.1-.006.2-.009.3.038,0,.078.006.122.006-.006.093-.006.2-.009.3.053.087.15.228.218.355a.691.691,0,0,1-.006.1c.009.19.349.028.37.365.028-.093.053-.194.084-.287.175.237.2.448.327.558a.588.588,0,0,0,.171-.281c.063.006.028-.137.009-.249a2.527,2.527,0,0,1,.2-.237c.084.15.078.234.215.209.015-.258.3-.141.433-.33.15.009.414.209.427-.175a.558.558,0,0,0,.657-.068c.1.025.165.122.258.116a2.787,2.787,0,0,0,.346-.087c.3.028.427-.184.657-.16.112-.025.234-.049.346-.072s.209-.063.311-.087c.112.059.218.063.384-.084l.3.015.3.015a.307.307,0,0,0,.384-.072c.053.006.1.006.16.009a.335.335,0,0,0,.414-.028c.184-.019.359-.044.545-.072.093.171.37.137.53.028.087-.006.175-.019.262-.028.414.209.773-.1,1.187-.038.141-.1.359.019.5-.044.006.084.009.16.019.243a.412.412,0,0,1,.049.038c-.015.063.034.15-.063.19a4.512,4.512,0,0,0-.038,1.717c0,.414-.237.788.034,1.3,0,.038-.006.078-.006.112-.059.093-.112.18-.171.268-.006.078-.009.15-.015.228-.19.009-.141.106-.015.228.009.2.019.408.019.6-.006.078-.009.16-.015.228-.028.355-.068.714-.112,1.069.009.215.019.427.015.646a.9.9,0,0,1-.146.034c.006.078.025.15.038.234-.006.072-.009.15-.015.228a.192.192,0,0,0-.116.19c.1.034.194.078.3.122-.006.087-.009.184-.015.272-.028.127-.044.253-.072.38,0,.025-.006.049-.006.072a1.732,1.732,0,0,1-.068.268c.015.146.025.277.028.423-.019.15-.019.327.18.306.106-.038.2-.072.306-.1.053.184.418.141.549.019-.015-.127-.019-.253-.028-.384.038-.18.165-.33.131-.536-.068-.049-.131-.1-.2-.156.068-.127.249-.2.268-.336.028-.175.063-.355.084-.53.2-.184.038-.38.028-.573.053-.044.112-.1.165-.146.006-.1.009-.205.015-.311,0-.025.006-.049.006-.072-.015-.087-.028-.184-.038-.272a1.512,1.512,0,0,1,.442.093h.053c.1.084-.019.184.131.228.194.078.258-.141.6-.015-.175.311.044.573-.049.875a.988.988,0,0,0,.141.116c.1.006.2.006.3.009-.034.053-.1.165.044.19-.025.072-.038.127-.063.19-.116.053-.262.038-.359.146-.15.268.209.156.389.277-.165.006-.127.234-.015.311,0,.025-.006.049-.006.072l-.171.224c-.006.063-.006.127-.009.19.122.281-.427.049-.116.458.093.025.194.053.3.084,0,.038-.006.078-.006.122.034.1.084.2.131.306.038.209-.15.471.165.617.063-.215.127-.427.19-.646,0-.049.006-.1.009-.15.112-.53.224-1.06.336-1.6.281.009.175-.171.059-.3.015-.272.028-.53.044-.8.209-.038.268-.175.414-.137a.336.336,0,0,0-.093-.234c.327-.044.059-.277.072-.418.025-.087.038-.175.068-.262a.7.7,0,0,0,.1-.078,1.715,1.715,0,0,0,.116-.258c-.044-.122-.093-.234-.127-.355.408-.2-.112-.458-.063-.723.053-.063.165-.019.253-.034.034-.277-.224-.511-.106-.767-.165-.218-.068-.486-.009-.763-.1-.028-.194-.053-.3-.084.006-.049.006-.1.009-.15.146-.028.18-.087.253-.072.006-.087.009-.175.015-.272.068-.116.253-.277.127-.38-.215-.078.025-.3-.228-.38,0-.034.006-.053.006-.078.287-.15.015-.477.327-.6.044-.063.184-.346-.078-.262a2.353,2.353,0,0,1-.009-.739,3.445,3.445,0,0,0,1.268-.025c.414,0,.788.237,1.3-.034.038,0,.078.006.112.006.093.059.18.112.268.171l.228.015c.009.19.106.141.228.015.2-.009.408-.019.6-.019.078.006.16.009.228.015.355.028.714.068,1.069.112.215-.009.427-.019.646-.015a.9.9,0,0,1,.034.146c.078-.006.15-.025.234-.038l.228.015a.192.192,0,0,0,.19.116c.034-.1.078-.194.122-.3l.272.015c.127.028.253.044.38.072.025,0,.049.006.072.006a1.731,1.731,0,0,1,.268.068c.146-.015.277-.025.423-.028.15.019.327.019.306-.18-.038-.106-.072-.2-.1-.306.184-.053.141-.418.019-.549-.127.015-.253.019-.384.028-.18-.038-.33-.165-.536-.131-.049.068-.1.131-.156.2-.127-.068-.2-.249-.336-.268-.175-.028-.355-.063-.53-.084-.184-.2-.38-.038-.573-.028-.044-.053-.1-.112-.146-.165l-.311-.015c-.025,0-.049-.006-.072-.006-.087.015-.184.028-.272.038a1.512,1.512,0,0,1,.093-.442v-.053c.084-.1.184.019.228-.131.078-.194-.141-.258-.015-.6.311.175.573-.044.875.049a.989.989,0,0,0,.116-.141c.006-.1.006-.2.009-.3.053.034.165.1.19-.044.072.025.127.038.19.063.053.116.038.262.146.359.268.15.156-.209.277-.389.006.165.234.127.311.015.025,0,.049.006.072.006l.224.171c.063.006.127.006.19.009.281-.122.049.427.458.116.025-.093.053-.194.084-.3.038,0,.078.006.122.006.1-.034.2-.084.306-.131.209-.038.471.15.617-.165-.215-.063-.427-.127-.646-.19-.068-.013-.125-.017-.175-.023ZM29.087,39.861a2.513,2.513,0,0,0-.34.025A.6.6,0,0,1,29.087,39.861Zm.773.125a.157.157,0,0,1-.116.019A.865.865,0,0,0,29.86,39.986Zm.15-.165c.015-.059.072-.049.122-.049h-.006A.125.125,0,0,0,30.01,39.821Zm.205-.1v-.049a.317.317,0,0,0,.072.006A.481.481,0,0,0,30.215,39.724Zm5.75-9.286c.006-.1.009-.16.009-.224C35.974,30.288,35.971,30.36,35.965,30.438Zm1.172.463a.492.492,0,0,0,.019.116A.157.157,0,0,1,37.137,30.9Zm.234.387h0a.129.129,0,0,0-.049-.122C37.38,31.179,37.37,31.236,37.37,31.289Zm-.091-1.05a2.512,2.512,0,0,0-.025-.34A.57.57,0,0,1,37.279,30.239Zm.184,1.2a.715.715,0,0,0-.044-.068h.049A.255.255,0,0,0,37.463,31.441Zm-.875,3.295c.044.1.078.215.116.315C36.656,34.95,36.519,34.935,36.588,34.735Zm-7.529,6.428c.072.006.15.009.224.009C29.18,41.167,29.121,41.167,29.059,41.163Zm4.519-.608c.1-.044.215-.078.315-.116C33.8,40.487,33.783,40.624,33.578,40.556Z" transform="translate(-18.937 -19.521)" fill="#7e2088"/>
      <path id="Path_1197" data-name="Path 1197" d="M52.723,77.274c-.1.171.122.243.287.237.006-.1.009-.205.015-.311-.131-.032-.19.065-.3.074Z" transform="translate(-32.641 -45.229)" fill="#ee324d"/>
      <path id="Path_1198" data-name="Path 1198" d="M50.531,70.374c.18-.072.156-.209.025-.452C50.4,69.966,50.375,70.12,50.531,70.374Z" transform="translate(-31.475 -41.493)" fill="#ee324d"/>
      <path id="Path_1199" data-name="Path 1199" d="M87.422,47.193c.006.194,0,.365.009.5a2.391,2.391,0,0,0,.044.34c.038.175.087.253.131.249-.006-.237-.009-.471-.015-.71l-.006-.18c0-.059-.006-.116-.009-.175-.009-.116-.015-.237-.025-.355-.076-.156-.072.273-.129.33Z" transform="translate(-50.486 -29.625)" fill="#ee324d"/>
      <path id="Path_1200" data-name="Path 1200" d="M71.923,21.105c-.087-.084-.194-.171-.321-.272-.063-.049-.131-.1-.209-.16-.019-.015-.038-.028-.059-.044a.23.23,0,0,0-.063-.038c-.044-.028-.087-.053-.131-.084-.087-.059-.184-.116-.287-.184s-.209-.137-.327-.2a3.037,3.037,0,0,0,.5.427c.068.049.141.1.224.156s.165.122.253.19.19.137.292.209c.053.038.106.072.16.112s.106.084.16.122c-.025-.034-.053-.072-.084-.112a.6.6,0,0,0-.11-.123Z" transform="translate(-41.803 -15.903)" fill="#ee324d"/>
      <path id="Path_1201" data-name="Path 1201" d="M48.879,31.063a2.467,2.467,0,0,0-.137.583c-.006-.112-.015-.237-.019-.359-.006-.063-.006-.122-.009-.18,0-.028-.006-.059-.006-.087s-.006-.059-.009-.087c-.049.038-.1-.049-.15-.053-.025,0-.049.019-.072.087a2.443,2.443,0,0,0-.087.37c-.038-.087-.078-.18-.116-.277-.019-.049-.038-.1-.063-.15s-.044-.1-.063-.15c-.034-1.065-.253-.691-.408.049-.049-.5-.1-.524-.156-.389s-.112.427-.18.592a1.538,1.538,0,0,1-.15-.049c-.015.165-.028.33-.038.492-.049-.015-.1-.034-.15-.053-.015.053-.034.116-.053.19s-.038.15-.063.228c-.053.16-.106.321-.156.452a.244.244,0,0,0-.049-.019c-.025.006-.049.1-.072.228s-.068.306-.1.48c-.068.349-.184.695-.272.72.025.116.044.234.068.349a5.791,5.791,0,0,1-.355.657c-.044.078-.1.146-.141.224a2.047,2.047,0,0,0-.146.277,3.1,3.1,0,0,0-.1.676c-.093.234.019.131.106.078-.028.131-.053.258-.087.384s-.072.258-.116.4c-.106.137-.16.2-.228.287a2.328,2.328,0,0,0-.253.452c.019.028.006.116-.044.234s-.127.262-.209.423l-.131.249c-.049.084-.1.165-.141.243a3.975,3.975,0,0,0-.228.442c-.349.511-1.094,1.287-.987,1.443-.646.67-1.43,1.458-1.876,1.92a4.105,4.105,0,0,1-.442.315c-.068.044-.137.093-.205.141l-.218.16c-.2.146-.384.292-.573.433s-.384.262-.573.393c-.268.156-.5.287-.7.414s-.389.224-.564.327c-.044.025-.087.053-.131.078s-.087.044-.131.068c-.087.044-.175.087-.268.137s-.184.093-.281.137-.205.084-.315.127c-.215.093-.433.19-.661.268-.112.044-.224.084-.336.127-.053.019-.112.038-.165.063s-.112.034-.165.053c-.205.068-.414.137-.617.2s-.418.112-.627.165l-.171.028c-.059.009-.116.015-.175.025-.116.019-.237.038-.359.063-.253.059-.53.1-.866.184-.194.028-.4.034-.613.053-.106.009-.209.015-.315.025l-.078.006H31.8l-.16.006c-.215.006-.423.009-.627.009s-.414-.015-.627-.019l-.18-.015c-.059-.006-.122-.015-.18-.019-.122-.015-.243-.025-.374-.028-.258-.009-.536-.034-.86-.038-.228-.025-.423-.068-.651-.106-.078-.025-.19-.053-.327-.084-.068-.015-.141-.034-.218-.053L27.359,46l-.243-.053a1.876,1.876,0,0,1-.237-.053,4.146,4.146,0,0,0-.418-.084c-.093-.025-.184-.049-.277-.072s-.18-.059-.268-.087c-.18-.059-.359-.112-.536-.175-.349-.137-.7-.253-1.056-.414a2.406,2.406,0,0,0-.355-.209c-.15-.087-.327-.184-.515-.277s-.38-.205-.57-.3c-.093-.049-.184-.1-.272-.141s-.165-.093-.243-.131c-.156-.1-.311-.194-.467-.292l-.452-.311c-.044-.034-.084-.068-.127-.1s-.084-.068-.127-.1c-.084-.068-.16-.137-.243-.205-.16-.137-.327-.262-.477-.4s-.311-.268-.467-.4-.3-.272-.448-.408A13.055,13.055,0,0,1,17.9,39.948a8.184,8.184,0,0,1-.739-1.056c-.059-.1-.122-.19-.175-.281s-.106-.18-.156-.262a3.04,3.04,0,0,0-.277-.4,16.519,16.519,0,0,1-.963-2.169c-.063-.19-.127-.374-.184-.554-.028-.093-.063-.18-.087-.268s-.053-.175-.078-.262c-.053-.175-.106-.34-.156-.5s-.087-.315-.131-.458c-.019-.087-.038-.184-.063-.281s-.038-.2-.053-.3a3.212,3.212,0,0,1-.059-.5c-.034-.2-.068-.393-.1-.592-.015-.1-.034-.194-.044-.3s-.019-.2-.028-.3-.019-.2-.028-.3-.019-.2-.025-.3c-.006-.2-.015-.393-.019-.592a14.776,14.776,0,0,1,.15-2.368c.015-.1.025-.194.038-.3s.034-.194.053-.292c.038-.194.072-.393.112-.589s.093-.389.141-.583l.034-.146c.015-.049.028-.1.044-.146.028-.1.059-.194.084-.292s.059-.194.084-.292a1.472,1.472,0,0,1,.049-.146l.049-.146c.068-.194.131-.389.2-.583s.15-.389.228-.583c.019-.049.038-.1.059-.146l.063-.146c.044-.1.084-.194.127-.292a1.618,1.618,0,0,1,.049-.171c.053-.122.127-.262.194-.393a1.375,1.375,0,0,1,.19-.3c.063-.122.137-.237.209-.359s.146-.243.224-.37c.034-.063.078-.127.116-.184s.084-.122.127-.184c.084-.127.165-.253.253-.38s.184-.249.277-.374.18-.253.281-.374c.2-.243.393-.5.608-.735l.311-.355c.106-.112.218-.228.327-.34.209-.234.442-.437.657-.651.053-.053.106-.106.165-.156s.112-.1.165-.146c.112-.1.218-.194.327-.292.053-.049.106-.093.16-.137l.16-.131c.106-.087.209-.175.306-.258a16.117,16.117,0,0,1,2.188-1.343l.6-.3c.205-.093.418-.19.632-.292.028-.015.053-.025.084-.038s.053-.025.084-.034c.053-.025.112-.049.165-.072.112-.049.224-.1.34-.146.059-.025.116-.053.175-.078a1.69,1.69,0,0,1,.18-.068c.122-.049.243-.1.365-.15.078-.025.156-.053.234-.072s.15-.038.215-.059c.194-.038.38-.078.558-.112s.359-.053.539-.078a.36.36,0,0,1,.044-.009c.068-.015.131-.028.194-.044.078-.015.156-.025.234-.038.156-.028.311-.053.477-.084a.13.13,0,0,0,.1.034.787.787,0,0,0,.209-.015c.171-.025.393-.078.646-.137a18.1,18.1,0,0,1,2.527-.068c.165.015.33.028.492.038.084.006.16.015.237.019.038.006.078.006.116.015s.078.009.112.015l.554.078a2.358,2.358,0,0,1,.277.049l.272.053c.37.063.723.16,1.088.249.18.049.355.106.535.156l.268.078c.087.028.175.063.262.093l.524.184.515.209a16.417,16.417,0,0,1,2.4,1.2.889.889,0,0,1,.084.141c.141.087.272.171.408.253.068.038.131.087.2.131s.131.093.205.137c.059.044.122.087.184.131s.127.093.19.141c.127.1.253.205.384.306a1.139,1.139,0,0,0,.131.141c.044.049.087.093.137.141.093.093.19.175.292.262.072.028.15.063.228.1s.16.084.243.127c.068.063.131.127.2.194s.141.131.205.2c.131.141.262.277.384.408.093.1.171.2.258.3l.253.306c.087.1.165.209.243.311l.237.315c.028.038.063.078.093.116l.087.122c.1.15.205.306.311.461a.6.6,0,0,1,.072.122c.025.038.049.084.072.122.049.078.093.16.141.237a15.7,15.7,0,0,1,.87,1.521c.019.034.034.068.053.106s.034.072.049.106c.034.072.063.146.1.215.063.141.127.272.184.384.1.228.184.374.218.321-.006-.16-.015-.327-.015-.458.311.71.418.477.287-.038-.116-.249-.228-.5-.346-.744s-.253-.486-.38-.729c-.093-.171-.18-.336-.262-.5l-.127-.243c-.044-.078-.093-.156-.137-.237-.093-.16-.184-.321-.292-.486s-.228-.33-.365-.511L44.557,20a1.37,1.37,0,0,0-.122-.112l-.258-.243c-.15-.224-.268-.4-.389-.589-.063-.093-.122-.184-.194-.281a3.348,3.348,0,0,0-.258-.3l-.19-.209c-.063-.068-.127-.141-.194-.209-.137-.137-.272-.272-.408-.4l-.1-.1-.106-.1c-.072-.063-.141-.127-.215-.194-.141-.127-.281-.258-.433-.374-.141-.141-.292-.277-.452-.414s-.33-.243-.505-.359-.349-.224-.53-.33-.355-.218-.539-.315c-.16-.122-.346-.268-.511-.384-.2-.1-.4-.209-.6-.311-.1-.053-.2-.1-.3-.146l-.306-.141c-.093-.044-.184-.087-.281-.127-.359-.131-.748-.287-1.113-.4.025-.034.049-.072.461-.078l.015-.025a5.084,5.084,0,0,1,.535.184c.084.034.165.063.234.084a.582.582,0,0,0,.184.044c.175.025.044-.068-.059-.16-.049-.049-.1-.087-.087-.116s.063-.044.215-.025c.156.084.311.16.461.234.078.038.15.072.224.112l.218.116c.146.078.292.15.433.224.072.034.141.078.215.116l.209.116c.141.078.281.15.418.234s.272.171.408.253a9.662,9.662,0,0,1,.807.564c.171.084.327.184.458.258.044-.034.084-.063.127-.093.093.084.228.209.365.315a1.067,1.067,0,0,0,.327.224c.116.112.224.209.327.3s.194.194.292.3a1.388,1.388,0,0,1,.106.234,1.848,1.848,0,0,0,.243.365c.194.228.327.37.418.461a.6.6,0,0,0,.2.15.73.73,0,0,1,.365.175c-.015.015.019.078.084.165l.053.068c.019.025.038.053.059.078.038.053.087.112.137.175.1.122.2.249.3.355.049.053.093.106.131.156a1.144,1.144,0,0,0,.106.116c.063.087.127.175.184.268.044.078.093.15.131.224s.078.15.116.224c.078.15.156.3.237.452.038.059.072.122.112.184l.106.19c.072.127.141.253.215.374.044.068.078.131.106.184s.053.1.078.146a1.2,1.2,0,0,1,.087.205.827.827,0,0,1,.044.224,1.121,1.121,0,0,0,.028.116,1.389,1.389,0,0,0,.072.194c.034.084.087.184.156.321.034.068.072.141.116.224s.087.18.141.281c.087.1.18.19.277.287.028.084.068.171.1.253s.059.171.087.258c.044.112.084.218.127.33.019.053.044.106.063.16l.059.165c.072.218.146.437.224.667.063.228.116.477.171.729.015.063.028.127.038.19l.028.19c.019.127.044.253.063.38.009.063.025.122.034.184s.025.122.028.18c.019.116.038.234.059.34s.044.215.068.311.053.184.078.268a18.931,18.931,0,0,0-.433-2.941c-.059-.215-.127-.461-.184-.67a18.079,18.079,0,0,0-3.412-6.513c.068-.028-.044-.194-.234-.4a1.524,1.524,0,0,0-.156-.16c-.059-.053-.116-.112-.175-.165-.122-.112-.249-.224-.365-.321a18.33,18.33,0,0,0-2.883-2.377c-.1-.194-.617-.554-.437-.524-.175-.106-.34-.194-.505-.277a5.139,5.139,0,0,0-.477-.224.65.65,0,0,0-.237-.205c-.063-.038-.131-.078-.209-.116a2.516,2.516,0,0,0-.249-.116c-.355-.146-.767-.306-1.084-.427l-.281-.122-.141-.059c-.049-.019-.093-.038-.141-.059-.194-.072-.384-.141-.579-.215a3.261,3.261,0,0,0-.33-.156c-.194-.068-.389-.131-.583-.2l-.146-.049L35.581,12l-.3-.084c-.141-.025-.281-.053-.418-.078s-.277-.038-.414-.059c-.277-.034-.549-.084-.836-.1-.116-.038-.234-.072-.359-.1-.063-.015-.127-.028-.19-.038l-.1-.015c-.034-.006-.068-.006-.1-.009-.268-.025-.549-.034-.841-.038s-.592.025-.9.038c-.078,0-.156.009-.234.015l-.234.015c-.156.009-.315.015-.471.015a.624.624,0,0,1-.141-.019c-.025-.009-.028-.019-.025-.028.006-.025.038-.049.009-.068-.165.009-.327.025-.486.034-.078.009-.156.015-.234.019s-.156.015-.234.028c-.306.049-.6.1-.894.15s-.579.127-.87.18c-.287.068-.579.131-.885.19-.249.087-.511.175-.782.262-.137.038-.272.093-.414.141s-.281.1-.427.146-.292.1-.437.156-.3.112-.448.165l-.112.044L23.705,13c-.072.028-.15.063-.224.093-.15.063-.3.127-.452.194-.093.1-.184.205-.277.306-.1.049-.209.106-.315.16-.053.028-.106.053-.16.084s-.1.059-.15.084c-.146,0-.414.131-.355.059-.365.2-.71.427-1.094.67-.237.146-.524.311-.8.48a4.878,4.878,0,0,0-.68.539,4.376,4.376,0,0,1-.651.627,3.454,3.454,0,0,0-.613.67c-.106.106-.184.19-.262.272a2.963,2.963,0,0,0-.237.19,2.915,2.915,0,0,0-.262.253c-.175.184-.359.393-.539.608s-.34.427-.5.613a3.581,3.581,0,0,1-.408.448c-.049.059-.137.165-.234.3s-.2.281-.292.423a2.625,2.625,0,0,0-.194.33c-.028.072-.019.1.059.028-.084.156-.165.306-.243.448-.038.072-.078.141-.116.215-.019.034-.038.068-.059.1s-.034.068-.053.1c-.068.137-.141.272-.209.408-.034.068-.068.131-.1.2l-.053.1a.842.842,0,0,1-.049.1c-.063.137-.127.272-.19.408-.034.068-.063.141-.1.209-.015.034-.034.072-.049.106s-.028.072-.044.112l-.184.458c-.028.078-.063.16-.1.243s-.059.171-.087.258a2.113,2.113,0,0,1-.15.592c-.087.268-.19.583-.268.832-.038.131-.063.277-.1.423s-.063.3-.1.452-.063.315-.093.48-.059.33-.087.5c-.015.084-.028.171-.038.253s-.025.171-.034.258c-.025.171-.053.346-.078.515s-.038.346-.059.515c-.009.087-.019.171-.034.253s-.025.171-.028.253c.084.6.078.826-.053.9.038.427.063.667.078.889.006.112.019.215.025.33s.009.253.015.423c.072.5.19,1.362.237,1.8a.409.409,0,0,1,.1.215c.015.059.028.122.044.194s.034.15.049.234c.028.165.059.34.093.515s.072.336.112.471c.009.106.025.228.044.346.009.059.015.122.025.175s.019.116.028.171c.1.327.15.349.194.389a.248.248,0,0,1,.078.106,1.307,1.307,0,0,1,.053.137c.019.059.049.131.078.224.059.141.116.281.175.423l.087.209.1.209a4.277,4.277,0,0,1,.249.52c.044.116.106.249.175.4s.146.34.234.554c.112.2.243.427.355.627.068.137.146.262.224.393l.234.389c.072.131.16.258.243.384l.253.38c.1.122.175.209.253.3l.346.452c.059.078.116.15.18.224l.368.437.093.106c.028.034.063.068.1.106l.384.418c.127.141.262.272.4.408s.272.268.408.4l.423.384.215.19c.072.063.146.122.218.18.137.106.277.218.423.336.072.059.15.112.224.171s.156.112.234.165c.1.072.209.146.311.224s.215.146.321.215.209.137.311.194a2.918,2.918,0,0,0,.287.156c.19.1.384.205.579.311.049.025.1.053.146.078s.1.049.15.068c.1.049.2.093.3.137.072.044.146.087.224.131.038.019.078.044.116.063s.084.038.122.059c.16.078.327.156.486.224l.272.1c.093.028.184.059.272.087l.524.171c.16.063.321.116.477.171s.315.112.471.165l.477.146c.078.025.16.049.243.072.038.009.084.025.122.034l.122.028.667.165c.053.015.112.028.165.038l.171.034.336.068.336.063c.112.019.224.034.34.053.228.034.452.063.68.093.087-.019.131-.034.218-.053.137.028.3.059.486.084.093.009.184.025.281.028s.194.009.292.009c.194.006.384.006.549-.006a1.58,1.58,0,0,0,.228-.025c.068-.009.131-.025.18-.034.306-.015.613-.019.919-.059l.627-.044c.209-.019.418-.049.627-.072.106-.015.209-.025.315-.038s.209-.034.315-.053c.209-.038.423-.072.642-.112A19.114,19.114,0,0,0,38,47.569a12.278,12.278,0,0,0,2.455-1.253c.131-.084.262-.156.389-.237l.38-.258c.327-.2.6-.4.91-.617.063-.049.122-.087.184-.137l.175-.146.355-.292c.122-.1.234-.2.346-.3l.34-.311a9.81,9.81,0,0,0,1.143-1.172c.059-.063.116-.127.171-.19s.106-.127.165-.19c.106-.127.215-.258.321-.384s.209-.258.306-.393.2-.268.3-.408c.053-.063.1-.137.15-.205l.146-.205c.1-.137.194-.268.287-.4s.18-.277.272-.414c.044-.068.093-.141.137-.209.025-.034.044-.072.068-.106s.044-.072.063-.112c.122-.215.281-.477.418-.714a3.817,3.817,0,0,0,.258-.554c.093-.19.175-.389.258-.592.044-.1.084-.205.127-.3.019-.049.038-.1.063-.15s.034-.1.053-.15c.072-.218.156-.471.224-.695.019-.253.049-.539.063-.788a.928.928,0,0,0-.009-.218c-.059-.122-.131-.209-.19-.33.049-.175.093-.315.141-.492.1-.306.18-.613.272-.913.072-.306.15-.613.218-.929-.015-.122-.034-.249-.049-.4.025-.087.044-.19.068-.3.009-.053.025-.112.034-.175s.015-.122.025-.184a4.726,4.726,0,0,0,.034-.714c-.11-.021-.144-.032-.188.046Zm-5.82,10.981a13.281,13.281,0,0,0,.913-1.016A7.913,7.913,0,0,1,43.059,42.045ZM39.225,45.06c-.068.038-.137.072-.2.106a.677.677,0,0,0-.087.049c.093-.059.184-.116.272-.175-.009.008-.006.019.015.019Zm.665-.452a.655.655,0,0,1-.053.044.714.714,0,0,1-.068.044c-.049.028-.106.063-.165.093a1.035,1.035,0,0,0-.106.063.067.067,0,0,1,.015-.009,2.626,2.626,0,0,0,.365-.228l.068-.053c-.011.008-.03.027-.055.047Zm.551-.473c.112-.087.237-.19.408-.3-.112.078-.218.16-.33.243A.4.4,0,0,1,40.44,44.135Zm2.176-2.577a.4.4,0,0,1,.049-.049Zm-.023.03-.006.006S42.594,41.589,42.594,41.589Zm-.2.19-.4.374c.156-.146.277-.262.384-.359.044-.038.084-.078.122-.116C42.466,41.711,42.428,41.745,42.394,41.779ZM24.383,45.351c.044.015.087.028.141.049s.106.038.175.063c.131.049.292.112.505.209-.228-.078-.461-.156-.695-.243-.194-.078-.393-.156-.583-.234.19.074.306.1.458.156Z" transform="translate(-11.89 -11.439)" fill="#7e2088"/>
      <path id="Path_1202" data-name="Path 1202" d="M47.193,12.383c.194-.006.365,0,.5-.009a2.39,2.39,0,0,0,.34-.044c.175-.038.253-.087.249-.131l-.71.015-.18.006c-.059,0-.116.006-.175.009-.116.009-.237.015-.355.025-.156.076.273.072.33.129Z" transform="translate(-29.625 -11.83)" fill="#ee324d"/>
      <path id="Path_1203" data-name="Path 1203" d="M21.105,26.4c-.084.087-.171.194-.272.321-.049.063-.1.131-.16.209-.015.019-.028.038-.044.059a.23.23,0,0,0-.038.063c-.028.044-.053.087-.084.131-.059.087-.116.184-.184.287s-.137.209-.2.327a3.038,3.038,0,0,0,.427-.5c.049-.068.1-.141.156-.224s.122-.165.19-.253.137-.19.209-.292c.038-.053.072-.106.112-.16s.084-.106.122-.16l-.112.084a.6.6,0,0,0-.123.11Z" transform="translate(-15.903 -19.026)" fill="#ee324d"/>
      <path id="Path_1204" data-name="Path 1204" d="M31.063,12.267a2.468,2.468,0,0,0,.583.137c-.112.006-.237.015-.359.019-.063.006-.122.006-.18.009-.028,0-.059.006-.087.006s-.059.006-.087.009c.038.049-.049.1-.053.15,0,.025.019.049.087.072a2.443,2.443,0,0,0,.37.087c-.087.038-.18.078-.277.116-.049.019-.1.038-.15.063s-.1.044-.15.063c-1.065.034-.691.253.049.408-.5.049-.524.1-.389.156s.427.112.592.18a1.538,1.538,0,0,1-.049.15c.165.015.33.028.492.038-.015.049-.034.1-.053.15.053.015.116.034.19.053s.15.038.228.063c.16.053.321.106.452.156a.244.244,0,0,0-.019.049c.006.025.1.049.228.072s.306.068.48.1c.349.068.695.184.72.272.116-.025.234-.044.349-.068a5.791,5.791,0,0,1,.657.355c.078.044.146.1.224.141a2.046,2.046,0,0,0,.277.146,3.1,3.1,0,0,0,.676.1c.234.093.131-.019.078-.106.131.028.258.053.384.087s.258.072.4.116c.137.106.2.16.287.228a2.329,2.329,0,0,0,.452.253c.028-.019.116-.006.234.044s.262.127.423.209l.249.131c.084.049.165.1.243.141a3.976,3.976,0,0,0,.442.228c.511.349,1.287,1.094,1.443.987.67.646,1.458,1.43,1.92,1.876a4.106,4.106,0,0,1,.315.442c.044.068.093.137.141.205l.16.218c.146.2.292.384.433.573s.262.384.393.573c.156.268.287.5.414.7s.224.389.327.564c.025.044.053.087.078.131s.044.087.068.131c.044.087.087.175.137.268s.093.184.137.281.084.205.127.315c.093.215.19.433.268.661.044.112.084.224.127.336.019.053.038.112.063.165s.034.112.053.165c.068.205.137.414.2.617s.112.418.165.627c.01.059.019.112.028.171s.015.116.025.175c.019.116.038.237.063.359.059.253.1.53.184.866.028.194.034.4.053.613.009.106.015.209.025.315l.006.078v.084l.006.16c.006.215.009.423.009.627s-.015.414-.019.627c-.006.063-.009.122-.015.18s-.015.122-.019.18c-.015.122-.025.243-.028.374-.009.258-.034.536-.038.86-.025.228-.068.423-.106.651-.025.078-.053.19-.084.327-.015.068-.034.141-.053.218s-.038.156-.059.237-.034.16-.053.243a1.876,1.876,0,0,1-.053.237,4.146,4.146,0,0,0-.084.418c-.025.093-.049.184-.072.277s-.059.18-.087.268c-.059.18-.112.359-.175.536-.137.349-.253.7-.414,1.056a2.4,2.4,0,0,0-.209.355c-.087.15-.184.327-.277.515s-.205.38-.3.57c-.049.093-.1.184-.141.272s-.093.165-.131.243c-.1.156-.194.311-.292.467s-.209.3-.311.452c-.034.044-.068.084-.1.127s-.068.084-.1.127c-.068.084-.137.16-.205.243-.137.16-.262.327-.4.477s-.268.311-.4.467-.272.3-.408.448a13.055,13.055,0,0,1-1.832,1.658,8.184,8.184,0,0,1-1.056.739c-.1.059-.19.122-.281.175s-.18.106-.262.156a3.041,3.041,0,0,0-.4.277,16.518,16.518,0,0,1-2.169.963c-.19.063-.374.127-.554.184-.093.028-.18.063-.268.087s-.175.053-.262.078c-.175.053-.34.106-.5.156s-.315.087-.458.131c-.087.019-.184.038-.281.063s-.2.038-.3.053a3.212,3.212,0,0,1-.5.059c-.2.034-.393.068-.592.1-.1.015-.194.034-.3.044l-.3.028-.3.028c-.1.009-.2.019-.3.025-.2.006-.393.015-.592.019a14.775,14.775,0,0,1-2.368-.15c-.1-.015-.194-.025-.3-.038s-.194-.034-.292-.053c-.194-.038-.393-.072-.589-.112s-.389-.093-.583-.141l-.146-.034-.146-.044c-.1-.028-.194-.059-.292-.084s-.194-.059-.292-.084a1.474,1.474,0,0,1-.146-.049l-.146-.049c-.194-.068-.389-.131-.583-.2s-.389-.15-.583-.228c-.049-.019-.1-.038-.146-.059l-.146-.063c-.1-.044-.194-.084-.292-.127a1.617,1.617,0,0,1-.171-.049c-.122-.053-.262-.127-.393-.194a1.375,1.375,0,0,1-.3-.19c-.122-.063-.237-.137-.359-.209s-.243-.146-.37-.224c-.063-.034-.127-.078-.184-.116s-.122-.084-.184-.127c-.127-.084-.253-.165-.38-.253s-.249-.184-.374-.277-.253-.18-.374-.281c-.243-.2-.5-.393-.735-.608l-.355-.311c-.112-.106-.228-.218-.34-.327-.234-.209-.437-.442-.651-.657-.053-.053-.106-.106-.156-.165s-.1-.112-.146-.165c-.1-.112-.194-.218-.292-.327-.049-.053-.093-.106-.137-.16l-.131-.16c-.087-.106-.175-.209-.258-.306A16.116,16.116,0,0,1,15.607,37.8c-.1-.194-.194-.393-.3-.6s-.19-.418-.292-.632c-.015-.028-.025-.053-.038-.084s-.025-.053-.034-.084c-.025-.053-.049-.112-.072-.165-.049-.112-.1-.224-.146-.34-.025-.059-.053-.116-.078-.175a1.69,1.69,0,0,1-.068-.18c-.049-.122-.1-.243-.15-.365-.025-.078-.053-.156-.072-.234s-.038-.15-.059-.215c-.038-.194-.078-.38-.112-.558s-.053-.359-.078-.539a.36.36,0,0,1-.009-.044c-.015-.068-.028-.131-.044-.194-.015-.078-.025-.156-.038-.234-.028-.156-.053-.311-.084-.477a.13.13,0,0,0,.034-.1.787.787,0,0,0-.015-.209c-.025-.171-.078-.393-.137-.646A18.1,18.1,0,0,1,13.75,29.2c.015-.165.028-.33.038-.492.006-.084.015-.16.019-.237.006-.038.006-.078.015-.116s.009-.078.015-.112l.078-.554a2.358,2.358,0,0,1,.049-.277l.053-.272c.063-.37.16-.723.249-1.088.049-.18.106-.355.156-.536l.078-.268c.028-.087.063-.175.093-.262l.184-.524.209-.515a16.417,16.417,0,0,1,1.2-2.4.889.889,0,0,1,.141-.084c.087-.141.171-.272.253-.408.038-.068.087-.131.131-.2s.093-.131.137-.205c.044-.059.087-.122.131-.184s.093-.127.141-.19c.1-.127.205-.253.306-.384a1.138,1.138,0,0,0,.141-.131c.049-.044.093-.087.141-.137.093-.093.175-.19.262-.292.028-.072.063-.15.1-.228s.084-.16.127-.243c.063-.068.127-.131.194-.2s.131-.141.2-.205c.141-.131.277-.262.408-.384.1-.093.2-.171.3-.258l.306-.253c.1-.087.209-.165.311-.243l.315-.237c.038-.028.078-.063.116-.093l.122-.087c.15-.1.306-.205.461-.311a.6.6,0,0,1,.122-.072c.038-.025.084-.049.122-.072.078-.049.16-.093.237-.141a15.7,15.7,0,0,1,1.521-.87c.034-.019.068-.034.106-.053l.106-.049c.072-.034.146-.063.215-.1.141-.063.272-.127.384-.184.228-.1.374-.184.321-.218-.16.006-.327.015-.458.015.71-.311.477-.418-.038-.287-.249.116-.5.228-.744.346l-.729.38c-.171.093-.336.18-.5.262l-.243.127c-.078.044-.156.093-.237.137-.16.093-.321.184-.486.292s-.33.228-.511.365L20,16.589a1.37,1.37,0,0,0-.112.122l-.243.258c-.224.15-.4.268-.589.389-.093.063-.184.122-.281.194a3.348,3.348,0,0,0-.3.258l-.209.19c-.068.063-.141.127-.209.194-.137.137-.272.272-.4.408l-.1.1-.1.106c-.063.072-.127.141-.194.215-.127.141-.258.281-.374.433-.141.141-.277.292-.414.452s-.243.33-.359.505-.224.349-.33.53-.218.355-.315.539c-.122.16-.268.346-.384.511-.1.2-.209.4-.311.6-.053.1-.1.2-.146.3l-.141.306c-.044.093-.087.184-.127.281-.131.359-.287.748-.4,1.113-.034-.025-.072-.049-.078-.461l-.025-.015a5.085,5.085,0,0,1,.184-.536c.034-.084.063-.165.084-.234a.582.582,0,0,0,.044-.184c.025-.175-.068-.044-.16.059-.049.049-.087.1-.116.087s-.044-.063-.025-.215c.084-.156.16-.311.234-.461.038-.078.072-.15.112-.224l.116-.218c.078-.146.15-.292.224-.433.034-.072.078-.141.116-.215l.116-.209c.078-.141.15-.281.234-.418s.171-.272.253-.408a9.661,9.661,0,0,1,.564-.807c.084-.171.184-.327.258-.458-.034-.044-.063-.084-.093-.127.084-.093.209-.228.315-.365a1.067,1.067,0,0,0,.224-.327c.112-.116.209-.224.3-.327s.194-.194.3-.292a1.387,1.387,0,0,1,.234-.106,1.849,1.849,0,0,0,.365-.243c.228-.194.37-.327.461-.418a.6.6,0,0,0,.15-.2.73.73,0,0,1,.175-.365c.015.015.078-.019.165-.084l.068-.053c.025-.019.053-.038.078-.059.053-.038.112-.087.175-.137.122-.1.249-.2.355-.3.053-.049.106-.093.156-.131a1.144,1.144,0,0,0,.116-.106c.087-.063.175-.127.268-.184.078-.044.15-.093.224-.131s.15-.078.224-.116l.452-.237c.059-.038.122-.072.184-.112l.19-.106c.127-.072.253-.141.374-.215.068-.044.131-.078.184-.106s.1-.053.146-.078a1.2,1.2,0,0,1,.205-.087.827.827,0,0,1,.224-.044,1.12,1.12,0,0,0,.116-.028,1.387,1.387,0,0,0,.194-.072c.084-.034.184-.087.321-.156.068-.034.141-.072.224-.116s.18-.087.281-.141c.1-.087.19-.18.287-.277.084-.028.171-.068.253-.1s.171-.059.258-.087l.33-.127c.053-.019.106-.044.16-.063l.165-.059c.218-.072.437-.146.667-.224.228-.063.477-.116.729-.171.063-.015.127-.028.19-.038l.19-.028c.127-.019.253-.044.38-.063.063-.009.122-.025.184-.034s.122-.025.18-.028c.116-.019.234-.038.34-.059s.215-.044.311-.068.184-.053.268-.078a18.931,18.931,0,0,0-2.941.433l-.67.184a18.079,18.079,0,0,0-6.513,3.412c-.028-.068-.194.044-.4.234a1.523,1.523,0,0,0-.16.156c-.053.059-.112.116-.165.175-.112.122-.224.249-.321.365a18.33,18.33,0,0,0-2.377,2.883c-.194.1-.554.617-.524.437-.106.175-.194.34-.277.505a5.139,5.139,0,0,0-.224.477.65.65,0,0,0-.205.237c-.038.063-.078.131-.116.209a2.517,2.517,0,0,0-.116.249c-.146.355-.306.767-.427,1.084l-.122.281-.059.141c-.019.049-.038.093-.059.141-.072.194-.141.384-.215.579a3.261,3.261,0,0,0-.156.33c-.068.194-.131.389-.2.583l-.049.146c-.015.049-.028.1-.044.146l-.084.3c-.025.141-.053.281-.078.418s-.038.277-.059.414c-.034.277-.084.549-.1.836-.038.116-.072.234-.1.359-.015.063-.028.127-.038.19-.006.034-.009.063-.015.1s-.006.068-.009.1c-.025.268-.034.549-.038.841s.025.592.038.9c0,.078.009.156.015.234s.009.156.015.234c.009.156.015.315.015.471a.624.624,0,0,1-.019.141c-.009.025-.019.028-.028.025-.025-.006-.049-.038-.068-.009.009.165.025.327.034.486.009.078.015.156.019.234s.015.156.028.234c.049.306.1.6.15.894s.127.579.18.87c.068.287.131.579.19.885.087.249.175.511.262.782.038.137.093.272.141.414s.1.281.146.427.1.292.156.437.112.3.165.448l.044.112.049.112c.028.072.063.15.093.224.063.15.127.3.194.452.1.093.205.184.306.277.049.1.106.209.16.315.028.053.053.106.084.16s.059.1.084.15c0,.146.131.414.059.355.2.365.427.71.67,1.094.146.237.311.524.48.8a4.878,4.878,0,0,0,.539.68,4.376,4.376,0,0,1,.627.651,3.454,3.454,0,0,0,.67.613c.106.106.19.184.272.262a2.963,2.963,0,0,0,.19.237,2.915,2.915,0,0,0,.253.262c.184.175.393.359.608.539s.427.34.613.5a3.581,3.581,0,0,1,.448.408c.059.049.165.137.3.234s.281.2.423.292a2.625,2.625,0,0,0,.33.194c.072.028.1.019.028-.059l.448.243c.072.038.141.078.215.116.034.019.068.038.1.059s.068.034.1.053c.137.068.272.141.408.209l.2.1.1.053a.842.842,0,0,1,.1.049l.408.19c.068.034.141.063.209.1l.106.049c.034.015.072.028.112.044l.458.184c.078.028.16.063.243.1s.171.059.258.087a2.113,2.113,0,0,1,.592.15c.268.087.583.19.832.268.131.038.277.063.423.1s.3.063.452.1.315.063.48.093.33.059.5.087c.084.015.171.028.253.038s.171.025.258.034c.171.025.346.053.515.078s.346.038.515.059c.087.009.171.019.253.034s.171.025.253.028c.6-.084.826-.078.9.053.427-.038.667-.063.889-.078.112-.006.215-.019.33-.025s.253-.009.423-.015c.5-.072,1.362-.19,1.8-.237a.409.409,0,0,1,.215-.1c.059-.015.122-.028.194-.044s.15-.034.234-.049c.165-.028.34-.059.515-.093s.336-.072.471-.112c.106-.009.228-.025.346-.044.059-.01.122-.015.175-.025l.171-.028c.327-.1.349-.15.389-.194a.248.248,0,0,1,.106-.078,1.308,1.308,0,0,1,.137-.053c.059-.019.131-.049.224-.078l.423-.175.209-.087.209-.1a4.277,4.277,0,0,1,.52-.249c.116-.044.249-.106.4-.175s.34-.146.554-.234l.627-.355c.137-.068.262-.146.393-.224l.389-.234c.131-.072.258-.16.384-.243l.38-.253c.122-.1.209-.175.3-.253l.452-.346c.078-.059.15-.116.224-.18l.437-.368.106-.093c.034-.028.068-.063.106-.1l.418-.384c.141-.127.272-.262.408-.4s.268-.272.4-.408l.384-.423.19-.215c.063-.072.122-.146.18-.218.106-.137.218-.277.336-.423.059-.072.112-.15.171-.224s.112-.156.165-.234c.072-.1.146-.209.224-.311s.146-.215.215-.321.137-.209.194-.311a2.917,2.917,0,0,0,.156-.287c.1-.19.205-.384.311-.579.025-.049.053-.1.078-.146s.049-.1.068-.15c.049-.1.093-.2.137-.3.044-.072.087-.146.131-.224.019-.038.044-.078.063-.116s.038-.084.059-.122c.078-.16.156-.327.224-.486.034-.093.068-.18.1-.272s.059-.184.087-.272l.171-.524c.063-.16.116-.321.171-.477s.112-.315.165-.471.1-.315.146-.477c.025-.078.049-.16.072-.243.009-.038.025-.084.034-.122s.019-.084.028-.122l.165-.667c.015-.053.028-.112.038-.165l.034-.171.068-.336.063-.336c.019-.112.034-.224.053-.34.034-.228.063-.452.093-.68-.019-.087-.034-.131-.053-.218.028-.137.059-.3.084-.486.009-.093.025-.184.028-.281s.009-.194.009-.292c.006-.194.006-.384-.006-.549a1.58,1.58,0,0,0-.025-.228c-.009-.068-.025-.131-.034-.18-.015-.306-.019-.613-.059-.919-.015-.209-.028-.418-.044-.627s-.049-.418-.072-.627c-.015-.106-.025-.209-.038-.315s-.034-.209-.053-.315c-.038-.209-.072-.423-.112-.642a19.114,19.114,0,0,0-.919-3.135,12.278,12.278,0,0,0-1.253-2.455c-.084-.131-.156-.262-.237-.389s-.171-.253-.258-.38c-.2-.327-.4-.6-.617-.91-.049-.063-.087-.122-.137-.184l-.146-.175-.292-.355c-.1-.122-.2-.234-.3-.346l-.311-.34a9.81,9.81,0,0,0-1.172-1.143c-.063-.059-.127-.116-.19-.171s-.127-.106-.19-.165c-.127-.106-.258-.215-.384-.321s-.258-.209-.393-.306-.268-.2-.408-.3c-.063-.053-.137-.1-.205-.15l-.205-.146c-.137-.1-.268-.194-.4-.287s-.277-.18-.414-.272c-.068-.044-.141-.093-.209-.137-.034-.025-.072-.044-.106-.068s-.072-.044-.112-.063c-.215-.122-.477-.281-.714-.418a3.816,3.816,0,0,0-.554-.258c-.19-.093-.389-.175-.592-.258-.1-.044-.205-.084-.3-.127-.049-.019-.1-.038-.15-.063s-.1-.034-.15-.053c-.218-.072-.471-.156-.695-.224-.253-.019-.539-.049-.788-.063a.928.928,0,0,0-.218.009c-.122.059-.209.131-.33.19-.175-.049-.315-.093-.492-.141-.306-.1-.613-.18-.913-.272-.306-.072-.613-.15-.929-.218-.122.015-.249.034-.4.049-.087-.025-.19-.044-.3-.068-.053-.009-.112-.025-.175-.034s-.122-.015-.184-.025a4.725,4.725,0,0,0-.714-.034c-.021.11-.032.144.046.188Zm10.981,5.82a13.281,13.281,0,0,0-1.016-.913A7.912,7.912,0,0,1,42.045,18.088Zm3.015,3.834c.038.068.072.137.106.2a.677.677,0,0,0,.049.087c-.059-.093-.116-.184-.175-.272.008.009.019.006.019-.015Zm-.452-.665a.655.655,0,0,1,.044.053.714.714,0,0,1,.044.068c.028.049.063.106.093.165a1.035,1.035,0,0,0,.063.106.067.067,0,0,1-.009-.015,2.626,2.626,0,0,0-.228-.365l-.053-.068C44.568,21.213,44.587,21.232,44.608,21.257Zm-.473-.551c-.087-.112-.19-.237-.3-.408.078.112.16.218.243.33a.4.4,0,0,1,.059.078ZM41.559,18.53a.4.4,0,0,1-.049-.049Zm.03.023.006.006S41.589,18.553,41.589,18.553Zm.19.2.374.4c-.146-.156-.262-.277-.359-.384-.038-.044-.078-.084-.116-.122C41.711,18.68,41.745,18.718,41.779,18.752Zm3.572,18.011c.015-.044.028-.087.049-.141s.038-.106.063-.175c.049-.131.112-.292.209-.505-.078.228-.156.461-.243.695-.078.194-.156.393-.234.583.074-.19.1-.306.156-.458Z" transform="translate(-11.439 -11.767)" fill="#7e2088"/>
    </g>
  </g>
</svg>
