<svg id="np_search_1122987_000000" xmlns="http://www.w3.org/2000/svg" width="21.703" height="25.538" viewBox="0 0 21.703 25.538">
  <path id="Path_924" data-name="Path 924" d="M31.847,22.186a9.863,9.863,0,0,0,1.776.161,9.708,9.708,0,0,0,3.555-.672L39.22,26.3h0a3.27,3.27,0,0,0,2.112,1.827,2.6,2.6,0,0,0,.306.069h0a3.279,3.279,0,0,0,2.865-5.57l-3.593-3.541a9.819,9.819,0,1,0-9.062,3.1Zm12.212,2.925A1.842,1.842,0,0,1,41.89,26.76l-.174-.041h0a1.833,1.833,0,0,1-1.187-1.028l-2.059-4.65q.367-.212.719-.453t.681-.52l3.632,3.57a1.834,1.834,0,0,1,.555,1.472ZM25.351,11.032a8.374,8.374,0,1,1,1.365,6.261,8.384,8.384,0,0,1-1.365-6.261Z" transform="translate(-23.781 -2.706)" fill="#fff"/>
  <path id="Path_926" data-name="Path 926" d="M61.837,34.928a.719.719,0,0,1-1.438,0,.719.719,0,0,1,1.438,0" transform="translate(-49.824 -25.111)" fill="#fff"/>
  <path id="Path_927" data-name="Path 927" d="M41.368,34.928a.719.719,0,0,1-1.438,0,.719.719,0,0,1,1.438,0" transform="translate(-35.266 -25.111)" fill="#fff"/>
  <path id="Path_928" data-name="Path 928" d="M72.067,34.928a.719.719,0,0,1-1.438,0,.719.719,0,0,1,1.438,0" transform="translate(-57.1 -25.111)" fill="#fff"/>
  <path id="Path_929" data-name="Path 929" d="M51.6,34.928a.719.719,0,0,1-1.438,0,.719.719,0,0,1,1.438,0" transform="translate(-42.543 -25.111)" fill="#fff"/>
</svg>
