<svg xmlns="http://www.w3.org/2000/svg" width="37.352" height="23.4" viewBox="0 0 37.352 23.4">
  <g id="Group_50" data-name="Group 50" transform="translate(0 0)">
    <path id="Path_40" data-name="Path 40" d="M419.895,41.57,402.6,35.644a1.415,1.415,0,0,1-.592-2.29c2.343-2.577,10.116-11.837,10.195-11.93l.2-.233,20.272-3.021,2.136,1.884a1.255,1.255,0,0,1-.614,2.177l-18.481,3.2-2.183-1.374a.8.8,0,0,1,.155-1.436l-.445.066c-1.1,1.308-6.31,7.5-9.05,10.631l16.088-2.371.2.081a85.6,85.6,0,0,0,17.6,4.929l.083.018a1.134,1.134,0,0,1-.1,2.208c-4.467.583-10.159,1.64-17.955,3.335Zm-14.773-6.761,14.87,5.1c6.158-1.336,11.008-2.275,14.966-2.893A86.433,86.433,0,0,1,420.086,32.6Zm-1.723-.591.024.008,0-.032ZM414,22.577a.8.8,0,0,1,.386.123l1.66,1.046L433.2,20.773l-1.024-.9Z" transform="translate(-401.645 -18.17)" fill="#fff"/>
  </g>
</svg>
