<svg xmlns="http://www.w3.org/2000/svg" width="39.805" height="36.083" viewBox="0 0 39.805 36.083">
  <g id="Group_1532" data-name="Group 1532" transform="translate(-286.549 -266.592)">
    <g id="Group_55" data-name="Group 55" transform="translate(286.549 266.592)">
      <g id="Group_50" data-name="Group 50" transform="translate(0.986 0)">
        <path id="Path_40" data-name="Path 40" d="M419.895,41.57,402.6,35.644a1.415,1.415,0,0,1-.592-2.29c2.343-2.577,10.116-11.837,10.195-11.93l.2-.233,20.272-3.021,2.136,1.884a1.255,1.255,0,0,1-.614,2.177l-18.481,3.2-2.183-1.374a.8.8,0,0,1,.155-1.436l-.445.066c-1.1,1.308-6.31,7.5-9.05,10.631l16.088-2.371.2.081a85.6,85.6,0,0,0,17.6,4.929l.083.018a1.134,1.134,0,0,1-.1,2.208c-4.467.583-10.159,1.64-17.955,3.335Zm-14.773-6.761,14.87,5.1c6.158-1.336,11.008-2.275,14.966-2.893A86.433,86.433,0,0,1,420.086,32.6Zm-1.723-.591.024.008,0-.032ZM414,22.577a.8.8,0,0,1,.386.123l1.66,1.046L433.2,20.773l-1.024-.9Z" transform="translate(-401.645 -18.17)" fill="#fff"/>
      </g>
      <g id="Group_51" data-name="Group 51" transform="translate(0 16.366)">
        <path id="Path_41" data-name="Path 41" d="M419.676,65.656a2.747,2.747,0,0,1-1.06-.213c-2.623-1.094-11.607-4.788-17.077-6.4l-.056-.019a2.344,2.344,0,0,1-1.511-2.182v-10.1a.8.8,0,0,1,1.607,0v10.1a.729.729,0,0,0,.449.67c5.55,1.639,14.57,5.348,17.207,6.447a1.151,1.151,0,0,0,.7.061l18.216-4.048c.037-2.36.016-4.6,0-6.577-.018-1.9-.034-3.536,0-4.878a.787.787,0,0,1,.826-.78.8.8,0,0,1,.78.825c-.037,1.313-.021,2.937,0,4.818.019,1.986.04,4.236,0,6.608a1.607,1.607,0,0,1-1.263,1.553l-18.211,4.047A2.747,2.747,0,0,1,419.676,65.656Z" transform="translate(-399.972 -45.94)" fill="#fff"/>
      </g>
      <g id="Group_52" data-name="Group 52" transform="translate(19.733 2.911)">
        <path id="Path_42" data-name="Path 42" d="M434.257,34.3a.8.8,0,0,1-.593-1.346,85.8,85.8,0,0,1,10.387-9.67.8.8,0,0,1,.989,1.267,84.162,84.162,0,0,0-10.191,9.488A.8.8,0,0,1,434.257,34.3Z" transform="translate(-433.454 -23.11)" fill="#fff"/>
      </g>
      <g id="Group_53" data-name="Group 53" transform="translate(18.858 22.283)">
        <path id="Path_43" data-name="Path 43" d="M432.774,66.9a.8.8,0,0,1-.8-.8V56.782a.8.8,0,0,1,1.607,0V66.1A.8.8,0,0,1,432.774,66.9Z" transform="translate(-431.97 -55.979)" fill="#fff"/>
      </g>
      <g id="Group_54" data-name="Group 54" transform="translate(18.376 13.449)">
        <path id="Path_44" data-name="Path 44" d="M432.148,48.156a.8.8,0,0,1-.8-.776l-.193-5.559a.8.8,0,1,1,1.606-.055l.193,5.559a.8.8,0,0,1-.776.831Z" transform="translate(-431.152 -40.99)" fill="#fff"/>
      </g>
    </g>
  </g>
</svg>
