<svg xmlns="http://www.w3.org/2000/svg" width="7.461" height="14.878" viewBox="0 0 7.461 14.878">
  <g id="tumblr" transform="translate(0)">
    <path id="tumblr-2" data-name="tumblr" d="M4275.861,2683.581a5.52,5.52,0,0,1-2.185.434.187.187,0,0,1-.083-.11c-.009-.045.035-.749.035-1.9l-.016-3.55h2.752v-2.739h-2.718l-.05-3.717-2.9,1.781-.155,1.937h-1.56l-.026,2.708h1.9v3.938a14.045,14.045,0,0,0,.1,2.09,3.058,3.058,0,0,0,.478,1.3c.243.344.268.622.756.827a4.638,4.638,0,0,0,1.687.3,6.575,6.575,0,0,0,2.438-.978l.1-.129-.026-2.681Z" transform="translate(-4268.96 -2671.998)" fill="#fff"/>
  </g>
</svg>
