<svg xmlns="http://www.w3.org/2000/svg" width="38" height="38" viewBox="0 0 38 38">
  <g id="Grupo_77229" data-name="Grupo 77229" transform="translate(-169 -1379)">
    <circle id="Elipse_23" data-name="Elipse 23" cx="19" cy="19" r="19" transform="translate(169 1379)" fill="#fff"/>
    <path id="Trazado_1376" data-name="Trazado 1376" d="M7.211,18.47A13.165,13.165,0,0,0,20.494,5.187V4.554a10.283,10.283,0,0,0,2.277-2.4,10.5,10.5,0,0,1-2.657.759A4.922,4.922,0,0,0,22.138.38a11.6,11.6,0,0,1-2.91,1.139A4.518,4.518,0,0,0,15.813,0a4.753,4.753,0,0,0-4.681,4.681,2.466,2.466,0,0,0,.126,1.012A13.079,13.079,0,0,1,1.645.759a4.845,4.845,0,0,0-.633,2.4A5.026,5.026,0,0,0,3.036,7.084,4.265,4.265,0,0,1,.886,6.452h0a4.623,4.623,0,0,0,3.8,4.554,3.9,3.9,0,0,1-1.265.127,2.153,2.153,0,0,1-.886-.127,4.792,4.792,0,0,0,4.428,3.289,9.551,9.551,0,0,1-5.819,2.024A3.5,3.5,0,0,1,0,16.192,11.94,11.94,0,0,0,7.211,18.47" transform="matrix(0.966, 0.259, -0.259, 0.966, 179.31, 1386.738)" fill="#ee324d" fill-rule="evenodd"/>
  </g>
</svg>
