<svg xmlns="http://www.w3.org/2000/svg" width="15.766" height="15.766" viewBox="0 0 15.766 15.766">
  <path id="np_profil_2022869_000000" d="M30.621,22.738a7.894,7.894,0,1,0,5.571,2.312,7.887,7.887,0,0,0-5.571-2.312Zm0,1.287h0a6.595,6.595,0,0,1,5.468,10.282,6.429,6.429,0,0,0-2.932-2.53,3.539,3.539,0,1,0-5.071,0,6.438,6.438,0,0,0-2.932,2.536,6.595,6.595,0,0,1,5.468-10.288Zm-2.252,5.29a2.252,2.252,0,1,1,2.252,2.25,2.251,2.251,0,0,1-2.252-2.25Zm-2.331,6.037a5.178,5.178,0,0,1,2.635-2.438,4.7,4.7,0,0,1,.844-.269,3.242,3.242,0,0,0,2.209,0,4.733,4.733,0,0,1,.867.26,5.167,5.167,0,0,1,2.625,2.435,6.564,6.564,0,0,1-9.166,0Z" transform="translate(-22.739 -22.737)" fill="#fff"/>
</svg>
