<svg xmlns="http://www.w3.org/2000/svg" width="103.401" height="23.331" viewBox="0 0 103.401 23.331">
  <g id="Group_77709" data-name="Group 77709" transform="translate(-148.749 -3997.025)">
    <g id="youtube-logo-2431" transform="translate(148.749 3997.025)">
      <g id="Group_77707" data-name="Group 77707" transform="translate(0)">
        <path id="Path_2348" data-name="Path 2348" d="M28.962,41.454a3.968,3.968,0,0,0-2.615-2.947c-2.307-.7-11.557-.7-11.557-.7s-9.25,0-11.557.7A3.968,3.968,0,0,0,.618,41.454,48.741,48.741,0,0,0,0,49.476,48.741,48.741,0,0,0,.618,57.5a3.968,3.968,0,0,0,2.615,2.947c2.307.7,11.557.7,11.557.7s9.25,0,11.557-.7A3.968,3.968,0,0,0,28.962,57.5a48.741,48.741,0,0,0,.618-8.022A48.741,48.741,0,0,0,28.962,41.454Z" transform="translate(0 -37.811)" fill="#e52441"/>
        <path id="Path_2349" data-name="Path 2349" d="M100.829,98.224l7.684-5-7.684-5Z" transform="translate(-88.997 -81.559)" fill="#fff"/>
      </g>
    </g>
    <text id="subscribe" transform="translate(185.15 4013.413)" fill="#333334" font-size="12" font-family="FilsonProBold, Filson Pro"><tspan x="0" y="0">SUBSCRIBE</tspan></text>
  </g>
</svg>
