<svg xmlns="http://www.w3.org/2000/svg" width="56.08" height="26.548" viewBox="0 0 56.08 26.548">
  <path id="Trazado_2591" data-name="Trazado 2591" d="M245.439,218.872c7.183,5.206,17.5,3.524,27.639-4.489-2.257-.545-4.595,1.813-6.541-.251.044-.392,0-.774.107-.824,3.236-1.5,6.456-3.047,9.757-4.394a1.615,1.615,0,0,1,2.349,1.476c.011,2.794.111,5.644-1.13,8.826l-2.128-2.8c-3.129,2.078-6.048,4.382-9.282,6.089-7.638,4.029-15.38,4.291-22.9-.419a3.432,3.432,0,0,0-3.325-.2,15.382,15.382,0,0,1-14.379-2.049c-1.6-1.131-3.29-2.453-2.86-5.471a12.528,12.528,0,0,0,7.959,5.374c3.1.69,6.152.748,9.006-.762-.515-2.867-1.341-5.549-1.382-8.242a25.82,25.82,0,0,1,1.2-8.079,5.165,5.165,0,0,1,5.618-3.6c2.353.254,4.127,1.987,4.636,4.819a17.215,17.215,0,0,1-2.548,12.4C246.677,217.171,246.036,218.011,245.439,218.872Zm-2.211-2.174A14.55,14.55,0,0,0,246.9,205.22c-.127-1.356-.5-2.718-2.182-2.8-1.439-.069-2.083,1.08-2.412,2.254A17.5,17.5,0,0,0,243.227,216.7Z" transform="translate(-222.676 -199.024)" fill="#e52441"/>
</svg>
