<svg xmlns="http://www.w3.org/2000/svg" width="57.394" height="21.359" viewBox="0 0 57.394 21.359">
  <path id="Trazado_2592" data-name="Trazado 2592" d="M434.509,36.94c-.974,1.418-1.808,2.65-2.658,3.869a20.408,20.408,0,0,1-11.722,8.373,10.89,10.89,0,0,1-9.935-1.732c-2.944-2.244-5.7-4.735-8.518-7.14-1.41-1.2-2.709-2.546-4.178-3.667-2.6-1.983-4.419-2-7.208-.274-3.319,2.049-5.417,5.353-6.284,10.009-2.083-.333-2.236-1.971-1.937-3.376a15.672,15.672,0,0,1,1.985-5.132,18.907,18.907,0,0,1,4.107-4.587c3.962-3.13,7.654-3.187,11.692-.184,2.354,1.751,4.415,3.891,6.648,5.809,2.068,1.776,4.154,3.534,6.3,5.214a6.676,6.676,0,0,0,5.578,1.2,14.448,14.448,0,0,0,7.94-4.254,17.451,17.451,0,0,0,1.292-1.479c1.777-2.294,3.538-4.6,5.466-7.115-4.332,1.1-8.368,2.136-12.412,3.136-.086.022-.26-.315-.484-.6.244-.289.442-.728.774-.885,3.835-1.818,7.618-3.782,11.564-5.32,3.028-1.18,4.881-.233,5.73,2.917a41.357,41.357,0,0,1,1.1,8.389,2.844,2.844,0,0,1-1.59,2.061c-.434.184-1.638-.611-1.983-1.245A21.84,21.84,0,0,1,434.509,36.94Z" transform="translate(-381.951 -28.312)" fill="#e52441"/>
</svg>
