<svg xmlns="http://www.w3.org/2000/svg" width="58.358" height="23.768" viewBox="0 0 58.358 23.768">
  <path id="Trazado_2606" data-name="Trazado 2606" d="M5.828,10.267C3.857,12.618,3.43,16.09.095,18.508c0-1.529-.237-2.415.038-3.09C1.911,11.055,3.646,6.663,5.708,2.434,7.079-.374,9.071-.781,11.181,1.362a87.5,87.5,0,0,1,7.59,9.048c.9,1.207,1.787,2.877.136,4.811-3.76-1.692-4.9-5.953-8.213-8.477a10.041,10.041,0,0,0-.233,1.7c.589,9.2-.081,18.353-.964,27.508-.526,5.457-.7,10.947-1.117,16.417a11.852,11.852,0,0,1-.855,3.686,2.4,2.4,0,0,1-1.778,1.062c-.426.036-1.2-.643-1.326-1.132a12.008,12.008,0,0,1-.473-3.745c.561-8.653,1.232-17.3,1.824-25.952C6.134,21,6.418,15.7,6.737,10.413Z" transform="matrix(0.07, 0.998, -0.998, 0.07, 56.974, 0)" fill="#e52441"/>
</svg>
