<svg xmlns="http://www.w3.org/2000/svg" width="66.888" height="46.812" viewBox="0 0 66.888 46.812">
  <path id="Trazado_2536" data-name="Trazado 2536" d="M.893,7.2A19.3,19.3,0,0,1,2.726,9.145C7.31,15.526,13.9,18.734,21.243,20.468a19.336,19.336,0,0,0,7.984.029,44.149,44.149,0,0,0,19.891-9.311,20.218,20.218,0,0,0,4.3-5.093c-.671.253-1.352.482-2.012.763-1.941.827-3.845,1.755-5.825,2.476a7.392,7.392,0,0,1-2.821.265,1.347,1.347,0,0,1-.945-.879,1.287,1.287,0,0,1,.614-1.1C47.541,6.034,51.926,3.041,56.548.51c1.62-.887,2.645-.641,3.329.937A29.863,29.863,0,0,1,62.3,14.068c0,.145-.231.286-.574.686-3.556-1.334-2.449-5.142-4.2-8.209A15.813,15.813,0,0,1,56.431,8.34c-7.579,9.213-17.555,14.089-29.15,15.908a17.159,17.159,0,0,1-5.436-.134,32.506,32.506,0,0,1-17.331-8.5A26.624,26.624,0,0,1,.665,10.282,8.818,8.818,0,0,1,0,7.684Z" transform="matrix(0.921, 0.391, -0.391, 0.921, 9.537, 0)" fill="#E52441"/>
</svg>
