<svg xmlns="http://www.w3.org/2000/svg" width="517.604" height="62.443" viewBox="0 0 517.604 62.443">
  <g id="Grupo_77881" data-name="Grupo 77881" transform="matrix(1, 0.017, -0.017, 1, -2013.397, -347.207)">
    <path id="Trazado_2206" data-name="Trazado 2206" d="M485.636,516.512c2.109-.159,4.233-.4,6.348-.478q2.96-.107,5.917-.218c10.8-.394,21.6-.9,32.412-1.052,11.3-.163,22.611-.434,33.917-.461,11.538-.028,23.073-.075,34.609-.02q33.73.167,67.452.26,33.5.082,67-.04c11.084-.057,22.17-.318,33.251-.527,10.882-.205,21.752-.551,32.628-.954,2.39-.09,4.777-.264,7.165-.4,2.359-.136,4.723-.243,7.08-.419q9.073-.681,18.134-1.473c10.519-.941,21.006-2.193,31.54-2.974,11.036-.82,22.1-1.287,33.143-1.953,4.987-.3,10-.675,14.951-1.338,5.66-.752,11.27-1.662,16.867-2.8,5.409-1.1,10.814-2.224,16.229-3.3,2.6-.52,5.208-.99,7.831-1.36,2.969-.419,5.911-.849,8.843-1.47,1.41-.3,1.687-2.14,1.687-3.324a5.771,5.771,0,0,0-.326-1.96c-.208-.533-.642-1.384-1.362-1.358-5.288.172-10.575.35-15.859.591q-8,.365-16.014.467c-10.366.137-20.753-.212-31.11-.633q2.648-.352,5.3-.7c6.339-.842,12.662-1.9,19.034-2.469,3.391-.3,6.793-.556,10.175-.946,1.715-.2,3.417-.421,5.111-.754,1.821-.359,3.616-.849,5.405-1.342a1.645,1.645,0,0,0,1.306-.838,5.224,5.224,0,0,0,.859-2.573c1.814-.544,2.179-3.159,2.179-4.733a8.2,8.2,0,0,0-.471-2.837c-.314-.807-.915-1.951-1.968-1.962-5.5-.062-11-.425-16.5-.492-.646-.007-1.293-.011-1.938-.011-4.736,0-9.462.2-14.193.452q-15.806.832-31.6,1.968c-4.892.344-9.78.752-14.678,1.042-5.99.353-11.966.624-17.961.853-10.029.381-20.076.529-30.111.708-11.508.209-23,.505-34.5,1.034-10.649.491-21.289,1.144-31.93,1.768q-16.027.934-32.057,1.871c-10.951.646-21.91,1.126-32.872,1.605-5.545.245-11.1.318-16.648.472-5.253.146-10.509.185-15.764.26-10.342.148-20.686.24-31.03.344-20.867.207-41.724.54-62.588.879q-17.193.283-34.381.6c-5.846.108-11.695.335-17.537.5-5,.141-9.991.472-14.985.723q-7.974.4-15.948.862-4.741.269-9.488.544c-1.373.081-2.749.157-4.126.238-1.252.071-2.505.163-3.754.256-.893.066-1.769.192-2.649.339a19.421,19.421,0,0,0-2.883.9,3.379,3.379,0,0,0-1.166,1.675,8.544,8.544,0,0,0,0,5.517l.513,1.01a1.779,1.779,0,0,0,1.4.9,30.838,30.838,0,0,0,3.276.785,1.769,1.769,0,0,0,1.4-.9,3.669,3.669,0,0,0,.322-.518c.584-.016,1.17-.015,1.756-.015.56,0,1.12,0,1.683-.016q1.9-.041,3.789-.088,4.88-.113,9.76-.225c3.527-.084,7.05-.144,10.575-.2q-.547.047-1.092.09c-8.325.637-16.646,1.276-24.964,2a3.92,3.92,0,0,0-3.075,1.977,11.381,11.381,0,0,0-1.888,5.011q-2.193-.022-4.388-.04c-1.025-.009-1.227,1.743-1.227,2.416s.2,2.4,1.227,2.412c1.4.013,2.8.037,4.2.055a17.471,17.471,0,0,0,.947,4.466q.563,1.109,1.125,2.216a3.919,3.919,0,0,0,3.075,1.977C469.883,517.705,477.759,517.105,485.636,516.512Z" transform="translate(1568.567 -157.663)" fill="#fff"/>
    <path id="Trazado_2207" data-name="Trazado 2207" d="M34.2,46.849c2.109-.159,4.233-.4,6.348-.478q2.96-.107,5.917-.218c10.8-.394,21.6-.9,32.412-1.052,11.3-.163,22.611-.434,33.917-.461,11.538-.027,23.073-.075,34.609-.02q33.73.167,67.452.26,33.5.082,67-.04c11.084-.057,22.17-.319,33.251-.527,10.882-.205,21.752-.551,32.628-.954,2.39-.09,4.777-.264,7.165-.4,2.359-.136,4.723-.243,7.08-.419q9.074-.681,18.134-1.473c10.519-.941,21.006-2.193,31.54-2.974,11.036-.82,22.1-1.287,33.143-1.953,4.987-.3,10-.675,14.951-1.338,5.66-.752,11.27-1.662,16.867-2.8,5.409-1.1,10.815-2.224,16.229-3.3,2.6-.52,5.208-.99,7.831-1.36,2.969-.419,5.912-.849,8.843-1.47,1.41-.3,1.687-2.14,1.687-3.324a5.771,5.771,0,0,0-.326-1.96c-.208-.533-.642-1.384-1.362-1.358-5.288.172-10.575.35-15.859.591q-8,.365-16.013.467c-10.366.137-20.753-.212-31.11-.633q2.648-.351,5.3-.7c6.339-.842,12.662-1.9,19.034-2.469,3.391-.3,6.793-.556,10.175-.946,1.715-.2,3.417-.421,5.111-.754,1.821-.359,3.616-.849,5.405-1.342a1.644,1.644,0,0,0,1.306-.838,5.224,5.224,0,0,0,.859-2.573c1.813-.544,2.178-3.159,2.178-4.733a8.192,8.192,0,0,0-.47-2.837c-.314-.807-.915-1.951-1.968-1.962-5.5-.062-11-.425-16.5-.492Q475.989,0,475.019,0c-4.736,0-9.462.2-14.192.452q-15.806.832-31.6,1.968c-4.892.344-9.78.752-14.678,1.042-5.989.353-11.966.624-17.961.853-10.03.381-20.076.529-30.111.708-11.508.209-23,.505-34.5,1.034-10.649.491-21.289,1.144-31.93,1.768q-16.026.934-32.057,1.871c-10.95.646-21.91,1.126-32.871,1.605-5.545.245-11.1.318-16.648.472-5.253.146-10.51.185-15.764.26-10.342.148-20.686.24-31.03.344-20.866.207-41.724.54-62.588.879q-17.193.283-34.382.6c-5.846.108-11.694.335-17.537.5-5,.141-9.991.472-14.985.723q-7.974.4-15.948.862-4.74.269-9.488.544c-1.373.081-2.749.157-4.126.238-1.252.071-2.506.163-3.754.256-.893.066-1.769.192-2.649.339a19.42,19.42,0,0,0-2.883.9,3.377,3.377,0,0,0-1.166,1.675,8.545,8.545,0,0,0,0,5.517l.513,1.01a1.779,1.779,0,0,0,1.4.9,30.821,30.821,0,0,0,3.276.785,1.768,1.768,0,0,0,1.4-.9,3.68,3.68,0,0,0,.322-.518c.584-.016,1.17-.015,1.756-.015.56,0,1.12,0,1.683-.016q1.9-.041,3.789-.088,4.88-.113,9.76-.225c3.527-.084,7.05-.145,10.575-.2q-.547.047-1.092.09c-8.326.637-16.646,1.276-24.964,2A3.919,3.919,0,0,0,7.5,30.215a11.379,11.379,0,0,0-1.888,5.011q-2.193-.022-4.388-.04C.2,35.177,0,36.929,0,37.6S.2,40,1.228,40.015c1.4.013,2.8.037,4.2.055a17.482,17.482,0,0,0,.947,4.466q.564,1.109,1.125,2.216a3.919,3.919,0,0,0,3.075,1.977C18.45,48.042,26.326,47.442,34.2,46.849Z" transform="translate(2536.914 365.43) rotate(180)" fill="#fff"/>
  </g>
</svg>
