<svg xmlns="http://www.w3.org/2000/svg" width="28.016" height="46.95" viewBox="0 0 28.016 46.95">
  <g id="Grupo_77875" data-name="Grupo 77875" transform="translate(-5.954 12.375) rotate(-21)">
    <path id="Trazado_1898" data-name="Trazado 1898" d="M9.817,9.386q1.567,2.376,3.157,4.736.767,1.136,1.54,2.273a3.3,3.3,0,0,1,.546,3.019,1.356,1.356,0,0,1-1.291,1,3.245,3.245,0,0,1-2.72-1.363q-.84-1.082-1.677-2.169-1.814-2.355-3.606-4.727C3.471,9.113,1.889,5.432.145,2.048-.512.774,1.216-.766,2.25.432q1.9,2.2,3.816,4.382A42.141,42.141,0,0,1,9.817,9.386" transform="translate(0 16.615)" fill="#09989a"/>
    <path id="Trazado_1899" data-name="Trazado 1899" d="M17.391,11.306c-1.429.881-3.588-.152-5.034-.668a38.9,38.9,0,0,1-4.8-2.07C4.678,7.084,2.21,4.283.221,1.78-.413.987.417-.538,1.419.193a34.9,34.9,0,0,0,4.043,2.55c1.327.714,2.751,1.233,4.057,1.976a33.323,33.323,0,0,0,4.051,1.975c1.435.574,3.676.783,4.473,2.21a1.8,1.8,0,0,1-.652,2.4" transform="translate(6.613 12.253)" fill="#09989a"/>
    <path id="Trazado_1900" data-name="Trazado 1900" d="M2.882.765c.387.006.776.013,1.164.02C4.953.8,5.859.817,6.766.831c1.681.03,3.369.02,5.048.088a38.941,38.941,0,0,1,5.05.792l2.668.469a8.013,8.013,0,0,1,2.5.63,1.015,1.015,0,0,1-.234,1.844,10.918,10.918,0,0,1-3.363.1q-1.746-.042-3.494-.082a24.61,24.61,0,0,1-3.566-.2c-1.206-.209-2.409-.439-3.615-.659L4.332,3.188a21.157,21.157,0,0,1-3.268-.635A1.4,1.4,0,0,1,.047.9,1.162,1.162,0,0,1,1.524.066.869.869,0,0,1,2.1.751h0l.778.014" transform="translate(12.005 0)" fill="#09989a"/>
  </g>
</svg>
