<svg xmlns="http://www.w3.org/2000/svg" width="94.961" height="95.355" viewBox="0 0 94.961 95.355">
  <path id="Trazado_2593" data-name="Trazado 2593" d="M345.715,194.153a19.342,19.342,0,0,1,.91-2.48A153.217,153.217,0,0,1,366.9,161.765a29.689,29.689,0,0,1,4.316-4.1c2.63-2,5.056-.987,5.509,2.334.442,3.244.522,6.536.827,9.8.15,1.6.254,3.272,2.058,4.568a24.68,24.68,0,0,0,2.916-2.335,74.859,74.859,0,0,0,5.279-6.113c6.238-8.334,12.388-16.733,18.925-25.588-4.279.871-6.8,4.962-10.9,4.746l-.462-.71a10.651,10.651,0,0,1,1.722-1.888q7.718-5.2,15.516-10.288c1.091-.716,2.45-1.51,3.51-.383a4.8,4.8,0,0,1,.92,3.128c-.05,2.8-.342,5.606-.563,8.406a5.178,5.178,0,0,1-.365,2.055,7.637,7.637,0,0,1-1.6,1.561c-.513-.565-1.354-1.069-1.471-1.706a32.694,32.694,0,0,1-.252-4.536c-.022-.543-.042-1.085-.1-2.45-2.079,2.911-3.689,5.167-5.3,7.42-5.324,7.43-10.594,14.9-16.005,22.265a75.214,75.214,0,0,1-5.975,6.9,14.028,14.028,0,0,1-3.338,2.541c-2.757,1.545-5.51.826-6.728-2.09a33.911,33.911,0,0,1-1.818-7.446c-.34-2.03-.312-4.122-.5-7.026-1.608,1.579-2.7,2.562-3.689,3.634a172.026,172.026,0,0,0-17.2,22.654c-1.288,1.958-2.6,3.9-4,5.783a11.954,11.954,0,0,1-1.882,1.679Z" transform="translate(-93.47 -342.347) rotate(47)" fill="#e52441"/>
</svg>
