<svg xmlns="http://www.w3.org/2000/svg" width="23.677" height="47.938" viewBox="0 0 23.677 47.938">
  <g id="Grupo_77215" data-name="Grupo 77215" transform="translate(32.583 29.429) rotate(146)">
    <path id="Trazado_1898" data-name="Trazado 1898" d="M9.41,9q1.5,2.277,3.026,4.54.735,1.089,1.476,2.178a3.165,3.165,0,0,1,.523,2.894,1.3,1.3,0,0,1-1.237.962,3.111,3.111,0,0,1-2.607-1.306q-.8-1.037-1.607-2.079-1.738-2.257-3.456-4.531C3.327,8.735,1.811,5.207.139,1.963-.491.742,1.166-.734,2.156.414q1.817,2.111,3.657,4.2A40.4,40.4,0,0,1,9.41,9" transform="translate(0 15.926)" fill="#e52441"/>
    <path id="Trazado_1899" data-name="Trazado 1899" d="M16.67,10.837c-1.369.845-3.439-.146-4.825-.64a37.294,37.294,0,0,1-4.6-1.984C4.484,6.79,2.118,4.106.212,1.706-.4.946.4-.516,1.361.185A33.458,33.458,0,0,0,5.236,2.629c1.272.684,2.637,1.182,3.889,1.894a31.944,31.944,0,0,0,3.883,1.893c1.375.55,3.524.75,4.287,2.118a1.721,1.721,0,0,1-.625,2.3" transform="translate(6.338 11.745)" fill="#e52441"/>
    <path id="Trazado_1900" data-name="Trazado 1900" d="M2.763.733c.371.006.744.012,1.115.02C4.747.766,5.616.783,6.485.8,8.1.825,9.714.816,11.324.881a37.325,37.325,0,0,1,4.84.759l2.557.449a7.681,7.681,0,0,1,2.392.6.973.973,0,0,1-.224,1.768,10.465,10.465,0,0,1-3.223.093q-1.673-.041-3.349-.078A23.591,23.591,0,0,1,10.9,4.284c-1.156-.2-2.309-.421-3.465-.631l-3.282-.6a20.277,20.277,0,0,1-3.133-.609A1.337,1.337,0,0,1,.045.867a1.114,1.114,0,0,1,1.416-.8A.832.832,0,0,1,2.016.72h0l.746.014" transform="translate(11.507 0)" fill="#e52441"/>
  </g>
</svg>
