<svg xmlns="http://www.w3.org/2000/svg" width="37.688" height="58.616" viewBox="0 0 37.688 58.616">
  <path id="Trazado_2583" data-name="Trazado 2583" d="M223.167,404.668c-2.7-.68-5.165-3.673-3.249-6.406,1.344-1.916,4.2-2.5,6.371-2.465a16.089,16.089,0,0,1,6.058,1.29c-.452,4.531-4.311,8.811-9.18,7.582m26.709,7.623a41.613,41.613,0,0,0,.023-9.334c-.173-1.6-2.806-1.629-2.867.029q-.071,1.952-.146,3.9c-3.107-4.639-6.914-9.014-11.7-11.586,0-.031,0-.062,0-.094-.582-8.54-9.038-14.556-17.142-14.622-9.684-.078-22.794,7.821-23.844,18.257a.585.585,0,0,0,1.12.284c3.276-8.052,11.685-14.652,20.394-15.664,6.86-.8,15.181,3.465,16.51,10.54a18.865,18.865,0,0,0-5.117-1.015c-3.633-.21-7.982.854-9.9,4.261s-.12,7.53,3.12,9.356c6.665,3.757,13.224-1.718,14.613-8.175,3.965,2.466,7.174,6.354,9.79,10.343a36.012,36.012,0,0,0-4.215-1.536c-1.785-.523-2.867,2.179-1.071,2.705a34.137,34.137,0,0,1,7.841,3.351,1.77,1.77,0,0,0,1.131.208,1.3,1.3,0,0,0,1.467-1.212Z" transform="translate(395.023 -226.623) rotate(85)" fill="#e52441"/>
</svg>
