<svg xmlns="http://www.w3.org/2000/svg" width="234.22" height="14.387" viewBox="0 0 234.22 14.387">
  <path id="Trazado_2204" data-name="Trazado 2204" d="M293.732,646.166c-5.117-.381-10.241-.653-15.362-.981-1.689-.107-3.384-.114-5.074-.169l-11-.358c-2.043-.067-4.086-.149-6.129-.2-.592-.014-1.183-.02-1.776-.02-1.329,0-2.661.026-3.99.028q-9.077.013-18.151.027c-1.44,0-2.88.046-4.319.071q-5.35.087-10.7.177c-4.023.068-8.047.095-12.069.222l-19.527.616c-3.769.118-7.54.185-11.307.377q-9.737.493-19.472.98c-3.547.177-7.1.325-10.641.577q-10.068.712-20.135,1.43c-3.587.255-7.177.443-10.755.833q-10.023,1.085-20.047,2.174-2.166.234-4.333.47c-2.885.312-5.76.8-8.637,1.211l-.542.095a1.982,1.982,0,0,0-.9.666,3.115,3.115,0,0,0,0,3.665,1.771,1.771,0,0,0,1.44.759c3.472-.5,6.938-1.026,10.419-1.4q4.838-.525,9.675-1.045l10.559-1.14c1.417-.153,2.838-.356,4.259-.456q8.231-.582,16.464-1.153l10.262-.721c1.413-.1,2.827-.223,4.24-.3,5.439-.276,10.879-.53,16.316-.8q4.944-.242,9.889-.481c1.107-.053,2.215-.123,3.324-.156q8.809-.261,17.617-.513l9.838-.287c1.168-.033,2.335-.083,3.5-.1l18.168-.237c3.779-.05,7.555-.1,11.333-.083l19.293.059c1.268,0,2.536.07,3.805.117l10.648.4q3.993.152,7.989.3c1.888.071,3.776.251,5.663.38,5.557.382,11.111.777,16.666,1.218,1.411.114,2.82.248,4.231.38,1.511.139,3.026.275,4.533.493.235.049.468.106.7.169a1.87,1.87,0,0,0,1.7-.282,2.836,2.836,0,0,0,1.013-1.678,2.993,2.993,0,0,0-1.539-3.451,14.959,14.959,0,0,0-3.107-.633q-1.071-.139-2.142-.275c-1.374-.176-2.758-.265-4.134-.4C298.908,646.5,296.318,646.358,293.732,646.166Z" transform="translate(-78.272 -644.439)" fill="#09989a"/>
</svg>
