<svg xmlns="http://www.w3.org/2000/svg" width="353.285" height="67.732" viewBox="0 0 353.285 67.732">
  <path id="Trazado_2537" data-name="Trazado 2537" d="M475,528.88c1.453-.2,2.917-.509,4.375-.6,1.36-.09,2.72-.185,4.077-.275,7.444-.5,14.886-1.136,22.335-1.33,7.789-.206,15.581-.548,23.371-.583,7.951-.035,15.9-.095,23.848-.026q23.243.212,46.481.329c15.389.07,30.778.083,46.166-.051,7.638-.072,15.277-.4,22.913-.666,7.5-.259,14.989-.7,22.483-1.205,1.647-.113,3.291-.333,4.937-.5,1.625-.171,3.254-.308,4.878-.53,4.168-.574,8.331-1.182,12.5-1.862,7.248-1.189,14.475-2.772,21.734-3.759,7.6-1.037,15.226-1.626,22.838-2.469a79.777,79.777,0,0,0,10.3-1.691,103.587,103.587,0,0,0,11.623-3.535c3.727-1.386,7.452-2.811,11.183-4.174,1.789-.657,3.589-1.252,5.4-1.719a53.958,53.958,0,0,0,6.093-1.858c.972-.379,1.162-2.7,1.162-4.2a12.929,12.929,0,0,0-.224-2.478c-.143-.673-.442-1.749-.938-1.717-3.644.218-7.287.442-10.928.747q-5.512.462-11.035.59c-7.143.174-14.3-.268-21.437-.8,1.216-.3,2.433-.588,3.649-.884,4.368-1.064,8.725-2.4,13.116-3.121,2.337-.384,4.681-.7,7.011-1.2a25.963,25.963,0,0,0,3.522-.953,34.334,34.334,0,0,0,3.725-1.7q.594-.115.9-1.06a10.718,10.718,0,0,0,.592-3.253c1.25-.687,1.5-3.993,1.5-5.983a18.387,18.387,0,0,0-.324-3.586c-.217-1.02-.631-2.466-1.356-2.48-3.793-.079-7.579-.537-11.372-.622-.445-.009-.891-.014-1.336-.014-3.263,0-6.52.257-9.78.571q-10.892,1.052-21.777,2.487c-3.371.435-6.74.951-10.114,1.316-4.127.447-8.246.789-12.377,1.078-6.911.481-13.834.669-20.749.9-7.93.264-15.852.639-23.775,1.307-7.338.62-14.67,1.446-22,2.235q-11.043,1.18-22.09,2.364c-7.546.817-15.1,1.423-22.651,2.029-3.821.31-7.648.4-11.472.6-3.62.185-7.242.234-10.863.328-7.127.187-14.254.3-21.382.435-14.379.261-28.751.683-43.129,1.111q-11.847.357-23.692.763c-4.029.137-8.058.423-12.084.632-3.443.178-6.884.6-10.326.914-3.663.338-7.327.71-10.99,1.09-2.178.227-4.358.46-6.538.687-.946.1-1.894.2-2.843.3-.863.09-1.727.206-2.586.324a11.594,11.594,0,0,0-1.825.428,9.722,9.722,0,0,0-1.987,1.136,5.211,5.211,0,0,0-.8,2.117,19.439,19.439,0,0,0,0,6.973l.354,1.277c.219.676.542,1.055.965,1.141a13.916,13.916,0,0,0,2.257.993c.42-.083.742-.46.961-1.134a6.182,6.182,0,0,0,.222-.655c.4-.021.806-.018,1.21-.018.386,0,.772,0,1.16-.021q1.307-.052,2.611-.111,3.363-.142,6.725-.285c2.43-.106,4.858-.183,7.287-.259-.251.039-.5.076-.752.113-5.737.805-11.47,1.613-17.2,2.533q-1.392.281-2.119,2.5a22.743,22.743,0,0,0-1.3,6.335q-1.511-.028-3.024-.051c-.706-.012-.846,2.2-.846,3.054s.14,3.035.846,3.049c.965.016,1.932.046,2.9.069a38.614,38.614,0,0,0,.653,5.645q.388,1.4.776,2.8.729,2.217,2.119,2.5C464.147,530.389,469.574,529.63,475,528.88Z" transform="matrix(1, 0.017, -0.017, 1, -442.093, -477.47)" fill="#fbd6d4"/>
</svg>
