<svg xmlns="http://www.w3.org/2000/svg" width="49.381" height="70.8" viewBox="0 0 49.381 70.8">
  <path id="Trazado_2455" data-name="Trazado 2455" d="M20.386,0c1.636.767,2.65.907,2.973,1.455a30.647,30.647,0,0,1,3.178,6.356c1.85,6.041,1.63,12.2.4,18.353-2.1,10.467-6.873,19.727-12.74,28.505-.627.937-1.205,1.908-1.788,2.873-.036.061.087.217.208.491,1.733-.437,3.5-.977,5.308-1.3a6.418,6.418,0,0,1,2.961.12,2.228,2.228,0,0,1,1.342,1.58,3.628,3.628,0,0,1-1.045,2.183,3.641,3.641,0,0,1-1.739.642c-4.746,1.216-9.475,2.508-14.251,3.59-4.1.927-5.406-.364-5.161-4.413.25-4.144.278-8.3.456-12.45C.54,46.7.763,45.42.928,43.973c3.34,1.49,3.34,1.49,4.519,14.268,4.944-5.5,8.253-11.5,11.334-17.617a65.427,65.427,0,0,0,6.211-19.4C24.088,14.251,22.718,7.537,20.386,0Z" transform="translate(0 9.996) rotate(-21)" fill="#e52441"/>
</svg>
