<svg xmlns="http://www.w3.org/2000/svg" width="92.284" height="64.585" viewBox="0 0 92.284 64.585">
  <path id="Trazado_2536" data-name="Trazado 2536" d="M33.572,33.578a26.632,26.632,0,0,1,2.529,2.68c6.324,8.8,15.419,13.229,25.548,15.621a26.677,26.677,0,0,0,11.016.04,60.911,60.911,0,0,0,27.443-12.846,27.894,27.894,0,0,0,5.938-7.027c-.926.349-1.866.665-2.775,1.053-2.679,1.141-5.305,2.422-8.037,3.416a10.2,10.2,0,0,1-3.892.365,1.858,1.858,0,0,1-1.3-1.213,1.775,1.775,0,0,1,.847-1.519c7.047-2.183,13.1-6.312,19.474-9.8,2.236-1.224,3.649-.885,4.593,1.293A41.2,41.2,0,0,1,118.29,43.05c0,.2-.318.394-.792.947-4.906-1.841-3.379-7.095-5.8-11.326a21.815,21.815,0,0,1-1.505,2.475C99.74,47.857,85.976,54.584,69.979,57.1a23.674,23.674,0,0,1-7.5-.184A44.847,44.847,0,0,1,38.567,45.186c-2.158-2.052-3.706-4.794-5.31-7.36-.623-1-.63-2.378-.917-3.584Z" transform="matrix(0.921, 0.391, -0.391, 0.921, -7.374, -34.398)" fill="#a44f80"/>
</svg>
