<svg xmlns="http://www.w3.org/2000/svg" width="81.809" height="86.967" viewBox="0 0 81.809 86.967">
  <path id="Trazado_2590" data-name="Trazado 2590" d="M1.232,23.738a26.632,26.632,0,0,0,2.529-2.68c6.324-8.8,15.419-13.229,25.548-15.621A26.677,26.677,0,0,1,40.324,5.4,60.911,60.911,0,0,1,67.767,18.242a27.894,27.894,0,0,1,5.938,7.027c-.926-.349-1.866-.665-2.775-1.053-2.679-1.141-5.305-2.422-8.037-3.416A10.2,10.2,0,0,0,59,20.435a1.858,1.858,0,0,0-1.3,1.213,1.775,1.775,0,0,0,.847,1.519c7.047,2.183,13.1,6.312,19.474,9.8,2.236,1.224,3.649.885,4.593-1.293A41.2,41.2,0,0,0,85.95,14.265c0-.2-.318-.394-.792-.947-4.906,1.841-3.379,7.095-5.8,11.326a21.815,21.815,0,0,0-1.505-2.475C67.4,9.458,53.636,2.731,37.639.22a23.674,23.674,0,0,0-7.5.184A44.847,44.847,0,0,0,6.227,12.129c-2.158,2.052-3.706,4.794-5.31,7.36-.623,1-.63,2.378-.917,3.584Z" transform="translate(81.809 22.093) rotate(131)" fill="#a44f80"/>
</svg>
