<svg xmlns="http://www.w3.org/2000/svg" width="29.946" height="45.118" viewBox="0 0 29.946 45.118">
  <g id="Grupo_77540" data-name="Grupo 77540" transform="matrix(0.961, 0.276, -0.276, 0.961, -524.866, -175.386)">
    <path id="Trazado_1898" data-name="Trazado 1898" d="M568.1,33.4q1.567-2.376,3.157-4.736.767-1.136,1.54-2.273a3.3,3.3,0,0,0,.546-3.019,1.356,1.356,0,0,0-1.291-1,3.245,3.245,0,0,0-2.72,1.363q-.84,1.082-1.677,2.169-1.814,2.355-3.606,4.727c-2.3,3.046-3.878,6.727-5.622,10.111-.657,1.273,1.071,2.814,2.1,1.615q1.9-2.2,3.816-4.382A42.142,42.142,0,0,0,568.1,33.4" fill="#a44f80"/>
    <path id="Trazado_1899" data-name="Trazado 1899" d="M579.894,31.084c-1.429-.881-3.588.152-5.034.668a38.9,38.9,0,0,0-4.8,2.07c-2.876,1.484-5.345,4.285-7.333,6.788-.634.794.2,2.318,1.2,1.587a34.9,34.9,0,0,1,4.043-2.55c1.327-.714,2.751-1.233,4.057-1.976a33.326,33.326,0,0,1,4.051-1.975c1.435-.574,3.676-.783,4.473-2.21a1.8,1.8,0,0,0-.652-2.4" transform="translate(2.396 4.759)" fill="#a44f80"/>
    <path id="Trazado_1900" data-name="Trazado 1900" d="M568.824,46.969c.387-.006.776-.013,1.164-.02.906-.014,1.813-.031,2.72-.045,1.681-.03,3.369-.02,5.048-.088a38.941,38.941,0,0,0,5.05-.792l2.668-.469a8.013,8.013,0,0,0,2.5-.63,1.015,1.015,0,0,0-.234-1.844,10.918,10.918,0,0,0-3.363-.1q-1.746.042-3.494.082a24.61,24.61,0,0,0-3.566.2c-1.206.209-2.409.439-3.615.659l-3.424.623a21.157,21.157,0,0,0-3.268.635,1.4,1.4,0,0,0-1.016,1.648,1.162,1.162,0,0,0,1.477.839.869.869,0,0,0,.579-.685h0l.778-.014" transform="translate(4.35 11.668)" fill="#a44f80"/>
  </g>
</svg>
