<svg xmlns="http://www.w3.org/2000/svg" width="237.019" height="42.143" viewBox="0 0 237.019 42.143">
  <path id="Trazado_2583" data-name="Trazado 2583" d="M15.519,34.939c.976-.126,1.959-.315,2.937-.379.913-.06,1.825-.123,2.736-.183,5-.331,9.991-.745,14.988-.9,5.226-.16,10.455-.4,15.681-.459,5.334-.059,10.666-.134,16-.132q15.591.012,31.18-.032c10.323-.034,20.647-.1,30.971-.255,5.124-.08,10.25-.313,15.374-.506,5.031-.19,10.058-.485,15.088-.823,1.105-.075,2.209-.213,3.314-.321s2.185-.2,3.275-.337c2.8-.36,5.594-.74,8.39-1.163,4.867-.739,9.722-1.711,14.6-2.331,5.106-.651,10.221-1.037,15.331-1.573A60.47,60.47,0,0,0,212.3,24.5a77.367,77.367,0,0,0,7.812-2.149c2.506-.839,5.011-1.7,7.519-2.525,1.2-.4,2.413-.758,3.627-1.044a40.294,40.294,0,0,0,4.1-1.129c.653-.229.791-1.607.8-2.493a6.756,6.756,0,0,0-.14-1.466c-.093-.4-.289-1.033-.622-1.012-2.446.147-4.89.3-7.334.5q-3.7.3-7.405.4c-4.793.138-9.592-.089-14.378-.369l2.452-.541c2.935-.651,5.863-1.464,8.812-1.911,1.569-.239,3.143-.439,4.708-.742a19.475,19.475,0,0,0,2.367-.581,24.993,24.993,0,0,0,2.506-1.022q.4-.071.608-.632a5.735,5.735,0,0,0,.411-1.929c.841-.413,1.023-2.371,1.031-3.549a9.6,9.6,0,0,0-.2-2.121c-.141-.6-.413-1.457-.9-1.461-2.544-.028-5.082-.281-7.626-.313-.3,0-.6,0-.9,0-2.189.016-4.375.184-6.563.386q-7.311.676-14.619,1.578c-2.263.274-4.525.6-6.791.829-2.77.285-5.535.507-8.307.7-4.638.319-9.283.463-13.923.631-5.321.195-10.637.455-15.955.89-4.925.4-9.847.927-14.769,1.43Q131.2,5.6,123.781,6.353c-5.065.52-10.134.916-15.2,1.312-2.564.2-5.132.276-7.7.409-2.429.127-4.859.174-7.289.247-4.782.146-9.564.249-14.346.362-9.647.225-19.29.544-28.937.868q-7.949.269-15.9.568c-2.7.1-5.408.29-8.109.433-2.31.122-4.621.387-6.931.591-2.459.218-4.918.456-7.377.7-1.462.145-2.925.294-4.389.439L5.7,12.472c-.579.058-1.159.13-1.736.2a8.733,8.733,0,0,0-1.226.262,6.916,6.916,0,0,0-1.337.682,2.924,2.924,0,0,0-.548,1.257A10.177,10.177,0,0,0,.82,19.005l.232.754c.144.4.359.622.643.67a9.867,9.867,0,0,0,1.51.576c.282-.051.5-.276.65-.676a3.44,3.44,0,0,0,.151-.389c.27-.014.541-.015.812-.017s.518-.005.778-.018q.877-.037,1.752-.079,2.257-.1,4.513-.2c1.631-.075,3.26-.132,4.889-.189l-.505.071c-3.852.5-7.7,1.011-11.55,1.584q-.935.173-1.432,1.489a12.222,12.222,0,0,0-.9,3.756q-1.014-.009-2.028-.015c-.474,0-.576,1.308-.58,1.812s.081,1.8.555,1.8c.647,0,1.3.018,1.943.027A20.166,20.166,0,0,0,2.669,33.3q.255.828.509,1.655.48,1.309,1.411,1.469C8.231,35.885,11.875,35.409,15.519,34.939Z" transform="matrix(1, 0.017, -0.017, 1, 0.88, 1.602)" fill="#fbd6d4"/>
</svg>
