<svg xmlns="http://www.w3.org/2000/svg" width="330.068" height="43.28" viewBox="0 0 330.068 43.28">
  <path id="Trazado_2457" data-name="Trazado 2457" d="M473.517,511.274c1.362-.141,2.733-.358,4.1-.424q1.911-.1,3.82-.193c6.975-.349,13.948-.8,20.927-.935,7.3-.145,14.6-.385,21.9-.41,7.45-.024,14.9-.067,22.346-.018q21.778.149,43.552.231,21.629.073,43.258-.036c7.157-.05,14.315-.283,21.469-.468,7.026-.182,14.045-.489,21.067-.847,1.543-.08,3.084-.234,4.626-.353,1.523-.12,3.049-.216,4.571-.372,3.906-.4,7.806-.831,11.708-1.309,6.792-.836,13.563-1.948,20.364-2.642,7.126-.728,14.267-1.143,21.4-1.735,3.22-.267,6.457-.6,9.654-1.188,3.655-.668,7.277-1.476,10.891-2.484,3.492-.974,6.983-1.975,10.479-2.933,1.677-.462,3.363-.88,5.056-1.208,1.917-.372,3.817-.754,5.71-1.305.91-.267,1.089-1.9,1.089-2.952a6.891,6.891,0,0,0-.21-1.741c-.134-.473-.414-1.229-.879-1.206-3.414.153-6.828.31-10.24.525q-5.165.324-10.339.415c-6.693.122-13.4-.189-20.087-.562q1.71-.312,3.419-.621c4.093-.748,8.175-1.687,12.29-2.193,2.189-.27,4.386-.494,6.57-.84a30.987,30.987,0,0,0,3.3-.67c1.176-.319,2.335-.754,3.49-1.192a1.1,1.1,0,0,0,.843-.745,5.888,5.888,0,0,0,.555-2.286c1.171-.483,1.406-2.806,1.406-4.2a9.791,9.791,0,0,0-.3-2.52c-.2-.717-.591-1.733-1.271-1.743-3.554-.055-7.1-.377-10.655-.437-.417-.006-.835-.01-1.252-.01-3.058,0-6.109.18-9.164.4q-10.205.739-20.4,1.748c-3.159.306-6.315.668-9.477.925-3.867.314-7.726.554-11.6.758-6.476.338-12.962.47-19.442.629-7.431.185-14.853.449-22.277.918-6.876.436-13.745,1.016-20.616,1.57q-10.348.829-20.7,1.661c-7.07.574-14.147,1-21.224,1.426-3.58.218-7.166.283-10.749.419-3.392.13-6.786.164-10.178.231-6.678.132-13.356.213-20.035.306-13.473.184-26.94.48-40.411.78q-11.1.251-22.2.536c-3.775.1-7.551.3-11.323.444-3.226.125-6.451.419-9.675.642-3.432.237-6.865.5-10.3.766q-3.061.239-6.126.483c-.886.072-1.775.14-2.664.211-.808.063-1.618.145-2.424.228a13.984,13.984,0,0,0-1.71.3,10.232,10.232,0,0,0-1.861.8,3.187,3.187,0,0,0-.753,1.488,10.307,10.307,0,0,0,0,4.9l.332.9a1.189,1.189,0,0,0,.9.8,15.547,15.547,0,0,0,2.115.7,1.182,1.182,0,0,0,.9-.8,3.639,3.639,0,0,0,.208-.46c.377-.015.755-.013,1.134-.013.362,0,.723,0,1.087-.015q1.225-.037,2.446-.078,3.151-.1,6.3-.2c2.277-.075,4.552-.128,6.828-.182-.235.028-.471.054-.705.08-5.376.566-10.748,1.133-16.119,1.78a2.619,2.619,0,0,0-1.985,1.756,12.611,12.611,0,0,0-1.219,4.451q-1.416-.02-2.833-.036c-.662-.008-.793,1.548-.793,2.146s.131,2.133.793,2.143c.9.011,1.81.033,2.714.049a20.671,20.671,0,0,0,.611,3.967q.364.985.727,1.969a2.619,2.619,0,0,0,1.985,1.756C463.346,512.333,468.431,511.8,473.517,511.274Z" transform="translate(781.501 512.943) rotate(180)" fill="#fbd6d4"/>
</svg>
