<svg xmlns="http://www.w3.org/2000/svg" width="388.249" height="68.342" viewBox="0 0 388.249 68.342">
  <path id="Trazado_2350" data-name="Trazado 2350" d="M477.342,528.88c1.6-.2,3.207-.509,4.809-.6,1.495-.09,2.99-.185,4.482-.275,8.184-.5,16.364-1.136,24.552-1.33,8.562-.206,17.128-.548,25.692-.583,8.74-.035,17.477-.095,26.216-.026q25.55.212,51.095.329c16.916.07,33.833.083,50.749-.051,8.4-.072,16.794-.4,25.187-.666,8.243-.259,16.477-.7,24.715-1.205,1.811-.113,3.618-.333,5.427-.5,1.787-.171,3.578-.308,5.363-.53,4.582-.574,9.159-1.182,13.736-1.862,7.968-1.189,15.912-2.772,23.891-3.759,8.36-1.037,16.738-1.626,25.106-2.469a95.735,95.735,0,0,0,11.326-1.691,122.429,122.429,0,0,0,12.777-3.535c4.1-1.386,8.192-2.811,12.294-4.174,1.967-.657,3.945-1.252,5.932-1.719a63.769,63.769,0,0,0,6.7-1.858c1.068-.379,1.278-2.7,1.278-4.2a11.8,11.8,0,0,0-.247-2.478c-.158-.673-.486-1.749-1.031-1.717-4.006.218-8.01.442-12.013.747q-6.06.462-12.13.59c-7.852.174-15.72-.268-23.565-.8,1.337-.3,2.674-.588,4.011-.884,4.8-1.064,9.591-2.4,14.418-3.121,2.569-.384,5.146-.7,7.707-1.2a30.816,30.816,0,0,0,3.872-.953,39.663,39.663,0,0,0,4.095-1.7q.653-.115.989-1.06a9.861,9.861,0,0,0,.651-3.253c1.374-.687,1.65-3.993,1.65-5.983a16.777,16.777,0,0,0-.357-3.586c-.238-1.02-.693-2.466-1.491-2.48-4.169-.079-8.331-.537-12.5-.622-.489-.009-.979-.014-1.468-.014-3.587,0-7.168.257-10.751.571q-11.973,1.052-23.939,2.487c-3.706.435-7.409.951-11.118,1.316-4.537.447-9.064.789-13.605,1.078-7.6.481-15.207.669-22.809.9-8.718.264-17.425.639-26.136,1.307-8.067.62-16.126,1.446-24.187,2.235q-12.14,1.18-24.282,2.364c-8.295.817-16.6,1.423-24.9,2.029-4.2.31-8.407.4-12.611.6-3.979.185-7.961.234-11.941.328-7.834.187-15.669.3-23.5.435-15.806.261-31.605.683-47.41,1.111q-13.023.357-26.044.763c-4.429.137-8.858.423-13.284.632-3.785.178-7.568.6-11.351.914-4.027.338-8.054.71-12.081,1.09-2.394.227-4.791.46-7.187.687-1.04.1-2.083.2-3.125.3-.948.09-1.9.206-2.843.324a13.819,13.819,0,0,0-2.006.428,11.006,11.006,0,0,0-2.184,1.136,4.942,4.942,0,0,0-.884,2.117,17.713,17.713,0,0,0,0,6.973l.389,1.277c.241.676.6,1.055,1.061,1.141a16.113,16.113,0,0,0,2.481.993c.462-.083.816-.46,1.057-1.134a5.8,5.8,0,0,0,.244-.655c.442-.021.886-.018,1.33-.018.424,0,.848,0,1.275-.021q1.437-.052,2.87-.111,3.7-.142,7.393-.285c2.672-.106,5.34-.183,8.01-.259-.276.039-.552.076-.827.113-6.307.805-12.609,1.613-18.91,2.533q-1.53.281-2.329,2.5a20.977,20.977,0,0,0-1.43,6.335q-1.661-.028-3.324-.051c-.776-.012-.93,2.2-.93,3.054s.154,3.035.93,3.049c1.061.016,2.123.046,3.184.069a35.28,35.28,0,0,0,.717,5.645q.427,1.4.852,2.8.8,2.217,2.329,2.5C465.409,530.389,471.375,529.63,477.342,528.88Z" transform="matrix(1, 0.017, -0.017, 1, -442.093, -477.47)" fill="#e52441"/>
</svg>
