<svg xmlns="http://www.w3.org/2000/svg" width="415.803" height="44.326" viewBox="0 0 415.803 44.326">
  <path id="Trazado_2405" data-name="Trazado 2405" d="M460.659,434a141.815,141.815,0,0,1,16.683-1.755c3.155-.189,6.3-.318,9.465-.427,4.53-.155,9.045-.271,13.579-.345,8.631-.14,17.267-.193,25.9-.214,17.3-.042,34.588-.117,51.875-.7,17.927-.6,35.854-1.163,53.778-1.782,17-.588,33.99-1.175,50.992-1.624,17.028-.451,34.042-.851,51.051-1.591,17.4-.756,34.827-1.162,52.258-1.492,8.269-.155,16.564-.355,24.793-.964q6.444-.479,12.868-1.056c4.2-.369,8.417-.613,12.63-.887a102.162,102.162,0,0,1,11.607.027,8.8,8.8,0,0,0,6.33-2.852q1.162-1.6,2.321-3.2a19.446,19.446,0,0,0,0-17.46q-1.159-1.6-2.321-3.2a8.8,8.8,0,0,0-6.33-2.852c-2.139.116-4.274.27-6.414.371-1.949.092-3.9.086-5.855.1-4.173.021-8.34.122-12.5.241-8.66.249-17.3.643-25.968.821-16.783.345-33.58.381-50.343,1.058-8.988.361-17.966.782-26.954,1.134-8.166.322-16.34.533-24.513.743q-26.092.665-52.158,1.622c-17.163.624-34.33,1.2-51.489,1.835q-14.231.522-28.466.965c-8.5.263-17.026.3-25.536.361-17.419.127-34.842.213-52.238.924-4.285.174-8.563.41-12.829.759-3.464.282-6.929.678-10.34,1.18-2.638.388-5.185,1-7.745,1.579a21.228,21.228,0,0,0-4.247,1.464,11.749,11.749,0,0,0-5.33,5.366,18.767,18.767,0,0,0-1.542,13.57,15.585,15.585,0,0,0,3.891,7.349q1.488,1.065,2.981,2.126a8.094,8.094,0,0,0,6.86,0A21.443,21.443,0,0,1,460.659,434Z" transform="translate(-443.058 -391.626)" fill="#fbd6d4"/>
</svg>
