<svg xmlns="http://www.w3.org/2000/svg" width="562.721" height="44.326" viewBox="0 0 562.721 44.326">
  <path id="Trazado_2405" data-name="Trazado 2405" d="M466.878,434c7.345-.985,15.043-1.421,22.577-1.755,4.269-.189,8.531-.318,12.81-.427,6.13-.155,12.241-.271,18.376-.345q17.522-.21,35.053-.214c23.417-.042,46.809-.117,70.2-.7q36.392-.906,72.78-1.782c23-.588,46-1.175,69.009-1.624,23.044-.451,46.071-.851,69.089-1.591,23.555-.756,47.133-1.162,70.722-1.492,11.19-.155,22.416-.355,33.553-.964q8.721-.479,17.415-1.056c5.681-.369,11.391-.613,17.093-.887,5.26-.252,10.444-.161,15.709.027q5.638-.32,8.566-2.852,1.572-1.6,3.141-3.2a15,15,0,0,0,0-17.46q-1.569-1.6-3.141-3.2-2.927-2.533-8.566-2.852c-2.9.116-5.785.27-8.68.371-2.638.092-5.284.086-7.924.1-5.647.021-11.287.122-16.922.241-11.72.249-23.419.643-35.143.821-22.713.345-45.445.381-68.132,1.058-12.164.361-24.314.782-36.478,1.134-11.051.322-22.114.533-33.174.743q-35.311.665-70.587,1.622-34.84.936-69.682,1.835-19.259.522-38.523.965c-11.506.263-23.042.3-34.558.361-23.574.127-47.152.213-70.7.924-5.8.174-11.589.41-17.362.759-4.687.282-9.377.678-13.993,1.18-3.571.388-7.017,1-10.482,1.579a36.049,36.049,0,0,0-5.747,1.464q-5.209,2.106-7.214,5.366a14.463,14.463,0,0,0-2.087,13.57,14.827,14.827,0,0,0,5.266,7.349q2.014,1.065,4.034,2.126a14.508,14.508,0,0,0,9.284,0A36.138,36.138,0,0,1,466.878,434Z" transform="translate(-443.058 -391.626)" fill="#fbd6d4"/>
</svg>
