<svg xmlns="http://www.w3.org/2000/svg" width="341.9" height="57.656" viewBox="0 0 341.9 57.656">
  <path id="Trazado_2404" data-name="Trazado 2404" d="M457.53,446.742a75.63,75.63,0,0,1,13.717-2.283c2.594-.246,5.183-.414,7.783-.555,3.724-.2,7.437-.352,11.165-.449,7.1-.182,14.2-.251,21.3-.278,14.228-.055,28.44-.152,42.655-.909,14.741-.786,29.481-1.513,44.22-2.318,13.975-.765,27.949-1.528,41.929-2.112,14-.587,27.992-1.107,41.978-2.069,14.311-.983,28.637-1.512,42.97-1.941,6.8-.2,13.62-.462,20.387-1.254,3.533-.415,7.056-.882,10.581-1.374,3.451-.48,6.921-.8,10.385-1.154a53.171,53.171,0,0,1,9.544.035,6.6,6.6,0,0,0,5.2-3.71q.955-2.082,1.908-4.162a38.735,38.735,0,0,0,0-22.711q-.953-2.08-1.908-4.162a6.6,6.6,0,0,0-5.2-3.71c-1.759.151-3.515.351-5.274.483-1.6.12-3.211.112-4.815.124-3.431.027-6.858.159-10.281.313-7.121.324-14.229.836-21.353,1.068-13.8.449-27.611.5-41.4,1.376-7.391.47-14.773,1.017-22.164,1.475-6.714.419-13.436.693-20.156.966q-21.455.864-42.888,2.11c-14.112.812-28.228,1.565-42.338,2.387q-11.7.679-23.406,1.255c-6.991.342-14,.389-21,.47-14.323.165-28.649.277-42.953,1.2-3.523.226-7.041.533-10.549.987a86.083,86.083,0,0,0-8.5,1.535,58.034,58.034,0,0,0-6.369,2.054,13.815,13.815,0,0,0-3.492,1.9,14.181,14.181,0,0,0-4.383,6.98,37.4,37.4,0,0,0-1.268,17.651,25.758,25.758,0,0,0,3.2,9.559q1.224,1.385,2.451,2.765a4.505,4.505,0,0,0,5.641,0A14.251,14.251,0,0,1,457.53,446.742Z" transform="translate(-443.058 -391.626)" fill="#e52441"/>
</svg>
