<svg xmlns="http://www.w3.org/2000/svg" width="263.577" height="55.201" viewBox="0 0 263.577 55.201">
  <path id="Trazado_2573" data-name="Trazado 2573" d="M454.215,444.4a48.03,48.03,0,0,1,10.575-2.186c2-.235,4-.4,6-.532,2.871-.193,5.733-.338,8.607-.43,5.471-.174,10.945-.24,16.419-.266,10.969-.052,21.925-.146,32.883-.87,11.364-.752,22.728-1.448,34.09-2.219,10.774-.732,21.546-1.463,32.324-2.022,10.794-.562,21.579-1.06,32.361-1.981,11.033-.942,22.077-1.447,33.126-1.858a146.5,146.5,0,0,0,15.716-1.2c2.723-.4,5.439-.844,8.157-1.315,2.661-.459,5.335-.763,8.006-1.1a33.045,33.045,0,0,1,7.358.034q2.641-.4,4.012-3.552.737-1.993,1.471-3.985a45.7,45.7,0,0,0,0-21.744q-.735-1.991-1.471-3.985-1.371-3.155-4.012-3.552c-1.356.144-2.709.336-4.066.462-1.236.115-2.475.107-3.712.118-2.645.026-5.287.152-7.926.3-5.49.31-10.969.8-16.461,1.022-10.638.43-21.286.474-31.913,1.318-5.7.45-11.389.974-17.086,1.412-5.176.4-10.358.664-15.539.925q-16.54.828-33.063,2.02c-10.879.777-21.761,1.5-32.639,2.285q-9.021.65-18.044,1.2c-5.39.328-10.793.372-16.187.45-11.042.158-22.086.265-33.113,1.151-2.716.217-5.428.511-8.132.945a54.839,54.839,0,0,0-6.555,1.47,38.83,38.83,0,0,0-4.91,1.966A10.232,10.232,0,0,0,447.8,410.5a14.329,14.329,0,0,0-3.379,6.683,44.128,44.128,0,0,0-.977,16.9,28.924,28.924,0,0,0,2.467,9.152q.943,1.326,1.889,2.648a2.964,2.964,0,0,0,4.349,0A10.712,10.712,0,0,1,454.215,444.4Z" transform="translate(-443.058 -391.626)" fill="#fbd6d4"/>
</svg>
