<svg xmlns="http://www.w3.org/2000/svg" width="138.733" height="89.346" viewBox="0 0 138.733 89.346">
  <g id="Grupo_77639" data-name="Grupo 77639" transform="translate(-1936.151 -624.156) rotate(9)">
    <path id="Trazado_2206" data-name="Trazado 2206" d="M459.857,532.179a9.1,9.1,0,0,1,1.564-.637c.486-.1.972-.2,1.457-.291a69.489,69.489,0,0,1,7.983-1.4c2.784-.217,5.569-.579,8.354-.615,2.842-.037,5.683-.1,8.524-.027,5.538.149,11.076.279,16.613.347,5.5.073,11,.088,16.5-.054,2.73-.076,5.46-.425,8.19-.7,2.68-.274,5.357-.735,8.036-1.273.589-.12,1.177-.352,1.765-.53s1.163-.325,1.744-.559c1.49-.606,2.978-1.248,4.466-1.966,2.591-1.255,5.174-2.926,7.768-3.969,2.718-1.094,5.442-1.717,8.163-2.606a12.781,12.781,0,0,0,3.682-1.785,26.666,26.666,0,0,0,4.154-3.732c1.332-1.463,2.664-2.968,4-4.406a15.563,15.563,0,0,1,1.929-1.815,13.926,13.926,0,0,0,2.178-1.961c.347-.4.416-2.855.416-4.435q0-1.345-.08-2.616c-.051-.711-.158-1.846-.335-1.812-1.3.23-2.6.467-3.906.789a23.45,23.45,0,0,1-3.944.623,26.882,26.882,0,0,1-7.662-.845c.435-.313.87-.62,1.3-.933a36.221,36.221,0,0,1,4.688-3.295,25.351,25.351,0,0,0,2.506-1.263,5.939,5.939,0,0,0,1.259-1.006,14.73,14.73,0,0,0,1.331-1.79q.212-.121.322-1.119a31.787,31.787,0,0,0,.212-3.434c.447-.725.536-4.216.536-6.316q0-1.945-.116-3.786c-.077-1.077-.225-2.6-.485-2.618-1.356-.083-2.709-.567-4.065-.657-.159-.01-.318-.015-.477-.015a12.862,12.862,0,0,0-3.5.6c-2.6.74-5.191,1.627-7.784,2.625-1.2.459-2.409,1-3.615,1.39a43.2,43.2,0,0,1-4.424,1.138,69.955,69.955,0,0,1-7.416.945,58.612,58.612,0,0,0-8.5,1.38c-2.623.655-5.243,1.527-7.864,2.359s-5.263,1.654-7.9,2.5c-2.7.862-5.4,1.5-8.1,2.142-1.366.327-2.734.425-4.1.63-1.294.2-2.589.247-3.883.347-2.547.2-5.095.32-7.643.459-5.139.276-10.276.721-15.415,1.172-2.823.252-5.645.528-8.468.806-1.44.144-2.88.447-4.319.667a34.2,34.2,0,0,0-3.691.965c-1.309.357-2.619.75-3.928,1.15-.778.239-1.558.486-2.337.725-.338.108-.677.21-1.016.318-.308.1-.617.217-.924.342a2.333,2.333,0,0,0-.652.452,5.768,5.768,0,0,0-.71,1.2,13.39,13.39,0,0,0-.287,2.235q-.116,1.788-.113,3.678c0,1.268.035,2.491.113,3.683l.126,1.348c.078.713.194,1.114.345,1.2a5.662,5.662,0,0,0,.807,1.048c.15-.088.265-.486.344-1.2.03-.215.056-.447.079-.691a2.847,2.847,0,0,1,.432-.019,2.977,2.977,0,0,0,.415-.022q.467-.055.933-.117c.8-.1,1.6-.2,2.4-.3.869-.112,1.736-.193,2.6-.273-.09.041-.18.081-.269.12-2.05.85-4.1,1.7-6.149,2.674q-.5.3-.757,2.638a66.762,66.762,0,0,0-.465,6.687c-.36-.02-.721-.039-1.081-.054-.252-.012-.3,2.325-.3,3.224s.05,3.2.3,3.219c.345.017.69.049,1.035.073q.044,3.044.233,5.96.139,1.48.277,2.958.26,2.341.757,2.638C455.977,533.772,457.917,532.971,459.857,532.179Z" transform="translate(1568.567 -157.663)" fill="#fff"/>
    <path id="Trazado_2207" data-name="Trazado 2207" d="M8.424,62.516a9.1,9.1,0,0,1,1.564-.637c.486-.1.972-.2,1.457-.291a69.5,69.5,0,0,1,7.983-1.4c2.784-.217,5.569-.579,8.354-.616,2.842-.037,5.683-.1,8.524-.027,5.538.149,11.076.279,16.613.347,5.5.073,11,.088,16.5-.054,2.73-.076,5.46-.425,8.19-.7,2.68-.274,5.357-.735,8.036-1.273.589-.12,1.176-.352,1.765-.53s1.163-.325,1.744-.559c1.49-.606,2.978-1.248,4.466-1.966,2.591-1.255,5.174-2.926,7.768-3.969,2.718-1.094,5.442-1.717,8.163-2.606a12.784,12.784,0,0,0,3.682-1.785,26.672,26.672,0,0,0,4.154-3.732c1.332-1.463,2.664-2.968,4-4.406a15.554,15.554,0,0,1,1.929-1.815,13.927,13.927,0,0,0,2.178-1.961c.347-.4.416-2.855.416-4.435q0-1.345-.08-2.616c-.051-.711-.158-1.846-.335-1.812-1.3.23-2.6.467-3.906.789a23.447,23.447,0,0,1-3.944.623,26.883,26.883,0,0,1-7.662-.845c.435-.313.87-.62,1.3-.933A36.217,36.217,0,0,1,115.972,22a25.355,25.355,0,0,0,2.506-1.263,5.936,5.936,0,0,0,1.259-1.006,14.723,14.723,0,0,0,1.331-1.79q.212-.121.322-1.119a31.781,31.781,0,0,0,.212-3.434c.447-.725.536-4.216.536-6.316q0-1.945-.116-3.786c-.077-1.077-.225-2.6-.485-2.618C120.182.589,118.829.1,117.473.015Q117.235,0,117,0a12.86,12.86,0,0,0-3.5.6c-2.6.74-5.191,1.627-7.784,2.625-1.2.459-2.409,1-3.615,1.39a43.156,43.156,0,0,1-4.424,1.138,69.938,69.938,0,0,1-7.416.945,58.6,58.6,0,0,0-8.5,1.38c-2.623.655-5.243,1.527-7.864,2.359s-5.263,1.654-7.9,2.5c-2.7.862-5.4,1.5-8.1,2.142-1.366.327-2.734.425-4.1.63-1.294.2-2.588.247-3.883.347-2.547.2-5.095.32-7.643.459-5.139.276-10.276.721-15.415,1.172-2.823.252-5.645.528-8.468.806-1.44.144-2.88.447-4.319.667a34.186,34.186,0,0,0-3.691.965c-1.309.357-2.619.75-3.928,1.15-.778.239-1.558.486-2.337.725-.338.108-.677.21-1.016.318-.308.1-.617.217-.925.342a2.335,2.335,0,0,0-.652.452,5.772,5.772,0,0,0-.71,1.2,13.389,13.389,0,0,0-.287,2.235Q.417,28.334.421,30.225c0,1.268.035,2.491.113,3.683L.66,35.256c.078.713.194,1.114.345,1.2a5.663,5.663,0,0,0,.807,1.048q.225-.132.344-1.2c.03-.215.056-.447.079-.691a2.849,2.849,0,0,1,.432-.019,2.962,2.962,0,0,0,.415-.022q.467-.055.933-.117c.8-.1,1.6-.2,2.4-.3.869-.112,1.736-.193,2.6-.273-.09.041-.18.081-.269.12-2.051.85-4.1,1.7-6.149,2.674q-.5.3-.757,2.638a66.775,66.775,0,0,0-.465,6.687c-.36-.02-.721-.039-1.081-.054C.05,46.941,0,49.278,0,50.177s.05,3.2.3,3.219c.345.017.69.049,1.035.073q.044,3.044.233,5.96.139,1.48.277,2.958.26,2.341.757,2.638C4.544,64.109,6.484,63.307,8.424,62.516Z" transform="translate(2150.908 381.726) rotate(180)" fill="#fff"/>
  </g>
</svg>
