<svg xmlns="http://www.w3.org/2000/svg" width="376.5" height="29.525" viewBox="0 0 376.5 29.525">
  <path id="Trazado_2390" data-name="Trazado 2390" d="M438.932,293.142c-.425-.164-.832-.34-1.23-.539a15.613,15.613,0,0,1-1.85-1.5,32.282,32.282,0,0,1-2.135-2.534c-.87-1.131-1.686-2.275-2.654-3.357-.377-.42-.742-.845-1.166-1.238a7.383,7.383,0,0,0-1.825-1.214,6.968,6.968,0,0,0-2.658-.492,9.526,9.526,0,0,0-1.338.173,3.674,3.674,0,0,0-1.473.667,6.655,6.655,0,0,0-2.047,2.716c-.293.559-.566,1.124-.848,1.686-.443.887-.913,1.768-1.385,2.646-.488.875-1.022,1.733-1.566,2.588a13.391,13.391,0,0,1-1.579,1.971,10.2,10.2,0,0,1-1.031.842l-.115.052c-.213.051-.424.094-.64.131-.053,0-.107,0-.162,0s-.1-.021-.152-.033c-.319-.134-.621-.276-.916-.433-.253-.186-.487-.375-.712-.576a11.382,11.382,0,0,1-.927-1.2c-.57-1.168-1.006-2.384-1.49-3.573a23.949,23.949,0,0,0-2.406-4.835,5.447,5.447,0,0,0-2.465-2.134,4.994,4.994,0,0,0-2.854-.238c-.393.127-.782.255-1.171.388-.328.191-.654.387-.979.583a4.263,4.263,0,0,0-1.223,1.723c-.131.29-.2.591-.356.874l-.474.879c-.654,1.061-1.306,2.115-2.019,3.151-.408.594-.818,1.191-1.227,1.784-.5.723-1.047,1.429-1.591,2.131a21.408,21.408,0,0,1-1.717,1.915,15.448,15.448,0,0,1-2.146,1.8c-.3.146-.6.279-.906.4-.256.066-.509.121-.768.167h-.037c-.111-.047-.221-.1-.329-.152l-.035-.027a13.891,13.891,0,0,1-1.38-2.091c-1.007-1.9-1.926-3.829-2.907-5.737-.466-.909-1.01-1.788-1.551-2.671a9.293,9.293,0,0,0-1.852-2.313,8.272,8.272,0,0,0-1.331-.93,5.076,5.076,0,0,0-1.6-.662,4.929,4.929,0,0,0-4,.744,9.026,9.026,0,0,0-2.6,3.242c-.433.7-.891,1.381-1.347,2.067-.422.632-.888,1.246-1.34,1.865a33.9,33.9,0,0,1-3.035,3.656c-.417.411-.843.814-1.289,1.206a11.744,11.744,0,0,1-1.5,1.081,16.252,16.252,0,0,1-1.947.947c-.239.06-.476.111-.719.153-.3.005-.587,0-.879-.016-.168-.028-.333-.063-.5-.1l-.032-.014a7.721,7.721,0,0,1-.6-.494c-.249-.27-.492-.542-.727-.822a12.231,12.231,0,0,1-1.1-1.71c-.229-.389-.447-.777-.664-1.17-.561-1.022-1.117-2.047-1.684-3.067-.362-.669-.722-1.335-1.1-2a22,22,0,0,0-1.857-2.623,10.61,10.61,0,0,0-1.992-1.9,11.64,11.64,0,0,0-1.4-.819,8.529,8.529,0,0,0-1.607-.553l-1.209-.127a5.086,5.086,0,0,0-1.855.377,11.38,11.38,0,0,0-1.354.744l-.287.247a6.317,6.317,0,0,0-.691.735c-.485.575-.95,1.166-1.386,1.761-.823,1.121-1.632,2.252-2.523,3.342l-1.7,2.091q-.908,1.111-1.843,2.2c-.611.715-1.283,1.4-1.956,2.075-.452.445-.915.876-1.4,1.3a11.477,11.477,0,0,1-1.409,1.009,17.618,17.618,0,0,1-2.258,1.067c-.373.1-.74.179-1.127.246a14.164,14.164,0,0,1-1.553-.007c-.339-.06-.66-.128-.982-.214-.317-.138-.615-.284-.909-.444a14.558,14.558,0,0,1-1.337-1.015,25.926,25.926,0,0,1-1.6-2.066c-.623-.863-1.152-1.764-1.7-2.657s-1.1-1.771-1.653-2.661a15.672,15.672,0,0,0-2.348-2.9,14.292,14.292,0,0,0-1.224-1.085,12.257,12.257,0,0,0-1.453-.891,8,8,0,0,0-1.648-.675,4.441,4.441,0,0,0-1.083-.26,7.8,7.8,0,0,0-1.165-.084c-.167.016-.335.033-.505.051a5,5,0,0,0-1.172.181,4.377,4.377,0,0,0-1.56.68,11.318,11.318,0,0,0-2.265,2.7c-.953,1.348-2.015,2.65-3.042,3.962-.618.787-1.276,1.556-1.912,2.333-.961,1.17-1.947,2.329-3.013,3.443a22,22,0,0,1-3.283,2.716c-.345.175-.685.328-1.047.47-.293.075-.58.135-.878.184-.08,0-.159,0-.239,0s-.163-.031-.243-.049l-.041-.021c-.25-.188-.485-.381-.715-.587a42.37,42.37,0,0,1-3.889-5.368c-.863-1.316-1.684-2.649-2.641-3.925a28.655,28.655,0,0,0-1.8-2.271,11.416,11.416,0,0,0-2.83-2.135c-.149-.059-.3-.117-.447-.174a2.451,2.451,0,0,0-.974-.229c-.205-.023-.411-.044-.618-.066a2.856,2.856,0,0,0-1.175.247,4.016,4.016,0,0,0-2.185,2.069c-.376.824-.747,1.649-1.138,2.468-.888,1.851-1.807,3.69-2.782,5.513-.4.708-.833,1.4-1.257,2.1a14,14,0,0,1-1.635,2.245,14.782,14.782,0,0,1-1.356,1.117c-.1.051-.2.1-.3.144l-.014,0H258.9c-.276-.044-.54-.1-.809-.168-.056-.024-.113-.05-.167-.078A15.044,15.044,0,0,1,256.418,302a37.836,37.836,0,0,1-3.187-4.184q-.766-1.108-1.517-2.222c-.556-.824-1.183-1.618-1.808-2.411a11.094,11.094,0,0,0-3.7-3.1,5.4,5.4,0,0,0-.962-.276,3.852,3.852,0,0,0-1.686.1c-.182.061-.366.12-.549.181-.3.167-.6.341-.895.521a3.323,3.323,0,0,0-.877,1.151c-.781,1.524-1.459,3.076-2.158,4.623-.819,1.808-1.673,3.623-2.593,5.4-.234.428-.469.857-.7,1.285.061-.11.12-.222.18-.333-.326.594-.668,1.178-1.051,1.751a8.829,8.829,0,0,1-.995,1.181,9.582,9.582,0,0,1-.946.755c-.094.045-.19.089-.288.128-.134.035-.27.063-.408.087l-.173,0-.049-.01c-.08-.035-.16-.072-.239-.111l-.062-.047a32.418,32.418,0,0,1-2.759-4.424c-.65-1.3-1.3-2.6-1.9-3.923q-.578-1.254-1.157-2.51c-.321-.695-.618-1.4-1-2.074a7.146,7.146,0,0,0-.782-1.135,5.808,5.808,0,0,0-1.482-1.1,2.713,2.713,0,0,0-1.506-.484,2.387,2.387,0,0,0-1.838.819,7.72,7.72,0,0,0-.7.827c-.162.284-.31.573-.447.865-.184.37-.279.772-.438,1.149q-.336.8-.674,1.6c-.594,1.408-1.266,2.807-1.976,4.18a18.5,18.5,0,0,1-2.612,3.729,10.824,10.824,0,0,1-1.258,1.016c-.138.069-.28.132-.426.189-.086.022-.172.043-.259.061l-.007,0c-.069-.049-.134-.1-.2-.153a53,53,0,0,1-3.4-5.236c-.674-1.1-1.344-2.192-2.084-3.264a14.135,14.135,0,0,0-1-1.225,12.732,12.732,0,0,0-.984-1.037,6.253,6.253,0,0,0-2.559-1.452,5.1,5.1,0,0,0-3.205,0c-.155.061-.31.121-.462.182a5.761,5.761,0,0,0-.9.593c-.115.117-.232.232-.346.349a2.181,2.181,0,0,0-.587.709,9.618,9.618,0,0,0-.7,1.6c-.129.314-.253.63-.388.941-.754,1.731-1.539,3.455-2.417,5.151a14.7,14.7,0,0,1-1.681,2.443,4.471,4.471,0,0,1-.371.285,6.972,6.972,0,0,1-.664.312l-.062.012h-.076a5.5,5.5,0,0,1-.545-.12c-.1-.037-.19-.079-.28-.122a8.48,8.48,0,0,1-.7-.593c-.532-.561-1.041-1.125-1.508-1.723-.331-.423-.66-.845-1-1.263q-.948-1.162-1.9-2.327a25.708,25.708,0,0,0-4-4.03A7.445,7.445,0,0,0,175.8,294a6.714,6.714,0,0,0-1.556-.148,4.147,4.147,0,0,0-1.638.326,10.024,10.024,0,0,0-.9.514,11.07,11.07,0,0,0-1.024,1.074c-.076.128-.151.256-.227.385a3.955,3.955,0,0,0-.417.88c-.082.205-.156.411-.239.615-.3.746-.6,1.489-.895,2.236-.711,1.786-1.458,3.569-2.354,5.3a17.413,17.413,0,0,1-1.32,2.077c-.066-.106-.132-.213-.2-.32-.936-1.818-1.78-3.668-2.655-5.5q-1.355-2.842-2.9-5.628c-.267-.482-.556-.958-.853-1.429-.333-.527-.744-1.024-1.12-1.532a4.235,4.235,0,0,0-2.431-1.754,4.048,4.048,0,0,0-1.608-.021c-.318.089-.635.189-.946.3a1.975,1.975,0,0,0-.767.6,3.171,3.171,0,0,0-.6,1.019c-.228.569-.386,1.158-.557,1.74-.231.779-.507,1.555-.791,2.325a39.312,39.312,0,0,1-1.9,4.544,14.013,14.013,0,0,1-1.766,2.623,11.187,11.187,0,0,1-1.226,1.021c-.1.05-.2.1-.3.139-.09.022-.182.04-.273.056-.144.008-.286.009-.428,0l-.221-.04-.094-.044c-.317-.234-.613-.468-.9-.72-.723-.8-1.4-1.633-2.084-2.456-.425-.509-.844-1.018-1.268-1.53a17.862,17.862,0,0,0-1.853-2.059,6.1,6.1,0,0,0-2.519-1.671,3.427,3.427,0,0,0-.841-.134,6.529,6.529,0,0,0-.9.123,3.981,3.981,0,0,0-1.583.831c-.761.562-.91,1.465-1.271,2.19-.269.538-.533,1.076-.816,1.609a16.582,16.582,0,0,1-2.109,3.067,11.863,11.863,0,0,1-1.247,1.041,9.626,9.626,0,0,1-.937.437,8.879,8.879,0,0,1-.965.214,6.4,6.4,0,0,1-.739-.007,5.565,5.565,0,0,1-.619-.126,4.2,4.2,0,0,1-.4-.181,5.935,5.935,0,0,1-.526-.388,15.047,15.047,0,0,1-1.1-1.553q-.4-.6-.792-1.191-.464-.7-.924-1.39a11.853,11.853,0,0,0-1.054-1.424,9.09,9.09,0,0,0-1.6-1.264,2.372,2.372,0,0,0-2.333-.234,5.18,5.18,0,0,0-1.66,1.121,8.285,8.285,0,0,0-.891,1.582c-.222.4-.446.8-.67,1.193a19.248,19.248,0,0,1-2.422,3.437,13.834,13.834,0,0,1-1.807,1.428,14.429,14.429,0,0,1-1.767.779,5.966,5.966,0,0,1-.681.144,6.5,6.5,0,0,1-.668,0,8.852,8.852,0,0,1-1.013-.214l-.234-.109a8.94,8.94,0,0,1-.992-.8,16.829,16.829,0,0,1-1.3-1.843q-.532-.818-1.06-1.635-.853-1.309-1.715-2.612a22.314,22.314,0,0,0-1.741-2.379c-.376-.436-.837-.841-1.265-1.247a6.556,6.556,0,0,0-1.455-.982q-.416-.141-.84-.267a7.645,7.645,0,0,0-.9-.071c-.315.025-.628.064-.939.116q-.443.128-.875.276a4.655,4.655,0,0,0-.739.4,6.142,6.142,0,0,0-.6.564,16.038,16.038,0,0,0-.806,1.424c.066-.119.129-.237.2-.356-.3.555-.587,1.115-.871,1.677l-.829,1.482a17.892,17.892,0,0,1-2.6,3.558,16.142,16.142,0,0,1-1.614,1.253,5.333,5.333,0,0,1-.5.229c-.215.058-.426.106-.644.146-.19-.209-.37-.423-.547-.645a5.886,5.886,0,0,1-.546-.887q-.336-.624-.673-1.248c-.2-.371-.429-.741-.594-1.124q-.669-1.549-1.335-3.1c-.12-.274-.2-.562-.3-.839q-.369-1.024-.737-2.05-.76-2.113-1.5-4.229a2.289,2.289,0,0,0-2.631-1.16c-1.127.241-1.8,1.17-1.494,2.044.82,2.349,1.666,4.693,2.51,7.037.3.828.7,1.64,1.055,2.455.384.888.85,1.739,1.318,2.606.321.588.644,1.171.984,1.753a6.459,6.459,0,0,0,.854,1.1,4.475,4.475,0,0,0,1.4,1.153l.369.163a2.707,2.707,0,0,0,.924.224A7.042,7.042,0,0,0,81.445,310a7.966,7.966,0,0,0,1.931-.634c.317-.173.623-.352.926-.54a9.489,9.489,0,0,0,.927-.675,15.356,15.356,0,0,0,4.1-5.314c.636-1.247,1.23-2.5,1.825-3.755l.031-.049a12.218,12.218,0,0,1,.974.849,19.692,19.692,0,0,1,2.171,2.975q.694,1.091,1.386,2.183c.4.626.777,1.258,1.165,1.888.291.475.583.953.9,1.42a7.767,7.767,0,0,0,.96,1.026,6.875,6.875,0,0,0,1.128.888,7.28,7.28,0,0,0,2.378.912,9.315,9.315,0,0,0,3.4.02,7.38,7.38,0,0,0,1.093-.308,16.754,16.754,0,0,0,1.728-.687,11.744,11.744,0,0,0,2.783-1.924,15.547,15.547,0,0,0,3.362-4.6q.3-.57.605-1.14c.058-.109.111-.219.165-.328.4.546.739,1.119,1.1,1.683q.46.718.913,1.442a9.035,9.035,0,0,0,1.691,2.339,7.865,7.865,0,0,0,2.1,1.278,8.541,8.541,0,0,0,2.841.477,7.877,7.877,0,0,0,2.144-.279,8.463,8.463,0,0,0,2.339-.982,10.316,10.316,0,0,0,3.2-3.121,21.112,21.112,0,0,0,1.786-3.229c.17-.374.338-.748.507-1.124.1-.213.18-.43.262-.647q.257.221.508.449c.8.871,1.5,1.8,2.213,2.712l1.437,1.847c.342.436.67.877,1.029,1.307a8.657,8.657,0,0,0,.967.922l.376.3c.266.169.537.337.813.5a6.131,6.131,0,0,0,2.87.524,7.053,7.053,0,0,0,1.456-.2,5.486,5.486,0,0,0,1.42-.591,9.126,9.126,0,0,0,2.308-1.872,13,13,0,0,0,1.741-2.489,29.611,29.611,0,0,0,1.98-4.261c.276-.731.559-1.459.809-2.2.142-.414.276-.83.412-1.247.336.506.643,1.022.934,1.546,1.013,1.914,1.919,3.864,2.772,5.823.418.957.834,1.914,1.242,2.873q.388.911.774,1.821c.246.58.573,1.141.879,1.7a4.458,4.458,0,0,0,1.321,1.417,4.3,4.3,0,0,0,1.5.7,4.717,4.717,0,0,0,1.064.158,9.6,9.6,0,0,0,1.082-.137,7.535,7.535,0,0,0,1.026-.37c.307-.176.612-.357.913-.542a8.514,8.514,0,0,0,1.448-1.342,11.377,11.377,0,0,0,1.075-1.606c.384-.608.712-1.235,1.041-1.86.367-.7.687-1.414.992-2.132.443-1.045.867-2.085,1.264-3.139.156-.421.314-.841.466-1.263.189-.512.346-1.041.554-1.552a15.919,15.919,0,0,1,1.753,1.472c1.5,1.614,2.849,3.329,4.171,5.035.342.441.671.885,1.023,1.32.3.367.654.712.984,1.063s.674.681,1.036,1a7.175,7.175,0,0,0,1.254.788,8.241,8.241,0,0,0,1.548.53,9.216,9.216,0,0,0,1.708.232,5.842,5.842,0,0,0,1.638-.175l.592-.194a4.8,4.8,0,0,0,.95-.381,9.743,9.743,0,0,0,1.328-.823,7.177,7.177,0,0,0,1.116-1.088,8.8,8.8,0,0,0,.86-1.226c.272-.422.529-.844.768-1.276.637-1.154,1.165-2.343,1.7-3.528.635-1.4,1.175-2.824,1.679-4.258a4.966,4.966,0,0,1,.476.385,17.779,17.779,0,0,1,1.725,2.1c.381.546.736,1.108,1.076,1.67.471.771.948,1.541,1.413,2.314.578.966,1.152,1.934,1.749,2.894a7.648,7.648,0,0,0,2.005,2.263,4.9,4.9,0,0,0,1.476.711,2.975,2.975,0,0,0,1.093.205,4.419,4.419,0,0,0,1.145-.05,7.6,7.6,0,0,0,3.1-1.108,13.334,13.334,0,0,0,2.7-2.433,15.8,15.8,0,0,0,1.729-2.591,34.78,34.78,0,0,0,1.7-3.378c.352-.767.65-1.553.972-2.326.121-.287.224-.58.328-.873.9,1.919,1.719,3.859,2.606,5.781.48,1.04.992,2.067,1.51,3.1q.62,1.232,1.356,2.429a6.415,6.415,0,0,0,.884,1.259,2.719,2.719,0,0,0,.718.614,6.367,6.367,0,0,0,1.311.679,6.6,6.6,0,0,0,2.2.381c.409-.033.819-.072,1.226-.118a5.226,5.226,0,0,0,1.152-.308,3.837,3.837,0,0,0,.988-.4c.318-.185.628-.377.931-.575a10.387,10.387,0,0,0,1.878-1.758,15.837,15.837,0,0,0,2.187-3.445c.706-1.277,1.32-2.58,1.916-3.889.459-1,.927-2,1.358-3.016.4-.93.788-1.862,1.186-2.792.1.086.193.173.287.261a44.039,44.039,0,0,1,3.5,4.8,33.028,33.028,0,0,0,4.276,5.635c.326.314.653.623,1,.924.121.092.242.186.366.278.286.185.578.364.875.539a13.1,13.1,0,0,0,1.511.552c.189.043.377.083.566.127q.616.085,1.238.143l.574.011q.593-.056,1.181-.131c.155-.048.312-.094.467-.14a5.2,5.2,0,0,0,1.041-.4c.146-.085.29-.172.436-.255a8.264,8.264,0,0,0,.917-.593,11.342,11.342,0,0,0,1.514-1.353,13.578,13.578,0,0,0,1.884-2.5c.554-.9,1.095-1.8,1.58-2.715.629-1.194,1.219-2.4,1.8-3.608s1.106-2.444,1.615-3.678c.1.084.2.172.3.26a31.41,31.41,0,0,1,2.258,2.939c.566.806,1.079,1.639,1.6,2.464.585.929,1.168,1.859,1.762,2.784a18.135,18.135,0,0,0,3.936,4.868q.445.279.916.528c.343.115.687.229,1.03.341a10.639,10.639,0,0,0,2.087.237q.61-.054,1.219-.122a7.062,7.062,0,0,0,1.091-.244,10.109,10.109,0,0,0,2.617-1.132,21.887,21.887,0,0,0,3.557-2.788A38.386,38.386,0,0,0,297.2,298.8c.93-1.074,1.8-2.179,2.7-3.271.654-.8,1.269-1.623,1.9-2.437.86-1.107,1.612-2.262,2.471-3.369h0c.062.013.124.026.184.042.364.155.7.321,1.037.5a11.353,11.353,0,0,1,1.022.815,16.282,16.282,0,0,1,1.985,2.6c.733,1.184,1.428,2.389,2.118,3.59.591,1.03,1.261,2.029,1.943,3.025a11.724,11.724,0,0,0,3.008,2.916,15.313,15.313,0,0,0,1.511.886,9.965,9.965,0,0,0,2.254.762,9.8,9.8,0,0,0,1.231.175,13.225,13.225,0,0,0,1.4.111,14.519,14.519,0,0,0,2.612-.2,9.692,9.692,0,0,0,1.885-.52,17.736,17.736,0,0,0,2.291-.991,17.132,17.132,0,0,0,3.726-2.6c.957-.873,1.832-1.812,2.711-2.729.937-.977,1.764-2.028,2.593-3.06q1-1.247,2-2.5c.592-.735,1.121-1.508,1.669-2.266.488-.679.986-1.349,1.511-2.009.166.123.325.251.483.387a19.024,19.024,0,0,1,2.416,3.4c1.22,2.284,2.371,4.591,3.65,6.856a9.913,9.913,0,0,0,.87,1.258,11.8,11.8,0,0,0,1.416,1.514,6.7,6.7,0,0,0,1.359.959,9.742,9.742,0,0,0,2.1.742l.526.091c.452.048.9.1,1.352.142a7.985,7.985,0,0,0,1.072.007q.658-.064,1.317-.136a13.778,13.778,0,0,0,3.96-1.465,17.512,17.512,0,0,0,3.364-2.325,31.394,31.394,0,0,0,2.745-2.814,40.624,40.624,0,0,0,2.685-3.6c.508-.731.975-1.477,1.445-2.222.384-.61.72-1.239,1.09-1.855a19.793,19.793,0,0,1,1.365,2.2c.673,1.308,1.279,2.637,1.9,3.962.682,1.465,1.342,2.939,2.177,4.357.205.351.417.7.643,1.041a5.215,5.215,0,0,0,1.431,1.34,9.165,9.165,0,0,0,1.525.815c.408.138.819.271,1.234.4a10.378,10.378,0,0,0,1.321.167,10.274,10.274,0,0,0,2-.138,17.77,17.77,0,0,0,2.5-.714,6.9,6.9,0,0,0,.967-.446q.549-.326,1.092-.653a15.16,15.16,0,0,0,1.582-1.242,34.95,34.95,0,0,0,2.669-2.68c.849-.94,1.548-1.962,2.284-2.954.658-.889,1.244-1.816,1.864-2.722.362-.528.682-1.076,1.006-1.621.508,1.233.968,2.479,1.43,3.719a10.85,10.85,0,0,0,3.772,5.064,13.139,13.139,0,0,0,1.721,1,12.22,12.22,0,0,0,1.976.7,8.655,8.655,0,0,0,1.984.238,11.452,11.452,0,0,0,1.932-.163,8.146,8.146,0,0,0,1.814-.487,7.862,7.862,0,0,0,1.605-.8,15.82,15.82,0,0,0,4.358-4.572c.622-.979,1.181-1.977,1.727-2.983.561-1.036,1.078-2.085,1.583-3.138l.075.093c.566.715,1.067,1.466,1.607,2.193s1.1,1.475,1.7,2.189a27.381,27.381,0,0,0,1.916,1.994,12.291,12.291,0,0,0,4.719,2.81,22.541,22.541,0,0,0,2.986.765,24.9,24.9,0,0,0,3.627.337c1.9.059,3.478-1.275,3.478-2.7a2.445,2.445,0,0,0-1.019-1.909,4.28,4.28,0,0,0-2.46-.792q-.283-.016-.566-.037A24.249,24.249,0,0,1,438.932,293.142Zm-347.819,5.88-.335.11a2.961,2.961,0,0,1,.343-.116Zm96.406,6.188.174.058h0C187.636,305.25,187.577,305.23,187.52,305.209Zm11.088-9.045-.08-.026c.028.008.055.016.082.025Zm.28.391a1.826,1.826,0,0,1,.124-.231h0Zm.356-.526h-.007c.056-.061.118-.121.183-.18C199.362,295.911,199.3,295.971,199.244,296.03ZM232,306.619h-.007c-.03-.018-.059-.037-.089-.057Zm.061.039q-.188.025-.38.036l.374-.039-.025-.014h.008l.023.014.052-.005h.011l-.058.008.083.049Q232.1,306.684,232.058,306.658Zm.194.028.052-.017h0Zm.072-.022h0l.228-.074Q232.438,306.63,232.324,306.665Zm52.384-4.275.264.029.006,0C284.889,302.413,284.8,302.4,284.708,302.389Zm.3.035,0,0,.034,0h0Zm.044,0h0Zm71.719-3.57-.062-.024.075.025Zm.014,0,.016,0,.3.1Q356.941,298.918,356.789,298.862Zm29.522-.452.077.025h0Zm.214.067-.038-.025.045.027Zm.062.039-.051-.032.011,0,.048.028Zm.053.034h.008l.153.093C386.748,298.612,386.694,298.581,386.641,298.549Z" transform="translate(-69.89 -282.267)" fill="#e52441"/>
</svg>
