<svg xmlns="http://www.w3.org/2000/svg" width="861.457" height="93.634" viewBox="0 0 861.457 93.634">
  <path id="Trazado_2264" data-name="Trazado 2264" d="M508.988,545.263c3.549-.257,7.124-.65,10.683-.771q4.981-.172,9.957-.351c18.179-.635,36.352-1.45,54.54-1.7,19.021-.263,38.049-.7,57.073-.744,19.415-.044,38.825-.121,58.237-.033q56.758.27,113.5.42,56.368.133,112.737-.065c18.652-.092,37.307-.514,55.952-.851,18.31-.331,36.6-.889,54.9-1.539,4.022-.145,8.038-.425,12.057-.641,3.969-.219,7.947-.393,11.913-.676q15.268-1.1,30.514-2.378c17.7-1.518,35.347-3.538,53.073-4.8,18.57-1.323,37.181-2.076,55.771-3.152,8.392-.484,16.827-1.09,25.159-2.159,9.525-1.214,18.965-2.682,28.383-4.513,9.1-1.769,18.2-3.589,27.309-5.328,4.37-.839,8.764-1.6,13.177-2.195,5-.676,9.947-1.37,14.88-2.372,2.372-.484,2.839-3.453,2.839-5.364a8.969,8.969,0,0,0-.548-3.163c-.35-.859-1.08-2.233-2.291-2.192-8.9.278-17.794.564-26.687.954q-13.461.589-26.947.753c-17.443.222-10.372-1.754-27.8-2.433h0c10.667-1.359,5.667-2.783,16.391-3.7,5.706-.49,11.431-.9,17.121-1.527,2.886-.316,5.75-.679,8.6-1.217,3.064-.579,6.085-1.371,9.1-2.165a2.778,2.778,0,0,0,2.2-1.353,8.206,8.206,0,0,0,1.446-4.153c3.052-.877,3.665-5.1,3.665-7.638a12.744,12.744,0,0,0-.792-4.578c-.529-1.3-1.54-3.149-3.312-3.166-9.262-.1-18.508-.685-27.77-.794-1.086-.012-2.175-.018-3.262-.018-7.969,0-15.922.328-23.882.729q-26.6,1.342-53.179,3.175c-8.232.555-16.458,1.214-24.7,1.681-10.078.57-20.135,1.007-30.224,1.376-16.877.614-33.782.854-50.669,1.143-19.365.337-38.709.815-58.059,1.669-17.919.792-35.823,1.846-53.73,2.853q-26.968,1.506-53.942,3.018c-18.427,1.043-36.869,1.817-55.314,2.59-9.33.4-18.677.514-28.014.762-8.839.236-17.685.3-26.527.419-17.4.239-34.809.387-52.215.555-35.112.334-70.209.871-105.318,1.418q-28.931.456-57.855.975c-9.838.174-19.678.541-29.51.806-8.407.227-16.811.762-25.215,1.167q-13.419.647-26.837,1.391-7.977.434-15.966.877-3.465.2-6.942.384c-2.107.115-4.216.263-6.316.413-1.5.106-2.977.31-4.457.546a33.719,33.719,0,0,0-4.852,1.45,5.454,5.454,0,0,0-1.963,2.7,13.251,13.251,0,0,0,0,8.9l.864,1.63a3,3,0,0,0,2.357,1.456,53.793,53.793,0,0,0,5.512,1.267,2.989,2.989,0,0,0,2.348-1.447,5.931,5.931,0,0,0,.542-.836c.983-.027,1.969-.024,2.955-.024.942,0,1.884,0,2.833-.027q3.193-.066,6.376-.142,8.212-.182,16.423-.363c5.935-.136,11.863-.233,17.794-.331-.614.05-40.074-4.458-40.685-4.411-14.01,1.028,10.837,6.614-3.161,7.789a6.622,6.622,0,0,0-5.174,3.19,17.91,17.91,0,0,0-3.177,8.087q-3.69-.035-7.384-.065c-1.725-.015-2.066,2.812-2.066,3.9s.341,3.875,2.066,3.893c2.357.021,4.717.059,7.074.089a27.224,27.224,0,0,0,1.593,7.207q.948,1.79,1.894,3.577a6.621,6.621,0,0,0,5.174,3.19C482.479,547.189,495.732,546.22,508.988,545.263Z" transform="matrix(1, 0.017, -0.017, 1, -441.795, -477.47)" fill="#e52441"/>
</svg>
