<svg xmlns="http://www.w3.org/2000/svg" width="904.803" height="70.78" viewBox="0 0 904.803 70.78">
  <path id="Trazado_2256" data-name="Trazado 2256" d="M481.358,459.288c11.81-1.573,24.189-2.269,36.3-2.8,6.865-.3,13.716-.508,20.6-.682,9.857-.247,19.682-.433,29.548-.551q28.173-.335,56.362-.342c37.653-.067,75.264-.187,112.882-1.116q58.515-1.447,117.023-2.845c36.984-.939,73.964-1.876,110.96-2.593,37.053-.72,74.078-1.359,111.089-2.541,37.874-1.207,75.785-1.856,113.715-2.383,17.993-.247,36.043-.567,53.951-1.539q14.023-.764,28-1.686c9.134-.589,18.315-.979,27.484-1.416,8.458-.4,16.794-.257,25.258.043q9.066-.51,13.773-4.554,2.528-2.556,5.05-5.11a23.825,23.825,0,0,0,0-27.88q-2.523-2.553-5.05-5.11-4.706-4.046-13.773-4.554c-4.655.185-9.3.431-13.957.592-4.242.147-8.5.137-12.741.152-9.08.034-18.148.195-27.209.385-18.845.4-37.656,1.027-56.507,1.311-36.52.551-73.071.608-109.549,1.689-19.559.576-39.1,1.249-58.654,1.811-17.769.514-35.557.851-53.342,1.186q-56.777,1.061-113.5,2.59-56.019,1.495-112.043,2.93-30.966.834-61.942,1.541c-18.5.42-37.05.477-55.567.576-37.905.2-75.817.34-113.671,1.475-9.323.278-18.634.655-27.916,1.212-7.537.45-15.077,1.083-22.5,1.884-5.741.62-11.283,1.6-16.854,2.521a58.29,58.29,0,0,0-9.241,2.338q-8.375,3.363-11.6,8.568a22.964,22.964,0,0,0-3.355,21.669q1.79,6.333,8.468,11.735,3.238,1.7,6.486,3.395a23.481,23.481,0,0,0,14.928,0A58.432,58.432,0,0,1,481.358,459.288Z" transform="translate(1347.861 462.406) rotate(180)" fill="#e52441"/>
</svg>
