<svg xmlns="http://www.w3.org/2000/svg" width="44.227" height="77.478" viewBox="0 0 44.227 77.478">
  <g id="Grupo_77685" data-name="Grupo 77685" transform="matrix(-0.695, -0.719, 0.719, -0.695, 16.185, 77.478)">
    <path id="Trazado_1898" data-name="Trazado 1898" d="M15.042,16.905q2.4-3.641,4.837-7.257,1.175-1.741,2.36-3.482a5.059,5.059,0,0,0,.836-4.626A2.077,2.077,0,0,0,21.1,0a4.973,4.973,0,0,0-4.167,2.088q-1.287,1.658-2.569,3.323-2.779,3.608-5.525,7.243C5.319,17.324,2.895,22.964.222,28.149-.784,30.1,1.864,32.46,3.447,30.624q2.905-3.374,5.847-6.714a64.579,64.579,0,0,0,5.748-7" fill="#fff"/>
    <path id="Trazado_1899" data-name="Trazado 1899" d="M26.647.526c-2.189-1.351-5.5.233-7.714,1.024a59.618,59.618,0,0,0-7.358,3.172C7.168,7,3.386,11.287.339,15.122c-.971,1.216.3,3.552,1.836,2.432a53.485,53.485,0,0,1,6.2-3.907c2.033-1.093,4.215-1.889,6.217-3.028a51.067,51.067,0,0,1,6.207-3.025c2.2-.88,5.633-1.2,6.854-3.386a2.751,2.751,0,0,0-1-3.681" transform="translate(10.132 20.121)" fill="#fff"/>
    <path id="Trazado_1900" data-name="Trazado 1900" d="M4.417,6.237c.594-.01,1.19-.019,1.783-.031,1.389-.022,2.778-.048,4.167-.07C12.943,6.091,15.528,6.1,18.1,6A59.666,59.666,0,0,0,25.84,4.788l4.088-.719A12.278,12.278,0,0,0,33.751,3.1,1.555,1.555,0,0,0,33.393.278C31.79-.215,29.9.09,28.24.129q-2.675.065-5.354.125a37.71,37.71,0,0,0-5.465.308c-1.848.32-3.691.673-5.539,1.009l-5.246.954A32.413,32.413,0,0,0,1.629,3.5,2.138,2.138,0,0,0,.072,6.023,1.781,1.781,0,0,0,2.336,7.309a1.331,1.331,0,0,0,.887-1.05h0l1.192-.022" transform="translate(18.394 49.336)" fill="#fff"/>
  </g>
</svg>
