<svg xmlns="http://www.w3.org/2000/svg" width="118.535" height="97.098" viewBox="0 0 118.535 97.098">
  <path id="Trazado_1897" data-name="Trazado 1897" d="M53.236,44.247C48.283,43,43.747,37.5,47.268,32.477c2.469-3.521,7.715-4.6,11.7-4.53a29.558,29.558,0,0,1,11.13,2.37c-.83,8.324-7.92,16.188-16.866,13.93m49.071,14A76.452,76.452,0,0,0,102.35,41.1c-.319-2.937-5.156-2.994-5.267.053q-.131,3.587-.268,7.168c-5.709-8.523-12.7-16.562-21.5-21.287,0-.057,0-.113-.007-.172C74.239,11.175,58.7.121,43.815,0,26.023-.143,1.936,14.371.006,33.545a1.075,1.075,0,0,0,2.059.521C8.084,19.273,23.534,7.146,39.535,5.287c12.6-1.464,27.891,6.367,30.334,19.366a34.661,34.661,0,0,0-9.4-1.866c-6.676-.386-14.666,1.569-18.2,7.829-3.541,6.275-.22,13.835,5.733,17.19,12.246,6.9,24.3-3.157,26.848-15.019,7.285,4.531,13.18,11.673,17.988,19A66.156,66.156,0,0,0,85.1,48.969c-3.279-.961-5.268,4-1.968,4.97A62.717,62.717,0,0,1,97.536,60.1a3.253,3.253,0,0,0,2.077.383,2.385,2.385,0,0,0,2.695-2.227Z" transform="matrix(-0.914, 0.407, -0.407, -0.914, 118.535, 55.281)" fill="#0fa4a6"/>
</svg>
