<svg id="Grupo_78279" data-name="Grupo 78279" xmlns="http://www.w3.org/2000/svg" width="220.414" height="44.359" viewBox="0 0 220.414 44.359">
  <path id="Trazado_14096" data-name="Trazado 14096" d="M14.812,39.043c.906-.124,1.817-.33,2.726-.373.848-.042,1.7-.088,2.543-.13,4.643-.234,9.283-.575,13.931-.58,4.861-.007,9.722-.117,14.585.006,4.963.126,9.924.232,14.887.437q14.511.605,29.018,1.139c9.607.347,19.214.652,28.819.845,4.767.092,9.533-.012,14.3-.066,4.679-.053,9.351-.24,14.025-.482,1.027-.054,2.052-.189,3.078-.286s2.029-.171,3.041-.308c2.6-.355,5.191-.736,7.785-1.171,4.515-.762,9.013-1.822,13.535-2.431,4.738-.639,9.491-.94,14.236-1.432a40.905,40.905,0,0,0,6.417-1.083,54.336,54.336,0,0,0,7.226-2.455c2.315-.978,4.628-1.986,6.946-2.946a30.255,30.255,0,0,1,3.354-1.2,28.318,28.318,0,0,0,3.788-1.29c.6-.269.7-2.026.69-3.159a11.945,11.945,0,0,0-.161-1.881c-.1-.513-.291-1.333-.6-1.318-2.273.095-4.545.2-6.816.357q-3.437.244-6.883.235a112.948,112.948,0,0,1-13.389-1.017c.757-.2,1.514-.4,2.271-.6,2.718-.722,5.426-1.652,8.161-2.112,1.455-.246,2.916-.443,4.367-.771a13.524,13.524,0,0,0,2.191-.654,18.854,18.854,0,0,0,2.311-1.213q.37-.075.553-.785a9.5,9.5,0,0,0,.342-2.452c.774-.5.9-3,.887-4.5a16.966,16.966,0,0,0-.233-2.722c-.144-.777-.414-1.88-.867-1.9-2.368-.132-4.736-.551-7.1-.689-.278-.016-.556-.028-.834-.036a52.172,52.172,0,0,0-6.1.246q-6.79.588-13.573,1.466c-2.1.265-4.2.591-6.3.8-2.573.259-5.141.44-7.717.579-4.31.232-8.63.241-12.945.281-4.948.048-9.89.18-14.831.535-4.576.329-9.145.814-13.716,1.271q-6.884.682-13.77,1.368c-4.7.474-9.413.788-14.123,1.1-2.383.162-4.771.158-7.156.232-2.258.071-4.519.038-6.778.041-4.447.005-8.9-.043-13.344-.08-8.974-.077-17.942-.034-26.914.015Q39.272,7.92,31.881,8c-2.514.026-5.027.166-7.538.247-2.148.069-4.293.32-6.438.494-2.284.186-4.568.4-6.851.615-1.358.13-2.717.265-4.076.4-.59.059-1.181.114-1.772.173-.538.052-1.076.123-1.612.2a6,6,0,0,0-1.136.289,5.567,5.567,0,0,0-1.231.822A4.323,4.323,0,0,0,.743,12.82a16.167,16.167,0,0,0-.167,2.632A16.467,16.467,0,0,0,.8,18.1l.232.974q.214.774.612.882a8.429,8.429,0,0,0,1.417.795q.393-.082.591-.84c.05-.153.094-.318.133-.492.251-.008.5,0,.755.009s.482.013.724.006q.816-.014,1.629-.034,2.1-.043,4.2-.087c1.516-.034,3.031-.045,4.547-.057-.157.025-.313.048-.469.071-3.575.5-7.147,1-10.717,1.589q-.867.186-1.3,1.852a20.04,20.04,0,0,0-.759,4.772c-.629-.033-1.259-.067-1.888-.1-.441-.022-.51,1.652-.5,2.3s.113,2.3.554,2.325c.6.031,1.206.072,1.809.108a35.653,35.653,0,0,0,.455,4.287q.254,1.069.508,2.136.474,1.693,1.344,1.933C8.048,39.977,11.43,39.507,14.812,39.043Z" transform="matrix(1, 0.017, -0.017, 1, 0.707, 0)" fill="#b6d5d4"/>
  <g id="Grupo_78021" data-name="Grupo 78021" transform="translate(12.028 1.817)">
    <path id="Trazado_2670" data-name="Trazado 2670" d="M8.852,31.6a44.541,44.541,0,0,1,8.3-1.3c1.571-.132,3.14-.215,4.715-.282,2.257-.1,4.506-.16,6.766-.19,4.3-.057,8.6-.043,12.908,0,8.624.078,17.238.13,25.851-.226,8.931-.37,17.863-.7,26.793-1.086,8.467-.363,16.934-.726,25.4-.977s16.962-.464,25.435-.95c8.67-.5,17.351-.71,26.037-.862,4.12-.071,8.253-.178,12.351-.615,2.139-.229,4.273-.49,6.407-.767,2.09-.27,4.191-.439,6.29-.632a31.585,31.585,0,0,1,5.785.1,3.9,3.9,0,0,0,3.138-2.255l1.137-2.561a22.671,22.671,0,0,0,.979-7.014,23.073,23.073,0,0,0-1.084-7.043l-1.176-2.591A4.111,4.111,0,0,0,201.721,0c-1.066.08-2.129.19-3.194.257-.971.061-1.945.044-2.918.039-2.08-.01-4.156.044-6.231.113-4.315.144-8.621.405-12.938.493-8.362.169-16.734.089-25.085.525-4.478.232-8.95.513-13.427.738-4.068.206-8.141.323-12.213.439q-13,.366-25.986.968c-8.55.391-17.1.746-25.652,1.143q-7.089.328-14.182.592c-4.236.157-8.484.13-12.725.125-8.681-.011-17.364-.055-26.03.405-2.134.112-4.265.275-6.389.528A50.668,50.668,0,0,0,9.6,7.248,34.034,34.034,0,0,0,5.754,8.469,8.11,8.11,0,0,0,3.646,9.62a8.572,8.572,0,0,0-2.624,4.286A23.522,23.522,0,0,0,.335,24.821a16.47,16.47,0,0,0,1.984,5.942q.748.867,1.5,1.731a2.688,2.688,0,0,0,3.419.044A8.371,8.371,0,0,1,8.852,31.6Z" transform="matrix(1, 0.017, -0.017, 1, 0.578, 0)" fill="#b6d5d4"/>
  </g>
</svg>
