<svg xmlns="http://www.w3.org/2000/svg" width="162.552" height="35.729" viewBox="0 0 162.552 35.729">
  <g id="Grupo_78337" data-name="Grupo 78337" transform="translate(-264.411 -253.617)">
    <path id="Trazado_2670" data-name="Trazado 2670" d="M7.052,32.171a27.343,27.343,0,0,1,6.49-1.294c1.228-.128,2.455-.206,3.687-.268,1.765-.088,3.524-.144,5.291-.165,3.364-.04,6.731-.009,10.1.049,6.746.115,13.484.2,20.219-.124,6.984-.34,13.969-.643,20.953-.995,6.622-.335,13.243-.669,19.868-.889s13.266-.4,19.891-.862c6.78-.469,13.569-.651,20.362-.77a83.779,83.779,0,0,0,9.659-.575c1.672-.224,3.34-.481,5.008-.754,1.634-.266,3.277-.429,4.917-.617a19.033,19.033,0,0,1,4.526.123,3.179,3.179,0,0,0,2.445-2.282l.879-2.6a29.5,29.5,0,0,0,.737-7.134A30.143,30.143,0,0,0,161.2,5.84l-.93-2.642A3.466,3.466,0,0,0,157.783.807c-.833.077-1.664.184-2.5.248-.759.058-1.522.037-2.282.027-1.627-.019-3.251.028-4.873.089-3.375.129-6.742.377-10.118.448-6.54.138-13.089.022-19.619.431-3.5.218-7,.485-10.5.7-3.181.193-6.366.3-9.551.4q-10.167.319-20.322.878c-6.686.363-13.375.689-20.06,1.058q-5.544.3-11.09.544c-3.313.142-6.636.1-9.953.075-6.79-.047-13.582-.127-20.359.305-1.669.106-3.335.262-5,.511a31.2,31.2,0,0,0-4.022.877A22.225,22.225,0,0,0,4.534,8.619,6.011,6.011,0,0,0,2.89,9.781a9.332,9.332,0,0,0-2.035,4.35,30.849,30.849,0,0,0-.492,11.1,20.54,20.54,0,0,0,1.576,6.055q.589.885,1.179,1.768a1.744,1.744,0,0,0,2.675.059A6.321,6.321,0,0,1,7.052,32.171Z" transform="matrix(1, 0.017, -0.017, 1, 264.917, 252.809)" fill="#fff"/>
  </g>
</svg>
