<svg xmlns="http://www.w3.org/2000/svg" width="336.618" height="48.304" viewBox="0 0 336.618 48.304">
  <g id="Grupo_78021" data-name="Grupo 78021" transform="translate(-264.521 -251.611)">
    <path id="Trazado_2670" data-name="Trazado 2670" d="M14.409,42.453a93.1,93.1,0,0,1,13.473-1.676c2.548-.174,5.092-.288,7.647-.382,3.66-.133,7.307-.228,10.971-.28,6.974-.1,13.952-.111,20.929-.091,13.982.04,27.948.048,41.915-.452,14.483-.519,28.967-.992,43.448-1.526,13.731-.507,27.461-1.013,41.2-1.381,13.757-.37,27.5-.689,41.245-1.348,14.061-.673,28.137-1,42.22-1.243,6.681-.116,13.383-.276,20.03-.846,3.47-.3,6.931-.637,10.393-.995,3.39-.349,6.8-.573,10.2-.827a66.749,66.749,0,0,1,9.38.082,6.554,6.554,0,0,0,5.1-2.822q.932-1.595,1.861-3.189a22.207,22.207,0,0,0,1.634-8.718,22.461,22.461,0,0,0-1.711-8.74q-.944-1.6-1.889-3.211a6.717,6.717,0,0,0-5.127-2.882c-1.728.106-3.453.25-5.181.34-1.575.083-3.155.067-4.731.067-3.372,0-6.738.082-10.1.181-7,.208-13.98.561-20.98.7-13.56.265-27.132.221-40.675.819-7.261.318-14.514.7-21.775,1.006-6.6.283-13.2.455-19.8.626Q183,6.2,161.937,7.038c-13.866.542-27.735,1.04-41.6,1.59q-11.5.454-23,.83c-6.869.223-13.757.218-20.632.24-14.075.044-28.153.047-42.207.675-3.461.154-6.918.369-10.363.7-2.8.266-5.6.645-8.35,1.131-2.13.375-4.185.974-6.251,1.542a14.9,14.9,0,0,0-3.425,1.444,10.8,10.8,0,0,0-4.283,5.34A22.739,22.739,0,0,0,.644,34.088,17.258,17.258,0,0,0,3.82,41.455q1.207,1.072,2.418,2.14a5.418,5.418,0,0,0,5.544.033A15.175,15.175,0,0,1,14.409,42.453Z" transform="matrix(1, 0.017, -0.017, 1, 265.168, 249.682)" fill="#fff"/>
  </g>
</svg>
