<svg xmlns="http://www.w3.org/2000/svg" width="37.475" height="41.904" viewBox="0 0 37.475 41.904">
  <g id="Grupo_78298" data-name="Grupo 78298" transform="translate(-172.283 -139.237)">
    <path id="Trazado_9058" data-name="Trazado 9058" d="M191.021,178.494a18.426,18.426,0,1,1,18.738-18.425,18.6,18.6,0,0,1-18.738,18.425m0-34.96a16.539,16.539,0,1,0,16.85,16.536,16.715,16.715,0,0,0-16.85-16.536" transform="translate(0 2.648)" fill="#333334"/>
    <path id="Trazado_9059" data-name="Trazado 9059" d="M192.017,163.446a.93.93,0,0,1-.581-.2l-10.41-8.166a.944.944,0,0,1-.157-1.329l5.418-6.843a.945.945,0,0,1,1.482,1.173l-4.832,6.1,9.665,7.58a.944.944,0,0,1-.584,1.686" transform="translate(9.212 8.039)" fill="#333334"/>
    <path id="Trazado_9060" data-name="Trazado 9060" d="M176.92,151.86h-3.693a.944.944,0,1,1,0-1.887h3.693a.944.944,0,1,1,0,1.887" transform="translate(0 11.801)" fill="#333334"/>
    <path id="Trazado_9061" data-name="Trazado 9061" d="M191.865,151.86h-3.693a.944.944,0,0,1,0-1.887h3.693a.944.944,0,1,1,0,1.887" transform="translate(16.43 11.801)" fill="#333334"/>
    <path id="Trazado_9062" data-name="Trazado 9062" d="M181.581,147.282a.943.943,0,0,1-.945-.945V142.71a.945.945,0,0,1,1.889,0v3.627a.943.943,0,0,1-.945.945" transform="translate(9.182 2.781)" fill="#333334"/>
    <path id="Trazado_9063" data-name="Trazado 9063" d="M181.581,161.965a.943.943,0,0,1-.945-.945v-3.627a.945.945,0,0,1,1.889,0v3.627a.943.943,0,0,1-.945.945" transform="translate(9.182 18.921)" fill="#333334"/>
    <path id="Trazado_9064" data-name="Trazado 9064" d="M190.008,146.559a.943.943,0,0,1-.945-.945,4.588,4.588,0,0,0-9.174,0,.945.945,0,1,1-1.889,0,6.477,6.477,0,0,1,12.952,0,.943.943,0,0,1-.945.945" transform="translate(6.284)" fill="#333334"/>
  </g>
</svg>
