<svg xmlns="http://www.w3.org/2000/svg" width="228.799" height="21.426" viewBox="0 0 228.799 21.426">
  <path id="Trazado_2699" data-name="Trazado 2699" d="M286.666,221.86c-.821.075-1.645.134-2.465.233l-3.4.41a34.063,34.063,0,0,0-5.571,1.151,23.555,23.555,0,0,0-5.635,2.557c-.355.22-.707.458-1.074.653l-1.186.627c-.561.266-1.124.517-1.7.728a12.412,12.412,0,0,1-2.047.545,15.985,15.985,0,0,1-1.809.115,11.43,11.43,0,0,1-1.716-.136,16.992,16.992,0,0,1-2.3-.6,20.365,20.365,0,0,1-2.341-1.009,32.655,32.655,0,0,1-3.811-2.331c-.58-.41-1.155-.829-1.721-1.263-.683-.527-1.357-1.056-2.063-1.538a11.06,11.06,0,0,0-1.674-.994,7.659,7.659,0,0,0-1.156-.41,5.971,5.971,0,0,0-1.208-.158,3.949,3.949,0,0,0-.721.083,6.528,6.528,0,0,0-1.025.274,8.363,8.363,0,0,0-1.516.827q-1.486.919-2.969,1.841c-1.251.781-2.515,1.544-3.811,2.215a25.428,25.428,0,0,1-2.409.99,21.186,21.186,0,0,1-3.277.821,24.566,24.566,0,0,1-3.2.265,22.478,22.478,0,0,1-3.625-.317,41.866,41.866,0,0,1-4.518-1.04,25.7,25.7,0,0,1-4.049-1.51,42.685,42.685,0,0,1-3.839-2.234,28.268,28.268,0,0,0-4.409-2.415,11.856,11.856,0,0,0-1.863-.571,7.964,7.964,0,0,0-4.422.166,9.5,9.5,0,0,0-2.127.987,30.377,30.377,0,0,0-4.565,3.627c-.881.776-1.737,1.6-2.6,2.4-.723.653-1.442,1.307-2.2,1.9a16.432,16.432,0,0,1-2.5,1.6c-.4.191-.808.365-1.223.52a9.121,9.121,0,0,1-1.662.425,6.147,6.147,0,0,1-.666.044,3.793,3.793,0,0,1-.478-.021,7.926,7.926,0,0,1-1.317-.453,27.469,27.469,0,0,1-4.375-3.2c-.66-.616-1.3-1.257-1.913-1.933q-.647-.706-1.292-1.414a45.938,45.938,0,0,0-3.351-3.7,10.119,10.119,0,0,0-1.61-1.178,5.7,5.7,0,0,0-1-.434l-.338-.083-.709-.113c-.115-.007-.229-.016-.344-.025q-.064,0-.128,0a3.209,3.209,0,0,0-.633.064,6.406,6.406,0,0,0-1.2.314,17.639,17.639,0,0,0-2.274,1.035c-.608.312-1.206.651-1.808.981-.423.234-.855.454-1.264.719l-1.936,1.251c-.324.209-.655.407-.969.639q-.874.651-1.749,1.3c-.44.326-.888.641-1.32.981l-3.249,2.562a45.689,45.689,0,0,1-7.292,4.977c-.572.273-1.148.529-1.735.756a12.5,12.5,0,0,1-2.227.6c-.319.043-.636.076-.96.1A7.619,7.619,0,0,1,133.7,235a9.45,9.45,0,0,1-1.97-.611A12.828,12.828,0,0,1,129.748,233a32.837,32.837,0,0,1-2.743-3.09c-.434-.538-.873-1.069-1.31-1.6-.524-.641-1.093-1.228-1.668-1.8a7.947,7.947,0,0,0-1.53-1.2,8.081,8.081,0,0,0-.99-.473,3.866,3.866,0,0,0-1.039-.191,5.254,5.254,0,0,0-.673.089,3.888,3.888,0,0,0-.927.384,3.359,3.359,0,0,0-.828.647c-.247.279-.482.567-.713.865-.441.565-.831,1.2-1.24,1.795-.323.471-.642.947-.964,1.421-.374.551-.766,1.087-1.147,1.631a19.521,19.521,0,0,1-2.531,2.924,13.409,13.409,0,0,1-2.261,1.571,10.6,10.6,0,0,1-2.235.7,12.582,12.582,0,0,1-3.244-.036,20.117,20.117,0,0,1-4.966-1.711,37.87,37.87,0,0,1-4.231-2.6c-.707-.495-1.389-1.037-2.068-1.581s-1.369-1.094-2.045-1.654-1.358-1.139-2.068-1.66a20.064,20.064,0,0,0-2.249-1.435,9.219,9.219,0,0,0-4.558-1.255,6.3,6.3,0,0,0-1.1.142,10.053,10.053,0,0,0-1.135.292,6.966,6.966,0,0,0-.982.438c-.349.176-.7.359-1.043.543a27.964,27.964,0,0,0-4.346,2.864,22.2,22.2,0,0,0-3.391,3.405,21.332,21.332,0,0,0-1.338,1.838,3.861,3.861,0,0,0-.46.983l-.123.423c-.05.3-.1.6-.147.9a1.311,1.311,0,0,0,.245,1.09.86.86,0,0,0,.926.288c.228-.076.456-.153.684-.231a5.02,5.02,0,0,0,.924-.462,1.24,1.24,0,0,0,.34-1.529.935.935,0,0,0-.565-.5,21.325,21.325,0,0,1,2.755-3.084,24.77,24.77,0,0,1,5.163-3.506c.413-.2.828-.4,1.246-.592a6.872,6.872,0,0,1,1.612-.479,7.658,7.658,0,0,1,1.449-.021,9.48,9.48,0,0,1,.959.24,9.936,9.936,0,0,1,1.366.563,19.787,19.787,0,0,1,2.5,1.647c.942.7,1.811,1.531,2.715,2.3s1.788,1.507,2.7,2.228,1.847,1.366,2.8,1.99a26.4,26.4,0,0,0,5.839,2.906,13.139,13.139,0,0,0,6.461.646,9.956,9.956,0,0,0,2.924-.946,12.937,12.937,0,0,0,2.557-1.74,18.123,18.123,0,0,0,2.391-2.535c.388-.5.748-1.012,1.107-1.535.524-.756,1.035-1.522,1.544-2.292a29.7,29.7,0,0,1,1.965-2.793,1.763,1.763,0,0,1,.165-.108,2.222,2.222,0,0,1,.237-.083c.026,0,.051,0,.078,0a2.971,2.971,0,0,1,.423.142,7,7,0,0,1,.995.66,29.215,29.215,0,0,1,2.512,2.8c1.018,1.249,2.027,2.5,3.148,3.626a14.341,14.341,0,0,0,1.542,1.308,10.8,10.8,0,0,0,2,1.148,8.032,8.032,0,0,0,1.973.562,9.484,9.484,0,0,0,2.387.118,13.838,13.838,0,0,0,1.982-.327,13.355,13.355,0,0,0,2.317-.782,26.715,26.715,0,0,0,4.1-2.221c1.933-1.251,3.753-2.72,5.58-4.169.873-.694,1.737-1.411,2.624-2.076l3.051-2.282c.117-.087.246-.159.366-.239q.522-.338,1.043-.678l1.589-1.034c.1-.069.217-.123.326-.182.372-.208.745-.414,1.117-.622.625-.346,1.249-.689,1.882-1.013a12.584,12.584,0,0,1,1.956-.727,3.039,3.039,0,0,1,.406-.012c.113,0,.226.011.339.023a5.594,5.594,0,0,1,.817.266,9.861,9.861,0,0,1,1.317.959c1.277,1.259,2.4,2.725,3.621,4.062.763.839,1.526,1.66,2.337,2.435.733.7,1.5,1.353,2.282,1.971a28.486,28.486,0,0,0,2.607,1.763,6.589,6.589,0,0,0,2.6.968,6.336,6.336,0,0,0,1.2.046,9.724,9.724,0,0,0,1.546-.256,11.03,11.03,0,0,0,2.5-.937,17.571,17.571,0,0,0,2.631-1.62,36.115,36.115,0,0,0,3.321-2.914l1.913-1.8,1.518-1.367a18.9,18.9,0,0,1,3.479-2.534,8.946,8.946,0,0,1,1.885-.6,9.38,9.38,0,0,1,.938-.066,4.9,4.9,0,0,1,.831.066,12.832,12.832,0,0,1,2.88.947c.808.418,1.6.867,2.385,1.354.486.3.961.632,1.441.946s.955.584,1.438.863c.928.539,1.868,1.039,2.829,1.495a23.759,23.759,0,0,0,3.1,1.151,40,40,0,0,0,6.668,1.455,20.726,20.726,0,0,0,3.425.17,25.391,25.391,0,0,0,3.373-.393,20.761,20.761,0,0,0,5.838-1.937c1.2-.6,2.349-1.283,3.508-1.974,1.386-.825,2.753-1.713,4.164-2.482a6.562,6.562,0,0,1,.859-.274,2.923,2.923,0,0,1,.514,0,6.558,6.558,0,0,1,1.192.391,30.729,30.729,0,0,1,3.572,2.631,35.937,35.937,0,0,0,3.784,2.639,29.731,29.731,0,0,0,4.035,2.016,15.061,15.061,0,0,0,4.833,1.043,13.24,13.24,0,0,0,4.31-.523,16.711,16.711,0,0,0,3.479-1.5c.483-.263.966-.519,1.434-.817q.456-.287.909-.576a15.986,15.986,0,0,1,1.411-.774,26.957,26.957,0,0,1,7.169-2.081c1.323-.2,2.656-.307,3.984-.454,1.151-.127,2.309-.19,3.462-.28,2.339-.181,4.689-.356,7.035-.346a1.965,1.965,0,0,0,0-3.879c-1.781.035-3.559.2-5.335.35Q287.954,221.743,286.666,221.86ZM243.3,223.821l.138-.021h0Z" transform="translate(-67.428 -218.776)" fill="#c0dd52"/>
</svg>
