<svg xmlns="http://www.w3.org/2000/svg" width="236.05" height="30.947" viewBox="0 0 236.05 30.947">
  <path id="Trazado_14097" data-name="Trazado 14097" d="M301.264,293.666a7.707,7.707,0,0,1-.771-.565,13.126,13.126,0,0,1-1.16-1.575c-.484-.855-.917-1.742-1.338-2.656-.545-1.185-1.057-2.384-1.664-3.518-.236-.44-.465-.885-.731-1.3a5.351,5.351,0,0,0-1.144-1.272,2.889,2.889,0,0,0-1.666-.515,3.739,3.739,0,0,0-.839.181,2.069,2.069,0,0,0-.924.7,7.788,7.788,0,0,0-1.284,2.847c-.184.586-.355,1.178-.532,1.767-.278.93-.573,1.853-.868,2.774s-.64,1.816-.982,2.713a15.2,15.2,0,0,1-.99,2.066,8.608,8.608,0,0,1-.647.883l-.072.055a4.019,4.019,0,0,1-.4.137c-.034,0-.067,0-.1,0s-.064-.022-.1-.034a6.549,6.549,0,0,1-.574-.453c-.159-.195-.305-.393-.446-.6a13.234,13.234,0,0,1-.581-1.262c-.357-1.224-.631-2.5-.934-3.745a34.146,34.146,0,0,0-1.509-5.068,4.792,4.792,0,0,0-1.546-2.237,1.977,1.977,0,0,0-1.789-.25c-.246.133-.49.267-.734.407-.206.2-.41.405-.614.612a5.163,5.163,0,0,0-.767,1.806c-.082.3-.127.62-.223.916l-.3.921c-.41,1.112-.819,2.217-1.266,3.3-.256.623-.513,1.248-.769,1.87-.311.758-.656,1.5-1,2.233a22.617,22.617,0,0,1-1.076,2.008,13.327,13.327,0,0,1-1.345,1.89,6.787,6.787,0,0,1-.568.421,4.384,4.384,0,0,1-.482.175h-.023c-.07-.049-.138-.1-.206-.159l-.022-.029a17.551,17.551,0,0,1-.865-2.192c-.632-1.992-1.208-4.013-1.823-6.014-.292-.953-.633-1.874-.972-2.8a10.534,10.534,0,0,0-1.161-2.425,6.213,6.213,0,0,0-.835-.975,2.717,2.717,0,0,0-1-.694,2.082,2.082,0,0,0-1.257-.076,2.89,2.89,0,0,0-1.248.855,10.184,10.184,0,0,0-1.632,3.4c-.272.73-.558,1.448-.844,2.167-.265.662-.557,1.306-.84,1.955a37.647,37.647,0,0,1-1.9,3.832c-.261.431-.528.853-.808,1.264a9.044,9.044,0,0,1-.938,1.133,9.5,9.5,0,0,1-1.221.993,3.97,3.97,0,0,1-.451.16,4.4,4.4,0,0,1-.551-.017,2.905,2.905,0,0,1-.312-.109l-.02-.015c-.133-.165-.256-.336-.376-.518-.156-.283-.309-.568-.456-.861a15.66,15.66,0,0,1-.691-1.792c-.144-.408-.281-.814-.416-1.227-.352-1.071-.7-2.145-1.056-3.215-.227-.7-.453-1.4-.69-2.092a26.84,26.84,0,0,0-1.164-2.75A10.05,10.05,0,0,0,243.5,285.1a7.675,7.675,0,0,0-.88-.859,4.163,4.163,0,0,0-1.007-.579l-.758-.133a2.14,2.14,0,0,0-1.163.4,7.2,7.2,0,0,0-.849.78l-.18.259a6.459,6.459,0,0,0-.433.771c-.3.6-.6,1.222-.869,1.846-.516,1.175-1.023,2.36-1.582,3.5l-1.068,2.192q-.569,1.165-1.156,2.311c-.383.749-.8,1.462-1.226,2.175-.283.466-.573.918-.88,1.361a8.779,8.779,0,0,1-.883,1.057,10.115,10.115,0,0,1-1.416,1.119,2.432,2.432,0,0,1-1.681.251,4.874,4.874,0,0,1-.616-.224,6.768,6.768,0,0,1-.57-.465,11.649,11.649,0,0,1-.838-1.064c-.371-.694-.681-1.428-1-2.166-.391-.9-.723-1.848-1.063-2.785s-.693-1.856-1.037-2.789a17.662,17.662,0,0,0-1.472-3.039,12.835,12.835,0,0,0-.767-1.137,8.357,8.357,0,0,0-.911-.933,4.245,4.245,0,0,0-1.033-.708,1.925,1.925,0,0,0-.679-.273,2.973,2.973,0,0,0-.73-.088c-.1.017-.21.034-.317.054a2.006,2.006,0,0,0-.735.19,2.409,2.409,0,0,0-.978.712,12.47,12.47,0,0,0-1.42,2.833c-.6,1.413-1.263,2.777-1.907,4.153-.387.825-.8,1.631-1.2,2.445-.6,1.227-1.221,2.442-1.889,3.609a18.762,18.762,0,0,1-2.058,2.847,6.644,6.644,0,0,1-.656.492,4.035,4.035,0,0,1-.55.192c-.05,0-.1,0-.15,0s-.1-.032-.153-.052l-.026-.022c-.157-.2-.3-.4-.448-.615a51.012,51.012,0,0,1-2.438-5.627c-.541-1.379-1.056-2.776-1.656-4.114-.363-.807-.709-1.618-1.128-2.38a9.084,9.084,0,0,0-1.774-2.238c-.094-.062-.188-.123-.281-.182a1.067,1.067,0,0,0-.61-.241c-.129-.024-.258-.046-.387-.069a1.214,1.214,0,0,0-.737.259,3.759,3.759,0,0,0-1.37,2.169c-.236.864-.468,1.728-.714,2.587-.557,1.94-1.133,3.868-1.744,5.779-.251.742-.522,1.47-.788,2.2a16.8,16.8,0,0,1-1.025,2.353,12.561,12.561,0,0,1-.85,1.17,2.422,2.422,0,0,1-.19.151l-.009,0h-.174a3.514,3.514,0,0,1-.507-.176c-.035-.025-.071-.053-.1-.081a13.077,13.077,0,0,1-.944-1.34,44.265,44.265,0,0,1-2-4.385q-.48-1.161-.951-2.329c-.348-.863-.742-1.7-1.134-2.528a9.546,9.546,0,0,0-2.321-3.254,2.46,2.46,0,0,0-.6-.29,1.488,1.488,0,0,0-1.057.1c-.114.064-.229.126-.344.19-.19.175-.378.357-.561.546a3.872,3.872,0,0,0-.55,1.206c-.49,1.6-.915,3.224-1.353,4.846-.513,1.9-1.049,3.8-1.626,5.661q-.22.673-.439,1.347c.038-.116.075-.232.113-.349-.2.623-.419,1.235-.659,1.836a9.71,9.71,0,0,1-.624,1.238,7.955,7.955,0,0,1-.593.791c-.059.047-.119.093-.181.134a2.111,2.111,0,0,1-.256.092l-.109,0-.031-.01c-.05-.037-.1-.076-.15-.117l-.039-.049a42.159,42.159,0,0,1-1.73-4.637c-.408-1.365-.814-2.73-1.194-4.111q-.363-1.314-.725-2.631c-.2-.728-.387-1.465-.625-2.174a8.838,8.838,0,0,0-.49-1.19,4.564,4.564,0,0,0-.929-1.152,1.313,1.313,0,0,0-.944-.507,1.362,1.362,0,0,0-1.152.859,8.438,8.438,0,0,0-.441.867c-.1.3-.194.6-.281.907-.116.388-.175.81-.274,1.2q-.21.838-.423,1.677c-.372,1.476-.794,2.942-1.239,4.382a22.677,22.677,0,0,1-1.637,3.909,9.069,9.069,0,0,1-.789,1.065,2.774,2.774,0,0,1-.267.2c-.054.023-.108.045-.162.064l0,0c-.043-.052-.084-.1-.123-.16-.823-1.743-1.453-3.643-2.132-5.488-.423-1.149-.842-2.3-1.307-3.421-.186-.447-.408-.865-.628-1.284-.193-.37-.393-.746-.617-1.087a4.059,4.059,0,0,0-1.6-1.522,2,2,0,0,0-2.01,0c-.1.064-.194.127-.289.191a4.157,4.157,0,0,0-.562.622c-.072.123-.146.243-.217.365a2.419,2.419,0,0,0-.368.743,14.306,14.306,0,0,0-.438,1.678c-.081.329-.159.661-.243.986-.473,1.814-.965,3.621-1.516,5.4a18.186,18.186,0,0,1-1.054,2.561,3.594,3.594,0,0,1-.233.3,4,4,0,0,1-.416.328l-.039.013h-.048a2.336,2.336,0,0,1-.341-.126,2.07,2.07,0,0,1-.176-.128,7.337,7.337,0,0,1-.44-.622c-.333-.587-.653-1.18-.946-1.806-.207-.443-.414-.885-.626-1.324q-.594-1.218-1.188-2.439a25.3,25.3,0,0,0-2.509-4.224,4.279,4.279,0,0,0-1.7-1.334,2.594,2.594,0,0,0-.976-.155,1.742,1.742,0,0,0-1.027.341,6.479,6.479,0,0,0-.567.538,11.219,11.219,0,0,0-.642,1.126c-.048.134-.094.268-.142.4a5.737,5.737,0,0,0-.261.922c-.051.215-.1.431-.15.645-.187.782-.376,1.561-.561,2.343-.445,1.873-.914,3.74-1.476,5.56a22.449,22.449,0,0,1-.827,2.177c-.041-.111-.083-.223-.124-.336-.587-1.906-1.116-3.845-1.665-5.77q-.85-2.979-1.818-5.9c-.168-.505-.348-1-.535-1.5-.209-.552-.467-1.073-.7-1.606a3.261,3.261,0,0,0-1.524-1.838,1.546,1.546,0,0,0-1.008-.022c-.2.093-.4.2-.593.31a1.606,1.606,0,0,0-.481.624,4.231,4.231,0,0,0-.374,1.069c-.143.6-.242,1.214-.349,1.823-.145.817-.318,1.63-.5,2.437-.356,1.607-.708,3.211-1.191,4.763a17.539,17.539,0,0,1-1.107,2.75,9.585,9.585,0,0,1-.768,1.07,2.259,2.259,0,0,1-.191.145,1.582,1.582,0,0,1-.171.058,1.746,1.746,0,0,1-.268,0l-.139-.042-.059-.046c-.2-.245-.385-.49-.565-.755-.453-.841-.879-1.712-1.307-2.575-.266-.534-.529-1.067-.795-1.6a18.812,18.812,0,0,0-1.162-2.158c-.435-.644-.918-1.495-1.579-1.751a1.381,1.381,0,0,0-.528-.141,2.579,2.579,0,0,0-.564.129,2.454,2.454,0,0,0-.992.872,6.755,6.755,0,0,0-.8,2.3c-.168.563-.334,1.128-.512,1.687a20.523,20.523,0,0,1-1.322,3.215,10.187,10.187,0,0,1-.782,1.091,5.473,5.473,0,0,1-.588.458,3.765,3.765,0,0,1-.605.224,2.4,2.4,0,0,1-.463-.007,2.317,2.317,0,0,1-.388-.132,2.363,2.363,0,0,1-.248-.19,4.641,4.641,0,0,1-.33-.407c-.266-.515-.473-1.074-.693-1.627q-.249-.625-.5-1.248c-.194-.487-.387-.971-.58-1.457a14.1,14.1,0,0,0-.661-1.492,7.482,7.482,0,0,0-1-1.325,1.014,1.014,0,0,0-1.463-.245,3.8,3.8,0,0,0-1.041,1.175,11.269,11.269,0,0,0-.558,1.658c-.139.417-.28.835-.42,1.251a23.523,23.523,0,0,1-1.518,3.6,11.4,11.4,0,0,1-1.133,1.5,7.956,7.956,0,0,1-1.108.817,2.507,2.507,0,0,1-.427.151,2.442,2.442,0,0,1-.419,0,3.715,3.715,0,0,1-.635-.224l-.146-.115a7.489,7.489,0,0,1-.622-.839,20.556,20.556,0,0,1-.816-1.932q-.333-.857-.664-1.713c-.356-.915-.716-1.826-1.075-2.738a26.718,26.718,0,0,0-1.091-2.493c-.236-.457-.525-.882-.793-1.307a4.8,4.8,0,0,0-.912-1.03q-.261-.148-.527-.279a2.92,2.92,0,0,0-.562-.074,4.391,4.391,0,0,0-.588.121q-.278.134-.549.29a2.918,2.918,0,0,0-.463.42,5.788,5.788,0,0,0-.373.591c-.195.484-.344.988-.505,1.492.041-.125.081-.249.123-.373-.19.582-.368,1.168-.546,1.758l-.52,1.553a21.4,21.4,0,0,1-1.632,3.729,13.126,13.126,0,0,1-1.012,1.314,3.022,3.022,0,0,1-.311.241,3.512,3.512,0,0,1-.4.153c-.119-.219-.232-.443-.343-.676a7.7,7.7,0,0,1-.342-.93q-.21-.654-.422-1.308c-.126-.389-.269-.776-.372-1.178q-.419-1.623-.837-3.246c-.075-.288-.128-.589-.191-.88q-.232-1.074-.462-2.148-.476-2.214-.94-4.432c-.191-.916-.947-1.467-1.65-1.216a1.871,1.871,0,0,0-.937,2.143c.514,2.462,1.045,4.919,1.574,7.375.187.868.441,1.719.662,2.573.241.931.533,1.823.827,2.731.2.616.4,1.228.617,1.837a7.461,7.461,0,0,0,.535,1.151,3.8,3.8,0,0,0,.879,1.208l.231.171a1.181,1.181,0,0,0,.58.235,2.678,2.678,0,0,0,1.3-.087,3.818,3.818,0,0,0,1.21-.664c.2-.181.391-.369.58-.566a7.344,7.344,0,0,0,.581-.708,17.754,17.754,0,0,0,2.572-5.569c.4-1.307.771-2.619,1.144-3.936l.019-.051c.219.281.416.581.61.89a23.608,23.608,0,0,1,1.361,3.119q.435,1.144.869,2.288c.251.656.487,1.318.73,1.979.183.5.365,1,.565,1.489a7.973,7.973,0,0,0,.6,1.075,5.647,5.647,0,0,0,.708.931,3.75,3.75,0,0,0,1.491.956,3.546,3.546,0,0,0,2.13.021,3.333,3.333,0,0,0,.685-.323,7.358,7.358,0,0,0,2.828-2.737,18.578,18.578,0,0,0,2.108-4.823q.191-.6.379-1.195c.036-.115.07-.229.1-.344.25.573.463,1.173.689,1.764q.288.752.573,1.512a10.866,10.866,0,0,0,1.06,2.452,5.357,5.357,0,0,0,1.314,1.34,3.48,3.48,0,0,0,1.781.5,3.11,3.11,0,0,0,1.344-.292,4.557,4.557,0,0,0,1.466-1.03,9.911,9.911,0,0,0,2.005-3.271,28.939,28.939,0,0,0,1.119-3.384c.107-.392.212-.784.318-1.178.061-.223.113-.451.164-.678q.161.232.318.471c.5.913.939,1.884,1.388,2.842l.9,1.935c.214.457.42.92.645,1.37a8.2,8.2,0,0,0,.606.967l.236.31c.167.178.337.353.51.523a3.553,3.553,0,0,0,.852.448,2.886,2.886,0,0,0,.947.1,2.793,2.793,0,0,0,.913-.212,2.937,2.937,0,0,0,.89-.62,7.665,7.665,0,0,0,1.447-1.962,15.941,15.941,0,0,0,1.091-2.609A43.228,43.228,0,0,0,122.23,300c.173-.766.35-1.529.507-2.3.089-.434.173-.87.258-1.307.211.53.4,1.071.586,1.62.635,2.007,1.2,4.05,1.738,6.1q.393,1.5.779,3.011.244.955.485,1.909c.154.608.359,1.2.551,1.783a4.574,4.574,0,0,0,.828,1.485,2.473,2.473,0,0,0,.94.739,1.883,1.883,0,0,0,.667.166,2.165,2.165,0,0,0,1.322-.531c.192-.184.384-.375.573-.568a7.9,7.9,0,0,0,.908-1.406,14.281,14.281,0,0,0,.674-1.684c.241-.637.446-1.294.653-1.949.23-.735.43-1.482.622-2.234.278-1.095.543-2.185.792-3.29.1-.441.2-.882.292-1.324.118-.537.217-1.091.348-1.626a13.724,13.724,0,0,1,1.1,1.543c.942,1.692,1.786,3.49,2.615,5.277.214.463.421.928.641,1.383.187.385.41.747.617,1.114s.423.714.649,1.053a4.989,4.989,0,0,0,.786.826,4.013,4.013,0,0,0,.97.555,3.639,3.639,0,0,0,1.071.243,2.277,2.277,0,0,0,1.027-.183l.371-.2a2.517,2.517,0,0,0,.6-.4,6.7,6.7,0,0,0,.833-.862,6.9,6.9,0,0,0,.7-1.141,10.779,10.779,0,0,0,.539-1.285c.17-.442.332-.884.482-1.338.4-1.209.73-2.455,1.066-3.7.4-1.47.737-2.96,1.052-4.463a4.156,4.156,0,0,1,.3.4,19.844,19.844,0,0,1,1.082,2.2c.239.573.461,1.161.675,1.75.3.809.595,1.615.886,2.426.363,1.012.723,2.027,1.1,3.034a8.121,8.121,0,0,0,1.257,2.372,2.854,2.854,0,0,0,.925.746,1.235,1.235,0,0,0,.685.215,1.678,1.678,0,0,0,.718-.053,3.8,3.8,0,0,0,1.943-1.161,12.1,12.1,0,0,0,1.695-2.55,19.868,19.868,0,0,0,1.084-2.715c.411-1.151.737-2.349,1.064-3.541.221-.8.408-1.627.61-2.438.076-.3.14-.608.206-.915.562,2.011,1.078,4.045,1.634,6.06.3,1.09.622,2.167.947,3.245q.389,1.292.85,2.546a7.851,7.851,0,0,0,.554,1.319,2.378,2.378,0,0,0,.45.644,3.874,3.874,0,0,0,.822.711,2.7,2.7,0,0,0,1.38.4c.257-.034.513-.076.768-.124a2.332,2.332,0,0,0,.723-.323,2.026,2.026,0,0,0,.619-.419c.2-.194.393-.4.584-.6A9.7,9.7,0,0,0,175.6,308.4a20.4,20.4,0,0,0,1.371-3.611c.443-1.339.827-2.7,1.2-4.076.288-1.053.581-2.1.851-3.161.249-.975.494-1.951.744-2.926.061.091.121.181.18.274a52.848,52.848,0,0,1,2.194,5.033,38.7,38.7,0,0,0,2.681,5.906c.2.329.409.653.625.969.076.1.152.195.229.291q.269.29.549.565a6.55,6.55,0,0,0,.947.578c.118.045.236.087.355.133q.386.089.776.15l.36.011q.372-.058.74-.137c.1-.05.2-.1.293-.147a2.666,2.666,0,0,0,.653-.418c.092-.089.182-.18.273-.267a5.869,5.869,0,0,0,.575-.622,10.242,10.242,0,0,0,.949-1.418,15.981,15.981,0,0,0,1.181-2.623c.348-.939.686-1.883.991-2.846.394-1.252.764-2.515,1.128-3.782s.693-2.562,1.013-3.855c.064.088.127.18.19.273.525.979.975,2.033,1.416,3.081.355.845.677,1.718,1,2.583.367.973.732,1.948,1.1,2.918a20.426,20.426,0,0,0,2.467,5.1q.279.292.574.553c.215.12.43.241.646.357a4.143,4.143,0,0,0,1.308.249c.255-.038.51-.081.764-.128a3,3,0,0,0,.684-.255,5.528,5.528,0,0,0,1.641-1.186,17.925,17.925,0,0,0,2.23-2.923c.708-1.082,1.311-2.276,1.92-3.451.583-1.126,1.131-2.284,1.692-3.429.41-.841.8-1.7,1.194-2.554.539-1.16,1.011-2.371,1.549-3.531h0c.039.014.078.028.116.044a6.794,6.794,0,0,1,.65.528,9.412,9.412,0,0,1,.64.854,19,19,0,0,1,1.245,2.72c.46,1.241.9,2.5,1.328,3.763.371,1.08.79,2.127,1.218,3.171a11.223,11.223,0,0,0,1.886,3.057,10.115,10.115,0,0,0,.947.929,4.83,4.83,0,0,0,1.413.8,3.884,3.884,0,0,0,.772.183,5.052,5.052,0,0,0,.875.117,5.549,5.549,0,0,0,1.637-.208,4.362,4.362,0,0,0,1.182-.545,9.678,9.678,0,0,0,1.436-1.039,12.862,12.862,0,0,0,2.336-2.726c.6-.915,1.149-1.9,1.7-2.861.588-1.024,1.106-2.126,1.626-3.208q.627-1.307,1.255-2.616c.371-.771.7-1.58,1.046-2.375.306-.711.618-1.414.947-2.106.1.129.2.263.3.405a23.147,23.147,0,0,1,1.515,3.567c.765,2.394,1.486,4.812,2.288,7.186a12.242,12.242,0,0,0,.545,1.318,12.12,12.12,0,0,0,.887,1.587,5.069,5.069,0,0,0,.852,1.005,4.809,4.809,0,0,0,1.318.778l.33.1c.283.05.565.1.848.149a3,3,0,0,0,.672.007q.413-.067.826-.142a6.966,6.966,0,0,0,2.482-1.536,13.048,13.048,0,0,0,2.109-2.437A31.3,31.3,0,0,0,257.8,297.6c.63-1.2,1.151-2.5,1.683-3.775.318-.766.611-1.548.906-2.329.241-.639.452-1.3.684-1.945.326.738.6,1.524.856,2.3.422,1.371.8,2.764,1.189,4.153.428,1.536.842,3.081,1.365,4.567.129.368.261.732.4,1.091a4.868,4.868,0,0,0,.9,1.4,5.69,5.69,0,0,0,.956.854c.256.144.513.284.774.416a4.062,4.062,0,0,0,.828.175,3.918,3.918,0,0,0,1.254-.144,8.068,8.068,0,0,0,1.57-.748,3.9,3.9,0,0,0,.606-.467q.344-.342.685-.685a12.443,12.443,0,0,0,.992-1.3c.6-.888,1.152-1.846,1.673-2.809.532-.985.97-2.057,1.432-3.1.413-.932.78-1.9,1.169-2.853.227-.553.428-1.128.631-1.7.318,1.292.607,2.6.9,3.9a12.758,12.758,0,0,0,2.365,5.308,8.62,8.62,0,0,0,1.079,1.046,6.028,6.028,0,0,0,1.239.731,3.391,3.391,0,0,0,1.244.25,4.39,4.39,0,0,0,1.211-.171,3.64,3.64,0,0,0,1.137-.511,4.666,4.666,0,0,0,1.007-.838,12.116,12.116,0,0,0,1.572-2.275,16.117,16.117,0,0,0,1.16-2.517c.39-1.026.74-2.072,1.082-3.127.352-1.086.676-2.185.992-3.289l.047.1c.355.749.669,1.537,1.007,2.3s.687,1.546,1.066,2.294c.368.727.782,1.413,1.2,2.09a8.241,8.241,0,0,0,2.959,2.946,9.907,9.907,0,0,0,1.872.8,9.575,9.575,0,0,0,2.274.353c1.188.062,2.181-1.336,2.181-2.832a3.315,3.315,0,0,0-.639-2,2.076,2.076,0,0,0-1.542-.83c-.118-.011-.236-.024-.355-.039A10.094,10.094,0,0,1,301.264,293.666ZM83.2,299.828l-.21.116a1.427,1.427,0,0,1,.215-.121Zm60.443,6.486.109.061h0C143.712,306.356,143.675,306.336,143.639,306.314Zm6.952-9.48-.05-.027c.018.008.034.017.051.026Zm.176.41a2.535,2.535,0,0,1,.078-.242h0Zm.223-.551h0c.035-.064.074-.127.115-.189C151.063,296.568,151.026,296.631,150.989,296.693Zm20.535,11.1h0c-.019-.018-.037-.039-.056-.06Zm.038.041a2.069,2.069,0,0,1-.238.038l.235-.041-.016-.015h.005l.014.015.033-.006h.007l-.036.008.052.052Q171.59,307.86,171.563,307.832Zm.122.03.033-.018h0Zm.045-.023h0l.143-.078Q171.8,307.8,171.729,307.839Zm32.843-4.481.166.031,0,0C204.685,303.383,204.629,303.372,204.572,303.358Zm.191.037,0,0,.021,0h0Zm.027,0h0Zm44.965-3.742-.039-.025.047.026Zm.009,0,.01,0,.186.1A1.669,1.669,0,0,1,249.764,299.661Zm18.509-.474.048.026h0Zm.134.07-.024-.026.028.029Zm.039.041-.032-.033.007,0,.03.03Zm.034.036h.005l.1.1C268.546,299.4,268.513,299.367,268.479,299.334Z" transform="translate(-69.89 -282.267)" fill="#e52441"/>
</svg>
