<svg xmlns="http://www.w3.org/2000/svg" width="651.578" height="11.899" viewBox="0 0 651.578 11.899">
  <path id="Trazado_2242" data-name="Trazado 2242" d="M677.662,645.867c-14.236-.315-28.488-.54-42.736-.811-4.7-.088-9.415-.094-14.116-.14l-30.607-.3c-5.682-.055-11.367-.123-17.05-.165q-2.469-.018-4.94-.017c-3.7,0-7.4.021-11.1.023l-50.5.022c-4.005,0-8.013.038-12.015.059l-29.759.147c-11.192.056-22.387.078-33.574.183l-54.323.51c-10.484.1-20.975.153-31.454.312q-27.087.408-54.169.811c-9.868.147-19.741.269-29.6.477q-28.007.589-56.015,1.182c-9.977.211-19.965.367-29.92.689q-27.883.9-55.769,1.8-6.026.193-12.054.389c-8.025.258-16.025.661-24.028,1l-1.507.078a10.113,10.113,0,0,0-2.5.551c-1.057.4-1.658.948-1.658,1.514s.6,1.117,1.658,1.517a11.291,11.291,0,0,0,4.005.628c9.658-.411,19.3-.849,28.985-1.159q13.458-.434,26.916-.864l29.375-.943c3.942-.126,7.9-.294,11.847-.377q22.9-.481,45.8-.954l28.549-.6c3.932-.082,7.864-.184,11.8-.244q22.7-.343,45.39-.658l27.51-.4c3.08-.044,6.162-.1,9.247-.129q24.505-.216,49.008-.424l27.368-.238c3.25-.028,6.5-.069,9.741-.081l50.542-.2q15.77-.062,31.527-.069l53.673.049c3.528,0,7.056.058,10.586.1l29.623.329q11.109.126,22.224.247c5.252.059,10.506.207,15.755.314q23.187.474,46.364,1.007c3.925.094,7.845.206,11.769.314,4.2.115,8.419.228,12.609.407.655.041,1.3.088,1.955.14a15.994,15.994,0,0,0,4.723-.233,4.9,4.9,0,0,0,2.817-1.388c.889-1.22-1.064-2.517-4.28-2.854-2.817-.295-5.741-.413-8.643-.523q-2.98-.115-5.96-.228c-3.822-.146-7.672-.219-11.5-.329C692.063,646.145,684.857,646.026,677.662,645.867Z" transform="translate(-78.272 -644.439)" fill="#e52441"/>
</svg>
