<svg xmlns="http://www.w3.org/2000/svg" width="165.6" height="15.508" viewBox="0 0 165.6 15.508">
  <path id="Trazado_2699" data-name="Trazado 2699" d="M226.108,221.008c-.594.054-1.191.1-1.784.168l-2.46.3a24.656,24.656,0,0,0-4.033.833,17.048,17.048,0,0,0-4.078,1.851c-.257.159-.512.332-.778.472l-.858.453c-.406.192-.814.374-1.232.527A8.982,8.982,0,0,1,209.4,226a11.576,11.576,0,0,1-1.309.083,8.273,8.273,0,0,1-1.242-.1,12.3,12.3,0,0,1-1.667-.436,14.738,14.738,0,0,1-1.695-.73,23.636,23.636,0,0,1-2.758-1.687c-.42-.3-.836-.6-1.246-.914-.494-.381-.982-.764-1.493-1.113a8,8,0,0,0-1.212-.72,5.545,5.545,0,0,0-.836-.3,4.324,4.324,0,0,0-.874-.114,2.859,2.859,0,0,0-.522.06,4.724,4.724,0,0,0-.742.2,6.054,6.054,0,0,0-1.1.6q-1.075.665-2.149,1.333c-.906.565-1.82,1.118-2.758,1.6a18.409,18.409,0,0,1-1.743.717,15.332,15.332,0,0,1-2.372.594,17.781,17.781,0,0,1-2.318.192,16.269,16.269,0,0,1-2.623-.23,30.3,30.3,0,0,1-3.27-.753,18.6,18.6,0,0,1-2.93-1.093,30.9,30.9,0,0,1-2.779-1.617,20.459,20.459,0,0,0-3.191-1.748,8.581,8.581,0,0,0-1.348-.413,5.764,5.764,0,0,0-3.2.12,6.874,6.874,0,0,0-1.539.714,21.986,21.986,0,0,0-3.3,2.625c-.638.561-1.257,1.155-1.882,1.735-.523.472-1.044.946-1.594,1.376a11.893,11.893,0,0,1-1.807,1.16c-.292.139-.584.264-.885.376a6.6,6.6,0,0,1-1.2.308,4.449,4.449,0,0,1-.482.032,2.743,2.743,0,0,1-.346-.015,5.736,5.736,0,0,1-.953-.328,19.882,19.882,0,0,1-3.166-2.315c-.477-.446-.939-.91-1.384-1.4q-.468-.511-.935-1.024a33.252,33.252,0,0,0-2.425-2.68,7.322,7.322,0,0,0-1.165-.853,4.125,4.125,0,0,0-.726-.314l-.245-.06-.513-.082-.249-.018-.093,0a2.323,2.323,0,0,0-.458.047,4.637,4.637,0,0,0-.871.227,12.767,12.767,0,0,0-1.646.749c-.44.226-.873.471-1.309.71-.306.169-.619.329-.915.521l-1.4.905c-.235.152-.474.295-.7.462l-1.266.941c-.318.236-.643.464-.955.71l-2.352,1.855a33.068,33.068,0,0,1-5.278,3.6c-.414.2-.831.383-1.256.547a9.047,9.047,0,0,1-1.612.437c-.231.031-.461.055-.695.071a5.516,5.516,0,0,1-1.022-.046,6.838,6.838,0,0,1-1.426-.443,9.284,9.284,0,0,1-1.432-1,23.762,23.762,0,0,1-1.986-2.237c-.314-.389-.632-.773-.948-1.16-.38-.464-.791-.889-1.207-1.3a5.752,5.752,0,0,0-1.107-.871,5.851,5.851,0,0,0-.716-.343,2.8,2.8,0,0,0-.752-.138,3.8,3.8,0,0,0-.487.064,2.814,2.814,0,0,0-.671.278,2.432,2.432,0,0,0-.6.468c-.179.2-.349.41-.516.626-.319.409-.6.866-.9,1.3-.233.341-.464.685-.7,1.029-.271.4-.554.787-.83,1.18a14.128,14.128,0,0,1-1.832,2.116,9.7,9.7,0,0,1-1.636,1.137,7.671,7.671,0,0,1-1.618.506,9.105,9.105,0,0,1-2.348-.026,14.561,14.561,0,0,1-3.594-1.239,27.411,27.411,0,0,1-3.062-1.882c-.512-.358-1.006-.751-1.5-1.145s-.991-.792-1.48-1.2-.983-.825-1.5-1.2a14.52,14.52,0,0,0-1.628-1.039,6.672,6.672,0,0,0-3.3-.908,4.555,4.555,0,0,0-.8.1,7.275,7.275,0,0,0-.822.211,5.043,5.043,0,0,0-.711.317c-.253.128-.5.26-.755.393a20.239,20.239,0,0,0-3.146,2.073,16.065,16.065,0,0,0-2.454,2.465,15.438,15.438,0,0,0-.968,1.33,2.794,2.794,0,0,0-.333.712l-.089.306c-.036.219-.071.436-.106.655a.949.949,0,0,0,.177.789.622.622,0,0,0,.67.208c.165-.055.33-.111.5-.167a3.634,3.634,0,0,0,.669-.335.9.9,0,0,0,.246-1.107.677.677,0,0,0-.409-.365,15.435,15.435,0,0,1,1.994-2.232,17.928,17.928,0,0,1,3.737-2.538c.3-.147.6-.291.9-.429a4.974,4.974,0,0,1,1.166-.347,5.542,5.542,0,0,1,1.049-.015,6.864,6.864,0,0,1,.694.174,7.193,7.193,0,0,1,.989.408,14.32,14.32,0,0,1,1.81,1.192c.682.506,1.311,1.108,1.965,1.661s1.294,1.091,1.953,1.613,1.337.989,2.024,1.441a19.1,19.1,0,0,0,4.226,2.1,9.51,9.51,0,0,0,4.676.467,7.206,7.206,0,0,0,2.116-.685,9.363,9.363,0,0,0,1.851-1.26,13.116,13.116,0,0,0,1.731-1.835c.281-.359.541-.733.8-1.111.379-.548.749-1.1,1.118-1.659a21.5,21.5,0,0,1,1.422-2.022,1.281,1.281,0,0,1,.119-.078,1.611,1.611,0,0,1,.172-.06h.056a2.149,2.149,0,0,1,.306.1,5.071,5.071,0,0,1,.72.478,21.148,21.148,0,0,1,1.818,2.023c.737.9,1.467,1.809,2.278,2.624a10.382,10.382,0,0,0,1.116.947,7.819,7.819,0,0,0,1.446.831,5.813,5.813,0,0,0,1.428.407,6.864,6.864,0,0,0,1.727.085,10.015,10.015,0,0,0,1.435-.237,9.666,9.666,0,0,0,1.677-.566,19.336,19.336,0,0,0,2.97-1.607c1.4-.905,2.716-1.968,4.039-3.017.632-.5,1.257-1.021,1.9-1.5l2.208-1.652c.085-.063.178-.115.265-.173q.378-.245.755-.491l1.15-.749c.076-.05.157-.089.236-.132l.809-.451c.453-.251.9-.5,1.362-.733a9.109,9.109,0,0,1,1.415-.526,2.2,2.2,0,0,1,.294-.009c.082,0,.163.008.245.017a4.048,4.048,0,0,1,.591.192,7.138,7.138,0,0,1,.953.694c.924.911,1.739,1.972,2.621,2.94.552.607,1.1,1.2,1.692,1.763.531.507,1.085.979,1.652,1.427a20.616,20.616,0,0,0,1.887,1.276,4.769,4.769,0,0,0,1.882.7,4.586,4.586,0,0,0,.872.034,7.036,7.036,0,0,0,1.119-.185,7.982,7.982,0,0,0,1.812-.678,12.717,12.717,0,0,0,1.9-1.172,26.135,26.135,0,0,0,2.4-2.109l1.384-1.3,1.1-.989a13.683,13.683,0,0,1,2.518-1.834,6.477,6.477,0,0,1,1.364-.431,6.79,6.79,0,0,1,.679-.048,3.545,3.545,0,0,1,.6.048,9.288,9.288,0,0,1,2.085.685c.584.3,1.162.628,1.726.98.352.219.7.457,1.043.685s.691.423,1.041.625c.672.39,1.352.752,2.048,1.082a17.2,17.2,0,0,0,2.244.833,28.954,28.954,0,0,0,4.826,1.053,15,15,0,0,0,2.479.123,18.379,18.379,0,0,0,2.441-.284,15.026,15.026,0,0,0,4.226-1.4c.866-.432,1.7-.929,2.539-1.429,1-.6,1.992-1.24,3.014-1.8a4.75,4.75,0,0,1,.622-.2,2.114,2.114,0,0,1,.372,0,4.747,4.747,0,0,1,.862.283,22.243,22.243,0,0,1,2.586,1.9,26.011,26.011,0,0,0,2.738,1.91,21.518,21.518,0,0,0,2.921,1.459,10.9,10.9,0,0,0,3.5.755,9.584,9.584,0,0,0,3.119-.378,12.093,12.093,0,0,0,2.518-1.088c.35-.19.7-.375,1.038-.591l.658-.417a11.576,11.576,0,0,1,1.021-.56,19.511,19.511,0,0,1,5.188-1.506c.958-.144,1.922-.222,2.883-.329.833-.092,1.671-.138,2.506-.2,1.693-.131,3.394-.257,5.092-.251a1.422,1.422,0,0,0,0-2.807c-1.289.026-2.576.142-3.862.253Q227.04,220.924,226.108,221.008Zm-31.386,1.419.1-.015h0Z" transform="translate(-67.428 -218.776)" fill="#ffd64f"/>
</svg>
