<svg xmlns="http://www.w3.org/2000/svg" width="479.118" height="51.777" viewBox="0 0 479.118 51.777">
  <path id="Trazado_2862" data-name="Trazado 2862" d="M136.056,297.779c1.978-.17,3.968-.428,5.95-.508q2.776-.114,5.546-.231c10.126-.418,20.247-.955,30.378-1.118,10.594-.173,21.192-.461,31.788-.491,10.815-.028,21.625-.08,32.436-.022q31.613.179,63.22.276,31.395.089,62.791-.042c10.388-.06,20.779-.338,31.164-.56,10.2-.217,20.387-.586,30.58-1.014,2.24-.1,4.477-.279,6.715-.421,2.211-.144,4.426-.258,6.636-.445,5.669-.483,11.331-.994,17-1.566,9.859-1,19.687-2.331,29.56-3.161,10.343-.871,20.71-1.367,31.063-2.075,4.673-.319,9.371-.717,14.013-1.421,5.3-.8,10.563-1.767,15.808-2.972,5.07-1.165,10.136-2.363,15.211-3.509,2.434-.553,4.882-1.052,7.339-1.445,2.783-.445,5.541-.9,8.289-1.561,1.321-.32,1.581-2.274,1.581-3.532a6.886,6.886,0,0,0-.305-2.083c-.195-.567-.6-1.47-1.276-1.443-4.957.182-9.912.371-14.865.628q-7.5.387-15.008.5c-9.716.145-19.449-.226-29.157-.673,1.654-.249,3.309-.493,4.963-.743,5.943-.9,11.867-2.02,17.84-2.624,3.179-.322,6.368-.591,9.536-1.006,1.608-.208,3.2-.447,4.791-.8,1.707-.38,3.39-.9,5.067-1.425a1.542,1.542,0,0,0,1.223-.89,6.053,6.053,0,0,0,.806-2.735c1.7-.577,2.041-3.356,2.041-5.029a9.794,9.794,0,0,0-.44-3.014c-.3-.857-.858-2.074-1.845-2.085-5.158-.066-10.309-.451-15.467-.523Q550.114,248,549.2,248c-4.438,0-8.868.216-13.3.48q-14.814.885-29.618,2.09c-4.585.366-9.166.8-13.757,1.106-5.613.375-11.214.663-16.833.907-9.4.4-18.816.561-28.222.752-10.786.222-21.56.537-32.338,1.1-9.981.522-19.952,1.215-29.925,1.878q-15.02.993-30.045,1.988c-10.264.686-20.535,1.2-30.809,1.706-5.2.26-10.4.338-15.6.5-4.923.155-9.849.2-14.775.276-9.693.158-19.386.254-29.082.365-19.556.221-39.1.574-58.659.934q-16.114.3-32.224.641c-5.48.116-10.961.357-16.437.532-4.682.149-9.364.5-14.044.768q-7.474.426-14.947.916-4.442.285-8.894.577-1.929.129-3.866.253c-1.174.076-2.349.173-3.519.272a24.5,24.5,0,0,0-2.482.36,16.791,16.791,0,0,0-2.7.955,3.638,3.638,0,0,0-1.093,1.78,10.247,10.247,0,0,0,0,5.863l.482,1.073a1.664,1.664,0,0,0,1.312.958,26.2,26.2,0,0,0,3.071.835,1.659,1.659,0,0,0,1.307-.953,4.089,4.089,0,0,0,.3-.55c.546-.018,1.1-.017,1.645-.017.524,0,1.05,0,1.577-.017q1.779-.044,3.551-.094,4.575-.119,9.148-.239c3.3-.09,6.607-.154,9.91-.217l-1.023.094c-7.8.677-15.6,1.355-23.4,2.13a3.672,3.672,0,0,0-2.882,2.1,13.1,13.1,0,0,0-1.77,5.324q-2.055-.023-4.113-.042c-.96-.01-1.15,1.851-1.15,2.567s.19,2.552,1.15,2.563c1.313.014,2.628.04,3.941.059a20.646,20.646,0,0,0,.888,4.745q.528,1.178,1.054,2.355a3.673,3.673,0,0,0,2.882,2.1C121.292,299.047,128.673,298.409,136.056,297.779Z" transform="translate(-104 -248)" fill="#fff"/>
</svg>
