<svg xmlns="http://www.w3.org/2000/svg" width="442.695" height="157.319" viewBox="0 0 442.695 157.319">
  <g id="Grupo_77802" data-name="Grupo 77802" transform="translate(-838.127 -1084.56)">
    <path id="Trazado_2966" data-name="Trazado 2966" d="M459.9,502.878c5.192-2.586,10.634-3.731,15.959-4.608,3.018-.5,6.03-.835,9.055-1.121,4.333-.407,8.652-.711,12.99-.906,8.257-.367,16.518-.507,24.778-.562,16.553-.11,33.088-.307,49.625-1.835,17.15-1.586,34.3-3.053,51.445-4.679,16.259-1.544,32.516-3.085,48.78-4.264,16.289-1.184,32.566-2.234,48.837-4.177,16.65-1.985,33.316-3.051,49.991-3.917a159.669,159.669,0,0,0,23.718-2.531c4.11-.837,8.208-1.78,12.31-2.773,4.015-.969,8.052-1.609,12.082-2.329a35.8,35.8,0,0,1,11.1.071q3.986-.839,6.055-7.488,1.111-4.2,2.22-8.4a133.66,133.66,0,0,0,0-45.842q-1.109-4.2-2.22-8.4-2.069-6.652-6.055-7.488c-2.047.3-4.089.709-6.135.974a48.174,48.174,0,0,1-5.6.249c-3.992.055-7.978.32-11.961.633-8.285.654-16.554,1.688-24.842,2.155-16.055.906-32.123,1-48.16,2.778-8.6.948-17.187,2.053-25.785,2.977-7.812.845-15.631,1.4-23.45,1.951q-24.96,1.745-49.9,4.259c-16.418,1.638-32.84,3.159-49.256,4.818q-13.613,1.371-27.231,2.534c-8.133.691-16.288.785-24.428.948-16.664.333-33.33.559-49.972,2.426a112.98,112.98,0,0,0-12.272,1.993,63.356,63.356,0,0,0-9.891,3.1,50.5,50.5,0,0,0-7.409,4.146,16.355,16.355,0,0,0-4.063,3.844,35.734,35.734,0,0,0-5.1,14.089c-2.23,10.985-2.527,24.134-1.475,35.628a80.714,80.714,0,0,0,3.723,19.3q1.424,2.8,2.851,5.582,3.28,4.005,6.563,0A17.6,17.6,0,0,1,459.9,502.878Z" transform="matrix(0.995, 0.105, -0.105, 0.995, 450.597, 648.768)" fill="#d33b47"/>
    <g id="Grupo_77799" data-name="Grupo 77799" transform="translate(2387.284 502.131) rotate(98)">
      <path id="Trazado_2968" data-name="Trazado 2968" d="M572.223,38.031q2.224-3.373,4.482-6.724,1.089-1.613,2.186-3.226a4.688,4.688,0,0,0,.775-4.286,1.925,1.925,0,0,0-1.832-1.425,4.607,4.607,0,0,0-3.861,1.935q-1.192,1.536-2.38,3.079-2.575,3.343-5.119,6.711c-3.26,4.324-5.506,9.549-7.982,14.354-.933,1.808,1.521,3.994,2.988,2.293q2.692-3.126,5.417-6.221a59.833,59.833,0,0,0,5.326-6.49" transform="matrix(0.829, -0.559, 0.559, 0.829, 340.037, 1305.943)" fill="#d33b47"/>
      <path id="Trazado_2969" data-name="Trazado 2969" d="M587.192,31.229c-2.028-1.251-5.094.216-7.147.948a55.235,55.235,0,0,0-6.817,2.939c-4.083,2.106-7.588,6.083-10.411,9.636-.9,1.127.278,3.291,1.7,2.253a49.554,49.554,0,0,1,5.74-3.62c1.884-1.013,3.905-1.75,5.76-2.805a47.31,47.31,0,0,1,5.751-2.8c2.037-.815,5.219-1.111,6.35-3.137a2.549,2.549,0,0,0-.926-3.411" transform="matrix(0.829, -0.559, 0.559, 0.829, 350.067, 1311.565)" fill="#d33b47"/>
      <path id="Trazado_2970" data-name="Trazado 2970" d="M570.033,48.677c.55-.009,1.1-.018,1.652-.029,1.287-.02,2.574-.045,3.861-.065,2.387-.042,4.782-.029,7.167-.125a55.281,55.281,0,0,0,7.169-1.124l3.787-.666a11.375,11.375,0,0,0,3.542-.9,1.44,1.44,0,0,0-.332-2.618c-1.485-.456-3.235-.174-4.774-.138q-2.478.06-4.96.116a34.939,34.939,0,0,0-5.063.285c-1.712.3-3.42.623-5.132.935l-4.86.884a30.031,30.031,0,0,0-4.64.9,1.981,1.981,0,0,0-1.443,2.34,1.65,1.65,0,0,0,2.1,1.191,1.233,1.233,0,0,0,.821-.973h0l1.1-.02" transform="matrix(0.829, -0.559, 0.559, 0.829, 361.9, 1321.568)" fill="#d33b47"/>
    </g>
  </g>
</svg>
