<svg xmlns="http://www.w3.org/2000/svg" width="437.222" height="68.679" viewBox="0 0 437.222 68.679">
  <path id="Trazado_2964" data-name="Trazado 2964" d="M461.5,442.778a129.667,129.667,0,0,1,17.478-2.119c3.3-.228,6.6-.384,9.916-.515,4.745-.187,9.476-.327,14.226-.416,9.043-.169,18.09-.233,27.136-.258,18.128-.051,36.236-.141,54.348-.844,18.782-.729,37.563-1.4,56.341-2.151,17.806-.71,35.61-1.418,53.422-1.96,17.839-.544,35.665-1.027,53.484-1.921,18.234-.913,36.487-1.4,54.749-1.8,8.663-.187,17.353-.429,25.975-1.164,4.5-.385,8.99-.818,13.481-1.275,4.4-.445,8.818-.74,13.232-1.071a92.923,92.923,0,0,1,12.161.033,8.763,8.763,0,0,0,6.631-3.443q1.217-1.932,2.431-3.863a26.694,26.694,0,0,0,0-21.077q-1.215-1.93-2.431-3.863a8.763,8.763,0,0,0-6.631-3.443c-2.241.14-4.478.326-6.719.448-2.042.111-4.091.1-6.134.115-4.372.025-8.737.147-13.1.291-9.073.3-18.13.776-27.206.991-17.583.417-35.18.46-52.743,1.277-9.417.436-18.822.944-28.239,1.369-8.555.389-17.119.643-25.682.9q-27.336.8-54.644,1.958c-17.98.753-35.966,1.452-53.943,2.215q-14.909.63-29.822,1.165c-8.908.317-17.838.361-26.753.436-18.25.153-36.5.257-54.727,1.115-4.489.21-8.971.495-13.44.916-3.629.34-7.259.818-10.833,1.424-2.764.468-5.432,1.206-8.114,1.906a20.333,20.333,0,0,0-4.449,1.767,13.449,13.449,0,0,0-5.584,6.478,25.767,25.767,0,0,0-1.615,16.381,19.9,19.9,0,0,0,4.077,8.872q1.559,1.286,3.123,2.566a7.473,7.473,0,0,0,7.187,0A20.644,20.644,0,0,1,461.5,442.778Z" transform="translate(-427.253 -406.85) rotate(2)" fill="#ffd64f"/>
</svg>
