<svg xmlns="http://www.w3.org/2000/svg" width="231.313" height="31.373" viewBox="0 0 231.313 31.373">
  <path id="Trazado_2967" data-name="Trazado 2967" d="M73.448,583.036a.635.635,0,0,0,.294.723c.121.054.244.108.368.159l.22.08c.149.021.3.04.447.058a.6.6,0,0,0,.451-.187l.036-.04q18.82-.266,37.644-.546c.865-.014,1.73-.044,2.6-.073l8.4-.283,1.378-.046c.824.009,1.647.009,2.471.013l8.039.044q7.272.038,14.545.077,10.62.06,21.24.071-4.325.371-8.646.75l-5.033.447-8.16.059c-2.6.018-5.193.016-7.79.015q-1.729,0-3.461,0-1.843,0-3.688,0-4.212,0-8.426.01l-8.669.036c-2.263.011-4.526.011-6.789.036-2.594.031-5.188.079-7.783.116a.445.445,0,1,0,0,.891c.464.024.928.063,1.394.06l.856,0,2.968-.017q1.509-.008,3.017-.023,4.958-.049,9.916-.1h2.238q5.514,0,11.025.02,5.3.018,10.594.036l-17.161,1.522q-15.034,1.33-30.067,2.713a1.508,1.508,0,0,0-1,.415,1.418,1.418,0,0,0,0,2.005,1.362,1.362,0,0,0,1,.416q17.65-1.607,35.3-3.166,16.35-1.441,32.7-2.883c4.965-.436,9.933-.845,14.9-1.255l9.067-.245,8.075-.217c.823-.023,1.645-.041,2.468-.085q8.172-.422,16.345-.851,4.024-.207,8.051-.419c.843-.043,1.686-.084,2.529-.137l3.974-.252,6.379-.1c3.409-.055,6.818-.107,10.228-.192,8.81-.218,17.622-.434,26.434-.593a26.416,26.416,0,0,1,2.87.063,9.353,9.353,0,0,1,1.559.4,1.28,1.28,0,0,0,1.007-.133,1.3,1.3,0,0,0,.467-1.783,1.39,1.39,0,0,0-.779-.6q-.242-.09-.483-.17,8.472-.549,16.945-1.082c.941-.059,1.884-.094,2.826-.134.878-.038,1.752-.1,2.626-.193.348-.038.695-.091,1.04-.145.5-.078.988-.212,1.479-.318a1.1,1.1,0,0,0,.675-.519,1.188,1.188,0,0,0,.114-.87,1.981,1.981,0,0,0-.472-.838l-.111-.144a1.135,1.135,0,0,0-.8-.333,1.136,1.136,0,0,0-1.084.789l-.022.005c-.317.076-.635.131-.955.178-1.9.227-3.822.279-5.733.428q-2.1.162-4.193.327-2.633.205-5.267.408-6.777.522-13.555,1.038c-8.47.636-16.936,1.295-25.409,1.889l-3.058.214c-1.117.033-2.234.052-3.351.079l-7.113.168q4.415-.355,8.829-.713,4.438-.362,8.88-.7c4.539-.354,9.078-.732,13.62-1.062q6.423-.468,12.844-.946,3.092-.223,6.185-.442c1.068-.075,2.134-.156,3.2-.216.714-.041,1.427-.086,2.138-.153.682-.064,1.359-.182,2.037-.274.272-.038.539-.081.807-.14a4.879,4.879,0,0,0,.876-.342,2.107,2.107,0,0,0,.8-.72,2.7,2.7,0,0,0,.319-.615l.161-.384c.008-.031.012-.062.019-.093a1.716,1.716,0,0,0-.59-3.328q-1.9-.039-3.8-.043a1.7,1.7,0,0,0-.831.218q-1.182.039-2.361.073l-4.064.124,1.934-.3q2.779-.051,5.556-.12a1.661,1.661,0,0,0,1.29-.664c.047.005.1.006.143.01.258.042.51.091.767.15a1.164,1.164,0,0,0,1.34-.63c.39-.016.779-.033,1.168-.059A1.572,1.572,0,0,0,295.91,569a1.471,1.471,0,0,0,.133-1.944l.083.007c1.089.091,2.181.13,3.267.253a11.37,11.37,0,0,1,1.895.436c.033.109.061.218.084.331l.012.191a1.41,1.41,0,0,0,.4.954,1.347,1.347,0,0,0,1.908,0,1.3,1.3,0,0,0,.4-.954c-.033-.33-.076-.654-.133-.979a4.362,4.362,0,0,0-.351-.9l-.175-.231a1.34,1.34,0,0,0-.476-.476,3.039,3.039,0,0,0-.773-.413,11.3,11.3,0,0,0-1.812-.437,20.419,20.419,0,0,0-2.784-.266c-1.463-.077-2.923-.213-4.383-.33q-3.408-.272-6.815-.485c-2.12-.137-4.238-.3-6.358-.4q-4.527-.233-9.055-.462c-1.945-.1-3.89-.22-5.835-.3q-3.383-.133-6.767-.271l-10.4-.418c-1.49-.059-2.98-.144-4.472-.178l-16.108-.349-9.285-.2c-.927-.02-1.856-.06-2.785-.06l-.306,0q-15.237.153-30.475.31c-.318,0-.638.03-.954.047q-1.3.063-2.606.128-4.328.213-8.654.426l-20.465,1.007-5.744.283c-.583.028-1.162.087-1.744.143l-4.537-.205-15.054-.681-3.639-.164c-1.29-.059-2.583-.081-3.874-.112-2.778-.065-5.556-.1-8.334-.164h-.026a1.246,1.246,0,0,0,.026,2.492c2.778.062,5.556.1,8.334.169,1.291.03,2.584.054,3.874.114l3.639.169,1.855.086-18.856,1.812-6.07.583c-1.828.176-3.653.384-5.476.6q-3.917-.062-7.833-.131a1.062,1.062,0,0,0-1.09,1.244c-1.032.129-2.064.261-3.1.387l-.343.045a1.294,1.294,0,0,0-.571,2.161,1.236,1.236,0,0,0,.914.378c3.518-.429,7.032-.884,10.549-1.317,1.457-.179,2.916-.363,4.376-.526q12.771.193,25.543.359,11.03.147,22.061.229l3.039.029-22.95,1.1-14.047.674c-6.5.312-13,.724-19.506,1.1a1.624,1.624,0,0,0-1.1.455,1.553,1.553,0,0,0,1.1,2.652c5.362-.308,10.723-.637,16.086-.92l-13.139.894c-3.125.213-6.227.636-9.336.985a1.037,1.037,0,0,0-.68.281.96.96,0,0,0,0,1.359.926.926,0,0,0,.68.281c3.138-.349,6.27-.771,9.422-.983l7.057-.469q8.46-.562,16.92-1.124c.747-.05,1.493-.113,2.242-.125l5.636-.089,9.308-.148-6.8.62c-2.418.22-4.834.461-7.258.624q-6.78.455-13.558.913a.639.639,0,0,0-.575-.437h-.032q-9.2.547-18.391,1.132a.677.677,0,0,0-.568.325.648.648,0,0,0-.079.3l-.193.011a.549.549,0,0,0,.031-.175.568.568,0,0,0-.565-.566c-2.513.187-5.023.391-7.533.592-2.632.211-5.255.508-7.875.821a.6.6,0,0,0-.494.283.584.584,0,0,0,.089.693,2.709,2.709,0,0,0,.444.476l.008.006h-.065A.647.647,0,0,0,73.448,583.036Zm139.938-3.495q-10.36.876-20.716,1.757-1.895,0-3.787.008c-4.1.014-8.211.044-12.316.044q-4.527,0-9.053.012l3.493-.131q13.753-.516,27.508-1.07c4.53-.176,9.061-.38,13.591-.568l1.281-.052Zm34.42-7.329c-4.362.153-8.72.351-13.08.53q-15.269.624-30.532,1.315c-3.63.161-7.259.311-10.888.487l-6.819.334-3.512-.028,17.709-1.36c1.124-.085,2.252-.134,3.376-.2l9.2-.538,9.282-.543q3.859-.07,7.717-.163l17.433-.434c3.06-.076,6.119-.135,9.178-.246l5.235-.191a1.522,1.522,0,0,0,.76.449l.236.049Zm-63.718-8.186c.817-.04,1.636-.034,2.454-.042l8.449-.09q9.371-.1,18.739-.2c.829-.007,1.654-.015,2.483,0l7.611.162q9.3.2,18.6.4c.977.021,1.951.056,2.928.095q4.7.184,9.4.373c4.322.172,8.646.323,12.967.544,4.916.254,9.837.46,14.749.787l4.951.328c.949.063,1.9.11,2.848.19l.651.055c-1.514.069-3.027.136-4.54.209-.2-.031-.393-.059-.589-.079-.364-.038-.719-.045-1.084-.047h-.027c-.738,0-1.476.06-2.211.109-.183.012-.366.019-.548.031a1.825,1.825,0,0,0-1.453-.72c-3.107.049-6.212.064-9.315.2l-7.893.343q-5.325.231-10.647.445-5.835.237-11.669.485-1.6.068-3.2.137-3.722-.013-7.443-.024-3.6-.014-7.2-.024c-.726,0-1.451.006-2.177-.024q-6.519-.274-13.039-.544-6.459-.268-12.916-.538c-.485-.021-.967-.056-1.451-.087l-4.874-.329L168.379,564.8Q176.233,564.415,184.088,564.026Zm-53.812,4.56-10.949-.132,5.122-.492q9.075-.87,18.151-1.743,1.092-.106,2.185-.21l9.551.443c1.588.074,3.168.163,4.753.274q14.838,1.043,29.675,2.081.741.051,1.482.109l-12.462-.029c-7.692-.018-15.385-.083-23.078-.131C146.563,568.7,138.42,568.684,130.276,568.586Zm10.488,6.229q3.982-.211,7.964-.427c2.986-.16,5.973-.347,8.962-.471q5.365-.22,10.73-.445l13.517-.395-7.65.6c-2.867.227-5.739.431-8.6.691l-3.742.342-.246,0-7.884-.047c-.836-.005-1.674-.025-2.509-.009l-11.936.231C139.833,574.864,140.3,574.841,140.764,574.815Zm-31.711,6.338q8.533-.581,17.068-1.169c3.571-.244,7.142-.515,10.717-.711q9.525-.523,19.05-1.047c3.312-.181,6.622-.384,9.935-.52q7.611-.312,15.22-.628,7.821.111,15.643.233c3.159.048,6.32.114,9.479.138L218,577.54l-15.745.755c-9.556.456-19.114.861-28.671,1.283-9.688.428-19.375.814-29.062,1.214-3.343.139-6.686.252-10.029.374l-5.578.2q-1.848,0-3.7-.007c-1.133,0-2.266-.025-3.4-.039q-4.389-.049-8.776-.1l-4.233-.051Zm-16.227,1.041.291.072-1.92.032Zm-14.44-.433v0a.855.855,0,0,0,.1.381,15.4,15.4,0,0,1-1.82-.073c-.154-.023-.306-.049-.457-.079C76.93,581.909,77.658,581.834,78.386,581.761Z" transform="translate(-73.426 -561.117)" fill="#ffd64f"/>
</svg>
