<svg xmlns="http://www.w3.org/2000/svg" width="123.238" height="141.56" viewBox="0 0 123.238 141.56">
  <path id="Trazado_2346" data-name="Trazado 2346" d="M436.59,187.7c.79-.069,1.14,0,1.366-.133,18.342-11.021,30.653-26.588,35.427-47.644a34.686,34.686,0,0,0-.357-16.24,26.537,26.537,0,0,0-24.532-20.329c-6.187-.36-12.163.269-17.6,3.682-.428,2.89-.667,5.765-1.307,8.548a15,15,0,0,1-7.369,10.236c-3.042,1.7-5.961,1.749-7.619.053a5.812,5.812,0,0,1-.8-7.165,60,60,0,0,1,6.309-8.982,47.45,47.45,0,0,1,5.259-4.822c-1.692-11.266-12.363-16.111-25.208-11.391-.422,1.578-.77,3.295-1.339,4.935-2.047,5.9-5.677,10.444-11.73,12.539-2.275.787-4.791,1.073-6.762-.969-1.522-1.576-1.514-4.421.111-7.2,2.581-4.41,6.461-7.512,10.71-10.19,1.48-.932,3.023-1.764,4.47-2.6-1.965-17.5-17.681-29.881-33.145-22.892.148-1.275-.036-2.38.429-2.986a4.28,4.28,0,0,1,2.482-1.267c8.454-1.582,16.352-.607,22.89,5.574a40.149,40.149,0,0,1,10.391,16.559c.308.9.636,1.8.977,2.693.049.131.218.216.564.539.867-.084,1.969-.135,3.052-.305,13.379-2.1,20.392,1.509,26.63,14,1.25-.4,2.564-.812,3.867-1.252a35.8,35.8,0,0,1,23.164-.232c12.725,4.171,20.93,15.124,21.759,28.9a50.572,50.572,0,0,1-3.484,21.7c-6.611,16.894-17.442,30.178-33.572,38.867q-1.272.686-2.519,1.411c-.114.066-.158.253-.55.923,3.378.8,6.6.481,9.8.348,3.141-.132,6.277-.392,9.678-.613a4.452,4.452,0,0,1-3.382,4.2,23.1,23.1,0,0,1-6.043,1.5c-5.446.2-10.92.306-16.353-.036-4.324-.273-5.512-2.6-3.568-6.106q6.188-11.152,12.518-22.224a37.176,37.176,0,0,1,2.666-3.56c1.9,2.183,1.06,3.783.367,5.312C441.775,176.472,439.279,181.854,436.59,187.7ZM383.4,107c6.882-.927,11.211-5.334,11.464-11.533C390.233,98.541,385.815,101.271,383.4,107Zm33.786,15.536c5.909-1.352,8.667-5.375,8.06-11.481C421.447,114.205,418.107,117.255,417.184,122.54Z" transform="translate(-365.224 -37.068) rotate(-3)" fill="#09989a"/>
</svg>
