<svg xmlns="http://www.w3.org/2000/svg" width="281.217" height="82.102" viewBox="0 0 281.217 82.102">
  <path id="Trazado_2264" data-name="Trazado 2264" d="M470.161,543.912a32.263,32.263,0,0,1,3.476-.757c1.081-.113,2.161-.232,3.24-.345,5.915-.624,11.829-1.424,17.747-1.668,6.189-.258,12.381-.688,18.571-.731,6.318-.044,12.634-.119,18.95-.032q18.469.266,36.934.412c12.228.087,24.456.1,36.684-.064,6.069-.09,12.14-.5,18.207-.836,5.958-.325,11.91-.873,17.865-1.511,1.309-.142,2.615-.418,3.923-.629,1.291-.215,2.586-.386,3.876-.664,3.312-.719,6.62-1.482,9.929-2.335,5.76-1.491,11.5-3.475,17.27-4.714,6.043-1.3,12.1-2.039,18.148-3.1a42.6,42.6,0,0,0,8.187-2.12,62.377,62.377,0,0,0,9.236-4.433c2.962-1.738,5.922-3.524,8.886-5.233A35.118,35.118,0,0,1,725.579,513a32.518,32.518,0,0,0,4.842-2.329c.772-.476.924-3.391.924-5.268a25.375,25.375,0,0,0-.178-3.107c-.114-.844-.351-2.193-.745-2.152-2.9.273-5.79.554-8.684.937-2.92.386-5.845.626-8.768.74a110.025,110.025,0,0,1-17.034-1c.966-.371,1.933-.737,2.9-1.108,3.471-1.335,6.933-3.011,10.422-3.913,1.857-.482,3.72-.882,5.571-1.5a15.135,15.135,0,0,0,2.8-1.2,24.349,24.349,0,0,0,2.96-2.126q.472-.144.715-1.328a20.505,20.505,0,0,0,.47-4.079c.993-.862,1.193-5.007,1.193-7.5a36.043,36.043,0,0,0-.258-4.5c-.172-1.279-.5-3.092-1.078-3.11-3.014-.1-6.022-.673-9.036-.78q-.53-.017-1.061-.017a51.709,51.709,0,0,0-7.771.716c-5.77.879-11.541,1.932-17.3,3.118-2.679.545-5.355,1.192-8.037,1.65-3.28.56-6.552.989-9.835,1.352-5.492.6-10.993.838-16.487,1.123-6.3.331-12.6.8-18.892,1.639-5.831.777-11.657,1.813-17.484,2.8q-8.775,1.479-17.553,2.965c-6,1.024-12,1.784-18,2.544-3.036.389-6.077.5-9.116.749-2.876.232-5.755.293-8.632.412-5.663.235-11.327.38-16.991.545-11.425.328-22.846.856-34.27,1.392q-9.414.448-18.826.957c-3.2.171-6.4.531-9.6.792-2.736.223-5.47.748-8.205,1.146-2.911.423-5.822.89-8.733,1.366-1.73.284-3.463.577-5.2.861-.752.128-1.505.25-2.259.377-.685.113-1.372.258-2.055.406a6.54,6.54,0,0,0-1.45.537,7.817,7.817,0,0,0-1.579,1.424,9.075,9.075,0,0,0-.639,2.654,38.271,38.271,0,0,0,0,8.743l.281,1.6q.261,1.271.767,1.43a9.7,9.7,0,0,0,1.794,1.244q.5-.156.764-1.421c.066-.255.124-.531.176-.821.32-.026.641-.023.961-.023s.613,0,.922-.026q1.039-.065,2.075-.139,2.672-.178,5.344-.357c1.931-.133,3.86-.229,5.79-.325-.2.049-.4.1-.6.142-4.559,1.009-9.115,2.022-13.669,3.176q-1.106.353-1.684,3.133a43.209,43.209,0,0,0-1.034,7.943c-.8-.023-1.6-.046-2.4-.064-.561-.015-.672,2.761-.672,3.829s.111,3.806.672,3.823c.767.02,1.535.058,2.3.087q.1,3.616.518,7.078.309,1.758.616,3.513.579,2.78,1.684,3.133C461.535,545.8,465.848,544.852,470.161,543.912Z" transform="matrix(-1, -0.017, 0.017, -1, 723.037, 559.572)" fill="#e52441"/>
</svg>
