<svg xmlns="http://www.w3.org/2000/svg" width="468.652" height="68.111" viewBox="0 0 468.652 68.111">
  <path id="Trazado_2337" data-name="Trazado 2337" d="M462.855,448.943a133.655,133.655,0,0,1,18.764-2.374c3.548-.256,7.09-.43,10.646-.578,5.095-.21,10.173-.367,15.273-.467,9.708-.189,19.421-.261,29.133-.289,19.462-.057,38.9-.158,58.347-.946,20.164-.817,40.327-1.573,60.487-2.41,19.116-.8,38.231-1.589,57.353-2.2,19.152-.61,38.289-1.151,57.42-2.152,19.576-1.023,39.172-1.572,58.777-2.018,9.3-.21,18.63-.48,27.886-1.3,4.832-.432,9.651-.917,14.473-1.428,4.721-.5,9.467-.829,14.206-1.2a95.572,95.572,0,0,1,13.056.037,9.3,9.3,0,0,0,7.119-3.858q1.307-2.165,2.61-4.329a31.116,31.116,0,0,0,0-23.618q-1.3-2.163-2.61-4.329a9.3,9.3,0,0,0-7.119-3.858c-2.406.157-4.808.365-7.214.5-2.192.124-4.392.116-6.586.128-4.693.028-9.38.165-14.064.326-9.741.337-19.464.87-29.208,1.111-18.876.467-37.769.515-56.624,1.431-10.109.488-20.207,1.058-30.317,1.534-9.184.436-18.379.721-27.571,1.005q-29.347.9-58.665,2.194c-19.3.844-38.612,1.627-57.913,2.482q-16.006.706-32.017,1.305c-9.563.356-19.151.4-28.721.488-19.593.172-39.188.288-58.755,1.25-4.819.235-9.632.555-14.429,1.027-3.9.381-7.793.917-11.63,1.6-2.967.525-5.832,1.351-8.711,2.136a21.3,21.3,0,0,0-4.777,1.98,14.912,14.912,0,0,0-6,7.258,30.037,30.037,0,0,0-1.734,18.356,22.76,22.76,0,0,0,4.377,9.941q1.674,1.441,3.352,2.876a7.73,7.73,0,0,0,7.716,0A21.668,21.668,0,0,1,462.855,448.943Z" transform="matrix(1, 0.017, -0.017, 1, -435.109, -399.299)" fill="#E52441"/>
</svg>
