<svg xmlns="http://www.w3.org/2000/svg" width="310.681" height="73.053" viewBox="0 0 310.681 73.053">
  <g id="Grupo_77740" data-name="Grupo 77740" transform="translate(-42.227 -673.128)">
    <path id="Trazado_2350" data-name="Trazado 2350" d="M469.032,508.811c1.085-.133,2.178-.336,3.267-.4,1.016-.06,2.031-.122,3.045-.182,5.559-.329,11.116-.751,16.678-.88,5.816-.136,11.635-.362,17.452-.385,5.937-.023,11.872-.063,17.808-.017q17.356.14,34.708.217c11.491.046,22.982.055,34.473-.034,5.7-.047,11.408-.266,17.109-.441,5.6-.171,11.193-.46,16.789-.8,1.23-.075,2.458-.22,3.687-.332,1.214-.113,2.43-.2,3.643-.35,3.112-.379,6.221-.782,9.331-1.231,5.413-.786,10.809-1.832,16.229-2.485,5.679-.685,11.37-1.075,17.054-1.632A66.706,66.706,0,0,0,688,498.745a84.979,84.979,0,0,0,8.679-2.337c2.783-.916,5.565-1.858,8.351-2.759,1.336-.434,2.68-.827,4.029-1.136a44.26,44.26,0,0,0,4.55-1.228c.726-.251.868-1.788.868-2.778a7.6,7.6,0,0,0-.167-1.638c-.107-.445-.33-1.156-.7-1.135-2.721.144-5.441.292-8.16.494q-4.116.305-8.24.39c-5.334.115,3.979-.532-1.35-.884.908-.2.442-.652,1.35-.847,3.262-.7-.255.442,1.747-.751,1.745-.254-1.74-1.159,0-1.485a21.414,21.414,0,0,0,2.63-.63,27.35,27.35,0,0,0,2.781-1.121q.444-.076.672-.7a6.367,6.367,0,0,0,.442-2.15c.933-.454,1.121-2.64,1.121-3.955a10.8,10.8,0,0,0-.242-2.371c-.162-.674-.471-1.63-1.013-1.64-2.832-.052-5.659-.355-8.492-.411-.332-.006-.665-.009-1-.009-2.437,0-4.869.17-7.3.378q-8.133.7-16.261,1.644c-2.517.288-5.033.629-7.553.87-3.082.3-6.157.522-9.242.713-5.161.318-10.33.442-15.494.592-5.922.174-11.837.422-17.753.864-5.48.41-10.954.956-16.43,1.477q-8.246.78-16.495,1.563c-5.635.54-11.274.941-16.914,1.341-2.853.2-5.711.266-8.566.395-2.7.122-5.408.154-8.112.217-5.322.124-10.644.2-15.967.287-10.737.173-21.469.451-32.2.734q-8.847.236-17.691.5c-3.008.09-6.017.28-9.024.418-2.571.118-5.141.395-7.711.6-2.735.223-5.471.469-8.206.72-1.626.15-3.254.3-4.882.454-.706.067-1.415.132-2.123.2-.644.06-1.289.136-1.932.214a9.614,9.614,0,0,0-1.363.283,7.555,7.555,0,0,0-1.483.751,3.223,3.223,0,0,0-.6,1.4,11.4,11.4,0,0,0,0,4.61l.264.844c.164.447.4.7.721.754a11.121,11.121,0,0,0,1.685.656c.314-.055.554-.3.718-.75a3.753,3.753,0,0,0,.166-.433c.3-.014.6-.012.9-.012s.576,0,.866-.014q.976-.035,1.95-.073c1.674-.063-3.492,1.95-1.818,1.889,1.815-.07.014-.566,1.828-.616-.188.026.191.519,0,.543-4.284.532,1.322-1.034-2.958-.425q-1.039.186-1.582,1.652a13.558,13.558,0,0,0-.971,4.188q-1.128-.018-2.258-.034c-.527-.008-.632,1.456-.632,2.019s.1,2.007.632,2.016c.721.011,1.442.031,2.163.046a22.724,22.724,0,0,0,.487,3.732q.29.927.579,1.852.544,1.466,1.582,1.652C460.927,509.808,464.979,509.306,469.032,508.811Z" transform="matrix(1, 0.017, -0.017, 1, -389.036, 195.658)" fill="#fff"/>
    <path id="Trazado_2351" data-name="Trazado 2351" d="M472.171,512.135c1.279-.144,2.567-.365,3.849-.433q1.795-.1,3.588-.2c6.55-.357,13.1-.815,19.652-.954,6.854-.148,13.71-.393,20.565-.418,7-.025,13.99-.068,20.984-.018q20.452.152,40.9.236,20.311.075,40.622-.036c6.721-.052,13.443-.289,20.161-.478,6.6-.186,13.189-.5,19.783-.865,1.449-.081,2.9-.239,4.344-.36,1.43-.123,2.863-.221,4.293-.38,3.668-.412,7.331-.848,10.995-1.336,6.378-.853,12.737-1.988,19.123-2.7,6.691-.743,13.4-1.166,20.1-1.771a84.948,84.948,0,0,0,9.065-1.213c3.432-.682,6.834-1.507,10.227-2.536,3.28-.994,6.557-2.016,9.84-2.993,1.574-.471,3.158-.9,4.748-1.233,1.8-.38,3.584-.77,5.362-1.332.855-.272,1.023-1.94,1.023-3.013a7.619,7.619,0,0,0-.2-1.777c-.126-.483-.389-1.255-.826-1.231-3.206.156-6.411.317-9.616.536q-4.85.331-9.709.423c-6.285.125,4.688-.578-1.591-.959,1.07-.212.521-.707,1.591-.919,3.844-.763-.3.48,2.058-.815,2.056-.276-2.05-1.258,0-1.611a27.048,27.048,0,0,0,3.1-.684,33.91,33.91,0,0,0,3.277-1.216,1.062,1.062,0,0,0,.792-.76,6.439,6.439,0,0,0,.521-2.333c1.1-.493,1.321-2.864,1.321-4.291a10.821,10.821,0,0,0-.285-2.572c-.191-.732-.555-1.769-1.193-1.779-3.337-.056-6.669-.385-10.006-.446-.391-.007-.784-.01-1.175-.01-2.871,0-5.737.184-8.605.41q-9.584.754-19.162,1.784c-2.966.312-5.93.682-8.9.944-3.632.32-7.255.566-10.89.773-6.081.345-12.173.48-18.257.642-6.978.189-13.948.458-20.92.938-6.457.445-12.908,1.037-19.36,1.6q-9.717.846-19.437,1.7c-6.64.586-13.285,1.021-19.931,1.455-3.362.222-6.73.289-10.094.428-3.185.133-6.372.168-9.558.236-6.271.134-12.543.217-18.814.312-12.652.188-25.3.49-37.949.8q-10.425.256-20.847.548c-3.545.1-7.091.3-10.633.453-3.029.128-6.058.428-9.086.655-3.223.242-6.447.509-9.67.782q-2.874.244-5.753.493c-.832.073-1.667.143-2.5.216-.759.065-1.519.148-2.276.232a12.2,12.2,0,0,0-1.606.307,9.214,9.214,0,0,0-1.748.815,3.363,3.363,0,0,0-.707,1.518,11.412,11.412,0,0,0,0,5l.311.916a1.15,1.15,0,0,0,.849.818,13.8,13.8,0,0,0,1.986.712,1.143,1.143,0,0,0,.846-.813,3.884,3.884,0,0,0,.2-.47c.354-.015.709-.013,1.065-.013.339,0,.679,0,1.021-.015q1.15-.037,2.3-.08c1.973-.068-4.115,2.115-2.142,2.049,2.138-.076.016-.614,2.154-.669-.221.028.225.563,0,.589-5.048.577,1.558-1.122-3.486-.461a2.532,2.532,0,0,0-1.864,1.792,13.747,13.747,0,0,0-1.145,4.543q-1.33-.02-2.66-.036c-.622-.008-.744,1.58-.744,2.19s.123,2.177.744,2.187c.849.012,1.7.033,2.549.05a22.809,22.809,0,0,0,.574,4.049q.342,1.006.682,2.01a2.532,2.532,0,0,0,1.864,1.792C462.62,513.217,467.4,512.673,472.171,512.135Z" transform="matrix(1, 0.017, -0.017, 1, -400.169, 219.131)" fill="#fff"/>
  </g>
</svg>
