<svg xmlns="http://www.w3.org/2000/svg" width="690.449" height="62.719" viewBox="0 0 690.449 62.719">
  <path id="Trazado_2257" data-name="Trazado 2257" d="M497.577,518.4c2.846-.166,5.712-.419,8.565-.5q3.994-.111,7.983-.227c14.575-.409,29.145-.935,43.727-1.095,15.25-.169,30.505-.451,45.757-.48,15.566-.029,31.127-.078,46.691-.021q45.505.174,91,.27,45.193.086,90.386-.042c14.954-.059,29.91-.331,44.859-.548,14.68-.213,29.346-.573,44.018-.992,3.225-.093,6.444-.274,9.666-.413,3.182-.141,6.371-.253,9.551-.436q12.241-.708,24.465-1.533c14.191-.979,28.339-2.281,42.55-3.094,14.889-.853,29.81-1.339,44.714-2.032,6.728-.312,13.49-.7,20.171-1.392,7.636-.783,15.2-1.729,22.756-2.909,7.3-1.14,14.59-2.313,21.9-3.435,3.5-.541,7.026-1.03,10.565-1.415,4.005-.436,7.975-.883,11.93-1.529,1.9-.312,2.276-2.226,2.276-3.458a4.775,4.775,0,0,0-.439-2.039,2.19,2.19,0,0,0-1.837-1.413c-7.134.179-14.266.364-21.4.615q-10.792.38-21.6.486c-13.985.143,10.432-.663-3.541-1.1,2.381-.244,1.159-.811,3.541-1.055,8.552-.876-.668.55,4.58-.935,4.575-.316-4.562-1.443,0-1.849,2.314-.2,4.61-.438,6.9-.784,2.457-.373,4.879-.883,7.292-1.4a2.343,2.343,0,0,0,1.762-.872,4.667,4.667,0,0,0,1.159-2.677c2.447-.566,2.939-3.286,2.939-4.924a6.787,6.787,0,0,0-.635-2.951,3.184,3.184,0,0,0-2.655-2.041c-7.425-.065-14.838-.442-22.264-.512-.871-.008-1.744-.011-2.615-.011-6.389,0-12.766.211-19.147.47q-21.324.865-42.636,2.047c-6.6.358-13.195.783-19.8,1.083-8.08.368-16.143.649-24.231.887-13.531.4-27.085.55-40.623.737-15.526.217-31.035.526-46.548,1.076-14.367.51-28.721,1.19-43.078,1.839q-21.621.971-43.248,1.946c-14.773.672-29.559,1.171-44.347,1.67-7.481.255-14.974.331-22.459.491-7.087.152-14.179.192-21.268.27-13.953.154-27.908.249-41.863.358q-42.226.323-84.438.914-23.195.294-46.385.628c-7.887.112-15.777.348-23.659.52-6.74.147-13.478.491-20.216.752q-10.758.417-21.516.9-6.4.28-12.8.565-2.778.126-5.566.248c-1.689.074-3.38.169-5.064.267-1.2.068-2.386.2-3.573.352a32.16,32.16,0,0,0-3.89.935,3.668,3.668,0,0,0-1.574,1.742,6.978,6.978,0,0,0,0,5.739l.693,1.051a2.532,2.532,0,0,0,1.89.939c1.466.314,2.913.626,4.419.817a2.52,2.52,0,0,0,1.882-.933,3.838,3.838,0,0,0,.434-.539c.788-.017,1.578-.015,2.369-.015.755,0,1.511,0,2.271-.017q2.56-.043,5.112-.091c4.389-.078-9.155,2.427-4.766,2.351,4.758-.088.036-.7,4.792-.767-.492.032.5.646.011.676-11.232.662,3.467-1.287-7.755-.53a5.586,5.586,0,0,0-4.148,2.056,10.376,10.376,0,0,0-2.547,5.213q-2.959-.023-5.92-.042c-1.383-.01-1.656,1.813-1.656,2.513s.273,2.5,1.656,2.51c1.89.013,3.782.038,5.671.057a14.679,14.679,0,0,0,1.277,4.646q.76,1.154,1.518,2.306a5.585,5.585,0,0,0,4.148,2.056C476.324,519.639,486.949,519.014,497.577,518.4Z" transform="matrix(1, 0.017, -0.017, 1, -442.283, -477.47)" fill="#fff"/>
</svg>
