<svg version="1.2" xmlns="http://www.w3.org/2000/svg" viewBox="0 0 450 174" width="450" height="174">
	<title>Nuevo proyecto</title>
	<style>
		.s0 { fill: #ffd64f } 
	</style>
	<path id="Trazado_2356" class="s0" d="m17.5 112q-0.5 0.4-0.9 0.8-0.5 0.4-0.9 0.8-0.4 0.4-0.8 0.8-3.8 4.1-7.4-0.1-1.6-2.9-3.1-5.7-0.9-2.4-1.5-4.9-0.7-2.4-1.1-4.9-0.5-2.5-0.8-5-0.4-2.5-0.5-5-0.4-4.6-0.5-9.2-0.1-4.5 0.2-9.1 0.3-4.6 1-9.1 0.6-4.5 1.6-9 0.3-1.9 0.9-3.8 0.5-1.9 1.3-3.7 0.7-1.8 1.7-3.5 0.9-1.7 2.1-3.3 0.5-0.6 1-1.1 0.6-0.5 1.1-1 0.6-0.5 1.2-0.9 0.7-0.5 1.3-0.8 1-0.6 2.1-1.2 1-0.5 2.1-1.1 1-0.5 2.1-0.9 1.1-0.5 2.2-0.9 1.3-0.5 2.7-0.9 1.4-0.5 2.8-0.8 1.4-0.4 2.8-0.7 1.5-0.3 2.9-0.6 1.7-0.3 3.5-0.6 1.7-0.3 3.4-0.5 1.8-0.2 3.5-0.4 1.7-0.2 3.5-0.3c18.8-1.6 37.6-1.5 56.5-1.5 9.2-0.1 18.4 0 27.6-0.5q15.4-1 30.8-2.1c18.6-1.4 37.1-2.6 55.7-4q28.2-2.1 56.4-3.4c8.9-0.4 17.7-0.8 26.5-1.5 9.8-0.8 19.5-1.8 29.2-2.6 18.2-1.5 36.3-1.2 54.5-1.9 9.3-0.3 18.7-1.2 28.1-1.7 4.5-0.2 9-0.4 13.5-0.4q0.8 0 1.6 0 0.8 0 1.5 0 0.8 0 1.6-0.1 0.8 0 1.6-0.1c2.3-0.2 4.6-0.6 7-0.8q4.4 0.9 6.7 7.7 1.1 4.4 2.3 8.7 0.6 2.9 0.9 5.8 0.4 2.9 0.6 5.9 0.3 2.9 0.4 5.8 0 3 0 5.9-0.1 3-0.2 5.9-0.2 3-0.5 5.9-0.4 2.9-0.9 5.8-0.4 2.9-1.1 5.8-1.3 4.3-2.6 8.5-2.5 6.8-7 7.6-1.5-0.3-3.1-0.4-1.6-0.2-3.1-0.2-1.6 0-3.2 0-1.6 0.1-3.1 0.3c-4.6 0.6-9.2 1.2-13.7 2.1q-7 1.5-14 2.6-3.3 0.5-6.6 0.9-3.4 0.4-6.7 0.6-3.4 0.3-6.8 0.5-3.3 0.1-6.7 0.2c-18.8 0.5-37.7 1.3-56.5 3-18.4 1.7-36.9 2.4-55.3 3.3-18.4 0.9-36.7 2.2-55.1 3.4-19.4 1.4-38.8 2.5-58.2 3.8-18.7 1.3-37.4 1.2-56.1 1-9.3-0.1-18.7-0.2-28 0.1q-7.3 0.1-14.7 0.6c-3.4 0.3-6.8 0.6-10.2 1q-2.4 0.2-4.7 0.6-2.3 0.4-4.5 1-2.3 0.5-4.5 1.2-2.3 0.7-4.4 1.6-0.5 0.3-1 0.7z"/>
	<path id="Trazado_2357" class="s0" d="m381.3 84.4q0.3-0.2 0.7-0.6 0.3-0.3 0.6-0.6 0.3-0.3 0.6-0.6 0.5-0.8 1.2-1.2 0.8-0.4 1.6-0.4 0.9 0 1.6 0.4 0.8 0.4 1.2 1.2 1.3 2.1 2.5 4.3 0.6 1.8 1.2 3.6 0.5 1.9 0.9 3.8 0.4 1.8 0.7 3.7 0.2 1.9 0.4 3.8 0.3 3.5 0.5 7 0.1 3.4-0.1 6.9-0.2 3.5-0.6 6.9-0.4 3.5-1.1 6.9-0.2 1.4-0.6 2.9-0.4 1.4-0.9 2.8-0.6 1.3-1.3 2.7-0.7 1.3-1.6 2.5-0.3 0.4-0.7 0.8-0.4 0.4-0.9 0.8-0.4 0.4-0.9 0.7-0.4 0.4-0.9 0.7-0.8 0.4-1.6 0.9-0.8 0.4-1.5 0.8-0.8 0.4-1.7 0.8-0.8 0.3-1.6 0.7-1 0.4-2.1 0.7-1 0.3-2.1 0.6-1 0.3-2.1 0.6-1.1 0.3-2.2 0.5-1.3 0.2-2.6 0.5-1.3 0.2-2.6 0.4-1.3 0.2-2.6 0.3-1.4 0.2-2.7 0.3c-14.3 1.5-28.5 1.6-42.8 1.9-7 0.1-14 0.2-21 0.7q-11.6 0.9-23.3 2c-14.1 1.3-28.2 2.5-42.2 3.7q-21.4 2-42.8 3.3c-6.7 0.5-13.4 0.9-20.1 1.6-7.4 0.7-14.7 1.5-22.1 2.3-13.7 1.3-27.5 1.4-41.3 2.1-7.1 0.4-14.2 1.2-21.3 1.7-3.4 0.2-6.8 0.4-10.2 0.5q-0.6 0-1.2 0-0.6 0-1.2 0-0.6 0-1.2 0.1-0.6 0-1.2 0.1c-1.8 0.2-3.5 0.5-5.3 0.7q-3.4-0.6-5.2-5.8-0.9-3.2-1.9-6.5-0.4-2.2-0.8-4.4-0.3-2.2-0.5-4.4-0.2-2.3-0.3-4.5-0.1-2.2-0.1-4.5 0-2.2 0.1-4.4 0.1-2.3 0.3-4.5 0.2-2.2 0.5-4.4 0.4-2.2 0.8-4.4 1-3.3 1.9-6.5 1.8-5.2 5.2-5.9 1.2 0.2 2.4 0.3 1.2 0.1 2.4 0.1 1.1 0 2.3-0.1 1.2 0 2.4-0.2c3.5-0.6 6.9-1 10.4-1.8q5.2-1.2 10.5-2.1 2.5-0.5 5.1-0.8 2.5-0.3 5.1-0.6 2.5-0.2 5-0.4 2.6-0.1 5.2-0.2c14.2-0.7 28.5-1.5 42.8-3.1 14-1.5 27.9-2.3 41.9-3.2 13.9-0.9 27.8-2.1 41.8-3.3 14.7-1.3 29.4-2.4 44.1-3.6 14.2-1.2 28.3-1.4 42.5-1.4 7.1-0.1 14.2-0.2 21.3-0.5q5.5-0.2 11.1-0.7c2.6-0.2 5.2-0.5 7.8-0.9q1.7-0.2 3.5-0.5 1.7-0.3 3.4-0.8 1.7-0.4 3.4-1 1.7-0.5 3.3-1.2 0.4-0.3 0.8-0.6z"/>
</svg>