<svg xmlns="http://www.w3.org/2000/svg" width="227.577" height="63.903" viewBox="0 0 227.577 63.903">
  <path id="Trazado_2356" data-name="Trazado 2356" d="M9.59,57.317a33.932,33.932,0,0,1,9.09-2.374c1.719-.256,3.435-.43,5.158-.578,2.468-.21,4.928-.367,7.4-.467,4.7-.189,9.409-.261,14.113-.289,9.428-.057,18.846-.158,28.266-.946,9.768-.817,19.536-1.573,29.3-2.41,9.261-.8,18.521-1.589,27.785-2.2s18.549-1.151,27.817-2.152C168,44.882,177.5,44.333,187,43.886a100.224,100.224,0,0,0,13.509-1.3c2.341-.432,4.675-.917,7.012-1.428,2.287-.5,4.586-.829,6.882-1.2a22.516,22.516,0,0,1,6.325.037q2.27-.432,3.449-3.858.633-2.165,1.264-4.329A57.769,57.769,0,0,0,226.564,20a57.777,57.777,0,0,0-1.128-11.81q-.632-2.163-1.264-4.329Q222.993.431,220.723,0c-1.166.157-2.329.365-3.495.5a30.313,30.313,0,0,1-3.19.128c-2.274.028-4.544.165-6.813.326-4.719.337-9.429.87-14.15,1.111-9.145.467-18.3.515-27.431,1.431-4.9.488-9.789,1.058-14.687,1.534-4.449.436-8.9.721-13.357,1.005q-14.217.9-28.42,2.194c-9.352.844-18.706,1.627-28.056,2.482q-7.754.706-15.51,1.305c-4.633.356-9.277.4-13.914.488-9.492.172-18.985.288-28.464,1.25a70.627,70.627,0,0,0-6.99,1.027,38.927,38.927,0,0,0-5.634,1.6,29.755,29.755,0,0,0-4.22,2.136A9.006,9.006,0,0,0,4.077,20.5a17.346,17.346,0,0,0-2.9,7.258A60.244,60.244,0,0,0,.333,46.11a38.1,38.1,0,0,0,2.12,9.941q.811,1.441,1.624,2.876,1.868,2.063,3.738,0A9.61,9.61,0,0,1,9.59,57.317Z" transform="matrix(1, 0.017, -0.017, 1, 1.046, 0)" fill="#ffd64f"/>
</svg>
