<svg xmlns="http://www.w3.org/2000/svg" width="168.321" height="44.545" viewBox="0 0 168.321 44.545">
  <path id="Trazado_2357" data-name="Trazado 2357" d="M7.125,42.582a25.209,25.209,0,0,1,6.753-1.764c1.277-.19,2.552-.32,3.832-.429,1.834-.156,3.661-.272,5.5-.347,3.494-.141,6.99-.194,10.485-.215,7-.042,14-.118,21-.7,7.257-.607,14.514-1.169,21.77-1.791,6.88-.591,13.76-1.181,20.642-1.632s13.781-.855,20.666-1.6c7.046-.76,14.1-1.168,21.154-1.5a74.459,74.459,0,0,0,10.037-.969c1.739-.321,3.473-.681,5.209-1.061,1.7-.371,3.407-.616,5.113-.891a16.728,16.728,0,0,1,4.7.027q1.687-.321,2.562-2.866.47-1.608.939-3.216a42.917,42.917,0,0,0,.838-8.772,42.922,42.922,0,0,0-.838-8.774q-.469-1.607-.939-3.216Q165.667.32,163.981,0c-.866.117-1.73.271-2.6.373a22.521,22.521,0,0,1-2.37.1c-1.689.021-3.376.123-5.062.242-3.506.25-7.005.646-10.512.825-6.794.347-13.593.383-20.379,1.063-3.638.363-7.273.786-10.911,1.14-3.306.324-6.615.536-9.923.747q-10.562.668-21.114,1.63c-6.948.627-13.9,1.209-20.843,1.844q-5.761.525-11.523.97c-3.442.264-6.892.3-10.337.363-7.052.128-14.1.214-21.146.929a52.471,52.471,0,0,0-5.193.763,28.92,28.92,0,0,0-4.186,1.186,22.106,22.106,0,0,0-3.135,1.587,6.691,6.691,0,0,0-1.719,1.471A12.887,12.887,0,0,0,.871,20.619,44.757,44.757,0,0,0,.247,34.256a28.3,28.3,0,0,0,1.575,7.385q.6,1.07,1.207,2.137a1.641,1.641,0,0,0,2.777,0A7.139,7.139,0,0,1,7.125,42.582Z" transform="translate(168.321 44.545) rotate(180)" fill="#ffd64f"/>
</svg>
