<svg xmlns="http://www.w3.org/2000/svg" width="80.654" height="78.434" viewBox="0 0 80.654 78.434">
  <path id="Trazado_1902" data-name="Trazado 1902" d="M31.268,16.515a22.187,22.187,0,0,1,5.894,6.171c1.613,2.52,2.992,6.292,1.717,9.253-1.819,4.224-7.115,3.493-9.862.825-4.962-4.82-2.736-12.441,2.25-16.248M.761,6.959A1.788,1.788,0,0,0,.4,9.556,2.434,2.434,0,0,0,1.463,10.73a47.052,47.052,0,0,1,9.6,6.77c1.917,1.726,4.3-1.5,2.4-3.213a49.506,49.506,0,0,0-4.849-3.831c6.571.182,13.45,1.132,19.209,4-6.565,6.3-8.241,17.949.985,23.047,4.485,2.48,10.618,1.623,13.228-3.108s.707-10.587-2.167-14.7a25.985,25.985,0,0,0-4.892-5.264c9.258-3.559,20.274,3.115,24.3,11.735,5.113,10.944,3.456,25.578-3.617,35.242A.807.807,0,0,0,56.8,62.521c11.477-8.78,11.256-29.866,4.161-41.164C55.026,11.9,41.856,6.338,31.421,11.833c-.039.02-.074.044-.112.065C24.83,8.143,16.947,6.845,9.26,6.556q2.233-1.5,4.469-2.992c1.9-1.271-.04-4.336-2.041-3.383A57.413,57.413,0,0,0,.76,6.959Z" transform="matrix(-0.961, 0.276, -0.276, -0.961, 80.654, 60.262)" fill="#fed64f"/>
</svg>
