<svg xmlns="http://www.w3.org/2000/svg" width="90.885" height="90.566" viewBox="0 0 90.885 90.566">
  <path id="Trazado_2205" data-name="Trazado 2205" d="M31.268,46.176A22.186,22.186,0,0,0,37.162,40c1.613-2.52,2.992-6.292,1.717-9.253-1.819-4.224-7.115-3.493-9.862-.825-4.962,4.82-2.736,12.441,2.25,16.248M.761,55.731a1.788,1.788,0,0,1-.359-2.6A2.434,2.434,0,0,1,1.463,51.96a47.051,47.051,0,0,0,9.6-6.77c1.917-1.726,4.3,1.5,2.4,3.213a49.506,49.506,0,0,1-4.849,3.831c6.571-.182,13.45-1.132,19.209-4-6.565-6.3-8.241-17.949.985-23.047,4.485-2.48,10.618-1.623,13.228,3.108s.707,10.587-2.167,14.7a25.985,25.985,0,0,1-4.892,5.264c9.258,3.559,20.274-3.115,24.3-11.735,5.113-10.944,3.456-25.578-3.617-35.242A.807.807,0,0,1,56.8.17C68.28,8.95,68.06,30.036,60.964,41.333c-5.938,9.455-19.109,15.019-29.543,9.524-.039-.02-.074-.044-.112-.065C24.83,54.548,16.946,55.846,9.26,56.135q2.233,1.5,4.469,2.992c1.9,1.271-.04,4.336-2.041,3.383A57.413,57.413,0,0,1,.76,55.731Z" transform="translate(49.756 90.566) rotate(-139)" fill="#09989a"/>
</svg>
