<svg xmlns="http://www.w3.org/2000/svg" width="98.332" height="99.913" viewBox="0 0 98.332 99.913">
  <path id="Trazado_2336" data-name="Trazado 2336" d="M161.456,378.878c-2.562,1.643-4.558,3.018-6.65,4.228-1.218.7-2.629,1.488-3.954-.654,3.794-2.956,7.29-6.17,11.446-8.5,1.724-.966,2.941-.518,4.114,1.121a11.923,11.923,0,0,1,1.053,1.936q2.4,5.174,4.752,10.365c.518,1.145,1,2.446-.422,3.234-1.28.707-2.444.033-3.188-1.044a37.811,37.811,0,0,1-2.166-3.829,8.69,8.69,0,0,0-1.838-2.708c0,.469,0,.938,0,1.407-.027,5.14-1.238,6.988-5.98,8.932a25.14,25.14,0,0,1-11.875,1.91c-.978-.086-1.957-.185-2.937-.219-4.028-.139-5.4,1.472-4.326,5.388a47.428,47.428,0,0,0,2.329,5.794c2.445,5.766,1.328,9.21-4.193,12.235a31.291,31.291,0,0,1-13.292,3.96,25.031,25.031,0,0,0-4.373.493c-2.27.547-2.886,1.673-1.838,3.782A63.1,63.1,0,0,0,122,432.944c.938,1.436,2.094,2.745,2.91,4.243,1.71,3.137,1.926,6.4-.3,9.365a54.473,54.473,0,0,1-5.563,6.326,4.3,4.3,0,0,1-5.389.846c.639-.7,1.16-1.256,1.67-1.824,1.958-2.177,4.01-4.279,5.842-6.558,1.773-2.205,1.482-4.582-.109-6.8-1.358-1.894-2.882-3.674-4.178-5.607a29,29,0,0,1-3.087-5.414c-1.613-4.127.313-7.7,4.645-8.7a36.891,36.891,0,0,1,6.2-.716,26.115,26.115,0,0,0,11.494-3.549c2.94-1.671,3.287-2.946,2.067-6.062a63.146,63.146,0,0,1-2.862-7.539,11.507,11.507,0,0,1,.116-5.393c.774-3.067,3.052-4.675,6.219-4.727a28.806,28.806,0,0,1,5.128.381c3.922.646,7.547-.362,11.112-1.778a3.748,3.748,0,0,0,2.761-3.847A54.179,54.179,0,0,1,161.456,378.878Z" transform="translate(219.851 -353.29) rotate(42)" fill="#e52441"/>
</svg>
