<svg xmlns="http://www.w3.org/2000/svg" width="78.944" height="87.106" viewBox="0 0 78.944 87.106">
  <path id="Trazado_2347" data-name="Trazado 2347" d="M325.836,398.831c2.08-.976,3.37-1.154,3.781-1.85a38.975,38.975,0,0,0,4.041-8.083c2.353-7.682,2.073-15.514.506-23.339-2.665-13.311-8.74-25.087-16.2-36.25-.8-1.192-1.533-2.426-2.274-3.654-.046-.077.111-.276.265-.624,2.2.556,4.452,1.242,6.75,1.656a8.162,8.162,0,0,0,3.765-.152,2.833,2.833,0,0,0,1.706-2.009,3.62,3.62,0,0,0-3.541-3.592c-6.035-1.546-12.049-3.19-18.123-4.565-5.208-1.179-6.875.463-6.563,5.612.318,5.27.354,10.557.58,15.833.07,1.633.354,3.256.564,5.1,4.248-1.895,4.248-1.895,5.747-18.145,6.287,6.994,10.5,14.621,14.414,22.4a83.2,83.2,0,0,1,7.9,24.666C330.544,380.708,328.8,389.246,325.836,398.831Z" transform="matrix(0.788, -0.616, 0.616, 0.788, -430.885, -42.534)" fill="#e52441"/>
</svg>
