<svg xmlns="http://www.w3.org/2000/svg" width="28.592" height="56.465" viewBox="0 0 28.592 56.465">
  <g id="Grupo_77577" data-name="Grupo 77577" transform="translate(-455.035 -306.712) rotate(31)">
    <path id="Trazado_1898" data-name="Trazado 1898" d="M569.478,34.946q1.786-2.709,3.6-5.4.874-1.3,1.756-2.591a3.764,3.764,0,0,0,.622-3.442,1.546,1.546,0,0,0-1.471-1.144,3.7,3.7,0,0,0-3.1,1.554q-.957,1.234-1.911,2.473-2.068,2.685-4.111,5.389c-2.618,3.472-4.421,7.669-6.41,11.527-.749,1.452,1.221,3.208,2.4,1.842q2.161-2.51,4.35-5a48.052,48.052,0,0,0,4.277-5.212" fill="#09989a"/>
    <path id="Trazado_1899" data-name="Trazado 1899" d="M582.33,31.133c-1.629-1-4.091.173-5.739.762a44.357,44.357,0,0,0-5.475,2.36c-3.279,1.691-6.093,4.885-8.36,7.738-.722.9.224,2.643,1.366,1.809a39.8,39.8,0,0,1,4.609-2.907c1.513-.814,3.136-1.405,4.625-2.253a38,38,0,0,1,4.618-2.251c1.636-.654,4.191-.892,5.1-2.519a2.047,2.047,0,0,0-.744-2.739" transform="translate(3.322 6.598)" fill="#09989a"/>
    <path id="Trazado_1900" data-name="Trazado 1900" d="M569.227,47.539c.442-.007.885-.014,1.327-.023,1.033-.016,2.067-.036,3.1-.052,1.917-.034,3.84-.023,5.755-.1a44.393,44.393,0,0,0,5.757-.9l3.041-.535a9.136,9.136,0,0,0,2.845-.719,1.157,1.157,0,0,0-.266-2.1,12.447,12.447,0,0,0-3.833-.111q-1.99.048-3.984.093a28.057,28.057,0,0,0-4.066.229c-1.375.238-2.746.5-4.121.751l-3.9.71a24.118,24.118,0,0,0-3.726.724,1.591,1.591,0,0,0-1.159,1.879,1.325,1.325,0,0,0,1.684.957.99.99,0,0,0,.66-.781h0l.887-.016" transform="translate(6.031 16.177)" fill="#09989a"/>
  </g>
</svg>
