<svg xmlns="http://www.w3.org/2000/svg" width="34.438" height="42.242" viewBox="0 0 34.438 42.242">
  <path id="Trazado_2340" data-name="Trazado 2340" d="M104.3,18.855a24.631,24.631,0,0,0-.532-5.027A11.334,11.334,0,0,0,101.346,8.8,7.844,7.844,0,0,0,98.921,6.85,15.122,15.122,0,0,0,97.5,6.2a11.712,11.712,0,0,0-1.538-.355,6.62,6.62,0,0,0-3.371.355,7.807,7.807,0,0,0-2.72,1.656,16.424,16.424,0,0,0-2.306,2.779,12.364,12.364,0,0,0-1.36-1.715,8.964,8.964,0,0,0-2.6-1.892,6.045,6.045,0,0,0-1.6-.473c-.237-.059-.473-.059-.71-.118l-.355-.059H80.47a7.615,7.615,0,0,0-3.312.828c-8.457,3.9-9.166,16.44.3,32.407a25.337,25.337,0,0,0,6.269,7.215,2.729,2.729,0,0,0,3.666-.237,2.4,2.4,0,0,0,.237-3.607h0A59.471,59.471,0,0,1,82.067,36.3a45.5,45.5,0,0,1-4.258-7.333c-.591-1.242-1.124-2.543-1.6-3.844a15.7,15.7,0,0,1-.828-4.021,14.523,14.523,0,0,1,.177-3.962,9.567,9.567,0,0,1,1.36-3.489A6.39,6.39,0,0,1,79.228,11.4a2.453,2.453,0,0,1,2.425,0,8.251,8.251,0,0,1,2.306,2.306l.3.414a1.038,1.038,0,0,0,.237.3c.118.237.3.532.473.828a6.938,6.938,0,0,1,.3.651,7.15,7.15,0,0,0-.3,1.064C84.551,18.5,84.2,20.1,83.9,21.634c-.118.769-.237,1.6-.355,2.425-.059.887-.118,1.6-.177,2.425a21.193,21.193,0,0,0,.355,5.027,7.023,7.023,0,0,0,1.242,2.9,4.239,4.239,0,0,0,1.892,1.36,3.607,3.607,0,0,0,2.365-.059,3.829,3.829,0,0,0,1.833-1.419,5.311,5.311,0,0,0,.71-1.6,12.181,12.181,0,0,0,.414-2.72,33.175,33.175,0,0,0-.3-4.908,74.455,74.455,0,0,0-1.892-8.752c.3-.651.591-1.3.887-1.892a9.553,9.553,0,0,1,2.188-2.9,2.769,2.769,0,0,1,2.247-.828c.177,0,.473.118.71.118a2.186,2.186,0,0,1,.651.3,3.68,3.68,0,0,1,1.124.828,7.218,7.218,0,0,1,1.6,3.075,17.348,17.348,0,0,1,.591,4.021,29.557,29.557,0,0,1-1.005,8.457c-.177.71-.355,1.36-.591,2.07a18.063,18.063,0,0,1-.769,1.892,14.572,14.572,0,0,1-2.247,3.371A16.838,16.838,0,0,1,92.357,37.6a17.129,17.129,0,0,1-1.715,1.124c-.3.177-.591.3-.887.473-.3.118-.651.3-.828.355s-.3.118-.473.177a2.144,2.144,0,0,0-.769,3.075,2.1,2.1,0,0,0,2.9,1.183l.118-.059a7.067,7.067,0,0,0,1.183-.651l1.064-.71c.71-.473,1.36-.946,2.011-1.478A33.514,33.514,0,0,0,98.566,37.6a20.039,20.039,0,0,0,2.72-4.258,19.72,19.72,0,0,0,.946-2.365c.3-.769.473-1.538.71-2.306A37.421,37.421,0,0,0,104.3,18.855Zm-17.682,12c-.946-2.543,0-6.919,1.3-9.107,1.005,2.365,2.779,10.053,0,10.172C86.975,31.983,86.857,31.392,86.62,30.86Z" transform="matrix(1, -0.017, 0.017, 1, -70.676, -3.944)" fill="#ec1c24"/>
</svg>
