<svg version="1.2" xmlns="http://www.w3.org/2000/svg" viewBox="0 0 39 27" width="39" height="27">
	<title>Grupo 77646-svg</title>
	<style>
		tspan { white-space:pre } 
		.s0 { fill: #ffffff } 
		.t1 { font-size: 18px;fill: #e52441;font-weight: bold;font-family: "Filson Pro Bold" } 
		.s2 { fill: #e52441;stroke: #e52441;stroke-width: .5 } 
	</style>
	<g id="Grupo_77646">
		<g id="Grupo_77647">
			<rect id="Rectángulo_6370" class="s0" x="-18" y="-5" width="254" height="38" rx="19"></rect>
			<g id="Grupo_77645">
				<text id="Free shipping in USA" style="transform: matrix(1,0,0,1,40.679,19.983)" >
					<tspan x="0" y="0" class="t1">Free shipping in USA</tspan>
				</text>
				<g id="noun-shipping-2223038">
					<path id="Trazado_1826" fill-rule="evenodd" class="s2" d="m35.2 22.8h-2.9c-0.1 0.6-0.5 1.2-1 1.6-0.5 0.4-1.1 0.7-1.8 0.7-0.7 0-1.3-0.3-1.8-0.7-0.5-0.4-0.9-1-1-1.6h-16.7c-0.2 0.6-0.5 1.2-1 1.6-0.5 0.4-1.2 0.7-1.8 0.7-0.7 0-1.3-0.3-1.9-0.7-0.5-0.4-0.8-1-1-1.6h-2.3v-6.9q0-0.2 0.1-0.3 0-0.2 0.1-0.3 0.1-0.2 0.2-0.3 0.1-0.1 0.3-0.2l3.2-10.4q0-0.2 0.1-0.4 0.1-0.2 0.2-0.3 0.2-0.2 0.4-0.3 0.2-0.1 0.4-0.1h27.1q0.2 0 0.4 0.1 0.3 0.1 0.4 0.3 0.2 0.2 0.3 0.4 0 0.3 0 0.5zm-26.9-18.3v10.3h3.4v-10.3zm-4.3 10.3h3.2v-10.3h-0.1q0 0 0 0.1 0 0 0 0 0 0 0 0.1-0.1 0-0.1 0v0.1zm3.6 9.1q0.2 0 0.3-0.1 0.2 0 0.3-0.1 0.2-0.1 0.3-0.2c0.6-0.6 0.7-1.5 0.2-2.2-0.4-0.7-1.3-1-2.1-0.7-0.7 0.4-1.2 1.2-1 2 0.2 0.8 0.9 1.4 1.7 1.4q0.1 0 0.3-0.1zm4.3-8h-8.6v5.8h1.2c0.1-0.7 0.5-1.3 1-1.7 0.5-0.4 1.1-0.6 1.8-0.6 0.6 0 1.3 0.2 1.8 0.6 0.5 0.4 0.9 1 1 1.7h1.8zm18.1 8q0.1-0.1 0.3-0.1 0.1-0.1 0.3-0.2 0.1-0.1 0.2-0.2c0.6-0.6 0.7-1.5 0.3-2.2-0.5-0.7-1.4-0.9-2.1-0.6-0.8 0.3-1.2 1.1-1.1 1.9 0.2 0.8 0.9 1.4 1.7 1.4q0.2 0 0.4 0zm4.2-19.3q0 0 0-0.1 0 0 0 0 0 0 0 0 0-0.1 0-0.1h-21.2v17.2h13.8c0.1-0.7 0.5-1.2 1-1.7 0.5-0.4 1.2-0.6 1.8-0.6 0.7 0 1.3 0.2 1.8 0.6 0.5 0.5 0.9 1 1 1.7h1.8zm-1.7 10.7q0 0.1-0.1 0.2 0 0.1-0.1 0.2-0.1 0.1-0.2 0.1-0.1 0.1-0.2 0.1h-17.2q-0.2 0-0.4-0.2-0.2-0.2-0.2-0.4 0-0.2 0.2-0.4 0.2-0.2 0.4-0.2h17.2q0.1 0 0.2 0.1 0.1 0 0.2 0.1 0.1 0.1 0.1 0.2 0.1 0.1 0.1 0.2z"/>
				</g>
			</g>
		</g>
	</g>
</svg>