<svg xmlns="http://www.w3.org/2000/svg" width="103.498" height="19.233" viewBox="0 0 103.498 19.233">
  <path id="Trazado_2666" data-name="Trazado 2666" d="M210.258,353.313c-7.271.881-14.067,1.685-20.852,2.567-.485.063-.9.7-1.975,1.6,3.242.392,5.718.885,8.205.954,6.571.183,13.147.185,19.721.249a12.787,12.787,0,0,0,2.4-.082c2.646-.483,3.45-2.2,2.052-4.5a15.965,15.965,0,0,0-2.371-3.02q-5.123-5.079-10.372-10.028a15.863,15.863,0,0,0-2.683-1.589c-.167,5.084,4.9,6.481,6.005,10.53-.907-.176-1.672-.273-2.407-.475-26.968-7.409-53.881-6.608-80.733.593a80.8,80.8,0,0,0-8.167,2.835c-1.418.549-2.624,1.557-1.849,3.3.737,1.661,2.136,1.666,3.652.991,17.9-7.972,36.9-8.9,56.054-8.646a135.972,135.972,0,0,1,29.549,3.513C207.66,352.392,208.793,352.842,210.258,353.313Z" transform="translate(-116.989 -339.47)" fill="#e52441"/>
</svg>
