<svg xmlns="http://www.w3.org/2000/svg" width="73.418" height="24.608" viewBox="0 0 73.418 24.608">
  <path id="Trazado_2068" data-name="Trazado 2068" d="M464.146,372.839c-1.4-.663-1.378-1.945-1.541-3.005-.93-6.081-2.074-12.148-2.606-18.266-1.089-12.5-1.834-25.028-2.726-37.543a14.24,14.24,0,0,0-.492-3.08c-1.7,4.316-2.486,8.936-4.229,13.2l-1-.186a9.9,9.9,0,0,1-.13-2.47c1.254-6.261,2.529-12.519,3.915-18.753.514-2.311,1.99-2.772,3.8-1.183a26.206,26.206,0,0,1,3.714,4.134c2.343,3.176,4.6,6.418,6.8,9.693,1.466,2.18,1.452,2.438,1.216,5.274-4.59-2.842-6.081-7.936-9.761-11.588a15.151,15.151,0,0,0-.242,2.355q1.82,28.869,3.668,57.735C464.606,370.328,465.157,371.609,464.146,372.839Z" transform="matrix(-0.07, 0.998, -0.998, -0.07, 404.785, -424.26)" fill="#09989a"/>
</svg>
