<svg xmlns="http://www.w3.org/2000/svg" width="677.89" height="47.333" viewBox="0 0 677.89 47.333">
  <path id="Trazado_2257" data-name="Trazado 2257" d="M496.789,515.169c2.8-.155,5.614-.391,8.418-.464q3.926-.1,7.846-.212c14.326-.382,28.647-.873,42.98-1.022,14.99-.158,29.984-.421,44.976-.448,15.3-.027,30.6-.073,45.894-.02q44.728.163,89.446.253,44.421.08,88.842-.039c14.7-.055,29.4-.309,44.093-.512,14.43-.2,28.844-.535,43.266-.926,3.17-.087,6.334-.256,9.5-.386,3.128-.132,6.263-.236,9.388-.407q12.032-.662,24.047-1.431c13.949-.914,27.855-2.13,41.824-2.889,14.634-.8,29.3-1.25,43.95-1.9,6.613-.292,13.26-.656,19.826-1.3,7.506-.731,14.945-1.614,22.367-2.717,7.173-1.065,14.341-2.16,21.521-3.207,3.443-.5,6.906-.962,10.384-1.321,3.937-.407,7.839-.825,11.726-1.428,1.87-.292,2.237-2.078,2.237-3.229a4.269,4.269,0,0,0-.432-1.9,2.136,2.136,0,0,0-1.806-1.319c-7.013.167-14.022.34-21.03.574q-10.607.355-21.235.453c-13.746.133,10.254-.619-3.48-1.028,2.341-.228,1.14-.757,3.48-.985,8.406-.818-.656.514,4.5-.873,4.5-.3-4.484-1.348,0-1.726,2.274-.19,4.531-.409,6.778-.733,2.415-.348,4.8-.825,7.168-1.3a2.347,2.347,0,0,0,1.732-.814,4.254,4.254,0,0,0,1.139-2.5c2.4-.528,2.888-3.069,2.888-4.6a6.07,6.07,0,0,0-.624-2.756,3.106,3.106,0,0,0-2.61-1.906c-7.3-.06-14.585-.413-21.884-.478-.856-.007-1.714-.011-2.57-.011-6.28,0-12.548.2-18.82.439q-20.96.808-41.908,1.911c-6.487.334-12.969.731-19.464,1.012-7.942.343-15.867.606-23.817.828-13.3.37-26.622.514-39.929.688-15.261.2-30.5.491-45.753,1-14.121.476-28.23,1.111-42.342,1.717q-21.252.907-42.509,1.817c-14.521.628-29.054,1.093-43.59,1.559-7.353.238-14.718.309-22.076.459-6.966.142-13.936.18-20.9.252q-20.572.216-41.148.334-41.505.3-83,.853-22.8.275-45.593.587c-7.752.1-15.507.325-23.255.485-6.625.137-13.248.459-19.871.7q-10.574.389-21.149.837-6.286.261-12.582.528-2.73.117-5.471.231c-1.66.069-3.323.158-4.978.249-1.184.064-2.346.187-3.512.329a33,33,0,0,0-3.823.873,3.492,3.492,0,0,0-1.547,1.627,6.22,6.22,0,0,0,0,5.358l.681.981a2.536,2.536,0,0,0,1.857.877c1.44.293,2.864.585,4.344.763a2.524,2.524,0,0,0,1.85-.871,3.624,3.624,0,0,0,.427-.5c.774-.016,1.551-.014,2.328-.014.743,0,1.485,0,2.232-.016q2.516-.04,5.025-.085c4.314-.073-9,2.267-4.685,2.2,4.677-.082.036-.658,4.71-.717-.483.03.492.6.011.632-11.04.619,3.408-1.2-7.623-.494a5.593,5.593,0,0,0-4.077,1.92,9.5,9.5,0,0,0-2.5,4.868q-2.908-.021-5.819-.039c-1.359-.009-1.628,1.693-1.628,2.347s.269,2.333,1.628,2.343c1.857.012,3.717.035,5.575.053a13.177,13.177,0,0,0,1.256,4.338q.747,1.077,1.492,2.153a5.593,5.593,0,0,0,4.077,1.92C475.9,516.329,486.343,515.746,496.789,515.169Z" transform="translate(1129.323 516.995) rotate(180)" fill="#fff"/>
</svg>
