<svg xmlns="http://www.w3.org/2000/svg" width="241.885" height="42.372" viewBox="0 0 241.885 42.372">
  <path id="Trazado_2451" data-name="Trazado 2451" d="M467.617,510.4c1-.138,2-.35,3-.415.934-.062,1.868-.127,2.8-.189,5.112-.342,10.222-.781,15.336-.915,5.349-.142,10.7-.377,16.048-.4,5.459-.024,10.917-.065,16.376-.018q15.96.146,31.916.226c10.567.048,21.134.057,31.7-.035,5.245-.049,10.49-.277,15.733-.458,5.149-.178,10.292-.479,15.438-.829,1.131-.078,2.26-.229,3.39-.345s2.235-.212,3.35-.364c2.862-.395,5.721-.813,8.58-1.281,4.977-.818,9.939-1.907,14.924-2.586,5.222-.713,10.455-1.119,15.682-1.7a54.685,54.685,0,0,0,7.074-1.163,71.019,71.019,0,0,0,7.981-2.432c2.559-.953,5.117-1.934,7.679-2.871,1.229-.452,2.464-.861,3.705-1.183a37,37,0,0,0,4.184-1.278c.667-.261.8-1.861.8-2.89a8.914,8.914,0,0,0-.154-1.7c-.1-.463-.3-1.2-.644-1.181-2.5.15-5,.3-7.5.514q-3.785.318-7.577.406c-4.9.119-9.82-.185-14.72-.551.835-.2,1.67-.4,2.506-.608,3-.732,5.991-1.652,9.006-2.147,1.6-.264,3.214-.484,4.814-.823a17.807,17.807,0,0,0,2.419-.656,23.58,23.58,0,0,0,2.558-1.167q.408-.079.618-.729a7.387,7.387,0,0,0,.407-2.238c.858-.473,1.031-2.747,1.031-4.116a12.666,12.666,0,0,0-.223-2.467c-.149-.7-.433-1.7-.931-1.706-2.6-.054-5.2-.369-7.809-.428-.305-.006-.612-.01-.917-.01-2.241,0-4.477.177-6.715.393q-7.479.723-14.953,1.711c-2.315.3-4.628.654-6.945.906-2.834.307-5.662.543-8.5.742-4.746.331-9.5.46-14.248.616-5.445.181-10.885.439-16.326.9-5.039.427-10.073.995-15.108,1.537q-7.583.812-15.168,1.627c-5.181.562-10.367.979-15.554,1.4-2.624.213-5.252.277-7.877.411-2.486.127-4.973.161-7.459.226-4.893.129-9.788.208-14.682.3-9.873.18-19.742.47-29.615.764q-8.135.246-16.268.525c-2.766.094-5.533.291-8.3.435-2.364.123-4.727.411-7.09.629-2.515.232-5.031.489-7.546.75-1.5.156-2.992.317-4.49.473-.65.07-1.3.137-1.952.207-.592.062-1.186.142-1.776.223a7.949,7.949,0,0,0-1.253.294,6.675,6.675,0,0,0-1.364.781,3.59,3.59,0,0,0-.552,1.456,13.4,13.4,0,0,0,0,4.8l.243.879c.151.465.372.726.663.785a9.544,9.544,0,0,0,1.55.683c.289-.057.51-.317.66-.78a4.246,4.246,0,0,0,.152-.45c.276-.014.554-.013.831-.013s.53,0,.8-.014q.9-.036,1.793-.076,2.309-.1,4.618-.2c1.669-.073,3.336-.126,5-.178l-.517.078c-3.939.554-7.876,1.109-11.812,1.743q-.956.193-1.455,1.719a15.675,15.675,0,0,0-.893,4.358q-1.038-.019-2.076-.035c-.485-.008-.581,1.515-.581,2.1s.1,2.088.581,2.1c.663.011,1.326.032,1.989.048a26.605,26.605,0,0,0,.448,3.883q.267.965.533,1.927.5,1.525,1.455,1.719C460.163,511.438,463.889,510.916,467.617,510.4Z" transform="translate(-451.433 -469.663)" fill="#c0dd52"/>
</svg>
