<svg xmlns="http://www.w3.org/2000/svg" width="153.636" height="15.855" viewBox="0 0 153.636 15.855">
  <path id="Trazado_2400" data-name="Trazado 2400" d="M214.644,221.058c-.551.055-1.1.1-1.655.172l-2.282.3a21.036,21.036,0,0,0-3.741.852,15.155,15.155,0,0,0-3.784,1.892c-.238.162-.475.339-.721.483l-.8.464c-.377.2-.755.382-1.143.539a7.723,7.723,0,0,1-1.375.4,9.759,9.759,0,0,1-1.215.085,6.981,6.981,0,0,1-1.152-.1,10.568,10.568,0,0,1-1.547-.446,13.038,13.038,0,0,1-1.572-.747,21.662,21.662,0,0,1-2.559-1.725c-.389-.3-.775-.613-1.156-.935-.458-.39-.911-.781-1.385-1.138a7.311,7.311,0,0,0-1.124-.736,4.839,4.839,0,0,0-.776-.3,3.663,3.663,0,0,0-.811-.117,2.419,2.419,0,0,0-.484.061,4.061,4.061,0,0,0-.688.2,5.478,5.478,0,0,0-1.018.612q-1,.68-1.994,1.362c-.84.578-1.689,1.143-2.559,1.639a16.228,16.228,0,0,1-1.618.733,13.159,13.159,0,0,1-2.2.607,15,15,0,0,1-2.151.2,13.734,13.734,0,0,1-2.434-.235,25.927,25.927,0,0,1-3.034-.77,16.281,16.281,0,0,1-2.719-1.117,28.152,28.152,0,0,1-2.578-1.653,18.521,18.521,0,0,0-2.961-1.787,7.427,7.427,0,0,0-1.251-.423,4.876,4.876,0,0,0-2.969.123,6.122,6.122,0,0,0-1.428.73,20.859,20.859,0,0,0-3.065,2.684c-.592.574-1.166,1.181-1.746,1.774-.485.483-.968.967-1.479,1.406a10.969,10.969,0,0,1-1.676,1.186c-.271.142-.542.27-.821.385a5.673,5.673,0,0,1-1.116.315,3.757,3.757,0,0,1-.447.033,2.315,2.315,0,0,1-.321-.016,5,5,0,0,1-.885-.335,18.648,18.648,0,0,1-2.938-2.366c-.443-.456-.871-.93-1.284-1.43q-.434-.522-.867-1.046a33.083,33.083,0,0,0-2.25-2.74,6.869,6.869,0,0,0-1.081-.872,3.651,3.651,0,0,0-.674-.321l-.227-.061-.476-.083-.231-.019-.086,0a1.963,1.963,0,0,0-.425.048,3.987,3.987,0,0,0-.808.233,11.349,11.349,0,0,0-1.527.766c-.408.231-.81.482-1.214.726-.284.173-.574.336-.849.532l-1.3.926c-.218.155-.44.3-.651.473l-1.175.962c-.3.241-.6.474-.886.726l-2.182,1.9a30.733,30.733,0,0,1-4.9,3.683c-.384.2-.771.391-1.165.56a7.786,7.786,0,0,1-1.5.447c-.214.032-.427.056-.645.073a4.649,4.649,0,0,1-.948-.047,5.923,5.923,0,0,1-1.323-.452,8.658,8.658,0,0,1-1.329-1.024,23.706,23.706,0,0,1-1.842-2.287c-.291-.4-.586-.791-.879-1.186-.352-.474-.734-.909-1.12-1.334a5.449,5.449,0,0,0-1.027-.891,5.219,5.219,0,0,0-.665-.35,2.383,2.383,0,0,0-.7-.142,3.222,3.222,0,0,0-.452.066,2.482,2.482,0,0,0-.623.284,2.3,2.3,0,0,0-.556.479c-.166.206-.323.42-.478.64-.3.418-.558.885-.832,1.328-.217.349-.431.7-.647,1.052-.251.408-.514.8-.77,1.207a14.145,14.145,0,0,1-1.7,2.164,9.041,9.041,0,0,1-1.518,1.163,6.648,6.648,0,0,1-1.5.517,7.672,7.672,0,0,1-2.178-.027,12.688,12.688,0,0,1-3.334-1.266,25.145,25.145,0,0,1-2.841-1.924c-.475-.366-.933-.768-1.389-1.17s-.919-.809-1.373-1.224-.912-.843-1.388-1.228a13.383,13.383,0,0,0-1.51-1.062,5.761,5.761,0,0,0-3.06-.929,3.858,3.858,0,0,0-.74.105,6.249,6.249,0,0,0-.762.216,4.477,4.477,0,0,0-.659.324c-.234.13-.467.265-.7.4a18.726,18.726,0,0,0-2.919,2.119,16.656,16.656,0,0,0-3.175,3.88,3,3,0,0,0-.309.727l-.083.313c-.033.224-.066.446-.1.669a1.047,1.047,0,0,0,.164.806.546.546,0,0,0,.622.213c.153-.056.306-.113.46-.171a3.258,3.258,0,0,0,.62-.342.979.979,0,0,0,.229-1.131.651.651,0,0,0-.38-.373,15.386,15.386,0,0,1,1.85-2.282,16.652,16.652,0,0,1,3.467-2.595c.277-.15.556-.3.837-.438a4.3,4.3,0,0,1,1.082-.355,4.666,4.666,0,0,1,.973-.016,5.883,5.883,0,0,1,.644.177,6.345,6.345,0,0,1,.917.417,13.25,13.25,0,0,1,1.68,1.219c.632.517,1.216,1.133,1.823,1.7s1.2,1.115,1.812,1.649,1.24,1.011,1.878,1.473a17.127,17.127,0,0,0,3.921,2.15,8.058,8.058,0,0,0,4.339.478,6.259,6.259,0,0,0,1.963-.7,8.7,8.7,0,0,0,1.717-1.288,12.972,12.972,0,0,0,1.605-1.876c.261-.367.5-.749.743-1.136.352-.56.7-1.126,1.037-1.7a22.132,22.132,0,0,1,1.319-2.067,1.186,1.186,0,0,1,.111-.08,1.41,1.41,0,0,1,.159-.061h.052a1.869,1.869,0,0,1,.284.105,4.7,4.7,0,0,1,.668.488,21.059,21.059,0,0,1,1.687,2.068c.684.924,1.361,1.85,2.114,2.683a9.947,9.947,0,0,0,1.035.968,7.116,7.116,0,0,0,1.341.85,5.016,5.016,0,0,0,1.325.416,5.788,5.788,0,0,0,1.6.087,8.505,8.505,0,0,0,1.331-.242,8.409,8.409,0,0,0,1.556-.578,17.483,17.483,0,0,0,2.755-1.643c1.3-.926,2.52-2.012,3.747-3.085.586-.514,1.166-1.044,1.762-1.536l2.049-1.689c.079-.064.165-.118.246-.177q.351-.25.7-.5l1.067-.765c.07-.051.146-.091.219-.135l.75-.461c.42-.256.839-.51,1.264-.75a7.97,7.97,0,0,1,1.313-.538,1.853,1.853,0,0,1,.273-.009c.076,0,.152.008.227.017a3.515,3.515,0,0,1,.549.2,6.692,6.692,0,0,1,.884.71c.858.932,1.613,2.016,2.432,3.006.512.621,1.025,1.228,1.569,1.8.492.519,1.006,1,1.533,1.459a19.137,19.137,0,0,0,1.751,1.3,4.179,4.179,0,0,0,1.746.716,3.865,3.865,0,0,0,.809.034,5.977,5.977,0,0,0,1.038-.189,6.992,6.992,0,0,0,1.681-.693,11.67,11.67,0,0,0,1.767-1.2,25.148,25.148,0,0,0,2.23-2.156l1.284-1.333,1.02-1.011a12.828,12.828,0,0,1,2.336-1.875,5.613,5.613,0,0,1,1.265-.44,5.727,5.727,0,0,1,.63-.049,2.992,2.992,0,0,1,.558.049,8.069,8.069,0,0,1,1.934.7c.542.309,1.078.642,1.6,1,.326.224.645.467.968.7s.641.432.966.639c.623.4,1.255.769,1.9,1.106a15.044,15.044,0,0,0,2.082.852,24.743,24.743,0,0,0,4.478,1.077,12.644,12.644,0,0,0,2.3.126,15.542,15.542,0,0,0,2.265-.291,13.065,13.065,0,0,0,3.92-1.433c.8-.442,1.577-.95,2.356-1.461.931-.61,1.848-1.268,2.8-1.837a4.12,4.12,0,0,1,.577-.2,1.782,1.782,0,0,1,.345,0,4.124,4.124,0,0,1,.8.289,20.887,20.887,0,0,1,2.4,1.947,24.24,24.24,0,0,0,2.541,1.953,19.293,19.293,0,0,0,2.71,1.492,9.321,9.321,0,0,0,3.245.772,8.117,8.117,0,0,0,2.894-.387,10.7,10.7,0,0,0,2.336-1.113c.325-.195.649-.384.963-.6l.611-.426a10.483,10.483,0,0,1,.947-.572,16.853,16.853,0,0,1,4.814-1.54c.889-.147,1.784-.227,2.675-.336.773-.094,1.55-.141,2.325-.207,1.57-.134,3.149-.263,4.724-.256a1.315,1.315,0,0,0,1.106-1.435c0-.773-.5-1.449-1.106-1.436-1.2.026-2.39.145-3.583.259Q215.509,220.972,214.644,221.058Zm-29.119,1.451.092-.016h0Z" transform="translate(-67.428 -218.776)" fill="#e52441"/>
</svg>
