<svg xmlns="http://www.w3.org/2000/svg" width="267.807" height="17.58" viewBox="0 0 267.807 17.58">
  <path id="Trazado_2146" data-name="Trazado 2146" d="M324.459,645.989c-5.847-.342-11.7-.586-17.553-.88-1.93-.1-3.867-.1-5.8-.152l-12.571-.321c-2.334-.06-4.669-.134-7-.179q-1.014-.02-2.029-.018c-1.519,0-3.04.023-4.559.025q-10.371.012-20.74.024c-1.645,0-3.291.041-4.935.064q-6.112.078-12.223.159c-4.6.061-9.2.085-13.79.2l-22.312.553c-4.306.106-8.615.166-12.919.338q-11.125.442-22.249.88c-4.053.159-8.108.292-12.158.518q-11.5.639-23.007,1.283c-4.1.229-8.2.4-12.289.748q-11.452.974-22.906,1.951-2.475.21-4.951.422c-3.3.28-6.582.717-9.869,1.087l-.619.085a2.327,2.327,0,0,0-1.707,2.241,2.337,2.337,0,0,0,.681,1.646,2.232,2.232,0,0,0,1.645.681c3.967-.446,7.927-.921,11.9-1.258q5.528-.471,11.055-.938l12.065-1.023c1.619-.137,3.243-.319,4.866-.409q9.405-.522,18.812-1.035l11.726-.647c1.615-.089,3.23-.2,4.845-.265q9.323-.372,18.643-.714,5.649-.218,11.3-.432c1.265-.048,2.531-.11,3.8-.14q10.065-.234,20.129-.46l11.241-.258c1.335-.03,2.668-.075,4-.088l20.759-.213c4.318-.045,8.632-.086,12.949-.075l22.045.053c1.449,0,2.9.063,4.348.105l12.167.357q4.563.137,9.128.268c2.157.064,4.315.225,6.471.341q9.523.514,19.043,1.093c1.612.1,3.222.223,4.834.341,1.727.125,3.458.247,5.179.442.269.044.535.095.8.152a2.623,2.623,0,0,0,1.94-.253,2.519,2.519,0,0,0-.6-4.6,21.259,21.259,0,0,0-3.55-.568q-1.224-.125-2.448-.247c-1.57-.158-3.151-.238-4.724-.357C330.374,646.29,327.414,646.161,324.459,645.989Z" transform="matrix(1, -0.017, 0.017, 1, -89.507, -638.304)" fill="#09989A"/>
</svg>
