<svg xmlns="http://www.w3.org/2000/svg" width="276.835" height="17.717" viewBox="0 0 276.835 17.717">
  <path id="Trazado_2204" data-name="Trazado 2204" d="M332.766,645.987c-6.044-.341-12.1-.585-18.145-.879-2-.1-4-.1-5.994-.152l-13-.32c-2.413-.06-4.826-.134-7.239-.179q-1.048-.019-2.1-.018c-1.57,0-3.143.023-4.713.025q-10.721.012-21.44.024c-1.7,0-3.4.041-5.1.064q-6.319.078-12.635.159c-4.752.061-9.505.085-14.255.2l-23.065.552c-4.451.106-8.906.166-13.355.337q-11.5.442-23,.879c-4.19.159-8.382.292-12.568.517q-11.892.638-23.783,1.281c-4.236.229-8.477.4-12.7.747q-11.839.972-23.679,1.948-2.559.21-5.118.421c-3.407.28-6.8.716-10.2,1.085l-.64.085a2.406,2.406,0,0,0-1.061.6,2.267,2.267,0,0,0,0,3.284,2.349,2.349,0,0,0,1.7.68c4.1-.445,8.194-.919,12.307-1.256q5.714-.47,11.428-.937l12.472-1.021c1.674-.137,3.352-.319,5.03-.408q9.722-.521,19.447-1.033l12.122-.646c1.669-.089,3.339-.2,5.008-.265q9.637-.371,19.272-.713,5.84-.217,11.68-.431c1.308-.048,2.616-.11,3.926-.14q10.4-.234,20.808-.459l11.62-.258c1.38-.03,2.758-.075,4.136-.088l21.459-.213c4.464-.045,8.923-.086,13.386-.075l22.789.053c1.5,0,3,.063,4.495.1l12.578.356q4.717.136,9.436.268c2.23.064,4.461.225,6.689.341q9.845.514,19.686,1.091c1.666.1,3.331.223,5,.34,1.785.125,3.575.247,5.354.441.278.044.553.095.83.152a2.8,2.8,0,0,0,2.005-.253,2.485,2.485,0,0,0-.621-4.6,22.692,22.692,0,0,0-3.67-.567q-1.265-.124-2.531-.247c-1.623-.158-3.257-.238-4.883-.356C338.88,646.287,335.82,646.158,332.766,645.987Z" transform="matrix(1, -0.017, 0.017, 1, -89.507, -638.147)" fill="#e52441"/>
</svg>
