<svg xmlns="http://www.w3.org/2000/svg" width="374.5" height="66.698" viewBox="0 0 374.5 66.698">
  <g id="Grupo_77639" data-name="Grupo 77639" transform="matrix(1, 0.017, -0.017, 1, -2013.279, -347.206)">
    <path id="Trazado_2206" data-name="Trazado 2206" d="M476.1,523.007c1.521-.181,3.053-.458,4.578-.544,1.423-.081,2.847-.167,4.267-.248,7.791-.448,15.58-1.023,23.375-1.2,8.152-.185,16.307-.494,24.46-.525,8.321-.031,16.64-.085,24.959-.023q24.326.191,48.645.3c16.106.063,32.211.075,48.317-.046,7.994-.065,15.989-.363,23.98-.6,7.848-.233,15.687-.627,23.531-1.086,1.724-.1,3.445-.3,5.167-.452,1.7-.154,3.406-.277,5.106-.477,4.362-.517,8.719-1.065,13.078-1.678,7.586-1.071,15.149-2.5,22.746-3.387,7.959-.934,15.935-1.465,23.9-2.224a95.978,95.978,0,0,0,10.783-1.523,121.839,121.839,0,0,0,12.164-3.184c3.9-1.248,7.8-2.532,11.7-3.76,1.873-.592,3.756-1.128,5.647-1.549a63.45,63.45,0,0,0,6.377-1.674c1.017-.342,1.217-2.436,1.217-3.785a10.084,10.084,0,0,0-.235-2.232c-.15-.606-.463-1.575-.982-1.546-3.814.2-7.626.4-11.437.673q-5.769.416-11.549.531c-7.476.156-14.967-.242-22.436-.721,1.273-.267,2.546-.529,3.819-.8,4.572-.959,9.131-2.163,13.727-2.811,2.445-.346,4.9-.634,7.338-1.077a30.742,30.742,0,0,0,3.686-.859,39.021,39.021,0,0,0,3.9-1.528q.622-.1.942-.955a8.461,8.461,0,0,0,.62-2.93c1.308-.619,1.571-3.6,1.571-5.389a14.314,14.314,0,0,0-.34-3.23c-.227-.919-.66-2.222-1.419-2.234-3.97-.071-7.932-.484-11.9-.561-.466-.008-.932-.013-1.4-.013-3.415,0-6.824.231-10.235.515q-11.4.947-22.791,2.24c-3.528.392-7.053.857-10.585,1.186-4.32.4-8.63.711-12.953.971-7.233.433-14.478.6-21.715.807-8.3.238-16.59.575-24.883,1.177-7.68.559-15.353,1.3-23.027,2.013q-11.558,1.063-23.119,2.13c-7.9.736-15.8,1.282-23.706,1.828-4,.279-8,.363-12.006.538-3.788.167-7.579.211-11.369.3-7.459.169-14.918.273-22.378.392-15.048.236-30.09.615-45.137,1q-12.4.322-24.8.688c-4.216.123-8.434.381-12.647.569-3.6.16-7.205.538-10.807.823-3.834.3-7.668.64-11.5.982-2.279.2-4.561.415-6.843.619-.99.092-1.983.179-2.975.271-.9.081-1.807.186-2.707.292a13.794,13.794,0,0,0-1.91.386,10.7,10.7,0,0,0-2.079,1.023,4.33,4.33,0,0,0-.841,1.907,15.113,15.113,0,0,0,0,6.281l.37,1.15c.23.609.568.95,1.01,1.027a15.844,15.844,0,0,0,2.362.894c.44-.075.777-.415,1.006-1.021a5.022,5.022,0,0,0,.232-.59c.421-.019.844-.017,1.266-.017.4,0,.807,0,1.214-.019q1.368-.047,2.732-.1,3.52-.128,7.039-.256c2.543-.1,5.084-.165,7.626-.233-.263.035-.526.069-.788.1-6,.725-12,1.453-18,2.282q-1.457.253-2.218,2.251a18.054,18.054,0,0,0-1.361,5.706q-1.582-.025-3.165-.046c-.739-.01-.885,1.984-.885,2.751s.146,2.734.885,2.747c1.01.015,2.022.042,3.032.063a30.15,30.15,0,0,0,.683,5.085q.406,1.263.811,2.524.763,2,2.218,2.251C464.739,524.366,470.419,523.682,476.1,523.007Z" transform="translate(1568.567 -157.663)" fill="#fff"/>
    <path id="Trazado_2207" data-name="Trazado 2207" d="M24.667,53.344c1.521-.181,3.053-.458,4.578-.544,1.423-.081,2.847-.167,4.267-.248,7.791-.448,15.58-1.023,23.375-1.2,8.152-.185,16.307-.494,24.46-.525,8.321-.031,16.64-.085,24.959-.023q24.325.191,48.645.3c16.106.063,32.211.075,48.317-.046,7.994-.065,15.989-.363,23.98-.6,7.848-.233,15.687-.627,23.531-1.086,1.724-.1,3.445-.3,5.167-.452,1.7-.154,3.406-.277,5.106-.477,4.363-.517,8.719-1.065,13.078-1.678,7.586-1.071,15.149-2.5,22.746-3.387,7.959-.934,15.935-1.465,23.9-2.224a95.993,95.993,0,0,0,10.783-1.523,121.845,121.845,0,0,0,12.164-3.184c3.9-1.248,7.8-2.532,11.7-3.76,1.873-.592,3.756-1.128,5.647-1.549a63.444,63.444,0,0,0,6.377-1.674c1.017-.342,1.217-2.436,1.217-3.785a10.08,10.08,0,0,0-.235-2.232c-.15-.606-.463-1.575-.982-1.546-3.814.2-7.626.4-11.437.673q-5.769.416-11.549.531c-7.476.156-14.967-.242-22.436-.721,1.273-.267,2.546-.529,3.819-.8,4.572-.959,9.131-2.163,13.727-2.811,2.445-.346,4.9-.634,7.338-1.077a30.739,30.739,0,0,0,3.686-.859,39,39,0,0,0,3.9-1.528q.622-.1.942-.955a8.466,8.466,0,0,0,.62-2.93c1.308-.619,1.571-3.6,1.571-5.389a14.319,14.319,0,0,0-.339-3.23c-.227-.919-.66-2.222-1.419-2.234C351.9.5,347.942.09,343.973.013,343.507,0,343.041,0,342.575,0c-3.415,0-6.824.231-10.235.515q-11.4.947-22.791,2.24c-3.528.392-7.053.857-10.585,1.186-4.319.4-8.629.711-12.953.971-7.233.433-14.478.6-21.716.807-8.3.238-16.59.575-24.883,1.177-7.68.559-15.353,1.3-23.028,2.013q-11.558,1.063-23.119,2.13c-7.9.736-15.8,1.282-23.706,1.828-4,.279-8,.363-12.006.538-3.788.167-7.579.211-11.369.3-7.459.169-14.918.273-22.378.392-15.048.236-30.09.615-45.137,1q-12.4.322-24.8.688c-4.216.123-8.434.381-12.647.569-3.6.16-7.205.538-10.807.823-3.834.3-7.668.64-11.5.982-2.279.2-4.561.415-6.843.619-.99.092-1.983.179-2.975.271-.9.081-1.807.186-2.707.292a13.8,13.8,0,0,0-1.91.386A10.7,10.7,0,0,0,2.4,20.745a4.33,4.33,0,0,0-.841,1.907,15.115,15.115,0,0,0,0,6.281l.37,1.15c.229.609.567.95,1.01,1.027A15.839,15.839,0,0,0,5.3,32c.44-.075.777-.415,1.006-1.021a5.026,5.026,0,0,0,.232-.59c.421-.019.844-.017,1.266-.017.4,0,.808,0,1.214-.019q1.368-.047,2.733-.1,3.519-.128,7.039-.256c2.543-.1,5.084-.165,7.626-.233-.263.035-.526.069-.787.1-6,.725-12,1.453-18,2.282q-1.457.253-2.217,2.251A18.053,18.053,0,0,0,4.05,40.11q-1.582-.025-3.165-.046C.146,40.054,0,42.048,0,42.815s.146,2.734.885,2.747c1.01.015,2.022.042,3.032.063A30.146,30.146,0,0,0,4.6,50.71q.406,1.263.812,2.524.763,2,2.217,2.251C13.306,54.7,18.986,54.019,24.667,53.344Z" transform="translate(2393.671 372.185) rotate(180)" fill="#fff"/>
  </g>
</svg>
