<svg width="650" height="43" viewBox="0 0 650 43" fill="none" xmlns="http://www.w3.org/2000/svg">
<path d="M43.5852 32.0716C46.2635 32.0043 48.9646 31.8535 51.6479 31.8718C54.1514 31.8869 56.655 31.8989 59.1565 31.9151C72.8636 31.9974 86.5688 31.9675 100.275 32.2888C114.608 32.6266 128.95 32.855 143.28 33.3293C157.906 33.8139 172.527 34.2782 187.146 34.8458C215.643 35.9573 244.138 37.0431 272.63 38.1032C300.933 39.1503 329.239 40.1285 357.548 41.0378C371.599 41.4724 385.66 41.7026 399.711 41.9815C413.51 42.258 427.3 42.3912 441.098 42.4713C444.131 42.4869 447.162 42.417 450.192 42.3888C453.186 42.3571 456.188 42.3524 459.181 42.277C466.864 42.0874 474.538 41.8697 482.218 41.5904C495.583 41.1081 508.92 40.31 522.299 39.9893C536.315 39.6514 550.351 39.6715 564.375 39.4897C570.741 39.444 577.083 39.2149 583.373 38.8035C590.572 38.2951 597.717 37.6268 604.849 36.7298C611.743 35.8639 618.635 34.9659 625.536 34.1184C628.845 33.7095 632.172 33.3502 635.509 33.0937C639.287 32.7993 643.04 32.5041 646.769 32.0031C648.566 31.7631 648.983 29.9181 649.025 28.7236C649.057 28.0578 648.942 27.3887 648.681 26.7304C648.436 26.1883 647.917 25.3049 647.004 25.2996C640.287 25.2381 633.589 25.1827 626.883 25.1921C620.115 25.2011 613.344 25.1211 606.57 24.952C593.427 24.6302 580.273 23.8173 567.161 22.9312C569.406 22.773 571.653 22.6191 573.897 22.4609C581.963 21.89 590.013 21.1051 598.11 20.8138C602.418 20.6574 606.74 20.5539 611.039 20.3066C613.231 20.1972 615.403 20.019 617.545 19.7727C619.883 19.4659 622.186 19.094 624.444 18.6584C624.837 18.6256 625.202 18.5349 625.499 18.396C625.796 18.2572 626.013 18.0754 626.127 17.8703C626.82 17.073 627.221 16.2047 627.308 15.3117C629.627 14.8435 630.183 12.2203 630.239 10.6315C630.291 9.66836 630.126 8.69996 629.747 7.74763C629.381 6.91863 628.657 5.73785 627.323 5.68045C620.349 5.37318 613.398 4.76583 606.417 4.45082C605.6 4.41473 604.779 4.38276 603.962 4.35413C597.959 4.14382 591.961 4.13853 585.957 4.17997C572.582 4.27184 559.207 4.46615 545.832 4.76288C539.62 4.89303 533.409 5.08831 527.191 5.16172C519.587 5.2527 512.003 5.26012 504.396 5.22509C491.67 5.16439 478.931 4.86639 466.206 4.60303C451.613 4.30514 437.031 4.09192 422.439 4.11412C408.924 4.13672 395.417 4.32282 381.911 4.48122C368.346 4.63474 354.781 4.78965 341.215 4.94596C327.314 5.11184 313.404 5.10887 299.494 5.10592C292.459 5.10693 285.415 4.9327 278.378 4.843C271.715 4.75785 265.052 4.56281 258.389 4.40512C245.275 4.09503 232.163 3.72849 219.048 3.37464C192.59 2.66105 166.145 2.06636 139.688 1.48191C125.153 1.1633 110.621 0.857552 96.0903 0.564697C88.6764 0.411639 81.2561 0.383174 73.8461 0.289994C67.5087 0.20986 61.1665 0.322658 54.8272 0.354478C48.0807 0.388034 41.3313 0.449246 34.5836 0.516899C30.5715 0.557705 26.5566 0.600175 22.5391 0.644347C20.7973 0.664403 19.0496 0.681063 17.3018 0.70091C15.7201 0.718044 14.12 0.753746 12.5355 0.793188C11.4016 0.827393 10.2765 0.902365 9.16781 1.01765C7.88677 1.2061 6.65164 1.46712 5.48232 1.79646C4.71421 2.25643 4.18491 2.82026 3.94458 3.43465C3.10738 5.23998 3.04072 7.14277 3.74952 9.00227L4.36324 10.0448C4.47185 10.2731 4.6913 10.484 4.99842 10.6554C5.30554 10.8267 5.68888 10.952 6.10785 11.0181C7.43938 11.3854 8.81582 11.699 10.2254 11.9561C10.6475 11.9213 11.0389 11.8246 11.3575 11.6762C11.6761 11.5277 11.9098 11.3333 12.0336 11.1137C12.1964 10.9498 12.3384 10.7798 12.4586 10.6047C13.1994 10.6136 13.9415 10.6417 14.6857 10.6678C15.3944 10.6926 16.105 10.7175 16.8201 10.7255C18.4239 10.754 20.0259 10.7806 21.6258 10.8053C25.7527 10.8738 29.8789 10.9426 34.0045 11.0118C38.4784 11.0832 42.9456 11.1788 47.4147 11.2746C46.9517 11.2893 46.4888 11.303 46.0298 11.3168C35.4547 11.5864 24.8872 11.8648 14.3186 12.2329C13.3933 12.3137 12.5368 12.5289 11.8389 12.8559C11.141 13.1828 10.6274 13.6095 10.3521 14.0911C8.96213 15.6429 8.09271 17.3261 7.78255 19.0655C5.9302 18.9857 4.07644 18.9072 2.22136 18.8302C0.922844 18.7751 0.604309 20.5338 0.580491 21.2137C0.556673 21.8935 0.752198 23.6458 2.05064 23.703C3.82674 23.778 5.60245 23.8648 7.37836 23.9451C7.47099 25.4693 7.81984 26.992 8.4206 28.4946C8.87085 29.2572 9.32042 30.0197 9.76935 30.7822C10.0103 31.2819 10.4927 31.7435 11.166 32.1185C11.8393 32.4935 12.6787 32.7681 13.596 32.9135C23.5766 32.5761 33.5799 32.3227 43.5852 32.0716Z" fill="#C0DD52"/>
</svg>
