<svg width="650" height="43" viewBox="0 0 650 43" fill="none" xmlns="http://www.w3.org/2000/svg">
<path d="M606.226 11.1064C603.548 11.1737 600.847 11.3244 598.163 11.3062C595.66 11.291 593.156 11.2791 590.655 11.2629C576.948 11.1806 563.242 11.2104 549.536 10.8892C535.203 10.5513 520.861 10.323 506.531 9.84872C491.905 9.36404 477.284 8.89982 462.665 8.33216C434.168 7.22067 405.674 6.13487 377.181 5.07477C348.878 4.02769 320.573 3.04952 292.265 2.14026C278.214 1.70561 264.153 1.47541 250.103 1.19655C236.304 0.920064 222.513 0.786852 208.715 0.706715C205.682 0.691133 202.652 0.761003 199.621 0.789246C196.628 0.820936 193.627 0.82571 190.632 0.901091C182.95 1.09068 175.276 1.30832 167.596 1.58762C154.23 2.06996 140.894 2.86802 127.514 3.18877C113.498 3.52667 99.4625 3.5065 85.4378 3.68834C79.0719 3.73406 72.7306 3.96311 66.4407 4.37452C59.2408 4.88295 52.0965 5.55123 44.9639 6.44824C38.0697 7.31412 31.1783 8.21211 24.2768 9.0596C20.9679 9.46857 17.641 9.82784 14.3038 10.0843C10.5265 10.3787 6.77298 10.674 3.0438 11.1749C1.24676 11.415 0.830341 13.2599 0.788492 14.4545C0.75631 15.1202 0.871563 15.7894 1.13175 16.4477C1.37757 16.9897 1.89603 17.8731 2.80894 17.8784C9.52643 17.9399 16.2243 17.9953 22.9304 17.9859C29.6978 17.9769 36.4687 18.057 43.243 18.226C56.3864 18.5478 69.5383 19.3607 82.652 20.2469C80.4073 20.4051 78.1606 20.5589 75.9159 20.7171C67.8521 21.2881 59.8006 22.0729 51.7031 22.3643C47.3951 22.5206 43.0731 22.6242 38.7738 22.8715C36.5823 22.9808 34.4103 23.159 32.2686 23.4053C29.93 23.7121 27.6273 24.084 25.3696 24.5196C24.9755 24.5522 24.6102 24.6429 24.3132 24.7817C24.0162 24.9206 23.7986 25.1024 23.6839 25.3077C22.9912 26.1051 22.5906 26.9733 22.5033 27.8663C20.1864 28.3346 19.6281 30.9577 19.5724 32.5464C19.5202 33.5096 19.6854 34.478 20.0642 35.4304C20.4305 36.2593 21.156 37.4402 22.49 37.4976C29.4637 37.8049 36.415 38.4122 43.3963 38.7272C44.2135 38.7566 45.032 38.7856 45.8519 38.8143C51.8546 39.0246 57.8527 39.0299 63.8564 38.9885C77.2316 38.8966 90.6066 38.7023 103.981 38.4056C110.193 38.2754 116.404 38.0801 122.622 38.0067C130.227 37.9158 137.81 37.9083 145.418 37.9434C158.144 38.0041 170.883 38.3021 183.607 38.5654C198.2 38.8633 212.782 39.0776 227.374 39.0543C240.889 39.0318 254.396 38.8456 267.903 38.6872C281.467 38.5337 295.032 38.3788 308.598 38.2225C322.5 38.0566 336.408 38.0595 350.319 38.0625C357.355 38.0615 364.398 38.2357 371.435 38.3254C378.098 38.4106 384.762 38.6056 391.425 38.7633C404.539 39.0734 417.651 39.44 430.765 39.7938C457.224 40.5074 483.668 41.1021 510.125 41.6866C524.659 42.0051 539.191 42.3109 553.723 42.6038C561.137 42.7568 568.557 42.7853 575.967 42.8785C582.305 42.9586 588.647 42.8458 594.986 42.814C601.733 42.7804 608.482 42.7192 615.23 42.6516C619.242 42.6108 623.257 42.5683 627.274 42.5241C629.016 42.504 630.764 42.4874 632.512 42.4675C634.093 42.4504 635.694 42.4147 637.278 42.3753C638.412 42.3411 639.537 42.2661 640.646 42.1508C641.927 41.9623 643.162 41.7013 644.331 41.372C645.099 40.9121 645.629 40.3482 645.869 39.7338C646.706 37.9285 646.773 36.0257 646.064 34.1662L645.448 33.1236C645.34 32.8953 645.12 32.6844 644.813 32.513C644.506 32.3417 644.123 32.2164 643.704 32.1503C642.372 31.7829 640.996 31.4693 639.586 31.2123C639.164 31.247 638.773 31.3438 638.454 31.4922C638.136 31.6407 637.902 31.8351 637.778 32.0547C637.615 32.2185 637.472 32.3885 637.351 32.5636C636.61 32.5547 635.868 32.5266 635.124 32.5005C634.415 32.4757 633.705 32.4508 632.989 32.4428C631.386 32.4144 629.784 32.3878 628.184 32.363C624.058 32.2946 619.932 32.2257 615.805 32.1566C611.333 32.0852 606.864 31.9895 602.395 31.8937C602.858 31.879 603.321 31.8653 603.78 31.8515C614.355 31.5819 624.922 31.3035 635.491 30.9355C636.416 30.8546 637.273 30.6394 637.971 30.3125C638.669 29.9855 639.182 29.5588 639.457 29.0772C640.847 27.5254 641.717 25.8422 642.027 24.1028C643.891 24.1845 645.752 24.2639 647.61 24.3411C648.908 24.3961 649.227 22.6374 649.251 21.9575C649.275 21.2777 649.079 19.5254 647.781 19.4682C646.004 19.3932 644.229 19.3064 642.453 19.2261C642.36 17.702 642.011 16.1792 641.411 14.6767C640.96 13.9134 640.511 13.1508 640.062 12.3889C639.821 11.8893 639.339 11.4277 638.665 11.0527C637.992 10.6777 637.153 10.4031 636.235 10.2577C626.235 10.6051 616.239 10.8576 606.226 11.1064Z" fill="#C0DD52"/>
</svg>
