<svg xmlns="http://www.w3.org/2000/svg" width="45" height="38" viewBox="0 0 45 38">
  <g id="Grupo_77111" data-name="Grupo 77111" transform="translate(-283 -92.068)">
    <rect id="Rectángulo_2823" data-name="Rectángulo 2823" width="45" height="38" rx="5" transform="translate(283 92.068)" fill="#09989a"/>
    <path id="Trazado_55" data-name="Trazado 55" d="M27.695,13.509a2.654,2.654,0,0,0,.534-1.144h4.729a.763.763,0,0,0,0-1.525H28.229a3.272,3.272,0,0,0-1.22-1.83,3.157,3.157,0,0,0-4.424.686,3.986,3.986,0,0,0-.534,1.144H6.263a.763.763,0,0,0,0,1.525H22.051a3.272,3.272,0,0,0,1.22,1.83A3.1,3.1,0,0,0,27.695,13.509Zm-3.508-.534a1.483,1.483,0,0,1-.686-1.068,1.43,1.43,0,0,1,.305-1.22,1.62,1.62,0,0,1,2.288-.381,1.483,1.483,0,0,1,.686,1.068V11.6a1.533,1.533,0,0,1-.305.992A1.62,1.62,0,0,1,24.186,12.975ZM16.407,22.2a2.654,2.654,0,0,0,.534-1.144H32.957a.763.763,0,0,0,0-1.525H16.941a3.272,3.272,0,0,0-1.22-1.83,3.157,3.157,0,0,0-4.424.686,3.986,3.986,0,0,0-.534,1.144h-4.5a.763.763,0,1,0,0,1.525h4.5A3.174,3.174,0,0,0,16.407,22.2Zm-3.508-.61a1.483,1.483,0,0,1-.686-1.068,1.43,1.43,0,0,1,.305-1.22,1.62,1.62,0,0,1,2.288-.381,1.483,1.483,0,0,1,.686,1.068v.229h0a1.533,1.533,0,0,1-.305.992A1.62,1.62,0,0,1,12.9,21.593ZM24.72,30.822a2.654,2.654,0,0,0,.534-1.144h7.7a.763.763,0,0,0,0-1.525h-7.7a3.251,3.251,0,0,0-3.585-2.441,3.136,3.136,0,0,0-2.059,1.3,5.258,5.258,0,0,0-.534,1.144H6.263a.763.763,0,1,0,0,1.525h12.89a3.272,3.272,0,0,0,1.22,1.83A3.145,3.145,0,0,0,24.72,30.822Zm-3.508-.534a1.808,1.808,0,0,1-.686-1.144v-.305a1.355,1.355,0,0,1,.305-.763A1.483,1.483,0,0,1,21.9,27.39a1.736,1.736,0,0,1,1.22.305,1.483,1.483,0,0,1,.686,1.068v.229h0a1.533,1.533,0,0,1-.305.992A1.665,1.665,0,0,1,21.212,30.288Z" transform="translate(285.89 90.471)" fill="#fff"/>
  </g>
</svg>
