<svg width="33" height="24" viewBox="0 0 33 24" fill="none" xmlns="http://www.w3.org/2000/svg">
<path d="M22.0258 5.43818L28.1068 5.58757L29.2194 5.95965L30.072 8.30346L31.2211 12.1356C31.2211 12.1356 31.2576 19.7998 31.1466 19.7618C31.0357 19.7237 29.1814 19.7618 29.1814 19.7618L28.8471 20.9146L27.7346 22.2535C27.7346 22.2535 26.5855 22.775 26.4731 22.775C26.3608 22.775 24.9898 22.6637 24.9898 22.6637L24.0261 22.0309L23.321 21.1373L22.8757 19.9464L10.7136 19.797L10.4538 21.2486L8.97039 22.4396L7.11617 22.5509L5.92918 22.0675L4.96555 21.026L4.78012 19.8731L1.70239 19.7984L1.81337 17.6773H5.44736L6.82258 16.9669L9.00691 17.1192L11.0831 17.8633H21.8741L22.023 5.43677L22.0258 5.43818Z" fill="white"/>
<path d="M2.55645 1.37354L1.81055 2.20507L1.81757 17.6787H5.45157L6.82538 16.967L8.52509 16.8838L10.3077 18.0071L21.8783 17.8647L21.9542 5.69753V2.37138L21.4569 1.58071L20.5452 1.45669L2.55645 1.37354Z" fill="#E52441"/>
<path d="M31.6115 11.4985L29.7896 6.10197C29.6885 5.79895 29.496 5.5354 29.2376 5.34936C28.9791 5.16191 28.6701 5.06185 28.3512 5.06185H22.5019V2.52214C22.5019 2.11764 22.3418 1.73006 22.0581 1.44537C21.7729 1.15926 21.3866 1 20.9849 1H2.7685C2.36534 1 1.97905 1.16067 1.69529 1.44537C1.41154 1.73006 1.25 2.11764 1.25 2.52214V7.338V19.7829C1.25 19.9168 1.30338 20.0464 1.3989 20.1423C1.49442 20.2381 1.62225 20.2902 1.7571 20.2902H4.32773C4.49911 21.4192 5.20147 22.3973 6.21567 22.9187C7.22847 23.4388 8.43091 23.4388 9.44371 22.9187C10.4579 22.3987 11.1603 21.4206 11.3316 20.2902V19.2755C11.2825 18.9231 11.1771 18.5807 11.0226 18.2607H22.8531C22.6986 18.5807 22.5947 18.9231 22.5441 19.2755H10.9791V20.2902H22.5441C22.7155 21.4192 23.4178 22.3973 24.432 22.9187C25.4448 23.4388 26.6473 23.4388 27.6601 22.9187C28.6743 22.3987 29.3766 21.4206 29.548 20.2902H31.1058C31.2407 20.2902 31.3685 20.2367 31.464 20.1423C31.5596 20.0464 31.6115 19.9182 31.6115 19.7829V11.6592C31.6185 11.6056 31.6185 11.5507 31.6115 11.4971V11.4985ZM4.32633 19.2755H2.2614V18.2607H4.63537C4.48085 18.5807 4.3769 18.9231 4.32633 19.2755ZM9.57435 21.5347C9.11079 21.9998 8.48288 22.2606 7.82828 22.2606C7.17369 22.2606 6.54578 21.9998 6.08222 21.5347C5.61867 21.0696 5.35879 20.4396 5.35879 19.7829C5.35879 19.1261 5.61867 18.4961 6.08222 18.031C6.54578 17.5659 7.17369 17.3052 7.82828 17.3052C8.48288 17.3052 9.11079 17.5659 9.57435 18.031C10.0379 18.4961 10.2978 19.1261 10.2978 19.7829C10.2978 20.4396 10.0379 21.0696 9.57435 21.5347ZM21.4905 17.2446H10.302C9.64037 16.5962 8.75259 16.234 7.82688 16.234C6.90117 16.234 6.01339 16.5962 5.35177 17.2446H2.2628V6.58398V2.52214C2.2628 2.24167 2.48896 2.01476 2.7685 2.01476H20.9849C21.1197 2.01476 21.2475 2.06831 21.3431 2.16274C21.4386 2.25858 21.4905 2.38683 21.4905 2.52214V17.246V17.2446ZM27.8427 21.5869C27.3665 22.0647 26.7189 22.3339 26.0446 22.3339C25.3704 22.3339 24.7228 22.0647 24.2466 21.5869C23.769 21.1091 23.5021 20.4594 23.5021 19.7829C23.5021 19.1064 23.7704 18.4566 24.2466 17.9789C24.7228 17.5011 25.3704 17.2319 26.0446 17.2319C26.7189 17.2319 27.3665 17.5011 27.8427 17.9789C28.3203 18.4566 28.5872 19.1064 28.5872 19.7829C28.5872 20.4594 28.3189 21.1091 27.8427 21.5869ZM30.5987 19.2741H29.5466C29.4974 18.9217 29.3921 18.5793 29.2376 18.2593H30.5987V19.2741ZM30.5987 17.2432H28.5197C27.8581 16.5948 26.9703 16.2326 26.0446 16.2326C25.1189 16.2326 24.2311 16.5948 23.5695 17.2432H22.5019V6.07519H28.3512C28.5689 6.07519 28.7628 6.21331 28.8316 6.42049L30.5973 11.7409V17.2446L30.5987 17.2432Z" fill="#333334"/>
<path d="M25.0332 13.1841H24.0218C23.7423 13.1841 23.5161 13.411 23.5161 13.6915C23.5161 13.9719 23.7423 14.1988 24.0218 14.1988H25.0332C25.3127 14.1988 25.5389 13.9719 25.5389 13.6915C25.5389 13.411 25.3127 13.1841 25.0332 13.1841Z" fill="#333334"/>
<path d="M27.5982 7.09145H24.0203C23.7408 7.09145 23.5146 7.31836 23.5146 7.59883V11.6607C23.5146 11.796 23.568 11.9242 23.6635 12.0201C23.7591 12.1159 23.8869 12.1681 24.0218 12.1681H28.9706C29.1335 12.1681 29.2852 12.0877 29.3807 11.9552C29.4763 11.8228 29.503 11.6536 29.451 11.4986L28.1053 7.43675C28.0322 7.22111 27.8257 7.08018 27.5996 7.09145H27.5982ZM24.526 11.1533V8.10762H27.2582L28.2696 11.1533H24.5246H24.526Z" fill="#333334"/>
<path d="M12.173 3.3227C12.5859 3.29029 14.7042 3.38753 15.7845 4.67148C16.345 5.33812 16.5346 6.23449 16.3478 7.33522C15.9839 8.91514 14.2421 9.86929 14.2421 9.86929C14.2421 9.86929 15.5049 10.9292 15.2844 12.2145C15.1313 13.1038 14.7042 13.8142 13.867 14.4399C13.086 15.0234 12.0044 15.3701 10.9747 15.3701C10.3075 15.3701 9.36492 15.2207 8.66538 14.5118C7.35899 13.187 7.03871 11.5253 7.71298 9.57191C7.71298 9.57191 8.43219 7.91589 8.83254 7.41837C8.9407 7.28307 9.09662 7.19287 9.268 7.19287C9.28766 7.19287 9.30874 7.19287 9.32981 7.1971L9.38178 7.20274C9.56018 7.22388 9.72875 7.32254 9.81303 7.4818C9.91276 7.66784 9.89731 7.88488 9.7751 8.05401C9.00251 9.12514 8.55159 10.1653 8.435 11.1476C8.33948 11.9552 8.58812 12.7599 9.11629 13.3575C9.63744 13.9466 10.3763 14.2708 11.1967 14.2708C11.7726 14.2708 12.3738 14.1158 12.9877 13.8085C13.7055 13.4505 14.1283 12.922 14.2477 12.2399C14.2828 11.4534 14.0187 11.0053 13.7898 10.7657C13.5383 10.5021 13.2771 10.426 13.2672 10.4232L13.2349 10.4091L13.2012 10.4288C12.4876 10.7769 11.8962 10.9757 11.4411 11.0194C11.3863 11.025 11.3343 11.0264 11.2824 11.0264C10.8399 11.0264 10.4789 10.8418 10.2653 10.5049C10.0139 10.1047 10.0209 9.55782 10.2836 9.11105C10.5154 8.71783 10.9185 8.48246 11.361 8.48246C11.3751 8.48246 11.3891 8.48246 11.4032 8.48246C11.6546 8.48387 12.3373 8.55152 13.2883 9.15333L13.3262 9.17306L13.3642 9.1646C13.3796 9.16037 14.9023 8.73192 15.2212 7.10972C15.2254 7.05334 15.2858 5.9808 14.5568 5.20141C14.0777 4.6884 13.3726 4.42766 12.4609 4.42766C12.3499 4.42766 12.2348 4.43189 12.1168 4.43894C9.88326 4.59397 8.52069 5.86382 8.17653 8.1132C8.17653 8.1132 8.11613 8.52615 8.13018 8.85595C8.14423 9.18433 7.90683 9.48453 7.57953 9.50144C7.49806 9.50567 7.41377 9.49158 7.3309 9.4493C6.91791 9.2393 6.84486 8.67132 6.84346 8.66568C6.84346 8.66568 6.40238 3.77652 12.1687 3.3227M12.2095 9.75232C12.2095 9.75232 11.9356 9.47749 11.3638 9.43802C11.1545 9.43802 11.0702 9.53527 11.0365 9.61842C10.9719 9.77487 11.0028 9.87493 11.0407 9.93272C11.0815 9.99473 11.1714 10.068 11.3652 10.068C11.8737 10.068 12.2095 9.75372 12.2095 9.75372" fill="white"/>
</svg>
