<svg width="17" height="16" viewBox="0 0 17 16" fill="none" xmlns="http://www.w3.org/2000/svg">
<path d="M1.25 3.03821H15.25" stroke="#333334" stroke-width="1.5" stroke-linecap="round"/>
<path d="M4.25 5.03821C5.35457 5.03821 6.25 4.14278 6.25 3.03821C6.25 1.93364 5.35457 1.03821 4.25 1.03821C3.14543 1.03821 2.25 1.93364 2.25 3.03821C2.25 4.14278 3.14543 5.03821 4.25 5.03821Z" fill="#333334"/>
<path d="M1.25 8.03821H15.25" stroke="#333334" stroke-width="1.5" stroke-linecap="round"/>
<path d="M14.1165 10.0382C15.221 10.0382 16.1165 9.14278 16.1165 8.03821C16.1165 6.93364 15.221 6.03821 14.1165 6.03821C13.0119 6.03821 12.1165 6.93364 12.1165 8.03821C12.1165 9.14278 13.0119 10.0382 14.1165 10.0382Z" fill="#333334"/>
<path d="M1.25 13.0383H15.25" stroke="#333334" stroke-width="1.5" stroke-linecap="round"/>
<path d="M4.25 15.0382C5.35457 15.0382 6.25 14.1428 6.25 13.0382C6.25 11.9336 5.35457 11.0382 4.25 11.0382C3.14543 11.0382 2.25 11.9336 2.25 13.0382C2.25 14.1428 3.14543 15.0382 4.25 15.0382Z" fill="#333334"/>
</svg>
