<svg xmlns="http://www.w3.org/2000/svg" width="357.739" height="29.201" viewBox="0 0 357.739 29.201">
  <g id="Grupo_78590" data-name="Grupo 78590" transform="translate(-61.87 -176.426)">
    <path id="Trazado_2220" data-name="Trazado 2220" d="M69.636,188.9c2.835.028,5.67-.137,8.5-.224,1.153-.037,2.306-.1,3.458-.156l15.237-.75q9.109-.448,18.219-.953l26.022-1.438c1.988-.11,3.978-.185,5.966-.276q7.583-.357,15.161-.706l15.164-.7c1.977-.092,3.958-.211,5.936-.275q12.095-.38,24.194-.754,7.437-.23,14.876-.464c1.94-.061,3.886-.152,5.827-.18q11.693-.166,23.386-.349,11.539-.168,23.079-.342c2.031-.029,4.064-.016,6.092-.024q7.535-.026,15.068-.058,11.713-.044,23.427-.088c2.554-.012,5.11.017,7.662.025q8.019.028,16.041.055l1.327.007q-18.053.242-36.111.5l-15.078.221c-2.168.032-4.339.04-6.507.1q-10.909.281-21.815.586l-25.215.673c-1.412.038-2.826.118-4.235.184l-13.428.613q-13.617.62-27.237,1.243c-1.344.062-2.686.156-4.028.247q-6.65.454-13.3.91-11.915.814-23.828,1.63c-2.189.151-4.378.363-6.564.547l-15.258,1.272c-6.464.539-12.932,1.06-19.393,1.619q-13.495,1.163-26.985,2.333-3.236.281-6.472.559c-3.867.335-7.722.819-11.581,1.24a.748.748,0,1,0,0,1.5q2.114.093,4.231.181a2.713,2.713,0,0,0-.276,1.167,2.768,2.768,0,0,0,2.767,2.741c11.029-.681,22.054-1.421,33.093-1.942l28.749-1.355,31.785-1.5,10.006-.473c.963-.044,1.927-.106,2.89-.129q25.6-.675,51.2-1.331l27.363-.71q4.946-.129,9.886-.211,26.186-.4,52.373-.811,11.219-.176,22.439-.357c6.386-.1,12.774-.145,19.157-.382l15.824-.593c2.632-.1,5.27-.161,7.9-.325q8.981-.561,17.961-1.148l-.013.021a2.453,2.453,0,0,0,.893,3.377,2.4,2.4,0,0,0,1.92.248q1.958-.769,3.9-1.575l-.081.034.288-.12.333-.139-.121.05,2.071-.865c.723-.3,1.445-.6,2.164-.912.784-.338,1.533-.75,2.288-1.149a2.738,2.738,0,0,0,1-3.765,2.673,2.673,0,0,0-1.66-1.265c-.669-.115-1.336-.2-2.008-.288a3.61,3.61,0,0,0-.451-.026c-.455,0-.928.063-1.361.094-1.017.071-2.027.221-3.044.294l-2.487.177q-3.35.242-6.7.481c-.576.042-1.155.075-1.731.114a2.091,2.091,0,0,0,.448-.812,2.208,2.208,0,0,0,.176-.762c.024-.187.051-.376.076-.563a2.124,2.124,0,0,0-.124-.7c.059-.026.117-.05.175-.077a2.8,2.8,0,0,0,1-1,2.748,2.748,0,0,0,0-2.8c-.144-.188-.291-.375-.437-.564a2.822,2.822,0,0,0-1.237-.714,7.466,7.466,0,0,0-2.675-.4c-.747,0-1.5.053-2.235.061q-1.61.014-3.22.032c-1.519.016-3.038.037-4.556.045q-6.018.032-12.038.061c-3.775.021-7.549.017-11.323.016q-5.146-.006-10.291.008c-13.677.059-27.351.081-41.027.219q-15.383.151-30.764.306-6.876.071-13.752.213-15.413.321-30.826.646l-8.791.185c-1.7.037-3.4.124-5.1.188q-15.231.572-30.466,1.144l-9.3.351c-1.739.063-3.476.178-5.214.269q-15.129.806-30.262,1.61-7.815.416-15.617.914-13.367.834-26.734,1.67c-7.721.479-15.445.9-23.167,1.343l-3.671.211c-1.976.115-3.958.193-5.936.28-1.755.078-3.519.127-5.279.081a1.172,1.172,0,0,0-1.129-.78c-1.135.09-2.268.211-3.4.333a1.262,1.262,0,0,0-1.184.89,1.226,1.226,0,0,0,.859,1.5c.492.116.981.238,1.476.35a11.28,11.28,0,0,0,1.487.182C67.03,188.863,68.335,188.889,69.636,188.9Zm312.031-4.239,4.972,0a2.66,2.66,0,0,0,.669.963c-.641.044-1.283.086-1.924.11l-3.624.133-15.824.589c-2.415.088-4.83.221-7.245.259q-5.658.085-11.32.177-12.933.2-25.869.405-25.108.4-50.217.787c-11.988.19-23.971.56-35.953.872q-27.084.715-54.171,1.424c-3.62.1-7.241.324-10.857.5q-15.373.731-30.746,1.46l-30.185,1.431-2.795.133q4.068-.325,8.137-.635,14.205-1.074,28.41-2.151l9.922-.75c1.705-.128,3.415-.21,5.122-.314l29.544-1.772c1.924-.118,3.851-.271,5.778-.345l8.323-.32,30.461-1.17,6.7-.259c.588-.021,1.177-.024,1.765-.036l4.707-.094,30.524-.617c4.688-.1,9.375-.2,14.064-.243,15.129-.12,30.257-.276,45.386-.343C350.838,184.78,366.253,184.674,381.667,184.662Z" transform="translate(0 0)" fill="#e52441"/>
    <circle id="Elipse_36" data-name="Elipse 36" cx="0.568" cy="0.568" r="0.568" transform="translate(82.16 204.491)" fill="#e52441"/>
  </g>
</svg>
