<svg xmlns="http://www.w3.org/2000/svg" width="286.367" height="27.022" viewBox="0 0 286.367 27.022">
  <path id="Trazado_2390" data-name="Trazado 2390" d="M350.585,292.22a9.866,9.866,0,0,1-.935-.493,12.618,12.618,0,0,1-1.407-1.375c-.588-.747-1.113-1.521-1.624-2.319-.661-1.035-1.282-2.082-2.018-3.072-.287-.384-.564-.773-.887-1.133a5.667,5.667,0,0,0-1.388-1.111,4.521,4.521,0,0,0-2.022-.45,6.094,6.094,0,0,0-1.018.158,2.6,2.6,0,0,0-1.121.61,6.124,6.124,0,0,0-1.557,2.486c-.223.512-.43,1.029-.645,1.543-.337.812-.695,1.618-1.053,2.422s-.777,1.586-1.191,2.369a12.151,12.151,0,0,1-1.2,1.8,8.249,8.249,0,0,1-.784.771l-.088.048c-.162.047-.322.086-.487.12-.041,0-.081,0-.123,0s-.077-.019-.116-.03c-.243-.123-.472-.253-.7-.4-.193-.17-.37-.343-.542-.527a10.43,10.43,0,0,1-.705-1.1c-.433-1.069-.765-2.182-1.133-3.27a23.967,23.967,0,0,0-1.83-4.425,4.487,4.487,0,0,0-1.875-1.953,3.2,3.2,0,0,0-2.17-.218c-.3.116-.6.233-.89.355-.249.175-.5.354-.745.534a3.978,3.978,0,0,0-.93,1.577c-.1.265-.154.541-.271.8l-.361.8c-.5.971-.993,1.936-1.536,2.884-.31.544-.622,1.09-.933,1.633-.378.662-.8,1.308-1.21,1.95a18.869,18.869,0,0,1-1.306,1.753,12.6,12.6,0,0,1-1.632,1.65c-.226.134-.453.255-.689.368-.195.06-.387.111-.584.153h-.028c-.085-.043-.168-.09-.25-.139l-.027-.025a13.186,13.186,0,0,1-1.05-1.914c-.766-1.739-1.465-3.5-2.211-5.251-.354-.832-.768-1.636-1.179-2.445a8.434,8.434,0,0,0-1.408-2.117,6.425,6.425,0,0,0-1.012-.851,3.538,3.538,0,0,0-1.214-.606,3.462,3.462,0,0,0-1.525-.066,3.775,3.775,0,0,0-1.514.747,8.18,8.18,0,0,0-1.98,2.967c-.33.637-.677,1.264-1.024,1.892-.321.578-.675,1.14-1.019,1.707a30.5,30.5,0,0,1-2.309,3.346c-.317.376-.641.745-.98,1.1a9.2,9.2,0,0,1-1.138.989,11.631,11.631,0,0,1-1.481.867c-.182.055-.362.1-.547.14-.226.005-.446,0-.669-.015-.127-.026-.254-.058-.379-.1l-.025-.013a6.272,6.272,0,0,1-.456-.452c-.189-.247-.375-.5-.553-.752a11.676,11.676,0,0,1-.838-1.565c-.174-.356-.34-.711-.505-1.071-.427-.935-.85-1.873-1.281-2.807-.275-.612-.549-1.222-.837-1.827a20.576,20.576,0,0,0-1.413-2.4,8.967,8.967,0,0,0-1.515-1.74,8.651,8.651,0,0,0-1.068-.75,5.783,5.783,0,0,0-1.222-.506l-.919-.116a3.313,3.313,0,0,0-1.411.345,8.346,8.346,0,0,0-1.03.681l-.218.226a5.5,5.5,0,0,0-.525.673c-.369.526-.722,1.067-1.054,1.612-.626,1.026-1.241,2.061-1.919,3.059l-1.3,1.914q-.69,1.017-1.4,2.018c-.464.654-.976,1.277-1.488,1.9-.344.407-.7.8-1.068,1.188a8.968,8.968,0,0,1-1.071.923,12.536,12.536,0,0,1-1.718.977,8.257,8.257,0,0,1-.857.225,8.957,8.957,0,0,1-1.182-.006,7.52,7.52,0,0,1-.747-.2c-.241-.126-.468-.26-.691-.406a11.55,11.55,0,0,1-1.017-.929c-.45-.606-.826-1.247-1.216-1.891-.474-.79-.877-1.614-1.29-2.432s-.84-1.621-1.258-2.435a14.184,14.184,0,0,0-1.786-2.654,11.836,11.836,0,0,0-.931-.993,9.214,9.214,0,0,0-1.106-.815,5.561,5.561,0,0,0-1.253-.618,2.915,2.915,0,0,0-.824-.238,4.952,4.952,0,0,0-.886-.077c-.127.015-.255.03-.384.047a3.215,3.215,0,0,0-.891.166,3.077,3.077,0,0,0-1.187.622,10.152,10.152,0,0,0-1.723,2.474c-.725,1.234-1.533,2.425-2.314,3.626-.47.72-.971,1.424-1.454,2.135-.731,1.071-1.481,2.132-2.291,3.151a17.875,17.875,0,0,1-2.5,2.486,8.4,8.4,0,0,1-.8.43,6.256,6.256,0,0,1-.668.168c-.061,0-.121,0-.182,0s-.124-.028-.185-.045l-.031-.019c-.19-.172-.369-.349-.544-.537a39.408,39.408,0,0,1-2.958-4.913c-.656-1.2-1.281-2.424-2.009-3.592-.44-.7-.86-1.413-1.369-2.078a9.052,9.052,0,0,0-2.152-1.954c-.113-.054-.228-.107-.34-.159a1.612,1.612,0,0,0-.741-.21c-.156-.021-.312-.04-.47-.06a1.865,1.865,0,0,0-.894.226,3.39,3.39,0,0,0-1.662,1.894c-.286.754-.568,1.509-.866,2.259-.675,1.694-1.374,3.377-2.116,5.046-.3.648-.634,1.284-.956,1.924a13,13,0,0,1-1.244,2.055,11.991,11.991,0,0,1-1.032,1.022c-.074.047-.151.091-.23.132l-.011,0h-.211a5.465,5.465,0,0,1-.615-.154c-.043-.022-.086-.046-.127-.071a12.308,12.308,0,0,1-1.145-1.17,34.768,34.768,0,0,1-2.424-3.829q-.583-1.014-1.154-2.034c-.423-.754-.9-1.481-1.375-2.207a9.055,9.055,0,0,0-2.816-2.841,3.594,3.594,0,0,0-.732-.253,2.454,2.454,0,0,0-1.282.087c-.138.056-.278.11-.417.166-.23.153-.458.312-.681.477a3.051,3.051,0,0,0-.667,1.053c-.594,1.4-1.11,2.815-1.642,4.231-.623,1.655-1.272,3.316-1.972,4.943-.178.392-.356.784-.533,1.176.046-.1.091-.2.137-.3-.248.544-.508,1.078-.8,1.6a7.911,7.911,0,0,1-.757,1.081,7.707,7.707,0,0,1-.719.691c-.072.041-.144.081-.219.117-.1.032-.205.058-.31.08l-.132,0-.037-.009c-.061-.032-.122-.066-.182-.1L193,304.4a31.156,31.156,0,0,1-2.1-4.049c-.494-1.192-.988-2.384-1.448-3.59q-.44-1.148-.88-2.3c-.244-.636-.47-1.279-.758-1.9a6.723,6.723,0,0,0-.6-1.039,4.585,4.585,0,0,0-1.127-1.006,1.838,1.838,0,0,0-1.145-.443,1.7,1.7,0,0,0-1.4.75,6.905,6.905,0,0,0-.535.757c-.123.26-.235.524-.34.792-.14.339-.212.707-.333,1.052q-.255.732-.513,1.464c-.452,1.289-.963,2.569-1.5,3.826a17.341,17.341,0,0,1-1.986,3.413,8.737,8.737,0,0,1-.957.93,3.54,3.54,0,0,1-.324.173c-.065.02-.131.039-.2.056l-.005,0c-.052-.045-.1-.091-.15-.14a50.517,50.517,0,0,1-2.587-4.792c-.513-1-1.022-2.006-1.585-2.987a12.765,12.765,0,0,0-.762-1.121,11.06,11.06,0,0,0-.748-.949,4.632,4.632,0,0,0-1.947-1.329,3.258,3.258,0,0,0-2.438,0c-.118.056-.235.111-.351.167a4.413,4.413,0,0,0-.682.543c-.088.107-.177.212-.263.319a1.963,1.963,0,0,0-.446.649,9.809,9.809,0,0,0-.532,1.465c-.1.287-.193.577-.3.861-.574,1.584-1.171,3.162-1.839,4.714a13.828,13.828,0,0,1-1.279,2.236,3.556,3.556,0,0,1-.283.261,4.958,4.958,0,0,1-.505.286l-.047.011h-.058a3.582,3.582,0,0,1-.414-.11c-.073-.034-.144-.072-.213-.112a6.932,6.932,0,0,1-.534-.543c-.4-.513-.792-1.03-1.147-1.577-.251-.387-.5-.773-.76-1.156q-.721-1.064-1.442-2.13a22.047,22.047,0,0,0-3.044-3.688A5.3,5.3,0,0,0,150.449,293a4.275,4.275,0,0,0-1.184-.135,2.7,2.7,0,0,0-1.246.3,7.4,7.4,0,0,0-.688.47,9.6,9.6,0,0,0-.779.983c-.058.117-.115.234-.172.352a3.989,3.989,0,0,0-.317.8c-.062.188-.119.376-.182.563-.227.683-.456,1.363-.681,2.046-.54,1.635-1.109,3.266-1.79,4.855a16.671,16.671,0,0,1-1,1.9c-.05-.1-.1-.2-.15-.293-.712-1.664-1.354-3.357-2.02-5.038q-1.031-2.6-2.206-5.151c-.2-.441-.423-.877-.649-1.308-.254-.482-.566-.937-.852-1.4a3.33,3.33,0,0,0-1.849-1.6,2.57,2.57,0,0,0-1.223-.019c-.242.081-.483.173-.719.271a1.58,1.58,0,0,0-.583.545,3.083,3.083,0,0,0-.454.933c-.173.521-.293,1.06-.424,1.592-.176.713-.385,1.423-.6,2.128a40.327,40.327,0,0,1-1.445,4.159,13.248,13.248,0,0,1-1.343,2.4,9.1,9.1,0,0,1-.932.934c-.075.046-.152.088-.231.127-.069.02-.138.037-.208.051a2.947,2.947,0,0,1-.325,0l-.168-.037-.072-.04c-.241-.214-.467-.428-.685-.659-.55-.734-1.066-1.495-1.585-2.248-.323-.466-.642-.932-.964-1.4a15.725,15.725,0,0,0-1.41-1.884,4.684,4.684,0,0,0-1.916-1.529,2.207,2.207,0,0,0-.64-.123,4.182,4.182,0,0,0-.684.113,2.9,2.9,0,0,0-1.2.761,4.925,4.925,0,0,0-.966,2c-.2.492-.406.985-.621,1.473a15.605,15.605,0,0,1-1.6,2.807,9.661,9.661,0,0,1-.948.953,6.832,6.832,0,0,1-.713.4,5.792,5.792,0,0,1-.734.2,4.048,4.048,0,0,1-.562-.006,3.613,3.613,0,0,1-.471-.115,2.965,2.965,0,0,1-.3-.166,4.679,4.679,0,0,1-.4-.355,14.052,14.052,0,0,1-.84-1.421l-.6-1.09q-.353-.638-.7-1.272a10.97,10.97,0,0,0-.8-1.3,7.293,7.293,0,0,0-1.218-1.157,1.552,1.552,0,0,0-1.774-.214,3.994,3.994,0,0,0-1.263,1.026,8.12,8.12,0,0,0-.677,1.448c-.169.364-.339.729-.509,1.092a18.016,18.016,0,0,1-1.842,3.146,11.1,11.1,0,0,1-1.374,1.307,10.138,10.138,0,0,1-1.344.713,3.882,3.882,0,0,1-.518.132,4.108,4.108,0,0,1-.508,0,5.758,5.758,0,0,1-.771-.2l-.178-.1a7.216,7.216,0,0,1-.755-.733,15.745,15.745,0,0,1-.99-1.687q-.4-.748-.806-1.5-.649-1.2-1.3-2.391a20.7,20.7,0,0,0-1.324-2.177c-.286-.4-.637-.77-.962-1.141a5.049,5.049,0,0,0-1.107-.9q-.316-.129-.639-.244a4.854,4.854,0,0,0-.682-.065,7.179,7.179,0,0,0-.714.106q-.337.117-.666.253a3.405,3.405,0,0,0-.562.367,5.177,5.177,0,0,0-.453.516c-.237.423-.417.863-.613,1.3.05-.109.1-.217.149-.326-.23.508-.446,1.02-.662,1.535L81.9,300a16.6,16.6,0,0,1-1.98,3.256,12.891,12.891,0,0,1-1.228,1.147,3.783,3.783,0,0,1-.377.21c-.164.053-.324.1-.49.134-.144-.191-.281-.387-.416-.59a5.671,5.671,0,0,1-.415-.812q-.255-.571-.512-1.142c-.153-.34-.326-.678-.452-1.029q-.509-1.418-1.016-2.834c-.091-.251-.155-.514-.231-.768q-.281-.937-.561-1.876-.578-1.934-1.14-3.87a1.66,1.66,0,0,0-2-1.062,1.527,1.527,0,0,0-1.137,1.871c.624,2.15,1.267,4.3,1.909,6.44.227.758.535,1.5.8,2.247.292.813.646,1.592,1,2.385.244.538.49,1.072.748,1.6a5.906,5.906,0,0,0,.65,1.005,3.633,3.633,0,0,0,1.066,1.055l.28.149a1.78,1.78,0,0,0,.7.2,4.466,4.466,0,0,0,1.571-.076,5.376,5.376,0,0,0,1.468-.58c.241-.158.474-.322.7-.494a7.444,7.444,0,0,0,.705-.618,14.055,14.055,0,0,0,3.12-4.863c.484-1.141.935-2.287,1.388-3.437l.024-.045a10.071,10.071,0,0,1,.741.777,18.283,18.283,0,0,1,1.651,2.723q.528,1,1.054,2c.3.573.591,1.151.886,1.728.222.435.443.872.685,1.3a6.769,6.769,0,0,0,.73.939,5.511,5.511,0,0,0,.858.813,5.017,5.017,0,0,0,1.809.835,5.911,5.911,0,0,0,2.584.018,4.9,4.9,0,0,0,.832-.282,11.581,11.581,0,0,0,1.314-.629,9.1,9.1,0,0,0,2.117-1.761,14.421,14.421,0,0,0,2.557-4.211q.231-.522.46-1.043c.044-.1.085-.2.125-.3.3.5.562,1.024.836,1.54q.35.657.695,1.32a8.4,8.4,0,0,0,1.286,2.141,5.912,5.912,0,0,0,1.594,1.17,5.516,5.516,0,0,0,2.161.437,5.045,5.045,0,0,0,1.631-.255,5.909,5.909,0,0,0,1.779-.9,8.773,8.773,0,0,0,2.433-2.856,20.759,20.759,0,0,0,1.358-2.955c.13-.342.257-.685.385-1.029.074-.2.137-.394.2-.592q.2.2.386.411c.609.8,1.139,1.645,1.683,2.482l1.093,1.69c.26.4.509.8.782,1.2a7.315,7.315,0,0,0,.735.844l.286.271c.2.155.409.308.619.457a5.069,5.069,0,0,0,1.034.391,4.808,4.808,0,0,0,1.149.089,4.52,4.52,0,0,0,1.108-.185,3.823,3.823,0,0,0,1.08-.541,7.378,7.378,0,0,0,1.755-1.713,12.184,12.184,0,0,0,1.324-2.278,29.949,29.949,0,0,0,1.506-3.9c.21-.669.425-1.335.615-2.009.108-.379.21-.76.314-1.141.256.463.489.935.711,1.415.771,1.752,1.46,3.536,2.108,5.329q.477,1.314.945,2.629.3.834.589,1.667c.187.531.436,1.044.669,1.557a3.889,3.889,0,0,0,1,1.3,3.064,3.064,0,0,0,1.14.645,3.03,3.03,0,0,0,.809.145,6.135,6.135,0,0,0,.823-.125,5.136,5.136,0,0,0,.78-.339c.233-.161.466-.327.695-.5a7.137,7.137,0,0,0,1.1-1.228,10.772,10.772,0,0,0,.818-1.47c.292-.556.542-1.13.792-1.7.279-.642.522-1.294.755-1.951.337-.956.659-1.908.961-2.873.119-.385.239-.77.354-1.156.143-.469.263-.953.422-1.42a12.984,12.984,0,0,1,1.334,1.347c1.143,1.477,2.167,3.047,3.172,4.608.26.4.511.81.778,1.208.227.336.5.652.748.973s.513.623.788.919a5.429,5.429,0,0,0,.954.721,5.586,5.586,0,0,0,1.177.485,5.9,5.9,0,0,0,1.3.212,3.729,3.729,0,0,0,1.246-.16l.451-.178a3.323,3.323,0,0,0,.722-.349,7.343,7.343,0,0,0,1.01-.753,6.1,6.1,0,0,0,.849-1,8.243,8.243,0,0,0,.654-1.122c.207-.386.4-.772.584-1.168.485-1.056.886-2.144,1.293-3.229.483-1.284.894-2.585,1.277-3.9a4.006,4.006,0,0,1,.362.352,16.023,16.023,0,0,1,1.312,1.918c.29.5.56,1.014.819,1.528.359.706.721,1.41,1.075,2.118.44.884.877,1.77,1.33,2.649a6.761,6.761,0,0,0,1.525,2.071,3.5,3.5,0,0,0,1.123.651,1.931,1.931,0,0,0,.832.188,2.8,2.8,0,0,0,.871-.046,5.2,5.2,0,0,0,2.357-1.014,11.089,11.089,0,0,0,2.056-2.227,14.968,14.968,0,0,0,1.315-2.371c.5-1.005.894-2.051,1.291-3.092.268-.7.494-1.421.74-2.129.092-.263.17-.531.249-.8.682,1.756,1.308,3.532,1.982,5.291.365.952.755,1.892,1.148,2.833q.472,1.128,1.032,2.223a6.008,6.008,0,0,0,.672,1.152,2.231,2.231,0,0,0,.546.562,4.613,4.613,0,0,0,1,.621,4.265,4.265,0,0,0,1.674.349c.311-.03.623-.066.932-.108a3.456,3.456,0,0,0,.877-.282,2.662,2.662,0,0,0,.751-.366c.242-.169.477-.345.708-.526a8.73,8.73,0,0,0,1.429-1.609,15.162,15.162,0,0,0,1.663-3.153c.537-1.169,1-2.361,1.458-3.559.349-.919.705-1.833,1.033-2.76.3-.851.6-1.7.9-2.555.074.079.147.158.218.239a40.9,40.9,0,0,1,2.662,4.395,30.376,30.376,0,0,0,3.252,5.157c.248.287.5.57.759.846.092.084.184.17.278.254.217.169.44.333.666.493a8.946,8.946,0,0,0,1.149.505c.143.039.287.076.43.116q.469.078.942.131l.437.01q.451-.051.9-.12c.118-.044.238-.086.355-.128a3.578,3.578,0,0,0,.792-.365c.111-.078.22-.157.332-.233a6.293,6.293,0,0,0,.7-.543,9.412,9.412,0,0,0,1.152-1.238,12.51,12.51,0,0,0,1.433-2.29c.422-.82.833-1.644,1.2-2.485.478-1.093.927-2.2,1.369-3.3s.841-2.237,1.229-3.366c.078.077.154.157.23.238a28.8,28.8,0,0,1,1.718,2.69c.43.738.821,1.5,1.216,2.255.445.85.888,1.7,1.34,2.548a16.414,16.414,0,0,0,2.993,4.455q.339.255.7.483c.261.105.522.21.783.312a6.789,6.789,0,0,0,1.587.217c.309-.033.619-.071.927-.112a4.611,4.611,0,0,0,.829-.223,7.09,7.09,0,0,0,1.991-1.036,17.526,17.526,0,0,0,2.706-2.552,33.511,33.511,0,0,0,2.329-3.013c.707-.983,1.372-1.994,2.053-2.994.5-.734.965-1.485,1.448-2.23.654-1.013,1.226-2.07,1.879-3.083h0c.047.012.094.024.14.038a8.315,8.315,0,0,1,.789.461,9.127,9.127,0,0,1,.777.746,14.943,14.943,0,0,1,1.51,2.375c.558,1.084,1.086,2.186,1.611,3.286.449.943.959,1.857,1.478,2.769a9.952,9.952,0,0,0,2.288,2.669,11.392,11.392,0,0,0,1.149.811,6.746,6.746,0,0,0,1.715.7,6.283,6.283,0,0,0,.936.16,8.394,8.394,0,0,0,1.062.1,9.221,9.221,0,0,0,1.986-.182,6.427,6.427,0,0,0,1.434-.476,12.428,12.428,0,0,0,1.742-.907,13.307,13.307,0,0,0,2.834-2.38c.728-.8,1.393-1.658,2.062-2.5.713-.894,1.342-1.856,1.972-2.8q.761-1.141,1.523-2.284c.451-.673.853-1.38,1.269-2.074.371-.621.75-1.235,1.149-1.839.126.113.247.23.367.354a17.775,17.775,0,0,1,1.838,3.115c.928,2.09,1.8,4.2,2.776,6.275a9.318,9.318,0,0,0,.661,1.151,10.284,10.284,0,0,0,1.077,1.386,5.215,5.215,0,0,0,1.034.878,6.629,6.629,0,0,0,1.6.679l.4.083c.344.044.685.088,1.029.13a5.049,5.049,0,0,0,.815.006q.5-.059,1-.124a9.442,9.442,0,0,0,3.012-1.341,13.565,13.565,0,0,0,2.559-2.128,27.046,27.046,0,0,0,2.088-2.575,37.527,37.527,0,0,0,2.042-3.3c.386-.669.742-1.352,1.1-2.034.292-.558.548-1.134.829-1.7a19.045,19.045,0,0,1,1.038,2.011c.512,1.2.973,2.413,1.443,3.626.519,1.341,1.021,2.69,1.656,3.988.156.321.317.639.489.953a4.385,4.385,0,0,0,1.088,1.226,6.682,6.682,0,0,0,1.16.746c.31.126.623.248.939.363a6.63,6.63,0,0,0,1,.153,6.52,6.52,0,0,0,1.521-.126,11.811,11.811,0,0,0,1.9-.653,4.885,4.885,0,0,0,.735-.408q.417-.3.83-.6a12.143,12.143,0,0,0,1.2-1.137,29.943,29.943,0,0,0,2.03-2.453c.645-.86,1.177-1.8,1.737-2.7.5-.814.946-1.662,1.418-2.491.275-.483.519-.985.765-1.484.386,1.128.736,2.269,1.087,3.4a10.007,10.007,0,0,0,2.869,4.635,9.751,9.751,0,0,0,1.309.913,8.313,8.313,0,0,0,1.5.638,5.532,5.532,0,0,0,1.509.218,7.28,7.28,0,0,0,1.469-.149,5.39,5.39,0,0,0,1.38-.446,5.653,5.653,0,0,0,1.221-.732,11.306,11.306,0,0,0,1.907-1.986,12.717,12.717,0,0,0,1.407-2.2c.473-.9.9-1.809,1.313-2.73.427-.948.82-1.908,1.2-2.872l.057.085c.43.654.811,1.342,1.222,2.007s.834,1.35,1.293,2c.446.635.948,1.234,1.458,1.825a9.2,9.2,0,0,0,3.59,2.572,14.847,14.847,0,0,0,2.271.7,15.839,15.839,0,0,0,2.759.308,2.58,2.58,0,0,0,2.646-2.473,2.4,2.4,0,0,0-.775-1.747,2.9,2.9,0,0,0-1.871-.725c-.143-.01-.287-.021-.43-.034A15.746,15.746,0,0,1,350.585,292.22ZM86.032,297.6l-.255.1a2,2,0,0,1,.261-.106Zm73.327,5.663.133.053h0C159.448,303.3,159.4,303.283,159.359,303.264Zm8.433-8.278-.061-.024.062.023Zm.213.358a1.807,1.807,0,0,1,.094-.211h0Zm.271-.481h-.005c.043-.056.09-.111.139-.165C168.367,294.754,168.322,294.809,168.277,294.863Zm24.913,9.691h-.005c-.022-.016-.045-.034-.067-.052Zm.046.036q-.143.023-.289.033l.285-.036-.019-.013h.006l.017.013.04-.005h.009l-.044.007.063.045Zm.148.026.04-.016h0Zm.055-.02h0l.173-.068Q193.525,304.564,193.438,304.6Zm39.844-3.913.2.027,0,0C233.419,300.7,233.35,300.7,233.282,300.683Zm.231.032,0,0,.026,0h0Zm.033,0h0Zm54.55-3.267-.047-.022.057.023Zm.011,0,.012,0,.226.088A2.387,2.387,0,0,1,288.106,297.455Zm22.455-.414.059.023h0Zm.163.061-.029-.023.034.025Zm.047.036-.039-.029.009,0,.036.026Zm.041.031h.006l.117.085C310.893,297.226,310.852,297.2,310.811,297.169Z" transform="translate(-69.89 -282.267)" fill="#e52441"/>
</svg>
