<svg width="25" height="32" viewBox="0 0 25 32" fill="none" xmlns="http://www.w3.org/2000/svg">
<path d="M13.1232 9.65348C14.5233 9.14059 15.926 8.63442 17.3314 8.13497C18.0085 7.895 18.6868 7.65586 19.3663 7.41756C19.7709 7.30348 20.1419 7.09667 20.4474 6.81487C20.7528 6.53308 20.9837 6.18472 21.1201 5.7997C21.2045 5.59023 21.2161 5.36067 21.1531 5.14587C21.0901 4.93106 20.956 4.74273 20.7712 4.60944C20.4412 4.36686 20.0537 4.2067 19.6427 4.14295C19.2316 4.0792 18.8095 4.11381 18.4133 4.24376C17.7224 4.44001 17.0314 4.6377 16.3402 4.83681C14.8423 5.26797 13.3462 5.70597 11.8521 6.15081C8.97741 7.00939 6.259 8.57548 3.57598 9.88753C2.56583 10.3808 2.9422 12.0954 4.15538 11.8153C5.64054 11.4713 7.12721 11.1352 8.61539 10.807C10.1429 10.5245 11.6493 10.1391 13.1232 9.65348Z" fill="white"/>
<path d="M21.0316 17.452C20.5371 16.2738 18.6841 15.9525 17.5257 15.6286C16.2102 15.257 14.8692 14.9716 13.512 14.7741C10.9942 14.4126 8.11879 15.0454 5.68776 15.7071C4.91461 15.9156 4.72873 17.2248 5.70585 17.2183C6.9628 17.2092 8.21795 17.2832 9.46247 17.4399C10.6378 17.5888 11.7836 17.9005 12.9598 18.0221C14.1368 18.1395 15.3033 18.3338 16.4514 18.6036C17.6299 18.8864 19.1493 19.753 20.3216 19.2259C20.6533 19.0736 20.9124 18.8039 21.0446 18.4734C21.1768 18.1429 21.1718 17.7773 21.0306 17.4533" fill="white"/>
<path d="M3.59251 22.7846C3.84173 22.9531 4.09094 23.1217 4.34172 23.29C4.92456 23.6849 5.50905 24.0776 6.09188 24.4726C7.17449 25.2029 8.24253 25.9596 9.34204 26.6658C10.4935 27.3274 11.6896 27.9148 12.9225 28.4242L14.8377 29.3216C15.42 29.6579 16.0557 29.9006 16.7204 30.0401C16.8754 30.053 17.0314 30.0218 17.1694 29.9506C17.3073 29.8793 17.4212 29.7709 17.497 29.6387C17.5729 29.5066 17.6074 29.3564 17.5964 29.2065C17.5854 29.0566 17.5293 28.9136 17.4351 28.7949C16.9206 28.1304 16.044 27.7045 15.3431 27.2375C14.5902 26.7368 13.8372 26.2352 13.0841 25.7325C12.3355 25.1897 11.5464 24.7005 10.7231 24.2689C9.85769 23.8627 8.98646 23.4679 8.11704 23.067L5.64953 21.9281C4.88894 21.5138 4.09505 21.1584 3.27524 20.8652C3.01085 20.765 2.71541 20.7682 2.45102 20.874C2.18664 20.9798 1.97389 21.18 1.85751 21.4326C1.8084 21.5451 1.78368 21.6659 1.78491 21.7874C1.78613 21.909 1.8133 22.0288 1.86466 22.1393C1.91602 22.2498 1.99049 22.3486 2.08345 22.4296C2.17642 22.5107 2.28587 22.5721 2.40501 22.6103C2.5239 22.6455 2.65084 22.6485 2.77215 22.6192C2.89347 22.5898 3.00455 22.5291 3.09345 22.4437L3.59257 22.7799" fill="white"/>
</svg>
