<svg width="25" height="32" viewBox="0 0 25 32" fill="none" xmlns="http://www.w3.org/2000/svg">
<path d="M11.8768 22.3465C10.4767 22.8594 9.07395 23.3656 7.66856 23.865C6.99145 24.105 6.31316 24.3441 5.63367 24.5824C5.22908 24.6965 4.85812 24.9033 4.55265 25.1851C4.24717 25.4669 4.0163 25.8153 3.87986 26.2003C3.79548 26.4098 3.78391 26.6393 3.84689 26.8541C3.90987 27.0689 4.04396 27.2573 4.22884 27.3906C4.55881 27.6331 4.94627 27.7933 5.35731 27.8571C5.76836 27.9208 6.19046 27.8862 6.58669 27.7562C7.27756 27.56 7.96861 27.3623 8.65982 27.1632C10.1577 26.732 11.6538 26.294 13.1479 25.8492C16.0226 24.9906 18.741 23.4245 21.424 22.1125C22.4342 21.6192 22.0578 19.9046 20.8446 20.1847C19.3595 20.5287 17.8728 20.8648 16.3846 21.193C14.8571 21.4755 13.3507 21.8609 11.8768 22.3465Z" fill="white"/>
<path d="M3.96843 14.548C4.46292 15.7262 6.31593 16.0475 7.47431 16.3714C8.78984 16.743 10.1308 17.0284 11.488 17.2259C14.0058 17.5874 16.8812 16.9546 19.3122 16.2929C20.0854 16.0844 20.2713 14.7752 19.2941 14.7817C18.0372 14.7908 16.7821 14.7168 15.5375 14.5601C14.3622 14.4112 13.2164 14.0995 12.0402 13.9779C10.8632 13.8605 9.69667 13.6662 8.54861 13.3964C7.37006 13.1136 5.85068 12.247 4.67839 12.7741C4.3467 12.9264 4.08757 13.1961 3.95539 13.5266C3.82321 13.8571 3.82824 14.2227 3.96942 14.5467" fill="white"/>
<path d="M21.4075 9.21545C21.1583 9.04688 20.9091 8.87832 20.6583 8.71C20.0754 8.31509 19.4909 7.92235 18.9081 7.52744C17.8255 6.79714 16.7575 6.04036 15.658 5.33423C14.5065 4.67256 13.3104 4.08516 12.0775 3.57581L10.1623 2.67844C9.58004 2.34206 8.94428 2.09942 8.27959 1.95989C8.12458 1.94704 7.96855 1.97816 7.83061 2.04945C7.69268 2.12073 7.57883 2.2291 7.50299 2.36125C7.42714 2.49341 7.39258 2.6436 7.40359 2.79349C7.41459 2.94337 7.47065 3.08642 7.56491 3.20511C8.07943 3.86959 8.95599 4.29552 9.65693 4.76249C10.4098 5.26315 11.1628 5.7648 11.9159 6.26747C12.6645 6.81031 13.4536 7.29949 14.2769 7.73111C15.1423 8.13726 16.0135 8.53212 16.883 8.93304L19.3505 10.0719C20.1111 10.4862 20.905 10.8416 21.7248 11.1348C21.9891 11.235 22.2846 11.2318 22.549 11.126C22.8134 11.0202 23.0261 10.82 23.1425 10.5674C23.1916 10.4549 23.2163 10.3341 23.2151 10.2126C23.2139 10.091 23.1867 9.9712 23.1353 9.86072C23.084 9.75024 23.0095 9.65141 22.9165 9.57038C22.8236 9.48934 22.7141 9.42785 22.595 9.38972C22.4761 9.35455 22.3492 9.35148 22.2278 9.38084C22.1065 9.4102 21.9954 9.47088 21.9066 9.55634L21.4074 9.22007" fill="white"/>
</svg>
