<svg xmlns="http://www.w3.org/2000/svg" width="85.439" height="89.618" viewBox="0 0 85.439 89.618">
  <path id="Trazado_2402" data-name="Trazado 2402" d="M0,68.629c2.946,1.9,5.839,1.341,8.429.367a51.963,51.963,0,0,0,10.311-5.05c14.549-9.591,23.17-23.292,26.832-40.165.943-4.343,1.2-8.833,1.831-13.664,4.018,2.3,6.052,6.763,10.13,9.417.524-1.987-.464-3.276-1.317-4.43C52.879,10.587,49.5,6.1,45.993,1.711c-1.7-2.13-3.024-2.253-4.839-.468a22.394,22.394,0,0,0-6.8,13.446c-.029.228.332.505.7,1.024,4.29-1.124,3.266-6.6,7.018-8.628,1.572,6.929.387,13.464-1.434,19.917a60.758,60.758,0,0,1-8.4,18.812,68.736,68.736,0,0,1-14.168,14.33A46.254,46.254,0,0,1,0,68.629Z" transform="translate(35.998) rotate(31)" fill="#ff9dea"/>
</svg>
