<svg xmlns="http://www.w3.org/2000/svg" width="337.266" height="54.142" viewBox="0 0 337.266 54.142">
  <path id="Trazado_2398" data-name="Trazado 2398" d="M474,521.716c1.392-.177,2.793-.447,4.188-.531,1.3-.079,2.6-.163,3.9-.242,7.127-.437,14.253-1,21.384-1.169,7.458-.181,14.918-.482,22.377-.512,7.612-.031,15.222-.083,22.833-.023q22.253.186,44.5.289c14.733.061,29.467.073,44.2-.045,7.313-.063,14.627-.354,21.937-.586,7.179-.228,14.351-.612,21.526-1.06,1.577-.1,3.151-.293,4.727-.441,1.556-.151,3.116-.271,4.671-.466,3.991-.5,7.977-1.039,11.964-1.637,6.94-1.045,13.859-2.436,20.808-3.3,7.281-.911,14.578-1.43,21.866-2.17a82.652,82.652,0,0,0,9.864-1.487,105.88,105.88,0,0,0,11.128-3.107c3.569-1.218,7.135-2.471,10.707-3.669,1.713-.578,3.436-1.1,5.166-1.511a55.107,55.107,0,0,0,5.834-1.633c.93-.334,1.113-2.377,1.113-3.693a10.456,10.456,0,0,0-.215-2.178c-.137-.592-.423-1.537-.9-1.509-3.489.191-6.977.388-10.463.657q-5.277.406-10.565.519c-6.839.153-13.692-.236-20.525-.7,1.165-.26,2.329-.517,3.494-.777,4.182-.935,8.354-2.111,12.558-2.743,2.237-.338,4.482-.618,6.713-1.051a26.638,26.638,0,0,0,3.372-.838,34.4,34.4,0,0,0,3.566-1.491q.569-.1.861-.931a8.728,8.728,0,0,0,.567-2.859c1.2-.6,1.437-3.51,1.437-5.259a14.875,14.875,0,0,0-.31-3.152c-.207-.9-.6-2.168-1.3-2.18-3.631-.069-7.256-.472-10.888-.547-.426-.008-.853-.012-1.279-.012-3.124,0-6.243.226-9.363.5q-10.428.924-20.85,2.186c-3.228.382-6.453.836-9.684,1.157-3.951.392-7.895.693-11.85.948-6.617.423-13.245.588-19.866.787-7.593.232-15.177.561-22.763,1.149-7.026.545-14.045,1.271-21.066,1.964q-10.573,1.037-21.149,2.078c-7.225.718-14.455,1.251-21.687,1.784-3.658.272-7.323.354-10.983.525-3.465.163-6.934.205-10.4.289-6.823.165-13.648.266-20.472.382-13.767.23-27.527.6-41.293.976q-11.343.314-22.683.671c-3.857.12-7.715.372-11.57.555-3.3.157-6.591.525-9.886.8-3.507.3-7.015.624-10.522.958-2.085.2-4.172.4-6.26.6-.906.089-1.814.175-2.722.264-.826.079-1.653.181-2.476.285a11.929,11.929,0,0,0-1.748.376,9.558,9.558,0,0,0-1.9,1,4.366,4.366,0,0,0-.769,1.861,15.707,15.707,0,0,0,0,6.129l.339,1.123c.21.594.519.927.924,1a13.961,13.961,0,0,0,2.161.872c.4-.073.711-.4.92-1a5.1,5.1,0,0,0,.212-.575c.385-.018.772-.016,1.158-.016.369,0,.739,0,1.111-.018q1.252-.046,2.5-.1,3.22-.125,6.439-.25c2.327-.094,4.651-.161,6.976-.228-.24.035-.481.067-.72.1-5.493.708-10.982,1.417-16.47,2.227q-1.333.247-2.029,2.2a18.588,18.588,0,0,0-1.246,5.568q-1.447-.024-2.895-.045c-.676-.01-.81,1.936-.81,2.684s.134,2.668.81,2.68c.924.014,1.849.041,2.773.061a31.275,31.275,0,0,0,.625,4.962q.372,1.232.742,2.463.7,1.949,2.029,2.2C463.605,523.042,468.8,522.375,474,521.716Z" transform="translate(-451.433 -469.663)" fill="#e47455"/>
</svg>
