<svg xmlns="http://www.w3.org/2000/svg" width="252.869" height="59.015" viewBox="0 0 252.869 59.015">
  <path id="Trazado_2397" data-name="Trazado 2397" d="M453.762,448.042a42,42,0,0,1,10.145-2.337c1.918-.252,3.833-.423,5.756-.568,2.755-.206,5.5-.361,8.258-.459,5.249-.186,10.5-.257,15.752-.285,10.523-.056,21.034-.156,31.548-.931,10.9-.8,21.8-1.548,32.7-2.372,10.336-.783,20.671-1.564,31.011-2.162,10.355-.6,20.7-1.133,31.047-2.118,10.585-1.007,21.18-1.547,31.78-1.986a126.426,126.426,0,0,0,15.078-1.284c2.613-.425,5.218-.9,7.826-1.406,2.553-.491,5.119-.816,7.681-1.181a28.468,28.468,0,0,1,7.059.036q2.534-.425,3.849-3.8.707-2.131,1.411-4.26a54.294,54.294,0,0,0,0-23.246q-.705-2.129-1.411-4.26-1.315-3.373-3.849-3.8c-1.3.154-2.6.359-3.9.494-1.185.122-2.374.115-3.561.126-2.538.028-5.072.162-7.6.321-5.267.331-10.524.856-15.792,1.093-10.206.459-20.421.507-30.616,1.409-5.466.481-10.926,1.041-16.392,1.51-4.966.429-9.937.71-14.908.989q-15.868.885-31.72,2.16c-10.437.831-20.877,1.6-31.313,2.443q-8.654.7-17.311,1.285c-5.171.35-10.355.4-15.53.481-10.594.169-21.189.284-31.768,1.23-2.606.232-5.208.546-7.8,1.011a48.041,48.041,0,0,0-6.288,1.571,35.121,35.121,0,0,0-4.71,2.1,9.83,9.83,0,0,0-2.583,1.949,16.014,16.014,0,0,0-3.242,7.144,52.427,52.427,0,0,0-.938,18.067A33.735,33.735,0,0,0,445.8,446.8q.905,1.418,1.813,2.831a2.65,2.65,0,0,0,4.172,0A10.383,10.383,0,0,1,453.762,448.042Z" transform="translate(-443.058 -391.626)" fill="#e47455"/>
</svg>
