<svg xmlns="http://www.w3.org/2000/svg" width="276.308" height="64.984" viewBox="0 0 276.308 64.984">
  <g id="Grupo_77933" data-name="Grupo 77933" transform="matrix(1, 0.017, -0.017, 1, -2013.279, -347.206)">
    <path id="Trazado_2206" data-name="Trazado 2206" d="M469.482,523.007c1.113-.181,2.234-.458,3.35-.544,1.041-.081,2.083-.167,3.122-.248,5.7-.448,11.4-1.023,17.1-1.2,5.965-.185,11.932-.494,17.9-.525,6.089-.031,12.175-.085,18.262-.023q17.8.191,35.593.3c11.784.063,23.569.075,35.353-.046,5.849-.065,11.7-.363,17.546-.6,5.742-.233,11.478-.627,17.217-1.086,1.261-.1,2.521-.3,3.781-.452,1.245-.154,2.492-.277,3.736-.477,3.192-.517,6.38-1.065,9.569-1.678,5.551-1.071,11.085-2.5,16.643-3.387,5.823-.934,11.66-1.465,17.489-2.224a52.729,52.729,0,0,0,7.89-1.523,70.79,70.79,0,0,0,8.9-3.184c2.854-1.248,5.706-2.532,8.564-3.76a39.385,39.385,0,0,1,4.132-1.549,36.874,36.874,0,0,0,4.666-1.674c.744-.342.89-2.436.89-3.785a13.649,13.649,0,0,0-.172-2.232c-.11-.606-.339-1.575-.719-1.546-2.791.2-5.58.4-8.369.673q-4.221.416-8.45.531a141.816,141.816,0,0,1-16.416-.721c.931-.267,1.863-.529,2.794-.8,3.345-.959,6.681-2.163,10.044-2.811,1.789-.346,3.584-.634,5.369-1.077a17.594,17.594,0,0,0,2.7-.859,24.632,24.632,0,0,0,2.852-1.528q.455-.1.689-.955a11.171,11.171,0,0,0,.453-2.93c.957-.619,1.15-3.6,1.15-5.389a19.375,19.375,0,0,0-.249-3.23c-.166-.919-.483-2.222-1.038-2.234-2.9-.071-5.8-.484-8.708-.561-.341-.008-.682-.013-1.023-.013a66.424,66.424,0,0,0-7.489.515q-8.341.947-16.676,2.24c-2.581.392-5.161.857-7.745,1.186-3.161.4-6.314.711-9.478.971-5.292.433-10.594.6-15.889.807-6.073.238-12.139.575-18.207,1.177-5.619.559-11.234,1.3-16.849,2.013q-8.457,1.063-16.916,2.13c-5.778.736-11.562,1.282-17.346,1.828-2.926.279-5.857.363-8.785.538-2.772.167-5.546.211-8.319.3-5.457.169-10.916.273-16.374.392-11.011.236-22.017.615-33.027,1q-9.072.322-18.143.688c-3.085.123-6.171.381-9.254.569-2.636.16-5.272.538-7.907.823-2.805.3-5.61.64-8.416.982-1.668.2-3.337.415-5.007.619-.724.092-1.451.179-2.177.271-.66.081-1.322.186-1.981.292a7.771,7.771,0,0,0-1.4.386,7.242,7.242,0,0,0-1.521,1.023,5.216,5.216,0,0,0-.615,1.907,20.551,20.551,0,0,0,0,6.281l.271,1.15q.252.913.739,1.027a9.908,9.908,0,0,0,1.728.894q.483-.112.736-1.021c.064-.183.12-.381.17-.59.308-.019.617-.017.927-.017s.591,0,.888-.019q1-.047,2-.1,2.575-.128,5.15-.256c1.861-.1,3.72-.165,5.58-.233-.192.035-.385.069-.576.1-4.393.725-8.784,1.453-13.173,2.282q-1.066.253-1.623,2.251a23.664,23.664,0,0,0-1,5.706c-.772-.017-1.544-.033-2.316-.046-.541-.01-.648,1.984-.648,2.751s.107,2.734.648,2.747c.739.015,1.479.042,2.218.063a40.65,40.65,0,0,0,.5,5.085q.3,1.263.594,2.524.558,2,1.623,2.251C461.169,524.366,465.325,523.682,469.482,523.007Z" transform="translate(1568.567 -157.663)" fill="#fff"/>
    <path id="Trazado_2207" data-name="Trazado 2207" d="M18.048,53.344c1.113-.181,2.234-.458,3.35-.544,1.041-.081,2.083-.167,3.122-.248,5.7-.448,11.4-1.023,17.1-1.2,5.965-.185,11.932-.494,17.9-.525,6.088-.031,12.175-.085,18.262-.023q17.8.191,35.593.3c11.784.063,23.569.075,35.353-.046,5.849-.065,11.7-.363,17.546-.6,5.742-.233,11.478-.627,17.217-1.086,1.261-.1,2.521-.3,3.781-.452,1.245-.154,2.492-.277,3.736-.477,3.192-.517,6.38-1.065,9.569-1.678,5.551-1.071,11.084-2.5,16.643-3.387,5.823-.934,11.66-1.465,17.489-2.224a52.739,52.739,0,0,0,7.89-1.523,70.781,70.781,0,0,0,8.9-3.184c2.854-1.248,5.707-2.532,8.564-3.76a39.384,39.384,0,0,1,4.132-1.549,36.873,36.873,0,0,0,4.666-1.674c.744-.342.89-2.436.89-3.785a13.652,13.652,0,0,0-.172-2.232c-.11-.606-.339-1.575-.718-1.546-2.791.2-5.58.4-8.369.673q-4.221.416-8.45.531a141.82,141.82,0,0,1-16.416-.721c.931-.267,1.863-.529,2.794-.8,3.345-.959,6.681-2.163,10.044-2.811,1.789-.346,3.585-.634,5.369-1.077a17.582,17.582,0,0,0,2.7-.859,24.609,24.609,0,0,0,2.852-1.528q.455-.1.689-.955a11.181,11.181,0,0,0,.453-2.93c.957-.619,1.149-3.6,1.149-5.389a19.385,19.385,0,0,0-.248-3.23c-.166-.919-.483-2.222-1.039-2.234-2.9-.071-5.8-.484-8.708-.561Q251.171,0,250.659,0a66.413,66.413,0,0,0-7.489.515q-8.341.947-16.676,2.24c-2.581.392-5.161.857-7.745,1.186-3.161.4-6.314.711-9.478.971-5.292.433-10.594.6-15.889.807-6.073.238-12.139.575-18.206,1.177-5.619.559-11.234,1.3-16.849,2.013q-8.457,1.063-16.916,2.13c-5.778.736-11.562,1.282-17.346,1.828-2.926.279-5.857.363-8.785.538-2.772.167-5.546.211-8.319.3-5.457.169-10.916.273-16.374.392-11.011.236-22.017.615-33.027,1q-9.072.322-18.143.688c-3.085.123-6.171.381-9.254.569-2.636.16-5.272.538-7.907.823-2.805.3-5.61.64-8.416.982-1.668.2-3.337.415-5.007.619-.724.092-1.451.179-2.177.271-.661.081-1.322.186-1.981.292a7.772,7.772,0,0,0-1.4.386,7.244,7.244,0,0,0-1.521,1.023,5.215,5.215,0,0,0-.615,1.907A18.826,18.826,0,0,0,.9,25.79a18.825,18.825,0,0,0,.241,3.143l.271,1.15q.252.913.739,1.027A9.9,9.9,0,0,0,3.881,32c.322-.075.568-.415.736-1.021.064-.183.12-.381.17-.59.308-.019.617-.017.927-.017s.591,0,.888-.019q1-.047,2-.1,2.575-.128,5.15-.256c1.861-.1,3.72-.165,5.58-.233-.192.035-.385.069-.576.1-4.393.725-8.784,1.453-13.173,2.282q-1.066.253-1.622,2.251a23.665,23.665,0,0,0-1,5.706c-.772-.017-1.544-.033-2.315-.046C.107,40.054,0,42.048,0,42.815s.107,2.734.648,2.747c.739.015,1.479.042,2.218.063a40.658,40.658,0,0,0,.5,5.085q.3,1.263.594,2.524.558,2,1.622,2.251C9.736,54.7,13.892,54.019,18.048,53.344Z" transform="translate(2295.464 372.185) rotate(180)" fill="#fff"/>
  </g>
</svg>
