<svg xmlns="http://www.w3.org/2000/svg" width="64.606" height="50.712" viewBox="0 0 64.606 50.712">
  <g id="Grupo_77722" data-name="Grupo 77722" transform="matrix(0.934, -0.358, 0.358, 0.934, -529.221, 186.926)">
    <path id="Trazado_1898" data-name="Trazado 1898" d="M572.223,38.031q2.224-3.373,4.482-6.724,1.089-1.613,2.186-3.226a4.688,4.688,0,0,0,.775-4.286,1.925,1.925,0,0,0-1.832-1.425,4.607,4.607,0,0,0-3.861,1.935q-1.192,1.536-2.38,3.079-2.575,3.343-5.119,6.711c-3.26,4.324-5.506,9.549-7.982,14.354-.933,1.808,1.521,3.994,2.988,2.293q2.692-3.126,5.417-6.221a59.833,59.833,0,0,0,5.326-6.49" fill="#fd8b6b"/>
    <path id="Trazado_1899" data-name="Trazado 1899" d="M587.192,31.229c-2.028-1.251-5.094.216-7.147.948a55.235,55.235,0,0,0-6.817,2.939c-4.083,2.106-7.588,6.083-10.411,9.636-.9,1.127.278,3.291,1.7,2.253a49.554,49.554,0,0,1,5.74-3.62c1.884-1.013,3.905-1.75,5.76-2.805a47.31,47.31,0,0,1,5.751-2.8c2.037-.815,5.219-1.111,6.35-3.137a2.549,2.549,0,0,0-.926-3.411" transform="translate(5.171 10.269)" fill="#fd8b6b"/>
    <path id="Trazado_1900" data-name="Trazado 1900" d="M570.033,48.677c.55-.009,1.1-.018,1.652-.029,1.287-.02,2.574-.045,3.861-.065,2.387-.042,4.782-.029,7.167-.125a55.281,55.281,0,0,0,7.169-1.124l3.787-.666a11.375,11.375,0,0,0,3.542-.9,1.44,1.44,0,0,0-.332-2.618c-1.485-.456-3.235-.174-4.774-.138q-2.478.06-4.96.116a34.939,34.939,0,0,0-5.063.285c-1.712.3-3.42.623-5.132.935l-4.86.884a30.031,30.031,0,0,0-4.64.9,1.981,1.981,0,0,0-1.443,2.34,1.65,1.65,0,0,0,2.1,1.191,1.233,1.233,0,0,0,.821-.973h0l1.1-.02" transform="translate(9.388 25.18)" fill="#fd8b6b"/>
  </g>
</svg>
