<svg xmlns="http://www.w3.org/2000/svg" width="27.606" height="33.3" viewBox="0 0 27.606 33.3">
  <g id="Grupo_77733" data-name="Grupo 77733" transform="translate(-2.665 25.077) rotate(-73)">
    <path id="Trazado_1898" data-name="Trazado 1898" d="M7.455,7.128q1.19,1.8,2.4,3.6.582.863,1.17,1.726a2.508,2.508,0,0,1,.414,2.293,1.03,1.03,0,0,1-.98.762A2.465,2.465,0,0,1,8.391,14.47q-.638-.822-1.273-1.647Q5.741,11.035,4.38,9.234A52.451,52.451,0,0,1,.11,1.555C-.389.588.924-.582,1.709.328Q3.148,2,4.606,3.656A32.007,32.007,0,0,1,7.455,7.128" transform="translate(0 12.618)" fill="#ff9dea"/>
    <path id="Trazado_1899" data-name="Trazado 1899" d="M13.207,8.586c-1.085.669-2.725-.116-3.823-.507A29.548,29.548,0,0,1,5.737,6.507,18.9,18.9,0,0,1,.168,1.352c-.481-.6.149-1.76.91-1.205a26.508,26.508,0,0,0,3.07,1.937c1.008.542,2.089.936,3.081,1.5a25.309,25.309,0,0,0,3.076,1.5c1.09.436,2.792.594,3.4,1.678a1.364,1.364,0,0,1-.5,1.825" transform="translate(5.022 9.305)" fill="#ff9dea"/>
    <path id="Trazado_1900" data-name="Trazado 1900" d="M2.189.581,3.073.6,5.138.631C6.415.654,7.7.646,8.972.7a29.572,29.572,0,0,1,3.835.6l2.026.356a6.085,6.085,0,0,1,1.895.479.771.771,0,0,1-.177,1.4A8.292,8.292,0,0,1,14,3.609l-2.654-.062a18.69,18.69,0,0,1-2.708-.152c-.916-.158-1.829-.333-2.745-.5l-2.6-.473A16.065,16.065,0,0,1,.808,1.939,1.06,1.06,0,0,1,.036.687.883.883,0,0,1,1.158.05.66.66,0,0,1,1.6.57h0l.591.011" transform="translate(9.117 0)" fill="#ff9dea"/>
  </g>
</svg>
