<svg xmlns="http://www.w3.org/2000/svg" width="108.653" height="89.002" viewBox="0 0 108.653 89.002">
  <path id="Trazado_1897" data-name="Trazado 1897" d="M242.989,421.143c-4.54-1.145-8.7-6.185-5.471-10.789,2.263-3.227,7.072-4.213,10.729-4.152a27.094,27.094,0,0,1,10.2,2.172c-.761,7.63-7.26,14.838-15.46,12.769m44.98,12.837a70.078,70.078,0,0,0,.039-15.719c-.292-2.692-4.726-2.744-4.828.049q-.12,3.288-.246,6.57c-5.233-7.812-11.643-15.181-19.707-19.512,0-.052,0-.1-.006-.158-.98-14.382-15.221-24.514-28.868-24.624-16.308-.132-38.387,13.172-40.156,30.747a.985.985,0,0,0,1.887.478c5.517-13.56,19.679-24.676,34.346-26.38,11.552-1.342,25.566,5.836,27.8,17.751a31.771,31.771,0,0,0-8.617-1.71c-6.119-.354-13.443,1.438-16.679,7.176s-.2,12.682,5.255,15.757c11.225,6.327,22.271-2.894,24.61-13.767,6.678,4.153,12.081,10.7,16.488,17.419a60.637,60.637,0,0,0-7.1-2.586c-3.006-.881-4.829,3.669-1.8,4.556a57.488,57.488,0,0,1,13.2,5.643,2.982,2.982,0,0,0,1.9.351,2.186,2.186,0,0,0,2.47-2.041Z" transform="matrix(0.914, -0.407, 0.407, 0.914, -332.2, -230.366)" fill="#e52441"/>
</svg>
