<svg xmlns="http://www.w3.org/2000/svg" xmlns:xlink="http://www.w3.org/1999/xlink" width="1288.25" height="58" viewBox="0 0 1288.25 58">
  <defs>
    <filter id="Rectángulo_1" x="0" y="0" width="58" height="58" filterUnits="userSpaceOnUse">
      <feOffset dy="3" input="SourceAlpha"/>
      <feGaussianBlur stdDeviation="3" result="blur"/>
      <feFlood flood-opacity="0.161"/>
      <feComposite operator="in" in2="blur"/>
      <feComposite in="SourceGraphic"/>
    </filter>
    <filter id="Rectángulo_1-2" x="1230.25" y="0" width="58" height="58" filterUnits="userSpaceOnUse">
      <feOffset dy="3" input="SourceAlpha"/>
      <feGaussianBlur stdDeviation="3" result="blur-2"/>
      <feFlood flood-opacity="0.161"/>
      <feComposite operator="in" in2="blur-2"/>
      <feComposite in="SourceGraphic"/>
    </filter>
  </defs>
  <g id="Grupo_78172" data-name="Grupo 78172" transform="translate(-39.75 -336)">
    <g transform="matrix(1, 0, 0, 1, 39.75, 336)" filter="url(#Rectángulo_1)">
      <rect id="Rectángulo_1-3" data-name="Rectángulo 1" width="40" height="40" rx="8" transform="translate(9 6)" fill="#fff" opacity="0.5"/>
    </g>
    <g transform="matrix(1, 0, 0, 1, 39.75, 336)" filter="url(#Rectángulo_1-2)">
      <rect id="Rectángulo_1-4" data-name="Rectángulo 1" width="40" height="40" rx="8" transform="translate(1239.25 6)" fill="#fff" opacity="0.5"/>
    </g>
    <g id="Grupo_78154" data-name="Grupo 78154">
      <g id="WKND-icon" transform="translate(58 352)">
        <rect id="background" width="20" height="20" fill="none"/>
        <g id="Dribbble-Light-Preview" transform="translate(-140 -6639)">
          <g id="icons" transform="translate(56 160)">
            <path id="arrow_left-_350_" data-name="arrow_left-[#350]" d="M94,6499l1.435-1.393L87.828,6490H104v-2H87.828l7.586-7.586L94,6479l-10,10,10,10" fill="#202020" fill-rule="evenodd"/>
          </g>
        </g>
      </g>
      <g id="WKND-icon-2" data-name="WKND-icon" transform="translate(1289 352)">
        <rect id="background-2" data-name="background" width="20" height="20" fill="none"/>
        <g id="Dribbble-Light-Preview-2" data-name="Dribbble-Light-Preview">
          <g id="icons-2" data-name="icons">
            <path id="arrow_left-_350_2" data-name="arrow_left-[#350]" d="M94,6499l-1.435-1.393,7.607-7.607H84v-2h16.172l-7.586-7.586L94,6479l10,10-10,10" transform="translate(-84 -6479)" fill="#202020" fill-rule="evenodd"/>
          </g>
        </g>
      </g>
    </g>
  </g>
</svg>
