<svg xmlns="http://www.w3.org/2000/svg" width="167.735" height="16.908" viewBox="0 0 167.735 16.908">
  <path id="Trazado_2486" data-name="Trazado 2486" d="M228.154,221.21c-.6.059-1.206.106-1.807.184l-2.492.324a23.432,23.432,0,0,0-4.085.909,16.7,16.7,0,0,0-4.131,2.018c-.26.173-.519.362-.788.515l-.869.494c-.411.21-.824.408-1.248.575a8.584,8.584,0,0,1-1.5.43,10.9,10.9,0,0,1-1.326.091,7.8,7.8,0,0,1-1.258-.107,11.746,11.746,0,0,1-1.689-.475,14.39,14.39,0,0,1-1.716-.8,23.7,23.7,0,0,1-2.794-1.839c-.425-.324-.847-.654-1.262-1-.5-.416-.995-.833-1.513-1.214a8,8,0,0,0-1.227-.785,5.358,5.358,0,0,0-.847-.324,4.087,4.087,0,0,0-.885-.125,2.7,2.7,0,0,0-.529.065,4.515,4.515,0,0,0-.751.216,6.01,6.01,0,0,0-1.111.653q-1.089.725-2.177,1.453c-.917.616-1.844,1.219-2.794,1.748a17.927,17.927,0,0,1-1.766.781,14.635,14.635,0,0,1-2.4.648,16.758,16.758,0,0,1-2.348.209,15.34,15.34,0,0,1-2.657-.25,28.857,28.857,0,0,1-3.312-.821A18.017,18.017,0,0,1,173.9,223.6a30.841,30.841,0,0,1-2.815-1.763,20.322,20.322,0,0,0-3.232-1.906,8.243,8.243,0,0,0-1.366-.451,5.443,5.443,0,0,0-3.242.131,6.745,6.745,0,0,0-1.559.779,22.622,22.622,0,0,0-3.346,2.862c-.646.612-1.273,1.26-1.906,1.892-.53.515-1.057,1.032-1.615,1.5a11.979,11.979,0,0,1-1.83,1.265c-.3.151-.592.288-.9.41a6.308,6.308,0,0,1-1.219.335,4.2,4.2,0,0,1-.489.035,2.584,2.584,0,0,1-.351-.017,5.536,5.536,0,0,1-.966-.358,20.281,20.281,0,0,1-3.207-2.524c-.484-.486-.951-.992-1.4-1.525q-.474-.557-.947-1.116a35.466,35.466,0,0,0-2.456-2.922,7.47,7.47,0,0,0-1.18-.93,4.028,4.028,0,0,0-.736-.343l-.248-.065-.52-.089c-.084-.006-.168-.013-.252-.02l-.094,0a2.192,2.192,0,0,0-.464.051,4.432,4.432,0,0,0-.882.248,12.51,12.51,0,0,0-1.667.817c-.446.246-.884.513-1.326.774-.31.184-.627.358-.927.568l-1.419.987c-.238.165-.48.321-.711.5l-1.282,1.026c-.322.258-.651.506-.968.774L126,226.547a33.5,33.5,0,0,1-5.346,3.927c-.42.215-.842.417-1.272.6a8.653,8.653,0,0,1-1.632.477c-.234.034-.467.06-.7.078a5.193,5.193,0,0,1-1.035-.05,6.571,6.571,0,0,1-1.444-.482A9.431,9.431,0,0,1,113.116,230a25.4,25.4,0,0,1-2.011-2.439c-.318-.424-.64-.843-.96-1.265-.384-.506-.8-.969-1.223-1.423a5.912,5.912,0,0,0-1.121-.95,5.746,5.746,0,0,0-.726-.374,2.656,2.656,0,0,0-.761-.151,3.6,3.6,0,0,0-.494.07,2.741,2.741,0,0,0-.68.3,2.5,2.5,0,0,0-.607.51c-.181.22-.353.448-.522.683-.323.446-.61.944-.909,1.416-.236.372-.47.747-.707,1.122-.274.435-.561.858-.841,1.287A15.142,15.142,0,0,1,99.7,231.1a9.849,9.849,0,0,1-1.658,1.24,7.375,7.375,0,0,1-1.639.552,8.573,8.573,0,0,1-2.378-.029,14.055,14.055,0,0,1-3.641-1.35,27.5,27.5,0,0,1-3.1-2.052c-.519-.39-1.018-.819-1.516-1.248s-1-.863-1.5-1.305-1-.9-1.516-1.31a14.615,14.615,0,0,0-1.649-1.133,6.4,6.4,0,0,0-3.341-.99,4.3,4.3,0,0,0-.808.112,6.949,6.949,0,0,0-.832.231,4.935,4.935,0,0,0-.72.346c-.256.139-.51.283-.764.428a20.434,20.434,0,0,0-3.186,2.26,17.835,17.835,0,0,0-3.467,4.138,3.157,3.157,0,0,0-.337.776l-.09.334c-.036.238-.072.475-.108.714a1.1,1.1,0,0,0,.179.86.6.6,0,0,0,.679.227c.167-.06.334-.121.5-.182a3.583,3.583,0,0,0,.677-.365,1.028,1.028,0,0,0,.25-1.207.7.7,0,0,0-.415-.4,16.489,16.489,0,0,1,2.019-2.434,18.154,18.154,0,0,1,3.785-2.767c.3-.16.607-.317.914-.467a4.773,4.773,0,0,1,1.182-.378,5.216,5.216,0,0,1,1.062-.017,6.547,6.547,0,0,1,.7.189,7.007,7.007,0,0,1,1,.444,14.458,14.458,0,0,1,1.834,1.3c.69.552,1.328,1.208,1.991,1.811s1.311,1.189,1.979,1.758,1.354,1.078,2.05,1.571a18.837,18.837,0,0,0,4.281,2.293,8.991,8.991,0,0,0,4.737.51A6.939,6.939,0,0,0,99,234.814a9.483,9.483,0,0,0,1.875-1.374,13.927,13.927,0,0,0,1.753-2c.285-.391.548-.8.812-1.211.384-.6.759-1.2,1.132-1.809a23.54,23.54,0,0,1,1.441-2.2,1.29,1.29,0,0,1,.121-.085,1.56,1.56,0,0,1,.174-.065h.057a2.07,2.07,0,0,1,.31.112,5.124,5.124,0,0,1,.729.521,22.577,22.577,0,0,1,1.842,2.206c.746.986,1.486,1.973,2.308,2.862a10.761,10.761,0,0,0,1.13,1.033,7.8,7.8,0,0,0,1.464.906,5.57,5.57,0,0,0,1.447.444,6.467,6.467,0,0,0,1.75.093,9.486,9.486,0,0,0,1.453-.258,9.321,9.321,0,0,0,1.7-.617,19.187,19.187,0,0,0,3.008-1.753c1.417-.987,2.751-2.146,4.091-3.29.64-.548,1.273-1.114,1.924-1.638l2.237-1.8c.086-.068.18-.126.268-.188q.383-.267.764-.535l1.165-.816c.077-.054.159-.1.239-.144l.819-.491c.458-.273.916-.544,1.38-.8a8.821,8.821,0,0,1,1.434-.574,2.068,2.068,0,0,1,.3-.01c.083,0,.166.009.248.018a3.9,3.9,0,0,1,.6.21,7.278,7.278,0,0,1,.965.757c.936.994,1.761,2.15,2.655,3.206.559.662,1.119,1.31,1.713,1.922.537.553,1.1,1.068,1.673,1.556a20.862,20.862,0,0,0,1.911,1.391,4.623,4.623,0,0,0,1.906.764,4.318,4.318,0,0,0,.883.037,6.665,6.665,0,0,0,1.133-.2,7.737,7.737,0,0,0,1.835-.739,12.761,12.761,0,0,0,1.929-1.278,27.179,27.179,0,0,0,2.435-2.3l1.4-1.421,1.113-1.079a13.952,13.952,0,0,1,2.551-2,6.226,6.226,0,0,1,1.382-.47,6.4,6.4,0,0,1,.688-.052,3.342,3.342,0,0,1,.609.052,8.946,8.946,0,0,1,2.112.747c.592.33,1.176.684,1.748,1.068.356.238.7.5,1.057.746s.7.461,1.054.681c.68.425,1.37.82,2.074,1.18a16.648,16.648,0,0,0,2.273.909,27.549,27.549,0,0,0,4.889,1.149,14.128,14.128,0,0,0,2.511.134,17.353,17.353,0,0,0,2.473-.31,14.482,14.482,0,0,0,4.28-1.529c.877-.471,1.722-1.013,2.572-1.558,1.016-.651,2.018-1.352,3.053-1.959a4.573,4.573,0,0,1,.63-.216,1.991,1.991,0,0,1,.377,0,4.572,4.572,0,0,1,.874.308,22.71,22.71,0,0,1,2.619,2.076,26.4,26.4,0,0,0,2.774,2.083,21.216,21.216,0,0,0,2.958,1.591,10.376,10.376,0,0,0,3.543.824,9.058,9.058,0,0,0,3.16-.413,11.811,11.811,0,0,0,2.551-1.187c.354-.207.708-.409,1.051-.645l.667-.455a11.5,11.5,0,0,1,1.034-.61,18.712,18.712,0,0,1,5.255-1.642c.97-.157,1.947-.242,2.921-.358.844-.1,1.693-.15,2.538-.221,1.715-.143,3.438-.281,5.158-.273a1.411,1.411,0,0,0,1.208-1.53c0-.824-.549-1.545-1.208-1.531-1.306.028-2.609.155-3.911.276Q229.1,221.118,228.154,221.21Zm-31.791,1.548.1-.017h0Z" transform="translate(-67.428 -218.776)" fill="#e52441"/>
</svg>
