<svg xmlns="http://www.w3.org/2000/svg" width="81.84" height="54.774" viewBox="0 0 81.84 54.774">
  <path id="Trazado_2516" data-name="Trazado 2516" d="M30.427,8.955c9.6-6.959,23.387-4.71,36.945,6-3.017.728-6.142-2.423-8.743.335.059.524,0,1.034.143,1.1,4.326,2,8.63,4.073,13.042,5.873a2.159,2.159,0,0,0,3.14-1.973c.015-3.735.149-7.544-1.51-11.8L70.6,12.24C66.418,9.463,62.516,6.382,58.193,4.1c-10.21-5.386-20.558-5.736-30.614.56-1.593,1-2.819.8-4.445.263A20.561,20.561,0,0,0,3.914,7.663c-2.14,1.512-4.4,3.279-3.823,7.313A16.747,16.747,0,0,1,10.73,7.793c4.145-.922,8.223-1,12.039,1.019-.688,3.833-1.793,7.417-1.847,11.017a34.514,34.514,0,0,0,1.6,10.8,6.9,6.9,0,0,0,7.509,4.814c3.145-.34,5.517-2.656,6.2-6.441A23.011,23.011,0,0,0,32.82,12.426C32.082,11.229,31.225,10.106,30.427,8.955Zm-2.956,2.906A19.45,19.45,0,0,1,32.38,27.2c-.17,1.812-.675,3.633-2.917,3.74-1.924.092-2.784-1.444-3.224-3.013A23.4,23.4,0,0,1,27.471,11.861Z" transform="translate(72.058 54.774) rotate(-164)" fill="#e52441"/>
</svg>
