<svg xmlns="http://www.w3.org/2000/svg" width="83.789" height="71.338" viewBox="0 0 83.789 71.338">
  <path id="Trazado_2517" data-name="Trazado 2517" d="M9.034,9.062C36.539-2.374,63.493-2.771,91.378,6.655c-2.03,2.1-3.667,1.268-5.021.906-10.02-2.675-20.29-2.954-30.549-3.4C41.085,3.527,27.171,7,13.638,12.416A23.675,23.675,0,0,0,11.3,13.773c6.946,1.407,13.83-1,19.845,1.774q-.078.667-.157,1.335c-4.548.337-9.1.638-13.644,1.019-4.477.374-8.941.923-13.422,1.217C.62,19.334-.77,17.763.42,14.733c1.517-3.861,3.6-7.5,5.47-11.22a2.11,2.11,0,0,1,.937-1.064c1.094-.362,2.247-.545,3.377-.8A9.477,9.477,0,0,1,10.8,4.7C10.632,5.864,9.923,6.954,9.034,9.062Z" transform="matrix(-0.788, -0.616, 0.616, -0.788, 72.006, 71.338)" fill="#e52441"/>
</svg>
