<svg xmlns="http://www.w3.org/2000/svg" width="132.987" height="139.795" viewBox="0 0 132.987 139.795">
  <path id="Trazado_2513" data-name="Trazado 2513" d="M315.025,315.009c-12.933-3.671-50.748,2.684-61.95,10.528,1.415.3,2.446.572,3.493.738,2,.317,4.029.479,6.009.886,1.722.354,2.456,1.373,2.149,2.628-.366,1.493-1.543,1.638-2.772,1.495-5.19-.607-10.383-1.19-15.557-1.912-2.434-.34-3.145-2.044-1.9-4.213.528-.921,1.255-1.725,1.823-2.626q5.289-8.388,10.545-16.8c.282-.45.451-1.116.854-1.316.78-.388,1.856-.91,2.5-.64a2.921,2.921,0,0,1,1.3,2.214,5.344,5.344,0,0,1-.926,2.657c-1.425,2.5-2.956,4.942-4.423,7.42-.4.679-.721,1.407-1.206,2.365a6.509,6.509,0,0,0,1.225-.169c18.456-7.491,37.762-9.334,57.439-8.535a32.294,32.294,0,0,1,8.487,1.439,28.906,28.906,0,0,0,10.332,1.248A43.5,43.5,0,0,1,352.418,316a29.244,29.244,0,0,1,9.652,6.715c6.244,6.745,7.838,14.469,4.665,23.092-2.517,6.84-7.171,12.1-12.957,16.307-11.027,8.027-23.493,11.327-37.05,10.717a18.908,18.908,0,0,1-2.837-.462,2,2,0,0,1-1.847-2.216c.093-1.347,1.051-1.744,2.237-1.745.639,0,1.278.065,1.917.1a55.549,55.549,0,0,0,29.818-6.967,37.989,37.989,0,0,0,12.97-11.2,22.235,22.235,0,0,0,4.4-10.173c.848-6.35-1.426-11.555-6.2-15.65-6.023-5.166-13.234-7.028-21.506-7.359.639.918.994,1.481,1.4,2,.329.417.737.77,1.089,1.17,5.5,6.255,6.558,13.96,2.82,21.4a22.412,22.412,0,0,1-3.107,4.824c-10.395,11.724-23.48,15.842-38.669,12.827-6.81-1.353-11.724-5.508-13.5-12.6-1.184-4.719-.087-9.1,2.315-13.2a31.779,31.779,0,0,1,8.683-9.292,60.054,60.054,0,0,1,15.514-8.159C313.082,315.817,313.92,315.453,315.025,315.009Zm-7.7,41.159a41.827,41.827,0,0,0,20.832-6.9,25.647,25.647,0,0,0,8.657-9.649c2.81-5.766,2.216-11.247-2.108-15.991a32.416,32.416,0,0,0-6.491-5.074,5.594,5.594,0,0,0-3.627-.651c-10.386,1.687-19.937,5.4-27.837,12.538a24.777,24.777,0,0,0-5.242,6.748c-3.586,6.851-.931,13.953,6.272,16.738C300.8,355.094,304.139,355.445,307.33,356.168Z" transform="matrix(0.643, -0.766, 0.766, 0.643, -389.424, 86.934)" fill="#e52441"/>
</svg>
