<svg xmlns="http://www.w3.org/2000/svg" width="462.722" height="53.939" viewBox="0 0 462.722 53.939">
  <path id="Trazado_2200" data-name="Trazado 2200" d="M462.614,435.488a168.741,168.741,0,0,1,18.536-1.817c3.505-.2,7-.329,10.517-.442,5.033-.16,10.049-.281,15.087-.357,9.59-.145,19.185-.2,28.778-.221,19.225-.043,38.43-.121,57.638-.724,19.918-.625,39.837-1.2,59.752-1.845,18.884-.609,37.766-1.216,56.656-1.681,18.919-.467,37.824-.881,56.722-1.647,19.338-.783,38.7-1.2,58.063-1.544,9.187-.16,18.4-.367,27.547-1q7.16-.5,14.3-1.093c4.664-.382,9.352-.634,14.033-.918a121.831,121.831,0,0,1,12.9.028,10.1,10.1,0,0,0,7.033-2.952q1.291-1.657,2.578-3.312a18.906,18.906,0,0,0,0-18.073q-1.288-1.655-2.578-3.312a10.1,10.1,0,0,0-7.033-2.952c-2.377.12-4.749.279-7.126.384-2.166.1-4.338.089-6.506.1-4.636.022-9.266.126-13.893.249-9.622.258-19.227.666-28.853.85-18.647.357-37.31.394-55.936,1.1-9.987.374-19.962.809-29.949,1.174-9.073.333-18.155.552-27.236.769q-28.991.688-57.952,1.679c-19.069.646-38.143,1.245-57.209,1.9q-15.811.54-31.628,1c-9.447.272-18.918.31-28.372.374-19.354.131-38.712.22-58.04.956-4.76.18-9.514.424-14.254.786-3.848.292-7.7.7-11.489,1.221-2.931.4-5.761,1.034-8.605,1.634a24.775,24.775,0,0,0-4.719,1.515,12.62,12.62,0,0,0-5.922,5.555,18.241,18.241,0,0,0-1.713,14.047,15.8,15.8,0,0,0,4.324,7.607q1.653,1.1,3.312,2.2a9.593,9.593,0,0,0,7.622,0A24.979,24.979,0,0,1,462.614,435.488Z" transform="matrix(1, 0.017, -0.017, 1, -435.355, -399.299)" fill="#e52441"/>
</svg>
