<svg xmlns="http://www.w3.org/2000/svg" width="202.271" height="12.614" viewBox="0 0 202.271 12.614">
  <path id="Trazado_2515" data-name="Trazado 2515" d="M264.342,645.953c-4.419-.334-8.844-.573-13.267-.86-1.459-.094-2.923-.1-4.382-.149l-9.5-.314c-1.764-.059-3.529-.131-5.293-.175-.511-.013-1.022-.018-1.534-.018-1.148,0-2.3.022-3.446.024q-7.838.012-15.675.023c-1.243,0-2.487.04-3.73.063q-4.62.076-9.238.155c-3.474.06-6.95.083-10.423.194l-16.864.54c-3.255.1-6.511.162-9.764.33q-8.409.432-16.816.86c-3.063.155-6.128.285-9.189.506q-8.694.624-17.389,1.253c-3.1.224-6.2.389-9.288.731q-8.656.951-17.312,1.906-1.871.205-3.742.412c-2.491.274-4.975.7-7.459,1.062l-.468.083a1.713,1.713,0,0,0-.775.584,2.765,2.765,0,0,0,0,3.213,1.523,1.523,0,0,0,1.243.665c3-.436,5.991-.9,9-1.229q4.178-.46,8.355-.917l9.119-1c1.224-.134,2.451-.312,3.678-.4q7.108-.51,14.218-1.011l8.863-.632c1.221-.087,2.441-.2,3.662-.259,4.7-.242,9.395-.465,14.09-.7l8.54-.422c.956-.047,1.913-.107,2.871-.137q7.607-.229,15.214-.449l8.5-.252c1.009-.029,2.016-.073,3.024-.086l15.69-.208c3.264-.044,6.524-.084,9.787-.073l16.662.052c1.1,0,2.19.062,3.286.1l9.2.349q3.449.133,6.9.262c1.63.063,3.261.22,4.891.333,4.8.335,9.6.681,14.393,1.068,1.218.1,2.435.218,3.654.333,1.305.122,2.614.241,3.914.432.2.043.4.093.607.148a1.6,1.6,0,0,0,1.466-.247,2.493,2.493,0,0,0,.874-1.471,2.637,2.637,0,0,0-1.329-3.026,12.76,12.76,0,0,0-2.683-.555q-.925-.122-1.85-.241c-1.187-.154-2.382-.233-3.57-.349C268.812,646.247,266.575,646.121,264.342,645.953Z" transform="translate(-78.272 -644.439)" fill="#e52441"/>
</svg>
