<svg xmlns="http://www.w3.org/2000/svg" width="196.764" height="12.912" viewBox="0 0 196.764 12.912">
  <path id="Trazado_2510" data-name="Trazado 2510" d="M259.276,645.989c-4.3-.342-8.6-.586-12.905-.88-1.419-.1-2.843-.1-4.263-.152l-9.243-.321c-1.716-.06-3.433-.134-5.149-.179-.5-.013-.994-.018-1.492-.018-1.117,0-2.235.023-3.352.025q-7.625.012-15.249.024c-1.209,0-2.42.041-3.628.064q-4.494.078-8.987.159c-3.38.061-6.76.085-10.139.2l-16.4.553c-3.166.106-6.334.166-9.5.338q-8.18.442-16.358.88c-2.98.159-5.961.292-8.939.518q-8.458.639-16.915,1.283c-3.013.229-6.029.4-9.035.748q-8.42.974-16.841,1.951-1.82.21-3.64.422c-2.423.28-4.839.717-7.256,1.087l-.455.085a1.677,1.677,0,0,0-.754.6,2.951,2.951,0,0,0,0,3.289,1.462,1.462,0,0,0,1.209.681c2.917-.446,5.828-.921,8.753-1.258q4.064-.471,8.128-.938l8.871-1.023c1.19-.137,2.384-.319,3.578-.409q6.915-.522,13.831-1.035l8.621-.647c1.187-.089,2.375-.2,3.562-.265,4.569-.248,9.139-.476,13.707-.714q4.153-.218,8.307-.432c.93-.048,1.861-.11,2.792-.14q7.4-.234,14.8-.46l8.265-.258c.982-.03,1.962-.075,2.942-.088l15.263-.213c3.175-.045,6.346-.086,9.52-.075l16.208.053c1.065,0,2.131.063,3.2.105l8.946.357q3.355.137,6.711.268c1.586.064,3.173.225,4.758.341,4.668.343,9.334.7,14,1.093,1.185.1,2.369.223,3.554.341,1.27.125,2.542.247,3.808.442.2.044.393.095.59.152a1.49,1.49,0,0,0,1.426-.253,2.578,2.578,0,0,0,.851-1.506,2.749,2.749,0,0,0-1.293-3.1,11.875,11.875,0,0,0-2.61-.568q-.9-.125-1.8-.247c-1.154-.158-2.317-.238-3.473-.357C263.625,646.29,261.448,646.161,259.276,645.989Z" transform="translate(-78.272 -644.439)" fill="#e52441"/>
</svg>
