<svg xmlns="http://www.w3.org/2000/svg" width="28.275" height="14.552" viewBox="0 0 28.275 14.552">
  <path id="Trazado_2865" data-name="Trazado 2865" d="M106.085,107.581c0-.623-.008-1.246,0-1.868q.117-7.949.24-15.9c.009-.578-.005-1.159.041-1.734.064-.792.213-1.719,1.232-1.532.408.075.922.946.952,1.479.25,4.424.406,8.853.573,13.282a7.093,7.093,0,0,0,.55,3.134,37.078,37.078,0,0,1,2.112-3.609c.388-.53,1.287-1.16,1.785-1.04,1.1.266.944,1.412.607,2.175-1.588,3.608-3.114,7.259-4.988,10.718-1.2,2.216-3,2.2-4.191-.007-1.594-2.951-2.824-6.1-4.124-9.2-.157-.375.224-.974.355-1.469.5.166,1.182.185,1.454.529a16.99,16.99,0,0,1,1.426,2.5c.48.887.95,1.778,1.424,2.667Z" transform="matrix(0.035, 0.999, -0.999, 0.035, 110.753, -103.796)" fill="#ffd64f"/>
</svg>
