<svg width="273" height="64" viewBox="0 0 273 64" fill="none" xmlns="http://www.w3.org/2000/svg">
<path d="M0.978789 29.5594C0.861334 29.5594 0.704728 29.5594 0.587273 29.5202C0.469819 29.4811 0.352363 29.4028 0.234909 29.3245C0.156606 29.2462 0.0783025 29.1287 0.039151 28.9721C-5.97989e-07 28.8547 0 28.6981 0 28.5806V3.13208C0 3.01463 -5.97989e-07 2.85802 0.039151 2.74057C0.0783025 2.62311 0.156606 2.50566 0.234909 2.38821C0.313212 2.3099 0.430667 2.2316 0.587273 2.19245C0.704728 2.1533 0.861334 2.15329 0.978789 2.15329H9.82704C11.4323 2.11414 12.9983 2.42736 14.4469 3.05378C15.6998 3.6019 16.7569 4.50239 17.5399 5.59863C18.2838 6.73403 18.6753 8.06518 18.6361 9.43549C18.6361 12.1761 17.4224 14.0945 14.9559 15.1516C16.4828 15.5431 17.814 16.4045 18.8319 17.579C19.7324 18.7927 20.2022 20.3196 20.1239 21.8465C20.1631 22.9428 19.9281 23.9999 19.4975 24.9787C19.0277 25.9574 18.3621 26.8188 17.5007 27.4844C15.7389 28.8938 13.3507 29.5985 10.3752 29.5985L0.978789 29.5594ZM5.59867 13.5856H9.04401C11.5889 13.5856 12.8809 12.411 12.8809 10.0228C12.8809 7.59536 11.7063 6.38166 9.35722 6.38166H5.59867V13.5856ZM5.59867 25.331H10.2577C12.9592 25.331 14.2903 24.0782 14.2903 21.5333C14.2903 18.9102 12.8417 17.6182 9.98365 17.6182H5.59867V25.331Z" fill="white"/>
<path d="M30.1465 30.1466C28.3455 30.1466 26.9361 29.5985 25.9573 28.5414C24.9394 27.4843 24.4695 25.9966 24.4695 24.1173V10.2968C24.4695 10.1793 24.4695 10.0227 24.5087 9.90527C24.5478 9.78781 24.6261 9.67036 24.7044 9.5529C24.7828 9.43545 24.9002 9.3963 25.0568 9.35715C25.1743 9.318 25.3309 9.31799 25.4483 9.31799H29.246C29.3635 9.31799 29.5201 9.318 29.6375 9.35715C29.755 9.3963 29.8725 9.4746 29.9899 9.5529C30.0682 9.63121 30.1465 9.74866 30.1857 9.90527C30.2248 10.0227 30.2248 10.1793 30.2248 10.2968V22.5121C30.2248 24.6654 31.1645 25.7225 33.0046 25.7225C34.4532 25.6833 35.8626 25.2527 37.0372 24.4696V10.3359C37.0372 10.2185 37.0372 10.0619 37.0763 9.94442C37.1155 9.82697 37.1938 9.70951 37.2721 9.59205C37.3504 9.51375 37.4679 9.43545 37.6245 9.3963C37.7419 9.35714 37.8985 9.35715 38.016 9.35715H41.8137C41.9311 9.318 42.0877 9.35714 42.2052 9.3963C42.3227 9.43545 42.4401 9.51375 42.5576 9.59205C42.6359 9.67036 42.7142 9.78781 42.7533 9.94442C42.7925 10.0619 42.7925 10.2185 42.7925 10.3359V28.5806C42.7925 28.698 42.7925 28.8546 42.7533 28.9721C42.7142 29.0895 42.6359 29.207 42.5576 29.3244C42.4793 29.4027 42.3618 29.481 42.2052 29.5202C42.0877 29.5594 41.9311 29.5593 41.8137 29.5593H38.9556C38.6816 29.5593 38.4466 29.481 38.2509 29.3244C38.0551 29.1678 37.8985 28.9329 37.8594 28.6589L37.507 27.406C36.4108 28.3065 35.1971 28.9721 33.8659 29.481C32.6914 29.9509 31.3994 30.1466 30.1465 30.1466Z" fill="white"/>
<path d="M51.0929 38.212C50.0749 38.212 49.0961 38.0554 48.1173 37.8205C47.8433 37.7421 47.6084 37.6247 47.4126 37.3898C47.256 37.1157 47.2168 36.8025 47.256 36.4893V34.6492C47.256 34.0619 47.4909 33.7487 47.9999 33.7487C48.2348 33.7487 48.4697 33.7487 48.7046 33.7878C48.9787 33.827 49.2527 33.827 49.5268 33.827C50.4664 33.8661 51.3669 33.5921 52.1108 33.044C52.7372 32.535 53.2462 31.6345 53.6377 30.3817L53.7552 29.951L46.3164 11.0016C46.1598 10.6884 46.0814 10.3361 46.0423 10.0228C46.0423 9.63133 46.2772 9.43557 46.7862 9.43557H50.7796C51.0929 9.39642 51.4061 9.47472 51.6801 9.67048C51.915 9.86624 52.1108 10.1794 52.1499 10.4927L56.3783 24.5872L60.3718 10.4927C60.4501 10.1794 60.6067 9.90539 60.8807 9.70963C61.1548 9.51387 61.468 9.43557 61.7812 9.47472H65.6572C66.1662 9.47472 66.4011 9.67048 66.4011 10.062C66.362 10.4144 66.2837 10.7276 66.1271 11.0408L58.101 32.4175C57.318 34.4926 56.4175 36.0195 55.3212 36.92C54.1075 37.7813 52.6198 38.2511 51.0929 38.212Z" fill="white"/>
<path d="M88.326 29.5596H84.9589C84.6457 29.5988 84.3325 29.5205 84.0585 29.3247C83.8235 29.0898 83.6669 28.8157 83.5886 28.5417L77.8725 10.9235C77.7551 10.6103 77.6768 10.297 77.6768 9.98383C77.6768 9.55317 77.9508 9.35741 78.4598 9.35741H82.4532C82.7665 9.31826 83.0797 9.43571 83.3146 9.59232C83.5495 9.78808 83.7061 10.0621 83.7452 10.3754L86.9165 23.9218L90.3227 10.3362C90.401 10.023 90.5576 9.74893 90.8317 9.55317C91.1057 9.35741 91.419 9.27911 91.7322 9.31826H94.6294C94.9426 9.27911 95.2558 9.35741 95.5299 9.55317C95.8039 9.74893 95.9605 10.023 96.0388 10.3362L99.5233 23.9609L102.499 10.3362C102.538 10.023 102.695 9.74893 102.93 9.55317C103.164 9.35741 103.478 9.27911 103.791 9.31826H107.628C108.176 9.31826 108.411 9.51402 108.411 9.94469C108.411 10.2579 108.332 10.5711 108.215 10.8843L102.46 28.5025C102.421 28.8157 102.225 29.1289 101.99 29.2856C101.716 29.4813 101.403 29.5596 101.089 29.5205H97.7223C97.4091 29.5596 97.0959 29.4422 96.861 29.2464C96.6261 29.0506 96.4304 28.7766 96.3912 28.4634L93.1416 15.2693L89.8529 28.4634C89.7746 28.7766 89.618 29.0506 89.3439 29.2464C88.9916 29.5205 88.6783 29.5988 88.326 29.5596Z" fill="white"/>
<path d="M114.636 6.2251C113.775 6.26425 112.874 5.99019 112.209 5.40292C111.621 4.81564 111.308 3.99346 111.308 3.13212C111.308 2.30994 111.621 1.48776 112.209 0.861339C112.913 0.313217 113.736 0.0391516 114.636 0C115.497 0 116.359 0.274063 117.063 0.822185C117.651 1.44861 117.964 2.23164 117.964 3.09298C117.964 3.91516 117.651 4.73734 117.063 5.36377C116.359 5.95104 115.497 6.26425 114.636 6.2251ZM112.718 29.5594C112.6 29.5594 112.444 29.5594 112.326 29.5203C112.209 29.4811 112.091 29.4028 111.974 29.3245C111.895 29.2462 111.817 29.1288 111.778 28.9722C111.739 28.8547 111.739 28.6981 111.739 28.5806V10.336C111.739 10.2186 111.739 10.062 111.778 9.9445C111.817 9.82705 111.895 9.70959 111.974 9.59213C112.052 9.47468 112.169 9.43553 112.326 9.39637C112.444 9.35722 112.6 9.35723 112.718 9.35723H116.515C116.633 9.35723 116.789 9.35722 116.907 9.39637C117.024 9.43553 117.142 9.51383 117.259 9.59213C117.337 9.67044 117.416 9.78789 117.455 9.9445C117.494 10.062 117.494 10.2186 117.494 10.336V28.5806C117.494 28.6981 117.494 28.8547 117.455 28.9722C117.416 29.0896 117.337 29.2071 117.259 29.3245C117.181 29.4028 117.063 29.4811 116.907 29.5203C116.789 29.5594 116.633 29.5594 116.515 29.5594H112.718Z" fill="white"/>
<path d="M130.492 29.8729C128.26 29.8729 126.577 29.3639 125.52 28.3068C124.463 27.2497 123.915 25.6053 123.915 23.4128V13.625H121.84C121.722 13.625 121.566 13.625 121.448 13.5858C121.331 13.5467 121.213 13.4684 121.096 13.3901C121.017 13.3117 120.939 13.1943 120.9 13.0377C120.861 12.9202 120.861 12.7636 120.861 12.6462V11.0018C120.861 10.7277 120.939 10.4537 121.096 10.2579C121.292 10.0622 121.526 9.90556 121.8 9.90556L124.071 9.43574L124.776 4.93331C124.776 4.6201 124.893 4.34604 125.128 4.11113C125.363 3.95452 125.598 3.87622 125.872 3.87622H128.691C128.809 3.87622 128.965 3.87622 129.083 3.91537C129.2 3.95452 129.318 4.03282 129.435 4.11113C129.552 4.18943 129.592 4.30689 129.631 4.46349C129.67 4.58095 129.67 4.73755 129.67 4.85501V9.31828H134.133C134.251 9.31828 134.407 9.31829 134.525 9.35744C134.642 9.39659 134.76 9.47489 134.877 9.5532C134.995 9.6315 135.034 9.74895 135.073 9.90556C135.112 10.023 135.112 10.1796 135.112 10.2971V12.607C135.112 12.7245 135.112 12.8811 135.073 12.9985C135.034 13.116 134.955 13.2334 134.877 13.3509C134.799 13.4292 134.681 13.5075 134.525 13.5467C134.407 13.5858 134.251 13.5858 134.133 13.5858H129.67V23.1388C129.67 24.0001 129.866 24.5874 130.296 24.9006C130.727 25.253 131.432 25.4096 132.45 25.4096C132.841 25.4096 133.272 25.3704 133.663 25.2921C133.977 25.253 134.251 25.2138 134.564 25.2138C134.995 25.2138 135.229 25.4879 135.229 26.0752V27.9936C135.269 28.3068 135.19 28.62 135.073 28.8941C134.916 29.129 134.642 29.2856 134.368 29.3247C133.781 29.4813 133.194 29.6379 132.567 29.7162C131.902 29.8337 131.197 29.8729 130.492 29.8729Z" fill="white"/>
<path d="M143.608 29.5594H139.81C139.693 29.5594 139.536 29.5594 139.419 29.5203C139.301 29.4811 139.184 29.4028 139.066 29.3245C138.988 29.2462 138.91 29.1287 138.871 28.9721C138.832 28.8547 138.832 28.6981 138.832 28.5806V1.25284C138.832 1.13538 138.832 0.978776 138.871 0.861321C138.91 0.743867 138.988 0.626408 139.066 0.508954C139.145 0.430651 139.262 0.352347 139.419 0.313196C139.536 0.274044 139.693 0.274048 139.81 0.274048H143.608C143.725 0.274048 143.882 0.274044 144 0.313196C144.117 0.352347 144.234 0.430651 144.352 0.508954C144.43 0.587257 144.509 0.704715 144.548 0.861321C144.587 0.978776 144.587 1.13538 144.587 1.25284V11.1582C146.662 9.63127 149.128 8.76993 151.712 8.73078C153.592 8.73078 155.04 9.23976 156.058 10.2577C157.076 11.2756 157.585 12.7242 157.585 14.6035V28.5806C157.585 28.6981 157.585 28.8547 157.546 28.9721C157.507 29.0896 157.429 29.2071 157.35 29.3245C157.272 29.4028 157.154 29.4811 156.998 29.5203C156.88 29.5594 156.724 29.5594 156.606 29.5594H152.809C152.691 29.5594 152.535 29.5594 152.417 29.5203C152.3 29.4811 152.182 29.4028 152.065 29.3245C151.986 29.2462 151.908 29.1287 151.869 28.9721C151.83 28.8547 151.83 28.6981 151.83 28.5806V16.3262C151.83 14.2512 150.851 13.1941 148.933 13.1941C147.406 13.2332 145.879 13.703 144.626 14.5252V28.5806C144.626 28.6981 144.626 28.8547 144.587 28.9721C144.548 29.0896 144.469 29.2071 144.391 29.3245C144.313 29.4028 144.195 29.4811 144.039 29.5203C143.882 29.5594 143.725 29.5986 143.608 29.5594Z" fill="white"/>
<mask id="mask0_1_111" style="mask-type:luminance" maskUnits="userSpaceOnUse" x="170" y="0" width="103" height="64">
<path d="M272.82 0.0390625H170.915V63.8561H272.82V0.0390625Z" fill="white"/>
</mask>
<g mask="url(#mask0_1_111)">
<path fill-rule="evenodd" clip-rule="evenodd" d="M263.034 51.244C251.885 59.4923 235.691 63.8561 221.767 63.8561C202.244 63.8561 184.662 56.642 171.369 44.61C170.335 43.6768 171.268 42.3903 172.504 43.0966C186.857 51.4458 204.589 56.4906 222.927 56.4906C235.287 56.4906 248.883 53.9177 261.394 48.6207C263.286 47.8387 264.875 49.8819 263.034 51.244Z" fill="white"/>
<path fill-rule="evenodd" clip-rule="evenodd" d="M267.675 45.9469C266.262 44.1307 258.241 45.0892 254.659 45.518C253.575 45.6442 253.398 44.7109 254.382 44.0046C260.764 39.5147 271.232 40.8011 272.442 42.3146C273.678 43.828 272.114 54.3213 266.136 59.3409C265.203 60.1228 264.345 59.694 264.749 58.685C266.086 55.305 269.087 47.763 267.675 45.9469Z" fill="white"/>
</g>
<path d="M171.773 37.2953C171.495 37.3205 171.243 37.2448 171.041 37.0683C170.94 36.9674 170.89 36.8413 170.84 36.7151C170.789 36.589 170.789 36.4377 170.789 36.3115V10.2803C170.764 10.1541 170.789 10.0028 170.84 9.87666C170.89 9.75054 170.94 9.62442 171.041 9.52353C171.243 9.37218 171.521 9.2965 171.773 9.32173H174.573C174.825 9.2965 175.077 9.37218 175.279 9.52353C175.481 9.67487 175.607 9.90189 175.657 10.1794L175.91 11.1883C176.717 10.4064 177.675 9.80099 178.735 9.39741C179.819 8.9686 180.954 8.74158 182.115 8.74158C184.637 8.74158 186.63 9.67487 188.093 11.5162C189.556 13.3576 190.287 15.8548 190.287 19.0078C190.287 21.1771 189.934 23.0437 189.203 24.658C188.572 26.1462 187.563 27.4327 186.251 28.3912C184.99 29.274 183.502 29.7281 181.963 29.7028C180.929 29.7028 179.895 29.5263 178.911 29.1983C178.003 28.8957 177.171 28.4164 176.439 27.7858V36.3368C176.464 36.4629 176.464 36.6142 176.439 36.7404C176.414 36.8665 176.338 36.9926 176.237 37.0935C176.137 37.1944 176.01 37.2701 175.884 37.2953C175.758 37.3205 175.607 37.3457 175.481 37.2953H171.773ZM180.324 25.3895C181.787 25.3895 182.846 24.885 183.552 23.9013C184.234 22.9175 184.587 21.3536 184.587 19.2096C184.587 17.0403 184.259 15.4764 183.578 14.4927C182.897 13.5089 181.812 13.0045 180.349 13.0297C179.012 13.0297 177.675 13.3828 176.515 14.0891V24.3553C177.65 25.0364 178.962 25.3895 180.324 25.3895Z" fill="white"/>
<path d="M195.156 29.2486C195.029 29.2738 194.878 29.2486 194.752 29.2234C194.626 29.1729 194.5 29.1225 194.399 29.0216C194.298 28.9207 194.222 28.8198 194.197 28.6685C194.147 28.5423 194.147 28.391 194.172 28.2649V10.2801C194.147 10.1539 194.172 10.0026 194.222 9.87648C194.273 9.75036 194.323 9.62424 194.424 9.52334C194.626 9.372 194.903 9.29633 195.156 9.29633H197.955C198.208 9.2711 198.46 9.34677 198.662 9.49812C198.864 9.64946 198.99 9.87648 199.04 10.1539L199.545 12.2475C200.604 11.1125 201.588 10.2801 202.496 9.80081C203.404 9.32155 204.413 9.0693 205.447 9.0693H206.002C206.279 9.04408 206.557 9.11976 206.784 9.29633C206.885 9.39722 206.935 9.52334 206.986 9.64946C207.036 9.77558 207.036 9.92693 207.011 10.0531V13.3322C207.036 13.5844 206.96 13.8619 206.809 14.0637C206.708 14.1646 206.582 14.215 206.456 14.2655C206.33 14.3159 206.179 14.3159 206.052 14.3159C205.876 14.3159 205.624 14.3159 205.346 14.2655C205.069 14.215 204.69 14.2403 204.261 14.2403C203.53 14.2655 202.798 14.3411 202.067 14.4925C201.31 14.6186 200.579 14.8456 199.872 15.1483V28.2649C199.898 28.5423 199.822 28.7946 199.645 28.9964C199.545 29.0973 199.418 29.1477 199.292 29.1982C199.166 29.2486 199.015 29.2486 198.889 29.2486H195.156Z" fill="white"/>
<path d="M212.61 6.2441C211.753 6.29455 210.895 5.99185 210.239 5.43692C209.659 4.83154 209.331 4.0496 209.331 3.2172C209.331 2.38481 209.659 1.57763 210.239 0.997475C210.92 0.467768 211.753 0.190308 212.61 0.190308C213.468 0.190308 214.3 0.467768 214.981 0.997475C215.562 1.60285 215.889 2.38481 215.889 3.2172C215.889 4.0496 215.562 4.85677 214.981 5.43692C214.326 5.99185 213.468 6.26932 212.61 6.2441ZM210.719 29.2485C210.592 29.2737 210.441 29.2737 210.315 29.2233C210.189 29.1728 210.063 29.1224 209.962 29.0215C209.861 28.9206 209.785 28.8197 209.76 28.6684C209.71 28.5422 209.71 28.3909 209.735 28.2648V10.28C209.71 10.1538 209.735 10.0025 209.785 9.87637C209.836 9.75025 209.886 9.62413 209.987 9.52324C210.189 9.37189 210.466 9.29622 210.719 9.29622H214.452C214.578 9.271 214.729 9.271 214.855 9.29622C214.981 9.32144 215.108 9.39711 215.208 9.49801C215.309 9.59891 215.385 9.72503 215.41 9.85115C215.435 9.97727 215.461 10.1286 215.41 10.2547V28.29C215.435 28.5675 215.36 28.8197 215.183 29.0215C215.082 29.1224 214.956 29.1728 214.83 29.2233C214.704 29.2737 214.553 29.2737 214.426 29.2737H210.719V29.2485Z" fill="white"/>
<path d="M221.262 29.2488C221.136 29.274 220.985 29.274 220.859 29.2236C220.733 29.1731 220.607 29.1227 220.506 29.0218C220.405 28.9209 220.329 28.82 220.304 28.6686C220.253 28.5425 220.253 28.3912 220.279 28.265V10.2802C220.253 10.1541 220.279 10.0028 220.329 9.87666C220.379 9.75054 220.43 9.62442 220.531 9.52352C220.733 9.37217 221.01 9.2965 221.262 9.2965H224.062C224.314 9.27128 224.567 9.34695 224.768 9.49829C224.97 9.64964 225.096 9.87666 225.147 10.1541L225.45 11.2135C226.61 10.4064 227.846 9.77576 229.183 9.27128C230.293 8.89292 231.428 8.69112 232.588 8.71634C234.934 8.71634 236.573 9.54874 237.532 11.2135C238.692 10.4064 239.953 9.77576 241.29 9.2965C242.451 8.91814 243.687 8.71634 244.923 8.71634C246.739 8.71634 248.151 9.22083 249.16 10.2298C250.169 11.2388 250.674 12.6513 250.674 14.4927V28.2903C250.699 28.5425 250.623 28.82 250.447 29.0218C250.346 29.1227 250.22 29.1731 250.094 29.2236C249.967 29.274 249.816 29.274 249.69 29.274H245.932C245.805 29.2992 245.654 29.2992 245.528 29.2488C245.402 29.1983 245.276 29.1479 245.175 29.047C245.074 28.9461 244.998 28.8452 244.973 28.6939C244.923 28.5677 244.923 28.4164 244.948 28.2903V15.7791C244.948 14.0134 244.166 13.1306 242.577 13.1306C241.114 13.1558 239.651 13.4837 238.314 14.1395V28.2903C238.339 28.5677 238.263 28.82 238.087 29.0218C237.986 29.1227 237.86 29.1731 237.734 29.2236C237.608 29.274 237.456 29.274 237.33 29.274H233.597C233.471 29.2992 233.319 29.2992 233.193 29.2488C233.067 29.1983 232.941 29.1479 232.84 29.047C232.739 28.9461 232.664 28.8452 232.638 28.6939C232.588 28.5677 232.588 28.4164 232.613 28.2903V15.7791C232.613 14.0134 231.831 13.1306 230.242 13.1306C228.754 13.1306 227.291 13.5089 225.954 14.19V28.3155C225.979 28.5677 225.904 28.8452 225.727 29.047C225.626 29.1479 225.5 29.1983 225.374 29.2488C225.248 29.2992 225.096 29.2992 224.97 29.2992L221.262 29.2488Z" fill="white"/>
<path d="M264.194 29.8288C260.965 29.8288 258.493 28.9459 256.753 27.1802C255.012 25.4145 254.155 22.8669 254.155 19.5625C254.155 16.1825 255.037 13.534 256.803 11.5917C258.569 9.67469 261.041 8.69095 264.169 8.71617C266.59 8.71617 268.482 9.29633 269.844 10.4819C271.206 11.6422 271.887 13.2061 271.887 15.1735C271.887 17.1158 271.156 18.604 269.693 19.5878C268.23 20.5967 266.06 21.1012 263.185 21.1012C261.873 21.1264 260.587 20.9751 259.325 20.6724C259.477 22.4129 260.007 23.6741 260.889 24.4056C261.772 25.1371 263.134 25.5407 264.976 25.5407C265.682 25.5407 266.388 25.4902 267.095 25.4145C268.053 25.2632 269.012 25.0614 269.97 24.8092C270.046 24.7839 270.121 24.7587 270.197 24.7587C270.273 24.7587 270.323 24.7335 270.399 24.7335C270.828 24.7335 271.055 25.0362 271.055 25.6416V27.4325C271.08 27.7352 271.029 28.0379 270.878 28.3153C270.702 28.5171 270.475 28.6937 270.197 28.7694C268.305 29.4756 266.262 29.854 264.194 29.8288ZM262.907 17.5951C264.244 17.5951 265.203 17.3933 265.783 16.9897C266.388 16.5861 266.666 15.9807 266.691 15.1231C266.691 13.4835 265.707 12.6764 263.765 12.6764C261.268 12.6764 259.83 14.215 259.426 17.2671C260.587 17.4942 261.747 17.5951 262.907 17.5951Z" fill="white"/>
</svg>
