<svg xmlns="http://www.w3.org/2000/svg" width="110.961" height="12.019" viewBox="0 0 110.961 12.019">
  <path id="Trazado_2864" data-name="Trazado 2864" d="M172.793,220.362c-.395.038-.791.069-1.184.12l-1.633.211a15.441,15.441,0,0,0-2.678.592,10.979,10.979,0,0,0-2.708,1.315c-.171.113-.34.236-.516.336l-.57.322c-.27.137-.54.266-.818.374a5.654,5.654,0,0,1-.984.28,7.19,7.19,0,0,1-.87.059,5.143,5.143,0,0,1-.825-.07,7.738,7.738,0,0,1-1.107-.31,9.462,9.462,0,0,1-1.125-.519,15.542,15.542,0,0,1-1.832-1.2c-.279-.211-.555-.426-.827-.649-.328-.271-.652-.543-.992-.791a5.251,5.251,0,0,0-.8-.511,3.525,3.525,0,0,0-.555-.211,2.7,2.7,0,0,0-.58-.081,1.783,1.783,0,0,0-.347.042,2.976,2.976,0,0,0-.493.141,3.946,3.946,0,0,0-.729.425q-.714.472-1.427.947c-.6.4-1.209.794-1.832,1.139a11.793,11.793,0,0,1-1.158.509,9.642,9.642,0,0,1-1.575.422,11.054,11.054,0,0,1-1.539.136,10.118,10.118,0,0,1-1.742-.163,19.018,19.018,0,0,1-2.171-.535,11.854,11.854,0,0,1-1.946-.776,20.237,20.237,0,0,1-1.845-1.149,13.341,13.341,0,0,0-2.119-1.242,5.428,5.428,0,0,0-.9-.294,3.589,3.589,0,0,0-2.125.085,4.432,4.432,0,0,0-1.022.508,14.8,14.8,0,0,0-2.194,1.865c-.423.4-.835.821-1.249,1.233-.347.336-.693.672-1.059.977a7.855,7.855,0,0,1-1.2.824c-.194.1-.388.187-.588.267a4.156,4.156,0,0,1-.8.219,2.766,2.766,0,0,1-.32.023,1.709,1.709,0,0,1-.23-.011,3.644,3.644,0,0,1-.633-.233,13.283,13.283,0,0,1-2.1-1.644c-.317-.317-.623-.646-.919-.994l-.621-.727a23.143,23.143,0,0,0-1.61-1.9,4.893,4.893,0,0,0-.774-.606,2.649,2.649,0,0,0-.482-.223l-.162-.042-.341-.058-.165-.013-.062,0a1.444,1.444,0,0,0-.3.033,2.919,2.919,0,0,0-.578.162,8.219,8.219,0,0,0-1.093.532c-.292.161-.58.335-.869.5-.2.12-.411.234-.608.37l-.93.643c-.156.108-.315.209-.466.328l-.841.669c-.211.168-.427.329-.634.5l-1.561,1.318a21.953,21.953,0,0,1-3.5,2.559c-.275.14-.552.272-.834.389a5.7,5.7,0,0,1-1.07.311c-.153.022-.306.039-.461.051a3.424,3.424,0,0,1-.679-.033,4.327,4.327,0,0,1-.947-.314,6.179,6.179,0,0,1-.951-.712,16.573,16.573,0,0,1-1.318-1.589c-.208-.277-.419-.549-.629-.824-.252-.329-.525-.631-.8-.927a3.871,3.871,0,0,0-.735-.619,3.776,3.776,0,0,0-.476-.243,1.75,1.75,0,0,0-.5-.1,2.367,2.367,0,0,0-.324.046,1.8,1.8,0,0,0-.446.2,1.635,1.635,0,0,0-.4.332c-.119.143-.231.292-.342.445-.212.291-.4.615-.6.923-.155.242-.308.487-.463.731-.18.283-.368.559-.551.838a9.876,9.876,0,0,1-1.216,1.5,6.454,6.454,0,0,1-1.087.808,4.857,4.857,0,0,1-1.074.359,5.656,5.656,0,0,1-1.559-.019,9.249,9.249,0,0,1-2.387-.88,18.034,18.034,0,0,1-2.033-1.337c-.34-.254-.668-.533-.994-.813s-.658-.562-.983-.85-.653-.586-.994-.854a9.588,9.588,0,0,0-1.081-.738,4.213,4.213,0,0,0-2.19-.645,2.838,2.838,0,0,0-.53.073,4.572,4.572,0,0,0-.546.15,3.245,3.245,0,0,0-.472.225c-.168.091-.334.184-.5.279a13.4,13.4,0,0,0-2.089,1.472,11.634,11.634,0,0,0-2.273,2.7,2.05,2.05,0,0,0-.221.505l-.059.217c-.024.155-.047.31-.071.465a.71.71,0,0,0,.118.56.4.4,0,0,0,.445.148l.329-.119a2.354,2.354,0,0,0,.444-.238.667.667,0,0,0,.164-.786.46.46,0,0,0-.272-.259,10.758,10.758,0,0,1,1.324-1.586,11.9,11.9,0,0,1,2.482-1.8c.2-.1.4-.207.6-.3a3.142,3.142,0,0,1,.775-.247,3.439,3.439,0,0,1,.7-.011A4.313,4.313,0,0,1,75,223.4a4.608,4.608,0,0,1,.657.29,9.478,9.478,0,0,1,1.2.847c.453.359.87.787,1.3,1.18s.859.775,1.3,1.146.888.7,1.344,1.023a12.375,12.375,0,0,0,2.806,1.494,5.927,5.927,0,0,0,3.105.332,4.568,4.568,0,0,0,1.405-.486,6.214,6.214,0,0,0,1.229-.895,9.093,9.093,0,0,0,1.149-1.3c.187-.255.359-.52.532-.789.252-.389.5-.783.742-1.179a15.326,15.326,0,0,1,.944-1.436.845.845,0,0,1,.079-.055,1.025,1.025,0,0,1,.114-.042h.037a1.358,1.358,0,0,1,.2.073,3.36,3.36,0,0,1,.478.339,14.733,14.733,0,0,1,1.207,1.437c.489.642.974,1.285,1.513,1.864a7.041,7.041,0,0,0,.741.673,5.117,5.117,0,0,0,.96.59,3.668,3.668,0,0,0,.948.289,4.264,4.264,0,0,0,1.147.061,6.255,6.255,0,0,0,.953-.168,6.134,6.134,0,0,0,1.114-.4,12.6,12.6,0,0,0,1.972-1.142c.929-.643,1.8-1.4,2.682-2.144.419-.357.835-.726,1.261-1.067l1.466-1.174c.056-.045.118-.082.176-.123l.5-.349.764-.532c.05-.035.1-.063.157-.094l.537-.32c.3-.178.6-.354.9-.521a5.8,5.8,0,0,1,.94-.374,1.363,1.363,0,0,1,.2-.006c.054,0,.109.006.163.012a2.567,2.567,0,0,1,.393.137,4.768,4.768,0,0,1,.633.493c.614.647,1.154,1.4,1.74,2.089.367.431.733.853,1.123,1.252.352.36.72.7,1.1,1.014a13.675,13.675,0,0,0,1.253.906,3.041,3.041,0,0,0,1.25.5,2.85,2.85,0,0,0,.579.024,4.393,4.393,0,0,0,.743-.132,5.09,5.09,0,0,0,1.2-.482,8.368,8.368,0,0,0,1.265-.833,17.776,17.776,0,0,0,1.6-1.5l.919-.926.73-.7a9.139,9.139,0,0,1,1.672-1.3,4.1,4.1,0,0,1,.906-.306,4.222,4.222,0,0,1,.451-.034,2.206,2.206,0,0,1,.4.034,5.889,5.889,0,0,1,1.384.487c.388.215.771.446,1.146.7.234.155.462.325.693.486s.459.3.691.444c.446.277.9.534,1.36.769a10.952,10.952,0,0,0,1.49.592,18.153,18.153,0,0,0,3.2.748,9.32,9.32,0,0,0,1.646.088,11.445,11.445,0,0,0,1.621-.2,9.532,9.532,0,0,0,2.806-1c.575-.307,1.129-.66,1.686-1.015.666-.424,1.323-.881,2-1.276a3.006,3.006,0,0,1,.413-.141,1.312,1.312,0,0,1,.247,0,3.009,3.009,0,0,1,.573.2,14.873,14.873,0,0,1,1.717,1.353,17.3,17.3,0,0,0,1.818,1.357,13.939,13.939,0,0,0,1.939,1.037,6.837,6.837,0,0,0,2.323.537,5.972,5.972,0,0,0,2.071-.269,7.765,7.765,0,0,0,1.672-.773c.232-.135.464-.267.689-.42l.437-.3a7.558,7.558,0,0,1,.678-.4,12.322,12.322,0,0,1,3.445-1.07c.636-.1,1.277-.158,1.915-.234.553-.065,1.11-.1,1.664-.144,1.124-.093,2.254-.183,3.381-.178a1.024,1.024,0,0,0,0-1.994c-.856.018-1.711.1-2.564.18Q173.412,220.3,172.793,220.362Zm-20.841,1.008.066-.011h0Z" transform="translate(-66.928 -218.276)" fill="#ffd64f" stroke="#ffd64f" stroke-width="1"/>
</svg>
