<svg xmlns="http://www.w3.org/2000/svg" width="253.993" height="64.457" viewBox="0 0 253.993 64.457">
  <g id="Grupo_77852" data-name="Grupo 77852" transform="translate(-211.133 -322.156) rotate(-2)">
    <path id="Trazado_3094" data-name="Trazado 3094" d="M286.277,384.8h0l-.028.038Z" transform="translate(63.118 1.716)" fill="#fff"/>
    <path id="Trazado_3095" data-name="Trazado 3095" d="M334.007,373.977a.4.4,0,0,1-.038.017.184.184,0,0,1,0,.023Z" transform="translate(105.306 1.554)" fill="#fff"/>
    <path id="Trazado_3096" data-name="Trazado 3096" d="M262.241,386.448c.006-.014.012-.03.018-.044-.019,0-.04,0-.058,0Z" transform="translate(45.639 1.839)" fill="#fff"/>
    <path id="Trazado_3097" data-name="Trazado 3097" d="M421.252,359.9c-.717-.045-.563-.435-.6-.738a.588.588,0,0,0-.791-.408c-.824.487-1.461-.146-2.2-.069a13.307,13.307,0,0,1-4.325-.588c-.5-.11-.622-.151-.755.23a1.484,1.484,0,0,1-1.2.773,2.146,2.146,0,0,1-.083.544c-.024.066-.223.112-.352.144a.283.283,0,0,1-.157-.141,5.142,5.142,0,0,1-.079-.537,3.613,3.613,0,0,1-.858-.082c-.62-.21-.955-.8-1.765-.725s-1.2-.519-1.969-.458c-.435.034-.755-.229-1.107-.268-.99-.111-1.067-.7-1.506-1.106-.04-.036-.045-.142-.026-.146.181-.048.465-.152.544-.107a1.951,1.951,0,0,0,2.328-.164,16.854,16.854,0,0,1,2.357-.858,2.239,2.239,0,0,1,1.969-.078.89.89,0,0,0,.777.005c.908-.292,2.036-.059,2.893-.549a1.366,1.366,0,0,1,.891-.01,8.651,8.651,0,0,0,4.169.338,20.058,20.058,0,0,0,2.871-.52c.028-.005.052-.1.024-.128a.4.4,0,0,0-.224-.134c-1.093-.022-1.967-.122-.943-1.023.021-.018-.052-.123-.1-.128a8.385,8.385,0,0,0-3.554.126c-.527.172-.5-.087-.53-.246a.536.536,0,0,0-.582-.387,3.336,3.336,0,0,0-1.164.13c-.807.322-1.264-.163-1.815-.334-.19-.059-.193-.5-.138-.761.038-.183.326-.3.684-.312a12.073,12.073,0,0,0,1.491-.115c.105-.015.247-.239.205-.334a1.515,1.515,0,0,0-1.556-.775c-.376.031-.725.269-1.095.279a10.939,10.939,0,0,1-1.079-.234.5.5,0,0,0-.563.34l-.585,0c-.071-.424-.715-.357-1.073-.536a2.089,2.089,0,0,0-2.411.2.86.86,0,0,1-1.009.117c-.307-.137-.857-.049-1.128-.2-1.079-.6-2.575-.214-3.694-.774-.47-.235-1.123.082-1.648.263a3,3,0,0,0-2.029-.254c-.767.062-1.428-.622-2.2-.1-.712-.616-1.375-.24-2.092.014a.5.5,0,0,1-.642-.3c-.081-.337-.05-.685-.121-1.024a.257.257,0,0,0-.411-.132,1.633,1.633,0,0,1-1.632-.039,5.54,5.54,0,0,0-2.834-.537c-.15.019-.344-.114-.516-.177.23-.093.454-.2.693-.279.307-.109.439-.288.368-.5-.1-.3-.791-.69-1.019-.573a2.459,2.459,0,0,1-2.472-.114c-.337-.169-1-.021-1.506-.067-.611-.056-.4-.614-.889-.738a4.927,4.927,0,0,0-.872-.068c-.216-.534-.908-.342-1.44-.393-.748.6-1.364.011-2.031-.107-.048-.008-.11-.106-.09-.135a.371.371,0,0,1,.221-.132c.294-.032.6-.022.888-.066a.907.907,0,0,0,.482-.2.354.354,0,0,0,.022-.386,1.11,1.11,0,0,0-1.081-.459c-.269.057-.451.185-.7-.048-.682-.633-.819-.692-1.406-.192-.625.534-1.126.175-1.693.069-.062.1-.105.24-.2.26-.32.065-.371-.113-.427-.266a2.181,2.181,0,0,1-1.561-.415,3.093,3.093,0,0,0-.66-.336c-.668.669-1.946.038-2.675.566-.05.036-.055.1-.071.159-.494.02-.99.025-1.477.068-.3.027-.333.153-.131.288.394.261.169.437-.145.649-.432.29-.686.1-.953-.1a1.82,1.82,0,0,0-1.261-.5,3.04,3.04,0,0,1-2.088-.657,1.526,1.526,0,0,0-1.394-.562,1.219,1.219,0,0,1-1.335-.583c-.411-.637-.719-.623-1.948-.354-1.086.237-1.35.144-1.677-.6a2.047,2.047,0,0,0-.138-.387c-.385-.558-1.406-.51-1.979-.9a1.355,1.355,0,0,0-.446.222,1.69,1.69,0,0,0-.456.512c-.114.247.145.6-.309.739a6.192,6.192,0,0,1-1.173.12,16.4,16.4,0,0,1-4.11-.431,2.076,2.076,0,0,1,.188-.353c.428-.559.363-.981-.382-1.144-.434-.1-.953.223-1.508-.106a5.248,5.248,0,0,0-1.658-.453,5.958,5.958,0,0,0-1.221.015.363.363,0,0,0-.221.136c-.021.026.047.12.1.131a2.6,2.6,0,0,1,1.435.722.367.367,0,0,1,.066.391.671.671,0,0,1-.743.224,3.575,3.575,0,0,0-3.126-.07,1.8,1.8,0,0,1-1.14.057c-.943-.693-2.506-.029-3.433-.757-.15-.117-.772.013-1.164.068-.188.027-.338.2-.522.211a16.751,16.751,0,0,1-4.56-.058,9.827,9.827,0,0,0-1.154-.213c-1.313-.107-1.777.226-1.257,1.038.288.453.254.565-.43.629-.3.028-.3.14-.142.288.13.126.525.342,0,.441a8.223,8.223,0,0,0-2.337.346,5.811,5.811,0,0,1-3.166.569,2.957,2.957,0,0,0-1.75.26,1.251,1.251,0,0,1-.827.013,1.743,1.743,0,0,0-1.665-.035,2.012,2.012,0,0,1-1.717-.09,26.693,26.693,0,0,0-3.178-.571,12,12,0,0,0-3.492.59,1.965,1.965,0,0,1-1.4-.008,1.378,1.378,0,0,0-.824-.094c-.7.449-2.183.063-2.38,1.016a.47.47,0,0,1-.223.009c-.637-.483-1.059.168-1.629.138a3.344,3.344,0,0,0-2.026.35.932.932,0,0,1-.831-.08,3.306,3.306,0,0,0-2.57-.065,12.245,12.245,0,0,1-4.39.611,3.06,3.06,0,0,0-2.021.339c-1.7.009-3.423.393-5.057-.269-.5-.2-1.15-.083-1.737-.3-.416-.154-1.014.29-1.661.257a4.016,4.016,0,0,0-1.064.338.579.579,0,0,1-.739-.453c-.04-.135.005-.288-.071-.409a.693.693,0,0,0-.366-.182c-.72.4-1.8.178-2.5.715a4.256,4.256,0,0,1-1.808.7,4.348,4.348,0,0,0-2.116.739,1.509,1.509,0,0,1-1.423.122,5.426,5.426,0,0,0-2.352-.352,7.514,7.514,0,0,1-2.957-.355,1.08,1.08,0,0,0-1.411.483c-.107.276-.587.37-1,.177a3.965,3.965,0,0,0-3.145.1,9.481,9.481,0,0,0-1.461.734c-.62.322-.608.673-.112,1.051a.221.221,0,0,1,.06.157,1.377,1.377,0,0,1-.554.107,4.7,4.7,0,0,0-1.991-.375,2.894,2.894,0,0,1-1.76-.242c-.789-.463-1.211.345-1.931.269a6.807,6.807,0,0,1-1.135-.249,2.8,2.8,0,0,0-2.739.3c-.271.239-.534.223-1,.124-.955-.2-1.908-.7-3.019-.218a1.361,1.361,0,0,1-.874-.063c-.489-.263-.8-.091-1.29.012a4.67,4.67,0,0,0-1.48.691c-.408.231-.537.169-.646-.292-.017-.067,0-.139-.012-.207-.109-.463-.23-.524-.646-.288-1.463.83-2.929,1.455-4.917.643a.952.952,0,0,0-1.33.517c-.086.335-.447.023-.687-.019-.421-.073-.852.412-1.292,0a1.212,1.212,0,0,0-.452.149,2.678,2.678,0,0,1-1.908.537c-.827-.1-1.529.318-2.3.229-.371-.042-.7-.274-1.116-.1a18.337,18.337,0,0,0-3.174,1.2,1.939,1.939,0,0,1-1.086.323,6.67,6.67,0,0,0-3.52,1.082.926.926,0,0,1-.841.072,1.087,1.087,0,0,0-1.045-.05,6.19,6.19,0,0,1-3.159.6c-.572-.038-.986.072-1.053.529-.026.172-.288.227-.439.113-.51-.385-1.271.37-1.807-.2-.117-.127-.713.019-.77.365.56.041.96.33,1,.6.055.361-.57.209-.91.222a1.745,1.745,0,0,0-1.219.566c-.288.273-.413.642-.76.863-.423.272-1.028.411-1.506.652-.563.283-.161.813-.561,1.144a6.415,6.415,0,0,0-1,.774c-.218.284-.041.639-.28.978-.382.541-1.169,1.006-1.031,1.659.154.729-.644,1.3-.613,1.972a3.018,3.018,0,0,1-.834,2.139c-.515.591-.1,1.275-.515,1.785-.444.544-1.642.681-1.9,1.45-.173.512-.33.488.4.605,1.319.21,1.61.43,1.573,1.194-.009.205.086.475-.069.605-.527.441-.048.968-.413,1.462a2.079,2.079,0,0,0-.116,1.635c.126.6-.589,1.01-.582,1.574.016,1.246-.036,2.492-.048,3.738a1.482,1.482,0,0,0,.511,1.149c.357.345.245.79-.214,1.131-.416.308-.86.6-1.273.907a.327.327,0,0,0-.029.563,3.2,3.2,0,0,0,2.235.759c.321-.008.572-.067.637.163a2.562,2.562,0,0,1,.05.828c-.012.244.159.423.468.457.67.074.765.348.753.732-.021.672-.207,1.235-1.385,1.39-.392.052-.392.256-.136.416.446.279.917.541,1.4.793a23.3,23.3,0,0,0,4.471,1.66c.641.178.4.3.212.565-.064.088.2.391.4.442a12.121,12.121,0,0,0,3.142.645,4.823,4.823,0,0,1,2.3.415,6.48,6.48,0,0,0,1.378.4,1.12,1.12,0,0,0,.6,0c.587-.314,1.259-.058,1.877-.164a25.4,25.4,0,0,0,4.442-1.281,7.485,7.485,0,0,1,3.477-.61,4.1,4.1,0,0,0,2.364-.3,1.766,1.766,0,0,1,1.157.022,5.194,5.194,0,0,0,2.665.3c.962-.04,1.649.155,1.948.747a1.937,1.937,0,0,0,2.074.944c.166-.007.342.14.518.21a2.476,2.476,0,0,0,1.727,0c1.085-.324,2.223-.567,3.323-.874.983-.274,2.337-.662,3.083.452.206.307.644-.321.941-.078a3.735,3.735,0,0,0,2.722.7c1.13-.062,2.271-.024,3.406-.038a6.192,6.192,0,0,0,3.606-.839,3.55,3.55,0,0,1,1.672-.418c.264-.007.5-.256.779-.293.318-.041.551.406.991.114.326-.217.518-.059.566.151.088.368.285.465.756.221a3.49,3.49,0,0,1,.516-.172c.06-.229.259-.367.6-.41-.026-.325-.335-.427-.774-.428l-5.971-.006c.033-.316.432-.31.769-.427a18.056,18.056,0,0,1,2.439-.753,1.89,1.89,0,0,0,1.579,0,8.055,8.055,0,0,1,1.834-.04,2.729,2.729,0,0,0,1.444-.239c.428-.256.971.343,1.518-.092.257-.2.993-.1,1.4-.26.465-.183.819.111,1.034.063a4.9,4.9,0,0,1,1.416-.293c.82.03,1.648,0,2.471,0,.72,0,1.442,0,2.162-.006a20.427,20.427,0,0,1,2.466-.01c.81.094,1.4-.628,1.971-.327.884.468,1.466-.181,2.235-.084a13.71,13.71,0,0,0,2.465-.017,6.65,6.65,0,0,0,2.686-.25c.822-.4,1.52.1,2.268.229a.534.534,0,0,0,.3-.019,4.117,4.117,0,0,1,2.63-.346c1.066.066,1.865-.46,2.941-.417,1.846.073,3.706-.018,5.561-.006a4.456,4.456,0,0,1,2.613.38.831.831,0,0,0,.566-.046c.57-.519,1.021.059,1.525.053.192-.558.914-.339,1.432-.395a1,1,0,0,1,1,.292c.126.2.017.587.667.32a14.335,14.335,0,0,1,1.577-.548c.252-.071.625-.118.788.121a.378.378,0,0,1-.074.561,2.151,2.151,0,0,0-.361.476,9.771,9.771,0,0,1,2.639.1,6.983,6.983,0,0,0,4.083.118.776.776,0,0,1,.725.066c.554.355,1.446,0,1.986.437a.863.863,0,0,0,.836.008,1.354,1.354,0,0,1,1.366-.11c.615.366,1.138-.423,1.594-.1.547.382,1.126-.111,1.58.135.675.367,1.1-.049,1.651-.166a2.647,2.647,0,0,1,1.185.083,1.58,1.58,0,0,0,1.085.026c.345-.109.867.316,1.283-.053.568.353,1.064.05,1.592-.068.883-.2,1.718.3,2.579.119.466-.1.862.344,1.345-.012.269-.2.591.365,1.021.085a2.569,2.569,0,0,1,1.458-.207,3.468,3.468,0,0,0,2.009-.342,1.679,1.679,0,0,1,1.133-.022,4.641,4.641,0,0,0,2.342.331c.824-.007,1.651.043,2.47,0,.889-.048,1.869.195,2.646-.3a5.379,5.379,0,0,0,2.3.335,3.229,3.229,0,0,0,.881-.118c.128-.038.171-.2.247-.317a5.01,5.01,0,0,1-1.644-.972c-.344-.234-.088-.55.515-.662a5.351,5.351,0,0,1,.568-.043c.6-.5.831-.521,1.174-.038.207.289.3.514.739.195a1.645,1.645,0,0,1,2.067-.245,1.85,1.85,0,0,0,1.162.062,8,8,0,0,1,4.979-.059,1.028,1.028,0,0,0,.848-.03,3.131,3.131,0,0,1,1.744-.27c2.271,0,4.541,0,6.812.01a5.584,5.584,0,0,0,1.105-.278,3.048,3.048,0,0,1,1.041.254,5.717,5.717,0,0,0,1.012.269c.518-.484,1.387.395,1.8-.23,1.328.021,2.61-.923,4-.076a1.272,1.272,0,0,0,.869-.033c.691-.569,1.4.306,1.863.013.876-.554,1.456.285,2.212.108a1.033,1.033,0,0,1,.511.172c.214.11.171.731-.114.958-.3.241-.6.6-1.181.209a.239.239,0,0,0-.376.153.4.4,0,0,0,.359.5c1.791.24,3.7-.346,5.44.33.028.01.288-.153.309-.249.078-.366.3-.5.713-.194a2.627,2.627,0,0,0,1.874.559c1.095-.075,2.262.226,3.28-.287.024-.013.314.13.332.214.071.354.263.494.736.239a1,1,0,0,1,1.088.007c.437.291.7-.107.995-.084.361.028.61.313,1.079.328a4.936,4.936,0,0,1,2.648.343,1.4,1.4,0,0,0,.813-.11,9.248,9.248,0,0,1,4.074-.675,4.12,4.12,0,0,0,2.091-.149c.9-.554,1.489.228,2.247.139.449-.585,1.263.174,1.836-.23a1.684,1.684,0,0,1,1.143-.1,2.678,2.678,0,0,0,2.23.026,5.5,5.5,0,0,1,2.434-.018,7.306,7.306,0,0,0,2.237.031c.38-.027.767.3,1.307.024.506-.258.9.177,1.364.261.627.114,1.028-.462,1.7-.308a1.3,1.3,0,0,1,.259.113,1.178,1.178,0,0,0,1.109.118,6.524,6.524,0,0,1,2.677-.3c.606-.052,1.238.043,1.851.007.485-.029.7.516,1.318.2a8.518,8.518,0,0,1,1.6-.571,3.9,3.9,0,0,1,.914-.023c.826-.006,1.655-.043,2.475-.007a7.026,7.026,0,0,0,2.235-.581c.366-.09.073-.021-.076-.116-.549-.354.188-.616.048-.843a2.27,2.27,0,0,0-2.546-1.412,2.326,2.326,0,0,1-.594-.056.928.928,0,0,1-.25-.119c.071-.041.138-.116.212-.12a21.679,21.679,0,0,0,2.744-.136c.967-.174,1.851-.659,2.81-.023a2.6,2.6,0,0,1,1.684-.342,6.147,6.147,0,0,1,2.921.364c.948-.377,1.877-.779,2.857-1.116a.726.726,0,0,1,.924.32c.178.311,1.313.539,1.473.345.425-.512,1.328-.976.969-1.614a1.149,1.149,0,0,1-.062-1.23c.112-.213-.171-.387-.544-.355-.174.016-.432.082-.48.168a3.87,3.87,0,0,0-.143.6,1.39,1.39,0,0,1-.276.329,2.429,2.429,0,0,1-.491-.245,1.517,1.517,0,0,1-.449-.515c-.186-.488-.485-.233-.819-.1a.992.992,0,0,1-.554.083,5.448,5.448,0,0,0-2.624-.369,3.349,3.349,0,0,1-1.758-.264.88.88,0,0,0-.49.088,1.158,1.158,0,0,1-1.527-.285,3.054,3.054,0,0,0-2.527-1.188c-.725-.054-1.361-.289-2.022-.366-.736-.085-1.294-.429-2-.458a5.386,5.386,0,0,1-2.313-.427c-.128-.067-.4,0-.606-.016-.546-.048-.893.481-1.646.129a6.636,6.636,0,0,0-2.1-.133,2.835,2.835,0,0,0-1.447.25,3.6,3.6,0,0,1-1.342.427,13.758,13.758,0,0,1-1.375-.244c-.82-.045-1.672.068-2.468-.033-.884-.113-1.589.463-2.579.112a9.017,9.017,0,0,0-2.439-.111,4.575,4.575,0,0,1-.615.016c-.537-.09-.9.455-1.364.226-.556-.273-1.209-.119-1.765-.3a12.564,12.564,0,0,0-2.344-.014,1.716,1.716,0,0,1-.843-.067,1.466,1.466,0,0,0-2.129-.02,1.634,1.634,0,0,1-1.434.069,1.6,1.6,0,0,0-1.057-.035,10.034,10.034,0,0,1-2.109.132c-.622.005-1.237-.558-1.87-.008-.722,0-1.454.04-2.162-.028a7.6,7.6,0,0,1-1.4-.388c-.216-.064-.408-.434-.269-.529s.3-.24.442-.237a5.879,5.879,0,0,1,2.686.225,1.145,1.145,0,0,0,1.118-.035,2.183,2.183,0,0,1,1.152-.209c1,.045,2.066-.219,2.95.332a.876.876,0,0,0,.572-.029,5.569,5.569,0,0,1,2.667-.323c.927-.007,1.855-.026,2.781-.039a3.284,3.284,0,0,1,2.832-.006c.428.134.962.16,1.447.267.364.081.876-.211,1.335-.236,2.019-.116,4.095.274,6.066-.332.351-.107.584.365,1.078.18a4.6,4.6,0,0,1,1.145-.231c.332-.031.674-.1.713-.3.154-.762,1.009-.7,1.589-.481a2.629,2.629,0,0,0,2.5-.013c.782.564.867.075,1.081-.3.047-.082.269-.12.439-.171a.391.391,0,0,0-.5-.366c-.376.053-.7.257-1.076.345-.572.134-.919-.215-1.363-.348-.522-.156-.765.471-1.332.176a2.209,2.209,0,0,0-.82-.223c-.4-.028-.82.026-1.23.032-.368.005-.554.484-1.022.179-.275-.179-.672-.309-.651-.625.61-.2,1.247-.374,1.815-.62a2.782,2.782,0,0,1,1.768-.154,4.357,4.357,0,0,0,3.142,0,.468.468,0,0,1,.3,0c1.3.638,2.793.237,4.188.35a7.513,7.513,0,0,0,2.611-.458c.328-.084.411-.3.33-.5a.623.623,0,0,0-.408-.257,3.254,3.254,0,0,1-1.421-.3,6.659,6.659,0,0,0-4.168-.964c-1.028.032-2.066.043-3.088-.012-.995-.055-2.066.172-2.978-.331-.136-.075-.546.065-.826.118s-.648.23-.822.165a8.02,8.02,0,0,0-2-.413c-.3-.03-.325-.16-.107-.292.076-.046.126-.109.2-.16.389-.28.846-.447.351-.984a1.489,1.489,0,0,0-1.344-.61,1.762,1.762,0,0,1-.529-.165c.233-.084.465-.174.7-.251s.29-.165.185-.3c-.314-.406-.952-.474-1.468-.672-.117-.045-.162-.24-.145-.361a.249.249,0,0,1,.375-.163c.9.525,2.123-.022,2.924.33a3.589,3.589,0,0,0,2.827-.021.483.483,0,0,1,.3,0c.751.519,1.843.177,2.606.428,1.61.528,3.43.111,4.993.645.7-.451,1.231.3,1.95.111.408-.108.719-.2.746-.511a.733.733,0,0,0-.384-.749c-.373-.231.036-.348.15-.5.1-.134.062-.273-.2-.272a2.306,2.306,0,0,0-.822.193c-.226.093-.368.139-.485.028a.353.353,0,0,1-.105-.179c-.052-.241.154-.383.463-.444.192-.037.411,0,.615-.022,1.394-.128,2.872.23,4.2-.345.176-.077.563.059.848.1a7.888,7.888,0,0,0,1.164.193c2.677.024,5.357.023,8.036.028a.777.777,0,0,0,.3-.021.718.718,0,0,0,.264-.26c.021-.037-.119-.1-.164-.166-.384-.531-1.035.058-1.515-.167a7.066,7.066,0,0,1-1.066-.38c-.492-.377-.9.2-1.3,0-1.235-.623-2.905.15-4.1-.588a.529.529,0,0,0-.245.067c-1.014.532-1.646-.217-2.468-.327,0-.633-.855-.758-1.432-.884a15.674,15.674,0,0,0-2.815-.6c-.3-.012-.551-.04-.694-.236a2.3,2.3,0,0,1,.541-.153c1.133-.026,2.266-.019,3.4-.054a1.465,1.465,0,0,0,.8-.22c.145-.138.1-.367.121-.566.489-.021.981-.026,1.463-.081a.453.453,0,0,0,.3-.307c.024-.111-.088-.336-.157-.339-1.1-.05-2-.605-3.148-.541-.61.034-1.233-.022-1.841.02a3.5,3.5,0,0,1-1.962-.337,2.55,2.55,0,0,1-1.693.317c-1.485-.124-3.064.3-4.47-.335-.029-.013-.162.072-.244.112a1.93,1.93,0,0,1-1.7.076c-.693-.37-1.123.289-1.642.1a4.643,4.643,0,0,0-1.643-.384c-.074-.292.093-.665-.535-.779C421.758,358.979,421.42,359.176,421.252,359.9Zm-1.542-6.121c.043-.009.114.034.174.053,0,.04.022.094-.007.119a.223.223,0,0,1-.356-.068C419.511,353.872,419.634,353.8,419.71,353.783Zm-8.33-3.433c.009.017.016.035.024.053a.9.9,0,0,1,.375.11c.114.107-.031.209-.2.139-.1-.043-.131-.152-.18-.249-.026-.005-.054-.009-.078-.015Zm-1.1.185c.135-.05.278-.087.42-.126l.007-.061.064.04-.071.021c-.014.153-.038.3-.392.262C410.283,350.668,410.256,350.543,410.278,350.535Zm-.05,1.12c.128.007.238.142.359.22a2.2,2.2,0,0,1-.549.107c-.123-.006-.231-.131-.345-.2A1.91,1.91,0,0,1,410.228,351.655Zm-3.952-.435a3.862,3.862,0,0,1,.876.009c.133.017.235.14.352.215a.845.845,0,0,1-.231.118c-.183.031-.377.037-.565.055-.19-.019-.382-.026-.565-.059a.8.8,0,0,1-.228-.121C406.035,351.361,406.142,351.235,406.276,351.22Zm-195.349,3.6-.259-.133.19-.117.169.131Zm29.658-5.78a.2.2,0,0,1-.105-.049c-.035-.027-.069-.058-.1-.082.04-.021.081-.052.121-.077a.212.212,0,0,1,.117-.041c.074,0,.14.09.209.141C240.744,348.974,240.661,349.046,240.585,349.043Zm10.6,41.145-.174-.055.188-.176.181.12Zm3.4.1c-.024.007-.054.011-.081.018-.047.1-.079.215-.181.265-.154.077-.313-.029-.2-.145a.886.886,0,0,1,.383-.12c.009-.019.016-.038.024-.055Zm55.333-2.534a.766.766,0,0,1-.5-.053.536.536,0,0,1-.283-.323l.19-.336c.276.153.561.3.813.469C310.167,387.53,310.025,387.733,309.918,387.755Zm5.093-.075c-.516.215-1.325.1-1.525-.234-.057-.094.081-.24.147-.4l1.527.5C315.111,387.592,315.077,387.653,315.011,387.68Zm13.4-.533c-.014-.024.129-.084.2-.124.071.047.216.114.2.135C328.672,387.361,328.517,387.357,328.408,387.148Zm3.915-47.226c-.028.008-.147-.081-.176-.136-.009-.016.007-.036.029-.059s.05-.048.067-.069c.034,0,.073,0,.109,0a.235.235,0,0,1,.092.012C332.612,339.751,332.57,339.85,332.324,339.921Zm4.339,46.968c-.024.007-.13-.073-.159-.122-.016-.026.052-.074.081-.111a.6.6,0,0,1,.188.009C336.919,386.736,336.881,386.823,336.662,386.89Zm5.033.392c-.772-.461-1.209-.026-1.66.3-.2.139-.3.168-.473.034-.553-.423-1.062-.205-1.582.045-.024.011-.33-.155-.311-.2.175-.369.389-.73.6-1.089.036-.06.154-.155.192-.147.18.04.345.11-.133-.056,1.484.56,2.44.234,3.288.449a.43.43,0,0,1,.271.319C341.9,387.046,341.766,387.165,341.695,387.281Zm2.313-.276a2.85,2.85,0,0,1-.582.271c-.311-.212-.233-.4-.107-.572.167-.226.521-.192.758-.121C344.553,386.726,344.146,386.895,344.007,387.006Zm1.328.282c-.028.007-.133-.074-.164-.124-.014-.026.057-.075.09-.114a.6.6,0,0,1,.188.01C345.6,387.136,345.565,387.225,345.336,387.288Zm1.577-.525a1.445,1.445,0,0,1-.047.322c-.019.055-.147.146-.181.138-.14-.031-.354-.084-.375-.151a1.07,1.07,0,0,1-.024-.58c.026-.109.207-.2.318-.3a3.194,3.194,0,0,1,.3.315C346.945,386.559,346.912,386.635,346.912,386.762Zm1.185-46.756c-.054.1-.088.232-.193.271-.188.068-.347-.047-.23-.148a1.1,1.1,0,0,1,.423-.122.389.389,0,0,1,.021-.044l.045.03Zm21.54,3.534a.28.28,0,0,1-.183.033c-.079-.032-.188-.091-.192-.142-.021-.312-.019-.626-.024-.939-.019,0-.035,0-.054,0l.054-.033v.037c.306,0,.539.118.556.306A2.253,2.253,0,0,1,369.638,343.54Zm11.724,1.3a.481.481,0,0,1-.2-.022c-.036-.221.171-.236.387-.246l.031-.045.062.04-.093,0A2.047,2.047,0,0,1,381.361,344.841Zm3.081,1.878.174.12-.2.1-.178-.062Zm2.691,40.724c-.038.2-.287.336-.653.3-.351-.037-.51-.173-.511-.4,0-.128,0-.255,0-.382-.019,0-.031.009-.052.011,0-.01-.005-.019-.005-.029-.62.053-.492.506-.81.718-.262.175-.886.052-.984-.189-.268-.662.247-1.036,1.307-.925.3.031.487.177.487.4.021,0,.035-.006.057-.007v.025c.437-.059.6-.265.644-.548.009-.057.15-.159.164-.153.135.047.357.107.363.172A3.413,3.413,0,0,1,387.133,387.443Zm.962-.134c-.022.007-.136-.079-.166-.132-.016-.031.052-.083.083-.124a.592.592,0,0,1,.19,0C388.361,387.139,388.325,387.236,388.1,387.309Zm.116-.883-.268-.13.187-.119.171.131Zm1.888.793c-.107.106-.238.08-.332-.076-.012-.02.107-.089.181-.112.035-.01.109.036.155.055C390.1,387.133,390.13,387.189,390.1,387.219Zm.623-.839c-.114.1-.249.076-.351-.069-.01-.014.111-.085.187-.1.041-.01.114.033.168.051C390.726,386.3,390.751,386.354,390.722,386.38Zm.539,1.271c-.1-.075-.282-.15-.287-.23-.007-.117.114-.238.18-.358a1.51,1.51,0,0,1,.326.237C391.593,387.448,391.5,387.57,391.261,387.65Zm1.278-9.952-.268-.134.19-.124.173.135Zm2.363.433-.188-.144c.073-.04.155-.12.218-.114a.229.229,0,0,1,.107.053c.033.027.066.059.1.084Zm55.235,5.176.185.123-.2.115-.178-.053Zm-29.558-2.152h0l.5.117c-.073.076-.166.223-.216.217a7.762,7.762,0,0,1-.762-.164Zm-1.755.019a1.741,1.741,0,0,1,.5.165l-.535.147h0l-.48-.166A1.792,1.792,0,0,1,418.824,381.174Zm-7-.437c.7-.021,1.4-.023,2.1,0a1.319,1.319,0,0,1,.446.2,2.045,2.045,0,0,1-.5.184c-.294.031-.6.008-1.313.008.016,0-.383-.007-.781-.034a.441.441,0,0,1-.223-.117C411.627,380.887,411.725,380.739,411.824,380.737Zm-3.867.034q1.192-.008,2.38.009c.083,0,.162.076.243.116-.043.043-.072.1-.133.125-.351.12-.708.233-1.066.344a1.262,1.262,0,0,1-1.509-.315c-.064-.052-.164-.121-.15-.169S407.874,380.771,407.957,380.771Zm-4.822-.022c.281-.032.586-.012,1.421-.011l-.024,0c-.206-.01-.131-.018,0,0,.026,0,.036,0,.074,0h-.05c.019,0,.036,0,.055.008a1.432,1.432,0,0,1,.382.21.9.9,0,0,1-.216.135,5.461,5.461,0,0,0-.8.224c-.472.235-.686-.036-.967-.181-.074-.038-.18-.129-.159-.157C402.912,380.887,403.019,380.761,403.135,380.749Zm-.52-24.093c-.057.226-.249.352-.6.351-.307,0-.613,0-1.005,0-.109-.017-.306-.037-.492-.079a1.046,1.046,0,0,1-.245-.123,1.8,1.8,0,0,1,.245-.123c.444-.149.877-.32,1.342-.428a.768.768,0,0,1,.763.2C402.66,356.506,402.632,356.589,402.615,356.656Zm10.28,3.616c-.028.007-.13-.072-.159-.121-.016-.024.057-.073.091-.11a.623.623,0,0,1,.188.015C413.164,360.127,413.123,360.212,412.895,360.272Zm1.235-.408c-.028.007-.128-.071-.161-.119-.016-.023.052-.069.081-.1a.628.628,0,0,1,.192.009C414.39,359.717,414.351,359.8,414.13,359.864Zm1.665,7.328c-.01-.02.142-.081.221-.123.069.048.212.119.2.139C416.069,367.4,415.907,367.394,415.794,367.192Zm2.055-6.926c-.064-.05-.183-.1-.178-.148s.143-.129.2-.121a.23.23,0,0,1,.11.055c.036.028.069.06.1.085l-.107.057Zm5.155,13.845c.47-.086.672.078.715.366l.059-.02-.052.039-.007-.02a4.538,4.538,0,0,0-.67.25c-.216.114-.342.126-.442-.035a.463.463,0,0,1-.059-.174C422.511,374.288,422.715,374.164,423.005,374.111Zm-1.5-13.9a2.042,2.042,0,0,1-.181-.259l-.088,0,.057-.04.031.045c.212.009.418.024.378.241A.44.44,0,0,1,421.509,360.213Zm18.128,1.1c.1.041.13.15.173.247.029.005.061.009.086.016l-.059.043c-.01-.018-.017-.038-.028-.058a.9.9,0,0,1-.373-.109C439.321,361.343,439.468,361.238,439.637,361.309ZM433.2,362.6c.021-.023.048-.046.067-.067.035,0,.073,0,.109,0a.237.237,0,0,1,.1.013c.164.077.121.172-.123.243-.029.008-.145-.078-.178-.132C433.162,362.644,433.178,362.624,433.2,362.6Zm-3.553-1.345c.04-.008.126.084.19.131-.071.042-.171.132-.209.121C429.333,361.422,429.34,361.322,429.648,361.257Zm-2.577.072a1.9,1.9,0,0,1,1.413,0,.091.091,0,0,1-.007.12.5.5,0,0,1-.24.123c-.2.019-.409.006-.6.006-.2-.043-.385-.081-.565-.129C427.045,361.441,427.038,361.352,427.071,361.328Zm-4-1.374.029-.044.055.035-.085.008a2.1,2.1,0,0,1-.174.262.448.448,0,0,1-.2-.013C422.651,359.983,422.865,359.97,423.074,359.954Z" transform="translate(0 0.238)" fill="#fff"/>
    <path id="Trazado_3098" data-name="Trazado 3098" d="M259.363,385.609c-.006,0-.013,0-.019,0s-.008.024-.011.038Z" transform="translate(43.546 1.778)" fill="#fff"/>
    <path id="Trazado_3099" data-name="Trazado 3099" d="M205.546,352.762c0-.013.009-.022.01-.034a.493.493,0,0,0-.054-.013Z" transform="translate(0.465 0.711)" fill="#fff"/>
    <path id="Trazado_3100" data-name="Trazado 3100" d="M286.6,386.41l-.005.015c.017.008.029.02.046.027Z" transform="translate(63.378 1.84)" fill="#fff"/>
    <path id="Trazado_3101" data-name="Trazado 3101" d="M279.442,338.452c.533-.171,1.059-.373,1.58-.587a1.876,1.876,0,0,0,.65-.39.875.875,0,0,0,.142-.576.928.928,0,0,0-.81-.98c-.507-.029-1.031-.082-1.375.494a.994.994,0,0,1-.275.269c-.48-.512-.565-.09-.681.334-.071.264-.214.5-.289.767a.484.484,0,0,0,.485.678A1.912,1.912,0,0,0,279.442,338.452Z" transform="translate(58.524 0.086)" fill="#fff"/>
    <path id="Trazado_3102" data-name="Trazado 3102" d="M214.6,389.054a.3.3,0,0,0-.461.066,7.323,7.323,0,0,0-.648.765.413.413,0,0,0,.057.55c.088.072.281.138.334.087.482-.459.669-.124.854.339a.32.32,0,0,0,.332.084,7.9,7.9,0,0,0,.677-.608,2.879,2.879,0,0,0-.1-.483C215.439,389.364,214.968,389.3,214.6,389.054Z" transform="translate(1.074 2.037)" fill="#fff"/>
    <path id="Trazado_3103" data-name="Trazado 3103" d="M334,374.645a1.026,1.026,0,0,0,.162.564c.226.21.449.052.649-.152.247-.252.452-.767.88-.25a3.412,3.412,0,0,0,.527-.54c.027-.041-.18-.332-.32-.439a1.651,1.651,0,0,0-.518-.211c-.532-.172-.94.174-1.374.411A4.366,4.366,0,0,0,334,374.645Z" transform="translate(105.308 1.497)" fill="#fff"/>
    <path id="Trazado_3104" data-name="Trazado 3104" d="M334.005,374v-.02l-.036.04Z" transform="translate(105.307 1.554)" fill="#fff"/>
    <path id="Trazado_3105" data-name="Trazado 3105" d="M217.242,390.436c.364-.179.529-.3.578.253,0,.056.154.095.236.142.162-.583.346-1.158.467-1.75.034-.169-.135-.213-.256-.089-.256.263-.528.376-.835.08a.711.711,0,0,0-.313-.212c-.109-.022-.233.053-.35.086a.9.9,0,0,0,.1.322c.115.137.145.236.04.351C216.8,390.092,216.993,390.558,217.242,390.436Z" transform="translate(1.332 2.028)" fill="#fff"/>
    <path id="Trazado_3106" data-name="Trazado 3106" d="M326.582,356.809c-.374-.025-.779.1-1.1-.221s-.731-.164-1.1-.212c-.113.048-.327.116-.324.142.037.234.212.237.389.256a1.181,1.181,0,0,1,.535.145c.215.15.377.389.582.56.243.2.481-.408.783,0,.186.256.459.134.627-.134a.341.341,0,0,0,.013-.212A.363.363,0,0,0,326.582,356.809Z" transform="translate(104.543 0.84)" fill="#fff"/>
    <path id="Trazado_3107" data-name="Trazado 3107" d="M225.846,340.724a.459.459,0,0,0-.535.324,2.349,2.349,0,0,1-.229.562c-.111.16-.138.3.023.313.448.047.724.622,1.222.479.117-.033.309-.034.337-.11.111-.3-.155-.243-.284-.3-.3-.127-.33-.37-.26-.67C226.259,340.726,226.258,340.726,225.846,340.724Z" transform="translate(1.965 0.457)" fill="#fff"/>
    <path id="Trazado_3108" data-name="Trazado 3108" d="M340.144,384.864c-.239-.012-.335.478-.628.226-.207-.179-.424-.363-.672-.169a2.41,2.41,0,0,0-.526.612c-.05.079.022.264.057.394.012.041.111.1.124.087.551-.519,1.218-.275,1.834-.366.187-.028.277-.254.23-.482C340.513,384.9,340.342,384.872,340.144,384.864Z" transform="translate(105.64 1.719)" fill="#fff"/>
    <path id="Trazado_3109" data-name="Trazado 3109" d="M285,336.408a9.886,9.886,0,0,0,.5-1.157c.026-.082-.226-.3-.377-.409-.053-.039-.212.037-.28.109a1.044,1.044,0,0,0-.242,1.261C284.64,336.3,284.8,336.316,285,336.408Z" transform="translate(62.185 0.003)" fill="#fff"/>
    <path id="Trazado_3110" data-name="Trazado 3110" d="M205.021,391.26c.166-.036.2-.141.134-.267a.874.874,0,0,0-1.252-.424.441.441,0,0,0-.127.337.425.425,0,0,0,.16.316,2,2,0,0,0,.5.089A4.582,4.582,0,0,0,205.021,391.26Z" transform="translate(0.332 2.15)" fill="#fff"/>
    <path id="Trazado_3111" data-name="Trazado 3111" d="M336.707,374.5c-.055.015-.1.081-.148.123.047.044.089.112.143.128.285.086.574.162.863.235.139.036.293.4.411.041a2.39,2.39,0,0,0,.015-.786c0-.055-.072-.108-.111-.163C337.547,374.42,337.108,374.395,336.707,374.5Z" transform="translate(105.506 1.532)" fill="#fff"/>
    <path id="Trazado_3112" data-name="Trazado 3112" d="M238.044,388.861c.055-.015.1-.076.149-.116a.668.668,0,0,0-.038-.158.935.935,0,0,0-1.085-.538c-.092.017-.172.13-.243.214-.011.012.057.111.093.167A.938.938,0,0,0,238.044,388.861Z" transform="translate(27.386 1.964)" fill="#fff"/>
    <path id="Trazado_3113" data-name="Trazado 3113" d="M290.189,386.039l-.284.209a.779.779,0,0,0,.141.139,8.046,8.046,0,0,0,.821.452.356.356,0,0,0,.349-.068c.184-.223-.062-.324-.156-.458C290.834,385.992,290.507,386.039,290.189,386.039Z" transform="translate(66.287 1.811)" fill="#fff"/>
    <path id="Trazado_3114" data-name="Trazado 3114" d="M326.916,350.717c.088-.016.164-.137.244-.211a1.034,1.034,0,0,0-.33-.16,3.653,3.653,0,0,0-.767.022c-.089.013-.167.138-.25.211.052.043.1.112.155.123a1.734,1.734,0,0,0,.293.026A4.223,4.223,0,0,0,326.916,350.717Z" transform="translate(104.679 0.613)" fill="#fff"/>
    <path id="Trazado_3115" data-name="Trazado 3115" d="M340.491,360.758c.22-.031.352-.134.317-.367-.042-.332-.135-.43-.38-.386a.326.326,0,0,0-.312.414C340.152,360.669,340.255,360.792,340.491,360.758Z" transform="translate(105.779 0.988)" fill="#fff"/>
    <path id="Trazado_3116" data-name="Trazado 3116" d="M340.334,375.125c.135,0,.333-.235.389-.408.034-.111-.121-.323-.225-.454-.062-.078-.195-.085-.3-.125l-.12.386C340.126,374.748,339.982,375.116,340.334,375.125Z" transform="translate(105.777 1.537)" fill="#fff"/>
    <path id="Trazado_3117" data-name="Trazado 3117" d="M234.96,389.272c.024.331.213.467.472.375a.805.805,0,0,0,.569-.673c0-.033-.085-.114-.135-.118-.173-.014-.349-.006-.523-.005A.439.439,0,0,1,234.96,389.272Z" transform="translate(25.97 2.027)" fill="#fff"/>
    <path id="Trazado_3118" data-name="Trazado 3118" d="M227.468,345.776a.926.926,0,0,0-.019-.208c-.044-.127-.1-.248-.156-.37a2.015,2.015,0,0,0-.209.3c-.113.24-.208.49-.31.736.108.048.216.14.323.136C227.437,346.358,227.448,346.057,227.468,345.776Z" transform="translate(2.102 2.449)" fill="#fff"/>
    <path id="Trazado_3119" data-name="Trazado 3119" d="M221.946,346.453a.644.644,0,0,0-.955.208c-.033.1.047.252.088.438l.939-.515A.448.448,0,0,0,221.946,346.453Z" transform="translate(1.656 0.452)" fill="#fff"/>
    <path id="Trazado_3120" data-name="Trazado 3120" d="M271.478,340.181a.173.173,0,0,0,0-.137.715.715,0,0,0-.87.015.161.161,0,0,0,0,.132c.11.057.226.1.4.17C271.136,340.316,271.31,340.255,271.478,340.181Z" transform="translate(51.994 0.394)" fill="#fff"/>
    <path id="Trazado_3121" data-name="Trazado 3121" d="M242.433,387.658c-.085.017-.153.141-.228.215.047.042.09.106.144.121a2.531,2.531,0,0,0,.349.055,2.358,2.358,0,0,0,.349-.041c.052-.013.093-.082.139-.126-.07-.081-.131-.214-.211-.23A1.455,1.455,0,0,0,242.433,387.658Z" transform="translate(31.259 1.933)" fill="#fff"/>
    <path id="Trazado_3122" data-name="Trazado 3122" d="M200.18,386.388a1.64,1.64,0,0,0,.082.431,3.419,3.419,0,0,0,.382-.306,1.684,1.684,0,0,0,.193-.318,1.354,1.354,0,0,0-.307-.141C200.309,386.012,200.2,386.177,200.18,386.388Z" transform="translate(0.056 1.812)" fill="#fff"/>
    <path id="Trazado_3123" data-name="Trazado 3123" d="M287.243,385.731a.213.213,0,0,0-.153-.084.356.356,0,0,0-.431.252,2.261,2.261,0,0,0-.02.549,2.175,2.175,0,0,0,.425-.258C287.182,386.083,287.365,385.964,287.243,385.731Z" transform="translate(63.623 1.781)" fill="#fff"/>
    <path id="Trazado_3124" data-name="Trazado 3124" d="M286.641,386.391l-.04.02.041.042C286.643,386.433,286.641,386.411,286.641,386.391Z" transform="translate(63.38 1.838)" fill="#fff"/>
    <path id="Trazado_3125" data-name="Trazado 3125" d="M259.728,386.258a.383.383,0,0,0,.282.078c.11-.011.111-.424,0-.548-.187-.215-.422-.158-.648-.148C259.353,385.938,259.558,386.092,259.728,386.258Z" transform="translate(43.742 1.779)" fill="#fff"/>
    <path id="Trazado_3126" data-name="Trazado 3126" d="M259.366,385.641a.323.323,0,0,1,0-.032l-.03.034Z" transform="translate(43.546 1.778)" fill="#fff"/>
    <path id="Trazado_3127" data-name="Trazado 3127" d="M341.09,385.25c-.076.013-.136.149-.2.228.047.041.089.106.142.118a1.74,1.74,0,0,0,.281.034.821.821,0,0,0,.242,0,2.938,2.938,0,0,0,.31-.163c-.079-.068-.152-.178-.239-.2A1.487,1.487,0,0,0,341.09,385.25Z" transform="translate(105.839 1.749)" fill="#fff"/>
    <path id="Trazado_3128" data-name="Trazado 3128" d="M232.909,389.78c.043.084.092.24.129.237a2.8,2.8,0,0,0,.5-.124c-.141-.1-.228-.214-.326-.227S233.012,389.738,232.909,389.78Z" transform="translate(24.413 2.09)" fill="#fff"/>
    <path id="Trazado_3129" data-name="Trazado 3129" d="M211.87,392.03c.169.01.354.015.409-.226.008-.031-.087-.093-.144-.151-.144.048-.353-.023-.4.238C211.732,391.929,211.822,392.027,211.87,392.03Z" transform="translate(0.945 2.243)" fill="#fff"/>
    <path id="Trazado_3130" data-name="Trazado 3130" d="M251.605,386.54a1.181,1.181,0,0,0-.112.373c0,.084.118.163.181.24a.264.264,0,0,0,.139-.367A1.119,1.119,0,0,0,251.605,386.54Z" transform="translate(37.913 1.85)" fill="#fff"/>
    <path id="Trazado_3131" data-name="Trazado 3131" d="M288.913,385.749a.429.429,0,0,0-.072.531.721.721,0,0,0,.12.152.693.693,0,0,0,.126-.145.411.411,0,0,0-.053-.524C289.008,385.737,288.953,385.752,288.913,385.749Z" transform="translate(65.089 1.789)" fill="#fff"/>
    <path id="Trazado_3132" data-name="Trazado 3132" d="M300.974,341.779c-.011-.065-.148-.115-.235-.143-.024-.008-.1.086-.108.138-.014.192-.008.386-.008.578l.366,0A3.471,3.471,0,0,0,300.974,341.779Z" transform="translate(73.716 0.527)" fill="#fff"/>
    <path id="Trazado_3133" data-name="Trazado 3133" d="M334.052,369.387a2.671,2.671,0,0,0,.447.18c.036.008.1-.146.148-.222-.138-.2-.3-.162-.462-.083A.626.626,0,0,0,334.052,369.387Z" transform="translate(105.313 1.358)" fill="#fff"/>
    <path id="Trazado_3134" data-name="Trazado 3134" d="M225.684,345.327l.268.209.308-.131c-.042-.085-.1-.248-.124-.242A3,3,0,0,0,225.684,345.327Z" transform="translate(2.018 1.188)" fill="#fff"/>
    <path id="Trazado_3135" data-name="Trazado 3135" d="M228.062,342.474c-.135-.248-.3-.154-.464-.085-.052.022-.087.086-.13.131a2.923,2.923,0,0,0,.463.177C227.961,342.7,228.022,342.547,228.062,342.474Z" transform="translate(2.156 0.579)" fill="#fff"/>
    <path id="Trazado_3136" data-name="Trazado 3136" d="M287.2,334.789l-.114.188.109.054.121-.117Z" transform="translate(63.801)" fill="#fff"/>
    <path id="Trazado_3137" data-name="Trazado 3137" d="M294.795,336.94c.011-.029-.03-.082-.046-.123h-.12l.057.25C294.724,337.025,294.775,336.99,294.795,336.94Z" transform="translate(69.268 0.156)" fill="#fff"/>
    <path id="Trazado_3138" data-name="Trazado 3138" d="M286.95,338.13c-.04-.052-.095-.154-.12-.145-.195.066-.2.173-.017.27C286.836,338.267,286.9,338.175,286.95,338.13Z" transform="translate(63.52 0.246)" fill="#fff"/>
    <path id="Trazado_3139" data-name="Trazado 3139" d="M294.287,338.011c-.015.039-.053.089-.044.123a.508.508,0,0,0,.093.141l.061-.264Z" transform="translate(68.981 0.248)" fill="#fff"/>
    <path id="Trazado_3140" data-name="Trazado 3140" d="M273.305,339.722c.009-.034-.071-.1-.112-.145-.18.073-.19.176-.015.284C273.2,339.872,273.292,339.781,273.305,339.722Z" transform="translate(53.591 0.368)" fill="#fff"/>
    <path id="Trazado_3141" data-name="Trazado 3141" d="M211.965,390.422a.393.393,0,0,0-.014.054.5.5,0,0,0,.048-.016Z" transform="translate(0.962 2.148)" fill="#fff"/>
    <path id="Trazado_3142" data-name="Trazado 3142" d="M211.969,390.472c-.093.031-.2.053-.236.121-.065.12.036.229.129.152A.566.566,0,0,0,211.969,390.472Z" transform="translate(0.943 2.152)" fill="#fff"/>
    <path id="Trazado_3143" data-name="Trazado 3143" d="M212.906,390.364l.124-.111-.115-.123-.124.174Z" transform="translate(1.026 2.126)" fill="#fff"/>
    <path id="Trazado_3144" data-name="Trazado 3144" d="M212.251,390.173c0-.015-.118-.034-.127-.017a2.387,2.387,0,0,0-.111.281C212.148,390.422,212.285,390.409,212.251,390.173Z" transform="translate(0.966 2.127)" fill="#fff"/>
    <path id="Trazado_3145" data-name="Trazado 3145" d="M212.017,390.416a.425.425,0,0,0-.053.006l.034.038Z" transform="translate(0.963 2.148)" fill="#fff"/>
    <path id="Trazado_3146" data-name="Trazado 3146" d="M244.326,387.826c.066.148.15.172.222.07.018-.026,0-.082,0-.124-.036-.018-.08-.061-.108-.051C244.4,387.739,244.321,387.814,244.326,387.826Z" transform="translate(32.669 1.94)" fill="#fff"/>
    <path id="Trazado_3147" data-name="Trazado 3147" d="M259.073,387.039c.016.051.078.132.095.125.137-.059.162-.148.071-.224-.026-.023-.073-.01-.111-.013C259.108,386.965,259.063,387.013,259.073,387.039Z" transform="translate(43.403 1.879)" fill="#fff"/>
    <path id="Trazado_3148" data-name="Trazado 3148" d="M247.324,387.177c.044,0,.094-.078.141-.121l-.125-.162-.143.141C247.239,387.087,247.279,387.174,247.324,387.177Z" transform="translate(34.767 1.877)" fill="#fff"/>
    <path id="Trazado_3149" data-name="Trazado 3149" d="M262.183,386.456l.059-.008-.04-.043Z" transform="translate(45.626 1.839)" fill="#fff"/>
    <path id="Trazado_3150" data-name="Trazado 3150" d="M261.976,386.722c0,.013.111.028.12.011.041-.089.072-.186.1-.281C262.064,386.467,261.935,386.49,261.976,386.722Z" transform="translate(45.514 1.843)" fill="#fff"/>
    <path id="Trazado_3151" data-name="Trazado 3151" d="M287.742,386.226c.068.156.155.183.23.076.018-.027,0-.085,0-.131-.033-.019-.081-.067-.11-.056C287.815,386.133,287.737,386.212,287.742,386.226Z" transform="translate(64.282 1.817)" fill="#fff"/>
    <path id="Trazado_3152" data-name="Trazado 3152" d="M286.522,385.123a.235.235,0,0,0,.016-.139,2.4,2.4,0,0,0-.258-.127C286.291,385.014,286.307,385.168,286.522,385.123Z" transform="translate(63.226 1.72)" fill="#fff"/>
    <path id="Trazado_3153" data-name="Trazado 3153" d="M286.283,384.861l-.005-.056-.032.038Z" transform="translate(63.12 1.716)" fill="#fff"/>
    <path id="Trazado_3154" data-name="Trazado 3154" d="M339.14,377.311c-.016.037-.059.088-.049.118.017.053.085.139.1.131.139-.07.163-.165.068-.247C339.232,377.294,339.182,377.311,339.14,377.311Z" transform="translate(105.7 1.68)" fill="#fff"/>
    <path id="Trazado_3155" data-name="Trazado 3155" d="M331.183,374.994c.064.211.158.218.241.014.01-.023-.075-.095-.116-.144C331.265,374.908,331.177,374.968,331.183,374.994Z" transform="translate(105.092 1.583)" fill="#fff"/>
    <path id="Trazado_3156" data-name="Trazado 3156" d="M341.255,374.664l.108.067c.04-.04.109-.078.111-.12s-.062-.089-.1-.134Z" transform="translate(105.867 1.569)" fill="#fff"/>
    <path id="Trazado_3157" data-name="Trazado 3157" d="M339.27,374.5c-.029-.024-.084-.008-.128-.01-.023.047-.072.107-.06.141.019.059.1.155.114.146C339.351,374.7,339.377,374.591,339.27,374.5Z" transform="translate(105.7 1.568)" fill="#fff"/>
    <path id="Trazado_3158" data-name="Trazado 3158" d="M336.19,369.78l.229.069v-.124c-.036-.018-.079-.061-.107-.051C336.266,369.691,336.231,369.743,336.19,369.78Z" transform="translate(105.477 1.38)" fill="#fff"/>
    <path id="Trazado_3159" data-name="Trazado 3159" d="M335.125,369.776c.06.155.143.181.214.073.018-.029,0-.085,0-.13-.034-.018-.079-.064-.1-.053C335.194,369.687,335.119,369.759,335.125,369.776Z" transform="translate(105.395 1.378)" fill="#fff"/>
    <path id="Trazado_3160" data-name="Trazado 3160" d="M333.446,369.512c.043,0,.09-.075.136-.117l-.122-.16-.137.143C333.364,369.426,333.4,369.509,333.446,369.512Z" transform="translate(105.257 1.361)" fill="#fff"/>
    <path id="Trazado_3161" data-name="Trazado 3161" d="M332.59,369.388c-.009.018.073.112.126.136.031.014.087-.04.13-.064,0-.05.017-.112,0-.145C332.769,369.191,332.672,369.215,332.59,369.388Z" transform="translate(105.2 1.361)" fill="#fff"/>
    <path id="Trazado_3162" data-name="Trazado 3162" d="M336.31,368.883c-.047.014-.084.067-.126.1l.232.073.009-.121C336.385,368.919,336.341,368.873,336.31,368.883Z" transform="translate(105.477 1.349)" fill="#fff"/>
    <path id="Trazado_3163" data-name="Trazado 3163" d="M335.258,368.834l-.123.129.174.141.061-.129Z" transform="translate(105.396 1.345)" fill="#fff"/>
    <path id="Trazado_3164" data-name="Trazado 3164" d="M321.917,358.066c-.052.013-.074.174-.106.291h.342C322.143,358.19,322.131,358.011,321.917,358.066Z" transform="translate(104.371 0.919)" fill="#fff"/>
    <path id="Trazado_3165" data-name="Trazado 3165" d="M327.244,356.935l.173.13.059-.116c-.037-.044-.072-.121-.111-.123S327.285,356.895,327.244,356.935Z" transform="translate(104.789 0.871)" fill="#fff"/>
    <path id="Trazado_3166" data-name="Trazado 3166" d="M335.966,353.5l.129-.146-.118-.165c-.044.052-.118.1-.123.155S335.926,353.449,335.966,353.5Z" transform="translate(105.451 0.727)" fill="#fff"/>
    <path id="Trazado_3167" data-name="Trazado 3167" d="M329.372,353.341l.23.07,0-.12c-.037-.019-.081-.064-.111-.054C329.45,353.253,329.413,353.3,329.372,353.341Z" transform="translate(104.953 0.73)" fill="#fff"/>
    <path id="Trazado_3168" data-name="Trazado 3168" d="M328.422,353.1c.132-.074.155-.169.064-.252-.023-.02-.072,0-.111,0-.016.04-.056.089-.046.122C328.343,353.023,328.411,353.109,328.422,353.1Z" transform="translate(104.872 0.713)" fill="#fff"/>
    <path id="Trazado_3169" data-name="Trazado 3169" d="M205.481,352.77l.067-.008-.044-.047C205.5,352.733,205.487,352.752,205.481,352.77Z" transform="translate(0.464 0.711)" fill="#fff"/>
    <path id="Trazado_3170" data-name="Trazado 3170" d="M205.266,353.028c0,.012.11.032.117.017.044-.089.079-.185.114-.279C205.365,352.78,205.241,352.8,205.266,353.028Z" transform="translate(0.447 0.71)" fill="#fff"/>
    <path id="Trazado_3171" data-name="Trazado 3171" d="M224.79,345.242c-.027-.023-.078-.009-.117-.011-.018.041-.061.092-.052.121.017.053.085.138.1.131C224.859,345.412,224.883,345.319,224.79,345.242Z" transform="translate(1.936 0.803)" fill="#fff"/>
  </g>
</svg>
