<svg xmlns="http://www.w3.org/2000/svg" width="257.909" height="61.319" viewBox="0 0 257.909 61.319">
  <path id="Trazado_2403" data-name="Trazado 2403" d="M453.9,441.726a47.673,47.673,0,0,1,10.28-2.075c1.944-.223,3.884-.376,5.833-.5,2.791-.183,5.574-.32,8.368-.408,5.319-.166,10.641-.228,15.961-.253,10.663-.05,21.314-.138,31.968-.826,11.047-.714,22.095-1.375,33.14-2.107,10.474-.7,20.946-1.389,31.424-1.92,10.493-.533,20.978-1.006,31.46-1.881,10.726-.894,21.462-1.374,32.2-1.764a145.775,145.775,0,0,0,15.279-1.14c2.648-.377,5.288-.8,7.93-1.249,2.587-.436,5.187-.725,7.783-1.049a32.889,32.889,0,0,1,7.153.032,5.093,5.093,0,0,0,3.9-3.372q.716-1.892,1.43-3.784a42.4,42.4,0,0,0,0-20.644q-.715-1.891-1.43-3.784a5.093,5.093,0,0,0-3.9-3.372c-1.318.137-2.634.319-3.952.439-1.2.109-2.406.1-3.608.112-2.572.025-5.139.144-7.705.285-5.337.294-10.664.76-16,.971-10.342.408-20.693.451-31.024,1.251-5.539.427-11.072.925-16.61,1.341-5.032.381-10.07.63-15.106.878q-16.079.786-32.142,1.918c-10.576.738-21.155,1.422-31.73,2.17q-8.769.617-17.542,1.141c-5.239.311-10.492.354-15.736.427-10.735.15-21.471.252-32.191,1.092-2.64.206-5.277.485-7.906.9a54.4,54.4,0,0,0-6.372,1.4,38.29,38.29,0,0,0-4.773,1.867,9.963,9.963,0,0,0-2.617,1.731,13.491,13.491,0,0,0-3.285,6.344,40.944,40.944,0,0,0-.95,16.044,26.955,26.955,0,0,0,2.4,8.689q.917,1.259,1.837,2.514a2.928,2.928,0,0,0,4.228,0A10.411,10.411,0,0,1,453.9,441.726Z" transform="matrix(0.999, 0.035, -0.035, 0.999, -427.291, -406.85)" fill="#e52441"/>
</svg>
