<svg xmlns="http://www.w3.org/2000/svg" width="150.782" height="13.018" viewBox="0 0 150.782 13.018">
  <g id="Grupo_77859" data-name="Grupo 77859" transform="translate(-61.87 -176.426)">
    <path id="Trazado_2220" data-name="Trazado 2220" d="M65.143,181.735c1.195.012,2.39-.058,3.583-.1.486-.016.972-.042,1.457-.066l6.422-.319q3.839-.191,7.679-.406l10.968-.612c.838-.047,1.677-.079,2.514-.117l6.39-.3,6.391-.3c.833-.039,1.668-.09,2.5-.117l10.2-.321,6.27-.2c.818-.026,1.638-.065,2.456-.076q4.928-.071,9.857-.148l9.728-.146c.856-.012,1.713-.007,2.568-.01l6.351-.025q4.937-.019,9.874-.038c1.076-.005,2.154.007,3.229.011l6.761.024.559,0q-7.609.1-15.22.213l-6.355.094c-.914.013-1.829.017-2.743.04q-4.6.12-9.195.25l-10.628.287c-.6.016-1.191.05-1.785.078l-5.66.261q-5.739.264-11.48.529c-.567.026-1.132.066-1.7.105l-5.607.387q-5.022.346-10.043.694c-.923.064-1.845.155-2.767.233l-6.431.541c-2.725.229-5.451.451-8.174.689q-5.688.495-11.374.993l-2.728.238c-1.63.143-3.255.348-4.881.528a.318.318,0,1,0,0,.637l1.783.077a1.158,1.158,0,0,0,1.05,1.664c4.649-.29,9.3-.6,13.948-.827l12.117-.577,13.4-.638,4.217-.2c.406-.019.812-.045,1.218-.055q10.791-.287,21.581-.567l11.533-.3q2.085-.055,4.167-.09l22.075-.345,9.458-.152c2.692-.043,5.384-.062,8.075-.162l6.67-.252c1.109-.042,2.221-.069,3.329-.138q3.785-.239,7.57-.488l-.006.009a1.049,1.049,0,0,0,.377,1.437,1,1,0,0,0,.809.106q.825-.327,1.644-.671l-.034.015.121-.051.141-.059-.051.021.873-.368c.3-.127.609-.255.912-.388.33-.144.646-.319.964-.489a1.172,1.172,0,0,0,.42-1.6,1.128,1.128,0,0,0-.7-.538c-.282-.049-.563-.087-.846-.123a1.508,1.508,0,0,0-.19-.011c-.192,0-.391.027-.574.04-.429.03-.854.094-1.283.125l-1.048.075-2.823.2c-.243.018-.487.032-.73.048a.893.893,0,0,0,.189-.346.947.947,0,0,0,.074-.324c.01-.08.021-.16.032-.239a.912.912,0,0,0-.052-.3l.074-.033a1.187,1.187,0,0,0,.423-.424,1.179,1.179,0,0,0,0-1.193l-.184-.24a1.187,1.187,0,0,0-.522-.3,3.119,3.119,0,0,0-1.127-.172c-.315,0-.631.022-.942.026l-1.357.013c-.64.007-1.28.016-1.92.019l-5.074.026c-1.591.009-3.182.007-4.773.007q-2.169,0-4.338,0c-5.765.025-11.528.034-17.292.093l-12.966.13q-2.9.03-5.8.09l-12.993.275-3.705.079c-.717.016-1.433.053-2.149.08l-12.841.487-3.92.149c-.733.027-1.465.076-2.2.115l-12.755.685q-3.294.177-6.582.389l-11.268.711c-3.254.2-6.51.381-9.765.572l-1.547.09c-.833.049-1.668.082-2.5.119-.74.033-1.483.054-2.225.034a.494.494,0,0,0-.476-.332c-.478.038-.956.09-1.433.142a.533.533,0,0,0-.5.379.522.522,0,0,0,.362.637c.207.049.414.1.622.149a4.709,4.709,0,0,0,.627.078C64.045,181.719,64.595,181.73,65.143,181.735Zm131.517-1.8h2.1a1.132,1.132,0,0,0,.282.41c-.27.019-.541.037-.811.047l-1.528.057-6.67.251c-1.018.038-2.036.094-3.053.11l-4.771.075-10.9.173q-10.583.171-21.166.335c-5.053.081-10.1.238-15.154.371l-22.832.606c-1.526.04-3.052.138-4.576.211l-12.959.622-12.723.609-1.178.057q1.715-.138,3.429-.27l11.975-.916,4.182-.319c.719-.055,1.439-.089,2.159-.134l12.452-.754c.811-.05,1.623-.115,2.435-.147l3.508-.136,12.839-.5,2.825-.11c.248-.009.5-.01.744-.015l1.984-.04,12.865-.262c1.976-.04,3.952-.087,5.928-.1,6.377-.051,12.753-.117,19.13-.146C183.666,179.981,190.163,179.936,196.66,179.931Z" fill="#fff"/>
    <circle id="Elipse_36" data-name="Elipse 36" cx="0.319" cy="0.319" r="0.319" transform="translate(73.273 188.805)" fill="#fff"/>
  </g>
</svg>
