<svg xmlns="http://www.w3.org/2000/svg" width="23" height="21" viewBox="0 0 23 21">
  <g id="Grupo_77572" data-name="Grupo 77572" transform="translate(-1192.765 -73.452)">
    <g id="noun-cart-4432016" transform="translate(1088.96 3.831)">
      <path id="Trazado_1816" data-name="Trazado 1816" d="M120.492,84.564h-8.257a1.889,1.889,0,0,1-1.87-1.646l-1.41-11.043a1.042,1.042,0,0,0-1.032-.909h-3.2a.422.422,0,0,1,0-.845h3.2a1.889,1.889,0,0,1,1.87,1.646l.292,2.287,14.616-.027h0a.714.714,0,0,1,.669.964l-3.114,8.346a1.895,1.895,0,0,1-1.766,1.226Zm-10.3-9.665,1.01,7.911h0a1.042,1.042,0,0,0,1.032.909h8.257a1.046,1.046,0,0,0,.975-.677l3.048-8.17Z" transform="translate(0)" fill="#fff" stroke="#fff" stroke-width="1"/>
      <path id="Trazado_1817" data-name="Trazado 1817" d="M399.992,407.965a2.079,2.079,0,1,1,1.468-.609,2.077,2.077,0,0,1-1.468.609Zm0-3.308h0a1.233,1.233,0,1,0,.871.361,1.233,1.233,0,0,0-.871-.361Z" transform="translate(-279.442 -317.588)" fill="#fff" stroke="#fff" stroke-width="1"/>
      <path id="Trazado_1818" data-name="Trazado 1818" d="M220.856,407.964a2.079,2.079,0,1,1,1.468-.609,2.076,2.076,0,0,1-1.468.609Zm0-3.308h0a1.234,1.234,0,1,0,.871.361,1.233,1.233,0,0,0-.871-.361Z" transform="translate(-108.95 -317.587)" fill="#fff" stroke="#fff" stroke-width="1"/>
    </g>
  </g>
</svg>