<svg width="38" height="28" viewBox="0 0 38 28" fill="none" xmlns="http://www.w3.org/2000/svg">
<g clip-path="url(#clip0_60_274)">
<path d="M30.0901 22.19L35.7501 16.52L30.0601 10.82" stroke="white" stroke-width="2.21" stroke-linecap="round" stroke-linejoin="round"/>
<path d="M35.7401 16.51H20.8501" stroke="white" stroke-width="2.21" stroke-linecap="round"/>
<path d="M20.7901 20.47V25.67C20.7901 26.25 20.3201 26.72 19.7401 26.72H6.5701C5.9901 26.72 5.5201 26.25 5.5201 25.67V17.01C2.9801 16.3 1.1001 13.98 1.1001 11.21C1.1001 7.99 3.6201 5.37 6.8001 5.2C7.9001 2.78999 10.3301 1.12 13.1501 1.12C15.9701 1.12 18.4001 2.79999 19.5001 5.2C22.6801 5.37 25.2001 7.99 25.2001 11.21" stroke="white" stroke-width="2.21" stroke-linecap="round"/>
</g>
<defs>
<clipPath id="clip0_60_274">
<rect width="37.03" height="27.81" fill="white"/>
</clipPath>
</defs>
</svg>
