<svg width="27" height="28" viewBox="0 0 27 28" fill="none" xmlns="http://www.w3.org/2000/svg">
<g clip-path="url(#clip0_60_355)">
<path d="M10.3101 21.19L16.0001 15.49L10.3401 9.82001" stroke="white" stroke-width="2.21" stroke-linecap="round" stroke-linejoin="round"/>
<path d="M1.10986 15.51H15.9999" stroke="white" stroke-width="2.21" stroke-linecap="round" stroke-linejoin="round"/>
<path d="M5.52012 20.47V25.67C5.52012 26.25 5.99012 26.72 6.57012 26.72H19.7501C20.3301 26.72 20.8001 26.25 20.8001 25.67V17.01C23.3401 16.3 25.2201 13.98 25.2201 11.21C25.2201 7.99 22.7001 5.37 19.5201 5.2C18.4201 2.78999 15.9901 1.12 13.1701 1.12C10.3501 1.12 7.92012 2.79999 6.82012 5.2C3.64012 5.37 1.12012 7.99 1.12012 11.21" stroke="white" stroke-width="2.21" stroke-linecap="round"/>
</g>
<defs>
<clipPath id="clip0_60_355">
<rect width="26.32" height="27.81" fill="white"/>
</clipPath>
</defs>
</svg>
