<svg xmlns="http://www.w3.org/2000/svg" width="14.039" height="15.886" viewBox="0 0 14.039 15.886">
  <g id="Grupo_77024" data-name="Grupo 77024" transform="translate(-255.7 -23.046)">
    <path id="Trazado_1819" data-name="Trazado 1819" d="M319.251,277.76a6.728,6.728,0,0,0-6.77,6.77v1.354H326.02V284.53A6.853,6.853,0,0,0,319.251,277.76Zm5.8,7.156H313.448v-.387a5.8,5.8,0,1,1,11.606,0Z" transform="translate(-56.531 -247.202)" fill="#333334" stroke="#333334" stroke-width="0.5"/>
    <path id="Trazado_1820" data-name="Trazado 1820" d="M335.463,233.929a2.394,2.394,0,0,1,2.418,2.418,2.56,2.56,0,0,1-.587,1.594,2.3,2.3,0,0,1-1.831.824,2.418,2.418,0,0,1,0-4.836m0-.967a3.385,3.385,0,1,0,3.385,3.385A3.427,3.427,0,0,0,335.463,232.962Z" transform="translate(-72.744 -209.666)" fill="#333334" stroke="#333334" stroke-width="0.5"/>
  </g>
</svg>
