<svg xmlns="http://www.w3.org/2000/svg" width="18.082" height="19.4" viewBox="0 0 18.082 19.4">
  <g id="Grupo_77939" data-name="Grupo 77939" transform="translate(0.4 0.4)">
    <g id="Grupo_77916" data-name="Grupo 77916" transform="translate(-7.755 -10.155)">
      <g id="Grupo_77912" data-name="Grupo 77912" transform="translate(-1159.975 -83.792)">
        <g id="Grupo_77917" data-name="Grupo 77917" transform="translate(5.251 8.047)">
          <path id="Trazado_1819" data-name="Trazado 1819" d="M316.822,277.76a4.314,4.314,0,0,0-4.341,4.341v.868h8.682V282.1A4.394,4.394,0,0,0,316.822,277.76Zm3.721,4.589H313.1V282.1a3.721,3.721,0,0,1,7.442,0Z" transform="translate(849.998 -187.373)" fill="#333334" stroke="#333334" stroke-width="0.8"/>
          <path id="Trazado_1820" data-name="Trazado 1820" d="M334.321,233.6a1.587,1.587,0,0,1,1.6,1.6,1.7,1.7,0,0,1-.389,1.056,1.524,1.524,0,0,1-1.214.546,1.6,1.6,0,0,1,0-3.2m0-.641a2.244,2.244,0,1,0,2.244,2.244A2.271,2.271,0,0,0,334.321,232.962Z" transform="translate(832.498 -147.062)" fill="#333334" stroke="#333334" stroke-width="0.8"/>
        </g>
      </g>
    </g>
    <text id="_" data-name="$" transform="translate(9.682 15)" fill="#333334" font-size="14" font-family="FilsonProMedium, Filson Pro"><tspan x="0" y="0">$</tspan></text>
  </g>
</svg>
