<svg xmlns="http://www.w3.org/2000/svg" width="17.191" height="19.441" viewBox="0 0 17.191 19.441">
  <g id="Grupo_77024" data-name="Grupo 77024" transform="translate(-255.6 -22.946)">
    <path id="Trazado_1819" data-name="Trazado 1819" d="M320.727,277.76a8.2,8.2,0,0,0-8.246,8.246v1.649h16.491v-1.649A8.347,8.347,0,0,0,320.727,277.76Zm7.068,8.717H313.659v-.471a7.068,7.068,0,1,1,14.137,0Z" transform="translate(-56.531 -245.618)" fill="#fff" stroke="#fff" stroke-width="0.7"/>
    <path id="Trazado_1820" data-name="Trazado 1820" d="M336.2,234.14a2.916,2.916,0,0,1,2.945,2.945,3.118,3.118,0,0,1-.715,1.941,2.8,2.8,0,0,1-2.23,1,2.945,2.945,0,0,1,0-5.89m0-1.178a4.123,4.123,0,1,0,4.123,4.123A4.174,4.174,0,0,0,336.2,232.962Z" transform="translate(-72.006 -209.666)" fill="#fff" stroke="#fff" stroke-width="0.7"/>
  </g>
</svg>
