<svg xmlns="http://www.w3.org/2000/svg" width="44.047" height="77.143" viewBox="0 0 44.047 77.143">
  <path id="Trazado_2813" data-name="Trazado 2813" d="M33.381,32.034A22.5,22.5,0,0,1,35.517,34.3C40.858,41.734,48.54,45.472,57.1,47.493a22.533,22.533,0,0,0,9.3.034,51.448,51.448,0,0,0,23.18-10.85A23.561,23.561,0,0,0,94.6,30.741c-.782.295-1.576.562-2.344.889-2.262.964-4.481,2.045-6.788,2.885a8.615,8.615,0,0,1-3.288.308,1.57,1.57,0,0,1-1.1-1.024,1.5,1.5,0,0,1,.715-1.283c5.952-1.844,11.062-5.332,16.449-8.282,1.888-1.034,3.082-.747,3.879,1.092a34.8,34.8,0,0,1,2.82,14.708c0,.169-.269.333-.669.8-4.144-1.555-2.854-5.993-4.9-9.566A18.423,18.423,0,0,1,98.1,33.359C89.269,44.1,77.644,49.777,64.132,51.9a20,20,0,0,1-6.335-.156,37.88,37.88,0,0,1-20.2-9.9,31.026,31.026,0,0,1-4.485-6.217A10.276,10.276,0,0,1,32.34,32.6Z" transform="translate(43.474 -36.829) rotate(77)" fill="#e52441"/>
</svg>
