<svg xmlns="http://www.w3.org/2000/svg" width="597.766" height="259.966" viewBox="0 0 597.766 259.966">
  <g id="Grupo_78695" data-name="Grupo 78695" transform="matrix(0.999, 0.035, -0.035, 0.999, -69.03, -2195.755)">
    <path id="Trazado_2809" data-name="Trazado 2809" d="M23.388,148.425c7.111-3.471,14.576-4.989,21.882-6.144,4.141-.654,8.275-1.094,12.427-1.463,5.948-.525,11.877-.911,17.833-1.148,11.337-.448,22.681-.586,34.024-.61,22.732-.049,45.438-.215,68.139-2.184,23.54-2.044,47.081-3.927,70.617-6.024,22.317-1.992,44.633-3.981,66.96-5.478,22.362-1.5,44.708-2.828,67.039-5.361,22.851-2.587,45.732-3.929,68.626-5,10.86-.5,21.754-1.166,32.554-3.284,5.638-1.109,11.26-2.361,16.885-3.68,5.508-1.288,11.046-2.131,16.576-3.081a49.86,49.86,0,0,1,15.25.164q5.467-1.112,8.259-10.1,1.495-5.685,2.986-11.366a164.762,164.762,0,0,0,2.546-31.029,165.642,165.642,0,0,0-2.892-31.06q-1.555-5.693-3.112-11.393Q537.1,1.157,531.614,0c-2.808.4-5.61.935-8.419,1.282a67,67,0,0,1-7.69.3c-5.482.05-10.954.385-16.423.784-11.373.835-22.722,2.186-34.1,2.768C442.94,6.267,420.873,6.3,398.863,8.607c-11.8,1.231-23.588,2.676-35.389,3.876-10.722,1.1-21.457,1.8-32.19,2.5q-34.266,2.211-68.492,5.464c-22.535,2.119-45.077,4.078-67.609,6.226Q176.5,28.446,157.8,29.938c-11.165.886-22.363.964-33.541,1.135-22.883.35-45.77.555-68.611,2.982A156.436,156.436,0,0,0,38.812,36.68a87.193,87.193,0,0,0-13.561,4.136,68.781,68.781,0,0,0-10.144,5.57,22.008,22.008,0,0,0-5.55,5.181q-5.015,7.467-6.9,19.051C-.32,85.482-.628,103.289.9,118.864A108.605,108.605,0,0,0,6.161,145.02q1.976,3.8,3.958,7.578,4.535,5.445,9.013.04A23.666,23.666,0,0,1,23.388,148.425Z" transform="matrix(1, 0.017, -0.017, 1, 200.762, 2266.402)" fill="#ad52dd"/>
    <path id="Trazado_2201" data-name="Trazado 2201" d="M39.641,144.187a69.691,69.691,0,0,1,7.311-1.446c2.275-.2,4.549-.417,6.819-.62,12.45-1.12,24.894-2.6,37.356-2.948,13.032-.375,26.066-1.1,39.1-1.037,13.305.061,26.606.058,39.911.383q38.9.972,77.792,1.7c25.755.464,51.509.788,77.26.738,12.781-.039,25.56-.733,38.334-1.257,12.544-.515,25.073-1.481,37.607-2.629,2.754-.256,5.5-.781,8.254-1.178,2.717-.4,5.441-.717,8.155-1.249,6.966-1.374,13.923-2.836,20.881-4.479,12.11-2.874,24.178-6.743,36.309-9.108,12.709-2.48,25.454-3.831,38.18-5.819a91.8,91.8,0,0,0,17.214-4.087,131.31,131.31,0,0,0,19.392-8.73c6.215-3.438,12.424-6.975,18.645-10.354a73.672,73.672,0,0,1,9-4.25,68.389,68.389,0,0,0,10.166-4.588c1.62-.942,1.9-6.823,1.875-10.612a49.272,49.272,0,0,0-.417-6.276c-.252-1.707-.77-4.435-1.6-4.362-6.095.482-12.187.982-18.276,1.686-6.145.71-12.3,1.127-18.457,1.286-11.952.305-23.937-.947-35.89-2.428,2.031-.727,4.062-1.442,6.092-2.169,7.293-2.612,14.561-5.914,21.9-7.653,3.9-.928,7.822-1.692,11.713-2.9a32.049,32.049,0,0,0,5.879-2.346,50.036,50.036,0,0,0,6.2-4.223q.992-.279,1.488-2.665a39.491,39.491,0,0,0,.936-8.222c2.08-1.715,2.445-10.079,2.411-15.114a70,70,0,0,0-.6-9.082c-.38-2.586-1.1-6.254-2.311-6.3-6.349-.27-12.693-1.5-19.042-1.789C548.489.033,547.742.013,547,0A113.009,113.009,0,0,0,530.64,1.267c-12.14,1.638-24.28,3.627-36.4,5.886-5.634,1.038-11.263,2.28-16.9,3.142-6.9,1.053-13.786,1.842-20.695,2.5-11.558,1.088-23.14,1.432-34.709,1.877-13.267.519-26.518,1.319-39.767,2.863-12.27,1.431-24.526,3.384-36.785,5.244q-18.462,2.78-36.928,5.57c-12.615,1.926-25.243,3.318-37.874,4.711-6.389.713-12.793.875-19.188,1.3-6.055.4-12.116.456-18.174.628-11.924.341-23.85.5-35.777.7-24.059.392-48.1,1.188-72.159,2q-19.821.682-39.637,1.488c-6.74.27-13.479.921-20.213,1.372-5.759.386-11.511,1.381-17.265,2.119-6.125.786-12.249,1.66-18.374,2.552-3.641.533-7.285,1.083-10.93,1.616-1.581.24-3.167.468-4.753.708-1.442.212-2.886.489-4.323.771a13.931,13.931,0,0,0-3.047,1.049c-1.121.5-2.233,1.854-3.306,2.838A17.479,17.479,0,0,0,2.12,57.537a67.511,67.511,0,0,0-.469,8.812,67.941,67.941,0,0,0,.586,8.836l.614,3.239Q3.419,81,4.486,81.33A20.974,20.974,0,0,0,8.28,83.884q1.053-.3,1.59-2.851c.136-.514.255-1.069.36-1.653.673-.045,1.349-.032,2.025-.024.646.007,1.291.009,1.941-.031q2.187-.107,4.368-.232,5.625-.3,11.25-.594c4.065-.224,8.127-.371,12.19-.519-.42.095-.84.184-1.257.273-9.588,1.93-19.169,3.866-28.746,6.09q-2.325.685-3.5,6.284a83.242,83.242,0,0,0-2.07,16.009c-1.686-.066-3.375-.131-5.061-.186C.183,106.406-.014,112.007,0,114.162c.015,2.184.285,7.686,1.467,7.734,1.616.059,3.233.154,4.849.23q.254,7.3,1.187,14.3.674,3.556,1.345,7.105,1.257,5.627,3.588,6.364C21.5,147.8,30.57,145.982,39.641,144.187Z" transform="matrix(1, 0.017, -0.017, 1, 153.459, 2191.735)" fill="#ad52dd"/>
  </g>
</svg>
