<svg xmlns="http://www.w3.org/2000/svg" width="318.086" height="44.326" viewBox="0 0 318.086 44.326">
  <path id="Trazado_2812" data-name="Trazado 2812" d="M456.522,434a84.011,84.011,0,0,1,12.762-1.755c2.413-.189,4.822-.318,7.241-.427,3.465-.155,6.919-.271,10.388-.345,6.6-.14,13.209-.193,19.814-.214,13.237-.042,26.459-.117,39.684-.7,13.714-.6,27.428-1.163,41.14-1.782,13-.588,26-1.175,39.008-1.624,13.026-.451,26.042-.851,39.054-1.591,13.315-.756,26.642-1.162,39.977-1.492,6.326-.155,12.671-.355,18.967-.964,3.286-.319,6.564-.678,9.844-1.056,3.211-.369,6.439-.613,9.662-.887a59.822,59.822,0,0,1,8.88.027,6.213,6.213,0,0,0,4.842-2.852q.889-1.6,1.775-3.2a24.859,24.859,0,0,0,0-17.46q-.887-1.6-1.775-3.2a6.213,6.213,0,0,0-4.842-2.852c-1.637.116-3.27.27-4.906.371-1.491.092-2.987.086-4.479.1-3.192.021-6.38.122-9.565.241-6.625.249-13.238.643-19.865.821-12.839.345-25.688.381-38.512,1.058-6.876.361-13.744.782-20.62,1.134-6.247.322-12.5.533-18.752.743q-19.96.665-39.9,1.622c-13.129.624-26.262,1.2-39.389,1.835q-10.886.522-21.776.965c-6.5.263-13.025.3-19.535.361-13.326.127-26.653.213-39.961.924-3.278.174-6.551.41-9.814.759-2.65.282-5.3.678-7.91,1.18-2.018.388-3.967,1-5.925,1.579a13.873,13.873,0,0,0-3.249,1.464,10.875,10.875,0,0,0-4.078,5.366,24,24,0,0,0-1.179,13.57,17.584,17.584,0,0,0,2.977,7.349q1.138,1.065,2.28,2.126a4.9,4.9,0,0,0,5.248,0A14.164,14.164,0,0,1,456.522,434Z" transform="translate(-443.058 -391.626)" fill="#fff"/>
</svg>
