<svg xmlns="http://www.w3.org/2000/svg" width="313.095" height="89.762" viewBox="0 0 313.095 89.762">
  <path id="Trazado_2811" data-name="Trazado 2811" d="M13.334,80.941a44.791,44.791,0,0,1,12.5-3.334c2.364-.353,4.724-.589,7.094-.786,3.4-.28,6.78-.484,10.179-.607,6.47-.232,12.945-.294,19.418-.294,12.973,0,25.932-.065,38.89-1.115,13.437-1.09,26.875-2.093,40.31-3.212,12.739-1.063,25.478-2.125,38.222-2.918,12.764-.8,25.519-1.495,38.267-2.854,13.045-1.388,26.105-2.1,39.172-2.655a131.835,131.835,0,0,0,18.583-1.758c3.219-.6,6.429-1.278,9.642-1.993,3.145-.7,6.307-1.152,9.465-1.665a29.677,29.677,0,0,1,8.7.107q3.122-.6,4.73-5.516.862-3.107,1.722-6.211a86.415,86.415,0,0,0,1.5-16.963,86.864,86.864,0,0,0-1.6-16.987q-.878-3.115-1.758-6.233Q306.736,1.01,303.61.371c-1.6.215-3.2.5-4.807.691a39.9,39.9,0,0,1-4.389.157c-3.128.021-6.252.2-9.373.41C278.549,2.073,272.07,2.8,265.575,3.1c-12.581.592-25.174.583-37.739,1.821-6.737.66-13.466,1.436-20.2,2.078-6.12.588-12.248.96-18.375,1.329Q169.7,9.5,150.163,11.24c-12.864,1.133-25.732,2.178-38.594,3.326q-10.666.948-21.337,1.743c-6.373.471-12.764.5-19.144.582-13.059.165-26.121.25-39.16,1.551a92.937,92.937,0,0,0-9.614,1.416A51.421,51.421,0,0,0,14.568,22.1a39.838,39.838,0,0,0-5.8,3.034,12.383,12.383,0,0,0-3.176,2.827A25.337,25.337,0,0,0,1.628,38.373,90.3,90.3,0,0,0,.549,64.751,57.188,57.188,0,0,0,3.508,79.06q1.122,2.078,2.247,4.148,2.579,2.982,5.144.032A13.265,13.265,0,0,1,13.334,80.941Z" transform="matrix(1, 0.017, -0.017, 1, 1.416, -0.372)" fill="#e52441"/>
</svg>
