<svg xmlns="http://www.w3.org/2000/svg" width="482.435" height="146.731" viewBox="0 0 482.435 146.731">
  <g id="Grupo_78028" data-name="Grupo 78028" transform="matrix(0.999, 0.035, -0.035, 0.999, -71.192, -2193.639)">
    <path id="Trazado_2809" data-name="Trazado 2809" d="M458.26,487.138a51.7,51.7,0,0,1,14.409-3.956c2.725-.426,5.444-.717,8.175-.962,3.912-.349,7.812-.611,11.728-.778,7.455-.316,14.914-.435,22.371-.482,14.945-.095,29.874-.264,44.805-1.576,15.484-1.362,30.968-2.622,46.449-4.017,14.68-1.326,29.358-2.649,44.042-3.661,14.707-1.017,29.4-1.918,44.094-3.586,15.033-1.7,30.081-2.619,45.136-3.363a151.368,151.368,0,0,0,21.414-2.173c3.711-.719,7.411-1.528,11.114-2.38,3.626-.832,7.27-1.382,10.909-2a33.974,33.974,0,0,1,10.026.061q3.6-.72,5.467-6.429,1-3.608,2-7.213a109.2,109.2,0,0,0,0-39.356q-1-3.6-2-7.213-1.868-5.711-5.467-6.429c-1.848.261-3.692.609-5.54.836a45.737,45.737,0,0,1-5.057.214c-3.6.047-7.2.275-10.8.543-7.48.561-14.946,1.449-22.429,1.851-14.5.778-29,.859-43.482,2.385-7.763.814-15.518,1.763-23.281,2.556-7.053.726-14.113,1.2-21.172,1.675q-22.536,1.5-45.05,3.656c-14.823,1.407-29.651,2.712-44.472,4.136q-12.291,1.177-24.586,2.175c-7.343.593-14.706.674-22.056.814-15.045.286-30.093.48-45.118,2.083a106.868,106.868,0,0,0-11.08,1.711,59.394,59.394,0,0,0-8.931,2.66,46.328,46.328,0,0,0-6.69,3.559,14.491,14.491,0,0,0-3.668,3.3,29.75,29.75,0,0,0-4.6,12.1c-2.013,9.431-2.281,20.72-1.332,30.588a66.3,66.3,0,0,0,3.361,16.565q1.285,2.4,2.574,4.792,2.961,3.439,5.925,0A15.534,15.534,0,0,1,458.26,487.138Z" transform="matrix(1, 0.017, -0.017, 1, -163.749, 1814.34)" fill="#09989a"/>
    <path id="Trazado_2201" data-name="Trazado 2201" d="M31.933,89.718c1.962-.3,3.937-.767,5.9-.9,1.836-.131,3.672-.269,5.5-.4,10.051-.724,20.1-1.664,30.155-1.922,10.518-.273,21.039-.756,31.559-.766,10.737-.009,21.47-.057,32.206.094q31.389.455,62.771.765c20.782.193,41.564.3,62.345.179,10.314-.068,20.629-.534,30.939-.9,10.125-.357,20.238-.987,30.357-1.729,2.224-.165,4.443-.494,6.665-.745,2.194-.254,4.393-.455,6.586-.788,5.626-.859,11.245-1.772,16.866-2.795,9.783-1.789,19.534-4.182,29.332-5.662,10.265-1.552,20.554-2.417,30.83-3.67a95.393,95.393,0,0,0,13.905-2.544,126.693,126.693,0,0,0,15.679-5.373c5.027-2.111,10.05-4.282,15.082-6.357A70.435,70.435,0,0,1,465.9,53.59a65.959,65.959,0,0,0,8.22-2.824c1.31-.578,1.557-4.153,1.55-6.456a22.614,22.614,0,0,0-.315-3.813c-.2-1.036-.606-2.693-1.275-2.646-4.92.314-9.838.639-14.754,1.088q-7.442.679-14.9.846a258.433,258.433,0,0,1-28.954-1.351c1.641-.449,3.283-.891,4.924-1.339,5.894-1.613,11.771-3.645,17.7-4.728,3.154-.578,6.318-1.056,9.462-1.8a31.565,31.565,0,0,0,4.752-1.446,43.514,43.514,0,0,0,5.022-2.588q.8-.173,1.21-1.625a18.468,18.468,0,0,0,.784-5c1.684-1.05,2.008-6.134,2-9.194a32.154,32.154,0,0,0-.455-5.518c-.3-1.571-.863-3.8-1.843-3.823C453.9,1.233,448.786.507,443.664.354c-.6-.017-1.2-.026-1.8-.029a120.77,120.77,0,0,0-13.2.824q-14.7,1.557-29.4,3.7c-4.55.65-9.1,1.425-13.653,1.968-5.571.664-11.131,1.167-16.709,1.589-9.331.7-18.679.951-28.016,1.261-10.708.361-21.4.894-32.1,1.878-9.907.913-19.8,2.142-29.7,3.315q-14.908,1.754-29.82,3.514c-10.186,1.214-20.382,2.1-30.58,2.995-5.158.456-10.327.576-15.489.854-4.887.264-9.779.319-14.668.445-9.623.249-19.248.387-28.873.55-19.416.322-38.824.889-58.237,1.467q-16,.484-31.991,1.042c-5.44.188-10.88.606-16.316.9-4.648.255-9.294.88-13.94,1.348-4.945.5-9.891,1.051-14.836,1.615-2.94.337-5.883.684-8.826,1.02-1.277.151-2.557.3-3.838.447-1.164.134-2.331.307-3.491.484a14,14,0,0,0-2.463.648,12.7,12.7,0,0,0-2.678,1.736,8.653,8.653,0,0,0-1.075,3.252,31.1,31.1,0,0,0-.409,5.357,31.2,31.2,0,0,0,.442,5.368l.484,1.966q.449,1.561,1.309,1.76a17.861,17.861,0,0,0,3.053,1.539c.567-.126,1-.7,1.293-1.738a10.382,10.382,0,0,0,.3-1.006c.543-.03,1.089-.024,1.634-.022.521,0,1.042,0,1.566-.026q1.765-.073,3.526-.156,4.54-.2,9.081-.4c3.281-.15,6.56-.254,9.839-.358-.339.059-.678.115-1.016.17-7.744,1.206-15.482,2.417-23.219,3.8q-1.878.424-2.849,3.831A39.106,39.106,0,0,0,5.26,67.011q-2.041-.051-4.084-.1C.223,66.894.045,70.3.049,71.608c0,1.327.2,4.67,1.157,4.7,1.3.03,2.609.082,3.912.123a67.436,67.436,0,0,0,.908,8.687q.531,2.159,1.061,4.314.995,3.416,2.873,3.855C17.281,91.978,24.606,90.841,31.933,89.718Z" transform="matrix(1, 0.017, -0.017, 1, 152.525, 2189.323)" fill="#09989a"/>
  </g>
</svg>
