<svg xmlns="http://www.w3.org/2000/svg" width="308.781" height="33.636" viewBox="0 0 308.781 33.636">
  <path id="Trazado_7877" data-name="Trazado 7877" d="M472.093,502c1.274-.11,2.557-.278,3.835-.33l3.574-.15c6.526-.272,13.049-.62,19.578-.727,6.828-.112,13.658-.3,20.487-.318,6.969-.019,13.936-.052,20.9-.014q20.374.116,40.743.179,20.234.057,40.468-.028c6.7-.039,13.391-.22,20.084-.364,6.573-.141,13.139-.38,19.708-.658,1.444-.062,2.885-.182,4.328-.274,1.425-.093,2.853-.168,4.276-.289,3.654-.313,7.3-.646,10.953-1.017,6.354-.649,12.688-1.514,19.051-2.053,6.666-.566,13.346-.888,20.019-1.348,3.012-.207,6.04-.466,9.031-.924,3.419-.519,6.807-1.147,10.188-1.931,3.267-.757,6.532-1.535,9.8-2.279,1.568-.359,3.146-.684,4.73-.939,1.793-.289,3.571-.586,5.341-1.014.852-.207,1.019-1.477,1.019-2.294a4.5,4.5,0,0,0-.2-1.353c-.126-.368-.388-.955-.822-.937-3.194.119-6.387.241-9.579.408q-4.832.252-9.673.322c-6.262.095-12.535-.147-18.791-.437l3.2-.483c3.829-.581,7.648-1.311,11.5-1.7,2.048-.21,4.1-.384,6.146-.653,1.036-.135,2.064-.291,3.087-.52,1.1-.248,2.184-.586,3.265-.926a.993.993,0,0,0,.789-.579,3.966,3.966,0,0,0,.519-1.776c1.1-.375,1.315-2.181,1.315-3.267a6.392,6.392,0,0,0-.284-1.958c-.19-.557-.553-1.347-1.189-1.354-3.325-.043-6.643-.293-9.968-.34-.39-.005-.781-.008-1.171-.008-2.86,0-5.716.14-8.573.312q-9.547.574-19.089,1.358c-2.955.238-5.907.519-8.866.719-3.618.244-7.228.431-10.849.589-6.058.263-12.126.365-18.188.489-6.951.144-13.895.349-20.841.714-6.432.339-12.859.79-19.287,1.22q-9.68.644-19.363,1.291c-6.615.446-13.234.777-19.855,1.108-3.349.169-6.7.22-10.056.326-3.173.1-6.348.128-9.522.179-6.247.1-12.495.166-18.743.237-12.6.143-25.2.373-37.8.606q-10.385.2-20.768.417c-3.531.075-7.064.231-10.593.345-3.018.1-6.034.326-9.051.5q-4.817.277-9.633.6-2.863.186-5.731.375l-2.492.164c-.756.049-1.513.112-2.267.177a15.519,15.519,0,0,0-1.6.234,10.7,10.7,0,0,0-1.742.62,2.358,2.358,0,0,0-.7,1.156,6.7,6.7,0,0,0,0,3.808l.31.7a1.074,1.074,0,0,0,.846.623,16.72,16.72,0,0,0,1.979.542,1.068,1.068,0,0,0,.843-.619,2.617,2.617,0,0,0,.194-.358c.353-.011.707-.01,1.061-.01.338,0,.676,0,1.017-.011q1.146-.028,2.289-.061,2.948-.078,5.9-.155c2.13-.058,4.258-.1,6.387-.142l-.66.062c-5.029.44-10.054.881-15.079,1.383a2.367,2.367,0,0,0-1.857,1.365,8.559,8.559,0,0,0-1.14,3.459q-1.325-.015-2.651-.028c-.619-.006-.741,1.2-.741,1.668s.122,1.658.741,1.665c.846.009,1.693.025,2.539.038a13.57,13.57,0,0,0,.572,3.083q.34.766.68,1.53a2.367,2.367,0,0,0,1.857,1.365C462.577,502.826,467.334,502.411,472.093,502Z" transform="translate(-451.433 -469.663)" fill="#ffd64f"/>
</svg>
