<svg xmlns="http://www.w3.org/2000/svg" width="280.584" height="54.043" viewBox="0 0 280.584 54.043">
  <path id="Trazado_2813" data-name="Trazado 2813" d="M454.877,434a65.293,65.293,0,0,1,11.2-1.755c2.118-.189,4.233-.318,6.356-.427,3.042-.155,6.073-.271,9.118-.345,5.8-.14,11.595-.193,17.392-.214,11.619-.042,23.225-.117,34.834-.7,12.038-.6,24.076-1.163,36.111-1.782,11.412-.588,22.824-1.175,34.24-1.624,11.434-.451,22.859-.851,34.28-1.591,11.687-.756,23.386-1.162,35.091-1.492,5.552-.155,11.122-.355,16.648-.964,2.885-.319,5.762-.678,8.641-1.056,2.819-.369,5.652-.613,8.481-.887a46.111,46.111,0,0,1,7.794.027,5.384,5.384,0,0,0,4.25-2.852l1.558-3.2a28.114,28.114,0,0,0,0-17.46l-1.558-3.2a5.384,5.384,0,0,0-4.25-2.852c-1.437.116-2.87.27-4.307.371-1.309.092-2.622.086-3.932.1-2.8.021-5.6.122-8.4.241-5.815.249-11.62.643-17.437.821-11.269.345-22.548.381-33.805,1.058-6.035.361-12.064.782-18.1,1.134-5.483.322-10.972.533-16.46.743q-17.521.665-35.023,1.622c-11.524.624-23.052,1.2-34.575,1.835q-9.556.522-19.114.965c-5.709.263-11.433.3-17.147.361-11.7.127-23.4.213-35.077.924-2.877.174-5.75.41-8.614.759-2.326.282-4.652.678-6.943,1.18a49.525,49.525,0,0,0-5.2,1.579,11.514,11.514,0,0,0-2.852,1.464,10.841,10.841,0,0,0-3.579,5.366,27.144,27.144,0,0,0-1.035,13.57,19.025,19.025,0,0,0,2.613,7.349q1,1.065,2,2.126a3.859,3.859,0,0,0,4.607,0A11.837,11.837,0,0,1,454.877,434Z" transform="matrix(0.999, 0.035, -0.035, 0.999, -427.573, -406.85)" fill="#ad52dd"/>
</svg>
