<svg xmlns="http://www.w3.org/2000/svg" width="178.626" height="33.636" viewBox="0 0 178.626 33.636">
  <path id="Trazado_7879" data-name="Trazado 7879" d="M463.384,502c.737-.11,1.479-.278,2.218-.33l2.068-.15c3.775-.272,7.549-.62,11.325-.727,3.95-.112,7.9-.3,11.851-.318,4.032-.019,8.062-.052,12.093-.014q11.786.116,23.569.179c7.8.038,15.607.045,23.41-.028,3.873-.039,7.747-.22,11.619-.364,3.8-.141,7.6-.38,11.4-.658.835-.062,1.669-.182,2.5-.274s1.65-.168,2.474-.289c2.114-.313,4.225-.646,6.336-1.017,3.675-.649,7.34-1.514,11.021-2.053,3.856-.566,7.721-.888,11.581-1.348a37.814,37.814,0,0,0,5.224-.924,49.8,49.8,0,0,0,5.894-1.931c1.89-.757,3.779-1.535,5.671-2.279a27.656,27.656,0,0,1,2.736-.939,25.939,25.939,0,0,0,3.09-1.014c.493-.207.589-1.477.589-2.294a7.592,7.592,0,0,0-.114-1.353c-.073-.368-.224-.955-.476-.937-1.848.119-3.7.241-5.542.408q-2.8.252-5.6.322a102.489,102.489,0,0,1-10.871-.437l1.85-.483c2.215-.581,4.424-1.311,6.651-1.7,1.185-.21,2.374-.384,3.555-.653a12.429,12.429,0,0,0,1.786-.52,16.851,16.851,0,0,0,1.889-.926q.3-.063.456-.579a6.26,6.26,0,0,0,.3-1.776c.634-.375.761-2.181.761-3.267a10.78,10.78,0,0,0-.164-1.958c-.11-.557-.32-1.347-.688-1.354-1.923-.043-3.843-.293-5.766-.34-.226-.005-.452-.008-.677-.008a47.979,47.979,0,0,0-4.959.312q-5.523.574-11.043,1.358c-1.709.238-3.417.519-5.129.719-2.093.244-4.181.431-6.276.589-3.5.263-7.015.365-10.522.489-4.021.144-8.038.349-12.056.714-3.721.339-7.439.79-11.157,1.22q-5.6.644-11.2,1.291c-3.826.446-7.656.777-11.486,1.108-1.937.169-3.878.22-5.817.326-1.836.1-3.672.128-5.508.179-3.614.1-7.228.166-10.842.237-7.291.143-14.579.373-21.87.606q-6.008.2-12.014.417c-2.043.075-4.086.231-6.128.345-1.746.1-3.491.326-5.236.5-1.858.184-3.715.388-5.573.6-1.1.124-2.21.251-3.315.375l-1.442.164c-.437.049-.876.112-1.312.177a5.527,5.527,0,0,0-.926.234,4.852,4.852,0,0,0-1.007.62,2.98,2.98,0,0,0-.408,1.156,11.417,11.417,0,0,0,0,3.808l.179.7c.111.369.275.576.489.623a6.806,6.806,0,0,0,1.145.542c.213-.045.376-.251.487-.619a3.526,3.526,0,0,0,.112-.358c.2-.011.409-.01.614-.01s.391,0,.588-.011q.663-.028,1.324-.061,1.705-.078,3.41-.155c1.232-.058,2.463-.1,3.695-.142l-.382.062c-2.909.44-5.816.881-8.723,1.383q-.706.154-1.074,1.365a13.256,13.256,0,0,0-.66,3.459c-.511-.01-1.022-.02-1.533-.028-.358-.006-.429,1.2-.429,1.668s.071,1.658.429,1.665c.489.009.979.025,1.469.038a22.631,22.631,0,0,0,.331,3.083q.2.766.393,1.53.37,1.211,1.074,1.365C457.88,502.826,460.632,502.411,463.384,502Z" transform="translate(-451.433 -469.663)" fill="#ffd64f"/>
</svg>
