<svg xmlns="http://www.w3.org/2000/svg" width="462.809" height="103.306" viewBox="0 0 462.809 103.306">
  <g id="Grupo_78031" data-name="Grupo 78031" transform="translate(-119.044 -201.778)">
    <g id="Grupo_78018" data-name="Grupo 78018" transform="matrix(1, 0.017, -0.017, 1, 46.007, -28.402)">
      <path id="Trazado_2669" data-name="Trazado 2669" d="M464.961,495.259c.834-.087,1.674-.22,2.511-.261l2.34-.119c4.273-.215,8.544-.491,12.82-.575,4.471-.089,8.943-.237,13.415-.252,4.564-.015,9.126-.041,13.689-.011q13.341.092,26.679.142,13.249.045,26.5-.022c4.384-.031,8.769-.174,13.151-.288,4.3-.112,8.6-.3,12.9-.521.945-.049,1.889-.144,2.834-.217s1.868-.133,2.8-.229c2.393-.248,4.782-.511,7.172-.8,4.16-.514,8.308-1.2,12.475-1.625,4.365-.448,8.739-.7,13.109-1.067,1.972-.164,3.955-.369,5.914-.731,2.239-.411,4.458-.908,6.671-1.528,2.139-.6,4.277-1.215,6.419-1.8,1.027-.284,2.06-.541,3.1-.743,1.174-.229,2.338-.464,3.5-.8.558-.164.667-1.169.667-1.816a4.258,4.258,0,0,0-.129-1.071c-.082-.291-.254-.756-.539-.742-2.092.094-4.182.191-6.273.323q-3.164.2-6.334.255c-4.1.075-8.208-.116-12.3-.346l2.095-.382c2.507-.46,5.008-1.038,7.528-1.349,1.341-.166,2.687-.3,4.024-.517a18.911,18.911,0,0,0,2.022-.412c.72-.2,1.43-.464,2.138-.733a.674.674,0,0,0,.516-.458,3.633,3.633,0,0,0,.34-1.406c.717-.3.862-1.726.862-2.586a6.05,6.05,0,0,0-.186-1.55c-.124-.441-.362-1.066-.778-1.072-2.177-.034-4.35-.232-6.527-.269-.255,0-.511-.006-.767-.006-1.873,0-3.743.111-5.613.247q-6.251.455-12.5,1.075c-1.935.188-3.868.411-5.805.569-2.369.193-4.733.341-7.1.466-3.967.208-7.94.289-11.91.387-4.552.114-9.1.276-13.646.565-4.212.268-8.42.625-12.629.966q-6.339.51-12.679,1.022c-4.331.353-8.666.615-13,.877-2.193.134-4.39.174-6.584.258-2.078.08-4.157.1-6.235.142-4.091.081-8.182.131-12.273.188-8.253.113-16.5.3-24.755.48q-6.8.154-13.6.33c-2.312.059-4.625.183-6.936.273-1.976.077-3.951.258-5.927.4-2.1.146-4.205.307-6.308.471q-1.875.147-3.753.3l-1.632.13c-.5.039-.991.089-1.485.14a8.533,8.533,0,0,0-1.048.185,6.254,6.254,0,0,0-1.14.491,1.963,1.963,0,0,0-.461.915,6.365,6.365,0,0,0,0,3.014l.2.552a.73.73,0,0,0,.554.493,9.5,9.5,0,0,0,1.3.429.725.725,0,0,0,.552-.49,2.244,2.244,0,0,0,.127-.283c.231-.009.463-.008.695-.008s.443,0,.666-.009q.75-.023,1.5-.048l3.86-.123c1.395-.046,2.788-.079,4.182-.112l-.432.049c-3.293.348-6.584.7-9.874,1.1a1.606,1.606,0,0,0-1.216,1.08,7.784,7.784,0,0,0-.747,2.738q-.867-.012-1.736-.022c-.405-.005-.486.952-.486,1.32s.08,1.312.486,1.318c.554.007,1.109.02,1.663.03a12.767,12.767,0,0,0,.374,2.44q.223.606.445,1.211a1.606,1.606,0,0,0,1.216,1.08C458.73,495.911,461.845,495.583,464.961,495.259Z" transform="translate(-301.995 -205.606)" fill="#ffd64f"/>
      <path id="Trazado_2670" data-name="Trazado 2670" d="M453.443,452.1a37.515,37.515,0,0,1,9.843-2.5c1.861-.27,3.719-.454,5.585-.609,2.673-.221,5.337-.387,8.012-.492,5.093-.2,10.188-.275,15.283-.305,10.21-.06,20.408-.167,30.608-1,10.578-.862,21.155-1.66,31.731-2.543,10.028-.839,20.055-1.677,30.087-2.318,10.047-.644,20.086-1.215,30.122-2.271,10.269-1.079,20.549-1.658,30.834-2.129a111.3,111.3,0,0,0,14.629-1.376c2.535-.455,5.063-.968,7.593-1.507,2.477-.527,4.966-.875,7.452-1.266a25.021,25.021,0,0,1,6.849.039q2.458-.456,3.735-4.07.686-2.284,1.369-4.567a64.172,64.172,0,0,0,0-24.92q-.684-2.282-1.369-4.567-1.276-3.616-3.735-4.07c-1.262.166-2.522.385-3.784.529a33.691,33.691,0,0,1-3.455.136c-2.462.03-4.921.174-7.378.344-5.11.355-10.21.918-15.322,1.172-9.9.492-19.813.544-29.7,1.51-5.3.515-10.6,1.116-15.9,1.618-4.818.46-9.641.761-14.464,1.06q-15.4.948-30.775,2.315c-10.126.891-20.255,1.717-30.38,2.619q-8.4.745-16.8,1.377c-5.017.375-10.046.427-15.067.515-10.278.181-20.558.3-30.822,1.319-2.528.248-5.052.585-7.569,1.083a43.03,43.03,0,0,0-6.1,1.684,32.563,32.563,0,0,0-4.57,2.254,9.691,9.691,0,0,0-2.506,2.09,18.044,18.044,0,0,0-3.145,7.659,61.965,61.965,0,0,0-.91,19.368,39.315,39.315,0,0,0,2.3,10.489q.878,1.52,1.759,3.034,2.023,2.177,4.048,0A10.322,10.322,0,0,1,453.443,452.1Z" transform="translate(-364.286 -127.009)" fill="#ffd64f"/>
    </g>
    <g id="Grupo_78023" data-name="Grupo 78023" transform="matrix(1, 0.017, -0.017, 1, 47.492, -64.173)">
      <path id="Trazado_2669-2" data-name="Trazado 2669" d="M464.961,495.259c.834-.087,1.674-.22,2.511-.261l2.34-.119c4.273-.215,8.544-.491,12.82-.575,4.471-.089,8.943-.237,13.415-.252,4.564-.015,9.126-.041,13.689-.011q13.341.092,26.679.142,13.249.045,26.5-.022c4.384-.031,8.769-.174,13.151-.288,4.3-.112,8.6-.3,12.9-.521.945-.049,1.889-.144,2.834-.217s1.868-.133,2.8-.229c2.393-.248,4.782-.511,7.172-.8,4.16-.514,8.308-1.2,12.475-1.625,4.365-.448,8.739-.7,13.109-1.067,1.972-.164,3.955-.369,5.914-.731,2.239-.411,4.458-.908,6.671-1.528,2.139-.6,4.277-1.215,6.419-1.8,1.027-.284,2.06-.541,3.1-.743,1.174-.229,2.338-.464,3.5-.8.558-.164.667-1.169.667-1.816a4.258,4.258,0,0,0-.129-1.071c-.082-.291-.254-.756-.539-.742-2.092.094-4.182.191-6.273.323q-3.164.2-6.334.255c-4.1.075-8.208-.116-12.3-.346l2.095-.382c2.507-.46,5.008-1.038,7.528-1.349,1.341-.166,2.687-.3,4.024-.517a18.911,18.911,0,0,0,2.022-.412c.72-.2,1.43-.464,2.138-.733a.674.674,0,0,0,.516-.458,3.633,3.633,0,0,0,.34-1.406c.717-.3.862-1.726.862-2.586a6.05,6.05,0,0,0-.186-1.55c-.124-.441-.362-1.066-.778-1.072-2.177-.034-4.35-.232-6.527-.269-.255,0-.511-.006-.767-.006-1.873,0-3.743.111-5.613.247q-6.251.455-12.5,1.075c-1.935.188-3.868.411-5.805.569-2.369.193-4.733.341-7.1.466-3.967.208-7.94.289-11.91.387-4.552.114-9.1.276-13.646.565-4.212.268-8.42.625-12.629.966q-6.339.51-12.679,1.022c-4.331.353-8.666.615-13,.877-2.193.134-4.39.174-6.584.258-2.078.08-4.157.1-6.235.142-4.091.081-8.182.131-12.273.188-8.253.113-16.5.3-24.755.48q-6.8.154-13.6.33c-2.312.059-4.625.183-6.936.273-1.976.077-3.951.258-5.927.4-2.1.146-4.205.307-6.308.471q-1.875.147-3.753.3l-1.632.13c-.5.039-.991.089-1.485.14a8.533,8.533,0,0,0-1.048.185,6.254,6.254,0,0,0-1.14.491,1.963,1.963,0,0,0-.461.915,6.365,6.365,0,0,0,0,3.014l.2.552a.73.73,0,0,0,.554.493,9.5,9.5,0,0,0,1.3.429.725.725,0,0,0,.552-.49,2.244,2.244,0,0,0,.127-.283c.231-.009.463-.008.695-.008s.443,0,.666-.009q.75-.023,1.5-.048l3.86-.123c1.395-.046,2.788-.079,4.182-.112l-.432.049c-3.293.348-6.584.7-9.874,1.1a1.606,1.606,0,0,0-1.216,1.08,7.784,7.784,0,0,0-.747,2.738q-.867-.012-1.736-.022c-.405-.005-.486.952-.486,1.32s.08,1.312.486,1.318c.554.007,1.109.02,1.663.03a12.767,12.767,0,0,0,.374,2.44q.223.606.445,1.211a1.606,1.606,0,0,0,1.216,1.08C458.73,495.911,461.845,495.583,464.961,495.259Z" transform="translate(-114.573 -205.606)" fill="#ffd64f"/>
      <path id="Trazado_2670-2" data-name="Trazado 2670" d="M461.376,447.1a118.515,118.515,0,0,1,17.363-2.3c3.283-.247,6.561-.416,9.851-.559,4.714-.2,9.413-.355,14.132-.452,8.983-.183,17.971-.253,26.958-.28,18.009-.055,36-.153,53.99-.915,18.658-.791,37.316-1.523,55.971-2.333,17.689-.77,35.376-1.538,53.071-2.126,17.722-.591,35.43-1.114,53.133-2.083,18.115-.99,36.247-1.521,54.389-1.953,8.606-.2,17.239-.465,25.8-1.262,4.471-.418,8.931-.888,13.393-1.383,4.369-.483,8.76-.8,13.145-1.161a84.57,84.57,0,0,1,12.081.035,8.515,8.515,0,0,0,6.588-3.734q1.209-2.1,2.415-4.19a31.4,31.4,0,0,0,0-22.859q-1.207-2.093-2.415-4.19a8.515,8.515,0,0,0-6.588-3.734c-2.226.152-4.448.353-6.675.486-2.029.12-4.064.113-6.094.124-4.343.027-8.68.16-13.014.316-9.014.326-18.01.842-27.027,1.075-17.467.452-34.949.5-52.4,1.385-9.354.473-18.7,1.024-28.053,1.485-8.5.422-17.006.7-25.513.973q-27.156.87-54.285,2.124c-17.862.817-35.729,1.575-53.589,2.4q-14.811.683-29.626,1.263c-8.849.344-17.721.391-26.577.473-18.13.166-36.262.279-54.368,1.21-4.459.228-8.912.537-13.352.994-3.6.369-7.211.888-10.762,1.545-2.746.508-5.4,1.308-8.061,2.067a19.242,19.242,0,0,0-4.42,1.917,14.312,14.312,0,0,0-5.548,7.025,30.313,30.313,0,0,0-1.6,17.767,22.543,22.543,0,0,0,4.05,9.622q1.549,1.395,3.1,2.784a6.881,6.881,0,0,0,7.14,0A19.616,19.616,0,0,1,461.376,447.1Z" transform="translate(-364.286 -127.009)" fill="#ffd64f"/>
    </g>
  </g>
</svg>
