<svg xmlns="http://www.w3.org/2000/svg" width="33.376" height="61.235" viewBox="0 0 33.376 61.235">
  <g id="Grupo_77953" data-name="Grupo 77953" transform="translate(43.994 32.755) rotate(137)">
    <path id="Trazado_1898" data-name="Trazado 1898" d="M11.872,11.351q1.895,2.873,3.818,5.728.927,1.374,1.863,2.748a3.993,3.993,0,0,1,.66,3.651,1.639,1.639,0,0,1-1.561,1.214,3.925,3.925,0,0,1-3.289-1.648q-1.016-1.309-2.027-2.623Q9.142,17.573,6.975,14.7C4.2,11.021,2.285,6.569.176,2.476-.619.936,1.471-.926,2.721.523q2.293,2.663,4.615,5.3a50.97,50.97,0,0,1,4.537,5.529" transform="translate(0 20.093)" fill="#ffd64f"/>
    <path id="Trazado_1899" data-name="Trazado 1899" d="M21.032,13.673c-1.728,1.066-4.339-.184-6.088-.808a47.053,47.053,0,0,1-5.808-2.5C5.658,8.567,2.672,5.18.268,2.153-.5,1.193.5-.65,1.717.233a42.213,42.213,0,0,0,4.89,3.084c1.6.863,3.327,1.491,4.907,2.39a40.3,40.3,0,0,0,4.9,2.388c1.735.694,4.446.946,5.409,2.672a2.171,2.171,0,0,1-.789,2.906" transform="translate(7.997 14.818)" fill="#ffd64f"/>
    <path id="Trazado_1900" data-name="Trazado 1900" d="M3.486.925c.469.008.939.015,1.407.025C5.99.967,7.086.988,8.182,1c2.033.036,4.074.025,6.105.106a47.093,47.093,0,0,1,6.107.958l3.226.567a9.69,9.69,0,0,1,3.018.762,1.227,1.227,0,0,1-.283,2.23,13.2,13.2,0,0,1-4.066.118q-2.111-.051-4.226-.1a29.764,29.764,0,0,1-4.313-.243c-1.459-.252-2.913-.531-4.372-.8l-4.14-.753a25.583,25.583,0,0,1-3.953-.768A1.687,1.687,0,0,1,.057,1.094,1.406,1.406,0,0,1,1.844.079a1.05,1.05,0,0,1,.7.829h0l.941.017" transform="translate(14.518 0)" fill="#ffd64f"/>
  </g>
</svg>
