<svg version="1.2" xmlns="http://www.w3.org/2000/svg" viewBox="0 0 26 26" width="26" height="26">
	<title>Grupo 78036-svg</title>
	<style>
		.s0 { fill: #d0d0d0 } 
		.s1 { fill: #ffffff } 
	</style>
	<g id="Grupo_78036">
		<path id="Elipse_22" class="s0" d="m13 26c-7.2 0-13-5.8-13-13 0-7.2 5.8-13 13-13 7.2 0 13 5.8 13 13 0 7.2-5.8 13-13 13z"/>
		<path id="Elipse_23" class="s0" d="m43.7 26c-7.2 0-13-5.8-13-13 0-7.2 5.8-13 13-13 7.2 0 13 5.8 13 13 0 7.2-5.8 13-13 13z"/>
		<path id="Elipse_24" class="s0" d="m74.4 26c-7.1 0-12.9-5.8-12.9-13 0-7.2 5.8-13 12.9-13 7.2 0 13 5.8 13 13 0 7.2-5.8 13-13 13z"/>
		<path id="Trazado_1378" fill-rule="evenodd" class="s1" d="m14.2 20.8v-7h2.4l0.4-2.8h-2.8v-1.7c0-0.8 0.3-1.4 1.4-1.4h1.5v-2.5c-0.4 0-1.2-0.1-2.2-0.1q-0.7-0.1-1.4 0.2-0.7 0.3-1.2 0.8-0.5 0.5-0.8 1.2-0.2 0.7-0.1 1.4v2.1h-2.5v2.8h2.5v7z"/>
		<path id="Trazado_1376" fill-rule="evenodd" class="s1" d="m39.3 18.7c1.1 0.4 2.3 0.5 3.5 0.3 1.2-0.1 2.3-0.5 3.4-1.1 1-0.6 1.9-1.4 2.6-2.4 0.8-0.9 1.3-2 1.6-3.2l0.1-0.4q0.3-0.1 0.5-0.2 0.3-0.1 0.5-0.3 0.2-0.1 0.5-0.3 0.2-0.2 0.4-0.4-0.2 0.1-0.5 0.1-0.2 0-0.4 0-0.3 0-0.5 0-0.2 0-0.5 0 0.3-0.1 0.6-0.2 0.2-0.2 0.4-0.3 0.3-0.2 0.5-0.4 0.2-0.2 0.3-0.4-0.2 0-0.5 0.1-0.3 0-0.5 0-0.3 0.1-0.6 0.1-0.2 0-0.5 0-0.2-0.3-0.4-0.6-0.2-0.2-0.4-0.4-0.3-0.2-0.6-0.4-0.3-0.1-0.6-0.2-0.6-0.2-1.2-0.1-0.7 0.1-1.2 0.4-0.6 0.3-1 0.8-0.3 0.5-0.5 1.1 0 0.1-0.1 0.2 0 0.1 0 0.2 0 0.1 0 0.2 0 0 0 0.1-0.9-0.3-1.7-0.7-0.9-0.5-1.6-1.2-0.7-0.6-1.2-1.4-0.6-0.7-1-1.6-0.1 0.1-0.3 0.3-0.1 0.2-0.2 0.4-0.1 0.1-0.2 0.3-0.1 0.2-0.1 0.5-0.1 0.3-0.1 0.7 0 0.4 0.1 0.8 0 0.4 0.2 0.7 0.2 0.4 0.4 0.7-0.2-0.1-0.3-0.1-0.2-0.1-0.4-0.2-0.2-0.1-0.3-0.2-0.2-0.2-0.3-0.3-0.1 0.5-0.1 1.1 0.1 0.5 0.3 1 0.2 0.5 0.6 0.9 0.4 0.4 0.9 0.7-0.1 0-0.2 0-0.1 0-0.2-0.1-0.1 0-0.2 0-0.1 0-0.2-0.1-0.1 0-0.2 0-0.1 0-0.1-0.1-0.1 0-0.2 0 0-0.1-0.1-0.1 0 0.5 0.2 1 0.2 0.4 0.5 0.8 0.3 0.4 0.7 0.7 0.5 0.3 0.9 0.4-0.5 0.3-1 0.4-0.5 0.1-1 0.1-0.6 0.1-1.1 0-0.5 0-1.1-0.1-0.1-0.1-0.2-0.1 0 0-0.1-0.1-0.1 0-0.2 0-0.1-0.1-0.2-0.1 0.4 0.5 0.9 0.9 0.5 0.5 1.1 0.8 0.5 0.4 1.1 0.6 0.6 0.3 1.3 0.4z"/>
		<path id="pinterest-svgrepo-com" class="s1" d="m68.4 10.7q0-0.3 0-0.5 0-0.2 0.1-0.5 0-0.2 0.1-0.5 0-0.2 0.1-0.4 0.1-0.2 0.2-0.4 0.1-0.3 0.2-0.5 0.2-0.2 0.3-0.3 0.2-0.2 0.3-0.4 0.3-0.3 0.7-0.6 0.4-0.3 0.8-0.6 0.4-0.2 0.8-0.4 0.4-0.2 0.9-0.3 0.3-0.1 0.5-0.1 0.2-0.1 0.5-0.1 0.2 0 0.5 0 0.2-0.1 0.4-0.1h0.1q0.4 0 0.7 0.1 0.4 0 0.7 0.1 0.4 0.1 0.7 0.2 0.4 0.1 0.7 0.3 0.3 0.1 0.6 0.3 0.3 0.2 0.5 0.4 0.3 0.3 0.5 0.5 0.3 0.3 0.5 0.6 0.2 0.3 0.3 0.6 0.2 0.4 0.3 0.7 0.1 0.3 0.1 0.7 0.1 0.3 0.1 0.7 0 0 0 0.1 0 0.2 0 0.4 0 0.3-0.1 0.5 0 0.2 0 0.5-0.1 0.2-0.1 0.4v-0.1q0 0.3-0.1 0.5-0.1 0.2-0.1 0.4-0.1 0.2-0.2 0.5-0.1 0.2-0.2 0.4v-0.1q-0.1 0.2-0.2 0.4-0.1 0.2-0.2 0.4-0.1 0.2-0.3 0.3-0.1 0.2-0.2 0.4-0.2 0.1-0.3 0.3-0.2 0.1-0.4 0.2-0.1 0.1-0.3 0.2-0.2 0.2-0.4 0.2-0.2 0.1-0.4 0.2-0.3 0.1-0.5 0.1-0.2 0.1-0.4 0.1-0.2 0-0.5 0-0.2 0-0.4 0-0.1 0-0.3-0.1-0.2 0-0.3-0.1-0.2 0-0.3-0.1-0.1-0.1-0.3-0.1-0.1-0.1-0.2-0.2-0.1-0.1-0.2-0.3-0.1-0.1-0.2-0.2-0.1 0.3-0.3 1-0.1 0.7-0.2 1-0.1 0.2-0.2 0.6 0 0.1-0.1 0.2 0 0.1 0 0.2-0.1 0.1-0.1 0.2 0 0-0.1 0.1l-0.3 0.6q0 0.1-0.1 0.2 0 0.1-0.1 0.2 0 0.1-0.1 0.2-0.1 0.1-0.1 0.2v-0.1q-0.2 0.4-0.6 0.9h-0.1l-0.1-0.1q-0.2-1.5-0.2-1.8 0-0.2 0.1-0.5 0-0.2 0-0.5 0-0.3 0.1-0.5 0-0.3 0.1-0.5v0.1q0.2-1.1 0.6-2.8 0.4-1.6 0.5-1.9-0.1-0.2-0.1-0.4-0.1-0.2-0.1-0.3-0.1-0.2-0.1-0.4 0-0.2 0-0.4 0-0.1 0-0.1 0-0.2 0-0.4 0-0.2 0.1-0.4 0.1-0.2 0.2-0.4 0.1-0.2 0.2-0.3 0.1-0.2 0.2-0.3 0.2-0.1 0.3-0.2 0.2-0.1 0.4-0.2 0.2 0 0.3 0h0.1q0.1 0 0.2 0 0.2 0 0.3 0.1 0.1 0 0.2 0.1 0.1 0.1 0.1 0.2 0.1 0.1 0.2 0.2 0 0.1 0.1 0.2 0 0.1 0.1 0.2 0 0.2 0 0.3 0 0 0 0 0 0.3-0.1 0.5 0 0.3-0.1 0.5 0 0.2-0.1 0.5-0.1 0.2-0.2 0.4h0.1q-0.1 0.2-0.2 0.4-0.1 0.2-0.1 0.4-0.1 0.2-0.1 0.5 0 0.2-0.1 0.4 0 0.1 0 0.1 0 0.1 0.1 0.2 0 0.2 0 0.3 0.1 0.1 0.2 0.2 0.1 0.1 0.2 0.2 0.1 0.1 0.2 0.2 0.1 0.1 0.2 0.1 0.2 0.1 0.3 0.1 0.1 0 0.3 0 0.1 0 0.3 0 0.1 0 0.2 0 0.1-0.1 0.2-0.1 0.2 0 0.3-0.1 0.1-0.1 0.2-0.1 0.1-0.1 0.2-0.2 0.1-0.1 0.2-0.2 0 0 0.1-0.1v-0.1q0.1-0.1 0.2-0.2 0-0.1 0.1-0.2 0.1-0.1 0.1-0.2 0.1-0.1 0.1-0.2v-0.1q0.1-0.1 0.2-0.2 0-0.1 0.1-0.3 0-0.1 0-0.2 0.1-0.1 0.1-0.3 0-0.1 0.1-0.3 0-0.1 0-0.2 0-0.1 0.1-0.3 0-0.1 0-0.2v-0.1q0-0.1 0-0.2 0-0.1 0-0.2 0.1-0.2 0.1-0.3 0-0.1 0-0.2 0-0.1 0-0.2 0-0.3-0.1-0.7-0.1-0.3-0.2-0.6-0.1-0.3-0.3-0.6-0.2-0.3-0.5-0.5-0.2-0.2-0.5-0.4-0.3-0.2-0.7-0.3-0.3-0.1-0.6-0.2-0.4 0-0.7 0-0.1 0-0.2 0h-0.1q-0.5 0-0.9 0.1-0.4 0-0.8 0.2-0.4 0.2-0.7 0.4-0.4 0.2-0.7 0.5-0.3 0.3-0.5 0.7-0.3 0.3-0.4 0.7-0.2 0.4-0.3 0.8-0.1 0.4-0.1 0.8 0 0.1 0 0.2 0 0.1 0 0.2 0 0.1 0.1 0.2 0 0.1 0 0.2 0 0.1 0.1 0.2h-0.1q0.1 0.1 0.1 0.1 0 0.1 0.1 0.2 0 0.1 0 0.2 0.1 0 0.1 0.1 0.1 0.2 0.3 0.4 0 0.1 0 0.1 0 0 0 0.1 0.1 0 0.1 0 0 0.1 0 0.1 0 0.1 0 0.2 0 0.1-0.1 0.2 0 0.1 0 0.1 0 0.1-0.1 0.2-0.1 0.4-0.3 0.4 0 0-0.2 0-0.1 0-0.2-0.1-0.1 0-0.2-0.1-0.1-0.1-0.2-0.1-0.1-0.1-0.2-0.2-0.1-0.1-0.2-0.2-0.1-0.1-0.2-0.2 0-0.1-0.1-0.3-0.1-0.1-0.1-0.2-0.1-0.1-0.1-0.3-0.1-0.1-0.1-0.2 0-0.1-0.1-0.3 0-0.1 0-0.2v-0.1q-0.1-0.1-0.1-0.2 0-0.1 0-0.3 0-0.1 0-0.2 0-0.1 0-0.3 0 0 0 0z"/>
	</g>
</svg>