<svg xmlns="http://www.w3.org/2000/svg" width="232.154" height="66.658" viewBox="0 0 232.154 66.658">
  <path id="Trazado_2812" data-name="Trazado 2812" d="M476.44,178.31c21.66.3,38.173.06,54.553-1.94a159.142,159.142,0,0,0,17.459-3.376,25.14,25.14,0,0,0,7.137-3.151c3.555-2.181,3.782-4.581.685-7.148a39.9,39.9,0,0,0-6.925-4.5c-6.45-3.376-13.533-5.652-20.671-7.771a343.908,343.908,0,0,0-54.266-10.976,414.485,414.485,0,0,0-63.219-3.294,423.91,423.91,0,0,0-46.571,3.573q-13.047,1.776-26.1,3.529c-.111.015-.222.038-.334.05-2.278.253-3.629-.243-3.862-1.419-.228-1.148.812-1.926,3.191-2.3,14.881-2.352,29.752-4.791,44.839-6.034a449.532,449.532,0,0,1,48.788-1.571,419.6,419.6,0,0,1,81.69,9.928,203.678,203.678,0,0,1,30.946,9.167,118.191,118.191,0,0,1,13.1,6.461,17.034,17.034,0,0,1,4.662,4.051c2.838,3.4,2.545,7.159-1,10.048a29.837,29.837,0,0,1-7.166,4.172c-6.119,2.577-12.806,3.671-19.529,4.475-21.579,2.582-43.266,2.783-64.991,1.863-8.807-.374-17.622-.7-26.414-1.255-11.382-.724-22.769-1.486-34.11-2.557-10.661-1.007-21.308-2.235-31.877-3.765a153.83,153.83,0,0,1-17.65-3.92,28.142,28.142,0,0,1-7.7-3.464c-5.13-3.272-5.4-7.79-1.014-11.765a26.9,26.9,0,0,1,9.331-5.034,131.781,131.781,0,0,1,24.119-5.6A177.324,177.324,0,0,1,418,142.973c2.883.128,4.179.79,4.042,2.087-.124,1.183-1.335,1.722-4.046,1.8-6.892.2-13.8.185-20.672.632a143.567,143.567,0,0,0-34.337,6.211,36.294,36.294,0,0,0-7.194,3.111c-5.09,2.967-4.9,5.887.512,8.323a51.876,51.876,0,0,0,8.132,2.783,168.739,168.739,0,0,0,26.891,4.492c17.3,1.62,34.616,3.172,51.962,4.381C456.013,177.68,468.8,177.974,476.44,178.31Z" transform="matrix(0.998, -0.07, 0.07, 0.998, -342.678, -92.22)" fill="#ad52dd"/>
</svg>
