<svg xmlns="http://www.w3.org/2000/svg" width="267.574" height="27.022" viewBox="0 0 267.574 27.022">
  <path id="Trazado_2816" data-name="Trazado 2816" d="M332.164,292.22a9.024,9.024,0,0,1-.874-.493,12.213,12.213,0,0,1-1.315-1.375c-.549-.747-1.04-1.521-1.517-2.319-.618-1.035-1.2-2.082-1.886-3.072-.268-.384-.527-.773-.829-1.133a5.376,5.376,0,0,0-1.3-1.111,4,4,0,0,0-1.889-.45,5.349,5.349,0,0,0-.951.158,2.388,2.388,0,0,0-1.047.61,6.2,6.2,0,0,0-1.455,2.486c-.208.512-.4,1.029-.6,1.543-.315.812-.649,1.618-.984,2.422s-.726,1.586-1.113,2.369a12.251,12.251,0,0,1-1.122,1.8,7.989,7.989,0,0,1-.733.771l-.082.048c-.151.047-.3.086-.455.12-.038,0-.076,0-.115,0s-.072-.019-.108-.03a7.466,7.466,0,0,1-.651-.4c-.18-.17-.346-.343-.506-.527a10.554,10.554,0,0,1-.659-1.1c-.4-1.069-.715-2.182-1.059-3.27a24.934,24.934,0,0,0-1.71-4.425,4.37,4.37,0,0,0-1.752-1.953,2.813,2.813,0,0,0-2.028-.218c-.279.116-.556.233-.832.355-.233.175-.465.354-.7.534a4.047,4.047,0,0,0-.869,1.577c-.093.265-.144.541-.253.8l-.337.8c-.465.971-.928,1.936-1.435,2.884-.29.544-.581,1.09-.872,1.633-.353.662-.744,1.308-1.131,1.95a18.833,18.833,0,0,1-1.22,1.753,12.241,12.241,0,0,1-1.525,1.65c-.211.134-.423.255-.644.368-.182.06-.362.111-.546.153h-.026c-.079-.043-.157-.09-.234-.139l-.025-.025a13.489,13.489,0,0,1-.981-1.914c-.716-1.739-1.369-3.5-2.066-5.251-.331-.832-.718-1.636-1.1-2.445a8.5,8.5,0,0,0-1.316-2.117,6.123,6.123,0,0,0-.946-.851,3.226,3.226,0,0,0-1.134-.606,3.029,3.029,0,0,0-1.425-.066,3.441,3.441,0,0,0-1.415.747,8.241,8.241,0,0,0-1.85,2.967c-.308.637-.633,1.264-.957,1.892-.3.578-.631,1.14-.952,1.707a30.652,30.652,0,0,1-2.157,3.346c-.3.376-.6.745-.916,1.1a8.8,8.8,0,0,1-1.063.989,10.726,10.726,0,0,1-1.384.867c-.17.055-.338.1-.511.14-.211.005-.417,0-.625-.015-.119-.026-.237-.058-.354-.1l-.023-.013a6.069,6.069,0,0,1-.426-.452c-.177-.247-.35-.5-.517-.752a11.966,11.966,0,0,1-.783-1.565c-.163-.356-.318-.711-.472-1.071-.4-.935-.794-1.873-1.2-2.807-.257-.612-.513-1.222-.782-1.827a20.953,20.953,0,0,0-1.32-2.4,8.818,8.818,0,0,0-1.416-1.74,8.1,8.1,0,0,0-1-.75,5.213,5.213,0,0,0-1.142-.506l-.859-.116a2.932,2.932,0,0,0-1.318.345,7.776,7.776,0,0,0-.962.681l-.2.226a5.462,5.462,0,0,0-.491.673c-.345.526-.675,1.067-.985,1.612-.585,1.026-1.16,2.061-1.793,3.059l-1.211,1.914q-.645,1.017-1.31,2.018c-.434.654-.912,1.277-1.39,1.9-.321.407-.65.8-1,1.188a8.569,8.569,0,0,1-1,.923,11.535,11.535,0,0,1-1.6.977,7.312,7.312,0,0,1-.8.225,7.821,7.821,0,0,1-1.1-.006,6.657,6.657,0,0,1-.7-.2c-.225-.126-.437-.26-.646-.406a11.105,11.105,0,0,1-.95-.929c-.42-.606-.772-1.247-1.136-1.891-.443-.79-.819-1.614-1.205-2.432s-.785-1.621-1.175-2.435a14.287,14.287,0,0,0-1.669-2.654,11.556,11.556,0,0,0-.87-.993,8.671,8.671,0,0,0-1.033-.815,5.065,5.065,0,0,0-1.171-.618,2.589,2.589,0,0,0-.77-.238,4.332,4.332,0,0,0-.828-.077c-.119.015-.238.03-.359.047a3.388,3.388,0,0,0-1.942.788,10.194,10.194,0,0,0-1.61,2.474c-.677,1.234-1.432,2.425-2.162,3.626-.439.72-.907,1.424-1.359,2.135-.683,1.071-1.384,2.132-2.141,3.151a17.331,17.331,0,0,1-2.333,2.486,7.7,7.7,0,0,1-.744.43,5.534,5.534,0,0,1-.624.168c-.057,0-.113,0-.17,0s-.116-.028-.173-.045l-.029-.019c-.178-.172-.345-.349-.508-.537a40.052,40.052,0,0,1-2.764-4.913c-.613-1.2-1.2-2.424-1.877-3.592-.411-.7-.8-1.413-1.279-2.078a8.7,8.7,0,0,0-2.011-1.954c-.106-.054-.213-.107-.318-.159a1.432,1.432,0,0,0-.692-.21c-.146-.021-.292-.04-.439-.06a1.653,1.653,0,0,0-.835.226,3.329,3.329,0,0,0-1.553,1.894c-.267.754-.531,1.509-.809,2.259-.631,1.694-1.284,3.377-1.977,5.046-.284.648-.592,1.284-.893,1.924a13.212,13.212,0,0,1-1.162,2.055,11.621,11.621,0,0,1-.964,1.022c-.069.047-.141.091-.215.132l-.01,0h-.2a4.832,4.832,0,0,1-.575-.154c-.04-.022-.08-.046-.119-.071a11.964,11.964,0,0,1-1.07-1.17,35.2,35.2,0,0,1-2.265-3.829q-.545-1.014-1.078-2.034c-.4-.754-.841-1.481-1.285-2.207a8.79,8.79,0,0,0-2.631-2.841,3.213,3.213,0,0,0-.684-.253,2.15,2.15,0,0,0-1.2.087c-.129.056-.26.11-.39.166-.215.153-.428.312-.636.477a3.087,3.087,0,0,0-.623,1.053c-.555,1.4-1.037,2.815-1.534,4.231-.582,1.655-1.189,3.316-1.843,4.943-.166.392-.333.784-.5,1.176.043-.1.085-.2.128-.3-.232.544-.475,1.078-.747,1.6a7.941,7.941,0,0,1-.707,1.081,7.447,7.447,0,0,1-.672.691c-.067.041-.135.081-.2.117a2.9,2.9,0,0,1-.29.08l-.123,0-.035-.009c-.057-.032-.114-.066-.17-.1l-.044-.043a32.006,32.006,0,0,1-1.961-4.049c-.462-1.192-.923-2.384-1.353-3.59q-.411-1.148-.822-2.3c-.228-.636-.439-1.279-.708-1.9a6.86,6.86,0,0,0-.556-1.039,4.4,4.4,0,0,0-1.053-1.006,1.656,1.656,0,0,0-1.07-.443,1.567,1.567,0,0,0-1.306.75,6.926,6.926,0,0,0-.5.757c-.115.26-.22.524-.318.792-.131.339-.2.707-.311,1.052q-.238.732-.479,1.464c-.422,1.289-.9,2.569-1.4,3.826a17.668,17.668,0,0,1-1.856,3.413,8.451,8.451,0,0,1-.894.93,3.24,3.24,0,0,1-.3.173c-.061.02-.122.039-.184.056l-.005,0c-.049-.045-.1-.091-.14-.14a51.759,51.759,0,0,1-2.417-4.792c-.479-1-.955-2.006-1.481-2.987a12.849,12.849,0,0,0-.712-1.121,10.982,10.982,0,0,0-.7-.949,4.331,4.331,0,0,0-1.819-1.329,2.86,2.86,0,0,0-2.278,0c-.11.056-.22.111-.328.167a4.184,4.184,0,0,0-.637.543c-.082.107-.165.212-.246.319a1.973,1.973,0,0,0-.417.649,10.266,10.266,0,0,0-.5,1.465c-.092.287-.18.577-.276.861-.536,1.584-1.094,3.162-1.718,4.714a14.108,14.108,0,0,1-1.2,2.236,3.421,3.421,0,0,1-.264.261,4.562,4.562,0,0,1-.472.286l-.044.011h-.054a3.173,3.173,0,0,1-.387-.11c-.068-.034-.135-.072-.2-.112a6.731,6.731,0,0,1-.5-.543c-.378-.513-.74-1.03-1.072-1.577-.235-.387-.469-.773-.71-1.156q-.674-1.064-1.347-2.13a21.8,21.8,0,0,0-2.844-3.688A4.881,4.881,0,0,0,145.162,293a3.745,3.745,0,0,0-1.106-.135,2.389,2.389,0,0,0-1.164.3,6.918,6.918,0,0,0-.643.47,9.527,9.527,0,0,0-.728.983c-.054.117-.107.234-.161.352a4.159,4.159,0,0,0-.3.8c-.058.188-.111.376-.17.563-.212.683-.426,1.363-.636,2.046-.5,1.635-1.036,3.266-1.673,4.855a17.108,17.108,0,0,1-.938,1.9c-.047-.1-.094-.2-.14-.293-.665-1.664-1.265-3.357-1.887-5.038q-.963-2.6-2.061-5.151c-.19-.441-.4-.877-.606-1.308-.237-.482-.529-.937-.8-1.4a3.185,3.185,0,0,0-1.728-1.6,2.249,2.249,0,0,0-1.143-.019c-.226.081-.451.173-.672.271a1.522,1.522,0,0,0-.545.545,3.178,3.178,0,0,0-.424.933c-.162.521-.274,1.06-.4,1.592-.164.713-.36,1.423-.562,2.128a42.277,42.277,0,0,1-1.35,4.159,13.538,13.538,0,0,1-1.255,2.4,8.832,8.832,0,0,1-.871.934c-.07.046-.142.088-.216.127-.064.02-.129.037-.194.051a2.573,2.573,0,0,1-.3,0l-.157-.037-.067-.04c-.225-.214-.436-.428-.64-.659-.514-.734-1-1.495-1.481-2.248-.3-.466-.6-.932-.9-1.4a15.691,15.691,0,0,0-1.317-1.884,4.443,4.443,0,0,0-1.79-1.529,1.943,1.943,0,0,0-.6-.123,3.674,3.674,0,0,0-.639.113,2.693,2.693,0,0,0-1.125.761,5.076,5.076,0,0,0-.9,2c-.191.492-.379.985-.58,1.473a15.922,15.922,0,0,1-1.5,2.807,9.377,9.377,0,0,1-.886.953,6.279,6.279,0,0,1-.666.4,5.13,5.13,0,0,1-.686.2,3.535,3.535,0,0,1-.525-.006,3.194,3.194,0,0,1-.44-.115,2.724,2.724,0,0,1-.281-.166,4.485,4.485,0,0,1-.374-.355,14.3,14.3,0,0,1-.785-1.421l-.563-1.09q-.33-.638-.657-1.272a11.129,11.129,0,0,0-.749-1.3,7.037,7.037,0,0,0-1.138-1.157,1.377,1.377,0,0,0-1.658-.214,3.8,3.8,0,0,0-1.18,1.026,8.394,8.394,0,0,0-.633,1.448c-.158.364-.317.729-.476,1.092a18.349,18.349,0,0,1-1.721,3.146,10.714,10.714,0,0,1-1.284,1.307,9.28,9.28,0,0,1-1.256.713,3.435,3.435,0,0,1-.484.132,3.587,3.587,0,0,1-.475,0,5.1,5.1,0,0,1-.72-.2l-.166-.1a6.978,6.978,0,0,1-.705-.733,16.035,16.035,0,0,1-.925-1.687q-.378-.748-.753-1.5-.606-1.2-1.219-2.391a21.028,21.028,0,0,0-1.237-2.177c-.267-.4-.595-.77-.9-1.141a4.8,4.8,0,0,0-1.034-.9q-.3-.129-.6-.244a4.247,4.247,0,0,0-.637-.065,6.3,6.3,0,0,0-.667.106q-.315.117-.622.253a3.169,3.169,0,0,0-.525.367,5.088,5.088,0,0,0-.423.516c-.221.423-.39.863-.573,1.3.047-.109.092-.217.139-.326-.215.508-.417,1.02-.619,1.535L81.112,300a16.856,16.856,0,0,1-1.85,3.256,12.418,12.418,0,0,1-1.147,1.147,3.475,3.475,0,0,1-.352.21,4.765,4.765,0,0,1-.458.134c-.135-.191-.263-.387-.389-.59a5.831,5.831,0,0,1-.388-.812q-.238-.571-.478-1.142c-.143-.34-.305-.678-.422-1.029q-.476-1.418-.949-2.834c-.085-.251-.145-.514-.216-.768q-.262-.937-.524-1.876-.54-1.934-1.065-3.87a1.521,1.521,0,1,0-2.932.809c.583,2.15,1.184,4.3,1.784,6.44.212.758.5,1.5.75,2.247.273.813.6,1.592.937,2.385.228.538.458,1.072.7,1.6a5.968,5.968,0,0,0,.607,1.005,3.52,3.52,0,0,0,1,1.055l.262.149a1.583,1.583,0,0,0,.657.2,3.906,3.906,0,0,0,1.468-.076,4.835,4.835,0,0,0,1.372-.58c.225-.158.443-.322.658-.494a7.125,7.125,0,0,0,.659-.618,14.206,14.206,0,0,0,2.915-4.863c.452-1.141.874-2.287,1.3-3.437l.022-.045a9.816,9.816,0,0,1,.692.777,18.572,18.572,0,0,1,1.543,2.723q.493,1,.985,2c.284.573.552,1.151.828,1.728.207.435.414.872.64,1.3a6.731,6.731,0,0,0,.682.939,5.316,5.316,0,0,0,.8.813,4.553,4.553,0,0,0,1.69.835,5.17,5.17,0,0,0,2.414.018,4.374,4.374,0,0,0,.777-.282,10.524,10.524,0,0,0,1.228-.629,8.666,8.666,0,0,0,1.978-1.761,14.642,14.642,0,0,0,2.389-4.211q.216-.522.43-1.043c.041-.1.079-.2.117-.3.283.5.525,1.024.781,1.54q.327.657.649,1.32a8.539,8.539,0,0,0,1.2,2.141,5.563,5.563,0,0,0,1.489,1.17,4.863,4.863,0,0,0,2.019.437,4.431,4.431,0,0,0,1.524-.255,5.392,5.392,0,0,0,1.662-.9,8.645,8.645,0,0,0,2.273-2.856,21.48,21.48,0,0,0,1.269-2.955c.121-.342.24-.685.36-1.029.069-.2.128-.394.186-.592q.183.2.361.411c.569.8,1.064,1.645,1.573,2.482l1.021,1.69c.243.4.476.8.731,1.2a7.194,7.194,0,0,0,.687.844l.267.271c.189.155.382.308.578.457a4.548,4.548,0,0,0,.966.391,4.205,4.205,0,0,0,1.074.089,3.972,3.972,0,0,0,1.035-.185,3.487,3.487,0,0,0,1.009-.541,7.138,7.138,0,0,0,1.64-1.713,12.415,12.415,0,0,0,1.237-2.278,31.259,31.259,0,0,0,1.407-3.9c.2-.669.4-1.335.575-2.009.1-.379.2-.76.293-1.141.239.463.457.935.664,1.415.72,1.752,1.364,3.536,1.97,5.329q.445,1.314.883,2.629.276.834.55,1.667c.175.531.407,1.044.625,1.557a3.867,3.867,0,0,0,.939,1.3,2.82,2.82,0,0,0,1.065.645,2.665,2.665,0,0,0,.756.145,5.384,5.384,0,0,0,.769-.125,4.641,4.641,0,0,0,.729-.339c.218-.161.435-.327.649-.5a7,7,0,0,0,1.029-1.228,11.01,11.01,0,0,0,.764-1.47c.273-.556.506-1.13.74-1.7.261-.642.488-1.294.705-1.951.315-.956.616-1.908.9-2.873.111-.385.223-.77.331-1.156.134-.469.246-.953.394-1.42a12.608,12.608,0,0,1,1.246,1.347c1.068,1.477,2.025,3.047,2.964,4.608.243.4.477.81.727,1.208.212.336.465.652.7.973s.479.623.736.919a5.122,5.122,0,0,0,.891.721,5.034,5.034,0,0,0,1.1.485,5.185,5.185,0,0,0,1.214.212,3.27,3.27,0,0,0,1.164-.16l.421-.178a3.022,3.022,0,0,0,.675-.349,6.916,6.916,0,0,0,.944-.753,6.013,6.013,0,0,0,.793-1,8.4,8.4,0,0,0,.611-1.122c.193-.386.376-.772.546-1.168.453-1.056.828-2.144,1.208-3.229.451-1.284.835-2.585,1.193-3.9a3.873,3.873,0,0,1,.338.352,16.116,16.116,0,0,1,1.226,1.918c.271.5.523,1.014.765,1.528.335.706.674,1.41,1,2.118.411.884.819,1.77,1.243,2.649a6.755,6.755,0,0,0,1.425,2.071,3.23,3.23,0,0,0,1.049.651,1.707,1.707,0,0,0,.777.188,2.45,2.45,0,0,0,.814-.046,4.7,4.7,0,0,0,2.2-1.014,10.842,10.842,0,0,0,1.921-2.227,15.306,15.306,0,0,0,1.229-2.371c.466-1.005.835-2.051,1.206-3.092.25-.7.462-1.421.691-2.129.086-.263.159-.531.233-.8.637,1.756,1.222,3.532,1.852,5.291.341.952.705,1.892,1.073,2.833q.441,1.128.964,2.223a6.121,6.121,0,0,0,.628,1.152,2.17,2.17,0,0,0,.51.562,4.277,4.277,0,0,0,.932.621,3.762,3.762,0,0,0,1.564.349c.291-.03.582-.066.871-.108a3.081,3.081,0,0,0,.819-.282,2.423,2.423,0,0,0,.7-.366c.226-.169.446-.345.662-.526a8.571,8.571,0,0,0,1.335-1.609,15.555,15.555,0,0,0,1.554-3.153c.5-1.169.938-2.361,1.362-3.559.326-.919.659-1.833.965-2.76.282-.851.56-1.7.843-2.555.069.079.137.158.2.239a41.552,41.552,0,0,1,2.487,4.395,30.756,30.756,0,0,0,3.039,5.157c.232.287.464.57.709.846.086.084.172.17.26.254.2.169.411.333.622.493a8.089,8.089,0,0,0,1.074.505c.134.039.268.076.4.116q.438.078.88.131l.408.01q.421-.051.839-.12c.11-.044.222-.086.332-.128a3.245,3.245,0,0,0,.74-.365c.1-.078.206-.157.31-.233a5.954,5.954,0,0,0,.652-.543,9.194,9.194,0,0,0,1.076-1.238,12.675,12.675,0,0,0,1.339-2.29c.394-.82.778-1.644,1.123-2.485.447-1.093.866-2.2,1.279-3.3s.786-2.237,1.148-3.366c.073.077.144.157.215.238a29.14,29.14,0,0,1,1.605,2.69c.4.738.767,1.5,1.136,2.255.416.85.83,1.7,1.252,2.548a16.531,16.531,0,0,0,2.8,4.455q.316.255.651.483c.244.105.488.21.732.312a5.954,5.954,0,0,0,1.483.217c.289-.033.578-.071.866-.112a4.086,4.086,0,0,0,.775-.223,6.483,6.483,0,0,0,1.86-1.036,16.9,16.9,0,0,0,2.528-2.552,33.339,33.339,0,0,0,2.176-3.013c.661-.983,1.282-1.994,1.918-2.994.465-.734.9-1.485,1.353-2.23.611-1.013,1.146-2.07,1.756-3.083h0c.044.012.088.024.131.038a7.672,7.672,0,0,1,.737.461,8.814,8.814,0,0,1,.726.746,15.122,15.122,0,0,1,1.411,2.375c.521,1.084,1.015,2.186,1.505,3.286.42.943.9,1.857,1.381,2.769a9.8,9.8,0,0,0,2.138,2.669,10.676,10.676,0,0,0,1.074.811,6.076,6.076,0,0,0,1.6.7,5.521,5.521,0,0,0,.875.16,7.344,7.344,0,0,0,.992.1,8.068,8.068,0,0,0,1.856-.182,5.735,5.735,0,0,0,1.34-.476,11.361,11.361,0,0,0,1.628-.907,12.683,12.683,0,0,0,2.648-2.38c.68-.8,1.3-1.658,1.927-2.5.666-.894,1.254-1.856,1.843-2.8q.711-1.141,1.423-2.284c.421-.673.8-1.38,1.186-2.074.347-.621.7-1.235,1.074-1.839.118.113.231.23.343.354a18.091,18.091,0,0,1,1.717,3.115c.867,2.09,1.685,4.2,2.594,6.275a9.5,9.5,0,0,0,.618,1.151,10.226,10.226,0,0,0,1.006,1.386,4.977,4.977,0,0,0,.966.878,5.985,5.985,0,0,0,1.494.679l.374.083c.321.044.64.088.961.13a4.409,4.409,0,0,0,.762.006q.468-.059.936-.124a8.549,8.549,0,0,0,2.814-1.341,12.916,12.916,0,0,0,2.391-2.128,26.789,26.789,0,0,0,1.951-2.575,38.055,38.055,0,0,0,1.908-3.3c.361-.669.693-1.352,1.027-2.034.273-.558.512-1.134.775-1.7a19.569,19.569,0,0,1,.97,2.011c.478,1.2.909,2.413,1.348,3.626.485,1.341.954,2.69,1.547,3.988.146.321.3.639.457.953a4.3,4.3,0,0,0,1.017,1.226,6.21,6.21,0,0,0,1.084.746c.29.126.582.248.877.363a5.819,5.819,0,0,0,.939.153,5.7,5.7,0,0,0,1.421-.126,10.552,10.552,0,0,0,1.78-.653,4.486,4.486,0,0,0,.687-.408q.39-.3.776-.6a11.713,11.713,0,0,0,1.124-1.137,29.591,29.591,0,0,0,1.9-2.453c.6-.86,1.1-1.8,1.623-2.7.468-.814.884-1.662,1.325-2.491.257-.483.485-.985.715-1.484.361,1.128.688,2.269,1.016,3.4a10.138,10.138,0,0,0,2.681,4.635,9.127,9.127,0,0,0,1.223.913,7.5,7.5,0,0,0,1.4.638,4.855,4.855,0,0,0,1.41.218,6.372,6.372,0,0,0,1.373-.149,4.806,4.806,0,0,0,1.289-.446,5.224,5.224,0,0,0,1.141-.732,11.011,11.011,0,0,0,1.782-1.986,12.862,12.862,0,0,0,1.315-2.2c.442-.9.839-1.809,1.227-2.73.4-.948.766-1.908,1.125-2.872l.053.085c.4.654.758,1.342,1.142,2.007s.779,1.35,1.208,2c.417.635.886,1.234,1.362,1.825a8.638,8.638,0,0,0,3.354,2.572,13.211,13.211,0,0,0,2.122.7,13.87,13.87,0,0,0,2.578.308,2.472,2.472,0,0,0,1.748-4.22,2.615,2.615,0,0,0-1.748-.725c-.134-.01-.268-.021-.4-.034A13.918,13.918,0,0,1,332.164,292.22ZM84.973,297.6l-.238.1a1.8,1.8,0,0,1,.244-.106Zm68.515,5.663.124.053h0C153.571,303.3,153.529,303.283,153.488,303.264Zm7.88-8.278-.057-.024.058.023Zm.2.358a1.871,1.871,0,0,1,.088-.211h0Zm.253-.481h-.005c.04-.056.084-.111.13-.165C161.9,294.754,161.862,294.809,161.82,294.863Zm23.278,9.691h-.005c-.021-.016-.042-.034-.063-.052Zm.043.036q-.134.023-.27.033l.266-.036-.018-.013h.006l.016.013.037-.005h.008l-.041.007.059.045Zm.138.026.037-.016h0Zm.051-.02h0l.162-.068Q185.411,304.564,185.33,304.6Zm37.229-3.913.188.027,0,0C222.687,300.7,222.623,300.7,222.559,300.683Zm.216.032,0,0,.024,0h0Zm.031,0h0Zm50.97-3.267-.044-.022.053.023Zm.01,0,.011,0,.211.088A2.141,2.141,0,0,1,273.786,297.455Zm20.981-.414.055.023h0Zm.152.061-.027-.023.032.025Zm.044.036-.036-.029.008,0,.034.026Zm.038.031h.006l.109.085C295.077,297.226,295.039,297.2,295,297.169Z" transform="translate(-69.89 -282.267)" fill="#ad52dd"/>
</svg>
