<svg xmlns="http://www.w3.org/2000/svg" width="409.006" height="23.162" viewBox="0 0 409.006 23.162">
  <g id="Grupo_78030" data-name="Grupo 78030" transform="translate(-61.87 -176.426)">
    <path id="Trazado_2220" data-name="Trazado 2220" d="M70.749,185.873c3.241.021,6.482-.1,9.72-.17,1.319-.028,2.636-.074,3.953-.118l17.421-.568q10.414-.339,20.83-.722l29.751-1.089c2.273-.083,4.548-.14,6.821-.209q8.669-.27,17.334-.535l17.337-.533c2.261-.07,4.525-.16,6.787-.208q13.828-.288,27.661-.571l17.008-.351c2.218-.046,4.442-.115,6.662-.136q13.369-.126,26.737-.264,13.192-.128,26.386-.259c2.322-.022,4.647-.012,6.966-.018q8.614-.02,17.227-.044,13.391-.033,26.784-.067c2.919-.009,5.842.013,8.76.019q9.168.021,18.34.042l1.517,0q-20.641.183-41.286.379l-17.239.167c-2.479.024-4.961.03-7.44.072q-12.472.213-24.941.444l-28.829.51c-1.615.029-3.23.089-4.842.139l-15.352.464q-15.568.47-31.14.941c-1.537.047-3.07.118-4.606.187q-7.6.343-15.209.689-13.622.616-27.243,1.234c-2.5.114-5.005.275-7.505.414l-17.445.963c-7.391.408-14.785.8-22.173,1.226q-15.429.88-30.852,1.767-3.7.213-7.4.423c-4.421.254-8.829.62-13.24.939-.467.033-.864.232-.864.567,0,.319.393.552.864.566q2.417.07,4.837.137a1.519,1.519,0,0,0-.316.884c0,1.078,1.441,2.145,3.163,2.076,12.609-.516,25.214-1.076,37.836-1.471l32.869-1.026,36.34-1.136,11.44-.358c1.1-.033,2.2-.08,3.3-.1q29.271-.511,58.54-1.008l31.285-.538q5.655-.1,11.3-.16,29.939-.306,59.879-.614l25.655-.27c7.3-.077,14.6-.11,21.9-.289l18.092-.449c3.009-.074,6.025-.122,9.031-.246q10.268-.425,20.535-.869l-.015.016a1.339,1.339,0,0,0-.288,1.441,2.238,2.238,0,0,0,1.31,1.116,4,4,0,0,0,2.2.188q2.239-.582,4.459-1.193l-.093.026.329-.091.381-.1-.139.038,2.368-.655c.826-.226,1.653-.454,2.474-.691.9-.256,1.753-.568,2.616-.87a2.107,2.107,0,0,0,1.573-1.8,1.574,1.574,0,0,0-.433-1.052,3.21,3.21,0,0,0-1.9-.958c-.765-.087-1.527-.154-2.3-.218-.168-.014-.34-.02-.515-.02-.52,0-1.061.048-1.557.071-1.163.054-2.317.167-3.48.223l-2.843.134q-3.83.183-7.658.364c-.659.032-1.32.057-1.979.086a1.556,1.556,0,0,0,.512-.615,1.226,1.226,0,0,0,.2-.577c.027-.142.058-.285.087-.426a1.137,1.137,0,0,0-.142-.531l.2-.058a2.948,2.948,0,0,0,1.148-.755,1.5,1.5,0,0,0,0-2.122c-.165-.142-.332-.284-.5-.427a3.851,3.851,0,0,0-1.415-.541,12.587,12.587,0,0,0-3.058-.306c-.854,0-1.712.04-2.555.046l-3.682.024c-1.736.012-3.473.028-5.209.034q-6.881.024-13.763.046-6.474.024-12.946.012-5.884,0-11.766.006c-15.637.045-31.271.061-46.907.166q-17.588.114-35.172.232-7.862.054-15.722.161l-35.244.489-10.051.14c-1.944.028-3.886.094-5.83.142q-17.414.434-34.832.866l-10.632.266c-1.988.048-3.974.135-5.961.2q-17.3.611-34.6,1.219-8.934.315-17.855.692-15.283.631-30.565,1.265c-8.827.363-17.659.678-26.487,1.017l-4.2.16c-2.259.087-4.525.146-6.787.212-2.006.059-4.023.1-6.036.061a1.438,1.438,0,0,0-1.291-.591c-1.3.068-2.593.16-3.888.252a1.489,1.489,0,0,0-1.354.674c-.2.472.236,1.016.982,1.134.563.088,1.122.18,1.688.265s1.139.105,1.7.138C67.77,185.844,69.261,185.864,70.749,185.873Zm356.748-3.21,5.685,0a2.249,2.249,0,0,0,.765.729c-.733.033-1.467.065-2.2.083l-4.144.1-18.091.446c-2.761.067-5.522.167-8.283.2q-6.469.064-12.942.134-14.786.153-29.576.307-28.706.3-57.414.6c-13.705.144-27.406.424-41.106.66q-30.965.542-61.934,1.078c-4.139.072-8.278.245-12.413.375q-17.576.554-35.152,1.106l-34.511,1.084-3.2.1q4.651-.246,9.3-.481,16.241-.813,32.481-1.629l11.344-.568c1.95-.1,3.9-.159,5.856-.238l33.777-1.342c2.2-.089,4.4-.205,6.606-.261l9.516-.242,34.826-.886,7.662-.2c.672-.016,1.346-.018,2.018-.027l5.382-.071,34.9-.467c5.36-.072,10.719-.155,16.079-.184,17.3-.091,34.593-.209,51.89-.26C392.25,182.752,409.873,182.672,427.5,182.663Z" fill="#ad52dd"/>
    <ellipse id="Elipse_36" data-name="Elipse 36" cx="0.749" cy="0.568" rx="0.749" ry="0.568" transform="translate(88.631 198.452)" fill="#ad52dd"/>
  </g>
</svg>
