<svg xmlns="http://www.w3.org/2000/svg" width="61.364" height="48.18" viewBox="0 0 61.364 48.18">
  <g id="Grupo_78038" data-name="Grupo 78038" opacity="0.301">
    <g id="Grupo_78039" data-name="Grupo 78039">
      <path id="Trazado_2814" data-name="Trazado 2814" d="M6.792,49.532a3.408,3.408,0,0,1-3.4-3.409V6.8a3.406,3.406,0,0,1,3.4-3.4H59.306a3.41,3.41,0,0,1,3.409,3.4V46.123a3.413,3.413,0,0,1-3.409,3.409Z" transform="translate(-2.372 -2.372)" fill="#fff"/>
      <path id="Trazado_2815" data-name="Trazado 2815" d="M56.935,2.041a2.4,2.4,0,0,1,2.388,2.384V43.751a2.4,2.4,0,0,1-2.388,2.388H4.421a2.4,2.4,0,0,1-2.38-2.388V4.425a2.4,2.4,0,0,1,2.38-2.384Zm0-2.041H4.421A4.428,4.428,0,0,0,0,4.425V43.751A4.43,4.43,0,0,0,4.421,48.18H56.935a4.434,4.434,0,0,0,4.429-4.429V4.425A4.432,4.432,0,0,0,56.935,0" fill="#4d4d4f"/>
      <path id="Trazado_2820" data-name="Trazado 2820" d="M0,0H58.917" transform="translate(1.462 7.08)" fill="none" stroke="#4d4d4f" stroke-width="2"/>
      <path id="Trazado_2816" data-name="Trazado 2816" d="M17.179,11.566a.847.847,0,1,1-.847-.847.847.847,0,0,1,.847.847" transform="translate(-10.827 -7.494)" fill="#4d4d4f"/>
      <path id="Trazado_2817" data-name="Trazado 2817" d="M30.263,11.566a.847.847,0,1,1-.847-.847.847.847,0,0,1,.847.847" transform="translate(-19.975 -7.494)" fill="#4d4d4f"/>
      <path id="Trazado_2818" data-name="Trazado 2818" d="M43.348,11.566a.847.847,0,1,1-.847-.847.847.847,0,0,1,.847.847" transform="translate(-29.124 -7.494)" fill="#4d4d4f"/>
      <path id="Trazado_2819" data-name="Trazado 2819" d="M90.835,62.016a1.133,1.133,0,0,1,0,1.963l-7.748,4.473-7.748,4.473a1.133,1.133,0,0,1-1.7-.981V54.05a1.133,1.133,0,0,1,1.7-.981l7.748,4.473Z" transform="translate(-51.486 -36.997)" fill="#4d4d4f"/>
    </g>
  </g>
</svg>
