<svg xmlns="http://www.w3.org/2000/svg" width="58.316" height="61.719" viewBox="0 0 58.316 61.719">
  <g id="Grupo_78015" data-name="Grupo 78015" transform="translate(-922.438 -2546.652)" opacity="0.301">
    <g id="Grupo_78012" data-name="Grupo 78012" transform="translate(287.015 2349.913)">
      <g id="Grupo_78011" data-name="Grupo 78011" transform="translate(637.424 198.739)">
        <g id="Grupo_78009" data-name="Grupo 78009">
          <g id="Rectángulo_6468" data-name="Rectángulo 6468" fill="#fff" stroke="#4d4d4f" stroke-width="2">
            <rect width="33.509" height="38.48" rx="3.47" stroke="none"/>
            <rect x="-1" y="-1" width="35.509" height="40.48" rx="4.47" fill="none"/>
          </g>
        </g>
        <g id="Grupo_78010" data-name="Grupo 78010" transform="translate(3.631 4.508)">
          <path id="Trazado_2691" data-name="Trazado 2691" d="M720.314,232.873l-23.437-.018a1.193,1.193,0,0,1-1.312-1.015l.079-23.236a1.193,1.193,0,0,1,1.314-1.013l23.437.018a1.193,1.193,0,0,1,1.313,1.015l-.079,23.236A1.193,1.193,0,0,1,720.314,232.873Z" transform="translate(-695.565 -207.59)" fill="#4d4d4f"/>
        </g>
      </g>
    </g>
    <g id="Grupo_78013" data-name="Grupo 78013" transform="translate(296.822 2358.913)">
      <g id="Grupo_78011-2" data-name="Grupo 78011" transform="translate(637.424 198.739)">
        <g id="Grupo_78009-2" data-name="Grupo 78009">
          <g id="Rectángulo_6468-2" data-name="Rectángulo 6468" fill="#fff" stroke="#4d4d4f" stroke-width="2">
            <rect width="33.509" height="38.48" rx="3.47" stroke="none"/>
            <rect x="-1" y="-1" width="35.509" height="40.48" rx="4.47" fill="none"/>
          </g>
        </g>
        <g id="Grupo_78010-2" data-name="Grupo 78010" transform="translate(3.631 4.508)">
          <path id="Trazado_2691-2" data-name="Trazado 2691" d="M720.314,232.873l-23.437-.018a1.193,1.193,0,0,1-1.312-1.015l.079-23.236a1.193,1.193,0,0,1,1.314-1.013l23.437.018a1.193,1.193,0,0,1,1.313,1.015l-.079,23.236A1.193,1.193,0,0,1,720.314,232.873Z" transform="translate(-695.565 -207.59)" fill="#4d4d4f"/>
        </g>
      </g>
    </g>
    <g id="Grupo_78014" data-name="Grupo 78014" transform="translate(307.822 2369.152)">
      <g id="Grupo_78011-3" data-name="Grupo 78011" transform="translate(637.424 198.739)">
        <g id="Grupo_78009-3" data-name="Grupo 78009">
          <g id="Rectángulo_6468-3" data-name="Rectángulo 6468" fill="#fff" stroke="#4d4d4f" stroke-width="2">
            <rect width="33.509" height="38.48" rx="3.47" stroke="none"/>
            <rect x="-1" y="-1" width="35.509" height="40.48" rx="4.47" fill="none"/>
          </g>
        </g>
        <g id="Grupo_78010-3" data-name="Grupo 78010" transform="translate(3.631 4.508)">
          <path id="Trazado_2691-3" data-name="Trazado 2691" d="M720.314,232.873l-23.437-.018a1.193,1.193,0,0,1-1.312-1.015l.079-23.236a1.193,1.193,0,0,1,1.314-1.013l23.437.018a1.193,1.193,0,0,1,1.313,1.015l-.079,23.236A1.193,1.193,0,0,1,720.314,232.873Z" transform="translate(-695.565 -207.59)" fill="#4d4d4f"/>
        </g>
      </g>
    </g>
  </g>
</svg>
